<?xml version="1.0" encoding="UTF-8"?>
<!-- Created by grConvert v0.1-0 -->
<svg xmlns="http://www.w3.org/2000/svg" xmlns:xlink="http://www.w3.org/1999/xlink" width="558pt" height="311pt" viewBox="0 0 558 311" version="1.1">
<g id="surface8">
<path style=" stroke:none;fill-rule:nonzero;fill:rgb(90.196078%,90.196078%,90.196078%);fill-opacity:1;" d="M 143.648438 104.375 C 143.648438 104.375 147.460938 104.875 149.613281 105.539062 C 151.777344 106.195312 156.75 109.179688 159.40625 112.652344 C 162.0625 116.132812 167.039062 118.949219 169.53125 120.113281 C 172.023438 121.269531 172.023438 125.902344 171.851562 128.71875 C 171.683594 131.539062 168.203125 139.492188 166.710938 141.476562 C 165.214844 143.460938 159.078125 160.195312 155.757812 164.667969 C 152.441406 169.136719 140.328125 191.828125 137.34375 195.800781 C 134.351562 199.78125 125.722656 198.457031 120.078125 204.746094 C 114.445312 211.039062 107.46875 207.726562 98.835938 209.21875 C 92 210.398438 85.070312 208.394531 85.070312 208.394531 M 6.714844 156.113281 C 4.078125 152.910156 3.867188 148.882812 10.894531 143.023438 C 21.292969 133.417969 41.648438 115.632812 50.054688 108.789062 C 58.46875 101.949219 81.03125 86.257812 90.109375 81.40625 C 99.835938 73.898438 101.167969 71.914062 111.347656 66.058594 C 123.289062 57.558594 144.863281 47.617188 149.507812 46.84375 C 154.15625 46.070312 162.558594 44.304688 172.074219 46.292969 C 181.585938 48.28125 199.066406 48.496094 202.609375 48.613281 C 206.148438 48.71875 224.730469 55.566406 237.230469 57.109375 C 249.730469 58.664062 277.609375 71.464844 292.976562 72.351562 C 308.359375 73.238281 331.253906 88.914062 340.664062 92 C 350.070312 95.097656 374.511719 113.429688 379.710938 116.296875 C 384.914062 119.171875 402.613281 126.128906 409.355469 127.226562 C 416.109375 128.328125 422.742188 129.546875 427.390625 129.546875 C 432.035156 129.546875 436.015625 130.429688 443.984375 127.675781 C 451.949219 124.914062 449.957031 125.789062 456.046875 124.578125 C 462.128906 123.363281 462.457031 126.128906 463.125 128.328125 C 463.789062 130.542969 466.445312 135.621094 465.664062 138.824219 C 464.890625 142.03125 463.898438 145.894531 463.671875 148.652344 C 463.453125 151.414062 462.234375 152.851562 462.570312 156.492188 C 462.894531 160.136719 465 168.3125 463.339844 170.851562 C 461.679688 173.390625 459.578125 177.25 458.03125 178.46875 C 456.484375 179.683594 450.839844 183.210938 448.734375 183.984375 C 446.636719 184.761719 445.421875 185.863281 444.316406 185.863281 C 443.210938 185.863281 438.453125 185.308594 434.578125 185.539062 C 430.707031 185.75 418.871094 187.519531 413.5625 189.617188 C 408.25 191.71875 405.488281 192.820312 400.289062 194.476562 C 395.085938 196.136719 394.867188 197.234375 387.230469 200 C 379.601562 202.757812 368.652344 200.996094 361.679688 203.421875 C 354.710938 205.851562 341.109375 208.941406 335.90625 211.257812 C 330.707031 213.578125 315.664062 216.011719 312.457031 217.113281 C 309.25 218.21875 283.027344 223.734375 279.601562 224.617188 C 276.167969 225.507812 277.609375 224.953125 266.988281 225.507812 C 256.371094 226.054688 254.375 225.617188 250.617188 226.503906 C 246.855469 227.382812 240.214844 226.609375 237.007812 226.503906 C 233.796875 226.386719 205.371094 225.289062 197.074219 223.515625 C 188.773438 221.753906 188.554688 221.203125 179.375 221.414062 C 170.191406 221.640625 143.753906 221.972656 139.769531 221.414062 C 135.789062 220.867188 114.769531 218.550781 104.707031 216.230469 C 94.632812 213.910156 97.289062 213.25 96.1875 212.804688 C 95.078125 212.363281 90.109375 209.492188 84.132812 208.054688 C 78.15625 206.621094 63.109375 202.871094 50.054688 194.917969 C 37.007812 186.96875 28.265625 182.773438 22.734375 179.34375 C 17.207031 175.929688 -0.722656 162.675781 0.273438 159.917969 C 1.273438 157.152344 3.789062 154.03125 5.34375 154.144531 M 32.246094 132.3125 C 31.140625 133.085938 30.703125 134.078125 30.703125 134.078125 M 24.835938 137.9375 C 25.609375 139.492188 25.9375 140.257812 25.9375 140.148438 "/>
<path style="fill-rule:nonzero;fill:rgb(80%,80%,80%);fill-opacity:1;stroke-width:0.24;stroke-linecap:butt;stroke-linejoin:miter;stroke:rgb(0%,0%,0%);stroke-opacity:1;stroke-miterlimit:4;" d="M 54.442115 909.478837 C 53.508113 908.948836 51.232109 907.378833 50.492107 905.87283 C 49.698106 905.81483 48.410103 907.412833 47.898102 908.828836 C 47.388101 910.240839 56.568119 917.024852 59.398124 918.774855 C 62.23013 920.530859 66.706138 922.678863 73.386151 926.748871 C 75.310155 927.652872 76.332157 925.164868 77.350159 923.692865 C 78.370161 922.224862 80.410165 917.814853 78.370161 916.572851 C 76.332157 915.328849 72.142149 913.748846 69.988145 913.178845 C 67.83614 912.614843 63.986133 911.260841 60.812127 908.768836 C 57.870121 905.83083 52.998112 900.854821 51.376109 902.152823 C 49.858106 904.128827 50.162107 905.62883 51.196109 906.880832 C 52.18611 908.080835 53.842114 909.060837 55.208116 910.014838 C 55.800117 910.57884 56.182118 910.79084 56.848119 911.372841 C 57.00012 911.538841 60.876127 914.442847 62.850131 916.572851 C 69.712144 923.488864 67.49614 922.564863 73.726152 925.164868 " transform="matrix(1.953121,0,0,1.953121,-93.277364,-1615.134944)"/>
<path style="fill-rule:nonzero;fill:rgb(50.196078%,50.196078%,50.196078%);fill-opacity:1;stroke-width:0.24;stroke-linecap:butt;stroke-linejoin:miter;stroke:rgb(0%,0%,0%);stroke-opacity:1;stroke-miterlimit:4;" d="M 70.582146 897.350814 C 71.606148 899.640819 73.386151 903.454826 76.446157 904.218827 C 79.506163 904.980829 79.758163 906.252831 84.346172 904.728828 C 88.936181 903.200825 88.680181 903.200825 90.718184 899.892819 C 92.758188 896.588813 92.500188 894.804809 92.248187 892.262804 C 91.992187 889.718799 88.936181 885.900792 86.386176 885.138791 C 83.836171 884.374789 80.012164 884.122789 76.446157 884.88479 C 72.87615 885.648792 72.368149 887.938796 71.606148 889.210798 C 70.838146 890.480801 69.562144 895.06081 70.582146 897.350814 Z M 70.582146 897.350814 " transform="matrix(1.953121,0,0,1.953121,-93.277364,-1615.134944)"/>
<path style="fill-rule:nonzero;fill:rgb(9.803922%,5.490196%,2.745098%);fill-opacity:1;stroke-width:0.24;stroke-linecap:butt;stroke-linejoin:miter;stroke:rgb(0%,0%,0%);stroke-opacity:1;stroke-miterlimit:4;" d="M 80.522165 888.190797 C 77.720159 888.448797 76.446157 888.190797 75.170155 889.9728 C 73.898152 891.752803 73.160151 898.252816 74.832154 900.48882 C 76.020156 901.250822 77.126158 901.928823 78.738161 901.928823 C 80.356165 901.928823 82.818169 901.760823 83.922171 901.250822 C 85.026173 900.740821 86.556176 900.912821 87.488178 899.640819 C 88.42218 898.368816 88.848181 897.690815 88.762181 895.738811 C 88.680181 893.788807 88.680181 892.430805 87.830179 891.242802 C 86.980177 890.0548 86.386176 888.448797 84.770173 888.022796 C 83.15817 887.598795 83.32617 887.938796 80.522165 888.190797 Z M 80.522165 888.190797 " transform="matrix(1.953121,0,0,1.953121,-93.277364,-1615.134944)"/>
<path style="fill-rule:nonzero;fill:rgb(80%,80%,80%);fill-opacity:1;stroke-width:0.24;stroke-linecap:butt;stroke-linejoin:miter;stroke:rgb(0%,0%,0%);stroke-opacity:1;stroke-miterlimit:4;" d="M 173.662344 827.072679 C 172.926342 827.064679 171.73234 827.70068 171.258339 827.924681 C 170.182337 828.434682 168.596334 829.224683 167.462332 829.790684 C 166.33033 830.354685 165.426328 830.692686 163.726325 831.880688 C 162.026321 833.068691 159.308316 835.500695 158.120314 835.898696 C 156.930312 836.290697 157.326312 836.290697 157.042312 835.612696 C 156.760311 834.934694 156.760311 834.480693 157.042312 832.050689 C 157.326312 829.622684 156.25031 831.372687 154.436307 832.390689 C 152.622303 833.410691 152.456303 833.972692 150.7563 835.554695 C 149.056296 837.140699 148.150295 837.364699 146.960292 837.7027 C 145.77029 838.0427 145.318289 837.364699 144.976289 835.780696 C 144.886288 835.348695 145.49229 833.612692 144.868288 833.860692 C 143.212285 834.514693 139.248278 838.698702 138.182276 839.964704 C 136.710273 841.718707 134.726269 842.228708 134.612269 841.942708 C 134.500268 841.662707 134.160268 841.492707 133.932267 841.492707 C 133.708267 841.492707 131.556263 843.30071 130.762261 843.924712 C 129.97026 844.548713 121.926244 851.330726 124.306249 850.934725 C 126.686253 850.538724 130.988262 849.634722 135.860271 850.652724 C 140.73028 851.668726 149.680298 851.780727 151.492301 851.840727 C 153.306305 851.892727 162.820323 855.400734 169.220335 856.190735 C 175.620347 856.984737 189.892375 863.540749 197.76239 863.99275 C 205.638405 864.448751 217.360428 872.474766 222.176437 874.054769 C 226.992446 875.640772 239.50847 885.02479 242.170475 886.492793 C 244.020479 887.518795 248.970488 889.550799 252.972496 890.888802 C 254.726499 891.468803 253.100496 889.9428 253.896498 889.548799 C 254.686499 889.152798 257.860505 889.548799 259.388508 889.602799 C 260.918511 889.662799 265.28052 889.040798 266.862523 888.360797 C 268.450526 887.680796 267.770524 883.272787 267.826524 881.972785 C 267.858525 881.300783 268.542526 878.564778 268.168525 875.922773 C 267.818524 873.452768 266.408522 871.068764 266.298522 870.438762 C 266.186521 869.798761 265.010519 867.228756 263.468516 864.840752 C 261.886513 862.398747 259.930509 860.128743 259.612509 859.528741 C 258.992508 858.340739 253.442497 853.31073 252.422495 852.628728 C 251.400493 851.950727 244.77648 847.428718 243.698478 846.922717 C 242.622476 846.412716 240.922473 844.940713 237.242466 844.038712 C 235.696463 843.654711 234.18246 842.88071 232.542457 842.510709 C 230.282452 842.000708 227.998448 841.960708 227.048446 842.060708 C 225.406443 842.228708 225.008442 842.060708 224.04644 841.942708 C 223.082439 841.830708 223.368439 841.662707 222.120437 841.888708 C 220.872434 842.112708 220.362433 842.510709 219.346431 842.90471 C 218.326429 843.30071 217.870429 843.13071 216.796426 843.19071 C 215.720424 843.24271 215.608424 842.452709 215.156423 842.172708 C 214.700422 841.888708 213.792421 842.112708 211.810417 842.172708 C 209.830413 842.228708 210.456414 842.060708 209.942413 841.152706 C 209.432412 840.248704 209.320412 839.460703 209.320412 839.460703 C 209.320412 839.460703 208.470411 839.288703 207.336408 839.342703 C 206.206406 839.400703 205.862405 839.004702 205.186404 838.440701 C 204.506403 837.8747 204.676403 837.8187 203.938402 836.404697 C 203.2004 834.990694 203.712401 835.668696 202.7484 835.554695 C 201.788398 835.442695 201.448397 835.612696 199.296393 835.612696 C 197.142389 835.612696 198.332391 835.218695 197.65039 834.424693 C 196.972388 833.634692 197.086389 833.352691 197.086389 833.352691 C 197.086389 833.352691 196.010387 833.690692 195.160385 833.860692 C 194.310383 834.030693 193.632382 834.540694 192.158379 834.312693 C 190.686376 834.088693 191.308378 833.292691 191.308378 833.292691 L 190.856377 831.880688 C 190.856377 831.880688 189.046373 832.56069 188.080371 832.90069 C 187.11837 833.238691 186.156368 833.410691 185.588367 833.238691 C 185.022365 833.068691 184.850365 832.164689 184.230364 830.184685 C 183.608363 828.204681 182.926361 828.714682 181.96236 828.942683 C 181.000358 829.168683 180.660357 829.392684 179.756355 829.848685 C 178.848354 830.300685 175.676348 831.428688 175.168347 831.372687 C 174.658346 831.314687 173.862344 831.314687 173.976344 829.848685 C 174.030344 829.172683 174.576345 827.55468 174.092344 827.188679 C 173.982344 827.104679 173.836344 827.072679 173.662344 827.072679 Z M 173.662344 827.072679 " transform="matrix(1.953121,0,0,1.953121,-93.277364,-1615.134944)"/>
<path style="fill-rule:nonzero;fill:rgb(50.196078%,50.196078%,50.196078%);fill-opacity:1;stroke-width:0.24;stroke-linecap:butt;stroke-linejoin:miter;stroke:rgb(0%,0%,0%);stroke-opacity:1;stroke-miterlimit:4;" d="M 196.320387 860.374743 C 196.492388 859.018741 197.76239 857.238737 198.700392 855.880734 C 199.636394 854.524732 202.7804 852.318728 204.818403 850.792725 C 206.856407 849.264722 207.196408 848.672721 209.488412 846.384716 C 211.782417 844.092712 212.098417 845.150714 212.658419 843.752711 C 211.550416 844.262712 209.320412 845.874715 208.13041 846.638717 C 206.942408 847.400718 206.176406 847.910719 204.648403 849.098721 C 203.1184 850.284724 201.506397 850.962725 200.230395 852.318728 C 198.956392 853.67473 198.02039 853.930731 197.256389 854.440732 C 196.492388 854.948733 193.518382 857.578738 192.242379 858.59274 C 190.970377 859.612742 190.458376 859.698742 189.780375 858.85074 C 189.098373 858.000739 190.372376 857.068737 191.308378 855.712734 C 192.242379 854.352732 193.518382 853.252729 195.132385 851.554726 C 196.746388 849.860723 196.660388 850.114723 198.700392 848.16272 C 200.738396 846.212716 200.908396 846.722717 203.626401 844.178712 C 204.408403 843.29071 206.012406 842.118708 205.892406 841.780707 C 204.770403 842.312708 203.542401 843.24271 201.080396 844.688713 C 198.612392 846.128716 197.256389 847.148718 196.320387 847.568719 C 195.386385 847.992719 189.780375 851.640726 186.636369 855.034733 C 183.492363 858.424739 183.238362 855.624734 184.086364 853.67473 C 184.936365 851.724727 185.786367 851.810727 186.892369 850.200724 C 187.996371 848.58872 191.818379 845.450714 195.470386 842.398709 C 199.122393 839.342703 199.122393 839.260703 197.256389 840.192704 C 195.386385 841.124706 194.622384 841.550707 193.092381 842.564709 C 191.562378 843.584711 189.610374 844.602713 187.656371 846.468716 C 185.700367 848.33472 189.780375 844.688713 181.368358 851.640726 C 172.958342 858.59274 179.412355 852.150727 179.670355 850.710725 C 179.922356 849.264722 180.688357 847.910719 181.96236 846.212716 C 183.238362 844.518713 185.532366 843.414711 190.882377 839.090702 C 196.236387 834.764694 192.83838 836.714698 191.308378 837.310699 C 189.780375 837.9027 189.098373 838.834702 187.31837 839.852704 C 185.532366 840.872706 183.662363 842.564709 182.13236 843.668711 C 180.606357 844.772713 180.010356 846.042716 174.998346 849.350722 C 169.986337 852.660728 170.156337 851.048725 170.832338 849.434722 C 171.51234 847.824719 172.618342 847.148718 174.572345 844.688713 C 176.526349 842.228708 178.650353 840.954706 182.38836 838.0727 C 186.126368 835.188695 185.700367 834.000692 182.898361 836.548697 C 180.096356 839.090702 180.858357 837.8187 179.072354 839.090702 C 177.292351 840.362705 177.20635 840.784706 168.880334 846.298716 C 160.556319 851.810727 163.868325 847.568719 164.208326 845.280714 C 164.392326 844.042712 166.34833 841.904708 168.880334 839.838704 C 170.856338 838.222701 173.218343 835.964696 175.336347 834.718694 C 175.522347 834.610694 176.668349 834.052693 176.85035 833.948692 C 177.996352 833.052691 178.958354 832.58469 179.356355 831.418688 C 176.88835 833.114691 175.508347 833.662692 173.892344 834.850694 C 172.280341 836.038696 170.748338 836.884698 169.898336 837.140699 C 169.048335 837.392699 167.946333 838.580701 160.382318 844.772713 C 152.822304 850.962725 157.242312 844.854713 157.580313 842.822709 C 157.920313 840.784706 163.698325 836.122697 167.606332 832.134689 C 171.51234 828.150681 167.180331 831.372687 165.396328 832.64269 C 163.612324 833.914692 162.932323 834.088693 160.808319 835.868696 C 158.686315 837.648699 154.946308 840.700705 153.672305 841.550707 C 152.398303 842.398709 149.510297 845.198714 147.638294 847.740719 C 145.77029 850.284724 145.008289 849.098721 144.920288 849.098721 C 144.836288 849.098721 145.008289 847.314718 145.260289 846.384716 C 145.51829 845.450714 148.320295 841.210706 149.680298 839.852704 C 151.0383 838.498701 153.588305 834.424693 153.162304 835.018694 C 152.738303 835.612696 151.1223 836.968698 150.020298 838.1547 C 148.912296 839.342703 142.798284 844.854713 141.780282 845.874715 C 140.75828 846.890717 139.738279 848.842721 138.462276 849.434722 C 137.192274 850.028723 137.360274 848.928721 137.106273 848.33472 C 136.850273 847.740719 139.146277 842.312708 139.908279 840.954706 C 140.67228 839.600703 142.798284 836.460697 142.032283 837.224699 C 141.268281 837.9887 140.50628 839.090702 139.738279 839.768704 C 138.972277 840.448705 138.720277 840.362705 136.936273 843.668711 C 135.15027 846.974717 133.282266 849.012721 132.348264 849.098721 C 131.412263 849.180722 130.732261 848.754721 130.820261 848.41872 C 130.906262 848.07872 131.498263 846.552717 131.922264 845.702715 C 132.348264 844.854713 134.132268 842.312708 133.960267 841.972708 C 133.792267 841.634707 131.412263 844.688713 130.22226 846.468716 C 129.036258 848.25072 121.926244 851.330726 124.306249 850.934725 C 126.686253 850.538724 130.988262 849.634722 135.860271 850.652724 C 140.73028 851.668726 149.680298 851.780727 151.492301 851.840727 C 153.306305 851.892727 162.820323 855.400734 169.220335 856.190735 C 175.620347 856.984737 189.892375 863.540749 197.76239 863.99275 C 198.162391 864.01475 196.150387 861.730746 196.320387 860.374743 Z M 196.320387 860.374743 " transform="matrix(1.953121,0,0,1.953121,-93.277364,-1615.134944)"/>
<path style="fill-rule:nonzero;fill:rgb(80%,80%,80%);fill-opacity:1;stroke-width:0.24;stroke-linecap:round;stroke-linejoin:round;stroke:rgb(0%,0%,0%);stroke-opacity:1;stroke-miterlimit:4;" d="M 141.632282 940.264897 C 141.376282 940.264897 140.772281 940.288897 139.598278 940.314897 C 137.856275 940.360897 134.896269 940.410897 131.760263 940.440897 C 134.896269 944.614905 132.688265 941.730899 134.330268 948.348912 C 134.330268 948.348912 136.538272 956.034927 136.992273 958.068931 C 137.446274 960.104935 140.958281 968.07495 141.636282 969.092952 C 142.318283 970.112954 144.696288 972.488958 145.376289 973.788961 C 146.056291 975.088963 147.130293 976.724967 148.262295 978.47897 C 149.396297 980.230973 149.396297 981.022975 151.262301 982.948978 C 153.132304 984.868982 154.042306 986.224985 154.550307 986.224985 C 155.060308 986.224985 154.776307 986.618986 155.682309 985.092983 C 156.588311 983.56498 157.720313 980.910975 158.512315 980.454974 C 159.308316 980.004973 160.438318 977.234967 160.438318 977.234967 L 161.17632 975.088963 C 161.17632 975.088963 162.082321 974.180962 162.536322 972.090958 C 162.988323 969.998954 163.158324 967.90495 163.838325 966.718947 C 164.518326 965.530945 165.256328 962.252939 165.256328 962.252939 C 165.256328 962.252939 165.936329 958.748932 165.310328 957.334929 C 164.688326 955.922927 162.820323 953.038921 162.762323 953.038921 C 162.708323 953.038921 160.838319 950.890917 157.382312 949.138914 C 153.926306 947.38491 151.1503 944.724905 149.792298 944.500905 C 148.432295 944.274904 145.77029 943.030902 145.77029 942.974902 C 145.77029 942.918902 144.072287 942.2409 142.318283 942.1249 C 141.522282 942.1249 140.56028 941.164898 140.56028 941.164898 C 140.042279 940.428897 142.406284 940.254896 141.632282 940.264897 Z M 141.632282 940.264897 " transform="matrix(1.953121,0,0,1.953121,-93.277364,-1615.134944)"/>
<path style="fill-rule:nonzero;fill:rgb(80%,80%,80%);fill-opacity:1;stroke-width:0.24;stroke-linecap:round;stroke-linejoin:round;stroke:rgb(0%,0%,0%);stroke-opacity:1;stroke-miterlimit:4;" d="M 246.020483 929.350876 C 242.112475 930.762878 236.508464 929.860877 232.938457 931.102879 C 229.370451 932.342881 222.406437 933.928884 219.742432 935.114887 C 217.080427 936.302889 209.376412 937.548891 207.736409 938.112892 C 206.092406 938.678893 192.66838 941.502899 190.912377 941.9549 C 189.156373 942.410901 189.496374 943.254902 189.496374 943.254902 C 189.496374 943.254902 191.760378 946.538909 195.386385 948.572912 C 199.010392 950.604916 207.620409 955.810926 212.262418 956.824928 C 216.910427 957.84293 227.896448 959.540934 230.730453 961.574937 C 233.560459 963.610941 235.148462 963.722942 238.206468 964.514943 C 241.262473 965.304945 243.758478 965.648945 245.796482 964.628943 C 247.836486 963.610941 253.158496 961.238937 255.0825 959.200933 C 257.010504 957.164929 257.688505 957.73093 259.500508 953.772922 C 261.312512 949.814915 262.672515 949.138914 262.220514 944.840905 C 261.768513 940.542897 261.656513 937.262891 261.200512 935.792888 C 260.748511 934.324885 257.800505 930.592878 256.896503 930.368878 C 255.988502 930.140877 248.458487 930.252877 248.458487 930.252877 C 246.476483 930.592878 246.646484 930.028877 246.020483 929.350876 Z M 246.020483 929.350876 " transform="matrix(1.953121,0,0,1.953121,-93.277364,-1615.134944)"/>
<path style=" stroke:none;fill-rule:nonzero;fill:rgb(94.901961%,94.901961%,94.901961%);fill-opacity:1;" d="M 248.925781 90.097656 C 247.269531 90.109375 245.578125 90.265625 243.867188 90.625 C 236.074219 92.285156 212.503906 101.226562 206.699219 105.367188 C 200.890625 109.511719 194.917969 117.625 192.425781 121.765625 C 189.941406 125.902344 182.140625 134.6875 178.65625 138.664062 C 175.171875 142.632812 167.207031 152.242188 164.886719 155.226562 C 162.558594 158.203125 162.726562 162.507812 162.726562 164.496094 C 162.726562 166.484375 162.558594 168.304688 164.550781 173.773438 C 166.542969 179.242188 168.039062 184.539062 170.527344 184.867188 C 173.015625 185.199219 177.496094 185.539062 184.132812 184.867188 C 190.773438 184.210938 207.03125 182.546875 210.84375 182.054688 C 214.65625 181.554688 219.144531 182.546875 222.625 180.230469 C 226.113281 177.910156 234.078125 173.773438 238.890625 168.96875 C 243.703125 164.164062 253.992188 155.226562 256.476562 150.585938 C 258.964844 145.945312 266.269531 132.53125 267.265625 127.730469 C 268.261719 122.925781 270.085938 111.492188 270.085938 109.839844 C 270.085938 108.183594 267.597656 94.929688 263.445312 93.273438 C 260.203125 91.984375 254.839844 90.082031 248.925781 90.097656 Z M 248.925781 90.097656 "/>
<path style="fill-rule:nonzero;fill:rgb(80%,80%,80%);fill-opacity:1;stroke-width:0.24;stroke-linecap:round;stroke-linejoin:round;stroke:rgb(0%,0%,0%);stroke-opacity:1;stroke-miterlimit:4;" d="M 332.522649 872.734767 C 331.886647 872.734767 330.688645 872.942767 328.20664 873.550768 C 323.786632 874.62277 316.422618 877.392776 312.40061 879.030779 C 308.380602 880.672782 305.208596 881.462784 301.300589 883.102787 C 298.018582 884.178789 294.162575 885.872792 290.656568 886.948794 C 288.106563 888.304797 278.136544 891.360803 281.25055 890.734801 C 284.368556 890.1128 284.536557 891.528803 284.876557 892.654805 C 285.218558 893.788807 286.57656 896.388812 286.17656 898.028815 C 285.782559 899.668819 285.272558 901.648822 285.158558 903.060825 C 285.046558 904.474828 284.422556 905.210829 284.592557 907.074833 C 284.760557 908.940836 285.838559 913.124844 284.988557 914.424847 C 284.138556 915.724849 283.062554 917.702853 282.270552 918.324854 C 281.476551 918.948856 278.588545 920.754859 277.510543 921.15086 C 276.436541 921.548861 275.81254 922.112862 275.248539 922.112862 C 274.682538 922.112862 281.818551 923.524864 283.176554 924.148866 C 284.536557 924.772867 294.050575 928.784874 296.71258 929.518876 C 299.376585 930.252877 311.608609 934.718886 312.910611 934.834886 C 314.212614 934.948886 325.372635 938.224893 326.336637 938.168892 C 327.298639 938.112892 330.526645 938.112892 330.526645 938.112892 L 330.412645 927.428872 C 330.412645 927.428872 328.826642 919.114856 327.92064 917.418853 C 327.012638 915.724849 325.088634 910.014838 324.408633 909.448837 C 323.730632 908.884836 322.93863 906.962833 322.93863 906.962833 C 322.93863 906.962833 323.448631 905.77483 324.126633 904.754828 C 325.486635 903.002825 326.222637 899.724819 326.958638 897.860815 C 328.712641 894.580809 330.246644 889.718799 330.638645 887.910796 C 330.638645 887.910796 333.18865 878.524778 333.18865 878.468778 C 333.18865 878.410778 333.756651 873.434768 333.35865 873.040767 C 333.18665 872.864767 333.02265 872.738767 332.522649 872.734767 Z M 332.522649 872.734767 " transform="matrix(1.953121,0,0,1.953121,-93.277364,-1615.134944)"/>
<path style=" stroke:none;fill-rule:nonzero;fill:rgb(100%,100%,100%);fill-opacity:1;" d="M 51.554688 130.878906 C 52.21875 131.699219 53.046875 132.03125 55.199219 131.371094 C 57.363281 130.707031 58.015625 129.546875 62.007812 129.382812 C 65.984375 129.21875 67.8125 129.21875 69.632812 129.546875 C 71.460938 129.882812 72.625 128.71875 72.953125 129.546875 C 73.289062 130.375 75.945312 131.046875 71.960938 131.867188 C 67.976562 132.695312 67.3125 134.6875 64.328125 134.6875 C 61.335938 134.6875 61.175781 136.011719 58.195312 135.671875 C 55.199219 135.347656 52.21875 137.007812 52.050781 137.832031 C 51.878906 138.664062 48.511719 137.28125 48.511719 135.957031 C 48.511719 134.625 50.882812 130.046875 51.554688 130.878906 Z M 51.554688 130.878906 "/>
<path style="fill:none;stroke-width:0.24;stroke-linecap:butt;stroke-linejoin:miter;stroke:rgb(0%,0%,0%);stroke-opacity:1;stroke-miterlimit:4;" d="M 121.306243 880.390782 C 121.306243 880.390782 123.258247 880.642782 124.360249 880.984783 C 125.468251 881.322783 128.012256 882.850786 129.372259 884.62879 C 130.732261 886.410793 133.282266 887.852796 134.558269 888.448797 C 135.832271 889.040798 135.832271 891.412803 135.746271 892.854805 C 135.660271 894.298808 133.876267 898.368816 133.112266 899.384818 C 132.348264 900.40282 129.206258 908.968836 127.506255 911.260841 C 125.808252 913.548845 119.60624 925.164868 118.076237 927.200871 C 116.546234 929.238875 112.126226 928.560874 109.23822 931.78088 C 106.350214 935.002886 102.782208 933.304883 98.362199 934.068885 C 94.862192 934.674886 91.312186 933.648884 91.312186 933.648884 M 51.196109 906.880832 C 49.846106 905.240829 49.738106 903.178825 53.336113 900.17882 C 58.660123 895.26081 69.082143 886.154793 73.386151 882.650786 C 77.692159 879.148779 89.246182 871.114764 93.892191 868.630759 C 98.8722 864.784752 99.556201 863.76875 104.768211 860.772744 C 110.882223 856.418736 121.926244 851.330726 124.306249 850.934725 C 126.686253 850.538724 130.988262 849.634722 135.860271 850.652724 C 140.73028 851.668726 149.680298 851.780727 151.492301 851.840727 C 153.306305 851.892727 162.820323 855.400734 169.220335 856.190735 C 175.620347 856.984737 189.892375 863.540749 197.76239 863.99275 C 205.638405 864.448751 217.360428 872.474766 222.176437 874.054769 C 226.992446 875.640772 239.50847 885.02479 242.170475 886.492793 C 244.83248 887.964796 253.896498 891.528803 257.348504 892.090804 C 260.806511 892.654805 264.200518 893.278806 266.582522 893.278806 C 268.960527 893.278806 270.998531 893.730807 275.076538 892.318804 C 279.156546 890.904802 278.136544 891.354803 281.25055 890.734801 C 284.368556 890.1128 284.536557 891.528803 284.876557 892.654805 C 285.218558 893.788807 286.57656 896.388812 286.17656 898.028815 C 285.782559 899.668819 285.272558 901.648822 285.158558 903.060825 C 285.046558 904.474828 284.422556 905.210829 284.592557 907.074833 C 284.760557 908.940836 285.838559 913.124844 284.988557 914.424847 C 284.138556 915.724849 283.062554 917.702853 282.270552 918.324854 C 281.476551 918.948856 278.588545 920.754859 277.510543 921.15086 C 276.436541 921.548861 275.81254 922.112862 275.248539 922.112862 C 274.682538 922.112862 272.246533 921.828861 270.262529 921.942861 C 268.280525 922.054862 262.220514 922.960863 259.500508 924.034865 C 256.782503 925.110867 255.368501 925.674868 252.706495 926.52287 C 250.04249 927.372872 249.93049 927.934873 246.020483 929.350876 C 242.112475 930.762878 236.508464 929.860877 232.938457 931.102879 C 229.370451 932.342881 222.406437 933.928884 219.742432 935.114887 C 217.080427 936.302889 209.376412 937.548891 207.736409 938.112892 C 206.092406 938.678893 192.66838 941.502899 190.912377 941.9549 C 189.156373 942.410901 189.892375 942.1249 184.456364 942.410901 C 179.020354 942.690901 177.998352 942.464901 176.072348 942.918902 C 174.148345 943.368902 170.748338 942.974902 169.106335 942.918902 C 167.462332 942.860901 152.908304 942.2989 148.660296 941.390899 C 144.410288 940.488897 144.298287 940.204896 139.598278 940.314897 C 134.896269 940.430897 121.360243 940.600897 119.320239 940.314897 C 117.282235 940.034896 106.520215 938.848894 101.368205 937.660892 C 96.210195 936.472889 97.570198 936.134889 97.006196 935.904888 C 96.438195 935.680888 93.892191 934.210885 90.832185 933.474883 C 87.772179 932.740882 80.070164 930.818878 73.386151 926.748871 C 66.706138 922.678863 62.23013 920.530859 59.398124 918.774855 C 56.568119 917.024852 47.388101 910.240839 47.898102 908.828836 C 48.410103 907.412833 49.698106 905.81483 50.492107 905.87283 M 64.268134 894.692809 C 63.700133 895.09081 63.476132 895.598811 63.476132 895.598811 M 60.472126 897.574815 C 60.870127 898.368816 61.038127 898.762817 61.038127 898.704817 " transform="matrix(1.953121,0,0,1.953121,-93.277364,-1615.134944)"/>
<path style="fill:none;stroke-width:0.24;stroke-linecap:round;stroke-linejoin:round;stroke:rgb(0%,0%,0%);stroke-opacity:1;stroke-miterlimit:4;" d="M 175.208347 873.080768 C 174.360345 873.084768 173.492343 873.164768 172.618342 873.350768 C 168.626334 874.20077 156.560311 878.778778 153.588305 880.898783 C 150.612299 883.018787 147.556294 887.174795 146.280291 889.292799 C 145.008289 891.412803 141.012281 895.910811 139.230278 897.942815 C 137.446274 899.978819 133.368266 904.898829 132.180264 906.424832 C 130.988262 907.950834 131.072262 910.154839 131.072262 911.172841 C 131.072262 912.190843 130.988262 913.122844 132.008264 915.92285 C 133.026266 918.722855 133.792267 921.43486 135.06827 921.602861 C 136.342272 921.772861 138.636276 921.942861 142.032283 921.602861 C 145.432289 921.26486 153.758305 920.414858 155.710309 920.162858 C 157.662313 919.904857 159.960317 920.414858 161.742321 919.228856 C 163.526324 918.040854 167.606332 915.92285 170.070337 913.462845 C 172.532342 911.00284 177.800352 906.424832 179.072354 904.050827 C 180.348357 901.674822 184.088364 894.804809 184.598365 892.348805 C 185.108366 889.8888 186.042367 884.034789 186.042367 883.188787 C 186.042367 882.340785 184.768365 875.554772 182.642361 874.704771 C 180.982358 874.042769 178.236352 873.072767 175.208347 873.080768 Z M 175.208347 873.080768 " transform="matrix(1.953121,0,0,1.953121,-93.277364,-1615.134944)"/>
</g>
</svg>
