<?xml version="1.0" encoding="UTF-8"?>
<!-- Created by grConvert v0.1-0 -->
<svg xmlns="http://www.w3.org/2000/svg" xmlns:xlink="http://www.w3.org/1999/xlink" width="558pt" height="311pt" viewBox="0 0 558 311" version="1.1">
<g id="surface4">
<path style=" stroke:none;fill-rule:nonzero;fill:rgb(90.196078%,90.196078%,90.196078%);fill-opacity:1;" d="M 414.671875 104.375 C 414.671875 104.375 410.855469 104.875 408.703125 105.539062 C 406.539062 106.195312 401.570312 109.179688 398.914062 112.652344 C 396.257812 116.132812 391.277344 118.949219 388.785156 120.113281 C 386.296875 121.269531 386.296875 125.902344 386.46875 128.71875 C 386.632812 131.539062 390.113281 139.492188 391.609375 141.476562 C 393.101562 143.460938 399.242188 160.195312 402.5625 164.667969 C 405.875 169.136719 417.992188 191.828125 420.972656 195.800781 C 423.96875 199.78125 432.59375 198.457031 438.238281 204.746094 C 443.875 211.039062 450.847656 207.726562 459.480469 209.21875 C 466.316406 210.398438 473.25 208.394531 473.25 208.394531 M 551.605469 156.113281 C 554.242188 152.910156 554.449219 148.882812 547.425781 143.023438 C 537.023438 133.417969 516.667969 115.632812 508.265625 108.789062 C 499.851562 101.949219 477.289062 86.257812 468.210938 81.40625 C 458.484375 73.898438 457.152344 71.914062 446.96875 66.058594 C 435.027344 57.558594 413.453125 47.617188 408.8125 46.84375 C 404.164062 46.070312 395.757812 44.304688 386.242188 46.292969 C 376.730469 48.28125 359.25 48.496094 355.710938 48.613281 C 352.171875 48.71875 333.585938 55.566406 321.085938 57.109375 C 308.585938 58.664062 280.710938 71.464844 265.339844 72.351562 C 249.957031 73.238281 227.0625 88.914062 217.652344 92 C 208.25 95.097656 183.804688 113.429688 178.605469 116.296875 C 173.40625 119.171875 155.707031 126.128906 148.960938 127.226562 C 142.210938 128.328125 135.574219 129.546875 130.925781 129.546875 C 126.28125 129.546875 122.300781 130.429688 114.332031 127.675781 C 106.371094 124.914062 108.363281 125.789062 102.273438 124.578125 C 96.1875 123.363281 95.863281 126.128906 95.191406 128.328125 C 94.527344 130.542969 91.871094 135.621094 92.652344 138.824219 C 93.425781 142.03125 94.421875 145.894531 94.644531 148.652344 C 94.867188 151.414062 96.082031 152.851562 95.75 156.492188 C 95.421875 160.136719 93.316406 168.3125 94.976562 170.851562 C 96.636719 173.390625 98.738281 177.25 100.285156 178.46875 C 101.832031 179.683594 107.476562 183.210938 109.582031 183.984375 C 111.683594 184.761719 112.898438 185.863281 114 185.863281 C 115.105469 185.863281 119.867188 185.308594 123.738281 185.539062 C 127.609375 185.75 139.445312 187.519531 144.753906 189.617188 C 150.066406 191.71875 152.828125 192.820312 158.03125 194.476562 C 163.230469 196.136719 163.449219 197.234375 171.085938 200 C 178.71875 202.757812 189.664062 200.996094 196.636719 203.421875 C 203.605469 205.851562 217.210938 208.941406 222.410156 211.257812 C 227.609375 213.578125 242.652344 216.011719 245.863281 217.113281 C 249.070312 218.21875 275.289062 223.734375 278.71875 224.617188 C 282.152344 225.507812 280.710938 224.953125 291.332031 225.507812 C 301.945312 226.054688 303.941406 225.617188 307.703125 226.503906 C 311.460938 227.382812 318.101562 226.609375 321.3125 226.503906 C 324.519531 226.386719 352.945312 225.289062 361.242188 223.515625 C 369.542969 221.753906 369.761719 221.203125 378.941406 221.414062 C 388.128906 221.640625 414.5625 221.972656 418.546875 221.414062 C 422.527344 220.867188 443.546875 218.550781 453.609375 216.230469 C 463.683594 213.910156 461.027344 213.25 462.132812 212.804688 C 463.238281 212.363281 468.210938 209.492188 474.1875 208.054688 C 480.164062 206.621094 495.207031 202.871094 508.265625 194.917969 C 521.3125 186.96875 530.050781 182.773438 535.582031 179.34375 C 541.109375 175.929688 559.039062 162.675781 558.042969 159.917969 C 557.042969 157.152344 554.527344 154.03125 552.976562 154.144531 M 526.070312 132.3125 C 527.175781 133.085938 527.613281 134.078125 527.613281 134.078125 M 533.484375 137.9375 C 532.707031 139.492188 532.378906 140.257812 532.378906 140.148438 "/>
<path style="fill-rule:nonzero;fill:rgb(80%,80%,80%);fill-opacity:1;stroke-width:0.24;stroke-linecap:butt;stroke-linejoin:miter;stroke:rgb(0%,0%,0%);stroke-opacity:1;stroke-miterlimit:4;" d="M 54.442624 909.478866 C 53.508622 908.948865 51.232617 907.378862 50.492616 905.872859 C 49.698614 905.814859 48.410612 907.412862 47.898611 908.828865 C 47.38861 910.240868 56.568628 917.024881 59.398633 918.774884 C 62.230639 920.530887 66.704647 922.678892 73.38466 926.748899 C 75.310664 927.652901 76.332666 925.164896 77.350668 923.692893 C 78.37067 922.224891 80.410673 917.814882 78.37067 916.57288 C 76.332666 915.328877 72.142658 913.748874 69.988653 913.178873 C 67.834649 912.614872 63.984642 911.26087 60.812636 908.768865 C 57.87063 905.830859 52.998621 900.85485 51.374618 902.152852 C 49.858615 904.128856 50.162615 905.628859 51.194617 906.880861 C 52.184619 908.080864 53.842622 909.060865 55.208625 910.014867 C 55.800626 910.578868 56.182627 910.790869 56.848628 911.37287 C 57.000628 911.53887 60.874636 914.442876 62.85064 916.57288 C 69.712653 923.488893 67.494649 922.564891 73.724661 925.164896 " transform="matrix(-1.953121,0,0,1.953121,651.594764,-1615.135)"/>
<path style="fill-rule:nonzero;fill:rgb(49.803922%,49.803922%,49.803922%);fill-opacity:1;stroke-width:0.24;stroke-linecap:butt;stroke-linejoin:miter;stroke:rgb(0%,0%,0%);stroke-opacity:1;stroke-miterlimit:4;" d="M 70.582655 897.350843 C 71.604657 899.640847 73.38466 903.454855 76.444666 904.218856 C 79.504672 904.980858 79.758672 906.25286 84.344681 904.728857 C 88.93469 903.200854 88.680689 903.200854 90.718693 899.892848 C 92.758697 896.588841 92.500697 894.804838 92.248696 892.262833 C 91.992696 889.718828 88.93469 885.900821 86.384685 885.138819 C 83.83468 884.374818 80.012673 884.122818 76.444666 884.884819 C 72.874659 885.64882 72.368658 887.938825 71.604657 889.210827 C 70.838655 890.48083 69.562653 895.060839 70.582655 897.350843 Z M 70.582655 897.350843 " transform="matrix(-1.953121,0,0,1.953121,651.594764,-1615.135)"/>
<path style="fill-rule:nonzero;fill:rgb(9.019608%,4.705882%,1.960784%);fill-opacity:1;stroke-width:0.24;stroke-linecap:butt;stroke-linejoin:miter;stroke:rgb(0%,0%,0%);stroke-opacity:1;stroke-miterlimit:4;" d="M 80.522674 888.190825 C 77.720668 888.448826 76.444666 888.190825 75.170663 889.972829 C 73.898661 891.752832 73.16066 898.252845 74.832663 900.488849 C 76.020665 901.25085 77.124667 901.928852 78.73867 901.928852 C 80.354673 901.928852 82.818678 901.760851 83.92268 901.25085 C 85.024682 900.740849 86.554685 900.91285 87.488687 899.640847 C 88.422689 898.368845 88.84869 897.690844 88.762689 895.73884 C 88.680689 893.788836 88.680689 892.430833 87.830688 891.242831 C 86.980686 890.054829 86.384685 888.448826 84.770682 888.022825 C 83.158679 887.598824 83.324679 887.938825 80.522674 888.190825 Z M 80.522674 888.190825 " transform="matrix(-1.953121,0,0,1.953121,651.594764,-1615.135)"/>
<path style="fill-rule:nonzero;fill:rgb(80%,80%,80%);fill-opacity:1;stroke-width:0.24;stroke-linecap:butt;stroke-linejoin:miter;stroke:rgb(0%,0%,0%);stroke-opacity:1;stroke-miterlimit:4;" d="M 173.662852 827.072708 C 172.924851 827.064708 171.732849 827.700709 171.258848 827.92471 C 170.182846 828.434711 168.594843 829.224712 167.462841 829.790713 C 166.330838 830.354714 165.424837 830.692715 163.724833 831.880717 C 162.02483 833.068719 159.308825 835.500724 158.120823 835.898725 C 156.93082 836.290726 157.324821 836.290726 157.042821 835.612724 C 156.76082 834.934723 156.76082 834.480722 157.042821 832.050718 C 157.324821 829.622713 156.250819 831.372716 154.434816 832.390718 C 152.622812 833.41072 152.454812 833.972721 150.754808 835.554724 C 149.054805 837.140727 148.150803 837.364728 146.960801 837.702728 C 145.770799 838.042729 145.318798 837.364728 144.974797 835.780725 C 144.884797 835.348724 145.492798 833.612721 144.868797 833.860721 C 143.212794 834.514722 139.248786 838.69873 138.182784 839.964733 C 136.710782 841.718736 134.724778 842.228737 134.612777 841.942737 C 134.500777 841.662736 134.160777 841.492736 133.932776 841.492736 C 133.708776 841.492736 131.554772 843.300739 130.76277 843.92474 C 129.970769 844.548742 121.924753 851.330755 124.304758 850.934754 C 126.684762 850.538753 130.988771 849.634751 135.86078 850.652753 C 140.730789 851.668755 149.680806 851.780755 151.49281 851.840756 C 153.304813 851.892756 162.820832 855.400762 169.220844 856.190764 C 175.620856 856.984765 189.892884 863.540778 197.762899 863.992779 C 205.638914 864.44878 217.360936 872.474795 222.174946 874.054798 C 226.992955 875.640801 239.508979 885.024819 242.170984 886.492822 C 244.020988 887.518824 248.970997 889.550828 252.973005 890.888831 C 254.725008 891.468832 253.101005 889.942829 253.895007 889.548828 C 254.685008 889.152827 257.861014 889.548828 259.389017 889.602828 C 260.91902 889.662828 265.281028 889.040827 266.863031 888.360826 C 268.451034 887.680824 267.771033 883.272816 267.825033 881.972813 C 267.859033 881.300812 268.543035 878.564807 268.169034 875.922802 C 267.819033 873.452797 266.409031 871.068792 266.29903 870.438791 C 266.18503 869.79879 265.011028 867.228785 263.469025 864.84078 C 261.885022 862.398776 259.931018 860.128771 259.613017 859.52877 C 258.993016 858.340768 253.443006 853.310758 252.423004 852.628757 C 251.401002 851.950756 244.774989 847.428747 243.698987 846.922746 C 242.622985 846.412745 240.922982 844.940742 237.242975 844.038741 C 235.694972 843.65474 234.182969 842.880738 232.542966 842.510738 C 230.282961 842.000737 227.998957 841.960737 227.048955 842.060737 C 225.404952 842.228737 225.008951 842.060737 224.044949 841.942737 C 223.082947 841.830736 223.368948 841.662736 222.120946 841.888736 C 220.872943 842.112737 220.362942 842.510738 219.34494 842.904738 C 218.324938 843.300739 217.870937 843.130739 216.794935 843.190739 C 215.720933 843.242739 215.608933 842.452738 215.154932 842.172737 C 214.700931 841.888736 213.79293 842.112737 211.810926 842.172737 C 209.830922 842.228737 210.454923 842.060737 209.942922 841.152735 C 209.432921 840.248733 209.320921 839.460732 209.320921 839.460732 C 209.320921 839.460732 208.470919 839.288731 207.334917 839.342732 C 206.204915 839.400732 205.862914 839.004731 205.184913 838.44073 C 204.504912 837.874729 204.674912 837.818729 203.938911 836.404726 C 203.200909 834.990723 203.71291 835.668724 202.748908 835.554724 C 201.788906 835.442724 201.448906 835.612724 199.294902 835.612724 C 197.142898 835.612724 198.3329 835.218724 197.650899 834.424722 C 196.972897 833.634721 197.084897 833.35272 197.084897 833.35272 C 197.084897 833.35272 196.010895 833.690721 195.160894 833.860721 C 194.310892 834.030721 193.632891 834.540722 192.158888 834.312722 C 190.684885 834.088721 191.308886 833.29272 191.308886 833.29272 L 190.854885 831.880717 C 190.854885 831.880717 189.044882 832.560719 188.08088 832.900719 C 187.118878 833.23872 186.154876 833.41072 185.588875 833.23872 C 185.022874 833.068719 184.850874 832.164718 184.230873 830.184714 C 183.608872 828.20471 182.92487 828.714711 181.962868 828.942712 C 181.000867 829.168712 180.660866 829.392712 179.754864 829.848713 C 178.848862 830.300714 175.674856 831.428716 175.168855 831.372716 C 174.658854 831.314716 173.862853 831.314716 173.974853 829.848713 C 174.030853 829.172712 174.574854 827.554709 174.092853 827.188708 C 173.982853 827.104708 173.834853 827.072708 173.662852 827.072708 Z M 173.662852 827.072708 " transform="matrix(-1.953121,0,0,1.953121,651.594764,-1615.135)"/>
<path style="fill-rule:nonzero;fill:rgb(49.803922%,49.803922%,49.803922%);fill-opacity:1;stroke-width:0.24;stroke-linecap:butt;stroke-linejoin:miter;stroke:rgb(0%,0%,0%);stroke-opacity:1;stroke-miterlimit:4;" d="M 196.320896 860.374772 C 196.492896 859.018769 197.762899 857.238766 198.700901 855.880763 C 199.634902 854.524761 202.780908 852.318756 204.818912 850.792754 C 206.854916 849.264751 207.194917 848.672749 209.488921 846.384745 C 211.782926 844.092741 212.098926 845.150743 212.658927 843.75274 C 211.550925 844.262741 209.320921 845.874744 208.130919 846.638746 C 206.942916 847.400747 206.174915 847.910748 204.648912 849.09875 C 203.118909 850.284753 201.504906 850.962754 200.230903 852.318756 C 198.954901 853.674759 198.020899 853.93076 197.254898 854.440761 C 196.492896 854.948762 193.518891 857.578767 192.242888 858.592768 C 190.970886 859.61277 190.458885 859.698771 189.780883 858.850769 C 189.098882 858.000767 190.372885 857.068766 191.308886 855.712763 C 192.242888 854.35276 193.518891 853.252758 195.132894 851.554755 C 196.744897 849.860752 196.660897 850.114752 198.700901 848.162748 C 200.738904 846.212745 200.908905 846.722746 203.62491 844.178741 C 204.408912 843.290739 206.012915 842.118737 205.892914 841.780736 C 204.770912 842.312737 203.54291 843.242739 201.080905 844.688742 C 198.6129 846.128745 197.254898 847.148747 196.320896 847.568747 C 195.384894 847.992748 189.780883 851.640755 186.634877 855.034762 C 183.492871 858.424768 183.238871 855.624763 184.084872 853.674759 C 184.934874 851.724755 185.784876 851.810755 186.892878 850.200752 C 187.99488 848.588749 191.818887 845.450743 195.470894 842.398737 C 199.122901 839.342732 199.122901 839.260731 197.254898 840.192733 C 195.384894 841.124735 194.622893 841.550736 193.09289 842.564738 C 191.562887 843.58474 189.610883 844.602742 187.654879 846.468745 C 185.700876 848.334749 189.780883 844.688742 181.368867 851.640755 C 172.958851 858.592768 179.412864 852.150756 179.670864 850.710753 C 179.922864 849.264751 180.688866 847.910748 181.962868 846.212745 C 183.238871 844.518741 185.532875 843.414739 190.882886 839.090731 C 196.234896 834.764723 192.838889 836.714726 191.308886 837.310728 C 189.780883 837.902729 189.098882 838.834731 187.318879 839.852733 C 185.532875 840.872734 183.662872 842.564738 182.132869 843.66874 C 180.604866 844.772742 180.010865 846.042744 174.998855 849.350751 C 169.984845 852.660757 170.154846 851.048754 170.832847 849.434751 C 171.512848 847.824748 172.61885 847.148747 174.572854 844.688742 C 176.524858 842.228737 178.650862 840.954735 182.388869 838.072729 C 186.124876 835.188724 185.700876 834.000721 182.89887 836.548726 C 180.094865 839.090731 180.858866 837.818729 179.072863 839.090731 C 177.292859 840.362733 177.204859 840.784734 168.880843 846.298745 C 160.554827 851.810755 163.868834 847.568747 164.208834 845.280743 C 164.392835 844.042741 166.348838 841.904736 168.880843 839.838732 C 170.854847 838.222729 173.218852 835.964725 175.334856 834.718723 C 175.522856 834.610722 176.668858 834.052721 176.850859 833.948721 C 177.994861 833.052719 178.958863 832.584719 179.354863 831.418716 C 176.888859 833.11472 175.508856 833.662721 173.892853 834.850723 C 172.28085 836.038725 170.748847 836.884727 169.898845 837.140727 C 169.048844 837.392728 167.944841 838.58073 160.382827 844.772742 C 152.822812 850.962754 157.242821 844.854742 157.580822 842.822738 C 157.920822 840.784734 163.698833 836.122725 167.604841 832.134718 C 171.512848 828.15071 167.18084 831.372716 165.394837 832.642719 C 163.612833 833.914721 162.932832 834.088721 160.808828 835.868725 C 158.684824 837.648728 154.944817 840.700734 153.672814 841.550736 C 152.398812 842.398737 149.510806 845.198743 147.638803 847.740748 C 145.770799 850.284753 145.008797 849.09875 144.920797 849.09875 C 144.834797 849.09875 145.008797 847.314747 145.260798 846.384745 C 145.518798 845.450743 148.320804 841.210735 149.680806 839.852733 C 151.038809 838.49873 153.588814 834.424722 153.162813 835.018723 C 152.738812 835.612724 151.122809 836.968727 150.020807 838.154729 C 148.912805 839.342732 142.798793 844.854742 141.780791 845.874744 C 140.758789 846.890746 139.738787 848.84275 138.462785 849.434751 C 137.192782 850.028752 137.360783 848.92875 137.104782 848.334749 C 136.850782 847.740748 139.144786 842.312737 139.908788 840.954735 C 140.672789 839.600732 142.798793 836.460726 142.032792 837.224727 C 141.26879 837.988729 140.504789 839.090731 139.738787 839.768732 C 138.972786 840.448734 138.720785 840.362733 136.934782 843.66874 C 135.150779 846.974746 133.282775 849.01275 132.348773 849.09875 C 131.412771 849.18075 130.73277 848.75475 130.82077 848.418749 C 130.90477 848.078748 131.498772 846.552745 131.922772 845.702744 C 132.348773 844.854742 134.132777 842.312737 133.960776 841.972737 C 133.792776 841.634736 131.412771 844.688742 130.222769 846.468745 C 129.034767 848.250749 121.924753 851.330755 124.304758 850.934754 C 126.684762 850.538753 130.988771 849.634751 135.86078 850.652753 C 140.730789 851.668755 149.680806 851.780755 151.49281 851.840756 C 153.304813 851.892756 162.820832 855.400762 169.220844 856.190764 C 175.620856 856.984765 189.892884 863.540778 197.762899 863.992779 C 198.1629 864.014779 196.150896 861.730775 196.320896 860.374772 Z M 196.320896 860.374772 " transform="matrix(-1.953121,0,0,1.953121,651.594764,-1615.135)"/>
<path style="fill-rule:nonzero;fill:rgb(80%,80%,80%);fill-opacity:1;stroke-width:0.24;stroke-linecap:round;stroke-linejoin:round;stroke:rgb(0%,0%,0%);stroke-opacity:1;stroke-miterlimit:4;" d="M 141.632791 940.264925 C 141.37479 940.264925 140.772789 940.288925 139.598787 940.314925 C 137.854784 940.360925 134.894778 940.410926 131.760772 940.440926 C 134.894778 944.614934 132.688774 941.730928 134.330777 948.348941 C 134.330777 948.348941 136.538781 956.034956 136.992782 958.068959 C 137.444783 960.104963 140.95879 968.074979 141.634791 969.092981 C 142.318792 970.112983 144.694797 972.488987 145.374798 973.78899 C 146.054799 975.088992 147.130802 976.724995 148.262804 978.478999 C 149.394806 980.231002 149.394806 981.023004 151.262809 982.949007 C 153.132813 984.869011 154.042815 986.225014 154.550816 986.225014 C 155.060817 986.225014 154.774816 986.619014 155.682818 985.093011 C 156.58882 983.565008 157.720822 980.911003 158.512823 980.455002 C 159.308825 980.005002 160.438827 977.234996 160.438827 977.234996 L 161.174828 975.088992 C 161.174828 975.088992 162.08283 974.18099 162.534831 972.090986 C 162.988832 969.998982 163.158832 967.904978 163.838834 966.718976 C 164.518835 965.530974 165.254836 962.252968 165.254836 962.252968 C 165.254836 962.252968 165.934838 958.748961 165.310836 957.334958 C 164.688835 955.922955 162.820832 953.03895 162.762832 953.03895 C 162.708831 953.03895 160.838828 950.890946 157.382821 949.138942 C 153.924815 947.384939 151.150809 944.724934 149.792807 944.500933 C 148.432804 944.274933 145.770799 943.030931 145.770799 942.974931 C 145.770799 942.91893 144.072796 942.240929 142.318792 942.124929 C 141.522791 942.124929 140.560789 941.164927 140.560789 941.164927 C 140.042788 940.428926 142.404792 940.254925 141.632791 940.264925 Z M 141.632791 940.264925 " transform="matrix(-1.953121,0,0,1.953121,651.594764,-1615.135)"/>
<path style="fill-rule:nonzero;fill:rgb(80%,80%,80%);fill-opacity:1;stroke-width:0.24;stroke-linecap:round;stroke-linejoin:round;stroke:rgb(0%,0%,0%);stroke-opacity:1;stroke-miterlimit:4;" d="M 246.020991 929.350904 C 242.112984 930.762907 236.508973 929.860905 232.938966 931.102908 C 229.370959 932.34291 222.404946 933.928913 219.742941 935.114915 C 217.080936 936.302918 209.374921 937.54892 207.734918 938.112921 C 206.092915 938.678922 192.668889 941.502928 190.912886 941.954929 C 189.154882 942.410929 189.494883 943.254931 189.494883 943.254931 C 189.494883 943.254931 191.760887 946.538937 195.384894 948.572941 C 199.010901 950.604945 207.620918 955.810955 212.262927 956.824957 C 216.910936 957.842959 227.894957 959.540962 230.730962 961.574966 C 233.560967 963.61097 235.148971 963.72297 238.204976 964.514972 C 241.262982 965.304973 243.758987 965.648974 245.794991 964.628972 C 247.834995 963.61097 253.159005 961.238966 255.083009 959.200962 C 257.011013 957.164958 257.689014 957.730959 259.501017 953.772951 C 261.313021 949.814944 262.673023 949.138942 262.221023 944.840934 C 261.769022 940.542926 261.655021 937.26292 261.201021 935.792917 C 260.74902 934.324914 257.801014 930.592907 256.895012 930.368906 C 255.989011 930.140906 248.458996 930.252906 248.458996 930.252906 C 246.474992 930.592907 246.644993 930.028906 246.020991 929.350904 Z M 246.020991 929.350904 " transform="matrix(-1.953121,0,0,1.953121,651.594764,-1615.135)"/>
<path style=" stroke:none;fill-rule:nonzero;fill:rgb(94.117647%,94.117647%,94.117647%);fill-opacity:1;" d="M 309.390625 90.097656 C 311.046875 90.109375 312.742188 90.265625 314.449219 90.625 C 322.242188 92.285156 345.8125 101.226562 351.617188 105.367188 C 357.429688 109.511719 363.402344 117.625 365.890625 121.765625 C 368.375 125.902344 376.179688 134.6875 379.660156 138.664062 C 383.148438 142.632812 391.109375 152.242188 393.429688 155.226562 C 395.757812 158.203125 395.59375 162.507812 395.59375 164.496094 C 395.59375 166.484375 395.757812 168.304688 393.765625 173.773438 C 391.773438 179.242188 390.28125 184.539062 387.789062 184.867188 C 385.300781 185.199219 380.824219 185.539062 374.1875 184.867188 C 367.546875 184.210938 351.285156 182.546875 347.472656 182.054688 C 343.660156 181.554688 339.171875 182.546875 335.691406 180.230469 C 332.203125 177.910156 324.242188 173.773438 319.425781 168.96875 C 314.617188 164.164062 304.324219 155.226562 301.84375 150.585938 C 299.351562 145.945312 292.046875 132.53125 291.050781 127.730469 C 290.054688 122.925781 288.230469 111.492188 288.230469 109.839844 C 288.230469 108.183594 290.71875 94.929688 294.871094 93.273438 C 298.113281 91.984375 303.480469 90.082031 309.390625 90.097656 Z M 309.390625 90.097656 "/>
<path style="fill-rule:nonzero;fill:rgb(80%,80%,80%);fill-opacity:1;stroke-width:0.24;stroke-linecap:round;stroke-linejoin:round;stroke:rgb(0%,0%,0%);stroke-opacity:1;stroke-miterlimit:4;" d="M 332.523157 872.734796 C 331.885156 872.734796 330.689154 872.942796 328.205149 873.550797 C 323.785141 874.622799 316.423127 877.392805 312.401119 879.030808 C 308.381111 880.672811 305.209105 881.462812 301.301098 883.102816 C 298.019091 884.178818 294.163084 885.872821 290.655077 886.948823 C 288.105072 888.304826 278.135053 891.360831 281.251059 890.73483 C 284.369065 890.112829 284.535065 891.528832 284.875066 892.654834 C 285.219067 893.788836 286.575069 896.388841 286.175068 898.028844 C 285.783068 899.668847 285.273067 901.648851 285.159067 903.060854 C 285.045066 904.474857 284.423065 905.210858 284.593065 907.074862 C 284.761066 908.940865 285.839068 913.124873 284.989066 914.424876 C 284.139065 915.724878 283.063063 917.702882 282.271061 918.324883 C 281.475059 918.948884 278.589054 920.754888 277.511052 921.150889 C 276.43505 921.548889 275.813049 922.11289 275.249048 922.11289 C 274.683046 922.11289 281.81906 923.524893 283.175063 924.148894 C 284.535065 924.772896 294.051084 928.784903 296.713089 929.518905 C 299.375094 930.252906 311.609117 934.718915 312.91112 934.834915 C 314.213122 934.948915 325.373144 938.224921 326.335146 938.168921 C 327.299147 938.112921 330.525154 938.112921 330.525154 938.112921 L 330.413153 927.428901 C 330.413153 927.428901 328.82515 919.114885 327.921149 917.418881 C 327.013147 915.724878 325.089143 910.014867 324.409142 909.448866 C 323.731141 908.884865 322.939139 906.962861 322.939139 906.962861 C 322.939139 906.962861 323.44914 905.774859 324.125141 904.754857 C 325.485144 903.002854 326.223145 899.724847 326.959147 897.860844 C 328.71315 894.580838 330.245153 889.718828 330.639154 887.910825 C 330.639154 887.910825 333.189159 878.524807 333.189159 878.468807 C 333.189159 878.410807 333.75516 873.434797 333.359159 873.040796 C 333.185159 872.864796 333.023158 872.738796 332.523157 872.734796 Z M 332.523157 872.734796 " transform="matrix(-1.953121,0,0,1.953121,651.594764,-1615.135)"/>
<path style=" stroke:none;fill-rule:nonzero;fill:rgb(100%,100%,100%);fill-opacity:1;" d="M 506.765625 130.878906 C 506.101562 131.699219 505.269531 132.03125 503.117188 131.371094 C 500.953125 130.707031 500.300781 129.546875 496.3125 129.382812 C 492.332031 129.21875 490.503906 129.21875 488.683594 129.546875 C 486.859375 129.882812 485.691406 128.71875 485.363281 129.546875 C 485.027344 130.375 482.371094 131.046875 486.355469 131.867188 C 490.339844 132.695312 491.003906 134.6875 493.992188 134.6875 C 496.980469 134.6875 497.140625 136.011719 500.125 135.671875 C 503.117188 135.347656 506.101562 137.007812 506.265625 137.832031 C 506.4375 138.664062 509.808594 137.28125 509.808594 135.957031 C 509.808594 134.625 507.433594 130.046875 506.765625 130.878906 Z M 506.765625 130.878906 "/>
<path style="fill:none;stroke-width:0.24;stroke-linecap:butt;stroke-linejoin:miter;stroke:rgb(0%,0%,0%);stroke-opacity:1;stroke-miterlimit:4;" d="M 121.304752 880.39081 C 121.304752 880.39081 123.258756 880.642811 124.360758 880.984811 C 125.46876 881.322812 128.012765 882.850815 129.372767 884.628818 C 130.73277 886.410822 133.282775 887.852825 134.558777 888.448826 C 135.83278 889.040827 135.83278 891.412832 135.74478 892.854834 C 135.66078 894.298837 133.874776 898.368845 133.112775 899.384847 C 132.348773 900.402849 129.204767 908.968865 127.504764 911.26087 C 125.808761 913.548874 119.604749 925.164896 118.074746 927.2009 C 116.544743 929.238904 112.124734 928.560903 109.238729 931.780909 C 106.350723 935.002915 102.782716 933.304912 98.362708 934.068913 C 94.862701 934.674915 91.312694 933.648913 91.312694 933.648913 M 51.194617 906.880861 C 49.844615 905.240858 49.738615 903.178854 53.334621 900.178848 C 58.660632 895.260839 69.082652 886.154821 73.38466 882.650815 C 77.692668 879.148808 89.24469 871.114793 93.892699 868.630788 C 98.872709 864.78478 99.55471 863.768778 104.76872 860.772773 C 110.882732 856.418764 121.924753 851.330755 124.304758 850.934754 C 126.684762 850.538753 130.988771 849.634751 135.86078 850.652753 C 140.730789 851.668755 149.680806 851.780755 151.49281 851.840756 C 153.304813 851.892756 162.820832 855.400762 169.220844 856.190764 C 175.620856 856.984765 189.892884 863.540778 197.762899 863.992779 C 205.638914 864.44878 217.360936 872.474795 222.174946 874.054798 C 226.992955 875.640801 239.508979 885.024819 242.170984 886.492822 C 244.832989 887.964825 253.895007 891.528832 257.349013 892.090833 C 260.80502 892.654834 264.201026 893.278835 266.583031 893.278835 C 268.961035 893.278835 270.999039 893.730836 275.075047 892.318833 C 279.155055 890.904831 278.135053 891.354831 281.251059 890.73483 C 284.369065 890.112829 284.535065 891.528832 284.875066 892.654834 C 285.219067 893.788836 286.575069 896.388841 286.175068 898.028844 C 285.783068 899.668847 285.273067 901.648851 285.159067 903.060854 C 285.045066 904.474857 284.423065 905.210858 284.593065 907.074862 C 284.761066 908.940865 285.839068 913.124873 284.989066 914.424876 C 284.139065 915.724878 283.063063 917.702882 282.271061 918.324883 C 281.475059 918.948884 278.589054 920.754888 277.511052 921.150889 C 276.43505 921.548889 275.813049 922.11289 275.249048 922.11289 C 274.683046 922.11289 272.245042 921.82889 270.263038 921.94289 C 268.281034 922.05489 262.221023 922.960892 259.501017 924.034894 C 256.783012 925.110896 255.369009 925.674897 252.705004 926.522899 C 250.042999 927.372901 249.930999 927.934902 246.020991 929.350904 C 242.112984 930.762907 236.508973 929.860905 232.938966 931.102908 C 229.370959 932.34291 222.404946 933.928913 219.742941 935.114915 C 217.080936 936.302918 209.374921 937.54892 207.734918 938.112921 C 206.092915 938.678922 192.668889 941.502928 190.912886 941.954929 C 189.154882 942.410929 189.892884 942.124929 184.454873 942.410929 C 179.020863 942.69093 177.998861 942.46493 176.072857 942.91893 C 174.148853 943.368931 170.748847 942.974931 169.104844 942.91893 C 167.462841 942.86093 152.908813 942.298929 148.660804 941.390927 C 144.410796 940.488926 144.298796 940.204925 139.598787 940.314925 C 134.894778 940.430926 121.360752 940.600926 119.320748 940.314925 C 117.282744 940.034925 106.520724 938.848923 101.368714 937.66092 C 96.210704 936.472918 97.570706 936.134917 97.004705 935.904917 C 96.438704 935.680917 93.892699 934.210914 90.832693 933.474912 C 87.772688 932.740911 80.070673 930.818907 73.38466 926.748899 C 66.704647 922.678892 62.230639 920.530887 59.398633 918.774884 C 56.568628 917.024881 47.38861 910.240868 47.898611 908.828865 C 48.410612 907.412862 49.698614 905.814859 50.492616 905.872859 M 64.268642 894.692838 C 63.700641 895.090839 63.474641 895.59884 63.474641 895.59884 M 60.472635 897.574843 C 60.870636 898.368845 61.038636 898.762846 61.038636 898.704846 " transform="matrix(-1.953121,0,0,1.953121,651.594764,-1615.135)"/>
<path style="fill:none;stroke-width:0.24;stroke-linecap:round;stroke-linejoin:round;stroke:rgb(0%,0%,0%);stroke-opacity:1;stroke-miterlimit:4;" d="M 175.208855 873.080796 C 174.360854 873.084796 173.492852 873.164796 172.61885 873.350797 C 168.624843 874.200798 156.56082 878.778807 153.588814 880.898811 C 150.612808 883.018815 147.554802 887.174823 146.2808 889.292827 C 145.008797 891.412832 141.01279 895.91084 139.230786 897.942844 C 137.444783 899.978848 133.368775 904.898857 132.180773 906.42486 C 130.988771 907.950863 131.072771 910.154867 131.072771 911.172869 C 131.072771 912.190871 130.988771 913.122873 132.008772 915.922879 C 133.024774 918.722884 133.792776 921.434889 135.068778 921.602889 C 136.342781 921.77289 138.634785 921.94289 142.032792 921.602889 C 145.432798 921.264889 153.758814 920.414887 155.710818 920.162887 C 157.662822 919.904886 159.960826 920.414887 161.74283 919.228885 C 163.524833 918.040883 167.604841 915.922879 170.070846 913.462874 C 172.53285 911.002869 177.80086 906.42486 179.072863 904.050856 C 180.348865 901.674851 184.088872 894.804838 184.598873 892.348833 C 185.108874 889.888829 186.042876 884.034817 186.042876 883.188816 C 186.042876 882.340814 184.768874 875.554801 182.64287 874.704799 C 180.982867 874.042798 178.234861 873.072796 175.208855 873.080796 Z M 175.208855 873.080796 " transform="matrix(-1.953121,0,0,1.953121,651.594764,-1615.135)"/>
</g>
</svg>
