<?xml version="1.0" encoding="UTF-8"?>
<svg xmlns="http://www.w3.org/2000/svg" xmlns:xlink="http://www.w3.org/1999/xlink" width="449pt" height="250pt" viewBox="0 0 449 250" version="1.1">
<g id="surface1">
<path style=" stroke:none;fill-rule:nonzero;fill:rgb(40.000001%,34.117648%,30.980393%);fill-opacity:1;" d="M 333.035156 83.792969 C 333.035156 83.792969 329.96875 84.1875 328.238281 84.722656 C 326.503906 85.253906 322.511719 87.648438 320.378906 90.4375 C 318.25 93.234375 314.25 95.492188 312.253906 96.425781 C 310.253906 97.351562 310.253906 101.078125 310.386719 103.339844 C 310.519531 105.601562 313.316406 111.984375 314.519531 113.578125 C 315.714844 115.171875 320.644531 128.601562 323.308594 132.191406 C 325.972656 135.78125 335.695312 154 338.097656 157.191406 C 340.496094 160.386719 347.417969 159.320312 351.949219 164.371094 C 356.476562 169.421875 362.070312 166.765625 369 167.964844 C 374.488281 168.910156 380.054688 167.300781 380.054688 167.300781 M 442.960938 125.332031 C 445.078125 122.757812 445.246094 119.527344 439.601562 114.820312 C 431.257812 107.105469 414.914062 92.832031 408.164062 87.339844 C 401.417969 81.839844 383.296875 69.253906 376.015625 65.351562 C 368.199219 59.328125 367.136719 57.730469 358.964844 53.03125 C 349.371094 46.207031 332.058594 38.226562 328.328125 37.609375 C 324.597656 36.988281 317.847656 35.566406 310.207031 37.164062 C 302.574219 38.757812 288.542969 38.9375 285.695312 39.023438 C 282.859375 39.109375 267.9375 44.609375 257.902344 45.851562 C 247.863281 47.089844 225.484375 57.375 213.140625 58.082031 C 200.796875 58.792969 182.414062 71.382812 174.863281 73.863281 C 167.316406 76.34375 147.6875 91.058594 143.515625 93.363281 C 139.34375 95.667969 125.132812 101.253906 119.714844 102.144531 C 114.296875 103.027344 108.972656 104.003906 105.242188 104.003906 C 101.511719 104.003906 98.3125 104.710938 91.914062 102.496094 C 85.523438 100.277344 87.121094 100.992188 82.238281 100.015625 C 77.351562 99.039062 77.085938 101.253906 76.554688 103.027344 C 76.023438 104.800781 73.886719 108.875 74.511719 111.449219 C 75.132812 114.023438 75.933594 117.125 76.109375 119.339844 C 76.285156 121.558594 77.261719 122.703125 77 125.632812 C 76.730469 128.558594 75.046875 135.117188 76.378906 137.15625 C 77.710938 139.195312 79.394531 142.300781 80.640625 143.277344 C 81.882812 144.25 86.414062 147.085938 88.101562 147.703125 C 89.785156 148.328125 90.761719 149.214844 91.652344 149.214844 C 92.539062 149.214844 96.359375 148.769531 99.464844 148.949219 C 102.574219 149.125 112.078125 150.542969 116.339844 152.226562 C 120.601562 153.910156 122.824219 154.800781 127 156.128906 C 131.167969 157.457031 131.347656 158.34375 137.476562 160.5625 C 143.605469 162.777344 152.394531 161.359375 157.988281 163.3125 C 163.585938 165.257812 174.507812 167.742188 178.683594 169.605469 C 182.859375 171.464844 194.9375 173.414062 197.511719 174.300781 C 200.085938 175.191406 221.132812 179.617188 223.886719 180.328125 C 226.640625 181.039062 225.484375 180.59375 234.011719 181.039062 C 242.535156 181.480469 244.132812 181.128906 247.15625 181.835938 C 250.171875 182.542969 255.503906 181.921875 258.078125 181.835938 C 260.652344 181.75 283.476562 180.859375 290.136719 179.445312 C 296.796875 178.023438 296.980469 177.582031 304.347656 177.757812 C 311.71875 177.933594 332.945312 178.203125 336.144531 177.757812 C 339.335938 177.3125 356.210938 175.453125 364.292969 173.59375 C 372.375 171.734375 370.246094 171.203125 371.128906 170.84375 C 372.019531 170.488281 376.015625 168.183594 380.8125 167.03125 C 385.605469 165.878906 397.6875 162.867188 408.164062 156.480469 C 418.644531 150.097656 425.660156 146.734375 430.097656 143.984375 C 434.542969 141.234375 448.925781 130.59375 448.125 128.382812 C 447.332031 126.164062 445.308594 123.664062 444.0625 123.75 M 422.460938 106.21875 C 423.351562 106.839844 423.707031 107.636719 423.707031 107.636719 M 428.414062 110.738281 C 427.792969 111.984375 427.527344 112.601562 427.527344 112.515625 "/>
<path style=" stroke:none;fill-rule:nonzero;fill:rgb(100%,81.176472%,9.019608%);fill-opacity:1;" d="M 408.164062 156.480469 C 405.148438 157.898438 403.546875 154 401.949219 151.695312 C 400.351562 149.390625 397.15625 142.476562 400.351562 140.527344 C 403.546875 138.574219 410.117188 136.09375 413.492188 135.203125 C 416.824219 134.332031 415.71875 134.707031 423.039062 131.71875 C 422.96875 131.65625 422.898438 131.59375 422.820312 131.527344 C 422.695312 131.539062 422.578125 131.542969 422.460938 131.546875 C 395.964844 133.179688 402.011719 124.511719 391.378906 119.960938 C 371.984375 111.65625 368.179688 79.707031 327.839844 78.472656 C 297.945312 77.558594 245.910156 135.117188 158.777344 127.207031 C 98.042969 118.363281 83.40625 100.25 82.238281 100.015625 C 77.351562 99.039062 77.085938 101.253906 76.554688 103.027344 C 76.023438 104.800781 73.886719 108.875 74.511719 111.449219 C 75.132812 114.023438 75.933594 117.125 76.109375 119.339844 C 76.285156 121.558594 77.261719 122.703125 77 125.632812 C 76.730469 128.558594 75.046875 135.117188 76.378906 137.15625 C 77.710938 139.195312 79.394531 142.300781 80.640625 143.277344 C 81.882812 144.246094 86.414062 147.085938 88.101562 147.703125 C 89.785156 148.328125 90.761719 149.214844 91.652344 149.214844 C 92.539062 149.214844 96.359375 148.769531 99.464844 148.949219 C 102.574219 149.125 112.078125 150.542969 116.339844 152.226562 C 120.601562 153.910156 122.824219 154.800781 127 156.128906 C 131.167969 157.457031 131.347656 158.34375 137.476562 160.5625 C 143.605469 162.777344 152.394531 161.355469 157.988281 163.308594 C 163.585938 165.257812 174.507812 167.742188 178.683594 169.605469 C 182.859375 171.464844 194.9375 173.414062 197.511719 174.300781 C 200.085938 175.191406 221.132812 179.617188 223.886719 180.328125 C 226.640625 181.039062 225.484375 180.59375 234.011719 181.039062 C 242.535156 181.480469 244.132812 181.128906 247.15625 181.835938 C 250.171875 182.542969 255.503906 181.921875 258.078125 181.835938 C 260.652344 181.746094 283.476562 180.859375 290.136719 179.441406 C 296.796875 178.023438 296.980469 177.582031 304.347656 177.757812 C 311.71875 177.933594 332.945312 178.203125 336.144531 177.757812 C 339.335938 177.3125 356.210938 175.453125 364.292969 173.59375 C 372.375 171.734375 370.246094 171.199219 371.128906 170.84375 C 372.019531 170.488281 376.015625 168.183594 380.8125 167.03125 C 385.605469 165.878906 397.6875 162.867188 408.164062 156.484375 M 380.054688 167.300781 "/>
<path style="fill:none;stroke-width:0.23916;stroke-linecap:butt;stroke-linejoin:miter;stroke:rgb(0%,0%,0%);stroke-opacity:1;stroke-miterlimit:4;" d="M 121.302499 880.390754 C 121.302499 880.390754 123.258134 880.642371 124.36176 880.983672 C 125.467877 881.322482 128.01394 882.847126 129.374165 884.628369 C 130.731899 886.409612 133.282944 887.852045 134.555975 888.447453 C 135.831497 889.037879 135.831497 891.414531 135.746794 892.856964 C 135.662092 894.299397 133.878353 898.367606 133.111047 899.386527 C 132.348723 900.402956 129.204759 908.96787 127.505724 911.257327 C 125.806688 913.546785 119.605955 925.16597 118.073833 927.20132 C 116.544203 929.239162 112.129699 928.559051 109.239844 931.780235 C 106.35248 935.00142 102.785003 933.307371 98.365517 934.072184 C 94.865304 934.675066 91.315266 933.648672 91.315266 933.648672 M 51.1961 906.882695 C 49.845839 905.240962 49.738715 903.180699 53.338579 900.178744 C 58.659899 895.258527 69.083309 886.155504 73.388197 882.652808 C 77.690594 879.14513 89.247525 871.118326 93.891223 868.629569 C 98.876224 864.785572 99.553845 863.769142 104.76555 860.77217 C 110.884072 856.419958 121.925313 851.330337 124.304461 850.934228 C 126.68361 850.540611 130.988498 849.633796 135.861392 850.652717 C 140.729304 851.669147 149.677891 851.781253 151.494016 851.838552 C 153.302667 851.893359 162.81926 855.401037 169.219293 856.190763 C 175.621818 856.98298 189.894216 863.539947 197.766581 863.993355 C 205.638946 864.446762 217.362791 872.476057 222.178387 874.058 C 226.991491 875.639943 239.510046 885.024477 242.170706 886.494314 C 244.831366 887.964151 253.894551 891.526637 257.349921 892.094641 C 260.805292 892.657664 264.200872 893.280476 266.58002 893.280476 C 268.959168 893.280476 270.999506 893.731392 275.080181 892.318854 C 279.155874 890.903825 278.136951 891.359723 281.251019 890.736911 C 284.367579 890.114099 284.536984 891.526637 284.875795 892.657664 C 285.214606 893.788691 286.577322 896.387063 286.178721 898.028796 C 285.782612 899.670529 285.271905 901.648581 285.159798 903.061119 C 285.047692 904.476148 284.424878 905.206084 284.591792 907.074521 C 284.763689 908.940466 285.837419 913.123273 284.987901 914.423705 C 284.138384 915.724137 283.064653 917.704679 282.269943 918.327492 C 281.477724 918.945321 278.587868 920.756459 277.511646 921.150077 C 276.437915 921.548676 275.815102 922.11419 275.247095 922.11419 C 274.681581 922.11419 272.245133 921.830187 270.264586 921.944785 C 268.281547 922.056891 262.220324 922.961214 259.502365 924.034943 C 256.784406 925.108671 255.366883 925.676676 252.703731 926.5237 C 250.045562 927.370725 249.930965 927.936238 246.022186 929.351268 C 242.113407 930.763806 236.508084 929.856991 232.940607 931.102616 C 229.370639 932.345749 222.405091 933.930183 219.74194 935.118509 C 217.078788 936.304343 209.375829 937.547476 207.734092 938.11299 C 206.092355 938.680995 192.669474 941.50358 190.91314 941.956987 C 189.156805 942.410394 189.894216 942.126392 184.455807 942.410394 C 179.019889 942.691905 178.000966 942.467693 176.072735 942.918609 C 174.149486 943.369525 170.748924 942.973416 169.107187 942.918609 C 167.46545 942.86131 152.909048 942.295797 148.661459 941.391473 C 144.41387 940.48715 144.296781 940.205639 139.598274 940.317745 C 134.897277 940.429851 121.359798 940.601747 119.319461 940.317745 C 117.284106 940.033743 106.521885 938.847908 101.367479 937.662074 C 96.213073 936.476239 97.570807 936.134938 97.007783 935.908235 C 96.439777 935.681531 93.891223 934.211694 90.831963 933.476776 C 87.775193 932.741857 80.069742 930.821105 73.388197 926.747913 C 66.70416 922.677212 62.229867 920.532247 59.399801 918.778408 C 56.564753 917.024569 47.391954 910.238407 47.902661 908.82836 C 48.408385 907.410839 49.698855 905.81644 50.493566 905.873739 M 64.270204 894.693014 C 63.702198 895.089123 63.475494 895.597337 63.475494 895.597337 M 60.473532 897.575389 C 60.869642 898.367606 61.039047 898.763715 61.039047 898.708907 " transform="matrix(-1.567985,0,0,1.567989,523.235652,-1296.64978)"/>
<path style="fill-rule:nonzero;fill:rgb(32.941177%,27.843139%,24.705882%);fill-opacity:1;stroke-width:0.23916;stroke-linecap:butt;stroke-linejoin:miter;stroke:rgb(0%,0%,0%);stroke-opacity:1;stroke-miterlimit:4;" d="M 54.442204 909.476085 C 53.507984 908.94794 51.233468 907.378453 50.493566 905.873739 C 49.698855 905.81644 48.408385 907.410839 47.902661 908.82836 C 47.391954 910.238407 56.564753 917.024569 59.399801 918.778408 C 62.229867 920.532247 66.70416 922.677212 73.388197 926.747913 C 75.311445 927.652236 76.33286 925.16597 77.351783 923.696133 C 78.370706 922.226296 80.408553 917.816786 78.370706 916.573652 C 76.33286 915.328028 72.142569 913.746085 69.990125 913.17808 C 67.837681 912.615058 63.986201 911.257327 60.812343 908.76857 C 57.870171 905.828896 52.997277 900.856364 51.377961 902.151813 C 49.860787 904.129865 50.162229 905.627105 51.1961 906.882695 C 52.187619 908.083476 53.844303 909.060046 55.20702 910.014194 C 55.80243 910.579708 56.186083 910.791464 56.848757 911.371925 C 57.003214 911.538839 60.877115 914.443635 62.85268 916.573652 C 69.713596 923.489359 67.496379 922.565106 73.727007 925.16597 " transform="matrix(-1.567985,0,0,1.567989,523.235652,-1296.64978)"/>
<path style="fill-rule:nonzero;fill:rgb(54.11765%,29.803923%,13.725491%);fill-opacity:1;stroke-width:0.23916;stroke-linecap:butt;stroke-linejoin:miter;stroke:rgb(0%,0%,0%);stroke-opacity:1;stroke-miterlimit:4;" d="M 70.585535 897.351176 C 71.601967 899.638143 73.388197 903.457227 76.444966 904.21955 C 79.504227 904.981872 79.758335 906.252409 84.344735 904.727764 C 88.936118 903.200629 88.679518 903.200629 90.719856 899.894742 C 92.757702 896.586363 92.503595 894.80512 92.249487 892.261555 C 91.992887 889.71799 88.936118 885.903888 86.385073 885.139075 C 83.83901 884.374261 80.014934 884.122645 76.444966 884.884967 C 72.87749 885.647289 72.369274 887.936747 71.601967 889.209775 C 70.839643 890.480312 69.564121 895.061719 70.585535 897.351176 Z M 70.585535 897.351176 " transform="matrix(-1.567985,0,0,1.567989,523.235652,-1296.64978)"/>
<path style="fill-rule:nonzero;fill:rgb(14.901961%,12.941177%,11.764706%);fill-opacity:1;stroke-width:0.23916;stroke-linecap:butt;stroke-linejoin:miter;stroke:rgb(0%,0%,0%);stroke-opacity:1;stroke-miterlimit:4;" d="M 80.525642 888.190855 C 77.717998 888.447453 76.444966 888.190855 75.171935 889.972097 C 73.898904 891.75334 73.163984 898.253009 74.833125 900.49015 C 76.021453 901.252472 77.12757 901.930092 78.739412 901.930092 C 80.353745 901.930092 82.817596 901.760687 83.921222 901.252472 C 85.027339 900.741766 86.556969 900.913662 87.49119 899.638143 C 88.42541 898.367606 88.848924 897.689986 88.764221 895.739338 C 88.679518 893.788691 88.679518 892.433451 87.830001 891.242634 C 86.980483 890.0568 86.385073 888.447453 84.773231 888.02145 C 83.158898 887.597937 83.328303 887.936747 80.525642 888.190855 Z M 80.525642 888.190855 " transform="matrix(-1.567985,0,0,1.567989,523.235652,-1296.64978)"/>
<path style=" stroke:none;fill-rule:nonzero;fill:rgb(100%,100%,100%);fill-opacity:1;" d="M 406.964844 105.070312 C 406.433594 105.734375 405.769531 105.996094 404.035156 105.464844 C 402.300781 104.9375 401.769531 104.003906 398.574219 103.871094 C 395.378906 103.734375 393.914062 103.734375 392.449219 104.003906 C 390.984375 104.265625 390.050781 103.339844 389.78125 104.003906 C 389.511719 104.667969 387.382812 105.199219 390.582031 105.863281 C 393.777344 106.527344 394.3125 108.125 396.710938 108.125 C 399.109375 108.125 399.238281 109.1875 401.636719 108.921875 C 404.035156 108.65625 406.433594 109.984375 406.570312 110.65625 C 406.699219 111.320312 409.410156 110.210938 409.410156 109.144531 C 409.410156 108.082031 407.496094 104.40625 406.964844 105.070312 Z M 406.964844 105.070312 "/>
<path style="fill-rule:nonzero;fill:rgb(45.882353%,38.82353%,34.901962%);fill-opacity:1;stroke-width:0.23916;stroke-linecap:butt;stroke-linejoin:miter;stroke:rgb(0%,0%,0%);stroke-opacity:1;stroke-miterlimit:4;" d="M 173.666183 827.073047 C 172.92628 827.065573 171.735461 827.700842 171.259631 827.925054 C 170.1859 828.433269 168.59648 829.222995 167.46545 829.790999 C 166.331929 830.354022 165.427604 830.692832 163.726077 831.881157 C 162.027041 833.069483 159.306591 835.498451 158.118262 835.89705 C 156.932425 836.293159 157.326043 836.293159 157.044531 835.613048 C 156.760528 834.935428 156.760528 834.47953 157.044531 832.050562 C 157.326043 829.619103 156.249821 831.372942 154.436188 832.391863 C 152.625045 833.408293 152.453149 833.973806 150.756604 835.55824 C 149.055077 837.140183 148.150752 837.364396 146.959932 837.703206 C 145.771604 838.042016 145.318195 837.364396 144.979385 835.782453 C 144.887208 835.346484 145.492583 833.612575 144.867278 833.8617 C 143.213085 834.514407 139.249499 838.697214 138.18075 839.967751 C 136.708419 841.716608 134.727871 842.227314 134.613274 841.945802 C 134.501167 841.6618 134.162356 841.492395 133.933161 841.492395 C 133.706457 841.492395 131.554013 843.303533 130.764285 843.926345 C 129.969575 844.544175 121.925313 851.330337 124.304461 850.934228 C 126.68361 850.540611 130.988498 849.633796 135.861392 850.652717 C 140.729304 851.669147 149.677891 851.781253 151.494016 851.838552 C 153.302667 851.893359 162.81926 855.401037 169.219293 856.190763 C 175.621818 856.98298 189.894216 863.539947 197.766581 863.993355 C 205.638946 864.446762 217.362791 872.476057 222.178387 874.058 C 226.991491 875.639943 239.510046 885.024477 242.170706 886.494314 C 244.021708 887.518217 248.971832 889.553568 252.972787 890.886386 C 254.72663 891.471829 253.102332 889.944694 253.894551 889.548585 C 254.689261 889.154968 257.860629 889.548585 259.390259 889.605884 C 260.919889 889.660691 265.279585 889.037879 266.866514 888.360259 C 268.453444 887.685131 267.77084 883.270638 267.825648 881.972697 C 267.858034 881.30006 268.543129 878.56716 268.166949 875.921454 C 267.818174 873.452626 266.410615 871.068501 266.298508 870.438215 C 266.186402 869.797964 265.01053 867.231978 263.465952 864.84287 C 261.884005 862.393973 259.933352 860.126936 259.614472 859.526545 C 258.991658 858.340711 253.443634 853.308388 252.424711 852.628277 C 251.403296 851.950658 244.776559 847.429041 243.697845 846.920826 C 242.624114 846.412612 240.925079 844.940284 237.243004 844.038452 C 235.695935 843.654799 234.181252 842.882512 232.544498 842.511316 C 230.282438 842.00061 227.997958 841.96075 227.04879 842.057909 C 225.407053 842.227314 225.008452 842.057909 224.046828 841.945802 C 223.082712 841.833696 223.366715 841.6618 222.121088 841.888504 C 220.875461 842.112716 220.364753 842.511316 219.34583 842.907425 C 218.324416 843.303533 217.871007 843.131637 216.797276 843.191427 C 215.721054 843.246234 215.606457 842.451526 215.15554 842.172506 C 214.69964 841.888504 213.795315 842.112716 211.814767 842.172506 C 209.829237 842.227314 210.452051 842.057909 209.946326 841.153585 C 209.435619 840.246771 209.31853 839.457045 209.31853 839.457045 C 209.31853 839.457045 208.471503 839.28764 207.337982 839.344939 C 206.204461 839.399746 205.865651 839.006129 205.188029 838.440615 C 204.505426 837.875102 204.677322 837.817803 203.937419 836.405265 C 203.202499 834.990236 203.713207 835.670347 202.749091 835.55824 C 201.789958 835.443643 201.446165 835.613048 199.296212 835.613048 C 197.143768 835.613048 198.332096 835.219431 197.651984 834.424722 C 196.971871 833.632505 197.086469 833.353485 197.086469 833.353485 C 197.086469 833.353485 196.010247 833.692295 195.160729 833.8617 C 194.313702 834.031105 193.631099 834.53932 192.158767 834.312616 C 190.683944 834.088404 191.31174 833.293695 191.31174 833.293695 L 190.855841 831.881157 C 190.855841 831.881157 189.044699 832.558777 188.080583 832.897587 C 187.116467 833.238888 186.157334 833.408293 185.586837 833.238888 C 185.023813 833.069483 184.851917 832.162668 184.229103 830.187108 C 183.606289 828.206565 182.928668 828.717271 181.964553 828.943975 C 181.000437 829.168187 180.661626 829.3924 179.75481 829.845807 C 178.847993 830.299214 175.679117 831.42775 175.16841 831.372942 C 174.657702 831.315644 173.862992 831.315644 173.97759 829.845807 C 174.029906 829.17317 174.577982 827.55884 174.092188 827.187644 C 173.985064 827.105433 173.83808 827.073047 173.666183 827.073047 Z M 173.666183 827.073047 " transform="matrix(-1.567985,0,0,1.567989,523.235652,-1296.64978)"/>
<path style="fill-rule:nonzero;fill:rgb(38.039216%,32.941177%,29.019609%);fill-opacity:1;stroke-width:0.23916;stroke-linecap:butt;stroke-linejoin:miter;stroke:rgb(0%,0%,0%);stroke-opacity:1;stroke-miterlimit:4;" d="M 196.321654 860.376061 C 196.49355 859.018331 197.766581 857.237088 198.700802 855.879357 C 199.635023 854.526609 202.778986 852.321854 204.816832 850.792227 C 206.85717 849.265092 207.195981 848.674666 209.490426 846.382717 C 211.782381 844.093259 212.101261 845.149548 212.656811 843.754449 C 211.553185 844.262664 209.31853 845.874502 208.130201 846.636824 C 206.939381 847.401637 206.177057 847.907361 204.647427 849.098178 C 203.120288 850.284012 201.503464 850.964123 200.230432 852.321854 C 198.95491 853.674602 198.020689 853.931201 197.255874 854.439415 C 196.49355 854.950121 193.518992 857.578389 192.245961 858.594818 C 190.967947 859.613739 190.459731 859.698442 189.779619 858.848926 C 189.099506 858.001901 190.372537 857.070174 191.31174 855.712444 C 192.245961 854.354713 193.518992 853.25109 195.130834 851.554549 C 196.747658 849.8605 196.660464 850.112116 198.700802 848.16396 C 200.74114 846.213312 200.908054 846.721526 203.626013 844.177961 C 204.408267 843.291077 206.015126 842.12019 205.890563 841.778889 C 204.77199 842.312016 203.543801 843.246234 201.07995 844.688667 C 198.616099 846.131101 197.255874 847.145039 196.321654 847.571042 C 195.387433 847.994555 189.779619 851.641743 186.635655 855.032333 C 183.494183 858.425414 183.240075 855.627741 184.089593 853.674602 C 184.936619 851.726445 185.786137 851.811148 186.892254 850.19931 C 187.998372 848.587472 191.817465 845.45099 195.472136 842.396719 C 199.124315 839.344939 199.124315 839.260236 197.255874 840.191963 C 195.387433 841.126182 194.625109 841.549694 193.092988 842.568615 C 191.563357 843.585044 189.610213 844.601474 187.654578 846.467419 C 185.701435 848.335856 189.779619 844.688667 181.371634 851.641743 C 172.958667 858.594818 179.415999 852.149958 179.670107 850.707525 C 179.926706 849.265092 180.68903 847.907361 181.964553 846.213312 C 183.240075 844.516771 185.532029 843.415639 190.883245 839.08834 C 196.236951 834.763532 192.83888 836.716671 191.31174 837.307097 C 189.779619 837.902506 189.099506 838.836724 187.315768 839.853153 C 185.532029 840.869583 183.663588 842.568615 182.133958 843.669747 C 180.604327 844.77337 180.008918 846.043907 174.996513 849.349794 C 169.9866 852.658172 170.153514 851.046334 170.836118 849.436988 C 171.513739 847.82515 172.617365 847.145039 174.573 844.688667 C 176.526143 842.227314 178.651184 840.954285 182.388066 838.071911 C 186.124948 835.189536 185.701435 834.00121 182.898773 836.544775 C 180.09362 839.08834 180.860927 837.817803 179.074697 839.08834 C 177.290959 840.363859 177.206256 840.787372 168.880483 846.298014 C 160.552218 851.811148 163.865587 847.571042 164.20938 845.279093 C 164.38875 844.043434 166.351859 841.903451 168.880483 839.835715 C 170.853556 838.223877 173.217757 835.966805 175.337815 834.721181 C 175.524659 834.609075 176.668145 834.053526 176.852498 833.948894 C 177.995984 833.054535 178.960099 832.583689 179.353718 831.420276 C 176.889867 833.114325 175.50722 833.6624 173.892887 834.850726 C 172.278554 836.03656 170.748924 836.883585 169.899406 837.140183 C 169.052379 837.394291 167.946262 838.582617 160.385304 844.77337 C 152.824346 850.964123 157.238849 844.855581 157.582642 842.820231 C 157.921453 840.787372 163.698673 836.121263 167.607451 832.135265 C 171.513739 828.149266 167.178956 831.372942 165.397708 832.645971 C 163.61397 833.916508 162.931366 834.088404 160.808817 835.867155 C 158.683777 837.648398 154.946895 840.702669 153.673864 841.549694 C 152.398341 842.396719 149.510977 845.196882 147.642536 847.740447 C 145.771604 850.284012 145.006788 849.098178 144.924577 849.098178 C 144.837383 849.098178 145.006788 847.316935 145.263388 846.382717 C 145.517496 845.45099 148.320157 841.210884 149.677891 839.853153 C 151.040607 838.497914 153.58667 834.424722 153.163156 835.020131 C 152.737152 835.613048 151.122819 836.968287 150.019193 838.159104 C 148.915567 839.344939 142.799537 844.855581 141.778122 845.874502 C 140.759199 846.893423 139.737785 848.841579 138.464753 849.436988 C 137.191722 850.029905 137.358636 848.926282 137.10702 848.335856 C 136.852912 847.740447 139.144866 842.312016 139.909681 840.954285 C 140.672005 839.599046 142.799537 836.460073 142.034721 837.224886 C 141.267415 837.987208 140.505091 839.08834 139.737785 839.768451 C 138.975461 840.446071 138.721353 840.363859 136.935123 843.669747 C 135.151385 846.978125 133.282944 849.010984 132.348723 849.098178 C 131.414502 849.18288 130.731899 848.759368 130.819093 848.418067 C 130.903795 848.079257 131.499205 846.554613 131.922718 845.702606 C 132.348723 844.855581 134.132461 842.312016 133.963056 841.973206 C 133.793651 841.634396 131.414502 844.688667 130.226174 846.467419 C 129.035354 848.248662 121.925313 851.330337 124.304461 850.934228 C 126.68361 850.540611 130.988498 849.633796 135.861392 850.652717 C 140.729304 851.669147 149.677891 851.781253 151.494016 851.838552 C 153.302667 851.893359 162.81926 855.401037 169.219293 856.190763 C 175.621818 856.98298 189.894216 863.539947 197.766581 863.993355 C 198.165182 864.018267 196.152248 861.731301 196.321654 860.376061 Z M 196.321654 860.376061 " transform="matrix(-1.567985,0,0,1.567989,523.235652,-1296.64978)"/>
<path style="fill-rule:nonzero;fill:rgb(100%,85.09804%,29.803923%);fill-opacity:1;stroke-width:0.23916;stroke-linecap:round;stroke-linejoin:round;stroke:rgb(0%,0%,0%);stroke-opacity:1;stroke-miterlimit:4;" d="M 141.636121 940.265429 C 141.37703 940.265429 140.771655 940.290341 139.598274 940.317745 C 137.854396 940.357605 134.897277 940.40743 131.763278 940.439816 C 134.897277 944.615149 132.687534 941.732774 134.331762 948.34704 C 134.331762 948.34704 136.541505 956.035034 136.992422 958.070384 C 137.44583 960.105735 140.958499 968.077731 141.638612 969.09416 C 142.316233 970.113081 144.695382 972.487241 145.375494 973.787673 C 146.058098 975.085614 147.131829 976.727347 148.26535 978.478695 C 149.396379 980.235025 149.396379 981.02226 151.26482 982.945504 C 153.135753 984.868748 154.042569 986.226479 154.553277 986.226479 C 155.059001 986.226479 154.777489 986.620096 155.681815 985.095452 C 156.588632 983.565825 157.722153 980.910154 158.516863 980.459237 C 159.311573 980.00583 160.440112 977.235561 160.440112 977.235561 L 161.180014 975.085614 C 161.180014 975.085614 162.081848 974.183782 162.537748 972.091133 C 162.988665 969.998484 163.160562 967.908326 163.838183 966.72 C 164.518296 965.531674 165.255707 962.253191 165.255707 962.253191 C 165.255707 962.253191 165.938311 958.748004 165.310515 957.335466 C 164.687701 955.922928 162.81926 953.038062 162.764452 953.038062 C 162.707153 953.038062 160.838712 950.890605 157.383342 949.136766 C 153.92548 947.382927 151.152714 944.727256 149.79498 944.500552 C 148.432264 944.276339 145.771604 943.030715 145.771604 942.973416 C 145.771604 942.918609 144.072568 942.238498 142.316233 942.126392 C 141.524014 942.126392 140.559899 941.16477 140.559899 941.16477 C 140.044209 940.429851 142.403427 940.257955 141.636121 940.265429 Z M 141.636121 940.265429 " transform="matrix(-1.567985,0,0,1.567989,523.235652,-1296.64978)"/>
<path style="fill-rule:nonzero;fill:rgb(100%,85.09804%,29.803923%);fill-opacity:1;stroke-width:0.23916;stroke-linecap:round;stroke-linejoin:round;stroke:rgb(0%,0%,0%);stroke-opacity:1;stroke-miterlimit:4;" d="M 246.022186 929.351268 C 242.113407 930.763806 236.508084 929.856991 232.940607 931.102616 C 229.370639 932.345749 222.405091 933.930183 219.74194 935.118509 C 217.078788 936.304343 209.375829 937.547476 207.734092 938.11299 C 206.092355 938.680995 192.669474 941.50358 190.91314 941.956987 C 189.156805 942.410394 189.495616 943.257419 189.495616 943.257419 C 189.495616 943.257419 191.762658 946.535902 195.387433 948.573744 C 199.012209 950.606603 207.621985 955.810822 212.265684 956.82476 C 216.911874 957.843681 227.898308 959.540221 230.728373 961.575571 C 233.563421 963.610922 235.147859 963.723028 238.204629 964.515245 C 241.263889 965.307462 243.757635 965.648763 245.797973 964.629842 C 247.833328 963.610922 253.159631 961.23427 255.082879 959.201411 C 257.011111 957.166061 257.691223 957.731574 259.502365 953.77298 C 261.315999 949.816877 262.673733 949.136766 262.220324 944.839362 C 261.769407 940.544449 261.65481 937.263474 261.19891 935.796128 C 260.747993 934.3238 257.80333 930.59191 256.896513 930.367697 C 255.989696 930.140994 248.456142 930.2531 248.456142 930.2531 C 246.475594 930.59191 246.645 930.028887 246.022186 929.351268 Z M 246.022186 929.351268 " transform="matrix(-1.567985,0,0,1.567989,523.235652,-1296.64978)"/>
<path style=" stroke:none;fill-rule:nonzero;fill:rgb(43.921569%,36.862746%,34.117648%);fill-opacity:1;" d="M 248.511719 72.335938 C 249.839844 72.339844 251.203125 72.464844 252.570312 72.753906 C 258.835938 74.085938 277.75 81.265625 282.414062 84.589844 C 287.078125 87.914062 291.871094 94.429688 293.867188 97.753906 C 295.867188 101.078125 302.125 108.125 304.921875 111.320312 C 307.722656 114.507812 314.117188 122.222656 315.984375 124.613281 C 317.847656 127.007812 317.710938 130.464844 317.710938 132.0625 C 317.710938 133.65625 317.847656 135.117188 316.246094 139.507812 C 314.648438 143.898438 313.449219 148.148438 311.453125 148.417969 C 309.453125 148.679688 305.855469 148.945312 300.527344 148.417969 C 295.203125 147.886719 282.144531 146.554688 279.082031 146.15625 C 276.015625 145.757812 272.421875 146.554688 269.625 144.691406 C 266.828125 142.832031 260.429688 139.507812 256.570312 135.648438 C 252.707031 131.792969 244.445312 124.613281 242.449219 120.890625 C 240.449219 117.167969 234.585938 106.398438 233.789062 102.539062 C 232.988281 98.6875 231.523438 89.511719 231.523438 88.179688 C 231.523438 86.851562 233.523438 76.210938 236.851562 74.882812 C 239.453125 73.84375 243.765625 72.320312 248.511719 72.335938 Z M 248.511719 72.335938 "/>
<path style="fill-rule:nonzero;fill:rgb(100%,85.09804%,29.803923%);fill-opacity:1;stroke-width:0.23916;stroke-linecap:round;stroke-linejoin:round;stroke:rgb(0%,0%,0%);stroke-opacity:1;stroke-miterlimit:4;" d="M 332.523533 872.737638 C 331.885772 872.732656 330.68997 872.944412 328.206189 873.549785 C 323.786703 874.623513 316.425045 877.391291 312.40416 879.033024 C 308.380784 880.674757 305.206925 881.461991 301.300638 883.103724 C 298.017164 884.177453 294.165684 885.871502 290.653015 886.950213 C 288.104461 888.302961 278.136951 891.359723 281.251019 890.736911 C 284.367579 890.114099 284.536984 891.526637 284.875795 892.657664 C 285.214606 893.788691 286.577322 896.387063 286.178721 898.028796 C 285.782612 899.670529 285.271905 901.648581 285.159798 903.061119 C 285.047692 904.476148 284.424878 905.206084 284.591792 907.074521 C 284.763689 908.940466 285.837419 913.123273 284.987901 914.423705 C 284.138384 915.724137 283.064653 917.704679 282.269943 918.327492 C 281.477724 918.945321 278.587868 920.756459 277.511646 921.150077 C 276.437915 921.548676 275.815102 922.11419 275.247095 922.11419 C 274.681581 922.11419 281.819025 923.526728 283.179251 924.14954 C 284.536984 924.769861 294.053578 928.783263 296.711746 929.518181 C 299.374898 930.2531 311.60945 934.719909 312.912376 934.834506 C 314.212811 934.946613 325.373632 938.225096 326.337748 938.170289 C 327.299372 938.11299 330.525547 938.11299 330.525547 938.11299 L 330.413441 927.425532 C 330.413441 927.425532 328.829003 919.117218 327.922186 917.420677 C 327.015369 915.724137 325.087138 910.014194 324.409517 909.448681 C 323.729404 908.885659 322.939676 906.962414 322.939676 906.962414 C 322.939676 906.962414 323.447892 905.774089 324.128005 904.757659 C 325.485739 903.001329 326.220659 899.725337 326.960562 897.8569 C 328.716896 894.580908 330.244035 889.71799 330.640145 887.909343 C 330.640145 887.909343 333.188698 878.522318 333.188698 878.46751 C 333.188698 878.410212 333.754213 873.435188 333.358104 873.04157 C 333.183716 872.867183 333.021784 872.737638 332.523533 872.737638 Z M 332.523533 872.737638 " transform="matrix(-1.567985,0,0,1.567989,523.235652,-1296.64978)"/>
<path style=" stroke:none;fill-rule:nonzero;fill:rgb(100%,86.274511%,31.764707%);fill-opacity:1;" d="M 290.148438 92.425781 C 291.726562 94.449219 293.039062 96.375 293.867188 97.753906 C 295.867188 101.078125 302.125 108.125 304.921875 111.320312 C 307.722656 114.507812 314.117188 122.222656 315.984375 124.613281 C 317.847656 127.007812 317.710938 130.464844 317.710938 132.0625 C 317.710938 133.65625 317.847656 135.117188 316.246094 139.507812 C 314.648438 143.898438 313.449219 148.148438 311.453125 148.417969 C 309.453125 148.679688 305.855469 148.945312 300.527344 148.417969 C 295.203125 147.886719 282.144531 146.554688 279.082031 146.15625 C 276.015625 145.757812 272.421875 146.554688 269.625 144.691406 C 266.828125 142.832031 260.429688 139.507812 256.570312 135.648438 C 252.707031 131.792969 244.445312 124.613281 242.449219 120.890625 C 241.855469 119.789062 240.914062 118.039062 239.878906 116.0625 C 259.382812 108.949219 276.003906 99.882812 290.148438 92.425781 Z M 290.148438 92.425781 "/>
<path style="fill:none;stroke-width:0.23916;stroke-linecap:round;stroke-linejoin:round;stroke:rgb(0%,0%,0%);stroke-opacity:1;stroke-miterlimit:4;" d="M 175.20827 873.08143 C 174.361243 873.086413 173.491795 873.166133 172.619856 873.350485 C 168.623883 874.200001 156.561228 878.778916 153.58667 880.898969 C 150.612112 883.019022 147.555342 887.174425 146.282311 889.294478 C 145.006788 891.414531 141.015798 895.908743 139.23206 897.944094 C 137.44583 899.979444 133.367646 904.89966 132.176826 906.424305 C 130.988498 907.95144 131.075692 910.156195 131.075692 911.172625 C 131.075692 912.191546 130.988498 913.123273 132.009912 915.923437 C 133.028836 918.721109 133.793651 921.434079 135.066682 921.605975 C 136.342204 921.772889 138.63665 921.942294 142.034721 921.605975 C 145.430302 921.267165 153.758566 920.415158 155.71171 920.163542 C 157.667345 919.909435 159.959299 920.415158 161.743038 919.229324 C 163.526776 918.043489 167.607451 915.923437 170.068811 913.462083 C 172.532662 911.00322 177.801666 906.424305 179.074697 904.047653 C 180.350219 901.675984 184.089593 894.80512 184.597809 892.346258 C 185.108516 889.889886 186.042737 884.037943 186.042737 883.188427 C 186.042737 882.341402 184.767214 875.55524 182.644665 874.708216 C 180.985489 874.045544 178.235144 873.073957 175.20827 873.08143 Z M 175.20827 873.08143 " transform="matrix(-1.567985,0,0,1.567989,523.235652,-1296.64978)"/>
</g>
</svg>
