<?xml version="1.0" encoding="UTF-8"?>
<svg xmlns="http://www.w3.org/2000/svg" xmlns:xlink="http://www.w3.org/1999/xlink" width="449pt" height="250pt" viewBox="0 0 449 250" version="1.1">
<g id="surface6">
<path style="fill-rule:nonzero;fill:rgb(34.901962%,29.019609%,24.705882%);fill-opacity:1;stroke-width:0.24;stroke-linecap:butt;stroke-linejoin:miter;stroke:rgb(0%,0%,0%);stroke-opacity:1;stroke-miterlimit:4;" d="M 73.802294 53.627587 C 73.802294 53.627587 75.764798 53.880087 76.872299 54.222588 C 77.982301 54.562588 80.537305 56.092591 81.902307 57.880094 C 83.26481 59.667597 85.824814 61.115099 87.102316 61.7126 C 88.382318 62.305101 88.382318 64.690105 88.297318 66.137607 C 88.212318 67.58511 86.422315 71.667616 85.652314 72.690118 C 84.887312 73.71012 81.732307 82.305133 80.027304 84.602637 C 78.322302 86.900141 72.099792 98.56016 70.562289 100.602663 C 69.027287 102.647666 64.597279 101.965165 61.697275 105.197671 C 58.79977 108.430176 55.219764 106.730173 50.784757 107.497674 C 47.272251 108.102675 43.709746 107.072674 43.709746 107.072674 M 3.44968 80.21263 C 2.094678 78.565127 1.987178 76.497624 5.599684 73.485119 C 10.939692 68.547611 21.399709 59.412596 25.719716 55.897591 C 30.037223 52.377585 41.634742 44.322572 46.29475 41.825068 C 51.297258 37.967562 51.977259 36.94756 57.207267 33.940055 C 63.347277 29.572548 74.427295 24.46504 76.814799 24.067539 C 79.202303 23.672538 83.52231 22.762537 88.412318 23.785039 C 93.297326 24.80504 102.27734 24.91754 104.099843 24.97504 C 105.914846 25.030041 115.464862 28.550046 121.887372 29.342548 C 128.312383 30.137549 142.634906 36.71756 150.534919 37.17256 C 158.434932 37.627561 170.199951 45.685074 175.032458 47.272577 C 179.862466 48.860079 192.424987 58.277594 195.094991 59.752597 C 197.764995 61.227599 206.86001 64.802605 210.327516 65.372606 C 213.795021 65.937607 217.202527 66.562608 219.590031 66.562608 C 221.977535 66.562608 224.025038 67.015109 228.120045 65.597606 C 232.210051 64.177604 231.187549 64.635105 234.312555 64.010104 C 237.44006 63.385103 237.61006 64.802605 237.95006 65.937607 C 238.290061 67.072609 239.657563 69.680113 239.257563 71.327616 C 238.860062 72.975118 238.347561 74.960122 238.235061 76.377624 C 238.122561 77.797626 237.49756 78.530127 237.66506 80.40513 C 237.83756 82.277633 238.915062 86.47514 238.062561 87.780142 C 237.210059 89.085144 236.132557 91.072648 235.335056 91.697649 C 234.540055 92.31765 231.64005 94.135153 230.560048 94.530153 C 229.482547 94.930154 228.857546 95.497655 228.287545 95.497655 C 227.720044 95.497655 225.27504 95.212654 223.287537 95.327655 C 221.297533 95.440155 215.215024 96.347656 212.487519 97.425158 C 209.760015 98.50266 208.337512 99.072661 205.665008 99.922662 C 202.997504 100.772663 202.882504 101.340164 198.959997 102.760167 C 195.037491 104.177669 189.412482 103.267667 185.832476 104.517669 C 182.24997 105.765171 175.259959 107.355174 172.587454 108.547676 C 169.91495 109.737678 162.184938 110.98518 160.537435 111.552681 C 158.889932 112.122682 145.41991 114.955186 143.657408 115.410187 C 141.894905 115.865188 142.634906 115.580187 137.177397 115.865188 C 131.722388 116.147688 130.699887 115.922688 128.764883 116.375189 C 126.83488 116.827689 123.422375 116.432689 121.774872 116.375189 C 120.127369 116.317689 105.519846 115.750188 101.257339 114.842686 C 96.994832 113.935185 96.877332 113.652684 92.162324 113.765184 C 87.444816 113.877685 73.859794 114.050185 71.812291 113.765184 C 69.769788 113.480184 58.96977 112.290182 53.797262 111.10018 C 48.624754 109.910178 49.987256 109.567678 49.422255 109.340177 C 48.852254 109.112677 46.29475 107.637675 43.224745 106.900173 C 40.15724 106.162672 32.424727 104.235169 25.719716 100.147662 C 19.012205 96.062656 14.522198 93.910152 11.682194 92.150149 C 8.837189 90.390147 -0.367826 83.580136 0.144675 82.165133 C 0.652176 80.742631 1.947178 79.142628 2.744679 79.200128 M 16.569702 67.98011 C 15.999701 68.377611 15.7722 68.887612 15.7722 68.887612 M 12.759695 70.872615 C 13.157196 71.667616 13.327196 72.065117 13.327196 72.010117 " transform="matrix(-1.562497,0,0,1.562497,448.351054,0)"/>
<path style="fill-rule:nonzero;fill:rgb(25.882354%,20.784314%,18.82353%);fill-opacity:1;stroke-width:0.24;stroke-linecap:butt;stroke-linejoin:miter;stroke:rgb(0%,0%,0%);stroke-opacity:1;stroke-miterlimit:4;" d="M 6.707186 82.815134 C 5.769684 82.285133 3.48718 80.710131 2.744679 79.200128 C 1.947178 79.142628 0.652176 80.742631 0.144675 82.165133 C -0.367826 83.580136 8.837189 90.390147 11.682194 92.150149 C 14.522198 93.910152 19.012205 96.062656 25.719716 100.147662 C 27.649719 101.055164 28.674721 98.56016 29.697223 97.085157 C 30.719724 95.610155 32.764728 91.185148 30.719724 89.937646 C 28.674721 88.687644 24.469714 87.100141 22.309711 86.53014 C 20.149707 85.965139 16.284701 84.602637 13.099696 82.105133 C 10.147191 79.155128 5.257183 74.16512 3.632181 75.465122 C 2.109678 77.450126 2.412179 78.952628 3.44968 80.21263 C 4.444682 81.417632 6.107185 82.397634 7.474687 83.355135 C 8.072188 83.922636 8.457188 84.135136 9.122189 84.717637 C 9.27719 84.885138 13.164696 87.800142 15.147199 89.937646 C 22.03221 96.877657 19.807207 95.950156 26.059717 98.56016 " transform="matrix(-1.562497,0,0,1.562497,448.351054,0)"/>
<path style="fill:none;stroke-width:1.44;stroke-linecap:round;stroke-linejoin:miter;stroke:rgb(43.137255%,20.784314%,90.196079%);stroke-opacity:1;stroke-miterlimit:4;" d="M 47.152251 82.965135 C 46.887251 83.715136 47.597252 84.297637 47.597252 84.297637 M 49.162254 80.992631 C 49.599755 80.19763 49.984756 83.130135 50.059756 82.677634 M 44.299746 85.902639 C 44.812247 86.12514 43.839746 85.035138 44.219746 84.672637 M 56.682267 68.625111 C 57.094767 71.335116 56.594766 73.73012 56.849767 75.390122 C 57.434768 79.185128 58.79477 82.555134 61.009774 86.010139 C 62.099775 87.712642 66.864783 93.485152 67.752285 95.977656 C 68.539786 97.692658 69.189787 98.94766 69.937288 100.277663 M 70.88229 101.905165 C 73.407294 106.162672 76.989799 111.365181 79.962304 113.235184 M 15.8897 79.785129 C 16.419701 79.292629 17.157202 77.055125 17.647203 77.135125 M 18.944705 78.000126 C 17.687203 79.755129 18.622205 83.200135 18.622205 83.200135 M 21.099709 83.167635 L 21.099709 83.167635 M 23.494713 84.010136 L 23.494713 84.010136 M 76.562299 91.752649 C 76.584799 91.727649 78.252302 95.475155 81.919807 100.652663 C 85.164813 104.380169 86.109814 106.062672 89.274819 109.362677 M 80.162305 87.862642 C 81.219806 88.902644 89.44732 101.252664 93.372326 106.980173 M 85.727314 77.205125 C 88.184818 77.450126 99.319836 102.022665 99.509836 102.350166 M 73.864794 95.850155 C 74.372295 98.41016 75.802298 103.312667 79.247303 106.610173 C 81.652307 108.287676 83.899811 112.765183 86.332315 112.912683 C 88.037317 112.965183 91.262323 112.942683 93.939827 112.692683 C 94.827328 112.612683 96.612331 112.752683 99.057335 113.102683 C 103.234842 113.705184 108.864851 114.737686 112.494857 114.287685 M 23.237212 64.315104 C 22.214711 65.190106 21.93471 69.355112 22.594711 71.125115 C 23.599713 73.84262 25.812217 76.342624 26.107217 76.467624 C 26.952218 76.822625 27.584719 78.077627 27.91222 78.385127 C 30.174724 80.515131 39.349738 85.740139 40.624741 95.502655 C 41.044741 97.555158 41.477242 98.88016 42.147243 99.817662 M 43.489745 101.062664 C 44.349747 101.597665 45.474748 101.977665 47.009751 102.430166 M 18.819705 66.065107 C 17.622203 66.997609 15.6247 70.327614 14.427198 71.127615 C 13.232196 71.925117 12.169694 73.79012 11.502193 73.660119 C 10.837192 73.525119 10.707192 73.525119 10.707192 73.525119 M 40.759741 59.272596 C 41.689742 59.805097 44.084746 60.737598 45.282248 64.600105 C 46.47725 68.462611 45.812249 71.260116 44.614747 73.525119 C 43.419745 75.790123 41.689742 78.717628 39.562239 79.652629 L 37.434735 80.585131 " transform="matrix(-1.562497,0,0,1.562497,448.351054,0)"/>
<path style="fill-rule:nonzero;fill:rgb(61.176473%,32.941177%,16.862746%);fill-opacity:1;stroke-width:0.24;stroke-linecap:butt;stroke-linejoin:miter;stroke:rgb(0%,0%,0%);stroke-opacity:1;stroke-miterlimit:4;" d="M 22.907212 70.647615 C 23.927213 72.942618 25.719716 76.775124 28.787221 77.540126 C 31.857226 78.305127 32.112227 79.580129 36.714734 78.050127 C 41.322242 76.517624 41.064741 76.517624 43.112245 73.200119 C 45.157248 69.880113 44.902247 68.09261 44.647247 65.540106 C 44.389747 62.987602 41.322242 59.160096 38.762238 58.392595 C 36.207233 57.625093 32.369727 57.372593 28.787221 58.137594 C 25.207216 58.902595 24.697215 61.200099 23.927213 62.477601 C 23.162212 63.752603 21.88221 68.350111 22.907212 70.647615 Z M 22.907212 70.647615 " transform="matrix(-1.562497,0,0,1.562497,448.351054,0)"/>
<path style="fill-rule:nonzero;fill:rgb(21.960784%,11.764706%,5.882353%);fill-opacity:1;stroke-width:0.24;stroke-linecap:butt;stroke-linejoin:miter;stroke:rgb(0%,0%,0%);stroke-opacity:1;stroke-miterlimit:4;" d="M 32.882228 61.4551 C 30.064723 61.7126 28.787221 61.4551 27.509719 63.242603 C 26.232217 65.030105 25.494716 71.552616 27.169719 73.79762 C 28.362221 74.562621 29.472222 75.242622 31.089725 75.242622 C 32.709728 75.242622 35.182232 75.072622 36.289734 74.562621 C 37.399735 74.05012 38.934738 74.22262 39.872239 72.942618 C 40.809741 71.667616 41.234742 70.987615 41.149741 69.030112 C 41.064741 67.072609 41.064741 65.712607 40.21224 64.517605 C 39.359738 63.327603 38.762238 61.7126 37.144735 61.285099 C 35.524732 60.860099 35.694733 61.200099 32.882228 61.4551 Z M 32.882228 61.4551 " transform="matrix(-1.562497,0,0,1.562497,448.351054,0)"/>
<path style="fill-rule:nonzero;fill:rgb(29.803923%,24.705882%,21.960784%);fill-opacity:1;stroke-width:0.24;stroke-linecap:butt;stroke-linejoin:miter;stroke:rgb(0%,0%,0%);stroke-opacity:1;stroke-miterlimit:4;" d="M 126.34988 0.1225 C 125.607378 0.115 124.412376 0.752501 123.934876 0.977502 C 122.857374 1.487502 121.262371 2.282504 120.127369 2.850005 C 118.989868 3.415006 118.082366 3.755006 116.374863 4.947508 C 114.669861 6.14001 111.939856 8.577514 110.747354 8.977515 C 109.557352 9.375015 109.952353 9.375015 109.669852 8.692514 C 109.384852 8.012513 109.384852 7.555012 109.669852 5.117508 C 109.952353 2.677504 108.872351 4.437507 107.052348 5.460009 C 105.234845 6.480011 105.062345 7.047511 103.359842 8.637514 C 101.652339 10.225017 100.744838 10.450017 99.549836 10.790017 C 98.357334 11.130018 97.902333 10.450017 97.562333 8.862514 C 97.469833 8.425014 98.077334 6.685011 97.449833 6.935011 C 95.78983 7.590012 91.812324 11.787519 90.739822 13.062521 C 89.262319 14.817524 87.274816 15.330025 87.159816 15.047524 C 87.047316 14.762524 86.707315 14.592524 86.477315 14.592524 C 86.249815 14.592524 84.089811 16.410027 83.29731 17.035028 C 82.499808 17.655029 74.427295 24.46504 76.814799 24.067539 C 79.202303 23.672538 83.52231 22.762537 88.412318 23.785039 C 93.297326 24.80504 102.27734 24.91754 104.099843 24.97504 C 105.914846 25.030041 115.464862 28.550046 121.887372 29.342548 C 128.312383 30.137549 142.634906 36.71756 150.534919 37.17256 C 158.434932 37.627561 170.199951 45.685074 175.032458 47.272577 C 179.862466 48.860079 192.424987 58.277594 195.094991 59.752597 C 196.952494 60.780099 201.920002 62.822602 205.935009 64.160104 C 207.695011 64.747605 206.065009 63.215102 206.86001 62.817602 C 207.657511 62.422601 210.840016 62.817602 212.375019 62.875102 C 213.910021 62.930102 218.285029 62.305101 219.877531 61.6251 C 221.470034 60.947599 220.785033 56.517592 220.840033 55.21509 C 220.872533 54.540088 221.560034 51.797584 221.182533 49.14258 C 220.832533 46.665076 219.42003 44.272572 219.30753 43.640071 C 219.19503 42.99757 218.015028 40.422566 216.465026 38.025062 C 214.877523 35.567558 212.92002 33.292554 212.600019 32.690053 C 211.975018 31.500051 206.407509 26.450043 205.385008 25.767542 C 204.360006 25.087541 197.709995 20.550033 196.627493 20.040032 C 195.549992 19.530032 193.844989 18.052529 190.149983 17.147528 C 188.59748 16.762527 187.077478 15.987526 185.434975 15.615025 C 183.164972 15.102524 180.872468 15.062524 179.919966 15.160025 C 178.272464 15.330025 177.872463 15.160025 176.907461 15.047524 C 175.93996 14.935024 176.22496 14.762524 174.974958 14.990024 C 173.724956 15.215025 173.212455 15.615025 172.189954 16.012526 C 171.164952 16.410027 170.709951 16.237526 169.63245 16.297526 C 168.552448 16.352527 168.437448 15.555025 167.984947 15.275025 C 167.527446 14.990024 166.619945 15.215025 164.632442 15.275025 C 162.639938 15.330025 163.264939 15.160025 162.757439 14.252523 C 162.244938 13.342522 162.127438 12.55002 162.127438 12.55002 C 162.127438 12.55002 161.277436 12.38002 160.139934 12.43752 C 159.002432 12.49252 158.662432 12.09752 157.982431 11.530019 C 157.29743 10.962518 157.46993 10.905018 156.727429 9.487515 C 155.989928 8.067513 156.502428 8.750014 155.534927 8.637514 C 154.572425 8.522514 154.227425 8.692514 152.069921 8.692514 C 149.909918 8.692514 151.10242 8.297513 150.419919 7.500012 C 149.737417 6.705011 149.852418 6.42501 149.852418 6.42501 C 149.852418 6.42501 148.772416 6.765011 147.919914 6.935011 C 147.069913 7.105012 146.384912 7.615012 144.90741 7.387512 C 143.427407 7.162512 144.057408 6.36501 144.057408 6.36501 L 143.599907 4.947508 C 143.599907 4.947508 141.782405 5.627509 140.814903 5.96751 C 139.847401 6.31001 138.8849 6.480011 138.312399 6.31001 C 137.747398 6.14001 137.574898 5.230008 136.949897 3.247505 C 136.324896 1.260002 135.644895 1.772503 134.677393 2.000003 C 133.709891 2.225004 133.369891 2.450004 132.459889 2.907505 C 131.549888 3.360005 128.369883 4.492507 127.857382 4.437507 C 127.344881 4.380007 126.54738 4.380007 126.66238 2.907505 C 126.71488 2.230004 127.264881 0.610001 126.77738 0.2375 C 126.66988 0.155 126.52238 0.1225 126.34988 0.1225 Z M 126.34988 0.1225 " transform="matrix(-1.562497,0,0,1.562497,448.351054,0)"/>
<path style="fill-rule:nonzero;fill:rgb(25.882354%,20.784314%,18.82353%);fill-opacity:1;stroke-width:0.24;stroke-linecap:butt;stroke-linejoin:miter;stroke:rgb(0%,0%,0%);stroke-opacity:1;stroke-miterlimit:4;" d="M 149.084916 33.542554 C 149.257417 32.180052 150.534919 30.392549 151.47242 29.030047 C 152.409922 27.672545 155.564927 25.460041 157.60993 23.925039 C 159.657434 22.392536 159.997434 21.800035 162.299938 19.500032 C 164.599942 17.202528 164.919942 18.26253 165.477443 16.862527 C 164.369941 17.372528 162.127438 18.990031 160.934936 19.755032 C 159.739934 20.522533 158.974932 21.030034 157.43993 22.225036 C 155.907427 23.415038 154.284925 24.097539 153.007423 25.460041 C 151.727421 26.817543 150.789919 27.075044 150.022418 27.585045 C 149.257417 28.097546 146.272412 30.73505 144.99491 31.755051 C 143.712408 32.777553 143.202407 32.862553 142.519906 32.010052 C 141.837405 31.160051 143.114907 30.225049 144.057408 28.862547 C 144.99491 27.500045 146.272412 26.392543 147.889914 24.69004 C 149.512417 22.990037 149.424917 23.242538 151.47242 21.287535 C 153.519924 19.330031 153.687424 19.840032 156.414928 17.287528 C 157.19993 16.397527 158.812432 15.222525 158.687432 14.880024 C 157.56493 15.415025 156.332428 16.352527 153.859924 17.800029 C 151.38742 19.247531 150.022418 20.265033 149.084916 20.692534 C 148.147415 21.117534 142.519906 24.77754 139.364901 28.180046 C 136.212396 31.585051 135.957395 28.777547 136.809896 26.817543 C 137.659898 24.86254 138.512399 24.94754 139.622401 23.330038 C 140.732403 21.712535 144.564909 18.56503 148.232415 15.500025 C 151.897421 12.43752 151.897421 12.35252 150.022418 13.287522 C 148.147415 14.225023 147.382414 14.650024 145.844911 15.672525 C 144.309909 16.692527 142.349905 17.712529 140.387402 19.585032 C 138.427399 21.460035 142.519906 17.800029 134.082392 24.77754 C 125.639878 31.755051 132.119889 25.287541 132.374889 23.840039 C 132.63239 22.392536 133.397391 21.030034 134.677393 19.330031 C 135.957395 17.627529 138.257399 16.522527 143.627408 12.18002 C 148.999916 7.840013 145.589911 9.800016 144.057408 10.392517 C 142.519906 10.990018 141.837405 11.927519 140.047402 12.947521 C 138.257399 13.967523 136.382396 15.672525 134.847393 16.777527 C 133.312391 17.885029 132.71489 19.160031 127.684882 22.477536 C 122.657374 25.797542 122.824874 24.180039 123.509875 22.565037 C 124.189876 20.947534 125.297378 20.265033 127.259881 17.800029 C 129.219884 15.330025 131.352388 14.052523 135.102394 11.160018 C 138.8524 8.267513 138.427399 7.075011 135.614895 9.627516 C 132.79989 12.18002 133.569891 10.905018 131.777388 12.18002 C 129.987385 13.460022 129.902385 13.885023 121.547372 19.415031 C 113.189858 24.94754 116.514864 20.692534 116.859864 18.39253 C 117.039864 17.152528 119.009868 15.005024 121.547372 12.930021 C 123.527375 11.312518 125.899879 9.047515 128.027382 7.797513 C 128.214883 7.685012 129.362384 7.127512 129.547385 7.022511 C 130.694887 6.12501 131.662388 5.652509 132.057389 4.485007 C 129.584885 6.18501 128.197383 6.735011 126.57738 7.927513 C 124.957377 9.117515 123.422375 9.967516 122.569873 10.225017 C 121.719872 10.480017 120.60987 11.672519 113.022358 17.885029 C 105.434846 24.097539 109.864853 17.970029 110.209853 15.925026 C 110.549854 13.885023 116.347363 9.202515 120.26987 5.202508 C 124.189876 1.202502 119.839869 4.437507 118.052366 5.715009 C 116.262363 6.990011 115.577362 7.162512 113.447359 8.947515 C 111.314855 10.735017 107.564849 13.800022 106.287347 14.650024 C 105.007345 15.500025 102.10984 18.31003 100.234837 20.862534 C 98.357334 23.415038 97.589833 22.225036 97.507333 22.225036 C 97.419833 22.225036 97.589833 20.437533 97.847333 19.500032 C 98.102334 18.56503 100.914838 14.310023 102.27734 12.947521 C 103.644843 11.587519 106.199847 7.500012 105.774846 8.097513 C 105.347345 8.692514 103.727343 10.052516 102.619841 11.247518 C 101.512339 12.43752 95.374829 17.967529 94.349828 18.990031 C 93.327326 20.012532 92.302324 21.967536 91.024822 22.565037 C 89.74732 23.160038 89.91482 22.052536 89.66232 21.460035 C 89.40732 20.862534 91.707323 15.415025 92.474825 14.052523 C 93.239826 12.692521 95.374829 9.542515 94.607328 10.310017 C 93.837327 11.075018 93.072326 12.18002 92.302324 12.862521 C 91.537323 13.542522 91.282323 13.460022 89.48982 16.777527 C 87.699817 20.097533 85.824814 22.137536 84.887312 22.225036 C 83.949811 22.310036 83.26481 21.885035 83.35231 21.542535 C 83.43731 21.202534 84.034811 19.672532 84.459812 18.817531 C 84.887312 17.967529 86.677315 15.415025 86.507315 15.075024 C 86.337315 14.735024 83.949811 17.800029 82.757309 19.585032 C 81.562307 21.372535 74.427295 24.46504 76.814799 24.067539 C 79.202303 23.672538 83.52231 22.762537 88.412318 23.785039 C 93.297326 24.80504 102.27734 24.91754 104.099843 24.97504 C 105.914846 25.030041 115.464862 28.550046 121.887372 29.342548 C 128.312383 30.137549 142.634906 36.71756 150.534919 37.17256 C 150.934919 37.19756 148.914916 34.902557 149.084916 33.542554 Z M 149.084916 33.542554 " transform="matrix(-1.562497,0,0,1.562497,448.351054,0)"/>
<path style="fill-rule:nonzero;fill:rgb(29.803923%,24.705882%,21.960784%);fill-opacity:1;stroke-width:0.24;stroke-linecap:round;stroke-linejoin:round;stroke:rgb(0%,0%,0%);stroke-opacity:1;stroke-miterlimit:4;" d="M 94.207327 113.712684 C 93.947327 113.712684 93.339826 113.737684 92.162324 113.765184 C 90.412321 113.805185 87.444816 113.855185 84.299811 113.887685 C 87.444816 118.077691 85.227313 115.185187 86.877316 121.822698 C 86.877316 121.822698 89.094819 129.53771 89.54732 131.580213 C 90.002321 133.622717 93.527326 141.62273 94.209827 142.642731 C 94.889829 143.665233 97.277332 146.047737 97.959833 147.352739 C 98.644835 148.655241 99.722336 150.302744 100.859838 152.060247 C 101.99484 153.822749 101.99484 154.612751 103.869843 156.542754 C 105.747346 158.472757 106.657348 159.835259 107.169848 159.835259 C 107.677349 159.835259 107.394849 160.23026 108.30235 158.700257 C 109.212352 157.165255 110.349854 154.50025 111.147355 154.04775 C 111.944856 153.592749 113.077358 150.812745 113.077358 150.812745 L 113.819859 148.655241 C 113.819859 148.655241 114.724861 147.75024 115.182361 145.650236 C 115.634862 143.550233 115.807362 141.452729 116.487364 140.260227 C 117.169865 139.067725 117.909866 135.77772 117.909866 135.77772 C 117.909866 135.77772 118.594867 132.260214 117.964866 130.842712 C 117.339865 129.42521 115.464862 126.530205 115.409862 126.530205 C 115.352362 126.530205 113.477359 124.375202 110.009853 122.615199 C 106.539847 120.855196 103.757343 118.190192 102.394841 117.962691 C 101.027338 117.737691 98.357334 116.487689 98.357334 116.430189 C 98.357334 116.375189 96.652331 115.692688 94.889829 115.580187 C 94.094827 115.580187 93.127326 114.615186 93.127326 114.615186 C 92.609825 113.877685 94.977329 113.705184 94.207327 113.712684 Z M 94.207327 113.712684 " transform="matrix(-1.562497,0,0,1.562497,448.351054,0)"/>
<path style="fill-rule:nonzero;fill:rgb(29.803923%,24.705882%,21.960784%);fill-opacity:1;stroke-width:0.24;stroke-linecap:round;stroke-linejoin:round;stroke:rgb(0%,0%,0%);stroke-opacity:1;stroke-miterlimit:4;" d="M 198.959997 102.760167 C 195.037491 104.177669 189.412482 103.267667 185.832476 104.517669 C 182.24997 105.765171 175.259959 107.355174 172.587454 108.547676 C 169.91495 109.737678 162.184938 110.98518 160.537435 111.552681 C 158.889932 112.122682 145.41991 114.955186 143.657408 115.410187 C 141.894905 115.865188 142.234905 116.715189 142.234905 116.715189 C 142.234905 116.715189 144.509909 120.005195 148.147415 122.050198 C 151.784921 124.090201 160.424935 129.31271 165.084942 130.330211 C 169.74745 131.352713 180.772468 133.055216 183.612472 135.097719 C 186.457477 137.140222 188.04748 137.252723 191.114985 138.047724 C 194.184989 138.842725 196.687494 139.185226 198.734997 138.162724 C 200.7775 137.140222 206.122509 134.755218 208.052512 132.715215 C 209.987515 130.672712 210.670016 131.240213 212.487519 127.267706 C 214.307522 123.2977 215.670024 122.615199 215.215024 118.302692 C 214.762523 113.992685 214.647523 110.700179 214.190022 109.227677 C 213.737521 107.750175 210.782516 104.005169 209.872515 103.780168 C 208.962513 103.552668 201.402501 103.665168 201.402501 103.665168 C 199.414998 104.005169 199.584998 103.440168 198.959997 102.760167 Z M 198.959997 102.760167 " transform="matrix(-1.562497,0,0,1.562497,448.351054,0)"/>
<path style="fill-rule:nonzero;fill:rgb(41.960785%,34.901962%,29.803923%);fill-opacity:1;stroke-width:0.24;stroke-linecap:round;stroke-linejoin:round;stroke:rgb(0%,0%,0%);stroke-opacity:1;stroke-miterlimit:4;" d="M 127.897382 46.292575 C 127.047381 46.297575 126.174879 46.377575 125.299878 46.562575 C 121.289871 47.415077 109.184852 52.010084 106.199847 54.137588 C 103.214842 56.265091 100.147337 60.435098 98.869835 62.562601 C 97.589833 64.690105 93.584826 69.200112 91.794823 71.242616 C 90.002321 73.285119 85.909814 78.222627 84.714812 79.752629 C 83.52231 81.285132 83.60981 83.497635 83.60981 84.517637 C 83.60981 85.540139 83.52231 86.47514 84.547312 89.285145 C 85.569813 92.092649 86.337315 94.815154 87.614817 94.987654 C 88.894819 95.155154 91.197323 95.325155 94.607328 94.987654 C 98.014834 94.647653 106.372347 93.792652 108.33235 93.540152 C 110.294853 93.285151 112.594857 93.792652 114.38486 92.60265 C 116.174863 91.412648 120.26987 89.285145 122.739874 86.815141 C 125.212378 84.347637 130.499886 79.752629 131.777388 77.367625 C 133.05739 74.987622 136.809896 68.09261 137.319897 65.625106 C 137.832398 63.160102 138.7699 57.287593 138.7699 56.435091 C 138.7699 55.58509 137.489898 48.775079 135.359894 47.925078 C 133.694891 47.260077 130.934887 46.285075 127.897382 46.292575 Z M 127.897382 46.292575 " transform="matrix(-1.562497,0,0,1.562497,448.351054,0)"/>
<path style="fill-rule:nonzero;fill:rgb(29.803923%,24.705882%,21.960784%);fill-opacity:1;stroke-width:0.24;stroke-linecap:round;stroke-linejoin:round;stroke:rgb(0%,0%,0%);stroke-opacity:1;stroke-miterlimit:4;" d="M 285.765138 45.947574 C 285.125137 45.945074 283.925135 46.155075 281.432631 46.762576 C 276.997624 47.840078 269.610112 50.617582 265.575105 52.265085 C 261.537599 53.912587 258.352594 54.702589 254.432587 56.350091 C 251.137582 57.427593 247.272576 59.127596 243.74757 60.210098 C 241.190066 61.5676 231.187549 64.635105 234.312555 64.010104 C 237.44006 63.385103 237.61006 64.802605 237.95006 65.937607 C 238.290061 67.072609 239.657563 69.680113 239.257563 71.327616 C 238.860062 72.975118 238.347561 74.960122 238.235061 76.377624 C 238.122561 77.797626 237.49756 78.530127 237.66506 80.40513 C 237.83756 82.277633 238.915062 86.47514 238.062561 87.780142 C 237.210059 89.085144 236.132557 91.072648 235.335056 91.697649 C 234.540055 92.31765 231.64005 94.135153 230.560048 94.530153 C 229.482547 94.930154 228.857546 95.497655 228.287545 95.497655 C 227.720044 95.497655 234.882555 96.915157 236.247558 97.540158 C 237.61006 98.162659 247.160075 102.190166 249.82758 102.927667 C 252.500084 103.665168 264.777604 108.147675 266.085106 108.262676 C 267.390108 108.375176 278.590126 111.665181 279.557628 111.610181 C 280.522629 111.552681 283.760135 111.552681 283.760135 111.552681 L 283.647635 100.827663 C 283.647635 100.827663 282.057632 92.49015 281.14763 90.787647 C 280.237629 89.085144 278.302626 83.355135 277.622625 82.787634 C 276.940124 82.222633 276.147622 80.29263 276.147622 80.29263 C 276.147622 80.29263 276.657623 79.100128 277.340124 78.080127 C 278.702627 76.317624 279.440128 73.030118 280.182629 71.155115 C 281.945132 67.86761 283.477634 62.987602 283.875135 61.172599 C 283.875135 61.172599 286.432639 51.752584 286.432639 51.697584 C 286.432639 51.640084 287.00014 46.647576 286.602639 46.252575 C 286.427639 46.077575 286.265139 45.947574 285.765138 45.947574 Z M 285.765138 45.947574 " transform="matrix(-1.562497,0,0,1.562497,448.351054,0)"/>
<path style=" stroke:none;fill-rule:nonzero;fill:rgb(100%,100%,100%);fill-opacity:1;" d="M 406.964844 105.070312 C 406.433594 105.734375 405.769531 105.996094 404.035156 105.464844 C 402.300781 104.9375 401.769531 104.003906 398.574219 103.871094 C 395.378906 103.734375 393.914062 103.734375 392.449219 104.003906 C 390.984375 104.265625 390.050781 103.339844 389.78125 104.003906 C 389.511719 104.667969 387.382812 105.199219 390.582031 105.863281 C 393.777344 106.527344 394.3125 108.125 396.710938 108.125 C 399.109375 108.125 399.238281 109.1875 401.636719 108.921875 C 404.035156 108.65625 406.433594 109.984375 406.570312 110.65625 C 406.699219 111.320312 409.410156 110.210938 409.410156 109.144531 C 409.410156 108.082031 407.496094 104.40625 406.964844 105.070312 Z M 406.964844 105.070312 "/>
<path style=" stroke:none;fill-rule:nonzero;fill:rgb(41.960785%,34.901962%,29.803923%);fill-opacity:1;" d="M 248.511719 72.335938 C 249.839844 72.339844 251.203125 72.464844 252.570312 72.753906 C 258.835938 74.085938 277.75 81.265625 282.414062 84.589844 C 287.078125 87.914062 291.871094 94.429688 293.867188 97.753906 C 295.867188 101.078125 302.125 108.125 304.921875 111.320312 C 307.722656 114.507812 314.117188 122.222656 315.984375 124.613281 C 317.847656 127.007812 317.710938 130.464844 317.710938 132.0625 C 317.710938 133.65625 317.847656 135.117188 316.246094 139.507812 C 314.648438 143.898438 313.449219 148.148438 311.453125 148.417969 C 309.453125 148.679688 305.855469 148.945312 300.527344 148.417969 C 295.203125 147.886719 282.144531 146.554688 279.082031 146.15625 C 276.015625 145.757812 272.421875 146.554688 269.625 144.691406 C 266.828125 142.832031 260.429688 139.507812 256.570312 135.648438 C 252.707031 131.792969 244.445312 124.613281 242.449219 120.890625 C 240.449219 117.167969 234.585938 106.398438 233.789062 102.539062 C 232.988281 98.6875 231.523438 89.511719 231.523438 88.179688 C 231.523438 86.851562 233.523438 76.210938 236.851562 74.882812 C 239.453125 73.84375 243.765625 72.320312 248.511719 72.335938 Z M 248.511719 72.335938 "/>
<path style="fill:none;stroke-width:1.44;stroke-linecap:round;stroke-linejoin:miter;stroke:rgb(52.941179%,36.078432%,92.156863%);stroke-opacity:1;stroke-miterlimit:4;" d="M 86.839815 78.125127 C 86.897316 78.190127 86.952316 78.255127 86.997316 78.315127 C 89.149819 81.075131 92.874825 88.430143 95.69983 94.287653 " transform="matrix(-1.562497,0,0,1.562497,448.351054,0)"/>
<path style="fill:none;stroke-width:0.24;stroke-linecap:round;stroke-linejoin:round;stroke:rgb(0%,0%,0%);stroke-opacity:1;stroke-miterlimit:4;" d="M 127.897382 46.292575 C 127.047381 46.297575 126.174879 46.377575 125.299878 46.562575 C 121.289871 47.415077 109.184852 52.010084 106.199847 54.137588 C 103.214842 56.265091 100.147337 60.435098 98.869835 62.562601 C 97.589833 64.690105 93.584826 69.200112 91.794823 71.242616 C 90.002321 73.285119 85.909814 78.222627 84.714812 79.752629 C 83.52231 81.285132 83.60981 83.497635 83.60981 84.517637 C 83.60981 85.540139 83.52231 86.47514 84.547312 89.285145 C 85.569813 92.092649 86.337315 94.815154 87.614817 94.987654 C 88.894819 95.155154 91.197323 95.325155 94.607328 94.987654 C 98.014834 94.647653 106.372347 93.792652 108.33235 93.540152 C 110.294853 93.285151 112.594857 93.792652 114.38486 92.60265 C 116.174863 91.412648 120.26987 89.285145 122.739874 86.815141 C 125.212378 84.347637 130.499886 79.752629 131.777388 77.367625 C 133.05739 74.987622 136.809896 68.09261 137.319897 65.625106 C 137.832398 63.160102 138.7699 57.287593 138.7699 56.435091 C 138.7699 55.58509 137.489898 48.775079 135.359894 47.925078 C 133.694891 47.260077 130.934887 46.285075 127.897382 46.292575 Z M 127.897382 46.292575 " transform="matrix(-1.562497,0,0,1.562497,448.351054,0)"/>
<path style=" stroke:none;fill-rule:nonzero;fill:rgb(43.137255%,20.784314%,90.196079%);fill-opacity:1;" d="M 304.148438 93.398438 C 303.878906 94.53125 302.539062 96.332031 303.378906 97.664062 C 304.214844 99.003906 305.5625 98.90625 307.027344 99.539062 C 308.652344 100.238281 309.644531 98.554688 311.457031 96.566406 C 312.304688 95.640625 313.492188 96.015625 313.691406 94.945312 C 314.328125 91.59375 313.238281 91.269531 312.414062 89.304688 C 311.582031 87.34375 309.699219 89.828125 308.515625 89.304688 C 307.335938 88.78125 305.171875 89.476562 304.664062 90.019531 C 304.15625 90.5625 304.414062 92.269531 304.148438 93.398438 Z M 304.148438 93.398438 "/>
</g>
</svg>
