<?xml version="1.0" encoding="UTF-8"?>
<svg xmlns="http://www.w3.org/2000/svg" xmlns:xlink="http://www.w3.org/1999/xlink" width="449pt" height="250pt" viewBox="0 0 449 250" version="1.1">
<g id="surface11">
<path style=" stroke:none;fill-rule:nonzero;fill:rgb(95.294118%,93.333334%,84.313726%);fill-opacity:1;" d="M 333.035156 83.792969 C 333.035156 83.792969 329.96875 84.1875 328.238281 84.722656 C 326.507812 85.253906 322.507812 87.648438 320.378906 90.4375 C 318.246094 93.234375 314.25 95.492188 312.253906 96.425781 C 310.25 97.351562 310.25 101.078125 310.386719 103.339844 C 310.519531 105.601562 313.316406 111.984375 314.515625 113.578125 C 315.714844 115.171875 320.640625 128.601562 323.308594 132.191406 C 325.972656 135.78125 335.695312 154 338.09375 157.191406 C 340.492188 160.386719 347.417969 159.320312 351.949219 164.371094 C 356.476562 169.421875 362.074219 166.765625 369 167.964844 C 374.488281 168.910156 380.054688 167.300781 380.054688 167.300781 M 442.960938 125.332031 C 445.082031 122.757812 445.242188 119.527344 439.601562 114.820312 C 431.257812 107.105469 414.914062 92.832031 408.167969 87.339844 C 401.417969 81.839844 383.296875 69.253906 376.011719 65.351562 C 368.199219 59.328125 367.136719 57.730469 358.960938 53.03125 C 349.371094 46.207031 332.054688 38.226562 328.328125 37.609375 C 324.597656 36.988281 317.847656 35.566406 310.207031 37.164062 C 302.570312 38.757812 288.539062 38.9375 285.695312 39.023438 C 282.859375 39.109375 267.9375 44.609375 257.902344 45.851562 C 247.863281 47.089844 225.484375 57.375 213.140625 58.082031 C 200.796875 58.792969 182.414062 71.382812 174.867188 73.863281 C 167.316406 76.34375 147.6875 91.058594 143.519531 93.363281 C 139.34375 95.667969 125.132812 101.253906 119.714844 102.144531 C 114.300781 103.027344 108.96875 104.003906 105.238281 104.003906 C 101.511719 104.003906 98.3125 104.710938 91.917969 102.496094 C 85.523438 100.277344 87.121094 100.992188 82.238281 100.015625 C 77.351562 99.039062 77.085938 101.253906 76.554688 103.027344 C 76.019531 104.800781 73.890625 108.875 74.515625 111.449219 C 75.132812 114.023438 75.929688 117.125 76.109375 119.339844 C 76.285156 121.558594 77.261719 122.703125 77 125.632812 C 76.730469 128.558594 75.046875 135.117188 76.378906 137.15625 C 77.707031 139.195312 79.398438 142.300781 80.640625 143.277344 C 81.882812 144.25 86.410156 147.085938 88.097656 147.703125 C 89.789062 148.328125 90.765625 149.214844 91.652344 149.214844 C 92.535156 149.214844 96.359375 148.769531 99.464844 148.949219 C 102.574219 149.125 112.078125 150.542969 116.339844 152.226562 C 120.601562 153.910156 122.824219 154.800781 127 156.128906 C 131.167969 157.457031 131.351562 158.34375 137.476562 160.5625 C 143.605469 162.777344 152.394531 161.359375 157.992188 163.3125 C 163.585938 165.257812 174.507812 167.742188 178.683594 169.605469 C 182.859375 171.464844 194.9375 173.414062 197.511719 174.300781 C 200.085938 175.191406 221.136719 179.617188 223.882812 180.328125 C 226.644531 181.039062 225.484375 180.59375 234.011719 181.039062 C 242.535156 181.480469 244.132812 181.128906 247.15625 181.835938 C 250.171875 182.542969 255.503906 181.921875 258.078125 181.835938 C 260.652344 181.75 283.480469 180.859375 290.140625 179.445312 C 296.800781 178.023438 296.980469 177.582031 304.347656 177.757812 C 311.722656 177.933594 332.945312 178.203125 336.140625 177.757812 C 339.339844 177.3125 356.214844 175.453125 364.292969 173.59375 C 372.375 171.734375 370.246094 171.203125 371.128906 170.84375 C 372.019531 170.488281 376.011719 168.183594 380.8125 167.03125 C 385.609375 165.878906 397.6875 162.867188 408.167969 156.484375 C 418.644531 150.097656 425.660156 146.734375 430.101562 143.984375 C 434.542969 141.234375 448.929688 130.59375 448.128906 128.382812 C 447.332031 126.164062 445.308594 123.664062 444.066406 123.75 M 422.464844 106.21875 C 423.351562 106.839844 423.703125 107.636719 423.703125 107.636719 M 428.414062 110.738281 C 427.789062 111.984375 427.527344 112.601562 427.527344 112.515625 "/>
<path style=" stroke:none;fill-rule:nonzero;fill:rgb(100%,98.039216%,92.156863%);fill-opacity:1;" d="M 408.167969 156.484375 C 405.148438 157.898438 403.546875 154 401.949219 151.695312 C 400.347656 149.390625 397.15625 142.476562 400.347656 140.527344 C 403.546875 138.574219 410.121094 136.09375 413.492188 135.203125 C 416.824219 134.332031 415.71875 134.707031 423.039062 131.71875 C 422.972656 131.65625 422.898438 131.59375 422.820312 131.527344 C 422.699219 131.539062 422.582031 131.542969 422.464844 131.546875 C 395.964844 133.179688 402.015625 124.511719 391.378906 119.960938 C 371.984375 111.65625 368.179688 79.707031 327.839844 78.472656 C 297.945312 77.558594 245.910156 135.117188 158.777344 127.207031 C 98.042969 118.363281 83.40625 100.25 82.238281 100.015625 C 77.351562 99.039062 77.085938 101.253906 76.554688 103.027344 C 76.019531 104.800781 73.890625 108.875 74.515625 111.449219 C 75.132812 114.023438 75.929688 117.125 76.109375 119.339844 C 76.285156 121.558594 77.261719 122.703125 77 125.632812 C 76.730469 128.558594 75.046875 135.117188 76.378906 137.15625 C 77.707031 139.195312 79.398438 142.300781 80.640625 143.277344 C 81.882812 144.246094 86.410156 147.085938 88.097656 147.703125 C 89.789062 148.328125 90.765625 149.214844 91.652344 149.214844 C 92.535156 149.214844 96.359375 148.769531 99.464844 148.949219 C 102.574219 149.125 112.078125 150.542969 116.339844 152.226562 C 120.601562 153.910156 122.824219 154.800781 127 156.128906 C 131.167969 157.457031 131.351562 158.34375 137.476562 160.5625 C 143.605469 162.777344 152.394531 161.355469 157.992188 163.308594 C 163.585938 165.257812 174.507812 167.742188 178.683594 169.605469 C 182.859375 171.464844 194.9375 173.414062 197.511719 174.300781 C 200.085938 175.191406 221.136719 179.617188 223.882812 180.328125 C 226.644531 181.039062 225.484375 180.59375 234.011719 181.039062 C 242.535156 181.480469 244.132812 181.128906 247.15625 181.835938 C 250.171875 182.542969 255.503906 181.921875 258.078125 181.835938 C 260.652344 181.746094 283.480469 180.859375 290.140625 179.441406 C 296.800781 178.023438 296.980469 177.582031 304.347656 177.757812 C 311.722656 177.933594 332.945312 178.203125 336.140625 177.757812 C 339.339844 177.3125 356.214844 175.453125 364.292969 173.59375 C 372.375 171.734375 370.246094 171.199219 371.128906 170.84375 C 372.019531 170.488281 376.011719 168.183594 380.8125 167.03125 C 385.609375 165.878906 397.6875 162.867188 408.167969 156.484375 M 380.054688 167.300781 "/>
<path style=" stroke:none;fill-rule:nonzero;fill:rgb(14.901961%,9.019608%,3.921569%);fill-opacity:1;" d="M 421.128906 107.992188 C 423.171875 110.566406 424.683594 111.539062 426.105469 113.3125 C 427.964844 114.996094 430.28125 115.972656 429.480469 118.101562 C 428.679688 120.226562 427.804688 120.179688 425.046875 122.636719 C 424.496094 123.125 422.082031 127.972656 420.382812 128.011719 C 419.191406 128.035156 418.910156 126.679688 418.441406 125.882812 C 417.742188 124.695312 416.335938 121.203125 415.628906 121.023438 L 414.109375 120.234375 L 403.859375 127.414062 C 397.777344 131.527344 394.402344 136.292969 390.582031 140.527344 C 388.804688 142.652344 382.589844 149.566406 379.925781 151.519531 C 377.257812 153.46875 376.375 150.984375 374.949219 149.566406 C 373.527344 148.148438 373.882812 146.019531 374.066406 142.300781 C 378.257812 132.476562 377.492188 127.53125 376.996094 124.40625 C 373.285156 117.832031 374.632812 108.695312 375.09375 103.640625 C 375.558594 98.585938 381.125 90.996094 385.765625 89.476562 C 388.375 88.625 386.960938 81.742188 390.539062 81.710938 C 393.328125 81.683594 399.554688 89.042969 402.394531 89.707031 C 408.890625 91.21875 410.675781 95.554688 412.671875 97.574219 C 414.484375 99.8125 415.910156 103.511719 417.40625 105.453125 C 417.894531 106.089844 418.15625 106.679688 418.171875 107.257812 C 418.214844 108.796875 420.296875 107.230469 421.128906 107.992188 Z M 421.128906 107.992188 "/>
<path style="fill-rule:nonzero;fill:rgb(100%,93.333334%,65.882355%);fill-opacity:1;stroke-width:0.24;stroke-linecap:butt;stroke-linejoin:miter;stroke:rgb(0%,0%,0%);stroke-opacity:1;stroke-miterlimit:4;" d="M 6.70521 82.815134 C 5.767708 82.285133 3.487705 80.710131 2.742704 79.200128 C 1.947702 79.142628 0.6527 80.742631 0.142699 82.165133 C -0.369801 83.580136 8.837713 90.390147 11.680218 92.150149 C 14.522723 93.910152 19.01273 96.062656 25.717741 100.150162 C 27.650244 101.055164 28.675246 98.56016 29.697747 97.085157 C 30.722749 95.610155 32.765252 91.185148 30.722749 89.937646 C 28.675246 88.687644 24.467739 87.100141 22.310235 86.53014 C 20.150232 85.965139 16.285226 84.602637 13.10272 82.105133 C 10.147716 79.155128 5.260208 74.16512 3.630205 75.465122 C 2.110203 77.450126 2.412703 78.952628 3.450205 80.21263 C 4.442706 81.417632 6.105209 82.397634 7.475211 83.355135 C 8.072712 83.922636 8.455213 84.135136 9.125214 84.717637 C 9.277714 84.885138 13.16522 87.800142 15.147724 89.937646 C 22.035235 96.877657 19.810231 95.950156 26.060241 98.56016 " transform="matrix(-1.562497,0,0,1.562497,448.351874,0)"/>
<path style="fill-rule:nonzero;fill:rgb(78.039217%,70.980394%,70.980394%);fill-opacity:1;stroke-width:0.24;stroke-linecap:butt;stroke-linejoin:miter;stroke:rgb(0%,0%,0%);stroke-opacity:1;stroke-miterlimit:4;" d="M 22.905236 70.647615 C 23.927738 72.942618 25.717741 76.775124 28.787746 77.540126 C 31.860251 78.305127 32.112751 79.580129 36.717759 78.050127 C 41.322766 76.517624 41.065266 76.517624 43.112769 73.200119 C 45.160272 69.880113 44.902772 68.09261 44.647772 65.540106 C 44.390271 62.987602 41.322766 59.160096 38.762762 58.392595 C 36.205258 57.625093 32.367752 57.372593 28.787746 58.137594 C 25.21024 58.902595 24.697739 61.200099 23.927738 62.477601 C 23.162737 63.752603 21.885235 68.350111 22.905236 70.647615 Z M 22.905236 70.647615 " transform="matrix(-1.562497,0,0,1.562497,448.351874,0)"/>
<path style="fill-rule:nonzero;fill:rgb(9.019608%,4.705882%,1.960784%);fill-opacity:1;stroke-width:0.24;stroke-linecap:butt;stroke-linejoin:miter;stroke:rgb(0%,0%,0%);stroke-opacity:1;stroke-miterlimit:4;" d="M 32.880252 61.4551 C 30.067748 61.7126 28.787746 61.4551 27.510244 63.242603 C 26.230242 65.030105 25.49274 71.552616 27.167743 73.79762 C 28.362745 74.562621 29.472747 75.242622 31.09025 75.242622 C 32.710252 75.242622 35.185256 75.072622 36.290258 74.562621 C 37.40026 74.05012 38.935262 74.22262 39.872764 72.942618 C 40.810265 71.667616 41.237766 70.987615 41.150266 69.030112 C 41.065266 67.072609 41.065266 65.712607 40.212764 64.517605 C 39.360263 63.327603 38.762762 61.7126 37.142759 61.285099 C 35.525257 60.860099 35.692757 61.200099 32.880252 61.4551 Z M 32.880252 61.4551 " transform="matrix(-1.562497,0,0,1.562497,448.351874,0)"/>
<path style="fill-rule:nonzero;fill:rgb(88.235295%,85.09804%,76.078433%);fill-opacity:1;stroke-width:0.24;stroke-linecap:butt;stroke-linejoin:miter;stroke:rgb(0%,0%,0%);stroke-opacity:1;stroke-miterlimit:4;" d="M 126.350404 0.1225 C 125.605403 0.115 124.412901 0.752501 123.9354 0.977502 C 122.855398 1.487502 121.262896 2.280004 120.127894 2.850005 C 118.990392 3.415006 118.080391 3.755006 116.375388 4.947508 C 114.672885 6.14001 111.942881 8.577514 110.750379 8.977515 C 109.555377 9.375015 109.952877 9.375015 109.667877 8.692514 C 109.385376 8.012513 109.385376 7.555012 109.667877 5.117508 C 109.952877 2.677504 108.875376 4.437507 107.052873 5.460009 C 105.23537 6.480011 105.065369 7.047511 103.360367 8.637514 C 101.652864 10.225017 100.742862 10.450017 99.552861 10.790017 C 98.360359 11.130018 97.902858 10.450017 97.562857 8.862514 C 97.467857 8.425014 98.077858 6.685011 97.450357 6.935011 C 95.790354 7.590012 91.812848 11.787519 90.740346 13.062521 C 89.265344 14.817524 87.275341 15.330025 87.16034 15.047524 C 87.04784 14.762524 86.70534 14.592524 86.477839 14.592524 C 86.250339 14.592524 84.090335 16.410027 83.297834 17.035028 C 82.500333 17.655029 74.43032 24.46504 76.815324 24.067539 C 79.202828 23.672538 83.522835 22.762537 88.412842 23.785039 C 93.30035 24.80504 102.280365 24.91754 104.100368 24.97504 C 105.915371 25.030041 115.465386 28.550046 121.887897 29.342548 C 128.312907 30.137549 142.63543 36.71756 150.535443 37.17256 C 158.435456 37.627561 170.200475 45.685074 175.030483 47.272577 C 179.862991 48.860079 192.425511 58.277594 195.093015 59.752597 C 196.953018 60.780099 201.918026 62.822602 205.938033 64.160104 C 207.698036 64.747605 206.065533 63.215102 206.860535 62.817602 C 207.655536 62.422601 210.840541 62.817602 212.375543 62.875102 C 213.910546 62.930102 218.285553 62.305101 219.878056 61.6251 C 221.468058 60.947599 220.785557 56.517592 220.840557 55.21509 C 220.873057 54.540088 221.560558 51.797584 221.185558 49.14258 C 220.830557 46.665076 219.418055 44.272572 219.305555 43.640071 C 219.193054 42.99757 218.015553 40.422566 216.46555 38.025062 C 214.878048 35.567558 212.918044 33.292554 212.600544 32.690053 C 211.975543 31.500051 206.405534 26.450043 205.385532 25.767542 C 204.36053 25.087541 197.71052 20.550033 196.628018 20.040032 C 195.550516 19.530032 193.843013 18.052529 190.150507 17.147528 C 188.598005 16.762527 187.078002 15.987526 185.4355 15.615025 C 183.165496 15.102524 180.875492 15.062524 179.917991 15.160025 C 178.272988 15.330025 177.872988 15.160025 176.910486 15.047524 C 175.940484 14.935024 176.225485 14.762524 174.975483 14.990024 C 173.725481 15.215025 173.21298 15.615025 172.190478 16.012526 C 171.165477 16.410027 170.712976 16.237526 169.630474 16.297526 C 168.552972 16.352527 168.437972 15.555025 167.985471 15.275025 C 167.530471 14.990024 166.617969 15.215025 164.630466 15.275025 C 162.640463 15.330025 163.265464 15.160025 162.755463 14.252523 C 162.242962 13.342522 162.127962 12.55002 162.127962 12.55002 C 162.127962 12.55002 161.277961 12.38002 160.140459 12.43752 C 159.002957 12.49252 158.662956 12.09752 157.980455 11.530019 C 157.300454 10.962518 157.467954 10.905018 156.727953 9.487515 C 155.990452 8.067513 156.502953 8.750014 155.537951 8.637514 C 154.57295 8.522514 154.227949 8.692514 152.067946 8.692514 C 149.910442 8.692514 151.102944 8.297513 150.422943 7.500012 C 149.737942 6.705011 149.852942 6.42501 149.852942 6.42501 C 149.852942 6.42501 148.77294 6.765011 147.922939 6.935011 C 147.067938 7.105012 146.387936 7.615012 144.905434 7.387512 C 143.427932 7.162512 144.055433 6.36501 144.055433 6.36501 L 143.600432 4.947508 C 143.600432 4.947508 141.780429 5.627509 140.815427 5.96751 C 139.850426 6.31001 138.885424 6.480011 138.315423 6.31001 C 137.747922 6.14001 137.575422 5.230008 136.950421 3.247505 C 136.32542 1.260002 135.642919 1.772503 134.677917 2.000003 C 133.710416 2.225004 133.367915 2.450004 132.460414 2.905005 C 131.552912 3.360005 128.367907 4.492507 127.855406 4.437507 C 127.342906 4.380007 126.550404 4.380007 126.662904 2.905005 C 126.715405 2.230004 127.265405 0.610001 126.777905 0.2375 C 126.667904 0.155 126.522904 0.1225 126.350404 0.1225 Z M 126.350404 0.1225 " transform="matrix(-1.562497,0,0,1.562497,448.351874,0)"/>
<path style="fill-rule:nonzero;fill:rgb(84.313726%,81.176472%,69.01961%);fill-opacity:1;stroke-width:0.24;stroke-linecap:butt;stroke-linejoin:miter;stroke:rgb(0%,0%,0%);stroke-opacity:1;stroke-miterlimit:4;" d="M 149.085441 33.542554 C 149.255441 32.180052 150.535443 30.392549 151.472945 29.030047 C 152.410446 27.672545 155.565451 25.460041 157.612955 23.925039 C 159.655458 22.392536 159.997959 21.800035 162.300462 19.500032 C 164.602966 17.202528 164.917967 18.26253 165.477967 16.862527 C 164.367966 17.372528 162.127962 18.990031 160.93796 19.755032 C 159.742958 20.522533 158.975457 21.030034 157.440454 22.225036 C 155.905452 23.415038 154.287949 24.097539 153.005447 25.460041 C 151.727945 26.817543 150.790444 27.075044 150.022942 27.585045 C 149.255441 28.097546 146.272936 30.73505 144.992934 31.755051 C 143.715432 32.777553 143.202931 32.862553 142.52293 32.010052 C 141.837929 31.160051 143.117931 30.225049 144.055433 28.862547 C 144.992934 27.500045 146.272936 26.392543 147.890439 24.69004 C 149.512942 22.990037 149.425441 23.242538 151.472945 21.287535 C 153.517948 19.330031 153.690448 19.840032 156.417953 17.287528 C 157.200454 16.397527 158.812957 15.222525 158.687956 14.880024 C 157.565455 15.415025 156.330453 16.352527 153.860449 17.800029 C 151.387945 19.247531 150.022942 20.265033 149.085441 20.692534 C 148.147939 21.117534 142.52293 24.77754 139.365425 28.180046 C 136.21292 31.585051 135.95542 28.777547 136.810421 26.817543 C 137.662922 24.86254 138.512924 24.94754 139.622925 23.330038 C 140.730427 21.712535 144.565434 18.56503 148.235439 15.500025 C 151.900445 12.43752 151.900445 12.35252 150.022942 13.287522 C 148.147939 14.225023 147.380438 14.650024 145.847936 15.672525 C 144.312933 16.692527 142.35043 17.712529 140.390427 19.585032 C 138.427924 21.460035 142.52293 17.800029 134.080417 24.77754 C 125.640403 31.755051 132.117913 25.287541 132.375414 23.840039 C 132.630414 22.392536 133.397915 21.030034 134.677917 19.330031 C 135.95542 17.627529 138.260423 16.522527 143.627932 12.18002 C 149.000441 7.840013 145.590435 9.800016 144.055433 10.392517 C 142.52293 10.990018 141.837929 11.927519 140.047926 12.947521 C 138.260423 13.967523 136.38042 15.672525 134.847918 16.777527 C 133.312915 17.885029 132.715414 19.160031 127.687906 22.477536 C 122.655398 25.797542 122.825398 24.180039 123.510399 22.565037 C 124.1904 20.947534 125.300402 20.265033 127.260405 17.800029 C 129.222909 15.330025 131.352912 14.052523 135.102918 11.160018 C 138.852924 8.267513 138.427924 7.075011 135.615419 9.627516 C 132.800414 12.18002 133.567916 10.905018 131.777913 12.18002 C 129.98791 13.460022 129.90291 13.885023 121.547896 19.415031 C 113.192883 24.94754 116.517888 20.692534 116.860389 18.39253 C 117.042889 17.152528 119.010392 15.005024 121.547896 12.930021 C 123.527899 11.312518 125.900403 9.047515 128.027907 7.797513 C 128.215407 7.685012 129.362909 7.127512 129.547909 7.022511 C 130.692911 6.12501 131.662913 5.652509 132.060413 4.485007 C 129.585409 6.18501 128.197907 6.735011 126.577904 7.927513 C 124.960402 9.117515 123.422899 9.967516 122.572898 10.225017 C 121.717896 10.480017 120.610395 11.672519 113.022882 17.885029 C 105.43537 24.097539 109.867877 17.967529 110.210378 15.925026 C 110.550378 13.885023 116.347888 9.202515 120.267894 5.202508 C 124.1904 1.202502 119.842893 4.437507 118.052891 5.715009 C 116.262888 6.990011 115.577887 7.162512 113.447883 8.947515 C 111.31538 10.735017 107.565374 13.800022 106.287871 14.650024 C 105.010369 15.500025 102.110365 18.31003 100.235362 20.862534 C 98.360359 23.415038 97.590357 22.225036 97.505357 22.225036 C 97.417857 22.225036 97.590357 20.437533 97.847858 19.500032 C 98.102858 18.56503 100.915363 14.310023 102.280365 12.947521 C 103.642867 11.587519 106.200371 7.500012 105.775371 8.097513 C 105.35037 8.692514 103.727867 10.052516 102.622866 11.247518 C 101.512864 12.43752 95.375354 17.967529 94.350352 18.990031 C 93.32785 20.012532 92.305349 21.967536 91.025347 22.565037 C 89.747845 23.160038 89.917845 22.052536 89.662844 21.460035 C 89.405344 20.862534 91.710348 15.415025 92.475349 14.052523 C 93.24285 12.692521 95.375354 9.542515 94.605353 10.310017 C 93.840351 11.075018 93.07285 12.18002 92.305349 12.862521 C 91.537848 13.542522 91.280347 13.460022 89.490344 16.777527 C 87.700341 20.097533 85.825338 22.137536 84.887837 22.225036 C 83.950335 22.310036 83.267834 21.885035 83.352834 21.542535 C 83.437834 21.202534 84.035335 19.672532 84.462836 18.817531 C 84.887837 17.967529 86.67784 15.415025 86.505339 15.075024 C 86.337839 14.735024 83.950335 17.800029 82.755333 19.585032 C 81.562831 21.372535 74.43032 24.46504 76.815324 24.067539 C 79.202828 23.672538 83.522835 22.762537 88.412842 23.785039 C 93.30035 24.80504 102.280365 24.91754 104.100368 24.97504 C 105.915371 25.030041 115.465386 28.550046 121.887897 29.342548 C 128.312907 30.137549 142.63543 36.71756 150.535443 37.17256 C 150.935444 37.19756 148.915441 34.902557 149.085441 33.542554 Z M 149.085441 33.542554 " transform="matrix(-1.562497,0,0,1.562497,448.351874,0)"/>
<path style="fill-rule:nonzero;fill:rgb(14.901961%,9.019608%,3.921569%);fill-opacity:1;stroke-width:0.24;stroke-linecap:butt;stroke-linejoin:miter;stroke:rgb(0%,0%,0%);stroke-opacity:1;stroke-miterlimit:4;" d="M 210.32804 65.372606 C 213.793046 65.937607 217.205551 66.562608 219.593055 66.562608 C 221.978059 66.562608 224.025562 67.015109 228.118069 65.597606 C 232.210576 64.177604 231.188074 64.635105 234.313079 64.010104 C 237.440584 63.385103 237.610584 64.802605 237.950585 65.937607 C 238.293085 67.072609 239.655588 69.680113 239.255587 71.327616 C 238.860586 72.975118 238.350586 74.960122 238.235585 76.377624 C 238.123085 77.797626 237.498084 78.530127 237.665584 80.40513 C 237.838085 82.277633 234.200579 87.322642 232.265576 88.910144 C 230.335573 90.500147 226.115566 94.512653 224.298063 91.787649 C 223.725562 90.952647 221.375558 90.925147 220.810557 90.342646 C 218.453053 87.915143 218.115553 86.672641 217.930552 85.117638 C 217.828052 84.240137 216.088049 83.027635 215.850549 80.49263 C 215.568049 77.460126 214.918048 74.24012 214.918048 74.24012 C 214.350547 73.90012 209.305538 68.942612 210.32804 65.372606 Z M 210.32804 65.372606 " transform="matrix(-1.562497,0,0,1.562497,448.351874,0)"/>
<path style="fill-rule:nonzero;fill:rgb(100%,93.333334%,65.882355%);fill-opacity:1;stroke-width:0.24;stroke-linecap:round;stroke-linejoin:round;stroke:rgb(0%,0%,0%);stroke-opacity:1;stroke-miterlimit:4;" d="M 94.205352 113.712684 C 93.950351 113.712684 93.34285 113.737684 92.162849 113.765184 C 90.412846 113.805185 87.442841 113.855185 84.300336 113.887685 C 87.442841 118.077691 85.227837 115.185187 86.87784 121.822698 C 86.87784 121.822698 89.092844 129.53771 89.547844 131.580213 C 90.002845 133.622717 93.527851 141.62273 94.210352 142.642731 C 94.890353 143.665233 97.277857 146.047737 97.960358 147.352739 C 98.642859 148.655241 99.722861 150.302744 100.860363 152.060247 C 101.992864 153.822749 101.992864 154.612751 103.872868 156.542754 C 105.747871 158.472757 106.655372 159.835259 107.167873 159.835259 C 107.680374 159.835259 107.392873 160.23026 108.302875 158.700257 C 109.215376 157.165255 110.350378 154.50025 111.147879 154.04775 C 111.942881 153.592749 113.077882 150.812745 113.077882 150.812745 L 113.817884 148.655241 C 113.817884 148.655241 114.727885 147.75024 115.180386 145.650236 C 115.635387 143.550233 115.805387 141.452729 116.487888 140.260227 C 117.172889 139.067725 117.91039 135.77772 117.91039 135.77772 C 117.91039 135.77772 118.592891 132.260214 117.96539 130.842712 C 117.340389 129.42521 115.465386 126.530205 115.410386 126.530205 C 115.352886 126.530205 113.477883 124.375202 110.010377 122.615199 C 106.542872 120.855196 103.760367 118.190192 102.392865 117.962691 C 101.030363 117.737691 98.360359 116.487689 98.360359 116.430189 C 98.360359 116.375189 96.652856 115.692688 94.890353 115.580187 C 94.092852 115.580187 93.12785 114.615186 93.12785 114.615186 C 92.610349 113.877685 94.977853 113.705184 94.205352 113.712684 Z M 94.205352 113.712684 " transform="matrix(-1.562497,0,0,1.562497,448.351874,0)"/>
<path style="fill-rule:nonzero;fill:rgb(100%,93.333334%,65.882355%);fill-opacity:1;stroke-width:0.24;stroke-linecap:round;stroke-linejoin:round;stroke:rgb(0%,0%,0%);stroke-opacity:1;stroke-miterlimit:4;" d="M 198.960522 102.760167 C 195.038015 104.177669 189.413006 103.267667 185.8305 104.517669 C 182.250495 105.765171 175.260483 107.355174 172.587979 108.547676 C 169.915475 109.737678 162.185462 110.98518 160.537959 111.552681 C 158.890457 112.122682 145.417935 114.955186 143.660432 115.410187 C 141.892929 115.865188 142.23793 116.715189 142.23793 116.715189 C 142.23793 116.715189 144.510433 120.005195 148.147939 122.050198 C 151.785445 124.090201 160.425459 129.31271 165.085467 130.330211 C 169.747974 131.352713 180.772992 133.055216 183.615497 135.097719 C 186.455501 137.140222 188.048004 137.252723 191.115509 138.047724 C 194.185514 138.842725 196.688018 139.185226 198.735521 138.162724 C 200.778025 137.140222 206.123033 134.755218 208.053036 132.715215 C 209.98804 130.672712 210.668041 131.240213 212.488044 127.267706 C 214.305547 123.2977 215.673049 122.615199 215.215548 118.302692 C 214.763047 113.992685 214.648047 110.700179 214.190546 109.227677 C 213.738046 107.750175 210.780541 104.005169 209.873039 103.780168 C 208.965538 103.552668 201.403026 103.665168 201.403026 103.665168 C 199.415522 104.005169 199.588023 103.440168 198.960522 102.760167 Z M 198.960522 102.760167 " transform="matrix(-1.562497,0,0,1.562497,448.351874,0)"/>
<path style=" stroke:none;fill-rule:nonzero;fill:rgb(97.254902%,96.078432%,90.196079%);fill-opacity:1;" d="M 248.507812 72.335938 C 249.839844 72.339844 251.203125 72.464844 252.570312 72.753906 C 258.835938 74.085938 277.75 81.265625 282.410156 84.589844 C 287.074219 87.914062 291.871094 94.429688 293.871094 97.753906 C 295.867188 101.078125 302.125 108.125 304.925781 111.320312 C 307.722656 114.507812 314.117188 122.222656 315.984375 124.613281 C 317.847656 127.007812 317.710938 130.464844 317.710938 132.0625 C 317.710938 133.65625 317.847656 135.117188 316.246094 139.507812 C 314.652344 143.898438 313.449219 148.148438 311.453125 148.417969 C 309.457031 148.679688 305.855469 148.945312 300.53125 148.417969 C 295.203125 147.886719 282.144531 146.554688 279.078125 146.15625 C 276.019531 145.757812 272.417969 146.554688 269.621094 144.691406 C 266.828125 142.832031 260.433594 139.507812 256.570312 135.648438 C 252.707031 131.792969 244.445312 124.613281 242.449219 120.890625 C 240.453125 117.167969 234.585938 106.398438 233.792969 102.539062 C 232.992188 98.6875 231.527344 89.511719 231.527344 88.179688 C 231.527344 86.851562 233.523438 76.210938 236.851562 74.882812 C 239.457031 73.84375 243.761719 72.320312 248.507812 72.335938 Z M 248.507812 72.335938 "/>
<path style=" stroke:none;fill-rule:nonzero;fill:rgb(100%,99.215686%,95.294118%);fill-opacity:1;" d="M 290.148438 92.425781 C 291.726562 94.449219 293.039062 96.375 293.871094 97.753906 C 295.867188 101.078125 302.125 108.125 304.925781 111.320312 C 307.722656 114.507812 314.117188 122.222656 315.984375 124.613281 C 317.847656 127.007812 317.710938 130.464844 317.710938 132.0625 C 317.710938 133.65625 317.847656 135.117188 316.246094 139.507812 C 314.652344 143.898438 313.449219 148.148438 311.453125 148.417969 C 309.457031 148.679688 305.855469 148.945312 300.53125 148.417969 C 295.203125 147.886719 282.144531 146.554688 279.078125 146.15625 C 276.019531 145.757812 272.417969 146.554688 269.621094 144.691406 C 266.828125 142.832031 260.433594 139.507812 256.570312 135.648438 C 252.707031 131.792969 244.445312 124.613281 242.449219 120.890625 C 241.859375 119.789062 240.914062 118.039062 239.875 116.0625 C 259.382812 108.949219 276.003906 99.882812 290.148438 92.425781 Z M 290.148438 92.425781 "/>
<path style="fill-rule:nonzero;fill:rgb(88.235295%,85.09804%,76.078433%);fill-opacity:1;stroke-width:0.24;stroke-linecap:round;stroke-linejoin:round;stroke:rgb(0%,0%,0%);stroke-opacity:1;stroke-miterlimit:4;" d="M 285.768162 45.947574 C 285.125661 45.945074 283.925659 46.155075 281.430655 46.762576 C 277.000648 47.840078 269.610636 50.617582 265.57563 52.265085 C 261.538123 53.912587 258.355618 54.702589 254.435612 56.350091 C 251.138106 57.427593 247.2731 59.127596 243.750594 60.210098 C 241.19059 61.5676 231.188074 64.635105 234.313079 64.010104 C 237.440584 63.385103 237.610584 64.802605 237.950585 65.937607 C 238.293085 67.072609 239.655588 69.680113 239.255587 71.327616 C 238.860586 72.975118 238.350586 74.960122 238.235585 76.377624 C 238.123085 77.797626 237.498084 78.530127 237.665584 80.40513 C 237.838085 82.277633 238.915586 86.47514 238.063085 87.780142 C 237.213084 89.085144 236.130582 91.072648 235.335581 91.697649 C 234.540579 92.31765 231.643075 94.135153 230.563073 94.530153 C 229.480571 94.930154 228.85557 95.497655 228.288069 95.497655 C 227.723068 95.497655 234.88058 96.915157 236.248082 97.540158 C 237.610584 98.162659 247.1606 102.190166 249.828104 102.927667 C 252.500608 103.665168 264.778128 108.147675 266.088131 108.262676 C 267.390633 108.375176 278.590651 111.665181 279.555652 111.610181 C 280.523154 111.552681 283.763159 111.552681 283.763159 111.552681 L 283.650659 100.827663 C 283.650659 100.827663 282.055656 92.49015 281.148155 90.787647 C 280.238153 89.085144 278.30565 83.357635 277.623149 82.787634 C 276.940648 82.222633 276.148147 80.29513 276.148147 80.29513 C 276.148147 80.29513 276.660648 79.100128 277.340649 78.082627 C 278.703151 76.320124 279.443152 73.032618 280.180653 71.157615 C 281.943156 67.87011 283.478159 62.987602 283.875659 61.172599 C 283.875659 61.172599 286.435664 51.752584 286.435664 51.697584 C 286.435664 51.640084 287.000664 46.647576 286.603164 46.252575 C 286.430664 46.077575 286.265663 45.947574 285.768162 45.947574 Z M 285.768162 45.947574 " transform="matrix(-1.562497,0,0,1.562497,448.351874,0)"/>
<path style=" stroke:none;fill-rule:nonzero;fill:rgb(100%,100%,100%);fill-opacity:1;" d="M 406.964844 105.070312 C 406.433594 105.734375 405.769531 105.996094 404.035156 105.464844 C 402.300781 104.9375 401.769531 104.003906 398.570312 103.871094 C 395.378906 103.734375 393.914062 103.734375 392.445312 104.003906 C 390.980469 104.265625 390.046875 103.339844 389.78125 104.003906 C 389.515625 104.667969 387.386719 105.199219 390.582031 105.863281 C 393.777344 106.527344 394.308594 108.125 396.707031 108.125 C 399.109375 108.125 399.242188 109.1875 401.636719 108.921875 C 404.035156 108.65625 406.433594 109.984375 406.566406 110.65625 C 406.703125 111.320312 409.410156 110.210938 409.410156 109.144531 C 409.410156 108.082031 407.496094 104.40625 406.964844 105.070312 Z M 406.964844 105.070312 "/>
<path style="fill:none;stroke-width:0.24;stroke-linecap:butt;stroke-linejoin:miter;stroke:rgb(0%,0%,0%);stroke-opacity:1;stroke-miterlimit:4;" d="M 73.802819 53.627587 C 73.802819 53.627587 75.765322 53.880087 76.872824 54.222588 C 77.980326 54.562588 80.54033 56.092591 81.902832 57.880094 C 83.267834 59.667597 85.825338 61.115099 87.10284 61.7126 C 88.385342 62.305101 88.385342 64.690105 88.297842 66.137607 C 88.212842 67.58511 86.422839 71.667616 85.655338 72.690118 C 84.887837 73.71012 81.735332 82.305133 80.027829 84.602637 C 78.322826 86.900141 72.100316 98.56016 70.565314 100.602663 C 69.030311 102.647666 64.597804 101.965165 61.697799 105.197671 C 58.800294 108.430176 55.217789 106.730173 50.785281 107.497674 C 47.272776 108.102675 43.71027 107.072674 43.71027 107.072674 M 3.450205 80.21263 C 2.092703 78.565127 1.990202 76.497624 5.600208 73.485119 C 10.940217 68.547611 21.400234 59.412596 25.717741 55.897591 C 30.037748 52.377585 41.635267 44.322572 46.297774 41.825068 C 51.297782 37.967562 51.977783 36.94756 57.210292 33.940055 C 63.347802 29.572548 74.43032 24.46504 76.815324 24.067539 C 79.202828 23.672538 83.522835 22.762537 88.412842 23.785039 C 93.30035 24.80504 102.280365 24.91754 104.100368 24.97504 C 105.915371 25.030041 115.465386 28.550046 121.887897 29.342548 C 128.312907 30.137549 142.63543 36.71756 150.535443 37.17256 C 158.435456 37.627561 170.200475 45.685074 175.030483 47.272577 C 179.862991 48.860079 192.425511 58.277594 195.093015 59.752597 C 197.76552 61.227599 206.860535 64.802605 210.32804 65.372606 C 213.793046 65.937607 217.205551 66.562608 219.593055 66.562608 C 221.978059 66.562608 224.025562 67.015109 228.118069 65.597606 C 232.210576 64.177604 231.188074 64.635105 234.313079 64.010104 C 237.440584 63.385103 237.610584 64.802605 237.950585 65.937607 C 238.293085 67.072609 239.655588 69.680113 239.255587 71.327616 C 238.860586 72.975118 238.350586 74.960122 238.235585 76.377624 C 238.123085 77.797626 237.498084 78.530127 237.665584 80.40513 C 237.838085 82.277633 238.915586 86.47514 238.063085 87.780142 C 237.213084 89.085144 236.130582 91.072648 235.335581 91.697649 C 234.540579 92.31765 231.643075 94.135153 230.563073 94.530153 C 229.480571 94.930154 228.85557 95.497655 228.288069 95.497655 C 227.723068 95.497655 225.275564 95.212654 223.288061 95.327655 C 221.298058 95.440155 215.215548 96.347656 212.488044 97.425158 C 209.760539 98.50266 208.338037 99.072661 205.665533 99.922662 C 202.998028 100.772663 202.880528 101.340164 198.960522 102.760167 C 195.038015 104.177669 189.413006 103.267667 185.8305 104.517669 C 182.250495 105.765171 175.260483 107.355174 172.587979 108.547676 C 169.915475 109.737678 162.185462 110.98518 160.537959 111.552681 C 158.890457 112.122682 145.417935 114.955186 143.660432 115.410187 C 141.892929 115.865188 142.63543 115.580187 137.177922 115.865188 C 131.722913 116.147688 130.700411 115.922688 128.765408 116.375189 C 126.835405 116.827689 123.422899 116.432689 121.775397 116.375189 C 120.127894 116.320189 105.51787 115.750188 101.255363 114.842686 C 96.992856 113.935185 96.877856 113.652684 92.162849 113.765184 C 87.442841 113.877685 73.860319 114.050185 71.815316 113.765184 C 69.767812 113.480184 58.967795 112.290182 53.797786 111.10018 C 48.625278 109.910178 49.98778 109.567678 49.422779 109.340177 C 48.852778 109.112677 46.297774 107.637675 43.225269 106.900173 C 40.155264 106.162672 32.425252 104.235169 25.717741 100.150162 C 19.01273 96.062656 14.522723 93.910152 11.680218 92.150149 C 8.837713 90.390147 -0.369801 83.580136 0.142699 82.165133 C 0.6527 80.742631 1.947702 79.142628 2.742704 79.200128 M 16.567726 67.98011 C 16.000225 68.377611 15.775225 68.887612 15.775225 68.887612 M 12.76022 70.872615 C 13.16022 71.667616 13.327721 72.065117 13.327721 72.010117 " transform="matrix(-1.562497,0,0,1.562497,448.351874,0)"/>
<path style="fill:none;stroke-width:0.24;stroke-linecap:round;stroke-linejoin:round;stroke:rgb(0%,0%,0%);stroke-opacity:1;stroke-miterlimit:4;" d="M 127.900406 46.292575 C 127.047905 46.297575 126.175404 46.377575 125.300402 46.562575 C 121.290396 47.415077 109.185376 52.010084 106.202871 54.137588 C 103.217866 56.265091 100.147861 60.435098 98.867859 62.562601 C 97.590357 64.690105 93.585351 69.200112 91.792848 71.242616 C 90.002845 73.285119 85.910338 78.222627 84.715336 79.752629 C 83.522835 81.285132 83.610335 83.497635 83.610335 84.517637 C 83.610335 85.540139 83.522835 86.47514 84.547836 89.285145 C 85.567838 92.092649 86.337839 94.815154 87.615341 94.987654 C 88.892843 95.155154 91.197847 95.325155 94.605353 94.987654 C 98.015358 94.647653 106.372872 93.792652 108.335375 93.540152 C 110.292878 93.285151 112.597882 93.792652 114.387885 92.60265 C 116.175387 91.412648 120.267894 89.285145 122.740398 86.815141 C 125.212902 84.347637 130.500411 79.752629 131.777913 77.367625 C 133.055415 74.987622 136.810421 68.09261 137.317922 65.625106 C 137.830423 63.160102 138.767924 57.287593 138.767924 56.435091 C 138.767924 55.58509 137.490422 48.775079 135.360419 47.925078 C 133.692916 47.260077 130.937911 46.285075 127.900406 46.292575 Z M 127.900406 46.292575 " transform="matrix(-1.562497,0,0,1.562497,448.351874,0)"/>
<path style=" stroke:none;fill-rule:nonzero;fill:rgb(32.941177%,60.000002%,100%);fill-opacity:1;" d="M 418.070312 127.363281 C 417.300781 126.664062 416.15625 127.625 413.707031 124.328125 C 412.414062 123.53125 410.929688 125.703125 408.539062 127.265625 C 406.851562 128.363281 408.542969 125.980469 406.550781 127.703125 C 404.890625 129.144531 402.359375 131.164062 400.453125 133.007812 C 397.882812 135.488281 396.222656 138.03125 393.660156 140.625 C 391.960938 142.347656 388.933594 144.746094 387.425781 146.257812 C 385.300781 148.378906 384.390625 149.242188 383.082031 150.546875 C 383.082031 150.546875 382.214844 151.203125 381.960938 150.957031 C 381.960938 150.957031 381 150.8125 381.429688 150.25 C 382.476562 148.882812 383.601562 147.792969 385.714844 145.550781 C 387.828125 143.3125 389.332031 141.734375 390.230469 140.65625 C 393.636719 136.351562 397.28125 131.425781 400.40625 128.515625 C 404.40625 124.875 411.023438 121.257812 414.195312 118.59375 C 415.238281 119.121094 415.617188 120.320312 416.226562 121.347656 C 416.453125 121.695312 416.839844 122.695312 417.097656 123.210938 C 417.621094 124.25 418.089844 124.917969 418.464844 125.554688 C 418.664062 125.898438 419.097656 126.910156 419.253906 127.152344 C 419.410156 127.398438 418.835938 128.054688 418.070312 127.363281 Z M 417.054688 103.179688 C 417.585938 103.480469 419.714844 104.703125 420.496094 105.566406 C 420.511719 105.589844 420.535156 105.605469 420.558594 105.625 C 424.601562 108.441406 428.621094 111.835938 431.515625 115.96875 C 432 119.003906 431.449219 119.566406 429.398438 121.65625 C 427.355469 123.730469 424.136719 125.902344 423.429688 127.171875 C 422.722656 128.4375 422.0625 126.230469 422.316406 125.980469 C 422.566406 125.734375 423.308594 124.847656 423.757812 124.199219 C 424.207031 123.550781 424.617188 122.890625 424.945312 122.367188 C 425.109375 122.105469 425.257812 121.878906 425.367188 121.710938 C 425.484375 121.53125 425.59375 121.410156 425.59375 121.40625 C 426.960938 120.191406 427.847656 119.605469 428.542969 119.019531 C 429.234375 118.433594 429.070312 117.910156 429.484375 116.804688 C 429.710938 116.210938 429.421875 117.15625 429.261719 116.660156 C 429.105469 116.164062 428.792969 115.742188 428.410156 115.359375 C 427.648438 114.589844 426.824219 114.449219 425.925781 113.636719 C 424.476562 111.84375 422.992188 110.878906 421 108.363281 C 420.984375 108.34375 420.96875 108.332031 420.953125 108.320312 C 420.640625 108.03125 420.230469 107.984375 419.875 108.003906 C 419.515625 108.023438 419.164062 108.105469 418.863281 108.152344 C 418.5625 108.203125 418.316406 108.203125 418.238281 108.167969 C 418.195312 108.152344 418.191406 108.148438 418.171875 108.113281 C 418.148438 108.082031 418.117188 107.996094 418.117188 107.851562 C 418.097656 107.167969 417.789062 106.5 417.273438 105.824219 C 416.714844 105.101562 415.675781 103.484375 415.675781 103.484375 C 414.984375 102.710938 417.054688 103.179688 417.054688 103.179688 Z M 411.917969 96.839844 C 411.488281 96.214844 410.816406 95.136719 409.210938 93.457031 C 407.777344 91.953125 405.550781 90.53125 402.136719 90.03125 C 401.535156 89.941406 401.8125 89.570312 399.617188 88.5625 C 397.417969 87.554688 392.453125 86.96875 390.289062 87.523438 C 388.128906 88.078125 387.699219 87.972656 386.019531 89.609375 C 383.5625 90.410156 381.296875 92.613281 379.234375 95.375 C 377.175781 98.132812 375.394531 101.507812 375.148438 104.15625 C 375.046875 105.25 374.90625 106.890625 374.789062 108.402344 C 374.636719 110.347656 374.566406 112.242188 375.105469 114.199219 C 376.003906 117.441406 379.011719 118.976562 379.070312 120.476562 C 379.097656 121.371094 376.898438 119.292969 376.476562 119.65625 C 375.519531 120.488281 376.324219 123.195312 377.058594 124.507812 C 377.320312 126.152344 377.84375 128.472656 377.386719 131.375 C 376.902344 135.375 376.804688 130.007812 376.265625 129.023438 C 376.335938 127.859375 375.457031 125.96875 375.34375 124.804688 C 375.144531 122.679688 374.65625 120.542969 373.917969 118.367188 C 373.777344 117.53125 372.453125 116.445312 372.386719 115.609375 C 372.0625 111.75 371.84375 107.777344 372.710938 103.863281 C 372.964844 102.726562 372.976562 101.175781 373.351562 100.082031 C 374.234375 97.5 376.789062 95.628906 378.71875 93.457031 C 381.007812 90.875 382.789062 88.171875 385.09375 87.59375 C 385.910156 87.386719 390.472656 84.703125 393.898438 85.460938 C 394.507812 85.800781 394.996094 83.578125 395.542969 83.289062 C 396.292969 82.898438 397.261719 83.421875 398.78125 84.667969 C 401.394531 86.816406 403.578125 89.335938 407.113281 90.035156 C 410.28125 91.820312 412.980469 96.175781 413.917969 97.792969 C 414.855469 99.414062 412.824219 98.140625 411.917969 96.839844 Z M 411.917969 96.839844 "/>
<path style="fill:none;stroke-width:1.44;stroke-linecap:round;stroke-linejoin:miter;stroke:rgb(32.941177%,60.000002%,100%);stroke-opacity:1;stroke-miterlimit:4;" d="M 77.500325 58.750095 C 79.687828 62.187601 80.93783 65.312606 80.93783 70.937615 C 80.93783 76.562624 81.562831 78.125127 81.562831 78.125127 M 43.76277 47.455077 C 43.76277 47.455077 46.830275 46.577576 47.677776 46.262575 C 49.065279 45.750074 51.160282 45.992575 51.712783 45.902574 C 53.165285 45.667574 55.042788 45.742574 56.13029 46.075075 C 59.042795 46.955076 60.342797 49.59008 61.280298 50.142581 C 63.030301 51.175083 65.105305 52.372585 65.387805 53.665087 C 66.465307 58.630095 70.937814 65.150106 70.937814 71.250116 C 70.937814 78.465127 71.227815 90.887647 74.030319 92.930151 M 75.952822 93.822652 C 80.43533 95.925156 90.122845 101.215164 93.12535 105.312671 C 96.562856 110.000178 96.562856 109.687678 96.562856 109.687678 M 37.940261 55.29759 C 41.025266 54.900089 43.60027 53.342586 46.100274 53.285086 C 49.100279 53.212586 52.565284 54.350088 53.137785 56.260091 C 53.762786 58.352595 54.667788 60.022597 55.625289 63.125102 C 56.875291 67.187609 62.812801 96.250156 67.187808 98.75016 C 68.16781 99.312661 68.885311 99.747662 69.402812 100.097662 M 70.697814 101.797665 C 70.672814 101.997665 70.625314 102.215166 70.625314 102.500166 C 70.625314 103.750168 76.562823 111.562681 83.125334 112.500182 C 89.687845 113.437684 89.375344 113.437684 89.375344 113.437684 " transform="matrix(-1.562497,0,0,1.562497,448.351874,0)"/>
</g>
</svg>
