<?xml version="1.0" encoding="UTF-8"?>
<!-- Created by grConvert v0.1-0 -->
<svg xmlns="http://www.w3.org/2000/svg" xmlns:xlink="http://www.w3.org/1999/xlink" width="359pt" height="200pt" viewBox="0 0 359 200" version="1.1">
<g id="surface17">
<path style=" stroke:none;fill-rule:nonzero;fill:rgb(95.686275%,93.333333%,84.313725%);fill-opacity:1;" d="M 92.253906 67.035156 C 92.253906 67.035156 94.707031 67.351562 96.089844 67.777344 C 97.476562 68.203125 100.675781 70.117188 102.378906 72.351562 C 104.085938 74.585938 107.28125 76.394531 108.878906 77.140625 C 110.480469 77.882812 110.480469 80.863281 110.371094 82.671875 C 110.265625 84.480469 108.027344 89.585938 107.070312 90.863281 C 106.109375 92.136719 102.167969 102.882812 100.035156 105.753906 C 97.902344 108.625 90.125 123.199219 88.207031 125.753906 C 86.289062 128.308594 80.746094 127.457031 77.121094 131.496094 C 73.5 135.539062 69.023438 133.414062 63.480469 134.371094 C 59.089844 135.128906 54.636719 133.839844 54.636719 133.839844 M 4.3125 100.265625 C 2.617188 98.207031 2.488281 95.621094 7 91.855469 C 13.675781 85.683594 26.75 74.265625 32.148438 69.871094 C 37.546875 65.472656 52.042969 55.402344 57.871094 52.28125 C 64.121094 47.460938 64.972656 46.183594 71.511719 42.425781 C 79.183594 36.964844 93.039062 30.582031 96.019531 30.085938 C 99.003906 29.589844 104.402344 28.453125 110.515625 29.730469 C 116.625 31.007812 127.851562 31.148438 130.125 31.21875 C 132.394531 31.289062 144.332031 35.6875 152.359375 36.679688 C 160.390625 37.671875 178.292969 45.898438 188.167969 46.464844 C 198.042969 47.035156 212.75 57.105469 218.789062 59.089844 C 224.828125 61.074219 240.53125 72.847656 243.867188 74.691406 C 247.207031 76.535156 258.574219 81.003906 262.910156 81.714844 C 267.242188 82.421875 271.507812 83.203125 274.492188 83.203125 C 277.472656 83.203125 280.03125 83.769531 285.148438 81.996094 C 290.261719 80.222656 288.984375 80.792969 292.890625 80.011719 C 296.800781 79.230469 297.011719 81.003906 297.4375 82.421875 C 297.867188 83.839844 299.570312 87.101562 299.070312 89.160156 C 298.574219 91.21875 297.9375 93.699219 297.792969 95.472656 C 297.652344 97.246094 296.871094 98.164062 297.082031 100.507812 C 297.296875 102.847656 298.644531 108.09375 297.578125 109.726562 C 296.515625 111.355469 295.164062 113.839844 294.167969 114.621094 C 293.175781 115.398438 289.554688 117.667969 288.203125 118.164062 C 286.851562 118.664062 286.070312 119.371094 285.359375 119.371094 C 284.652344 119.371094 281.59375 119.015625 279.109375 119.160156 C 276.621094 119.300781 269.019531 120.433594 265.609375 121.78125 C 262.199219 123.128906 260.421875 123.839844 257.082031 124.902344 C 253.746094 125.964844 253.601562 126.675781 248.699219 128.449219 C 243.796875 130.222656 236.765625 129.085938 232.289062 130.648438 C 227.8125 132.207031 219.074219 134.195312 215.734375 135.683594 C 212.394531 137.171875 202.730469 138.730469 200.671875 139.441406 C 198.613281 140.152344 181.773438 143.695312 179.574219 144.261719 C 177.367188 144.832031 178.292969 144.476562 171.472656 144.832031 C 164.652344 145.183594 163.375 144.902344 160.957031 145.46875 C 158.542969 146.035156 154.277344 145.539062 152.21875 145.46875 C 150.160156 145.398438 131.898438 144.6875 126.570312 143.554688 C 121.242188 142.417969 121.097656 142.066406 115.203125 142.207031 C 109.304688 142.347656 92.324219 142.5625 89.769531 142.207031 C 87.210938 141.851562 73.710938 140.363281 67.246094 138.875 C 60.78125 137.386719 62.484375 136.960938 61.777344 136.675781 C 61.066406 136.390625 57.871094 134.546875 54.03125 133.625 C 50.195312 132.703125 40.53125 130.292969 32.148438 125.1875 C 23.765625 120.078125 18.152344 117.386719 14.601562 115.1875 C 11.046875 112.988281 -0.460938 104.476562 0.179688 102.707031 C 0.816406 100.929688 2.433594 98.929688 3.429688 99 M 20.710938 84.976562 C 20 85.472656 19.71875 86.109375 19.71875 86.109375 M 15.949219 88.589844 C 16.449219 89.585938 16.660156 90.082031 16.660156 90.011719 "/>
<path style=" stroke:none;fill-rule:nonzero;fill:rgb(100%,98.431373%,92.156863%);fill-opacity:1;" d="M 32.148438 125.1875 C 34.5625 126.320312 35.84375 123.199219 37.121094 121.355469 C 38.402344 119.511719 40.957031 113.980469 38.402344 112.421875 C 35.84375 110.859375 30.585938 108.875 27.886719 108.164062 C 25.222656 107.464844 26.105469 107.765625 20.25 105.375 C 20.304688 105.324219 20.363281 105.273438 20.425781 105.222656 C 20.523438 105.230469 20.617188 105.234375 20.710938 105.238281 C 41.910156 106.542969 37.070312 99.609375 45.578125 95.96875 C 61.09375 89.324219 64.136719 63.765625 96.410156 62.777344 C 120.324219 62.046875 161.953125 108.09375 231.660156 101.765625 C 280.246094 94.691406 291.957031 80.199219 292.890625 80.011719 C 296.800781 79.230469 297.011719 81.003906 297.4375 82.421875 C 297.867188 83.839844 299.570312 87.101562 299.070312 89.160156 C 298.574219 91.21875 297.9375 93.699219 297.792969 95.472656 C 297.652344 97.246094 296.871094 98.164062 297.082031 100.507812 C 297.296875 102.847656 298.644531 108.09375 297.578125 109.726562 C 296.515625 111.355469 295.164062 113.839844 294.167969 114.621094 C 293.175781 115.398438 289.554688 117.667969 288.203125 118.164062 C 286.851562 118.664062 286.070312 119.371094 285.359375 119.371094 C 284.652344 119.371094 281.59375 119.015625 279.109375 119.160156 C 276.621094 119.300781 269.019531 120.433594 265.609375 121.78125 C 262.199219 123.128906 260.421875 123.839844 257.082031 124.902344 C 253.746094 125.964844 253.601562 126.675781 248.699219 128.449219 C 243.796875 130.222656 236.765625 129.085938 232.289062 130.648438 C 227.8125 132.207031 219.074219 134.195312 215.734375 135.683594 C 212.394531 137.171875 202.730469 138.730469 200.671875 139.441406 C 198.613281 140.152344 181.773438 143.695312 179.574219 144.261719 C 177.367188 144.832031 178.292969 144.476562 171.472656 144.832031 C 164.652344 145.183594 163.375 144.902344 160.957031 145.46875 C 158.542969 146.035156 154.277344 145.539062 152.21875 145.46875 C 150.160156 145.398438 131.898438 144.6875 126.570312 143.554688 C 121.242188 142.417969 121.097656 142.066406 115.203125 142.207031 C 109.304688 142.347656 92.324219 142.5625 89.769531 142.207031 C 87.210938 141.851562 73.710938 140.363281 67.246094 138.875 C 60.78125 137.386719 62.484375 136.960938 61.777344 136.675781 C 61.066406 136.390625 57.871094 134.546875 54.03125 133.625 C 50.195312 132.703125 40.53125 130.292969 32.148438 125.1875 M 54.636719 133.839844 "/>
<path style=" stroke:none;fill-rule:nonzero;fill:rgb(15.686275%,9.019608%,4.313725%);fill-opacity:1;" d="M 21.777344 86.394531 C 20.144531 88.453125 18.933594 89.230469 17.796875 90.648438 C 16.308594 91.996094 14.457031 92.777344 15.097656 94.480469 C 15.738281 96.179688 16.4375 96.144531 18.644531 98.109375 C 19.085938 98.5 21.015625 102.378906 22.375 102.410156 C 23.328125 102.429688 23.554688 101.34375 23.929688 100.707031 C 24.488281 99.757812 25.613281 96.960938 26.179688 96.820312 L 27.394531 96.1875 L 35.59375 101.929688 C 40.460938 105.222656 43.160156 109.035156 46.214844 112.421875 C 47.636719 114.121094 52.609375 119.652344 54.742188 121.214844 C 56.875 122.773438 57.582031 120.789062 58.722656 119.652344 C 59.859375 118.519531 59.574219 116.816406 59.429688 113.839844 C 56.074219 105.980469 56.6875 102.023438 57.085938 99.523438 C 60.054688 94.265625 58.976562 86.957031 58.605469 82.914062 C 58.234375 78.867188 53.78125 72.796875 50.070312 71.582031 C 47.980469 70.898438 49.113281 65.394531 46.25 65.367188 C 44.019531 65.347656 39.039062 71.234375 36.765625 71.765625 C 31.570312 72.976562 30.140625 76.445312 28.542969 78.058594 C 27.09375 79.851562 25.953125 82.808594 24.757812 84.363281 C 24.367188 84.871094 24.15625 85.34375 24.144531 85.804688 C 24.109375 87.039062 22.445312 85.785156 21.777344 86.394531 Z M 21.777344 86.394531 "/>
<path style="fill-rule:nonzero;fill:rgb(100%,93.333333%,66.666667%);fill-opacity:1;stroke-width:0.24;stroke-linecap:butt;stroke-linejoin:miter;stroke:rgb(0%,0%,0%);stroke-opacity:1;stroke-miterlimit:4;" d="M 6.706176 82.815749 C 5.768675 82.284498 3.487421 80.709495 2.74367 79.200118 C 1.946794 79.143868 0.653042 80.743871 0.143666 82.165748 C -0.368835 83.581375 8.837429 90.39076 11.681183 92.150138 C 14.521813 93.909515 19.012444 96.062643 25.718704 100.150149 C 27.649957 101.056401 28.674959 98.559522 29.696835 97.08452 C 30.721837 95.609518 32.76559 91.184511 30.721837 89.937634 C 28.674959 88.687632 24.468702 87.10013 22.309324 86.531379 C 20.149946 85.965753 16.284315 84.603251 13.10306 82.106373 C 10.146806 79.156368 5.259299 74.165736 3.631171 75.465738 C 2.109294 77.450116 2.41242 78.953243 3.449921 80.21262 C 4.443673 81.418872 6.106175 82.396998 7.474927 83.356374 C 8.071803 83.922 8.456179 84.134501 9.12493 84.718876 C 9.278055 84.884502 13.165561 87.800131 15.146814 89.937634 C 22.034324 96.87827 19.80932 95.950143 26.05933 98.559522 " transform="matrix(1.249998,0,0,1.249998,0.000105091,0)"/>
<path style="fill-rule:nonzero;fill:rgb(78.431373%,71.764706%,71.764706%);fill-opacity:1;stroke-width:0.24;stroke-linecap:butt;stroke-linejoin:miter;stroke:rgb(0%,0%,0%);stroke-opacity:1;stroke-miterlimit:4;" d="M 22.9062 70.64698 C 23.928077 72.943859 25.718704 76.775115 28.787459 77.540741 C 31.859338 78.306367 32.112464 79.581369 36.718721 78.050116 C 41.321853 76.518864 41.065602 76.518864 43.11248 73.200109 C 45.159358 69.881354 44.903108 68.093852 44.646858 65.540723 C 44.390607 62.987594 41.321853 59.159463 38.762474 58.393837 C 36.20622 57.625086 32.368714 57.371961 28.787459 58.137587 C 25.209329 58.903213 24.696828 61.200091 23.928077 62.478218 C 23.16245 63.75322 21.884324 68.350102 22.9062 70.64698 Z M 22.9062 70.64698 " transform="matrix(1.249998,0,0,1.249998,0.000105091,0)"/>
<path style="fill-rule:nonzero;fill:rgb(9.803922%,5.490196%,2.745098%);fill-opacity:1;stroke-width:0.24;stroke-linecap:butt;stroke-linejoin:miter;stroke:rgb(0%,0%,0%);stroke-opacity:1;stroke-miterlimit:4;" d="M 32.881215 61.456342 C 30.068711 61.712592 28.787459 61.456342 27.509332 63.243844 C 26.231205 65.031347 25.493704 71.553232 27.168706 73.796985 C 28.362458 74.562611 29.471835 75.243862 31.090587 75.243862 C 32.70934 75.243862 35.184343 75.071987 36.290595 74.562611 C 37.399972 74.050111 38.934349 74.221986 39.87185 72.943859 C 40.809352 71.668857 41.237477 70.987606 41.149977 69.031353 C 41.065602 67.071975 41.065602 65.712598 40.212476 64.518846 C 39.35935 63.32822 38.762474 61.712592 37.143721 61.284466 C 35.524969 60.859466 35.693719 61.200091 32.881215 61.456342 Z M 32.881215 61.456342 " transform="matrix(1.249998,0,0,1.249998,0.000105091,0)"/>
<path style="fill-rule:nonzero;fill:rgb(88.235294%,85.882353%,76.862745%);fill-opacity:1;stroke-width:0.24;stroke-linecap:butt;stroke-linejoin:miter;stroke:rgb(0%,0%,0%);stroke-opacity:1;stroke-miterlimit:4;" d="M 126.350105 0.121875 C 125.606353 0.115625 124.412602 0.753126 123.934476 0.978126 C 122.856349 1.487502 121.262597 2.281253 120.12822 2.850004 C 118.990719 3.41563 118.081342 3.756256 116.37509 4.946882 C 114.671962 6.140634 111.943833 8.578138 110.750081 8.978138 C 109.556329 9.375014 109.953205 9.375014 109.66883 8.693763 C 109.384454 8.012512 109.384454 7.556261 109.66883 5.118758 C 109.953205 2.678129 108.875078 4.437507 107.053201 5.459383 C 105.234448 6.48126 105.065698 7.046886 103.359445 8.637513 C 101.653193 10.225015 100.743816 10.450016 99.55319 10.790641 C 98.359438 11.131267 97.903187 10.450016 97.562562 8.862513 C 97.468811 8.425013 98.078187 6.684385 97.450061 6.934385 C 95.790684 7.590636 91.812553 11.787518 90.740676 13.062519 C 89.265674 14.818772 87.275046 15.331273 87.159421 15.046897 C 87.046921 14.762522 86.706295 14.593772 86.47817 14.593772 C 86.250045 14.593772 84.090666 16.409399 83.296915 17.0344 C 82.500039 17.656276 74.431277 24.465662 76.815656 24.068786 C 79.203159 23.67191 83.521916 22.762534 88.412548 23.78441 C 93.300055 24.806287 102.281319 24.918787 104.100071 24.975037 C 105.915699 25.031287 115.465713 28.550043 121.887598 29.343794 C 128.312607 30.137545 142.634504 36.718805 150.534516 37.17193 C 158.434527 37.628181 170.20017 45.684443 175.031427 47.271946 C 179.862684 48.859448 192.425203 58.278212 195.093957 59.753214 C 196.953335 60.781341 201.918967 62.821969 205.937723 64.159471 C 207.697101 64.746972 206.065848 63.215719 206.8596 62.818844 C 207.656476 62.421968 210.840856 62.818844 212.375233 62.875094 C 213.90961 62.931344 218.284617 62.306343 219.878369 61.625092 C 221.468996 60.946966 220.78462 56.518834 220.840871 55.215707 C 220.872121 54.540706 221.559622 51.796952 221.184621 49.143823 C 220.831496 46.665695 219.418993 44.271941 219.306493 43.64069 C 219.193993 42.996939 218.015866 40.421935 216.465864 38.025057 C 214.878362 35.568803 212.918984 33.2938 212.600233 32.690674 C 211.975232 31.500047 206.406474 26.450039 205.384597 25.768788 C 204.359596 25.087537 197.709586 20.550031 196.628334 20.040655 C 195.550208 19.531279 193.843955 18.053152 190.1502 17.146901 C 188.597072 16.762525 187.07832 15.987524 185.434568 15.615648 C 183.165814 15.103148 180.875186 15.062522 179.918934 15.159398 C 178.272057 15.331273 177.872056 15.159398 176.909555 15.046897 C 175.940804 14.934397 176.225179 14.762522 174.975177 14.990647 C 173.725175 15.215648 173.212674 15.615648 172.190798 16.012524 C 171.165796 16.409399 170.712671 16.237524 169.631419 16.296899 C 168.553292 16.353149 168.437667 15.556273 167.984542 15.275023 C 167.531416 14.990647 166.618915 15.215648 164.631412 15.275023 C 162.640784 15.331273 163.265785 15.159398 162.756409 14.253146 C 162.243908 13.34377 162.128283 12.550019 162.128283 12.550019 C 162.128283 12.550019 161.278282 12.381268 160.14078 12.437519 C 159.003278 12.493769 158.662653 12.096893 157.981402 11.531267 C 157.300151 10.962516 157.468901 10.906266 156.728275 9.487514 C 155.990774 8.068762 156.503275 8.750013 155.537648 8.637513 C 154.572022 8.521888 154.228271 8.693763 152.068893 8.693763 C 149.909515 8.693763 151.103266 8.296887 150.422015 7.500011 C 149.737639 6.70626 149.853265 6.42501 149.853265 6.42501 C 149.853265 6.42501 148.772013 6.765635 147.922012 6.934385 C 147.068885 7.106261 146.387634 7.615636 144.906382 7.387511 C 143.428255 7.162511 144.056381 6.365635 144.056381 6.365635 L 143.60013 4.946882 C 143.60013 4.946882 141.781378 5.628133 140.815751 5.968759 C 139.850125 6.309384 138.884498 6.48126 138.315747 6.309384 C 137.746997 6.140634 137.575121 5.231258 136.95012 3.24688 C 136.325119 1.259377 135.643868 1.771878 134.678242 2.000003 C 133.70949 2.225003 133.368865 2.450004 132.459489 2.906254 C 131.553237 3.35938 128.368858 4.493757 127.856357 4.437507 C 127.343856 4.381257 126.550105 4.381257 126.662605 2.906254 C 126.71573 2.231253 127.265731 0.609376 126.77823 0.2375 C 126.668855 0.15625 126.52198 0.121875 126.350105 0.121875 Z M 126.350105 0.121875 " transform="matrix(1.249998,0,0,1.249998,0.000105091,0)"/>
<path style="fill-rule:nonzero;fill:rgb(84.705882%,81.568627%,69.803922%);fill-opacity:1;stroke-width:0.24;stroke-linecap:butt;stroke-linejoin:miter;stroke:rgb(0%,0%,0%);stroke-opacity:1;stroke-miterlimit:4;" d="M 149.084513 33.5438 C 149.256389 32.181298 150.534516 30.393795 151.472017 29.031293 C 152.409518 27.671916 155.565773 25.459413 157.612651 23.925036 C 159.656404 22.393783 159.99703 21.800033 162.300158 19.500029 C 164.603287 17.203151 164.918912 18.262527 165.478288 16.862525 C 164.368911 17.371901 162.128283 18.990653 160.937656 19.756279 C 159.743904 20.521906 158.975153 21.031281 157.440776 22.225033 C 155.906399 23.41566 154.287646 24.096911 153.006394 25.459413 C 151.728267 26.81879 150.790766 27.07504 150.022015 27.584416 C 149.256389 28.096917 146.272009 30.734421 144.993882 31.756297 C 143.715755 32.778174 143.203255 32.862549 142.522004 32.009423 C 141.837628 31.159422 143.11888 30.225045 144.056381 28.862543 C 144.993882 27.500041 146.272009 26.393789 147.890762 24.690662 C 149.512639 22.990659 149.425139 23.243785 151.472017 21.287532 C 153.518895 19.331279 153.69077 19.840655 156.418899 17.287526 C 157.200151 16.396899 158.812653 15.221898 158.687653 14.881272 C 157.565776 15.415648 156.331399 16.353149 153.859521 17.800027 C 151.387642 19.246904 150.022015 20.265655 149.084513 20.693781 C 148.147012 21.118782 142.522004 24.778162 139.365749 28.181292 C 136.212619 31.584422 135.956369 28.778168 136.809495 26.81879 C 137.662621 24.862537 138.512623 24.946912 139.621999 23.331285 C 140.731376 21.712532 144.565757 18.565653 148.234512 15.500023 C 151.900143 12.437519 151.900143 12.353143 150.022015 13.28752 C 148.147012 14.225021 147.381386 14.650022 145.847009 15.671898 C 144.312631 16.693775 142.350128 17.712526 140.39075 19.584404 C 138.428248 21.459407 142.522004 17.800027 134.081366 24.778162 C 125.640728 31.756297 132.118863 25.287538 132.375113 23.840661 C 132.631364 22.393783 133.39699 21.031281 134.678242 19.331279 C 135.956369 17.628151 138.259497 16.5219 143.628255 12.181268 C 149.000138 7.840637 145.590758 9.800015 144.056381 10.393766 C 142.522004 10.990641 141.837628 11.928143 140.047 12.946894 C 138.259497 13.968771 136.381369 15.671898 134.846992 16.77815 C 133.312615 17.884402 132.715739 19.159404 127.687607 22.478159 C 122.656349 25.796914 122.825099 24.181286 123.509475 22.565659 C 124.190726 20.946906 125.300103 20.265655 127.259481 17.800027 C 129.221984 15.331273 131.353237 14.053146 135.103243 11.159392 C 138.853248 8.268762 138.428248 7.075011 135.615743 9.628139 C 132.800114 12.181268 133.568865 10.906266 131.778238 12.181268 C 129.98761 13.459395 129.903235 13.884396 121.546972 19.415654 C 113.193835 24.946912 116.51884 20.693781 116.859465 18.393777 C 117.043841 17.153151 119.009469 15.006272 121.546972 12.931269 C 123.528225 11.312517 125.900104 9.046889 128.028232 7.796887 C 128.215732 7.684386 129.362609 7.128136 129.546984 7.021885 C 130.693861 6.125009 131.662612 5.653133 132.059488 4.484382 C 129.584484 6.184384 128.196982 6.734385 126.57823 7.928137 C 124.959477 9.118764 123.421975 9.968765 122.571974 10.225015 C 121.718848 10.481266 120.609471 11.671892 113.02196 17.884402 C 105.434448 24.096911 109.86883 17.968777 110.209455 15.925024 C 110.550081 13.884396 116.346965 9.203139 120.268845 5.203133 C 124.190726 1.203127 119.843845 4.437507 118.053217 5.715634 C 116.262589 6.990635 115.578213 7.162511 113.44696 8.946888 C 111.315707 10.734391 107.565701 13.800021 106.287575 14.650022 C 105.009448 15.500023 102.109443 18.309402 100.234441 20.862531 C 98.359438 23.41566 97.590687 22.225033 97.506311 22.225033 C 97.418811 22.225033 97.590687 20.437531 97.846937 19.500029 C 98.103187 18.565653 100.915692 14.309396 102.281319 12.946894 C 103.643821 11.587517 106.200074 7.500011 105.775074 8.096887 C 105.350073 8.693763 103.728196 10.05314 102.621944 11.246892 C 101.512567 12.437519 95.375058 17.968777 94.350057 18.990653 C 93.32818 20.01253 92.306304 21.968783 91.025052 22.565659 C 89.746925 23.15941 89.9188 22.053158 89.66255 21.459407 C 89.406299 20.862531 91.709428 15.415648 92.475054 14.053146 C 93.243805 12.693769 95.375058 9.543764 94.606307 10.30939 C 93.840681 11.075017 93.07193 12.181268 92.306304 12.862519 C 91.537553 13.54377 91.281302 13.459395 89.490674 16.77815 C 87.700047 20.096905 85.825044 22.137533 84.887543 22.225033 C 83.950041 22.309408 83.26879 21.884408 83.353165 21.543782 C 83.43754 21.203157 84.034416 19.671904 84.462542 18.818778 C 84.887543 17.968777 86.67817 15.415648 86.506295 15.075022 C 86.337545 14.734397 83.950041 17.800027 82.756289 19.584404 C 81.562538 21.371907 74.431277 24.465662 76.815656 24.068786 C 79.203159 23.67191 83.521916 22.762534 88.412548 23.78441 C 93.300055 24.806287 102.281319 24.918787 104.100071 24.975037 C 105.915699 25.031287 115.465713 28.550043 121.887598 29.343794 C 128.312607 30.137545 142.634504 36.718805 150.534516 37.17193 C 150.934516 37.196931 148.915763 34.903177 149.084513 33.5438 Z M 149.084513 33.5438 " transform="matrix(1.249998,0,0,1.249998,0.000105091,0)"/>
<path style="fill-rule:nonzero;fill:rgb(15.686275%,9.019608%,4.313725%);fill-opacity:1;stroke-width:0.24;stroke-linecap:butt;stroke-linejoin:miter;stroke:rgb(0%,0%,0%);stroke-opacity:1;stroke-miterlimit:4;" d="M 210.328355 65.371973 C 213.793985 65.937598 217.20649 66.562599 219.593994 66.562599 C 221.978372 66.562599 224.02525 67.015725 228.119006 65.596973 C 232.209637 64.178221 231.187761 64.634471 234.312766 64.009471 C 237.440895 63.38447 237.609646 64.803222 237.950271 65.937598 C 238.294022 67.071975 239.656524 69.681354 239.256523 71.328231 C 238.859647 72.975109 238.350272 74.959487 238.234646 76.378239 C 238.122146 77.796991 237.497145 78.531367 237.665896 80.40637 C 237.837771 82.278248 234.200265 87.322005 232.265888 88.909508 C 230.334635 90.500135 226.115878 94.512641 224.297126 91.787637 C 223.72525 90.953261 221.375246 90.925136 220.80962 90.343885 C 218.453367 87.915756 218.115866 86.672004 217.931491 85.118877 C 217.828366 84.240751 216.087738 83.028249 215.850238 80.49387 C 215.568988 77.459491 214.918987 74.240736 214.918987 74.240736 C 214.350236 73.90011 209.306478 68.943853 210.328355 65.371973 Z M 210.328355 65.371973 " transform="matrix(1.249998,0,0,1.249998,0.000105091,0)"/>
<path style="fill-rule:nonzero;fill:rgb(100%,93.333333%,66.666667%);fill-opacity:1;stroke-width:0.24;stroke-linecap:round;stroke-linejoin:round;stroke:rgb(0%,0%,0%);stroke-opacity:1;stroke-miterlimit:4;" d="M 94.206307 113.71267 C 93.950056 113.71267 93.343805 113.73767 92.162553 113.765795 C 90.412551 113.80642 87.443796 113.85642 84.300042 113.88767 C 87.443796 118.078301 85.228168 115.184547 86.878171 121.822057 C 86.878171 121.822057 89.093799 129.537693 89.546925 131.581446 C 90.003175 133.622074 93.528181 141.622086 94.209432 142.643963 C 94.890683 143.665839 97.278186 146.047093 97.959437 147.353345 C 98.643813 148.656472 99.72194 150.303349 100.859441 152.059602 C 101.993818 153.822105 101.993818 154.612731 103.871946 156.543984 C 105.746949 158.472112 106.656325 159.834614 107.168826 159.834614 C 107.681327 159.834614 107.393826 160.231489 108.303203 158.700237 C 109.215704 157.16586 110.350081 154.500231 111.146957 154.047105 C 111.943833 153.593979 113.07821 150.812725 113.07821 150.812725 L 113.818836 148.656472 C 113.818836 148.656472 114.728212 147.750221 115.181338 145.650217 C 115.634464 143.550214 115.806339 141.453336 116.48759 140.259584 C 117.171966 139.068958 117.909467 135.778328 117.909467 135.778328 C 117.909467 135.778328 118.593843 132.259572 117.965717 130.843945 C 117.340716 129.425193 115.465713 126.531439 115.409463 126.531439 C 115.353213 126.531439 113.47821 124.375186 110.009455 122.615808 C 106.543825 120.85643 103.759446 118.190801 102.393819 117.962676 C 101.031317 117.737676 98.359438 116.487674 98.359438 116.431424 C 98.359438 116.375174 96.653185 115.693923 94.890683 115.581423 C 94.093806 115.581423 93.12818 114.615796 93.12818 114.615796 C 92.609429 113.878295 94.978183 113.70642 94.206307 113.71267 Z M 94.206307 113.71267 " transform="matrix(1.249998,0,0,1.249998,0.000105091,0)"/>
<path style="fill-rule:nonzero;fill:rgb(100%,93.333333%,66.666667%);fill-opacity:1;stroke-width:0.24;stroke-linecap:round;stroke-linejoin:round;stroke:rgb(0%,0%,0%);stroke-opacity:1;stroke-miterlimit:4;" d="M 198.959588 102.759528 C 195.037707 104.17828 189.412699 103.268904 185.831443 104.518906 C 182.250188 105.765783 175.259553 107.35641 172.587674 108.547037 C 169.915795 109.737664 162.184533 110.984541 160.537656 111.553291 C 158.890778 112.122042 145.418883 114.956422 143.659505 115.409547 C 141.893878 115.865798 142.237628 116.715799 142.237628 116.715799 C 142.237628 116.715799 144.509507 120.006429 148.147012 122.050182 C 151.784517 124.09081 160.425155 129.312693 165.084537 130.331445 C 169.747044 131.353321 180.772061 133.056449 183.615815 135.097077 C 186.456444 137.14083 188.047072 137.25333 191.115826 138.047081 C 194.184581 138.843957 196.687709 139.184583 198.734588 138.162706 C 200.778341 137.14083 206.122099 134.756451 208.053351 132.715823 C 209.987729 130.67207 210.66898 131.240821 212.487733 127.26894 C 214.306486 123.297059 215.672113 122.615808 215.215862 118.303302 C 214.762736 113.99392 214.647111 110.700165 214.190861 109.228288 C 213.737735 107.750161 210.781481 104.006405 209.872104 103.781405 C 208.965853 103.55328 201.403342 103.66578 201.403342 103.66578 C 199.415839 104.006405 199.587714 103.440779 198.959588 102.759528 Z M 198.959588 102.759528 " transform="matrix(1.249998,0,0,1.249998,0.000105091,0)"/>
<path style=" stroke:none;fill-rule:nonzero;fill:rgb(97.647059%,96.078431%,90.980392%);fill-opacity:1;" d="M 159.875 57.867188 C 158.808594 57.871094 157.71875 57.972656 156.625 58.203125 C 151.613281 59.269531 136.480469 65.011719 132.753906 67.671875 C 129.023438 70.332031 125.183594 75.542969 123.585938 78.203125 C 121.988281 80.863281 116.980469 86.5 114.742188 89.054688 C 112.503906 91.605469 107.386719 97.777344 105.894531 99.691406 C 104.402344 101.605469 104.511719 104.371094 104.511719 105.648438 C 104.511719 106.925781 104.402344 108.09375 105.683594 111.605469 C 106.960938 115.117188 107.921875 118.519531 109.519531 118.734375 C 111.117188 118.945312 113.996094 119.15625 118.257812 118.734375 C 122.519531 118.308594 132.964844 117.242188 135.417969 116.925781 C 137.867188 116.605469 140.746094 117.242188 142.984375 115.753906 C 145.21875 114.265625 150.335938 111.605469 153.425781 108.519531 C 156.515625 105.433594 163.125 99.691406 164.722656 96.710938 C 166.320312 93.734375 171.011719 85.117188 171.648438 82.03125 C 172.289062 78.949219 173.460938 71.609375 173.460938 70.542969 C 173.460938 69.480469 171.863281 60.96875 169.199219 59.90625 C 167.117188 59.074219 163.671875 57.855469 159.875 57.867188 Z M 159.875 57.867188 "/>
<path style=" stroke:none;fill-rule:nonzero;fill:rgb(100%,99.215686%,95.686275%);fill-opacity:1;" d="M 126.5625 73.941406 C 125.300781 75.558594 124.25 77.101562 123.585938 78.203125 C 121.988281 80.863281 116.980469 86.5 114.742188 89.054688 C 112.503906 91.605469 107.386719 97.777344 105.894531 99.691406 C 104.402344 101.605469 104.511719 104.371094 104.511719 105.648438 C 104.511719 106.925781 104.402344 108.09375 105.683594 111.605469 C 106.960938 115.117188 107.921875 118.519531 109.519531 118.734375 C 111.117188 118.945312 113.996094 119.15625 118.257812 118.734375 C 122.519531 118.308594 132.964844 117.242188 135.417969 116.925781 C 137.867188 116.605469 140.746094 117.242188 142.984375 115.753906 C 145.21875 114.265625 150.335938 111.605469 153.425781 108.519531 C 156.515625 105.433594 163.125 99.691406 164.722656 96.710938 C 165.195312 95.832031 165.949219 94.429688 166.78125 92.851562 C 151.175781 87.160156 137.878906 79.90625 126.5625 73.941406 Z M 126.5625 73.941406 "/>
<path style="fill-rule:nonzero;fill:rgb(88.235294%,85.882353%,76.862745%);fill-opacity:1;stroke-width:0.24;stroke-linecap:round;stroke-linejoin:round;stroke:rgb(0%,0%,0%);stroke-opacity:1;stroke-miterlimit:4;" d="M 285.769092 45.946944 C 285.125341 45.943819 283.92534 46.156319 281.431586 46.76257 C 277.000329 47.840696 269.609693 50.618826 265.575312 52.265703 C 261.537806 53.91258 258.356552 54.703207 254.434671 56.350084 C 251.137791 57.428211 247.27216 59.128213 243.75028 60.209465 C 241.190901 61.568842 231.187761 64.634471 234.312766 64.009471 C 237.440895 63.38447 237.609646 64.803222 237.950271 65.937598 C 238.294022 67.071975 239.656524 69.681354 239.256523 71.328231 C 238.859647 72.975109 238.350272 74.959487 238.234646 76.378239 C 238.122146 77.796991 237.497145 78.531367 237.665896 80.40637 C 237.837771 82.278248 238.915898 86.475129 238.062771 87.781381 C 237.21277 89.084508 236.131518 91.072011 235.334642 91.697012 C 234.540891 92.318888 231.644012 94.134515 230.56276 94.531391 C 229.481508 94.931392 228.856507 95.497018 228.287757 95.497018 C 227.722131 95.497018 234.881516 96.91577 236.247144 97.540771 C 237.609646 98.162647 247.15966 102.190778 249.828414 102.928279 C 252.500293 103.66578 264.778436 108.147036 266.087813 108.262662 C 267.39094 108.375162 278.590957 111.665792 279.556583 111.609542 C 280.52221 111.553291 283.762839 111.553291 283.762839 111.553291 L 283.650339 100.828275 C 283.650339 100.828275 282.056587 92.490763 281.147211 90.787636 C 280.237834 89.084508 278.306581 83.356374 277.622205 82.787624 C 276.940954 82.221998 276.147203 80.29387 276.147203 80.29387 C 276.147203 80.29387 276.659704 79.100118 277.340955 78.081367 C 278.703457 76.318864 279.444083 73.031359 280.181584 71.156356 C 281.944087 67.868851 283.478464 62.987594 283.87534 61.171966 C 283.87534 61.171966 286.434718 51.753202 286.434718 51.696952 C 286.434718 51.640702 287.000344 46.646945 286.603469 46.253194 C 286.431593 46.078194 286.265968 45.946944 285.769092 45.946944 Z M 285.769092 45.946944 " transform="matrix(1.249998,0,0,1.249998,0.000105091,0)"/>
<path style=" stroke:none;fill-rule:nonzero;fill:rgb(100%,100%,100%);fill-opacity:1;" d="M 33.109375 84.054688 C 33.535156 84.585938 34.066406 84.796875 35.453125 84.371094 C 36.839844 83.949219 37.265625 83.203125 39.824219 83.097656 C 42.378906 82.988281 43.550781 82.988281 44.726562 83.203125 C 45.898438 83.414062 46.644531 82.671875 46.855469 83.203125 C 47.070312 83.734375 48.773438 84.160156 46.214844 84.691406 C 43.660156 85.222656 43.234375 86.5 41.316406 86.5 C 39.394531 86.5 39.289062 87.351562 37.371094 87.136719 C 35.453125 86.925781 33.535156 87.988281 33.429688 88.523438 C 33.320312 89.054688 31.152344 88.167969 31.152344 87.316406 C 31.152344 86.464844 32.683594 83.523438 33.109375 84.054688 Z M 33.109375 84.054688 "/>
<path style="fill:none;stroke-width:0.24;stroke-linecap:butt;stroke-linejoin:miter;stroke:rgb(0%,0%,0%);stroke-opacity:1;stroke-miterlimit:4;" d="M 73.803151 53.628205 C 73.803151 53.628205 75.765654 53.88133 76.871906 54.221956 C 77.981282 54.562581 80.540661 56.093834 81.903163 57.881336 C 83.26879 59.668839 85.825044 61.115716 87.103171 61.712592 C 88.384423 62.306343 88.384423 64.690722 88.296923 66.137599 C 88.212548 67.584476 86.42192 71.668857 85.656294 72.690733 C 84.887543 73.709485 81.734413 82.306373 80.02816 84.603251 C 78.321908 86.90013 72.100024 98.559522 70.565646 100.603275 C 69.031269 102.647028 64.596887 101.965777 61.696883 105.197032 C 58.800004 108.431412 55.218748 106.731409 50.784367 107.497035 C 47.271861 108.103286 43.709356 107.072035 43.709356 107.072035 M 3.449921 80.21262 C 2.093669 78.565742 1.990544 76.496989 5.599924 73.484485 C 10.940557 68.546977 21.399948 59.412589 25.718704 55.896958 C 30.037461 52.378203 41.634353 44.321941 46.29686 41.825062 C 51.296867 37.968807 51.978119 36.94693 57.209376 33.940676 C 63.346885 29.571919 74.431277 24.465662 76.815656 24.068786 C 79.203159 23.67191 83.521916 22.762534 88.412548 23.78441 C 93.300055 24.806287 102.281319 24.918787 104.100071 24.975037 C 105.915699 25.031287 115.465713 28.550043 121.887598 29.343794 C 128.312607 30.137545 142.634504 36.718805 150.534516 37.17193 C 158.434527 37.628181 170.20017 45.684443 175.031427 47.271946 C 179.862684 48.859448 192.425203 58.278212 195.093957 59.753214 C 197.765836 61.228216 206.8596 64.803222 210.328355 65.371973 C 213.793985 65.937598 217.20649 66.562599 219.593994 66.562599 C 221.978372 66.562599 224.02525 67.015725 228.119006 65.596973 C 232.209637 64.178221 231.187761 64.634471 234.312766 64.009471 C 237.440895 63.38447 237.609646 64.803222 237.950271 65.937598 C 238.294022 67.071975 239.656524 69.681354 239.256523 71.328231 C 238.859647 72.975109 238.350272 74.959487 238.234646 76.378239 C 238.122146 77.796991 237.497145 78.531367 237.665896 80.40637 C 237.837771 82.278248 238.915898 86.475129 238.062771 87.781381 C 237.21277 89.084508 236.131518 91.072011 235.334642 91.697012 C 234.540891 92.318888 231.644012 94.134515 230.56276 94.531391 C 229.481508 94.931392 228.856507 95.497018 228.287757 95.497018 C 227.722131 95.497018 225.275252 95.212642 223.287749 95.328267 C 221.297121 95.440767 215.215862 96.347019 212.487733 97.425145 C 209.759604 98.503272 208.337727 99.072023 205.665848 99.922024 C 202.997094 100.772025 202.881469 101.340776 198.959588 102.759528 C 195.037707 104.17828 189.412699 103.268904 185.831443 104.518906 C 182.250188 105.765783 175.259553 107.35641 172.587674 108.547037 C 169.915795 109.737664 162.184533 110.984541 160.537656 111.553291 C 158.890778 112.122042 145.418883 114.956422 143.659505 115.409547 C 141.893878 115.865798 142.634504 115.581423 137.178246 115.865798 C 131.721988 116.147048 130.700111 115.922048 128.765733 116.375174 C 126.83448 116.828299 123.421975 116.431424 121.775098 116.375174 C 120.12822 116.318924 105.518823 115.750173 101.256317 114.843921 C 96.993811 113.934545 96.878186 113.653295 92.162553 113.765795 C 87.443796 113.878295 73.859401 114.05017 71.815648 113.765795 C 69.76877 113.481419 58.968754 112.290793 53.796871 111.100166 C 48.624988 109.909539 49.987491 109.568914 49.421865 109.340788 C 48.853114 109.112663 46.29686 107.637661 43.22498 106.90016 C 40.156226 106.162658 32.424964 104.234531 25.718704 100.150149 C 19.012444 96.062643 14.521813 93.909515 11.681183 92.150138 C 8.837429 90.39076 -0.368835 83.581375 0.143666 82.165748 C 0.653042 80.743871 1.946794 79.143868 2.74367 79.200118 M 16.568691 67.981351 C 15.99994 68.378227 15.774939 68.887603 15.774939 68.887603 M 12.75931 70.871981 C 13.159311 71.668857 13.328061 72.065733 13.328061 72.009482 " transform="matrix(1.249998,0,0,1.249998,0.000105091,0)"/>
<path style="fill:none;stroke-width:0.24;stroke-linecap:round;stroke-linejoin:round;stroke:rgb(0%,0%,0%);stroke-opacity:1;stroke-miterlimit:4;" d="M 127.900107 46.293819 C 127.046981 46.296944 126.175104 46.378194 125.300103 46.562569 C 121.290722 47.415696 109.184454 52.009453 106.203199 54.137581 C 103.21882 56.265709 100.14694 60.434465 98.868813 62.562593 C 97.590687 64.690722 93.584431 69.200103 91.793803 71.243856 C 90.003175 73.284484 85.909419 78.221992 84.715667 79.753244 C 83.521916 81.284496 83.609416 83.497 83.609416 84.518876 C 83.609416 85.540753 83.521916 86.475129 84.546917 89.284508 C 85.568794 92.093887 86.337545 94.815767 87.615672 94.987642 C 88.893799 95.156392 91.196927 95.325142 94.606307 94.987642 C 98.015687 94.647016 106.37195 93.79389 108.334453 93.540765 C 110.293831 93.284514 112.596959 93.79389 114.387587 92.603263 C 116.175089 91.412636 120.268845 89.284508 122.740724 86.815755 C 125.212603 84.347001 130.500111 79.753244 131.778238 77.368865 C 133.056365 74.987612 136.809495 68.093852 137.318871 65.625098 C 137.831372 63.159469 138.768873 57.287586 138.768873 56.434459 C 138.768873 55.584458 137.490746 48.775073 135.359493 47.925072 C 133.693865 47.259446 130.937611 46.284444 127.900107 46.293819 Z M 127.900107 46.293819 " transform="matrix(1.249998,0,0,1.249998,0.000105091,0)"/>
<path style=" stroke:none;fill-rule:nonzero;fill:rgb(33.333333%,60%,100%);fill-opacity:1;" d="M 24.226562 101.890625 C 24.839844 101.332031 25.757812 102.101562 27.714844 99.460938 C 28.75 98.824219 29.9375 100.5625 31.851562 101.8125 C 33.199219 102.691406 31.847656 100.785156 33.441406 102.164062 C 34.769531 103.316406 36.792969 104.929688 38.320312 106.40625 C 40.375 108.390625 41.703125 110.425781 43.753906 112.5 C 45.113281 113.878906 47.535156 115.796875 48.742188 117.007812 C 50.441406 118.703125 51.167969 119.394531 52.214844 120.4375 C 52.214844 120.4375 52.910156 120.960938 53.113281 120.765625 C 53.113281 120.765625 53.882812 120.648438 53.539062 120.199219 C 52.699219 119.105469 51.800781 118.234375 50.109375 116.441406 C 48.417969 114.648438 47.214844 113.386719 46.496094 112.523438 C 43.773438 109.082031 40.855469 105.140625 38.355469 102.8125 C 35.15625 99.898438 29.863281 97.007812 27.324219 94.875 C 26.492188 95.296875 26.1875 96.257812 25.699219 97.078125 C 25.519531 97.355469 25.210938 98.15625 25.003906 98.570312 C 24.585938 99.398438 24.210938 99.933594 23.910156 100.445312 C 23.75 100.71875 23.402344 101.527344 23.277344 101.722656 C 23.152344 101.917969 23.613281 102.445312 24.226562 101.890625 Z M 25.039062 82.542969 C 24.613281 82.785156 22.910156 83.761719 22.285156 84.453125 C 22.273438 84.472656 22.253906 84.484375 22.234375 84.5 C 19 86.753906 15.785156 89.46875 13.46875 92.773438 C 13.082031 95.203125 13.523438 95.652344 15.164062 97.324219 C 16.796875 98.984375 19.371094 100.722656 19.9375 101.738281 C 20.503906 102.75 21.03125 100.984375 20.828125 100.785156 C 20.628906 100.585938 20.035156 99.878906 19.675781 99.359375 C 19.316406 98.839844 18.988281 98.3125 18.726562 97.894531 C 18.59375 97.683594 18.476562 97.503906 18.386719 97.367188 C 18.292969 97.226562 18.207031 97.128906 18.207031 97.125 C 17.113281 96.152344 16.402344 95.683594 15.847656 95.214844 C 15.292969 94.746094 15.425781 94.328125 15.09375 93.445312 C 14.914062 92.96875 15.144531 93.726562 15.273438 93.328125 C 15.398438 92.929688 15.648438 92.59375 15.953125 92.289062 C 16.5625 91.671875 17.222656 91.558594 17.941406 90.910156 C 19.101562 89.476562 20.289062 88.703125 21.882812 86.691406 C 21.894531 86.675781 21.90625 86.664062 21.917969 86.65625 C 22.167969 86.425781 22.496094 86.386719 22.78125 86.402344 C 23.070312 86.417969 23.351562 86.484375 23.589844 86.523438 C 23.832031 86.5625 24.027344 86.5625 24.089844 86.535156 C 24.125 86.523438 24.128906 86.519531 24.144531 86.492188 C 24.164062 86.464844 24.1875 86.398438 24.1875 86.28125 C 24.203125 85.734375 24.449219 85.199219 24.863281 84.660156 C 25.308594 84.082031 26.140625 82.789062 26.140625 82.789062 C 26.695312 82.167969 25.039062 82.542969 25.039062 82.542969 Z M 29.148438 77.472656 C 29.492188 76.972656 30.027344 76.109375 31.3125 74.765625 C 32.460938 73.5625 34.242188 72.425781 36.972656 72.023438 C 37.453125 71.953125 37.230469 71.65625 38.988281 70.851562 C 40.746094 70.042969 44.71875 69.574219 46.449219 70.019531 C 48.179688 70.460938 48.523438 70.378906 49.867188 71.6875 C 51.832031 72.328125 53.644531 74.089844 55.292969 76.300781 C 56.941406 78.507812 58.367188 81.207031 58.5625 83.324219 C 58.644531 84.199219 58.757812 85.511719 58.851562 86.722656 C 58.972656 88.277344 59.027344 89.792969 58.597656 91.359375 C 57.878906 93.953125 55.472656 95.179688 55.425781 96.382812 C 55.402344 97.097656 57.164062 95.433594 57.5 95.726562 C 58.265625 96.390625 57.621094 98.554688 57.035156 99.605469 C 56.824219 100.921875 56.40625 102.777344 56.773438 105.101562 C 57.160156 108.300781 57.238281 104.007812 57.667969 103.21875 C 57.613281 102.289062 58.316406 100.773438 58.40625 99.84375 C 58.566406 98.144531 58.957031 96.433594 59.546875 94.695312 C 59.660156 94.023438 60.71875 93.15625 60.773438 92.488281 C 61.03125 89.398438 61.207031 86.222656 60.511719 83.089844 C 60.308594 82.179688 60.300781 80.941406 60 80.066406 C 59.292969 78 57.25 76.503906 55.707031 74.765625 C 53.875 72.699219 52.449219 70.539062 50.605469 70.074219 C 49.953125 69.910156 46.304688 67.761719 43.5625 68.367188 C 43.074219 68.640625 42.683594 66.863281 42.246094 66.632812 C 41.648438 66.320312 40.871094 66.738281 39.65625 67.734375 C 37.566406 69.453125 35.820312 71.46875 32.992188 72.027344 C 30.457031 73.457031 28.296875 76.941406 27.546875 78.234375 C 26.796875 79.53125 28.421875 78.511719 29.148438 77.472656 Z M 29.148438 77.472656 "/>
<path style="fill:none;stroke-width:1.440002;stroke-linecap:round;stroke-linejoin:miter;stroke:rgb(33.333333%,60%,100%);stroke-opacity:1;stroke-miterlimit:4;" d="M 77.500032 58.750088 C 79.687535 62.187593 80.937537 65.312597 80.937537 70.937606 C 80.937537 76.562614 81.562538 78.125117 81.562538 78.125117 M 43.762481 47.456321 C 43.762481 47.456321 46.831236 46.578195 47.678112 46.262569 C 49.065614 45.750068 51.159367 45.993819 51.712493 45.903194 C 53.16562 45.668818 55.043748 45.743818 56.13125 46.075069 C 59.043754 46.95632 60.343756 49.590699 61.281257 50.143825 C 63.03126 51.175076 65.106263 52.371953 65.387514 53.665705 C 66.46564 58.631338 70.937522 65.150097 70.937522 71.250106 C 70.937522 78.465742 71.228147 90.887636 74.031276 92.931389 M 75.953154 93.822015 C 80.434411 95.925143 90.121925 101.215776 93.125055 105.312657 C 96.56256 110.000164 96.56256 109.687664 96.56256 109.687664 M 37.940598 55.296958 C 41.024977 54.900082 43.599981 53.34383 46.099985 53.284455 C 49.099989 53.212579 52.565619 54.350081 53.137495 56.259459 C 53.762496 58.353212 54.668748 60.021965 55.624999 63.125094 C 56.875001 67.1876 62.81251 96.250144 67.187516 98.750147 C 68.168768 99.312648 68.884394 99.747024 69.403145 100.097024 M 70.696896 101.797027 C 70.671896 101.997027 70.625021 102.215778 70.625021 102.500153 C 70.625021 103.750155 76.56253 111.562667 83.12504 112.500168 C 89.68755 113.437669 89.375049 113.437669 89.375049 113.437669 " transform="matrix(1.249998,0,0,1.249998,0.000105091,0)"/>
</g>
</svg>
