<?xml version="1.0" encoding="UTF-8"?>
<svg xmlns="http://www.w3.org/2000/svg" xmlns:xlink="http://www.w3.org/1999/xlink" width="449pt" height="250pt" viewBox="0 0 449 250" version="1.1">
<g id="surface16">
<path style="fill-rule:nonzero;fill:rgb(30.980393%,23.921569%,23.921569%);fill-opacity:1;stroke-width:1.40879;stroke-linecap:butt;stroke-linejoin:miter;stroke:rgb(0%,0%,0%);stroke-opacity:1;stroke-miterlimit:4;" d="M 479.989419 362.000291 C 479.989419 362.000291 491.501277 363.496286 497.99671 365.505613 C 504.492143 367.500274 519.510925 376.490913 527.500613 387.00688 C 535.505547 397.508181 550.493835 406.000155 557.995602 409.490811 C 565.512617 412.996134 565.512617 427.002757 564.994202 435.509397 C 564.506283 444.001371 554.000759 468.01063 549.502748 474.009279 C 545.004737 479.99326 526.509525 530.505104 516.507169 543.998396 C 506.489565 557.491688 470.00231 625.999476 461.006288 637.996773 C 452.010266 649.994069 425.998039 646.004748 408.997083 664.998023 C 392.011373 683.991297 371.000326 674.003328 345.003347 678.505981 C 324.403981 682.06997 303.499666 676.012655 303.499666 676.012655 M 67.392208 518.199809 C 59.448263 508.519839 58.823116 496.375876 80.001886 478.673264 C 111.335488 449.662687 172.67616 395.997519 198.002249 375.317583 C 223.328338 354.66698 291.332165 307.337793 318.655676 292.671172 C 348.007103 270.011241 352.001947 263.997927 382.679907 246.324648 C 418.679242 220.672727 483.679312 190.679486 497.661265 188.31816 C 511.658466 185.986167 536.984554 180.662184 565.68034 186.675499 C 594.330383 192.674147 647.010477 193.334145 657.668476 193.671477 C 668.326475 193.994143 724.330524 214.674079 761.991836 219.338065 C 799.668396 224.00205 883.666845 262.663264 929.988734 265.332589 C 976.325871 268.001914 1045.320785 315.316435 1073.681126 324.673739 C 1101.995724 333.987044 1175.671619 389.338873 1191.346043 397.99218 C 1207.005221 406.660153 1260.32571 427.662755 1280.665868 430.992078 C 1301.006026 434.336068 1320.995492 438.002723 1335.00794 438.002723 C 1349.00514 438.002723 1360.989671 440.672048 1385.004475 432.326741 C 1409.004032 423.9961 1402.996519 426.680091 1421.324008 422.998769 C 1439.666744 419.332114 1440.673079 427.662755 1442.670501 434.336068 C 1444.667923 440.994714 1452.65761 456.321333 1450.339991 466.001303 C 1448.007124 475.666607 1445.003368 487.341237 1444.31723 495.671878 C 1443.661588 503.987853 1440.002189 508.329173 1441.008524 519.329139 C 1441.999611 530.343771 1448.342569 554.998362 1443.341391 562.669005 C 1438.324965 570.324981 1432.012502 581.999612 1427.331521 585.680934 C 1422.665788 589.332923 1405.680078 599.995557 1399.337121 602.327549 C 1393.00941 604.674209 1389.319516 608.003532 1386.01081 608.003532 C 1382.671609 608.003532 1368.323716 606.331537 1356.659382 606.991535 C 1344.995049 607.6662 1309.331158 612.990183 1293.321289 619.326164 C 1277.326667 625.662144 1269.001535 629.006134 1253.342357 634.007452 C 1237.667933 638.994103 1236.997043 642.338093 1214.003821 650.668733 C 1191.010598 659.014041 1157.999772 653.660724 1137.003972 661.008702 C 1115.992924 668.327346 1074.99241 677.655317 1059.333233 684.680629 C 1043.674056 691.676607 998.343254 698.995251 988.676342 702.339241 C 978.994183 705.68323 899.996912 722.329846 889.674358 724.999171 C 879.321309 727.668496 883.666845 725.996501 851.662353 727.668496 C 819.673109 729.325824 813.680843 728.005828 802.336707 730.660487 C 791.007819 733.329812 771.003105 730.997819 761.336194 730.660487 C 751.669282 730.337821 665.993608 726.993831 641.002964 721.669848 C 615.997073 716.331198 615.34143 714.673869 587.667227 715.333867 C 559.993024 715.993865 480.324864 717.005862 468.340333 715.333867 C 456.340554 713.661872 393.002461 706.665894 362.659946 699.669916 C 332.332679 692.659271 340.322366 690.679277 337.01366 689.344614 C 333.674458 687.995285 318.655676 679.327312 300.663632 675.000658 C 282.671588 670.659338 237.325538 659.336707 198.002249 635.327447 C 158.663712 611.318188 132.331289 598.675561 115.665777 588.335592 C 99.000265 577.995624 45.008886 537.999748 48.012642 529.683773 C 51.001151 521.323799 58.579156 511.922495 63.260137 512.259827 M 144.331067 446.318697 C 141.007113 448.665357 139.665334 451.672014 139.665334 451.672014 M 121.993487 463.317312 C 124.326354 468.01063 125.332689 470.342623 125.332689 470.005291 " transform="matrix(-0.25619,0,0,0.266336,451.74956,-12.683259)"/>
<path style=" stroke:none;fill-rule:nonzero;fill:rgb(36.862746%,27.843139%,27.843139%);fill-opacity:1;" d="M 434.484375 125.332031 C 436.519531 122.753906 436.679688 119.519531 431.253906 114.804688 C 423.226562 107.078125 407.515625 92.785156 401.023438 87.277344 C 394.535156 81.777344 377.113281 69.171875 370.113281 65.265625 C 362.59375 59.230469 361.570312 57.628906 353.710938 52.921875 C 344.492188 46.089844 327.835938 38.101562 324.253906 37.472656 C 322.378906 37.152344 331.324219 54.320312 305.335938 91.585938 C 299.796875 99.53125 277.3125 132.1875 263.453125 142.722656 C 247.214844 155.0625 233.035156 153.773438 223.484375 163.5 C 206.226562 181.058594 223.203125 180.242188 223.824219 180.410156 C 226.476562 181.121094 225.363281 180.675781 233.5625 181.121094 C 241.757812 181.5625 243.296875 181.210938 246.203125 181.917969 C 249.101562 182.628906 254.226562 182.007812 256.703125 181.917969 C 259.179688 181.832031 281.128906 180.941406 287.53125 179.523438 C 293.9375 178.101562 294.105469 177.660156 301.195312 177.835938 C 308.285156 178.011719 328.695312 178.28125 331.765625 177.835938 C 334.839844 177.390625 351.066406 175.527344 358.839844 173.664062 C 366.609375 171.796875 364.5625 171.269531 365.410156 170.914062 C 366.265625 170.554688 370.113281 168.246094 374.722656 167.09375 C 379.332031 165.9375 390.949219 162.921875 401.023438 156.527344 C 411.101562 150.132812 417.847656 146.765625 422.117188 144.011719 C 426.386719 141.257812 440.21875 130.605469 439.449219 128.390625 C 438.683594 126.164062 436.742188 123.660156 435.542969 123.75 "/>
<path style="fill-rule:nonzero;fill:rgb(43.137255%,34.117648%,34.117648%);fill-opacity:1;stroke-width:1.40879;stroke-linecap:butt;stroke-linejoin:miter;stroke:rgb(0%,0%,0%);stroke-opacity:1;stroke-miterlimit:4;" d="M 86.497319 533.497095 C 80.992974 530.373105 67.620921 521.118467 63.260137 512.259827 C 58.579156 511.922495 51.001151 521.323799 48.012642 529.683773 C 45.008886 537.999748 99.000265 577.995624 115.665777 588.335592 C 132.331289 598.675561 158.663712 611.318188 198.002249 635.327447 C 209.31589 640.666098 215.338651 625.999476 221.330916 617.331503 C 227.338429 608.66353 239.32296 582.65961 227.338429 575.326299 C 215.338651 567.992989 190.668204 558.665017 177.997536 555.321028 C 165.342115 552.006371 142.66909 543.998396 123.990909 529.331775 C 106.669755 511.995828 77.989217 482.677252 68.459533 490.318562 C 59.539748 501.978526 61.308458 510.807832 67.392208 518.199809 C 73.231999 525.26912 82.975148 531.033103 91.010578 536.679752 C 94.502254 539.994408 96.758883 541.241071 100.662242 544.673061 C 101.577092 545.626391 124.372096 562.786338 135.990687 575.326299 C 176.396549 616.114173 163.314198 610.65819 199.999671 625.999476 " transform="matrix(-0.25619,0,0,0.266336,451.74956,-12.683259)"/>
<path style="fill-rule:nonzero;fill:rgb(67.058825%,56.862748%,56.862748%);fill-opacity:1;stroke-width:1.40879;stroke-linecap:butt;stroke-linejoin:miter;stroke:rgb(0%,0%,0%);stroke-opacity:1;stroke-miterlimit:4;" d="M 181.50446 461.997316 C 187.496725 475.490607 198.002249 498.003871 215.994293 502.506524 C 234.001584 507.009177 235.495839 514.489154 262.5144 505.498515 C 289.502466 496.493209 287.992964 496.493209 300.00799 477.001269 C 312.007768 457.50933 310.513513 447.008029 309.004011 432.004075 C 307.49451 417.000121 289.502466 394.486857 274.498931 389.998871 C 259.495396 385.496218 236.990093 384.000223 215.994293 388.502876 C 194.998493 393.005529 192.009984 406.49882 187.496725 414.00813 C 182.998714 421.502774 175.496947 448.504024 181.50446 461.997316 Z M 181.50446 461.997316 " transform="matrix(-0.25619,0,0,0.266336,451.74956,-12.683259)"/>
<path style="fill-rule:nonzero;fill:rgb(15.686275%,11.764706%,11.764706%);fill-opacity:1;stroke-width:1.40879;stroke-linecap:butt;stroke-linejoin:miter;stroke:rgb(0%,0%,0%);stroke-opacity:1;stroke-miterlimit:4;" d="M 240.009097 408.009482 C 223.511308 409.490811 215.994293 408.009482 208.492525 418.510783 C 201.006005 429.012084 196.675717 467.321299 206.495104 480.506592 C 213.493704 485.009245 220.004384 488.983899 229.503573 488.983899 C 238.987515 488.983899 253.50313 488.001235 259.998563 485.009245 C 266.509243 482.002587 275.505265 482.999918 280.994363 475.490607 C 286.498709 468.01063 289.014546 464.006643 288.496131 452.493345 C 287.992964 440.994714 287.992964 432.986739 282.991785 425.99076 C 277.990607 418.994782 274.498931 409.490811 264.999741 406.997485 C 255.500552 404.50416 256.491639 406.49882 240.009097 408.009482 Z M 240.009097 408.009482 " transform="matrix(-0.25619,0,0,0.266336,451.74956,-12.683259)"/>
<path style=" stroke:none;fill-rule:nonzero;fill:rgb(100%,100%,100%);fill-opacity:1;" d="M 399.871094 105.039062 C 399.359375 105.703125 398.71875 105.96875 397.054688 105.433594 C 395.386719 104.902344 394.875 103.972656 391.800781 103.839844 C 388.726562 103.703125 387.320312 103.703125 385.910156 103.972656 C 384.496094 104.238281 383.601562 103.308594 383.347656 103.972656 C 383.089844 104.636719 381.042969 105.171875 384.117188 105.835938 C 387.1875 106.5 387.699219 108.101562 390.011719 108.101562 C 392.316406 108.101562 392.441406 109.167969 394.746094 108.898438 C 397.054688 108.632812 399.359375 109.964844 399.484375 110.628906 C 399.617188 111.296875 402.222656 110.183594 402.222656 109.121094 C 402.222656 108.054688 400.382812 104.371094 399.871094 105.039062 Z M 399.871094 105.039062 "/>
<path style="fill-rule:nonzero;fill:rgb(29.019609%,21.960784%,21.960784%);fill-opacity:1;stroke-width:1.76099;stroke-linecap:butt;stroke-linejoin:miter;stroke:rgb(0%,0%,0%);stroke-opacity:1;stroke-miterlimit:4;" d="M 985.194045 59.544839 C 979.743079 59.508172 970.994849 64.164819 967.487934 65.851478 C 959.597374 69.591462 947.914009 75.421438 939.585085 79.60142 C 931.256161 83.744735 924.585398 86.256391 912.082482 95.001354 C 899.598626 103.746316 879.586337 121.657906 870.838107 124.572894 C 862.089878 127.487882 865.005955 127.487882 862.909429 122.482903 C 860.831963 117.514591 860.831963 114.159605 862.909429 96.248015 C 865.005955 78.336425 857.096336 91.26137 843.73575 98.759671 C 830.413284 106.239639 829.174428 110.419621 816.671512 122.097905 C 804.149537 133.757855 797.497833 135.407848 788.768663 137.919504 C 780.001374 140.412826 776.665993 135.407848 774.169222 123.747898 C 773.483086 120.539578 777.942968 107.761299 773.349671 109.594625 C 761.170763 114.416271 732.009999 145.234472 724.157558 154.602766 C 713.350922 167.491044 698.751481 171.249361 697.912871 169.177703 C 697.07426 167.087712 694.577489 165.841051 692.919328 165.841051 C 691.261167 165.841051 675.40381 179.150994 669.590717 183.734308 C 663.739505 188.335955 604.598426 238.349074 622.075825 235.39742 C 639.572283 232.482432 671.267937 225.827461 707.099464 233.344095 C 742.911932 240.842397 808.761893 241.667393 822.084359 242.089058 C 835.406826 242.49239 905.411719 268.342279 952.488247 274.172254 C 999.583834 280.002229 1104.581644 328.328689 1162.483867 331.665342 C 1220.405149 335.001994 1306.648585 394.145074 1342.079867 405.841691 C 1377.492089 417.483308 1469.586737 486.673012 1489.179721 497.489633 C 1502.788078 505.042934 1539.172325 520.039536 1568.638038 529.847827 C 1581.5412 534.174476 1569.571945 522.899524 1575.404098 520.00287 C 1581.236251 517.087882 1604.583921 520.00287 1615.828922 520.406201 C 1627.073922 520.827866 1659.150763 516.244552 1670.834128 511.239574 C 1682.498433 506.234595 1677.504891 473.748067 1677.924196 464.178108 C 1678.152908 459.209796 1683.16551 439.061549 1680.420967 419.573299 C 1677.828899 401.38671 1667.460628 383.805119 1666.660136 379.166805 C 1665.840585 374.436825 1657.206712 355.498573 1645.847355 337.916982 C 1634.202109 319.877059 1619.81232 303.175464 1617.506142 298.738816 C 1612.893786 290.012186 1572.068716 252.924012 1564.578402 247.919033 C 1557.088089 242.914055 1508.3534 209.584197 1500.424722 205.844213 C 1492.496043 202.085896 1480.012187 191.250942 1452.909829 184.595971 C 1441.512354 181.772649 1430.38171 176.052674 1418.336218 173.339352 C 1401.697429 169.581035 1384.906165 169.287703 1377.911394 170.0027 C 1365.827783 171.249361 1362.930766 170.0027 1355.840698 169.177703 C 1348.73157 168.352707 1350.828096 167.087712 1341.660562 168.756038 C 1332.493027 170.406031 1328.738341 173.339352 1321.248027 176.25434 C 1313.757713 179.150994 1310.422331 177.922666 1302.493653 178.325997 C 1294.584034 178.747662 1293.764483 172.917687 1290.410042 170.846029 C 1287.09372 168.756038 1280.403898 170.406031 1265.842575 170.846029 C 1251.243134 171.249361 1255.85549 170.0027 1252.081744 163.347728 C 1248.327057 156.65609 1247.507506 150.826115 1247.507506 150.826115 C 1247.507506 150.826115 1241.256048 149.597787 1232.908065 150.001119 C 1224.579141 150.422783 1222.08237 147.507796 1217.088827 143.327814 C 1212.095284 139.166165 1213.33414 138.762833 1207.921293 128.349545 C 1202.489386 117.917922 1206.244072 122.904568 1199.173063 122.097905 C 1192.082995 121.254575 1189.586224 122.482903 1173.747927 122.482903 C 1157.909629 122.482903 1166.657859 119.604582 1161.664316 113.73794 C 1156.651714 107.907965 1157.490324 105.817974 1157.490324 105.817974 C 1157.490324 105.817974 1149.599764 108.32963 1143.348307 109.594625 C 1137.096849 110.822953 1132.084247 114.599603 1121.258551 112.912944 C 1110.413797 111.244618 1115.007093 105.414643 1115.007093 105.414643 L 1111.652653 95.001354 C 1111.652653 95.001354 1098.349245 100.006332 1091.240118 102.499655 C 1084.169109 104.992978 1077.0981 106.239639 1072.924108 104.992978 C 1068.750117 103.746316 1067.492201 97.091345 1062.917964 82.516407 C 1058.324667 67.904803 1053.331124 71.66312 1046.260116 73.331446 C 1039.150988 74.999773 1036.654217 76.649766 1029.983454 80.004751 C 1023.350809 83.341404 1000.003139 91.664701 996.248452 91.26137 C 992.512825 90.839705 986.661613 90.839705 987.500223 80.004751 C 987.88141 75.036439 991.921986 63.119823 988.338833 60.406502 C 987.538342 59.819838 986.47102 59.563172 985.194045 59.544839 Z M 985.194045 59.544839 " transform="matrix(-0.204952,0,0,0.213069,451.74971,-12.683259)"/>
<path style="fill-rule:nonzero;fill:rgb(22.745098%,18.039216%,18.039216%);fill-opacity:1;stroke-width:1.40879;stroke-linecap:butt;stroke-linejoin:miter;stroke:rgb(0%,0%,0%);stroke-opacity:1;stroke-miterlimit:4;" d="M 921.49588 243.992655 C 922.502214 235.999346 929.988734 225.498046 935.49308 217.504737 C 940.997425 209.496762 959.507884 196.487468 971.507663 187.496829 C 983.492194 178.506191 985.504863 175.000868 998.998896 161.49291 C 1012.508176 147.999618 1014.353123 154.232932 1017.631335 146.004957 C 1011.151149 148.996948 998.007809 158.500919 991.009209 163.003572 C 984.010608 167.506224 979.49735 170.498215 970.501328 177.494194 C 961.505306 184.504839 952.006117 188.508826 944.489102 196.487468 C 937.002582 204.495444 931.498236 206.006106 927.015473 208.998096 C 922.502214 212.004754 904.99809 227.507373 897.496323 233.506021 C 890.009803 239.490002 887.006046 240.003334 883.011203 235.002016 C 878.985864 230.000698 886.502879 224.500715 892.007224 216.507407 C 897.496323 208.499431 904.99809 202.002118 914.512527 191.999482 C 923.996469 182.011513 923.508549 183.492842 935.49308 171.994211 C 947.492858 160.510246 948.499193 163.502237 964.509062 148.498283 C 969.083311 143.262299 978.536758 136.368987 977.835373 134.35966 C 971.233208 137.498317 963.990648 142.9983 949.49028 151.490274 C 935.00516 159.996914 927.015473 165.995562 921.49588 168.488888 C 915.991534 170.99688 883.011203 192.498147 864.500744 212.503419 C 846.005533 232.494024 844.496031 215.994075 849.497209 204.495444 C 854.513635 193.011479 859.484318 193.495478 865.994998 184.006174 C 872.505679 174.502203 895.010981 155.992927 916.509949 137.996982 C 938.008916 120.001038 938.008916 119.487706 927.015473 125.002356 C 915.991534 130.502339 911.50877 133.010331 902.497501 139.008979 C 893.501479 144.992961 881.98962 150.991609 870.508257 161.991575 C 858.996398 172.991541 883.011203 151.490274 833.502587 192.498147 C 784.009218 233.506021 821.990728 195.504805 823.50023 186.998164 C 824.994485 178.506191 829.507743 170.498215 837.009511 160.510246 C 844.496031 150.50761 858.005311 143.99563 889.491388 118.505042 C 920.992712 92.999788 901.003246 104.483752 892.007224 108.003741 C 883.011203 111.509064 878.985864 116.99438 868.510835 122.993029 C 858.005311 129.006343 846.99662 139.008979 838.000598 145.506292 C 828.989328 152.003606 825.497652 159.498249 796.008997 178.990189 C 766.505094 198.496796 767.511429 189.007491 771.506273 179.488854 C 775.501116 169.99955 782.011797 165.995562 793.49316 151.490274 C 805.005019 136.999652 817.507965 129.490342 839.494852 112.491728 C 861.512235 95.493113 858.996398 88.497135 842.498609 103.501089 C 826.000819 118.505042 830.49883 111.010399 819.993306 118.505042 C 809.487782 126.014353 808.999863 128.507678 759.994414 161.008911 C 711.004213 193.495478 730.505759 168.488888 732.503181 154.995596 C 733.585753 147.691619 745.112859 135.092991 759.994414 122.905029 C 771.613005 113.401058 785.51872 100.083766 798.006419 92.721122 C 799.104238 92.075791 805.828384 88.790467 806.910956 88.189136 C 813.635101 82.923819 819.322417 80.151827 821.640036 73.273182 C 807.124421 83.261151 798.997506 86.502474 789.498317 93.498453 C 780.014375 100.509098 771.003105 105.495749 766.001927 107.006411 C 761.000749 108.48774 754.490068 115.513052 709.997878 152.003606 C 665.505689 188.508826 691.502667 152.502271 693.500089 140.490308 C 695.497511 128.507678 729.499424 101.007763 752.492647 77.497169 C 775.501116 54.001241 750.007305 73.009183 739.501781 80.48916 C 728.996257 87.99847 725.001413 88.9958 712.513715 99.497101 C 699.995522 109.998402 677.993387 127.994346 670.506867 133.010331 C 663.005099 137.996982 646.004143 154.496931 635.010699 169.500885 C 624.002008 184.504839 619.503997 177.494194 619.000829 177.494194 C 618.497662 177.494194 619.503997 167.007559 620.998251 161.49291 C 622.507753 155.992927 639.005542 131.001004 647.010477 122.993029 C 655.000165 114.99972 670.003699 90.990461 667.50311 94.495783 C 665.002521 97.986439 655.488084 105.994414 649.007899 112.990393 C 642.497219 120.001038 606.497883 152.502271 600.49037 158.500919 C 594.498105 164.4849 588.50584 175.998198 580.988825 179.488854 C 573.502305 182.994177 574.508639 176.496863 572.999137 172.991541 C 571.504883 169.500885 585.014163 137.498317 589.496927 129.490342 C 594.010185 121.497033 606.497883 103.002424 601.999872 107.505076 C 597.501861 111.993062 593.003851 118.505042 588.50584 122.50903 C 583.992581 126.498351 582.498327 126.014353 571.992803 145.506292 C 561.487279 165.012899 550.493835 176.995529 545.004737 177.494194 C 539.500391 178.007525 535.505547 175.5142 536.008715 173.504873 C 536.496635 171.510212 540.003558 162.49024 542.504148 157.503589 C 545.004737 152.502271 555.495013 137.498317 554.488679 135.503657 C 553.497591 133.494329 539.500391 151.490274 532.501791 161.991575 C 525.503191 172.492876 483.679312 190.679486 497.661265 188.31816 C 511.658466 185.986167 536.984554 180.662184 565.68034 186.675499 C 594.330383 192.674147 647.010477 193.334145 657.668476 193.671477 C 668.326475 193.994143 724.330524 214.674079 761.991836 219.338065 C 799.668396 224.00205 883.666845 262.663264 929.988734 265.332589 C 932.336848 265.479255 920.504792 252.00063 921.49588 243.992655 Z M 921.49588 243.992655 " transform="matrix(-0.25619,0,0,0.266336,451.74956,-12.683259)"/>
<path style="fill-rule:nonzero;fill:rgb(29.019609%,21.960784%,21.960784%);fill-opacity:1;stroke-width:1.76099;stroke-linecap:round;stroke-linejoin:round;stroke:rgb(0%,0%,0%);stroke-opacity:1;stroke-miterlimit:4;" d="M 749.563636 893.781271 C 747.676763 893.799604 743.23594 893.964604 734.583008 894.166269 C 721.756084 894.459601 699.990337 894.826267 676.947615 895.064599 C 699.990337 925.846134 683.751794 904.579558 695.835404 953.327683 C 695.835404 953.327683 712.093007 1009.995774 715.409329 1025.01071 C 718.744711 1039.988979 744.589152 1098.747061 749.582695 1106.245362 C 754.576238 1113.761997 772.091755 1131.251922 777.085298 1140.840214 C 782.0979 1150.410174 789.98846 1162.510122 798.336443 1175.3984 C 806.646308 1188.341678 806.646308 1194.15332 820.426198 1208.343259 C 834.16797 1222.496532 840.838733 1232.506489 844.59342 1232.506489 C 848.348106 1232.506489 846.232522 1235.421477 852.903285 1224.164858 C 859.593107 1212.90824 867.902972 1193.328323 873.754184 1189.991671 C 879.586337 1186.673352 887.915261 1166.250106 887.915261 1166.250106 L 893.347168 1150.410174 C 893.347168 1150.410174 899.998872 1143.755202 903.334253 1128.336935 C 906.669635 1112.900334 907.908491 1097.5004 912.902033 1088.737104 C 917.914635 1079.992141 923.327483 1055.828911 923.327483 1055.828911 C 923.327483 1055.828911 928.340085 1029.997355 923.765847 1019.584066 C 919.153491 1009.152444 905.411719 987.922535 904.992414 987.922535 C 904.592168 987.922535 890.850397 972.082603 865.4062 959.157658 C 840.000123 946.251047 819.587588 926.67113 809.581444 924.984471 C 799.594358 923.334478 780.001374 914.149517 780.001374 913.746186 C 780.001374 913.324521 767.498459 908.337875 754.576238 907.494546 C 748.763144 907.494546 741.654017 900.417909 741.654017 900.417909 C 737.861211 894.991266 755.224255 893.726271 749.563636 893.781271 Z M 749.563636 893.781271 " transform="matrix(-0.204952,0,0,0.213069,451.74971,-12.683259)"/>
<path style="fill-rule:nonzero;fill:rgb(29.019609%,21.960784%,21.960784%);fill-opacity:1;stroke-width:1.76099;stroke-linecap:round;stroke-linejoin:round;stroke:rgb(0%,0%,0%);stroke-opacity:1;stroke-miterlimit:4;" d="M 1517.482816 813.334948 C 1488.760416 823.76657 1447.496982 817.074932 1421.252294 826.259893 C 1394.988547 835.408187 1343.738028 847.068137 1324.164103 855.849767 C 1304.590178 864.594729 1247.926811 873.743023 1235.843201 877.923006 C 1223.75959 882.102988 1124.994179 902.911232 1112.091017 906.247884 C 1099.149737 909.584537 1101.665567 915.836177 1101.665567 915.836177 C 1101.665567 915.836177 1118.323416 939.999407 1144.987408 954.996009 C 1171.651401 969.992612 1235.004591 1008.345781 1269.158897 1015.825749 C 1303.332263 1023.32405 1384.162852 1035.845664 1405.013751 1050.823933 C 1425.826532 1065.838869 1437.490837 1066.663865 1459.999898 1072.49384 C 1482.508958 1078.342148 1500.824967 1080.853804 1515.843714 1073.33717 C 1530.843401 1065.838869 1569.99125 1048.33061 1584.152327 1033.334008 C 1598.332463 1018.337405 1603.326006 1022.499054 1616.667532 993.330845 C 1629.989999 964.162637 1639.996143 959.157658 1636.660762 927.496127 C 1633.34444 895.852929 1632.48677 871.653032 1629.170448 860.836412 C 1625.854126 849.983125 1604.145557 822.501576 1597.512912 820.851583 C 1590.842149 819.164923 1535.398579 819.98992 1535.398579 819.98992 C 1520.837256 822.501576 1522.095172 818.339927 1517.482816 813.334948 Z M 1517.482816 813.334948 " transform="matrix(-0.204952,0,0,0.213069,451.74971,-12.683259)"/>
<path style=" stroke:none;fill-rule:nonzero;fill:rgb(32.941177%,25.882354%,25.882354%);fill-opacity:1;" d="M 247.5 72.257812 C 248.785156 72.261719 250.09375 72.386719 251.410156 72.675781 C 257.425781 74.007812 275.621094 81.199219 280.101562 84.53125 C 284.585938 87.859375 289.195312 94.382812 291.121094 97.714844 C 293.039062 101.042969 299.058594 108.101562 301.75 111.296875 C 304.441406 114.492188 310.589844 122.21875 312.382812 124.613281 C 314.179688 127.011719 314.046875 130.472656 314.046875 132.070312 C 314.046875 133.671875 314.179688 135.132812 312.636719 139.527344 C 311.101562 143.925781 309.949219 148.183594 308.027344 148.449219 C 306.105469 148.714844 302.648438 148.980469 297.523438 148.449219 C 292.402344 147.917969 279.847656 146.585938 276.898438 146.183594 C 273.953125 145.789062 270.496094 146.585938 267.804688 144.722656 C 265.113281 142.859375 258.96875 139.527344 255.253906 135.664062 C 251.539062 131.800781 243.59375 124.613281 241.675781 120.882812 C 239.753906 117.15625 234.117188 106.371094 233.347656 102.507812 C 232.582031 98.644531 231.171875 89.453125 231.171875 88.125 C 231.171875 86.792969 233.09375 76.140625 236.292969 74.808594 C 238.796875 73.769531 242.9375 72.242188 247.5 72.257812 Z M 247.5 72.257812 "/>
<path style="fill-rule:nonzero;fill:rgb(100%,85.09804%,20.784314%);fill-opacity:1;stroke-width:1.76099;stroke-linecap:round;stroke-linejoin:round;stroke:rgb(0%,0%,0%);stroke-opacity:1;stroke-miterlimit:4;" d="M 2153.873608 396.070066 C 2149.146896 396.070066 2140.379607 397.61006 2122.101717 402.083374 C 2089.586512 409.985007 2035.400857 430.408253 2005.839847 442.508201 C 1976.259778 454.571483 1952.912107 460.401458 1924.170648 472.501406 C 1899.984367 480.421372 1871.662213 492.906319 1845.836831 500.844618 C 1827.082457 510.836242 1753.742182 533.349479 1776.651489 528.747832 C 1799.579854 524.164518 1800.837769 534.577807 1803.334541 542.919438 C 1805.831312 551.242736 1815.818397 570.400987 1812.92138 582.500936 C 1810.005304 594.582551 1806.250617 609.157488 1805.412007 619.58911 C 1804.573397 629.984066 1799.999159 635.410709 1801.257075 649.160651 C 1802.49593 662.928925 1810.424609 693.747127 1804.173151 703.335419 C 1797.921693 712.905378 1790.012074 727.498649 1784.160862 732.100296 C 1778.328709 736.665276 1757.096623 749.993553 1749.167945 752.90854 C 1741.258326 755.841861 1736.64597 760.00351 1732.510097 760.00351 C 1728.336105 760.00351 1780.84454 770.416799 1790.831625 774.981779 C 1800.837769 779.583426 1870.823603 809.154966 1890.416587 814.58161 C 1910.009571 819.98992 1999.988635 852.898113 2009.594533 853.759776 C 2019.162313 854.584772 2101.250817 878.748002 2108.321826 878.326337 C 2115.411894 877.923006 2139.159811 877.923006 2139.159811 877.923006 L 2138.34026 799.163342 C 2138.34026 799.163342 2126.656895 737.930271 2120.005191 725.408658 C 2113.334428 712.905378 2099.154292 670.848891 2094.160749 666.668909 C 2089.148147 662.50726 2083.335054 648.317321 2083.335054 648.317321 C 2083.335054 648.317321 2087.08974 639.590691 2092.083283 632.074057 C 2102.089428 619.149112 2107.502275 594.985882 2112.915123 581.235941 C 2125.818285 557.091044 2137.082344 521.249531 2140.01748 507.921255 C 2140.01748 507.921255 2158.752795 438.749884 2158.752795 438.328219 C 2158.752795 437.924887 2162.907727 401.240044 2160.01071 398.325057 C 2158.733735 397.060062 2157.532998 396.106733 2153.873608 396.070066 Z M 2153.873608 396.070066 " transform="matrix(-0.204952,0,0,0.213069,451.74971,-12.683259)"/>
<path style=" stroke:none;fill-rule:nonzero;fill:rgb(38.82353%,29.803923%,29.803923%);fill-opacity:1;" d="M 296.15625 104.570312 C 298.238281 107.148438 300.40625 109.699219 301.75 111.296875 C 304.441406 114.492188 310.589844 122.21875 312.382812 124.613281 C 314.179688 127.011719 314.046875 130.472656 314.046875 132.070312 C 314.046875 133.671875 314.179688 135.132812 312.636719 139.527344 C 311.101562 143.925781 309.949219 148.183594 308.027344 148.449219 C 306.105469 148.714844 302.648438 148.980469 297.523438 148.449219 C 292.402344 147.917969 279.847656 146.585938 276.898438 146.183594 C 273.953125 145.789062 270.496094 146.585938 267.804688 144.722656 C 266.875 144.074219 265.515625 143.25 264.003906 142.292969 C 273.574219 134.742188 286.960938 117.285156 296.15625 104.570312 Z M 296.15625 104.570312 "/>
<path style="fill:none;stroke-width:1.40879;stroke-linecap:butt;stroke-linejoin:miter;stroke:rgb(0%,0%,0%);stroke-opacity:1;stroke-miterlimit:4;" d="M 479.989419 362.000291 C 479.989419 362.000291 491.501277 363.496286 497.99671 365.505613 C 504.492143 367.500274 519.510925 376.490913 527.500613 387.00688 C 535.505547 397.508181 550.493835 406.000155 557.995602 409.490811 C 565.512617 412.996134 565.512617 427.002757 564.994202 435.509397 C 564.506283 444.001371 554.000759 468.01063 549.502748 474.009279 C 545.004737 479.99326 526.509525 530.505104 516.507169 543.998396 C 506.489565 557.491688 470.00231 625.999476 461.006288 637.996773 C 452.010266 649.994069 425.998039 646.004748 408.997083 664.998023 C 392.011373 683.991297 371.000326 674.003328 345.003347 678.505981 C 324.403981 682.06997 303.499666 676.012655 303.499666 676.012655 M 67.392208 518.199809 C 59.448263 508.519839 58.823116 496.375876 80.001886 478.673264 C 111.335488 449.662687 172.67616 395.997519 198.002249 375.317583 C 223.328338 354.66698 291.332165 307.337793 318.655676 292.671172 C 348.007103 270.011241 352.001947 263.997927 382.679907 246.324648 C 418.679242 220.672727 483.679312 190.679486 497.661265 188.31816 C 511.658466 185.986167 536.984554 180.662184 565.68034 186.675499 C 594.330383 192.674147 647.010477 193.334145 657.668476 193.671477 C 668.326475 193.994143 724.330524 214.674079 761.991836 219.338065 C 799.668396 224.00205 883.666845 262.663264 929.988734 265.332589 C 976.325871 268.001914 1045.320785 315.316435 1073.681126 324.673739 C 1101.995724 333.987044 1175.671619 389.338873 1191.346043 397.99218 C 1207.005221 406.660153 1260.32571 427.662755 1280.665868 430.992078 C 1301.006026 434.336068 1320.995492 438.002723 1335.00794 438.002723 C 1349.00514 438.002723 1360.989671 440.672048 1385.004475 432.326741 C 1409.004032 423.9961 1402.996519 426.680091 1421.324008 422.998769 C 1439.666744 419.332114 1440.673079 427.662755 1442.670501 434.336068 C 1444.667923 440.994714 1452.65761 456.321333 1450.339991 466.001303 C 1448.007124 475.666607 1445.003368 487.341237 1444.31723 495.671878 C 1443.661588 503.987853 1440.002189 508.329173 1441.008524 519.329139 C 1441.999611 530.343771 1448.342569 554.998362 1443.341391 562.669005 C 1438.324965 570.324981 1432.012502 581.999612 1427.331521 585.680934 C 1422.665788 589.332923 1405.680078 599.995557 1399.337121 602.327549 C 1393.00941 604.674209 1389.319516 608.003532 1386.01081 608.003532 C 1382.671609 608.003532 1368.323716 606.331537 1356.659382 606.991535 C 1344.995049 607.6662 1309.331158 612.990183 1293.321289 619.326164 C 1277.326667 625.662144 1269.001535 629.006134 1253.342357 634.007452 C 1237.667933 638.994103 1236.997043 642.338093 1214.003821 650.668733 C 1191.010598 659.014041 1157.999772 653.660724 1137.003972 661.008702 C 1115.992924 668.327346 1074.99241 677.655317 1059.333233 684.680629 C 1043.674056 691.676607 998.343254 698.995251 988.676342 702.339241 C 978.994183 705.68323 899.996912 722.329846 889.674358 724.999171 C 879.321309 727.668496 883.666845 725.996501 851.662353 727.668496 C 819.673109 729.325824 813.680843 728.005828 802.336707 730.660487 C 791.007819 733.329812 771.003105 730.997819 761.336194 730.660487 C 751.669282 730.337821 665.993608 726.993831 641.002964 721.669848 C 615.997073 716.331198 615.34143 714.673869 587.667227 715.333867 C 559.993024 715.993865 480.324864 717.005862 468.340333 715.333867 C 456.340554 713.661872 393.002461 706.665894 362.659946 699.669916 C 332.332679 692.659271 340.322366 690.679277 337.01366 689.344614 C 333.674458 687.995285 318.655676 679.327312 300.663632 675.000658 C 282.671588 670.659338 237.325538 659.336707 198.002249 635.327447 C 158.663712 611.318188 132.331289 598.675561 115.665777 588.335592 C 99.000265 577.995624 45.008886 537.999748 48.012642 529.683773 C 51.001151 521.323799 58.579156 511.922495 63.260137 512.259827 M 144.331067 446.318697 C 141.007113 448.665357 139.665334 451.672014 139.665334 451.672014 M 121.993487 463.317312 C 124.326354 468.01063 125.332689 470.342623 125.332689 470.005291 " transform="matrix(-0.25619,0,0,0.266336,451.74956,-12.683259)"/>
<path style="fill:none;stroke-width:1.76099;stroke-linecap:round;stroke-linejoin:round;stroke:rgb(0%,0%,0%);stroke-opacity:1;stroke-miterlimit:4;" d="M 996.572461 398.655055 C 990.301944 398.673388 983.91707 399.278386 977.513138 400.616713 C 948.142721 406.868353 859.364395 440.619876 837.503352 456.258142 C 815.623249 471.878075 793.133248 502.494611 783.737002 518.132878 C 774.378874 533.752811 745.008458 566.881002 731.876584 581.877605 C 718.744711 596.874207 688.745336 633.137386 679.997107 644.375671 C 671.229818 655.63229 671.877835 671.875553 671.877835 679.373855 C 671.877835 686.890489 671.229818 693.747127 678.758251 714.372038 C 686.248565 735.015283 691.871065 754.998531 701.248252 756.245193 C 710.625439 757.491854 727.49294 758.738515 752.498771 756.245193 C 777.485544 753.75187 838.742208 747.50023 853.131996 745.611905 C 867.502726 743.760246 884.389286 747.50023 897.5021 738.755267 C 910.633974 730.010305 940.614289 714.372038 958.739705 696.240449 C 976.865121 678.10886 1015.631784 644.375671 1024.989911 626.867413 C 1034.367098 609.377487 1061.869701 558.75937 1065.643447 540.627781 C 1069.360015 522.496192 1076.240431 479.358043 1076.240431 473.124737 C 1076.240431 466.873097 1066.863244 416.878311 1051.253658 410.626671 C 1039.036632 405.750025 1018.83375 398.581722 996.572461 398.655055 Z M 996.572461 398.655055 " transform="matrix(-0.204952,0,0,0.213069,451.74971,-12.683259)"/>
</g>
</svg>
