<?xml version="1.0" encoding="UTF-8"?>
<!-- Created by grConvert v0.1-0 -->
<svg xmlns="http://www.w3.org/2000/svg" xmlns:xlink="http://www.w3.org/1999/xlink" width="359pt" height="200pt" viewBox="0 0 359 200" version="1.1">
<g id="surface25">
<path style="fill-rule:nonzero;fill:rgb(31.764706%,24.705882%,24.705882%);fill-opacity:1;stroke-width:1.40879;stroke-linecap:butt;stroke-linejoin:miter;stroke:rgb(0%,0%,0%);stroke-opacity:1;stroke-miterlimit:4;" d="M 479.994123 361.99331 C 479.994123 361.99331 491.503481 363.498851 497.991241 365.500117 C 504.497327 367.501384 519.507143 376.497905 527.497717 386.999966 C 535.506618 397.502027 550.498107 406.002821 557.993852 409.491267 C 565.507923 412.998074 565.507923 427.006942 564.994767 435.507736 C 564.499938 444.00853 553.998565 468.005372 549.508449 474.009173 C 545.000006 479.994613 526.508059 530.50365 516.501515 543.998431 C 506.49497 557.493212 470.005905 625.995291 461.007346 638.002892 C 452.008787 649.992132 426.002769 646.007959 408.995309 664.992453 C 392.006176 683.995308 371.003429 674.007334 344.997411 678.505595 C 324.397858 682.067482 303.505073 676.008601 303.505073 676.008601 M 67.39828 518.202285 C 59.44436 508.526435 58.821242 496.371952 80.007259 478.672675 C 111.328109 449.663486 172.668591 395.996486 197.996511 375.322849 C 223.324431 354.667572 291.335943 307.334858 318.661506 292.665021 C 348.003039 270.008477 351.998326 264.004677 382.677731 246.323759 C 418.671967 220.674495 483.67785 190.673853 497.661354 188.323742 C 511.663186 185.99199 536.991105 180.667519 565.672867 186.67132 C 594.336301 192.67512 647.008111 193.336089 657.674427 193.666573 C 668.322416 193.997058 724.329741 214.670695 761.991734 219.334198 C 799.672054 223.9977 883.664714 262.664379 929.99538 265.326614 C 976.326047 268.00721 1045.327217 315.321565 1073.679092 324.66693 C 1101.994313 333.993935 1175.66887 389.331717 1191.338458 397.997753 C 1207.008047 406.663789 1260.321302 427.667911 1280.664276 430.991116 C 1301.007251 434.33268 1321.002012 438.00473 1335.003843 438.00473 C 1349.005674 438.00473 1360.991535 440.666965 1384.99991 432.331414 C 1409.008286 423.995862 1402.997028 426.676458 1421.324032 423.004409 C 1439.669363 419.332359 1440.677349 427.667911 1442.674992 434.33268 C 1444.672635 440.99745 1452.663209 456.328255 1450.33568 466.004105 C 1448.00815 475.661595 1445.002522 487.338711 1444.324422 495.674263 C 1443.66465 503.991455 1439.999249 508.324473 1441.007235 519.32226 C 1441.996893 530.338408 1448.338036 554.996218 1443.334764 562.670801 C 1438.331492 570.327024 1432.008676 582.004141 1427.33529 585.67619 C 1422.661904 589.329879 1405.672771 599.997182 1399.331627 602.328933 C 1393.008811 604.679045 1389.325083 608.002249 1386.007895 608.002249 C 1382.672381 608.002249 1368.322337 606.331467 1356.666362 606.992436 C 1344.99206 607.671765 1309.32771 612.996236 1293.328236 619.330521 C 1277.328761 625.664806 1269.008301 629.006371 1253.338713 634.000358 C 1237.669125 638.994345 1236.991025 642.33591 1214.008962 650.671461 C 1191.008572 659.007013 1158.001638 653.664182 1136.998891 661.00828 C 1115.996145 668.334018 1074.998636 677.661023 1059.329048 684.674637 C 1043.677787 691.669891 998.336778 698.995629 988.678447 702.337194 C 979.001789 705.678759 899.994075 722.331502 889.675971 724.993738 C 879.321214 727.674334 883.664714 726.003552 851.665765 727.674334 C 819.666816 729.326756 813.673886 728.004818 802.32947 730.667054 C 791.003381 733.32929 771.00862 730.997539 761.331962 730.667054 C 751.673631 730.33657 665.994887 726.995005 640.996853 721.670533 C 615.99882 716.327702 615.339048 714.67528 587.665271 715.336249 C 559.991495 715.997217 480.324009 717.007031 468.338148 715.336249 C 456.33396 713.665466 392.995834 706.670212 362.664643 699.674959 C 332.333451 692.661344 340.324025 690.678438 337.006837 689.33814 C 333.671322 687.997842 318.661506 679.331806 300.664388 674.998788 C 282.66727 670.66577 237.326262 659.337498 197.996511 635.322296 C 158.66676 611.325454 132.330855 598.675244 115.671609 588.338426 C 98.994035 578.001607 45.002681 537.994631 48.00831 529.677439 C 50.995611 521.323527 58.582991 511.923081 63.256377 512.253565 M 144.335043 446.321921 C 140.999528 448.672033 139.661657 451.664753 139.661657 451.664753 M 121.994425 463.323509 C 124.321955 468.005372 125.32994 470.337123 125.32994 470.006639 " transform="matrix(0.213142,0,0,0.212756,-10.052888,-9.984949)"/>
<path style=" stroke:none;fill-rule:nonzero;fill:rgb(37.254902%,28.627451%,28.627451%);fill-opacity:1;" d="M 4.3125 100.265625 C 2.617188 98.207031 2.484375 95.621094 7 91.855469 C 13.675781 85.683594 26.75 74.265625 32.148438 69.867188 C 37.546875 65.472656 52.042969 55.402344 57.867188 52.28125 C 64.121094 47.460938 64.972656 46.183594 71.511719 42.421875 C 79.183594 36.964844 93.039062 30.582031 96.019531 30.082031 C 97.578125 29.824219 90.136719 43.539062 111.757812 73.308594 C 116.367188 79.65625 135.074219 105.742188 146.605469 114.15625 C 160.113281 124.015625 171.910156 122.984375 179.855469 130.753906 C 194.214844 144.78125 180.089844 144.128906 179.574219 144.261719 C 177.367188 144.832031 178.292969 144.476562 171.472656 144.832031 C 164.652344 145.183594 163.375 144.902344 160.957031 145.46875 C 158.542969 146.035156 154.28125 145.539062 152.21875 145.46875 C 150.160156 145.398438 131.898438 144.6875 126.570312 143.554688 C 121.242188 142.417969 121.101562 142.066406 115.203125 142.207031 C 109.304688 142.347656 92.324219 142.5625 89.769531 142.207031 C 87.210938 141.851562 73.710938 140.363281 67.246094 138.875 C 60.78125 137.382812 62.484375 136.960938 61.777344 136.675781 C 61.066406 136.390625 57.867188 134.546875 54.03125 133.625 C 50.195312 132.703125 40.53125 130.292969 32.148438 125.183594 C 23.765625 120.078125 18.152344 117.386719 14.601562 115.1875 C 11.046875 112.988281 -0.460938 104.476562 0.179688 102.707031 C 0.816406 100.929688 2.433594 98.929688 3.429688 99 "/>
<path style="fill-rule:nonzero;fill:rgb(43.921569%,34.117647%,34.117647%);fill-opacity:1;stroke-width:1.40879;stroke-linecap:butt;stroke-linejoin:miter;stroke:rgb(0%,0%,0%);stroke-opacity:1;stroke-miterlimit:4;" d="M 86.495018 533.49637 C 80.996917 530.375128 67.618204 521.121564 63.256377 512.253565 C 58.582991 511.923081 50.995611 521.323527 48.00831 529.677439 C 45.002681 537.994631 98.994035 578.001607 115.671609 588.338426 C 132.330855 598.675244 158.66676 611.325454 197.996511 635.322296 C 209.3226 640.665127 215.333857 625.995291 221.326787 617.329254 C 227.338045 608.663218 239.323905 582.66511 227.338045 575.321011 C 215.333857 567.995273 190.665709 558.668268 178.00175 555.326703 C 165.33779 552.003498 142.667286 543.998431 123.992069 529.328594 C 106.67305 511.996522 77.991288 482.675209 68.461246 490.313071 C 59.535995 501.971827 61.313715 510.803106 67.39828 518.202285 C 73.226267 525.27098 82.976233 531.036097 91.003461 536.672693 C 94.503919 539.995897 96.758141 541.244394 100.661792 544.67776 C 101.578143 545.632493 124.376936 562.780963 135.996256 575.321011 C 176.388973 616.117478 163.321819 610.664485 199.994154 625.995291 " transform="matrix(0.213142,0,0,0.212756,-10.052888,-9.984949)"/>
<path style="fill-rule:nonzero;fill:rgb(67.45098%,57.647059%,57.647059%);fill-opacity:1;stroke-width:1.40879;stroke-linecap:butt;stroke-linejoin:miter;stroke:rgb(0%,0%,0%);stroke-opacity:1;stroke-miterlimit:4;" d="M 181.502207 462.001572 C 187.495138 475.496352 197.996511 498.006014 215.993629 502.504275 C 234.009074 507.002535 235.493561 514.493515 262.507565 505.496995 C 289.503242 496.500474 288.000428 496.500474 300.004616 477.001893 C 312.008803 457.503311 310.505989 447.00125 309.003175 432.000929 C 307.50036 417.000608 289.503242 394.490946 274.493426 389.992686 C 259.501937 385.494426 236.996376 384.007246 215.993629 388.505506 C 194.990882 393.003766 192.003581 406.498547 187.495138 414.007888 C 183.005022 421.498868 175.49095 448.506791 181.502207 462.001572 Z M 181.502207 462.001572 " transform="matrix(0.213142,0,0,0.212756,-10.052888,-9.984949)"/>
<path style="fill-rule:nonzero;fill:rgb(16.862745%,12.941176%,12.941176%);fill-opacity:1;stroke-width:1.40879;stroke-linecap:butt;stroke-linejoin:miter;stroke:rgb(0%,0%,0%);stroke-opacity:1;stroke-miterlimit:4;" d="M 240.002004 408.004087 C 223.507701 409.491267 215.993629 408.004087 208.497884 418.506148 C 201.00214 429.008209 196.676967 467.326043 206.500241 480.5087 C 213.501156 485.00696 220.007243 488.991133 229.500631 488.991133 C 238.994019 488.991133 253.509006 487.99968 259.996766 485.00696 C 266.502852 481.99588 275.501411 483.005693 280.999512 475.496352 C 286.497614 468.005372 289.008413 464.002838 288.495257 452.490964 C 288.000428 440.99745 288.000428 432.992383 282.997156 425.997129 C 277.993884 419.001875 274.493426 409.491267 265.000038 406.994274 C 255.50665 404.49728 256.496308 406.498547 240.002004 408.004087 Z M 240.002004 408.004087 " transform="matrix(0.213142,0,0,0.212756,-10.052888,-9.984949)"/>
<path style=" stroke:none;fill-rule:nonzero;fill:rgb(100%,100%,100%);fill-opacity:1;" d="M 33.109375 84.054688 C 33.535156 84.585938 34.066406 84.796875 35.453125 84.371094 C 36.839844 83.945312 37.265625 83.203125 39.824219 83.097656 C 42.378906 82.988281 43.550781 82.988281 44.722656 83.203125 C 45.898438 83.414062 46.644531 82.671875 46.855469 83.203125 C 47.070312 83.734375 48.773438 84.160156 46.214844 84.691406 C 43.660156 85.222656 43.234375 86.5 41.3125 86.5 C 39.394531 86.5 39.289062 87.351562 37.371094 87.136719 C 35.453125 86.925781 33.535156 87.988281 33.429688 88.519531 C 33.320312 89.054688 31.152344 88.164062 31.152344 87.316406 C 31.152344 86.464844 32.683594 83.519531 33.109375 84.054688 Z M 33.109375 84.054688 "/>
<path style="fill-rule:nonzero;fill:rgb(29.019608%,22.745098%,22.745098%);fill-opacity:1;stroke-width:1.760985;stroke-linecap:butt;stroke-linejoin:miter;stroke:rgb(0%,0%,0%);stroke-opacity:1;stroke-miterlimit:4;" d="M 985.2026 59.536378 C 979.750324 59.513428 970.999193 64.172333 967.494159 65.847703 C 959.590651 69.588598 947.907203 75.417967 939.591338 79.594916 C 931.252564 83.748916 924.586126 86.250496 912.077965 94.994549 C 899.592713 103.738603 879.5934 121.662766 870.842269 124.577451 C 862.091138 127.492136 865.000545 127.492136 862.915852 122.488976 C 860.831158 117.508767 860.831158 114.158027 862.915852 96.256814 C 865.000545 78.332651 857.097037 91.253655 843.741253 98.758394 C 830.408378 106.240183 829.171307 110.417133 816.663146 122.098822 C 804.154985 133.75756 797.488547 135.40998 788.760325 137.911559 C 780.009193 140.413139 776.66452 135.40998 774.16747 123.751241 C 773.480208 120.538203 777.947409 107.754901 773.342756 109.590923 C 761.178226 114.41048 732.015425 145.232696 724.157734 154.596408 C 713.344818 167.494461 698.751963 171.258306 697.90434 169.169831 C 697.079627 167.081356 694.582576 165.842041 692.91024 165.842041 C 691.260812 165.842041 675.407977 179.1532 669.589162 183.743254 C 663.747439 188.333309 604.597123 238.341953 622.076477 235.404318 C 639.578739 232.489633 671.261499 225.834054 707.090737 233.338794 C 742.919976 240.843533 808.759637 241.669743 822.092512 242.082847 C 835.402479 242.495952 905.411528 268.33796 952.488947 274.167329 C 999.589276 279.996698 1104.57994 328.329972 1162.493185 331.657762 C 1220.40643 335.008502 1306.657761 394.151355 1342.074642 405.833044 C 1377.491524 417.491782 1469.584579 486.663904 1489.171534 497.496433 C 1502.779314 505.047073 1539.18127 520.033601 1568.641884 529.856317 C 1581.539494 534.170969 1569.581142 522.902385 1575.399957 520.01065 C 1581.241681 517.095966 1604.585666 520.01065 1615.833848 520.400805 C 1627.08203 520.83686 1659.154238 516.246806 1670.837685 511.243646 C 1682.498224 506.240487 1677.504123 473.742901 1677.91648 464.172637 C 1678.145567 459.215378 1683.162576 439.065038 1680.41353 419.580257 C 1677.824845 401.380691 1667.470103 383.800782 1666.668298 379.164827 C 1665.843584 374.43707 1657.206997 355.503095 1645.844271 337.923186 C 1634.206641 319.884272 1619.819965 303.176474 1617.506185 298.747071 C 1612.901532 290.003017 1572.078192 252.915376 1564.587041 247.912217 C 1557.095889 242.909057 1508.346133 209.585261 1500.419716 205.844367 C 1492.493299 202.080522 1480.008046 191.247993 1452.90703 184.592414 C 1441.521396 181.769531 1430.387758 176.054913 1418.337772 173.346781 C 1401.706041 169.582936 1384.913949 169.284582 1377.903881 169.996041 C 1365.830985 171.258306 1362.921578 169.996041 1355.842783 169.169831 C 1348.74108 168.343621 1350.825773 167.081356 1341.662285 168.756726 C 1332.498797 170.409146 1328.741767 173.346781 1321.250616 176.261465 C 1313.759464 179.1532 1310.414791 177.913885 1302.488374 178.32699 C 1294.584865 178.740095 1293.760151 172.910725 1290.415478 170.845201 C 1287.093714 168.756726 1280.404368 170.409146 1265.834422 170.845201 C 1251.241567 171.258306 1255.84622 169.996041 1252.089189 163.340462 C 1248.332159 156.661932 1247.507445 150.832563 1247.507445 150.832563 C 1247.507445 150.832563 1241.253365 149.593248 1232.914591 150.006353 C 1224.575817 150.419458 1222.078766 147.504773 1217.084665 143.327824 C 1212.090564 139.173824 1213.327635 138.76072 1207.921177 128.341296 C 1202.49181 117.921872 1206.24884 122.902081 1199.170046 122.098822 C 1192.091251 121.249661 1189.594201 122.488976 1173.741367 122.488976 C 1157.911441 122.488976 1166.662572 119.597242 1161.668471 113.744922 C 1156.651461 107.915553 1157.499084 105.827078 1157.499084 105.827078 C 1157.499084 105.827078 1149.595576 108.328658 1143.341495 109.590923 C 1137.087414 110.830238 1132.093313 114.594082 1121.257489 112.918712 C 1110.421664 111.243343 1115.003408 105.413973 1115.003408 105.413973 L 1111.658735 94.994549 C 1111.658735 94.994549 1098.348769 99.997709 1091.247065 102.499289 C 1084.168271 105.000868 1077.089476 106.240183 1072.920089 105.000868 C 1068.750702 103.738603 1067.490723 97.083024 1062.908979 82.509601 C 1058.327235 67.913228 1053.333134 71.654122 1046.254339 73.329492 C 1039.152636 75.004862 1036.655585 76.657282 1029.989148 80.008021 C 1023.345619 83.335811 1000.001633 91.66676 996.244603 91.253655 C 992.510482 90.84055 986.668758 90.84055 987.493472 80.008021 C 987.88292 75.027812 991.914855 63.116621 988.341094 60.408488 C 987.539289 59.811781 986.462579 59.559328 985.2026 59.536378 Z M 985.2026 59.536378 " transform="matrix(0.170514,0,0,0.170205,-10.053013,-9.984949)"/>
<path style="fill-rule:nonzero;fill:rgb(23.529412%,18.431373%,18.431373%);fill-opacity:1;stroke-width:1.40879;stroke-linecap:butt;stroke-linejoin:miter;stroke:rgb(0%,0%,0%);stroke-opacity:1;stroke-miterlimit:4;" d="M 921.49165 243.992008 C 922.499636 236.005301 929.99538 225.50324 935.493482 217.498173 C 940.991583 209.493106 959.501857 196.494051 971.506045 187.497531 C 983.491905 178.50101 985.507876 174.994203 998.996551 161.499422 C 1012.503553 148.004641 1014.35458 154.228764 1017.635114 146.003374 C 1011.147354 148.996094 998.006892 158.506702 991.005977 163.004962 C 984.005061 167.503222 979.496618 170.495943 970.498059 177.491196 C 961.4995 184.50481 952.006112 188.507344 944.492041 196.494051 C 936.996296 204.499119 931.498195 206.004659 927.008079 208.997379 C 922.499636 212.008459 904.997347 227.504507 897.501602 233.508308 C 890.005857 239.493748 887.000229 240.007835 883.004942 234.995488 C 878.991328 230.001501 886.5054 224.493427 892.003501 216.50672 C 897.501602 208.501652 904.997347 202.002125 914.509062 191.995791 C 924.00245 182.007817 923.507621 183.494997 935.493482 172.001483 C 947.497669 160.507969 948.505654 163.500689 964.505129 148.500368 C 969.08688 143.267698 978.543614 136.364245 977.828861 134.362978 C 971.231139 137.50258 963.991973 142.992294 949.495313 151.493088 C 934.998652 159.993882 927.008079 165.997682 921.49165 168.494676 C 915.993549 170.991669 883.004942 192.491518 864.494668 212.504186 C 846.002721 232.498494 844.499906 215.992633 849.503178 204.499119 C 854.506451 193.005604 859.491396 193.501331 865.997482 184.009084 C 872.503569 174.498476 895.00913 155.991348 916.506705 137.998307 C 938.004281 120.005266 938.004281 119.491179 927.008079 124.999253 C 915.993549 130.507326 911.503433 133.00432 902.504874 139.00812 C 893.506315 144.993561 881.996957 150.997361 870.505925 161.995149 C 858.996567 172.992936 883.004942 151.493088 833.503704 192.491518 C 784.002466 233.508308 821.994345 195.502598 823.49716 187.001804 C 824.999974 178.50101 829.508417 170.495943 837.004162 160.507969 C 844.499906 150.501635 858.006908 144.002107 889.492701 118.499725 C 920.996821 92.997343 901.00206 104.490858 892.003501 107.997665 C 883.004942 111.504472 878.991328 116.994185 868.508282 122.997986 C 858.006908 129.001786 846.992379 139.00812 837.99382 145.507648 C 828.995261 152.007175 825.494803 159.498155 796.006654 178.996737 C 766.500177 198.495318 767.508162 189.003071 771.503449 179.492463 C 775.498736 170.000216 782.004822 165.997682 793.495854 151.493088 C 805.005213 137.006854 817.504229 129.497513 839.496634 112.495925 C 861.507366 95.494337 858.996567 88.499083 842.502263 103.499404 C 826.007959 118.499725 830.498075 111.008745 819.996702 118.499725 C 809.495329 126.009066 809.000499 128.50606 759.994091 161.003695 C 711.006009 193.501331 730.505941 168.494676 732.503585 154.999895 C 733.584878 147.692517 745.112563 135.097388 759.994091 122.906184 C 771.613411 113.395577 785.523607 100.084398 798.004297 92.72194 C 799.103917 92.079331 805.829928 88.792847 806.911221 88.186959 C 813.637232 82.917568 819.318603 80.145171 821.646132 73.278439 C 807.131145 83.266413 798.993955 86.497816 789.500567 93.49307 C 780.007179 100.506684 771.00862 105.500671 766.005348 107.006211 C 761.002076 108.493391 754.495989 115.507005 709.998024 152.007175 C 665.500058 188.507344 691.506076 152.502901 693.50372 140.4953 C 695.501363 128.50606 729.497956 101.002411 752.498346 77.501296 C 775.498736 54.00018 750.005873 73.003035 739.5045 80.494016 C 729.003127 88.003356 725.00784 88.99481 712.508823 99.496871 C 699.991479 109.998931 677.999074 127.991973 670.50333 133.00432 C 663.007585 137.998307 646.000125 154.504168 635.003923 169.504489 C 624.00772 184.50481 619.499277 177.491196 619.004448 177.491196 C 618.491292 177.491196 619.499277 167.007496 621.002092 161.499422 C 622.504906 155.991348 638.99921 131.003053 647.008111 122.997986 C 654.998684 114.992918 670.008501 90.996077 667.497701 94.502884 C 665.005229 97.99133 655.493513 105.996398 649.005754 112.991652 C 642.499668 120.005266 606.505432 152.502901 600.494174 158.506702 C 594.501244 164.492142 588.508314 176.004016 580.994242 179.492463 C 573.498497 182.99927 574.506482 176.499743 573.003668 172.992936 C 571.500854 169.504489 585.007856 137.50258 589.497972 129.497513 C 594.006415 121.492446 606.505432 103.003678 601.996989 107.501938 C 597.506873 112.000198 592.99843 118.499725 588.508314 122.502259 C 583.999871 126.504793 582.497056 126.009066 571.995683 145.507648 C 561.49431 165.006229 550.498107 176.99547 545.000006 177.491196 C 539.501905 178.005283 535.506618 175.50829 536.001447 173.507023 C 536.496276 171.505756 539.996734 162.490875 542.507533 157.496888 C 545.000006 152.502901 555.501379 137.50258 554.493394 135.501313 C 553.503736 133.500047 539.501905 151.493088 532.500989 161.995149 C 525.500074 172.497209 483.67785 190.673853 497.661354 188.323742 C 511.663186 185.99199 536.991105 180.667519 565.672867 186.67132 C 594.336301 192.67512 647.008111 193.336089 657.674427 193.666573 C 668.322416 193.997058 724.329741 214.670695 761.991734 219.334198 C 799.672054 223.9977 883.664714 262.664379 929.99538 265.326614 C 932.341237 265.473496 920.501992 251.997075 921.49165 243.992008 Z M 921.49165 243.992008 " transform="matrix(0.213142,0,0,0.212756,-10.052888,-9.984949)"/>
<path style="fill-rule:nonzero;fill:rgb(29.019608%,22.745098%,22.745098%);fill-opacity:1;stroke-width:1.760985;stroke-linecap:round;stroke-linejoin:round;stroke:rgb(0%,0%,0%);stroke-opacity:1;stroke-miterlimit:4;" d="M 749.563504 893.778792 C 747.684989 893.801743 743.240698 893.962395 734.581201 894.168947 C 721.752318 894.467301 699.989034 894.834505 676.942862 895.064008 C 699.989034 925.840323 683.746751 904.588371 695.842556 953.33475 C 695.842556 953.33475 712.084838 1009.998974 715.406603 1025.008452 C 718.751276 1039.99498 744.592312 1098.747678 749.586413 1106.252418 C 754.580514 1113.757157 772.082776 1131.245265 777.076877 1140.838479 C 782.093887 1150.408742 789.997395 1162.503536 798.33617 1175.401589 C 806.652035 1188.345543 806.652035 1194.151962 820.420176 1208.335231 C 834.165408 1222.495549 840.831845 1232.501868 844.588876 1232.501868 C 848.345906 1232.501868 846.238303 1235.416553 852.904741 1224.170919 C 859.594087 1212.902335 867.909953 1193.325752 873.751676 1189.997963 C 879.5934 1186.670173 887.909265 1166.244431 887.909265 1166.244431 L 893.338632 1150.408742 C 893.338632 1150.408742 900.00507 1143.753163 903.326834 1128.33058 C 906.671507 1112.907997 907.908578 1097.508364 912.902679 1088.741359 C 917.919689 1079.997306 923.326147 1055.830668 923.326147 1055.830668 C 923.326147 1055.830668 928.343156 1029.988661 923.761412 1019.592188 C 919.15676 1009.149814 905.411528 987.920811 904.999171 987.920811 C 904.586814 987.920811 890.841582 972.085123 865.412902 959.164119 C 840.007132 946.243116 819.595462 926.666533 809.584351 924.991163 C 799.596149 923.338744 780.009193 914.158635 780.009193 913.74553 C 780.009193 913.332425 767.501032 908.329265 754.580514 907.503056 C 748.761699 907.503056 741.659996 900.411421 741.659996 900.411421 C 737.857148 894.995157 755.221958 893.732892 749.563504 893.778792 Z M 749.563504 893.778792 " transform="matrix(0.170514,0,0,0.170205,-10.053013,-9.984949)"/>
<path style="fill-rule:nonzero;fill:rgb(29.019608%,22.745098%,22.745098%);fill-opacity:1;stroke-width:1.760985;stroke-linecap:round;stroke-linejoin:round;stroke:rgb(0%,0%,0%);stroke-opacity:1;stroke-miterlimit:4;" d="M 1517.486712 813.338086 C 1488.759177 823.75751 1447.500572 817.078981 1421.247179 826.25909 C 1394.993786 835.416249 1343.746979 847.074987 1324.160023 855.841992 C 1304.595976 864.586046 1247.919802 873.743204 1235.846907 877.920154 C 1223.751103 882.097104 1124.99161 902.913001 1112.094001 906.240791 C 1099.150574 909.59153 1101.670533 915.834005 1101.670533 915.834005 C 1101.670533 915.834005 1118.325173 940.000642 1144.990923 954.98717 C 1171.656673 969.996648 1234.999284 1008.346554 1269.156186 1015.828343 C 1303.335996 1023.333082 1384.157961 1035.840981 1405.004896 1050.827509 C 1425.828923 1065.836987 1437.489462 1066.663197 1460.008734 1072.492566 C 1482.505097 1078.344886 1500.832073 1080.846466 1515.837285 1073.341726 C 1530.842496 1065.836987 1569.993499 1048.325929 1584.151088 1033.339401 C 1598.331586 1018.329923 1603.325687 1022.506872 1616.658562 993.337076 C 1629.991437 964.167279 1640.002548 959.164119 1636.657875 927.492743 C 1633.33611 895.844317 1632.488487 871.65473 1629.166723 860.845151 C 1625.844959 849.989672 1604.150401 822.495245 1597.506872 820.842826 C 1590.840434 819.167456 1535.401332 819.993666 1535.401332 819.993666 C 1520.831386 822.495245 1522.091365 818.341246 1517.486712 813.338086 Z M 1517.486712 813.338086 " transform="matrix(0.170514,0,0,0.170205,-10.053013,-9.984949)"/>
<path style=" stroke:none;fill-rule:nonzero;fill:rgb(33.72549%,26.27451%,26.27451%);fill-opacity:1;" d="M 159.875 57.867188 C 158.808594 57.871094 157.71875 57.972656 156.625 58.203125 C 151.617188 59.265625 136.480469 65.011719 132.753906 67.671875 C 129.023438 70.332031 125.1875 75.542969 123.585938 78.203125 C 121.988281 80.863281 116.980469 86.5 114.742188 89.054688 C 112.503906 91.605469 107.386719 97.777344 105.894531 99.691406 C 104.402344 101.605469 104.511719 104.371094 104.511719 105.648438 C 104.511719 106.925781 104.402344 108.09375 105.683594 111.605469 C 106.960938 115.117188 107.921875 118.519531 109.519531 118.730469 C 111.117188 118.945312 113.996094 119.15625 118.257812 118.730469 C 122.519531 118.308594 132.964844 117.242188 135.417969 116.921875 C 137.867188 116.605469 140.746094 117.242188 142.984375 115.753906 C 145.222656 114.265625 150.335938 111.605469 153.425781 108.519531 C 156.515625 105.433594 163.125 99.691406 164.722656 96.710938 C 166.320312 93.734375 171.011719 85.117188 171.652344 82.03125 C 172.289062 78.945312 173.460938 71.605469 173.460938 70.542969 C 173.460938 69.480469 171.863281 60.96875 169.199219 59.90625 C 167.117188 59.074219 163.671875 57.855469 159.875 57.867188 Z M 159.875 57.867188 "/>
<path style="fill-rule:nonzero;fill:rgb(100%,85.490196%,21.176471%);fill-opacity:1;stroke-width:1.760985;stroke-linecap:round;stroke-linejoin:round;stroke:rgb(0%,0%,0%);stroke-opacity:1;stroke-miterlimit:4;" d="M 2153.868049 396.079178 C 2149.148853 396.079178 2140.374813 397.616846 2122.093654 402.092149 C 2089.586181 409.987043 2035.407057 430.412786 2005.8319 442.507579 C 1976.256742 454.579423 1952.912756 460.408792 1924.162312 472.503586 C 1899.993613 480.42143 1871.655526 492.906378 1845.837398 500.847173 C 1827.075156 510.830541 1753.744343 533.344759 1776.653063 528.754704 C 1799.584692 524.16465 1800.844672 534.584074 1803.341722 542.915023 C 1805.838773 551.245972 1815.826975 570.409449 1812.917567 582.504243 C 1810.00816 594.576087 1806.25113 609.14951 1805.403507 619.591884 C 1804.578793 629.988357 1799.997049 635.404622 1801.257029 649.151835 C 1802.4941 662.921999 1810.420517 693.744215 1804.166436 703.337429 C 1797.912356 712.907693 1790.008847 727.504066 1784.167124 732.094121 C 1778.3254 736.661225 1757.089016 749.995334 1749.162599 752.910018 C 1741.259091 755.847653 1736.654438 760.001653 1732.50796 760.001653 C 1728.338573 760.001653 1780.845359 770.421076 1790.833561 774.988181 C 1800.844672 779.578235 1870.830812 809.161137 1890.417768 814.577401 C 1910.004723 819.993666 1999.990176 852.904357 2009.58893 853.753517 C 2019.164775 854.579727 2101.246719 878.746364 2108.325514 878.333259 C 2115.404308 877.920154 2139.160651 877.920154 2139.160651 877.920154 L 2138.335937 799.154818 C 2138.335937 799.154818 2126.65249 737.92349 2120.008961 725.415592 C 2113.342523 712.907693 2099.162026 670.839843 2094.167925 666.662893 C 2089.150915 662.508894 2083.3321 648.325625 2083.3321 648.325625 C 2083.3321 648.325625 2087.08913 639.581571 2092.083231 632.076832 C 2102.094342 619.155829 2107.5008 594.989192 2112.907258 581.241978 C 2125.827776 557.098291 2137.075957 521.249965 2140.008274 507.915857 C 2140.008274 507.915857 2158.747607 438.743735 2158.747607 438.33063 C 2158.747607 437.917525 2162.916994 401.242989 2160.007586 398.328304 C 2158.724698 397.066039 2157.533444 396.102128 2153.868049 396.079178 Z M 2153.868049 396.079178 " transform="matrix(0.170514,0,0,0.170205,-10.053013,-9.984949)"/>
<path style=" stroke:none;fill-rule:nonzero;fill:rgb(39.215686%,30.196078%,30.196078%);fill-opacity:1;" d="M 119.394531 83.679688 C 117.664062 85.738281 115.859375 87.777344 114.742188 89.054688 C 112.503906 91.605469 107.386719 97.777344 105.894531 99.691406 C 104.402344 101.605469 104.511719 104.371094 104.511719 105.648438 C 104.511719 106.925781 104.402344 108.09375 105.683594 111.605469 C 106.960938 115.117188 107.921875 118.519531 109.519531 118.730469 C 111.117188 118.945312 113.996094 119.15625 118.257812 118.730469 C 122.519531 118.308594 132.964844 117.242188 135.417969 116.921875 C 137.867188 116.605469 140.746094 117.242188 142.984375 115.753906 C 143.757812 115.238281 144.886719 114.578125 146.144531 113.8125 C 138.183594 107.78125 127.046875 93.835938 119.394531 83.679688 Z M 119.394531 83.679688 "/>
<path style="fill:none;stroke-width:1.40879;stroke-linecap:butt;stroke-linejoin:miter;stroke:rgb(0%,0%,0%);stroke-opacity:1;stroke-miterlimit:4;" d="M 479.994123 361.99331 C 479.994123 361.99331 491.503481 363.498851 497.991241 365.500117 C 504.497327 367.501384 519.507143 376.497905 527.497717 386.999966 C 535.506618 397.502027 550.498107 406.002821 557.993852 409.491267 C 565.507923 412.998074 565.507923 427.006942 564.994767 435.507736 C 564.499938 444.00853 553.998565 468.005372 549.508449 474.009173 C 545.000006 479.994613 526.508059 530.50365 516.501515 543.998431 C 506.49497 557.493212 470.005905 625.995291 461.007346 638.002892 C 452.008787 649.992132 426.002769 646.007959 408.995309 664.992453 C 392.006176 683.995308 371.003429 674.007334 344.997411 678.505595 C 324.397858 682.067482 303.505073 676.008601 303.505073 676.008601 M 67.39828 518.202285 C 59.44436 508.526435 58.821242 496.371952 80.007259 478.672675 C 111.328109 449.663486 172.668591 395.996486 197.996511 375.322849 C 223.324431 354.667572 291.335943 307.334858 318.661506 292.665021 C 348.003039 270.008477 351.998326 264.004677 382.677731 246.323759 C 418.671967 220.674495 483.67785 190.673853 497.661354 188.323742 C 511.663186 185.99199 536.991105 180.667519 565.672867 186.67132 C 594.336301 192.67512 647.008111 193.336089 657.674427 193.666573 C 668.322416 193.997058 724.329741 214.670695 761.991734 219.334198 C 799.672054 223.9977 883.664714 262.664379 929.99538 265.326614 C 976.326047 268.00721 1045.327217 315.321565 1073.679092 324.66693 C 1101.994313 333.993935 1175.66887 389.331717 1191.338458 397.997753 C 1207.008047 406.663789 1260.321302 427.667911 1280.664276 430.991116 C 1301.007251 434.33268 1321.002012 438.00473 1335.003843 438.00473 C 1349.005674 438.00473 1360.991535 440.666965 1384.99991 432.331414 C 1409.008286 423.995862 1402.997028 426.676458 1421.324032 423.004409 C 1439.669363 419.332359 1440.677349 427.667911 1442.674992 434.33268 C 1444.672635 440.99745 1452.663209 456.328255 1450.33568 466.004105 C 1448.00815 475.661595 1445.002522 487.338711 1444.324422 495.674263 C 1443.66465 503.991455 1439.999249 508.324473 1441.007235 519.32226 C 1441.996893 530.338408 1448.338036 554.996218 1443.334764 562.670801 C 1438.331492 570.327024 1432.008676 582.004141 1427.33529 585.67619 C 1422.661904 589.329879 1405.672771 599.997182 1399.331627 602.328933 C 1393.008811 604.679045 1389.325083 608.002249 1386.007895 608.002249 C 1382.672381 608.002249 1368.322337 606.331467 1356.666362 606.992436 C 1344.99206 607.671765 1309.32771 612.996236 1293.328236 619.330521 C 1277.328761 625.664806 1269.008301 629.006371 1253.338713 634.000358 C 1237.669125 638.994345 1236.991025 642.33591 1214.008962 650.671461 C 1191.008572 659.007013 1158.001638 653.664182 1136.998891 661.00828 C 1115.996145 668.334018 1074.998636 677.661023 1059.329048 684.674637 C 1043.677787 691.669891 998.336778 698.995629 988.678447 702.337194 C 979.001789 705.678759 899.994075 722.331502 889.675971 724.993738 C 879.321214 727.674334 883.664714 726.003552 851.665765 727.674334 C 819.666816 729.326756 813.673886 728.004818 802.32947 730.667054 C 791.003381 733.32929 771.00862 730.997539 761.331962 730.667054 C 751.673631 730.33657 665.994887 726.995005 640.996853 721.670533 C 615.99882 716.327702 615.339048 714.67528 587.665271 715.336249 C 559.991495 715.997217 480.324009 717.007031 468.338148 715.336249 C 456.33396 713.665466 392.995834 706.670212 362.664643 699.674959 C 332.333451 692.661344 340.324025 690.678438 337.006837 689.33814 C 333.671322 687.997842 318.661506 679.331806 300.664388 674.998788 C 282.66727 670.66577 237.326262 659.337498 197.996511 635.322296 C 158.66676 611.325454 132.330855 598.675244 115.671609 588.338426 C 98.994035 578.001607 45.002681 537.994631 48.00831 529.677439 C 50.995611 521.323527 58.582991 511.923081 63.256377 512.253565 M 144.335043 446.321921 C 140.999528 448.672033 139.661657 451.664753 139.661657 451.664753 M 121.994425 463.323509 C 124.321955 468.005372 125.32994 470.337123 125.32994 470.006639 " transform="matrix(0.213142,0,0,0.212756,-10.052888,-9.984949)"/>
<path style="fill:none;stroke-width:1.760985;stroke-linecap:round;stroke-linejoin:round;stroke:rgb(0%,0%,0%);stroke-opacity:1;stroke-miterlimit:4;" d="M 996.565325 398.649608 C 990.311244 398.672558 983.919711 399.269266 977.50527 400.623332 C 948.136291 406.865806 859.365 440.625657 837.510081 456.254793 C 815.632253 471.883929 793.13589 502.499592 783.743315 518.128728 C 774.373648 533.757864 745.004669 566.875107 731.877972 581.884586 C 718.751276 596.871114 688.740852 633.132545 679.989721 644.378178 C 671.23859 655.623812 671.880034 671.872605 671.880034 679.377344 C 671.880034 686.882084 671.23859 693.744215 678.75265 714.37651 C 686.243802 735.008806 691.879347 754.998493 701.249014 756.237808 C 710.61868 757.500073 727.502407 758.739388 752.495821 756.237808 C 777.489234 753.759178 838.747152 747.493754 853.133828 745.611832 C 867.497596 743.752859 884.381322 747.493754 897.508019 738.7497 C 910.634716 730.005646 940.62223 714.37651 958.743028 696.245795 C 976.863826 678.115079 1015.62538 644.378178 1024.995047 626.86712 C 1034.364713 609.379013 1061.878086 558.750711 1065.635116 540.619995 C 1069.369238 522.48928 1076.241854 479.365717 1076.241854 473.123243 C 1076.241854 466.880769 1066.872187 416.872125 1051.24844 410.629651 C 1039.038092 405.741242 1018.832601 398.580757 996.565325 398.649608 Z M 996.565325 398.649608 " transform="matrix(0.170514,0,0,0.170205,-10.053013,-9.984949)"/>
</g>
</svg>
