<?xml version="1.0" encoding="UTF-8"?>
<!-- Created by grConvert v0.1-0 -->
<svg xmlns="http://www.w3.org/2000/svg" xmlns:xlink="http://www.w3.org/1999/xlink" width="359pt" height="200pt" viewBox="0 0 359 200" version="1.1">
<g id="surface41">
<path style=" stroke:none;fill-rule:nonzero;fill:rgb(96.862745%,92.156863%,89.019608%);fill-opacity:1;" d="M 92.253906 67.035156 C 92.253906 67.035156 94.707031 67.351562 96.089844 67.777344 C 97.476562 68.203125 100.671875 70.117188 102.378906 72.351562 C 104.082031 74.585938 107.28125 76.394531 108.878906 77.140625 C 110.476562 77.882812 110.476562 80.863281 110.371094 82.671875 C 110.265625 84.480469 108.027344 89.585938 107.066406 90.863281 C 106.109375 92.136719 102.164062 102.882812 100.035156 105.753906 C 97.902344 108.625 90.125 123.199219 88.203125 125.753906 C 86.285156 128.308594 80.746094 127.457031 77.121094 131.496094 C 73.5 135.539062 69.023438 133.414062 63.480469 134.371094 C 59.089844 135.128906 54.636719 133.839844 54.636719 133.839844 M 4.3125 100.265625 C 2.617188 98.207031 2.484375 95.621094 7 91.855469 C 13.675781 85.683594 26.75 74.265625 32.148438 69.871094 C 37.546875 65.472656 52.042969 55.402344 57.867188 52.28125 C 64.121094 47.460938 64.972656 46.183594 71.507812 42.425781 C 79.183594 36.964844 93.035156 30.582031 96.019531 30.085938 C 99.003906 29.589844 104.402344 28.453125 110.515625 29.730469 C 116.621094 31.007812 127.847656 31.148438 130.125 31.21875 C 132.394531 31.289062 144.332031 35.6875 152.359375 36.679688 C 160.390625 37.671875 178.292969 45.898438 188.167969 46.464844 C 198.042969 47.035156 212.75 57.105469 218.789062 59.089844 C 224.828125 61.074219 240.53125 72.847656 243.867188 74.691406 C 247.207031 76.535156 258.574219 81.003906 262.910156 81.714844 C 267.242188 82.421875 271.503906 83.203125 274.488281 83.203125 C 277.472656 83.203125 280.03125 83.769531 285.148438 81.996094 C 290.261719 80.222656 288.984375 80.792969 292.890625 80.011719 C 296.800781 79.230469 297.011719 81.003906 297.4375 82.421875 C 297.863281 83.839844 299.570312 87.101562 299.070312 89.160156 C 298.574219 91.21875 297.933594 93.699219 297.792969 95.472656 C 297.652344 97.246094 296.871094 98.164062 297.082031 100.507812 C 297.296875 102.847656 298.644531 108.09375 297.578125 109.726562 C 296.511719 111.355469 295.164062 113.839844 294.167969 114.621094 C 293.175781 115.398438 289.550781 117.667969 288.199219 118.164062 C 286.851562 118.664062 286.070312 119.371094 285.359375 119.371094 C 284.648438 119.371094 281.59375 119.015625 279.109375 119.160156 C 276.621094 119.300781 269.019531 120.433594 265.609375 121.78125 C 262.199219 123.128906 260.421875 123.839844 257.082031 124.902344 C 253.746094 125.964844 253.601562 126.675781 248.699219 128.449219 C 243.796875 130.222656 236.765625 129.085938 232.289062 130.648438 C 227.8125 132.207031 219.074219 134.195312 215.734375 135.683594 C 212.394531 137.171875 202.730469 138.730469 200.671875 139.441406 C 198.613281 140.152344 181.773438 143.695312 179.570312 144.261719 C 177.367188 144.832031 178.292969 144.476562 171.472656 144.832031 C 164.652344 145.183594 163.375 144.902344 160.957031 145.46875 C 158.542969 146.035156 154.277344 145.539062 152.21875 145.46875 C 150.160156 145.398438 131.898438 144.6875 126.570312 143.554688 C 121.242188 142.417969 121.097656 142.066406 115.203125 142.207031 C 109.304688 142.347656 92.324219 142.5625 89.765625 142.207031 C 87.210938 141.851562 73.710938 140.363281 67.246094 138.875 C 60.78125 137.386719 62.484375 136.960938 61.777344 136.675781 C 61.066406 136.390625 57.867188 134.546875 54.03125 133.625 C 50.195312 132.703125 40.53125 130.292969 32.148438 125.183594 C 23.765625 120.078125 18.152344 117.386719 14.601562 115.1875 C 11.046875 112.988281 -0.460938 104.476562 0.179688 102.707031 C 0.816406 100.929688 2.433594 98.929688 3.429688 99 M 20.710938 84.976562 C 20 85.472656 19.714844 86.109375 19.714844 86.109375 M 15.949219 88.589844 C 16.445312 89.585938 16.660156 90.082031 16.660156 90.011719 "/>
<path style=" stroke:none;fill-rule:nonzero;fill:rgb(87.45098%,80.392157%,75.686275%);fill-opacity:1;" d="M 213.890625 86.804688 C 215.078125 89.40625 216.828125 94.832031 216.921875 96.820312 C 216.769531 99.285156 216.464844 101.296875 216.046875 102.882812 C 213.929688 110.945312 208.878906 108.195312 205.996094 99.550781 C 204.710938 89.738281 207.335938 83.589844 204.527344 76.023438 C 203.183594 66.074219 201.957031 55.148438 202.105469 50.878906 C 208.828125 54.042969 215.273438 57.9375 218.789062 59.089844 C 216.730469 60.542969 216.515625 61.5 216.195312 63.734375 C 215.554688 66.074219 212.84375 70.355469 214.230469 74.1875 C 214.9375 79.835938 213.652344 83.273438 213.890625 86.804688 Z M 213.890625 86.804688 "/>
<path style="fill-rule:nonzero;fill:rgb(87.45098%,80.392157%,75.686275%);fill-opacity:1;stroke-width:0.23916;stroke-linecap:butt;stroke-linejoin:miter;stroke:rgb(0%,0%,0%);stroke-opacity:1;stroke-miterlimit:4;" d="M 54.44129 909.476468 C 53.50707 908.947078 51.233801 907.377591 50.492653 905.8735 C 49.698566 905.817447 48.409342 907.411846 47.901749 908.828743 C 47.391042 910.239413 56.565084 917.02495 59.398886 918.778166 C 62.229573 920.531381 66.704488 922.676969 73.387276 926.747046 C 75.31177 927.653237 76.333184 925.165103 77.351484 923.695267 C 78.369784 922.22543 80.409498 917.815921 78.369784 916.573411 C 76.333184 915.327787 72.141649 913.745844 69.989829 913.179085 C 67.838008 912.61544 63.985907 911.25771 60.812672 908.769576 C 57.869879 905.829903 52.996363 900.856749 51.377048 902.152198 C 49.860497 904.129626 50.162562 905.627489 51.196432 906.882456 C 52.186706 908.084483 53.84339 909.059184 55.207351 910.0152 C 55.802138 910.578845 56.185168 910.790601 56.848464 911.37293 C 57.004168 911.537976 60.878068 914.443394 62.852386 916.573411 C 69.712677 923.489739 67.495461 922.564863 73.726709 925.165103 " transform="matrix(1.254388,0,0,1.254391,-59.907712,-1037.319837)"/>
<path style="fill-rule:nonzero;fill:rgb(64.313725%,32.156863%,10.980392%);fill-opacity:1;stroke-width:0.23916;stroke-linecap:butt;stroke-linejoin:miter;stroke:rgb(0%,0%,0%);stroke-opacity:1;stroke-miterlimit:4;" d="M 70.584615 897.350317 C 71.602915 899.639152 73.387276 903.456989 76.44529 904.219934 C 79.503304 904.982879 79.758658 906.253415 84.345679 904.727526 C 88.935814 903.201637 88.680461 903.201637 90.720175 899.894505 C 92.756775 896.587373 92.504535 894.80613 92.249182 892.261943 C 91.993828 889.717756 88.935814 885.903032 86.385393 885.140087 C 83.838086 884.374029 80.014011 884.12179 76.44529 884.884735 C 72.876569 885.647679 72.368976 887.936513 71.602915 889.210164 C 70.839969 890.480701 69.563201 895.061483 70.584615 897.350317 Z M 70.584615 897.350317 " transform="matrix(1.254388,0,0,1.254391,-59.907712,-1037.319837)"/>
<path style="fill-rule:nonzero;fill:rgb(20.392157%,10.196078%,3.137255%);fill-opacity:1;stroke-width:0.23916;stroke-linecap:butt;stroke-linejoin:miter;stroke:rgb(0%,0%,0%);stroke-opacity:1;stroke-miterlimit:4;" d="M 80.524718 888.191866 C 77.718944 888.447219 76.44529 888.191866 75.171637 889.973109 C 73.897983 891.754351 73.163063 898.253395 74.832203 900.48929 C 76.021777 901.252235 77.127271 901.9311 78.740358 901.9311 C 80.353445 901.9311 82.816672 901.759827 83.922166 901.252235 C 85.02766 900.741529 86.556667 900.912802 87.490887 899.639152 C 88.425107 898.368615 88.84862 897.68975 88.76454 895.740348 C 88.680461 893.787833 88.680461 892.433216 87.83032 891.243645 C 86.98018 890.057188 86.385393 888.447219 84.772306 888.020593 C 83.159219 887.597081 83.327379 887.936513 80.524718 888.191866 Z M 80.524718 888.191866 " transform="matrix(1.254388,0,0,1.254391,-59.907712,-1037.319837)"/>
<path style=" stroke:none;fill-rule:nonzero;fill:rgb(100%,100%,100%);fill-opacity:1;" d="M 33.109375 84.054688 C 33.535156 84.585938 34.066406 84.796875 35.453125 84.371094 C 36.839844 83.949219 37.265625 83.203125 39.820312 83.097656 C 42.378906 82.988281 43.550781 82.988281 44.722656 83.203125 C 45.894531 83.414062 46.640625 82.671875 46.855469 83.203125 C 47.070312 83.734375 48.773438 84.160156 46.214844 84.691406 C 43.660156 85.222656 43.230469 86.5 41.3125 86.5 C 39.394531 86.5 39.289062 87.351562 37.371094 87.136719 C 35.453125 86.925781 33.535156 87.988281 33.425781 88.523438 C 33.320312 89.054688 31.152344 88.167969 31.152344 87.316406 C 31.152344 86.464844 32.683594 83.523438 33.109375 84.054688 Z M 33.109375 84.054688 "/>
<path style="fill-rule:nonzero;fill:rgb(87.45098%,80.392157%,75.686275%);fill-opacity:1;stroke-width:0.23916;stroke-linecap:butt;stroke-linejoin:miter;stroke:rgb(0%,0%,0%);stroke-opacity:1;stroke-miterlimit:4;" d="M 173.666472 827.072207 C 172.925324 827.065979 171.73575 827.701247 171.259298 827.92546 C 170.184945 828.433052 168.59677 829.224023 167.466364 829.790782 C 166.332843 830.354427 165.42665 830.693859 163.726369 831.880316 C 162.026088 833.069887 159.307507 835.498854 158.117934 835.897454 C 156.931474 836.292939 157.326961 836.292939 157.043581 835.614074 C 156.7602 834.935209 156.7602 834.480556 157.043581 832.051589 C 157.326961 829.619508 156.249493 831.372724 154.437106 832.391022 C 152.624719 833.40932 152.453445 833.972965 150.756279 835.558021 C 149.055998 837.139964 148.149804 837.364176 146.960231 837.703609 C 145.770657 838.043041 145.319117 837.364176 144.979684 835.782234 C 144.886262 835.346265 145.493505 833.611734 144.867577 833.860858 C 143.214008 834.514811 139.2498 838.696994 138.181675 839.96753 C 136.708721 841.717632 134.728174 842.228338 134.612954 841.944959 C 134.500847 841.661579 134.161414 841.49342 133.934087 841.49342 C 133.70676 841.49342 131.55494 843.302689 130.763966 843.925501 C 129.969879 844.545199 121.926243 851.330736 124.305391 850.93525 C 126.684538 850.539765 130.988179 849.633573 135.861695 850.651871 C 140.728982 851.670169 149.678811 851.782275 151.494313 851.838328 C 153.303586 851.894381 162.820175 855.400813 169.219584 856.191784 C 175.622106 856.982755 189.893877 863.540966 197.766239 863.992505 C 205.638601 864.447158 217.363065 872.475205 222.177413 874.057147 C 226.991761 875.63909 239.510311 885.024867 242.169725 886.494704 C 244.022595 887.519229 248.970848 889.552711 252.972424 890.885528 C 254.725644 891.470972 253.103215 889.945082 253.894188 889.549597 C 254.688275 889.154111 257.86151 889.549597 259.390517 889.60565 C 260.919524 889.661703 265.279218 889.038891 266.867393 888.360026 C 268.452453 887.684275 267.770472 883.271651 267.826525 881.973088 C 267.857666 881.300451 268.542761 878.566306 268.165959 875.922469 C 267.817183 873.45302 266.409625 871.067649 266.297518 870.438609 C 266.185412 869.797113 265.011409 867.231127 263.466831 864.842643 C 261.884885 862.394992 259.932365 860.127956 259.61473 859.526942 C 258.991916 858.340486 253.442649 853.308164 252.424348 852.629299 C 251.402934 851.950434 244.776199 847.428819 243.698732 846.921227 C 242.624379 846.413635 240.924098 844.940685 237.24327 844.037607 C 235.695579 843.654578 234.182142 842.882291 232.544143 842.511718 C 230.28333 842.001012 227.997604 841.960529 227.047814 842.057065 C 225.4067 842.228338 225.0081 842.057065 224.045853 841.944959 C 223.083606 841.832852 223.366986 841.661579 222.121359 841.888906 C 220.875732 842.113118 220.365025 842.511718 219.346725 842.907203 C 218.325311 843.302689 217.870658 843.131416 216.796304 843.190583 C 215.721951 843.246636 215.606731 842.45255 215.155191 842.172285 C 214.700537 841.888906 213.794343 842.113118 211.813797 842.172285 C 209.830136 842.228338 210.452949 842.057065 209.945356 841.153987 C 209.434649 840.247796 209.319429 839.456825 209.319429 839.456825 C 209.319429 839.456825 208.472402 839.288665 207.338882 839.344718 C 206.205361 839.400771 205.865928 839.005286 205.187061 838.441641 C 204.505081 837.874882 204.676354 837.818829 203.93832 836.405046 C 203.2034 834.991262 203.714107 835.670127 202.748747 835.558021 C 201.789614 835.442801 201.447066 835.614074 199.295246 835.614074 C 197.143425 835.614074 198.332999 835.218589 197.651018 834.424503 C 196.972152 833.633532 197.087372 833.353267 197.087372 833.353267 C 197.087372 833.353267 196.009905 833.692699 195.159765 833.860858 C 194.312738 834.032132 193.630757 834.539724 192.157804 834.312397 C 190.68485 834.088185 191.310777 833.294099 191.310777 833.294099 L 190.856123 831.880316 C 190.856123 831.880316 189.043736 832.559181 188.08149 832.898614 C 187.116129 833.238046 186.156996 833.40932 185.587122 833.238046 C 185.023475 833.069887 184.852202 832.163696 184.229388 830.186267 C 183.606575 828.205725 182.927708 828.716431 181.965461 828.943757 C 181.0001 829.16797 180.660667 829.392182 179.754473 829.846835 C 178.84828 830.298374 175.678159 831.428777 175.167452 831.372724 C 174.656745 831.316671 173.862658 831.316671 173.977879 829.846835 C 174.030818 829.174198 174.578894 827.558001 174.093099 827.187427 C 173.984107 827.106462 173.837746 827.072207 173.666472 827.072207 Z M 173.666472 827.072207 " transform="matrix(1.254388,0,0,1.254391,-59.907712,-1037.319837)"/>
<path style="fill-rule:nonzero;fill:rgb(78.823529%,65.882353%,58.039216%);fill-opacity:1;stroke-width:0.23916;stroke-linecap:butt;stroke-linejoin:miter;stroke:rgb(0%,0%,0%);stroke-opacity:1;stroke-miterlimit:4;" d="M 196.321312 860.377081 C 196.492585 859.019351 197.766239 857.238108 198.700459 855.880378 C 199.634679 854.525762 202.779887 852.321007 204.816487 850.792004 C 206.856201 849.266114 207.195635 848.674443 209.490702 846.382494 C 211.782656 844.09366 212.100291 845.149327 212.657709 843.754228 C 211.552215 844.261819 209.319429 845.874903 208.129855 846.637847 C 206.940281 847.400792 206.177335 847.908384 204.648328 849.097955 C 203.119321 850.284412 201.50312 850.963277 200.229466 852.321007 C 198.955813 853.675623 198.021592 853.930976 197.255532 854.438568 C 196.492585 854.949274 193.518651 857.577541 192.244998 858.595838 C 190.96823 859.614136 190.460637 859.698216 189.778656 858.848077 C 189.09979 858.001053 190.373443 857.069949 191.310777 855.712219 C 192.244998 854.354488 193.518651 853.252111 195.131738 851.554948 C 196.747939 849.8609 196.660745 850.113139 198.700459 848.163737 C 200.740173 846.214335 200.908333 846.721927 203.626914 844.17774 C 204.408544 843.290233 206.015403 842.119346 205.890841 841.779913 C 204.77289 842.312418 203.542834 843.246636 201.079607 844.688446 C 198.616379 846.130256 197.255532 847.145439 196.321312 847.572065 C 195.387091 847.995578 189.778656 851.642142 186.636562 855.033354 C 183.494468 858.424565 183.239115 855.628139 184.089255 853.675623 C 184.936282 851.726222 185.786422 851.810301 186.891916 850.200332 C 187.99741 848.587249 191.81837 845.45139 195.471171 842.396497 C 199.123972 839.344718 199.123972 839.260639 197.255532 840.191743 C 195.387091 841.125961 194.624145 841.549473 193.092024 842.567771 C 191.563017 843.586068 189.610497 844.601252 187.654862 846.466574 C 185.702342 848.33501 189.778656 844.688446 181.370674 851.642142 C 172.959579 858.595838 179.41504 852.149734 179.670394 850.707924 C 179.925747 849.266114 180.688694 847.908384 181.965461 846.214335 C 183.239115 844.517172 185.531068 843.414795 190.88415 839.089365 C 196.237232 834.763936 192.839784 836.716452 191.310777 837.308123 C 189.778656 837.902909 189.09979 838.837127 187.315429 839.85231 C 185.531068 840.870608 183.662628 842.567771 182.133621 843.670148 C 180.604614 844.772525 180.009827 846.043062 174.996179 849.350194 C 169.985644 852.657326 170.153804 851.047357 170.835785 849.437387 C 171.514651 847.824304 172.617031 847.145439 174.572665 844.688446 C 176.525186 842.228338 178.652094 840.954688 182.388974 838.071068 C 186.125855 835.190562 185.702342 834.000991 182.899681 836.545178 C 180.093907 839.089365 180.859967 837.818829 179.075607 839.089365 C 177.291246 840.363016 177.207166 840.786528 168.88015 846.298415 C 160.553134 851.810301 163.866502 847.572065 164.209049 845.280117 C 164.389665 844.043835 166.351528 841.904476 168.88015 839.83674 C 170.854469 838.223657 173.218046 835.965963 175.338726 834.720339 C 175.52557 834.608233 176.668433 834.05393 176.852163 833.948052 C 177.995025 833.054317 178.960386 832.584094 179.352759 831.419435 C 176.889532 833.113484 175.506886 833.661559 173.893799 834.85113 C 172.277598 836.037586 170.748591 836.884611 169.89845 837.139964 C 169.051424 837.395317 167.94593 838.581774 160.384975 844.772525 C 152.824019 850.963277 157.239767 844.856605 157.582314 842.82001 C 157.921748 840.786528 163.698342 836.121666 167.606497 832.135669 C 171.514651 828.149672 167.17987 831.372724 165.398623 832.646375 C 163.614263 833.916911 162.932282 834.088185 160.808488 835.866313 C 158.684694 837.647556 154.947813 840.702449 153.67416 841.549473 C 152.397392 842.396497 149.510652 845.196037 147.642211 847.740225 C 145.770657 850.284412 145.00771 849.097955 144.923631 849.097955 C 144.836437 849.097955 145.00771 847.316712 145.263064 846.382494 C 145.518417 845.45139 148.321078 841.21004 149.678811 839.85231 C 151.039659 838.497694 153.586966 834.424503 153.163453 835.019289 C 152.736825 835.614074 151.123739 836.96869 150.018245 838.158261 C 148.915865 839.344718 142.799837 844.856605 141.778423 845.874903 C 140.760123 846.8932 139.738708 848.842602 138.465055 849.437387 C 137.191401 850.029059 137.359561 848.926682 137.107322 848.33501 C 136.851968 847.740225 139.143922 842.312418 139.909982 840.954688 C 140.672929 839.600071 142.799837 836.461099 142.033776 837.224043 C 141.267715 837.986988 140.504769 839.089365 139.738708 839.768231 C 138.975762 840.447096 138.720408 840.363016 136.936048 843.670148 C 135.151687 846.97728 133.283247 849.010761 132.349027 849.097955 C 131.414806 849.182035 130.732826 848.758522 130.82002 848.41909 C 130.904099 848.079657 131.498886 846.553768 131.922399 845.703629 C 132.349027 844.856605 134.133387 842.312418 133.962114 841.972985 C 133.793954 841.633553 131.414806 844.688446 130.225233 846.466574 C 129.035659 848.247816 121.926243 851.330736 124.305391 850.93525 C 126.684538 850.539765 130.988179 849.633573 135.861695 850.651871 C 140.728982 851.670169 149.678811 851.782275 151.494313 851.838328 C 153.303586 851.894381 162.820175 855.400813 169.219584 856.191784 C 175.622106 856.982755 189.893877 863.540966 197.766239 863.992505 C 198.164839 864.017417 196.153152 861.731697 196.321312 860.377081 Z M 196.321312 860.377081 " transform="matrix(1.254388,0,0,1.254391,-59.907712,-1037.319837)"/>
<path style="fill-rule:nonzero;fill:rgb(64.313725%,32.156863%,10.980392%);fill-opacity:1;stroke-width:0.23916;stroke-linecap:butt;stroke-linejoin:miter;stroke:rgb(0%,0%,0%);stroke-opacity:1;stroke-miterlimit:4;" d="M 84.601032 916.573411 C 83.467512 915.215681 79.391198 910.239413 79.279091 909.448441 C 79.163871 908.65747 78.824438 907.866499 79.730631 907.751278 C 80.636825 907.639172 83.355406 907.411846 85.055686 906.963421 C 86.755967 906.508768 88.001594 906.169336 89.019894 905.605691 C 90.038194 905.038932 91.283821 903.456989 91.738475 903.908528 C 92.193129 904.360067 90.720175 906.284556 90.832281 906.848201 C 90.944388 907.411846 91.171714 908.769576 92.532562 911.145604 C 93.890295 913.518518 95.023816 915.327787 95.135922 917.703815 C 95.251143 920.076729 95.475356 921.434459 94.572276 922.337536 C 93.662968 923.243728 93.099322 924.82567 91.399041 923.58316 C 89.698761 922.337536 85.734553 917.928027 84.601032 916.573411 Z M 210.807953 887.556598 C 209.736714 879.625087 208.758897 870.915061 208.877231 867.511393 C 214.236541 870.033782 219.374752 873.1385 222.177413 874.057147 C 220.536299 875.215578 220.365025 875.978522 220.109672 877.759765 C 219.598965 879.625087 217.437802 883.038097 218.543296 886.09299 C 212.785386 894.183318 211.788884 890.508727 210.807953 887.556598 Z M 218.272372 896.151404 C 219.219049 898.225368 220.614151 902.550798 220.688888 904.135855 C 220.56744 906.100827 220.324543 907.704568 219.991337 908.968876 C 218.303513 915.396296 214.277024 913.203998 211.978842 906.312583 C 212.115861 898.100806 218.642946 894.080554 218.272372 896.151404 Z M 271.8499 899.215639 C 271.8499 901.9311 274.229048 903.625149 274.229048 906.848201 C 274.229048 910.071253 273.207634 911.428984 270.99976 914.820195 C 268.791886 918.211407 269.810186 916.177925 265.902032 917.364382 C 261.993877 918.550839 260.804304 916.346085 261.315011 914.820195 C 261.825718 913.294306 265.223165 912.444167 265.562599 910.410686 C 265.902032 908.37409 263.015291 905.829903 264.033591 902.606851 C 265.051891 899.386913 261.473828 892.791333 263.295558 893.024888 C 264.513158 893.180591 265.631108 893.280241 266.580899 893.280241 C 268.29675 893.280241 269.838213 893.516909 272.092798 893.115196 C 272.964737 892.959493 271.8499 896.503293 271.8499 899.215639 Z M 248.572247 892.093784 C 248.572247 892.940808 249.590547 896.33202 249.07984 898.197342 C 248.572247 900.062664 250.269414 905.661744 250.948281 909.224229 C 251.630261 912.7836 251.630261 916.685517 250.780121 919.061545 C 249.929981 921.434459 248.740407 921.945165 246.021826 922.792189 C 243.303245 923.639213 241.434805 926.694107 238.884384 926.694107 C 236.337077 926.694107 235.997643 925.843968 235.147503 922.113324 C 234.297363 918.38268 235.65821 911.089551 236.337077 908.034658 C 237.015943 904.982879 235.318777 898.197342 235.318777 898.197342 C 235.318777 898.197342 232.952086 880.27904 237.853628 883.642225 C 239.827946 884.996841 241.406778 886.074306 242.169725 886.494704 C 242.948242 886.924444 244.265492 887.531686 245.831868 888.188752 C 249.640372 889.786265 248.572247 891.243645 248.572247 892.093784 Z M 194.624145 872.587311 C 196.153152 875.302771 197.342726 880.898737 199.718759 888.360026 C 202.097907 895.824428 196.832019 905.661744 194.708225 913.717818 C 192.584431 921.773891 194.281598 922.368677 194.029358 925.675809 C 193.774005 928.982941 190.289363 931.355855 187.147269 931.779367 C 184.002061 932.205993 176.251148 944.518987 169.035854 941.551288 C 162.543023 938.882538 146.74536 939.70465 141.563552 935.802733 C 138.944621 933.831532 149.261526 916.663719 145.185212 912.973557 C 141.192978 909.361248 145.602497 889.717756 143.052076 885.987112 C 142.373209 884.205869 142.628563 880.898737 139.059842 875.726284 C 135.491121 870.55383 138.209701 861.98705 138.209701 861.98705 C 138.209701 861.98705 141.482586 851.421044 144.462749 851.586089 C 147.682694 851.76359 150.55075 851.810301 151.494313 851.838328 C 153.303586 851.894381 162.820175 855.400813 169.219584 856.191784 C 174.448103 856.836394 184.920711 861.329983 192.877153 863.204648 C 194.664628 863.621932 193.092024 869.874964 194.624145 872.587311 Z M 125.722291 853.423384 C 125.722291 854.949274 121.814137 858.848077 122.832437 865.126023 C 123.853851 871.400854 125.382858 869.874964 127.762006 873.434335 C 129.175792 875.55501 129.188248 881.920149 130.511727 888.123357 C 131.411692 892.346023 134.05865 897.063824 133.716102 898.094578 C 133.320616 899.274807 131.436605 913.238252 129.879571 916.769597 C 128.07964 920.849016 126.76239 923.88211 121.895103 915.003925 C 117.544751 907.069299 123.520646 895.086396 118.519454 892.644972 C 112.350486 889.633676 107.8818 876.317955 107.8818 876.317955 C 107.8818 876.317955 99.554784 863.768292 104.764618 860.772567 C 110.883761 856.41911 121.926243 851.330736 124.305391 850.93525 C 126.684538 850.539765 125.722291 851.894381 125.722291 853.423384 Z M 125.722291 853.423384 " transform="matrix(1.254388,0,0,1.254391,-59.907712,-1037.319837)"/>
<path style="fill-rule:nonzero;fill:rgb(87.45098%,80.392157%,75.686275%);fill-opacity:1;stroke-width:0.23916;stroke-linecap:round;stroke-linejoin:round;stroke:rgb(0%,0%,0%);stroke-opacity:1;stroke-miterlimit:4;" d="M 141.635175 940.265181 C 141.376708 940.265181 140.772579 940.290093 139.598575 940.31812 C 137.854698 940.358603 134.896334 940.408428 131.763582 940.439568 C 134.896334 944.615523 132.68846 941.731903 134.332688 948.346167 C 134.332688 948.346167 136.540561 956.034782 136.992101 958.071377 C 137.446755 960.104858 140.959423 968.076852 141.638289 969.09515 C 142.317156 970.113448 144.696304 972.486362 145.37517 973.788039 C 146.057151 975.086602 147.131504 976.727712 148.265025 978.477813 C 149.395431 980.234143 149.395431 981.022 151.263872 982.94649 C 153.135426 984.867865 154.04162 986.225595 154.552327 986.225595 C 155.05992 986.225595 154.77654 986.621081 155.682733 985.095191 C 156.588927 983.566188 157.722447 980.909894 158.516534 980.458356 C 159.310622 980.006817 160.441028 977.235303 160.441028 977.235303 L 161.179062 975.086602 C 161.179062 975.086602 162.082141 974.183524 162.536795 972.090876 C 162.988335 969.998227 163.159609 967.908693 163.838475 966.719122 C 164.517342 965.532665 165.255376 962.25356 165.255376 962.25356 C 165.255376 962.25356 165.937357 958.747128 165.311429 957.336459 C 164.688616 955.922675 162.820175 953.039056 162.764122 953.039056 C 162.708069 953.039056 160.839629 950.890354 157.383014 949.137138 C 153.926399 947.383922 151.151765 944.727629 149.794032 944.500303 C 148.433184 944.27609 145.770657 943.030466 145.770657 942.974413 C 145.770657 942.91836 144.07349 942.239495 142.317156 942.127389 C 141.523069 942.127389 140.560822 941.165144 140.560822 941.165144 C 140.043887 940.430226 142.40435 940.258953 141.635175 940.265181 Z M 141.635175 940.265181 " transform="matrix(1.254388,0,0,1.254391,-59.907712,-1037.319837)"/>
<path style="fill-rule:nonzero;fill:rgb(87.45098%,80.392157%,75.686275%);fill-opacity:1;stroke-width:0.23916;stroke-linecap:round;stroke-linejoin:round;stroke:rgb(0%,0%,0%);stroke-opacity:1;stroke-miterlimit:4;" d="M 246.021826 929.3504 C 242.113672 930.764183 236.50835 929.857992 232.939629 931.103616 C 229.370908 932.346126 222.40474 933.931182 219.742212 935.117639 C 217.079684 936.304096 209.375482 937.546606 207.734368 938.113365 C 206.093255 938.680124 192.668511 941.504577 190.912177 941.956115 C 189.155843 942.410768 189.495276 943.257793 189.495276 943.257793 C 189.495276 943.257793 191.762317 946.536898 195.387091 948.573493 C 199.011866 950.606975 207.622262 955.810569 212.265336 956.825753 C 216.911525 957.844051 227.897954 959.541213 230.728641 961.574695 C 233.562443 963.61129 235.147503 963.723396 238.205517 964.514367 C 241.263531 965.308453 243.757899 965.647885 245.797613 964.629588 C 247.834213 963.61129 253.159268 961.235262 255.083762 959.201781 C 257.01137 957.165185 257.690236 957.731944 259.502624 953.773974 C 261.315011 949.816003 262.672744 949.137138 262.221204 944.839735 C 261.769665 940.545446 261.654444 937.263227 261.19979 935.796504 C 260.74825 934.323554 257.802343 930.59291 256.896149 930.368698 C 255.989956 930.141371 248.457027 930.253477 248.457027 930.253477 C 246.47648 930.59291 246.64464 930.029265 246.021826 929.3504 Z M 246.021826 929.3504 " transform="matrix(1.254388,0,0,1.254391,-59.907712,-1037.319837)"/>
<path style="fill-rule:nonzero;fill:rgb(99.607843%,98.431373%,98.039216%);fill-opacity:1;stroke-width:0.23916;stroke-linecap:round;stroke-linejoin:round;stroke:rgb(0%,0%,0%);stroke-opacity:1;stroke-miterlimit:4;" d="M 175.207935 873.082446 C 174.360909 873.08556 173.492084 873.166526 172.620145 873.350256 C 168.624797 874.200394 156.5609 878.778062 153.586966 880.898737 C 150.613032 883.019412 147.555017 887.173569 146.281364 889.294244 C 145.00771 891.414919 141.015476 895.908508 139.231115 897.945103 C 137.446755 899.978584 133.367327 904.898799 132.177753 906.424689 C 130.988179 907.950578 131.075373 910.155333 131.075373 911.173631 C 131.075373 912.191928 130.988179 913.123032 132.009593 915.922572 C 133.027893 918.722112 133.793954 921.434459 135.067607 921.605732 C 136.341261 921.773891 138.636329 921.942051 142.033776 921.605732 C 145.431223 921.2663 153.75824 920.416161 155.71076 920.163922 C 157.666394 919.908569 159.958348 920.416161 161.742708 919.229704 C 163.527069 918.043247 167.606497 915.922572 170.069724 913.462465 C 172.532951 911.002357 177.801953 906.424689 179.075607 904.048661 C 180.34926 901.675747 184.089255 894.80613 184.596848 892.346023 C 185.107555 889.889029 186.041775 884.03771 186.041775 883.187572 C 186.041775 882.340547 184.768122 875.55501 182.644328 874.707986 C 180.98453 874.044691 178.234809 873.073104 175.207935 873.082446 Z M 175.207935 873.082446 " transform="matrix(1.254388,0,0,1.254391,-59.907712,-1037.319837)"/>
<path style=" stroke:none;fill-rule:nonzero;fill:rgb(43.921569%,21.960784%,7.45098%);fill-opacity:1;" d="M 298.667969 86.511719 C 296.136719 86.507812 290.71875 88.070312 289.507812 88.945312 C 288.761719 89.484375 291.125 93 290.792969 93.847656 C 291.085938 95.382812 293.753906 95.734375 294.519531 96.394531 C 295.082031 96.882812 296.535156 96.214844 297.800781 95.367188 C 297.960938 93.601562 298.582031 91.179688 299.070312 89.160156 C 299.257812 88.394531 299.136719 87.460938 298.890625 86.515625 C 298.820312 86.515625 298.746094 86.511719 298.667969 86.511719 Z M 297.617188 104.039062 C 295.34375 104.710938 292.160156 107.648438 291.765625 108.40625 C 290.941406 109.988281 292.691406 110.886719 294.484375 111.90625 C 294.75 112.097656 295.199219 112.375 295.75 112.636719 C 296.378906 111.679688 297.015625 110.585938 297.578125 109.726562 C 298.242188 108.710938 297.96875 106.289062 297.617188 104.039062 Z M 297.617188 104.039062 "/>
<path style="fill-rule:nonzero;fill:rgb(87.45098%,80.392157%,75.686275%);fill-opacity:1;stroke-width:0.23916;stroke-linecap:round;stroke-linejoin:round;stroke:rgb(0%,0%,0%);stroke-opacity:1;stroke-miterlimit:4;" d="M 332.524388 872.736786 C 331.886004 872.733672 330.690202 872.945428 328.205177 873.549555 C 323.786315 874.623906 316.42466 877.392306 312.404399 879.033415 C 308.381024 880.674525 305.20779 881.462382 301.299635 883.103492 C 298.017408 884.177843 294.165307 885.871892 290.652639 886.949356 C 288.105332 888.303973 278.137202 891.358866 281.25127 890.736054 C 284.368451 890.113242 284.536611 891.527025 284.876044 892.657429 C 285.215477 893.787833 286.576325 896.388073 286.177724 898.029183 C 285.782238 899.670292 285.271531 901.64772 285.159424 903.061504 C 285.047318 904.475287 284.424504 905.207091 284.592664 907.075527 C 284.763938 908.940849 285.838291 913.123032 284.98815 914.424709 C 284.13801 915.723273 283.063657 917.703815 282.26957 918.326627 C 281.478597 918.946325 278.588742 920.755594 277.511275 921.151079 C 276.436922 921.549679 275.814108 922.113324 275.247348 922.113324 C 274.680588 922.113324 281.81803 923.527107 283.178877 924.149919 C 284.536611 924.769617 294.0532 928.783641 296.712614 929.518559 C 299.375141 930.253477 311.610312 934.71904 312.911992 934.83426 C 314.213672 934.946366 325.37449 938.225471 326.336736 938.169418 C 327.298983 938.113365 330.525157 938.113365 330.525157 938.113365 L 330.41305 927.425911 C 330.41305 927.425911 328.82799 919.117598 327.921797 917.420435 C 327.015603 915.723273 325.087995 910.0152 324.409129 909.448441 C 323.730262 908.884796 322.939289 906.963421 322.939289 906.963421 C 322.939289 906.963421 323.446882 905.77385 324.128863 904.758667 C 325.486596 903.002337 326.221516 899.726345 326.95955 897.857909 C 328.715884 894.581918 330.244891 889.717756 330.640377 887.908487 C 330.640377 887.908487 333.187684 878.52271 333.187684 878.466656 C 333.187684 878.410603 333.754445 873.434335 333.358958 873.041964 C 333.18457 872.867576 333.022639 872.736786 332.524388 872.736786 Z M 332.524388 872.736786 " transform="matrix(1.254388,0,0,1.254391,-59.907712,-1037.319837)"/>
<path style="fill:none;stroke-width:0.23916;stroke-linecap:butt;stroke-linejoin:miter;stroke:rgb(0%,0%,0%);stroke-opacity:1;stroke-miterlimit:4;" d="M 121.30343 880.391146 C 121.30343 880.391146 123.259064 880.643385 124.361444 880.982817 C 125.466938 881.32225 128.014245 882.848139 129.375092 884.629382 C 130.732826 886.410624 133.283247 887.852434 134.5569 888.447219 C 135.830554 889.038891 135.830554 891.414919 135.746474 892.856729 C 135.662394 894.298538 133.878034 898.368615 133.111973 899.386913 C 132.349027 900.402096 129.203819 908.968876 127.506652 911.25771 C 125.806371 913.546544 119.606263 925.165103 118.074142 927.201698 C 116.545135 929.238294 112.129388 928.559429 109.239533 931.779367 C 106.352793 935.002419 102.784072 933.30837 98.36521 934.071315 C 94.864998 934.675443 91.314962 933.647803 91.314962 933.647803 M 51.196432 906.882456 C 49.844927 905.241346 49.739049 903.179838 53.338911 900.177884 C 58.660852 895.257669 69.083635 886.155271 73.387276 882.651953 C 77.690917 879.145522 89.247221 871.117474 93.890295 868.62934 C 98.875917 864.78659 99.554784 863.768292 104.764618 860.772567 C 110.883761 856.41911 121.926243 851.330736 124.305391 850.93525 C 126.684538 850.539765 130.988179 849.633573 135.861695 850.651871 C 140.728982 851.670169 149.678811 851.782275 151.494313 851.838328 C 153.303586 851.894381 162.820175 855.400813 169.219584 856.191784 C 175.622106 856.982755 189.893877 863.540966 197.766239 863.992505 C 205.638601 864.447158 217.363065 872.475205 222.177413 874.057147 C 226.991761 875.63909 239.510311 885.024867 242.169725 886.494704 C 244.832252 887.96454 253.894188 891.527025 257.350803 892.093784 C 260.804304 892.657429 264.201751 893.280241 266.580899 893.280241 C 268.960046 893.280241 270.99976 893.731779 275.079188 892.317996 C 279.155502 890.904213 278.137202 891.358866 281.25127 890.736054 C 284.368451 890.113242 284.536611 891.527025 284.876044 892.657429 C 285.215477 893.787833 286.576325 896.388073 286.177724 898.029183 C 285.782238 899.670292 285.271531 901.64772 285.159424 903.061504 C 285.047318 904.475287 284.424504 905.207091 284.592664 907.075527 C 284.763938 908.940849 285.838291 913.123032 284.98815 914.424709 C 284.13801 915.723273 283.063657 917.703815 282.26957 918.326627 C 281.478597 918.946325 278.588742 920.755594 277.511275 921.151079 C 276.436922 921.549679 275.814108 922.113324 275.247348 922.113324 C 274.680588 922.113324 272.245387 921.829945 270.26484 921.945165 C 268.281179 922.057271 262.221204 922.960348 259.502624 924.034699 C 256.784043 925.10905 255.367142 925.675809 252.704615 926.522833 C 250.045201 927.369858 249.929981 927.936617 246.021826 929.3504 C 242.113672 930.764183 236.50835 929.857992 232.939629 931.103616 C 229.370908 932.346126 222.40474 933.931182 219.742212 935.117639 C 217.079684 936.304096 209.375482 937.546606 207.734368 938.113365 C 206.093255 938.680124 192.668511 941.504577 190.912177 941.956115 C 189.155843 942.410768 189.893877 942.127389 184.456715 942.410768 C 179.019554 942.691034 178.001254 942.466821 176.073646 942.91836 C 174.149152 943.369899 170.748591 942.974413 169.107477 942.91836 C 167.466364 942.862307 152.908099 942.295548 148.660511 941.392471 C 144.412923 940.486279 144.297703 940.206014 139.598575 940.31812 C 134.896334 940.430226 121.359483 940.601499 119.319769 940.31812 C 117.283169 940.03474 106.520952 938.848283 101.367171 937.661827 C 96.213389 936.47537 97.571123 936.135937 97.007477 935.908611 C 96.440716 935.681284 93.890295 934.211448 90.832281 933.47653 C 87.774267 932.741611 80.070064 930.820236 73.387276 926.747046 C 66.704488 922.676969 62.229573 920.531381 59.398886 918.778166 C 56.565084 917.02495 47.391042 910.239413 47.901749 908.828743 C 48.409342 907.411846 49.698566 905.817447 50.492653 905.8735 M 64.269287 894.694024 C 63.702527 895.08951 63.4752 895.597102 63.4752 895.597102 M 60.473239 897.57453 C 60.868725 898.368615 61.039999 898.764101 61.039999 898.708048 " transform="matrix(1.254388,0,0,1.254391,-59.907712,-1037.319837)"/>
<path style="fill-rule:nonzero;fill:rgb(81.960784%,52.156863%,31.764706%);fill-opacity:1;stroke-width:0.23916;stroke-linecap:round;stroke-linejoin:round;stroke:rgb(0%,0%,0%);stroke-opacity:1;stroke-miterlimit:4;" d="M 175.207935 873.082446 C 174.360909 873.08556 173.492084 873.166526 172.620145 873.350256 C 168.624797 874.200394 156.5609 878.778062 153.586966 880.898737 C 150.613032 883.019412 147.555017 887.173569 146.281364 889.294244 C 145.792455 890.107013 144.898718 891.274786 143.886646 892.514182 C 143.743399 899.807311 142.354525 910.4138 145.185212 912.973557 C 146.711105 914.3562 146.219083 917.632191 145.141615 921.291212 C 149.034199 920.895726 154.219121 920.356994 155.71076 920.163922 C 157.666394 919.908569 159.961462 920.416161 161.742708 919.229704 C 163.527069 918.043247 167.606497 915.922572 170.069724 913.462465 C 172.532951 911.002357 177.801953 906.424689 179.075607 904.048661 C 180.34926 901.675747 184.089255 894.80613 184.596848 892.346023 C 185.107555 889.889029 186.041775 884.03771 186.041775 883.187572 C 186.041775 882.340547 184.768122 875.55501 182.644328 874.707986 C 180.98453 874.044691 178.234809 873.073104 175.207935 873.082446 Z M 132.277403 906.300126 C 132.249377 906.337495 132.202666 906.390434 132.177753 906.424689 C 130.988179 907.950578 131.075373 910.155333 131.075373 911.173631 C 131.075373 911.562888 131.062917 911.942803 131.1034 912.416141 C 131.514457 910.538362 131.913057 908.380319 132.277403 906.300126 Z M 132.277403 906.300126 " transform="matrix(1.254388,0,0,1.254391,-59.907712,-1037.319837)"/>
</g>
</svg>
