<?xml version="1.0" encoding="UTF-8"?>
<svg xmlns="http://www.w3.org/2000/svg" xmlns:xlink="http://www.w3.org/1999/xlink" width="449pt" height="250pt" viewBox="0 0 449 250" version="1.1">
<g id="surface26">
<path style=" stroke:none;fill-rule:nonzero;fill:rgb(96.078432%,92.156863%,89.019608%);fill-opacity:1;" d="M 328.777344 83.734375 C 328.777344 83.734375 325.828125 84.128906 324.167969 84.664062 C 322.5 85.195312 318.660156 87.589844 316.605469 90.386719 C 314.558594 93.1875 310.714844 95.449219 308.792969 96.382812 C 306.875 97.3125 306.875 101.042969 307 103.308594 C 307.128906 105.570312 309.816406 111.964844 310.972656 113.5625 C 312.121094 115.15625 316.863281 128.609375 319.425781 132.203125 C 321.988281 135.796875 331.335938 154.042969 333.644531 157.238281 C 335.953125 160.4375 342.609375 159.371094 346.96875 164.429688 C 351.320312 169.488281 356.699219 166.828125 363.363281 168.027344 C 368.640625 168.976562 373.992188 167.363281 373.992188 167.363281 M 434.484375 125.332031 C 436.519531 122.753906 436.679688 119.519531 431.253906 114.804688 C 423.226562 107.078125 407.511719 92.785156 401.023438 87.285156 C 394.535156 81.777344 377.109375 69.171875 370.109375 65.265625 C 362.59375 59.230469 361.570312 57.628906 353.714844 52.925781 C 344.488281 46.089844 327.839844 38.101562 324.25 37.480469 C 320.664062 36.859375 314.175781 35.433594 306.828125 37.035156 C 299.488281 38.632812 285.992188 38.808594 283.257812 38.898438 C 280.527344 38.984375 266.179688 44.492188 256.53125 45.734375 C 246.875 46.976562 225.359375 57.273438 213.488281 57.984375 C 201.617188 58.695312 183.941406 71.304688 176.679688 73.789062 C 169.421875 76.269531 150.546875 91.007812 146.539062 93.316406 C 142.523438 95.625 128.859375 101.21875 123.648438 102.109375 C 118.441406 102.996094 113.316406 103.972656 109.730469 103.972656 C 106.144531 103.972656 103.066406 104.683594 96.917969 102.460938 C 90.769531 100.242188 92.304688 100.957031 87.609375 99.976562 C 82.910156 99 82.65625 101.21875 82.144531 102.996094 C 81.632812 104.769531 79.582031 108.851562 80.183594 111.429688 C 80.777344 114.007812 81.550781 117.113281 81.71875 119.332031 C 81.886719 121.550781 82.828125 122.703125 82.574219 125.636719 C 82.316406 128.566406 80.695312 135.132812 81.976562 137.175781 C 83.257812 139.214844 84.878906 142.324219 86.074219 143.304688 C 87.269531 144.277344 91.625 147.117188 93.25 147.738281 C 94.871094 148.363281 95.808594 149.25 96.664062 149.25 C 97.519531 149.25 101.191406 148.804688 104.175781 148.984375 C 107.167969 149.160156 116.304688 150.578125 120.402344 152.265625 C 124.503906 153.953125 126.636719 154.84375 130.652344 156.171875 C 134.664062 157.503906 134.835938 158.394531 140.730469 160.613281 C 146.621094 162.835938 155.074219 161.410156 160.453125 163.367188 C 165.835938 165.316406 176.339844 167.808594 180.351562 169.671875 C 184.367188 171.535156 195.984375 173.484375 198.457031 174.375 C 200.933594 175.265625 221.175781 179.699219 223.824219 180.410156 C 226.46875 181.121094 225.359375 180.675781 233.554688 181.121094 C 241.753906 181.5625 243.289062 181.210938 246.195312 181.917969 C 249.097656 182.628906 254.226562 182.007812 256.699219 181.917969 C 259.171875 181.832031 281.125 180.941406 287.527344 179.523438 C 293.933594 178.101562 294.105469 177.660156 301.191406 177.835938 C 308.28125 178.011719 328.691406 178.28125 331.769531 177.835938 C 334.839844 177.390625 351.066406 175.527344 358.835938 173.664062 C 366.609375 171.800781 364.558594 171.269531 365.410156 170.914062 C 366.265625 170.554688 370.109375 168.246094 374.722656 167.09375 C 379.332031 165.9375 390.949219 162.921875 401.023438 156.527344 C 411.101562 150.132812 417.847656 146.765625 422.117188 144.011719 C 426.386719 141.257812 440.222656 130.605469 439.449219 128.390625 C 438.683594 126.164062 436.742188 123.660156 435.542969 123.75 M 414.773438 106.191406 C 415.625 106.8125 415.96875 107.609375 415.96875 107.609375 M 420.496094 110.714844 C 419.898438 111.964844 419.640625 112.585938 419.640625 112.496094 "/>
<path style=" stroke:none;fill-rule:nonzero;fill:rgb(87.058824%,80.000001%,74.901962%);fill-opacity:1;" d="M 182.570312 108.480469 C 181.140625 111.738281 179.039062 118.53125 178.925781 121.019531 C 179.109375 124.105469 179.476562 126.625 179.976562 128.609375 C 182.523438 138.703125 188.59375 135.257812 192.058594 124.4375 C 193.601562 112.152344 190.449219 104.457031 193.824219 94.984375 C 195.4375 82.53125 196.914062 68.851562 196.734375 63.507812 C 188.65625 67.46875 180.90625 72.34375 176.679688 73.789062 C 179.15625 75.605469 179.414062 76.804688 179.800781 79.601562 C 180.570312 82.53125 183.828125 87.890625 182.160156 92.6875 C 181.3125 99.757812 182.855469 104.0625 182.570312 108.480469 Z M 182.570312 108.480469 "/>
<path style="fill-rule:nonzero;fill:rgb(87.058824%,80.000001%,74.901962%);fill-opacity:1;stroke-width:0.23916;stroke-linecap:butt;stroke-linejoin:miter;stroke:rgb(0%,0%,0%);stroke-opacity:1;stroke-miterlimit:4;" d="M 54.441835 909.476887 C 53.506582 908.947031 51.234512 907.377363 50.493564 905.872373 C 49.69821 905.817646 48.410618 907.412189 47.902835 908.827627 C 47.389871 910.240577 56.566232 917.024228 59.397899 918.777978 C 62.229566 920.531727 66.703754 922.676027 73.387835 926.748209 C 75.312746 927.65369 76.333493 925.166103 77.35165 923.695938 C 78.369806 922.225774 80.40871 917.815281 78.369806 916.573975 C 76.333493 915.327693 72.141694 913.745588 69.988798 913.178418 C 67.838493 912.616223 63.98608 911.258 60.812437 908.770412 C 57.869369 905.830084 52.996208 900.857396 51.377002 902.153429 C 49.861426 904.128574 50.161951 905.628589 51.195651 906.882333 C 52.187901 908.083838 53.843376 909.058972 55.2061 910.014206 C 55.801967 910.578888 56.185395 910.790333 56.848622 911.372429 C 57.004065 911.539097 60.877205 914.4446 62.85134 916.573975 C 69.71159 923.489469 67.496517 922.564086 73.72722 925.166103 " transform="matrix(-1.50778,0,0,1.570296,511.676171,-1298.742026)"/>
<path style="fill-rule:nonzero;fill:rgb(63.921571%,31.764707%,9.803922%);fill-opacity:1;stroke-width:0.23916;stroke-linecap:butt;stroke-linejoin:miter;stroke:rgb(0%,0%,0%);stroke-opacity:1;stroke-miterlimit:4;" d="M 70.584666 897.349897 C 71.602822 899.638478 73.387835 903.456925 76.444895 904.220614 C 79.504545 904.981816 79.758437 906.252973 84.346618 904.728082 C 88.934798 903.200703 88.680907 903.200703 90.719811 899.894699 C 92.756123 896.586208 92.504823 894.805095 92.248341 892.26278 C 91.994449 889.717978 88.934798 885.902018 86.385521 885.140817 C 83.838835 884.37464 80.014919 884.120906 76.444895 884.884595 C 72.877461 885.648284 72.369678 887.936865 71.602822 889.21051 C 70.841148 890.481667 69.563919 895.061316 70.584666 897.349897 Z M 70.584666 897.349897 " transform="matrix(-1.50778,0,0,1.570296,511.676171,-1298.742026)"/>
<path style="fill-rule:nonzero;fill:rgb(20%,9.803922%,2.745098%);fill-opacity:1;stroke-width:0.23916;stroke-linecap:butt;stroke-linejoin:miter;stroke:rgb(0%,0%,0%);stroke-opacity:1;stroke-miterlimit:4;" d="M 80.525293 888.193087 C 77.719533 888.446821 76.444895 888.193087 75.172847 889.974199 C 73.898208 891.755312 73.162441 898.252891 74.833461 900.489233 C 76.022606 901.252922 77.126256 901.932034 78.74028 901.932034 C 80.354304 901.932034 82.815497 901.76039 83.921738 901.252922 C 85.027979 900.740479 86.556509 900.912123 87.491762 899.638478 C 88.424425 898.369808 88.849304 897.690697 88.76381 895.740428 C 88.680907 893.787671 88.680907 892.434424 87.831148 891.242869 C 86.981389 890.05629 86.385521 888.446821 84.771497 888.021443 C 83.160064 887.596066 83.328461 887.936865 80.525293 888.193087 Z M 80.525293 888.193087 " transform="matrix(-1.50778,0,0,1.570296,511.676171,-1298.742026)"/>
<path style=" stroke:none;fill-rule:nonzero;fill:rgb(100%,100%,100%);fill-opacity:1;" d="M 399.871094 105.039062 C 399.355469 105.703125 398.71875 105.96875 397.050781 105.433594 C 395.386719 104.90625 394.875 103.972656 391.800781 103.839844 C 388.726562 103.703125 387.320312 103.703125 385.910156 103.972656 C 384.5 104.238281 383.605469 103.308594 383.347656 103.972656 C 383.089844 104.636719 381.039062 105.171875 384.117188 105.835938 C 387.1875 106.5 387.703125 108.101562 390.007812 108.101562 C 392.3125 108.101562 392.441406 109.167969 394.746094 108.898438 C 397.050781 108.632812 399.355469 109.964844 399.488281 110.632812 C 399.617188 111.296875 402.222656 110.1875 402.222656 109.121094 C 402.222656 108.054688 400.382812 104.375 399.871094 105.039062 Z M 399.871094 105.039062 "/>
<path style="fill-rule:nonzero;fill:rgb(87.058824%,80.000001%,74.901962%);fill-opacity:1;stroke-width:0.23916;stroke-linecap:butt;stroke-linejoin:miter;stroke:rgb(0%,0%,0%);stroke-opacity:1;stroke-miterlimit:4;" d="M 173.667176 827.073057 C 172.926227 827.065594 171.734492 827.702417 171.260389 827.926299 C 170.185236 828.433767 168.597119 829.22482 167.467562 829.79199 C 166.332822 830.354185 165.426067 830.694985 163.726549 831.879076 C 162.027031 833.070631 159.306766 835.498516 158.117621 835.89653 C 156.931068 836.292057 157.327449 836.292057 157.042469 835.612945 C 156.760079 834.936322 156.760079 834.481093 157.042469 832.05072 C 157.327449 829.620347 156.249706 831.371608 154.436196 832.391519 C 152.625276 833.408943 152.454288 833.973625 150.757361 835.558218 C 149.055252 837.140324 148.151087 837.364207 146.959352 837.702519 C 145.770208 838.043319 145.319421 837.364207 144.980035 835.782101 C 144.886769 835.346774 145.493 833.612925 144.868634 833.861684 C 143.213158 834.515919 139.249343 838.697554 138.181963 839.968711 C 136.707838 841.717486 134.728521 842.227441 134.611939 841.943856 C 134.500537 841.662759 134.161152 841.493603 133.933168 841.493603 C 133.707774 841.493603 131.554879 843.302079 130.764706 843.926464 C 129.969352 844.545873 121.925139 851.329525 124.306019 850.936486 C 126.684308 850.540959 130.987509 849.63299 135.86067 850.652901 C 140.728649 851.670324 149.679618 851.782265 151.493128 851.83948 C 153.304047 851.894207 162.819794 855.401706 169.218894 856.192758 C 175.623176 856.983811 189.892911 863.541093 197.766135 863.991346 C 205.63936 864.446574 217.362408 872.47402 222.178573 874.056126 C 226.992148 875.638232 239.510549 885.0239 242.168637 886.494064 C 244.023599 887.51895 248.971891 889.553797 252.971976 890.884657 C 254.7259 891.471727 253.104104 889.944348 253.894276 889.548822 C 254.687039 889.153296 257.860682 889.548822 259.391802 889.606037 C 260.920332 889.660763 265.277938 889.038867 266.868646 888.359755 C 268.451581 887.683131 267.770219 883.272638 267.827216 881.974117 C 267.858304 881.299981 268.542257 878.566122 268.166601 875.921817 C 267.816853 873.45413 266.410087 871.068533 266.298685 870.439173 C 266.184693 869.797376 265.011093 867.230185 263.467019 864.842101 C 261.884084 862.394315 259.933265 860.128122 259.614605 859.526126 C 258.99283 858.339547 253.443489 853.307157 252.425333 852.628045 C 251.401995 851.951421 244.77491 847.428987 243.699758 846.921519 C 242.624605 846.414051 240.925087 844.941399 237.243662 844.038405 C 235.694406 843.655316 234.18142 842.881677 232.544079 842.511026 C 230.282373 842.001071 227.99735 841.961269 227.046553 842.055798 C 225.406621 842.227441 225.007649 842.055798 224.046489 841.943856 C 223.082738 841.831915 223.367718 841.662759 222.121577 841.889129 C 220.875437 842.113012 220.365063 842.511026 219.346907 842.906553 C 218.32616 843.302079 217.870191 843.130435 216.795039 843.190138 C 215.722477 843.247352 215.605894 842.451324 215.155107 842.172714 C 214.70173 841.889129 213.794975 842.113012 211.813067 842.172714 C 209.83116 842.227441 210.452935 842.055798 209.945152 841.152803 C 209.434778 840.247321 209.318195 839.456268 209.318195 839.456268 C 209.318195 839.456268 208.473618 839.2896 207.338879 839.344327 C 206.204139 839.401541 205.864754 839.006015 205.185983 838.441333 C 204.504621 837.874163 204.675609 837.819436 203.937252 836.403998 C 203.204075 834.991048 203.714449 835.67016 202.748107 835.558218 C 201.789537 835.443789 201.447561 835.612945 199.294666 835.612945 C 197.144361 835.612945 198.333505 835.217419 197.652143 834.423878 C 196.973372 833.632826 197.087365 833.354216 197.087365 833.354216 C 197.087365 833.354216 196.009621 833.692528 195.159862 833.861684 C 194.312694 834.03084 193.631332 834.540795 192.157208 834.311937 C 190.685674 834.088054 191.310039 833.294514 191.310039 833.294514 L 190.856662 831.879076 C 190.856662 831.879076 189.043151 832.558188 188.081991 832.898987 C 187.115649 833.237299 186.15708 833.408943 185.587119 833.237299 C 185.02234 833.070631 184.851352 832.162661 184.229577 830.185029 C 183.607802 828.204909 182.926441 828.717352 181.96528 828.943723 C 180.998938 829.167606 180.659553 829.391489 179.755389 829.846717 C 178.848634 830.299458 175.677581 831.428823 175.167208 831.371608 C 174.656834 831.316881 173.86148 831.316881 173.978063 829.846717 C 174.029878 829.175068 174.579112 827.558136 174.092055 827.187486 C 173.983245 827.105395 173.838164 827.073057 173.667176 827.073057 Z M 173.667176 827.073057 " transform="matrix(-1.50778,0,0,1.570296,511.676171,-1298.742026)"/>
<path style="fill-rule:nonzero;fill:rgb(78.039217%,65.098041%,58.039218%);fill-opacity:1;stroke-width:0.23916;stroke-linecap:butt;stroke-linejoin:miter;stroke:rgb(0%,0%,0%);stroke-opacity:1;stroke-miterlimit:4;" d="M 196.320509 860.376881 C 196.491497 859.018658 197.766135 857.237545 198.701389 855.879322 C 199.634051 854.526075 202.779196 852.322072 204.815509 850.792206 C 206.857003 849.267314 207.196388 848.675268 209.491774 846.381713 C 211.781979 844.093132 212.100638 845.150357 212.657645 843.75482 C 211.551404 844.262288 209.318195 845.874245 208.129051 846.637934 C 206.939906 847.401624 206.178232 847.909091 204.647111 849.098158 C 203.118581 850.284738 201.501966 850.963849 200.229919 852.322072 C 198.95528 853.67532 198.022618 853.931541 197.255762 854.439009 C 196.491497 854.948965 193.519931 857.578345 192.245292 858.595768 C 190.968063 859.613192 190.46028 859.69777 189.778918 858.847015 C 189.100148 858.001235 190.372195 857.070877 191.310039 855.712654 C 192.245292 854.354431 193.519931 853.25243 195.131364 851.555895 C 196.747979 849.861848 196.659894 850.113094 198.701389 848.162825 C 200.740292 846.215044 200.90869 846.722512 203.626364 844.17771 C 204.408764 843.289641 206.015016 842.120475 205.890661 841.779675 C 204.774057 842.312019 203.543461 843.247352 201.079678 844.687665 C 198.615895 846.130466 197.255762 847.145402 196.320509 847.573267 C 195.387846 847.996157 189.778918 851.642961 186.636364 855.033543 C 183.49381 858.424125 183.239919 855.628076 184.089678 853.67532 C 184.936846 851.725051 185.786605 851.809629 186.892847 850.20016 C 187.996497 848.588203 191.817822 845.451355 195.47075 842.396597 C 199.123677 839.344327 199.123677 839.259749 197.255762 840.192594 C 195.387846 841.12544 194.623581 841.54833 193.092461 842.568241 C 191.563931 843.585664 189.610521 844.6006 187.654521 846.466291 C 185.701111 848.334469 189.778918 844.687665 181.369413 851.642961 C 172.959907 858.595768 179.416003 852.150428 179.669895 850.707628 C 179.926377 849.267314 180.688051 847.909091 181.96528 846.215044 C 183.239919 844.516022 185.530123 843.41402 190.88516 839.090593 C 196.237605 834.764678 192.838569 836.717434 191.310039 837.306993 C 189.778918 837.904014 189.100148 838.836859 187.315135 839.851795 C 185.530123 840.871706 183.662208 842.568241 182.133678 843.670242 C 180.605148 844.772243 180.00928 846.043401 174.99622 849.349405 C 169.98575 852.657896 170.154148 851.048427 170.835509 849.43647 C 171.51428 847.824513 172.617931 847.145402 174.573931 844.687665 C 176.52475 842.227441 178.651738 840.953796 182.39016 838.070682 C 186.125991 835.190055 185.701111 834.000989 182.900533 836.545791 C 180.094774 839.090593 180.859039 837.819436 179.076618 839.090593 C 177.291605 840.364238 177.206111 840.787128 168.879509 846.299622 C 160.552906 851.809629 163.866449 847.573267 164.208425 845.279711 C 164.389776 844.04338 166.350958 841.904055 168.879509 839.836869 C 170.853644 838.222425 173.21898 835.966183 175.338196 834.719901 C 175.524728 834.60796 176.66724 834.053228 176.851182 833.948749 C 177.996284 833.053218 178.960035 832.583064 179.353826 831.418873 C 176.890043 833.11292 175.506593 833.662677 173.892569 834.851744 C 172.278545 836.038323 170.747424 836.884103 169.897665 837.140324 C 169.050497 837.396546 167.946847 838.580638 160.384509 844.772243 C 152.824762 850.963849 157.239364 844.856821 157.58134 842.819487 C 157.920726 840.787128 163.698051 836.122901 167.607461 832.135298 C 171.51428 828.150182 167.179991 831.371608 165.397569 832.645253 C 163.615148 833.916411 162.931196 834.088054 160.809389 835.866679 C 158.684991 837.647792 154.946569 840.70255 153.674521 841.54833 C 152.397292 842.396597 149.51122 845.195133 147.643305 847.739935 C 145.770208 850.284738 145.008533 849.098158 144.923039 849.098158 C 144.837545 849.098158 145.008533 847.317046 145.262425 846.381713 C 145.518907 845.451355 148.322076 841.210018 149.679618 839.851795 C 151.03975 838.498547 153.586437 834.423878 153.164148 835.018412 C 152.736678 835.612945 151.122653 836.968681 150.019003 838.157748 C 148.915352 839.344327 142.798642 844.856821 141.777895 845.874245 C 140.759738 846.894156 139.738991 848.841937 138.464352 849.43647 C 137.192304 850.028516 137.360702 848.926515 137.10681 848.334469 C 136.852919 847.739935 139.143123 842.312019 139.909979 840.953796 C 140.671653 839.600548 142.798642 836.461213 142.034377 837.224902 C 141.267521 837.986104 140.505847 839.090593 139.738991 839.767217 C 138.974726 840.446328 138.720835 840.364238 136.935822 843.670242 C 135.15081 846.976246 133.282895 849.011093 132.350232 849.098158 C 131.414979 849.182736 130.733618 848.757359 130.819112 848.419047 C 130.904606 848.080735 131.497883 846.553356 131.922762 845.702601 C 132.350232 844.856821 134.132654 842.312019 133.961666 841.973707 C 133.793268 841.632908 131.414979 844.687665 130.225835 846.466291 C 129.03669 848.247403 121.925139 851.329525 124.306019 850.936486 C 126.684308 850.540959 130.987509 849.63299 135.86067 850.652901 C 140.728649 851.670324 149.679618 851.782265 151.493128 851.83948 C 153.304047 851.894207 162.819794 855.401706 169.218894 856.192758 C 175.623176 856.983811 189.892911 863.541093 197.766135 863.991346 C 198.165108 864.016222 196.152111 861.732616 196.320509 860.376881 Z M 196.320509 860.376881 " transform="matrix(-1.50778,0,0,1.570296,511.676171,-1298.742026)"/>
<path style="fill-rule:nonzero;fill:rgb(63.921571%,31.764707%,9.803922%);fill-opacity:1;stroke-width:0.23916;stroke-linecap:butt;stroke-linejoin:miter;stroke:rgb(0%,0%,0%);stroke-opacity:1;stroke-miterlimit:4;" d="M 84.600509 916.573975 C 83.468361 915.215752 79.390553 910.240577 79.279152 909.449524 C 79.16516 908.658471 78.823184 907.867418 79.729939 907.750501 C 80.636694 907.63856 83.354368 907.412189 85.056477 906.964424 C 86.755995 906.509195 88.002136 906.168395 89.020292 905.606201 C 90.038449 905.039031 91.284589 903.456925 91.737967 903.909666 C 92.193935 904.359919 90.719811 906.285312 90.831212 906.847507 C 90.945204 907.412189 91.170597 908.770412 92.533321 911.146058 C 93.890863 913.519217 95.023011 915.327693 95.137003 917.70334 C 95.250995 920.076498 95.476389 921.434721 94.572224 922.337716 C 93.662879 923.243197 93.0981 924.825303 91.398582 923.583997 C 89.699063 922.337716 85.735248 917.927223 84.600509 916.573975 Z M 210.807864 887.556264 C 209.737893 879.625835 208.758598 870.914303 208.877771 867.511283 C 214.235399 870.033696 219.375405 873.138206 222.178573 874.056126 C 220.536051 875.215342 220.365063 875.979031 220.108581 877.760144 C 219.598207 879.625835 217.43754 883.038805 218.543781 886.093563 C 212.784591 894.183198 211.789751 890.509031 210.807864 887.556264 Z M 218.271754 896.15088 C 219.219961 898.225528 220.613773 902.551443 220.688904 904.136036 C 220.56714 906.101231 220.323612 907.705725 219.991998 908.969419 C 218.302843 915.397346 214.27685 913.203293 211.978874 906.312676 C 212.116183 898.101149 218.642228 894.081207 218.271754 896.15088 Z M 271.850617 899.215588 C 271.850617 901.932034 274.228906 903.626081 274.228906 906.847507 C 274.228906 910.071421 273.208159 911.429643 271.000858 914.820225 C 268.790967 918.210808 269.809123 916.178448 265.902304 917.365028 C 261.992894 918.551607 260.80375 916.345117 261.314123 914.820225 C 261.824497 913.295334 265.223533 912.444579 265.562919 910.409732 C 265.902304 908.374886 263.016232 905.830084 264.034388 902.60617 C 265.052545 899.387231 261.474748 892.790149 263.296031 893.023982 C 264.513673 893.1807 265.630277 893.280204 266.581075 893.280204 C 268.296137 893.280204 269.837621 893.516524 272.091555 893.116023 C 272.964631 892.959305 271.850617 896.504117 271.850617 899.215588 Z M 248.572919 892.093624 C 248.572919 892.941892 249.591075 896.332474 249.080702 898.198164 C 248.572919 900.063855 250.269846 905.660928 250.948617 909.223153 C 251.629979 912.782891 251.629979 916.685916 250.78022 919.061563 C 249.930461 921.434721 248.741316 921.944677 246.021051 922.792944 C 243.303376 923.638724 241.435461 926.693482 238.883593 926.693482 C 236.336906 926.693482 235.997521 925.842727 235.147762 922.113833 C 234.298003 918.382451 235.658136 911.088844 236.336906 908.034086 C 237.015677 904.981816 235.31875 898.198164 235.31875 898.198164 C 235.31875 898.198164 232.950824 880.28007 237.852483 883.643289 C 239.829209 884.996536 241.406963 886.073662 242.168637 886.494064 C 242.948446 886.924417 244.264537 887.531388 245.831928 888.188112 C 249.640299 889.785143 248.572919 891.242869 248.572919 892.093624 Z M 194.623581 872.588449 C 196.152111 875.302407 197.343847 880.89948 199.719545 888.359755 C 202.097834 895.825006 196.830882 905.660928 194.709075 913.718224 C 192.584678 921.773033 194.281605 922.367567 194.030305 925.676058 C 193.773822 928.982062 190.289292 931.355221 187.146738 931.780598 C 184.001593 932.205976 176.250132 944.519535 169.034953 941.551843 C 162.542586 938.882661 146.744322 939.703565 141.562864 935.803028 C 138.943637 933.830371 149.26251 916.663528 145.184703 912.974435 C 141.19239 909.362458 145.60181 889.717978 143.052533 885.986596 C 142.373762 884.205484 142.627654 880.89948 139.06022 875.725297 C 135.490196 870.553602 138.210461 861.98635 138.210461 861.98635 C 138.210461 861.98635 141.482551 851.421565 144.46189 851.585746 C 147.682166 851.762365 150.550102 851.809629 151.493128 851.83948 C 153.304047 851.894207 162.819794 855.401706 169.218894 856.192758 C 174.446985 856.837044 184.921302 861.329627 192.87743 863.205268 C 194.665033 863.620695 193.092461 869.874491 194.623581 872.588449 Z M 125.723148 853.424073 C 125.723148 854.948965 121.813738 858.847015 122.831895 865.125686 C 123.852642 871.40187 125.383762 869.874491 127.762052 873.434229 C 129.176589 875.556141 129.189543 881.919391 130.510815 888.123434 C 131.412388 892.344871 134.057523 897.063824 133.715546 898.093686 C 133.321756 899.27529 131.435705 913.23812 129.878677 916.770494 C 128.080711 920.850138 126.76203 923.882507 121.894051 915.004307 C 117.544217 907.068902 123.521028 895.086192 118.518331 892.645869 C 112.349806 889.6334 107.880798 876.317343 107.880798 876.317343 C 107.880798 876.317343 99.554196 863.767463 104.764152 860.772407 C 110.883453 856.419129 121.925139 851.329525 124.306019 850.936486 C 126.684308 850.540959 125.723148 851.894207 125.723148 853.424073 Z M 125.723148 853.424073 " transform="matrix(-1.50778,0,0,1.570296,511.676171,-1298.742026)"/>
<path style="fill-rule:nonzero;fill:rgb(87.058824%,80.000001%,74.901962%);fill-opacity:1;stroke-width:0.23916;stroke-linecap:round;stroke-linejoin:round;stroke:rgb(0%,0%,0%);stroke-opacity:1;stroke-miterlimit:4;" d="M 141.635404 940.26576 C 141.376332 940.26576 140.772692 940.290636 139.599092 940.317999 C 137.855531 940.357801 134.896919 940.407553 131.764728 940.439891 C 134.896919 944.616551 132.689618 941.730949 134.33214 948.345445 C 134.33214 948.345445 136.539441 956.034579 136.992818 958.071913 C 137.446196 960.104272 140.959224 968.076991 141.637995 969.094414 C 142.316766 970.114325 144.695055 972.487484 145.376417 973.788492 C 146.057779 975.087013 147.13034 976.728821 148.26508 978.477595 C 149.394637 980.233832 149.394637 981.022397 151.265144 982.945302 C 153.13565 984.868208 154.042405 986.226431 154.552778 986.226431 C 155.060561 986.226431 154.775581 986.621957 155.682336 985.094578 C 156.589091 983.567199 157.72124 980.910456 158.516594 980.457715 C 159.309357 980.007461 160.441505 977.236289 160.441505 977.236289 L 161.179863 975.087013 C 161.179863 975.087013 162.081436 974.184018 162.537405 972.091957 C 162.988192 969.997408 163.15918 967.907835 163.837951 966.718768 C 164.516722 965.532188 165.255079 962.253548 165.255079 962.253548 C 165.255079 962.253548 165.936441 958.746049 165.312075 957.335587 C 164.68771 955.922637 162.819794 953.039523 162.762798 953.039523 C 162.708393 953.039523 160.840477 950.890247 157.381854 949.136498 C 153.925822 947.382749 151.151151 944.728492 149.79361 944.499634 C 148.433477 944.275751 145.770208 943.02947 145.770208 942.974743 C 145.770208 942.917529 144.07328 942.238417 142.316766 942.126476 C 141.524003 942.126476 140.560252 941.166267 140.560252 941.166267 C 140.044697 940.429941 142.404851 940.258297 141.635404 940.26576 Z M 141.635404 940.26576 " transform="matrix(-1.50778,0,0,1.570296,511.676171,-1298.742026)"/>
<path style="fill-rule:nonzero;fill:rgb(87.058824%,80.000001%,74.901962%);fill-opacity:1;stroke-width:0.23916;stroke-linecap:round;stroke-linejoin:round;stroke:rgb(0%,0%,0%);stroke-opacity:1;stroke-miterlimit:4;" d="M 246.021051 929.350225 C 242.114232 930.763175 236.507895 929.857693 232.940461 931.103975 C 229.370437 932.345281 222.403967 933.932362 219.743288 935.116454 C 217.080019 936.303033 209.375191 937.546827 207.73526 938.113997 C 206.092738 938.681167 192.667581 941.504579 190.911067 941.95732 C 189.154553 942.410061 189.496529 943.258328 189.496529 943.258328 C 189.496529 943.258328 191.763417 946.536969 195.387846 948.574303 C 199.012276 950.606662 207.621268 955.810696 212.266445 956.825631 C 216.911622 957.843055 227.898903 959.542077 230.727979 961.574436 C 233.562236 963.611771 235.147762 963.723712 238.204822 964.514765 C 241.264473 965.308306 243.756754 965.649105 245.798248 964.629194 C 247.834561 963.611771 253.158509 961.236124 255.08342 959.201278 C 257.010923 957.163943 257.689694 957.731113 259.503204 953.773361 C 261.314123 949.815609 262.671665 949.136498 262.220878 944.840434 C 261.770091 940.54437 261.653509 937.263242 261.200131 935.795565 C 260.749344 934.322913 257.801095 930.594019 256.896931 930.367649 C 255.990175 930.141278 248.456336 930.25322 248.456336 930.25322 C 246.477019 930.594019 246.645417 930.029337 246.021051 929.350225 Z M 246.021051 929.350225 " transform="matrix(-1.50778,0,0,1.570296,511.676171,-1298.742026)"/>
<path style="fill-rule:nonzero;fill:rgb(99.215686%,98.039216%,98.039216%);fill-opacity:1;stroke-width:0.23916;stroke-linecap:round;stroke-linejoin:round;stroke:rgb(0%,0%,0%);stroke-opacity:1;stroke-miterlimit:4;" d="M 175.208659 873.083479 C 174.361491 873.085967 173.491006 873.165569 172.620521 873.349651 C 168.625618 874.200406 156.560593 878.777567 153.586437 880.89948 C 150.61228 883.018904 147.55522 887.173176 146.280581 889.295088 C 145.008533 891.414513 141.01622 895.909584 139.231208 897.94443 C 137.446196 899.979277 133.368389 904.899726 132.176653 906.424617 C 130.987509 907.949508 131.075594 910.155999 131.075594 911.173422 C 131.075594 912.190845 130.987509 913.123691 132.010847 915.922227 C 133.029003 918.723251 133.793268 921.434721 135.067907 921.606365 C 136.342545 921.773033 138.63534 921.942189 142.034377 921.606365 C 145.430822 921.265565 153.757425 920.417298 155.710834 920.163564 C 157.666835 919.907342 159.95963 920.417298 161.742051 919.230718 C 163.527063 918.044139 167.607461 915.922227 170.068653 913.462003 C 172.532437 911.001778 177.801979 906.424617 179.076618 904.048971 C 180.348666 901.675812 184.089678 894.805095 184.597461 892.344871 C 185.107834 889.889622 186.040497 884.038815 186.040497 883.18806 C 186.040497 882.339793 184.768449 875.556141 182.644051 874.707874 C 180.983394 874.043688 178.234631 873.073529 175.208659 873.083479 Z M 175.208659 873.083479 " transform="matrix(-1.50778,0,0,1.570296,511.676171,-1298.742026)"/>
<path style=" stroke:none;fill-rule:nonzero;fill:rgb(43.137255%,20.784314%,6.666667%);fill-opacity:1;" d="M 80.667969 108.113281 C 83.710938 108.109375 90.222656 110.066406 91.675781 111.160156 C 92.574219 111.835938 89.734375 116.238281 90.132812 117.296875 C 89.78125 119.21875 86.574219 119.660156 85.652344 120.488281 C 84.976562 121.097656 83.230469 120.261719 81.707031 119.199219 C 81.515625 116.992188 80.769531 113.957031 80.183594 111.429688 C 79.957031 110.472656 80.101562 109.304688 80.398438 108.121094 C 80.484375 108.121094 80.574219 108.113281 80.667969 108.113281 Z M 81.929688 130.054688 C 84.664062 130.898438 88.488281 134.574219 88.964844 135.523438 C 89.953125 137.503906 87.851562 138.628906 85.695312 139.90625 C 85.375 140.144531 84.835938 140.492188 84.175781 140.820312 C 83.417969 139.621094 82.652344 138.253906 81.976562 137.175781 C 81.179688 135.90625 81.507812 132.871094 81.929688 130.054688 Z M 81.929688 130.054688 "/>
<path style="fill-rule:nonzero;fill:rgb(87.058824%,80.000001%,74.901962%);fill-opacity:1;stroke-width:0.23916;stroke-linecap:round;stroke-linejoin:round;stroke:rgb(0%,0%,0%);stroke-opacity:1;stroke-miterlimit:4;" d="M 332.525487 872.737704 C 331.885577 872.732729 330.691251 872.946662 328.204151 873.548658 C 323.786958 874.623296 316.424107 877.391981 312.403296 879.033789 C 308.379894 880.675597 305.208842 881.461674 301.299432 883.103482 C 298.016979 884.17812 294.164565 885.872167 290.651537 886.949293 C 288.10485 888.305028 278.138316 891.359786 281.252372 890.735401 C 284.369019 890.113504 284.537417 891.526454 284.876802 892.658307 C 285.216187 893.787671 286.57632 896.387201 286.177348 898.029008 C 285.780966 899.670816 285.270593 901.648449 285.159191 903.061398 C 285.04779 904.474348 284.423424 905.208187 284.591822 907.076365 C 284.76281 908.942056 285.837962 913.123691 284.988203 914.424699 C 284.138444 915.72322 283.063292 917.70334 282.270529 918.327724 C 281.477766 918.947133 278.589103 920.75561 277.51136 921.151136 C 276.436207 921.54915 275.814433 922.113833 275.247063 922.113833 C 274.679693 922.113833 281.817151 923.526782 283.179875 924.148679 C 284.537417 924.770576 294.053164 928.783055 296.713842 929.519381 C 299.374521 930.25322 311.610533 934.71844 312.911079 934.835356 C 314.214215 934.947298 325.375075 938.225938 326.336236 938.168724 C 327.299987 938.113997 330.525444 938.113997 330.525444 938.113997 L 330.414043 927.424832 C 330.414043 927.424832 328.828517 919.118777 327.921762 917.419755 C 327.015007 915.72322 325.087504 910.014206 324.408733 909.449524 C 323.729962 908.884841 322.93979 906.964424 322.93979 906.964424 C 322.93979 906.964424 323.447573 905.772869 324.128935 904.757933 C 325.486477 903.001696 326.222244 899.725543 326.960601 897.857365 C 328.717115 894.581212 330.245645 889.717978 330.639436 887.909502 C 330.639436 887.909502 333.188713 878.523833 333.188713 878.466619 C 333.188713 878.409404 333.753492 873.434229 333.359702 873.04119 C 333.183532 872.867059 333.022907 872.737704 332.525487 872.737704 Z M 332.525487 872.737704 " transform="matrix(-1.50778,0,0,1.570296,511.676171,-1298.742026)"/>
<path style="fill:none;stroke-width:0.23916;stroke-linecap:butt;stroke-linejoin:miter;stroke:rgb(0%,0%,0%);stroke-opacity:1;stroke-miterlimit:4;" d="M 121.303365 880.392012 C 121.303365 880.392012 123.259365 880.643258 124.360425 880.984058 C 125.466666 881.322369 128.013352 882.847261 129.376076 884.628374 C 130.733618 886.409486 133.282895 887.852287 134.557533 888.446821 C 135.829581 889.038867 135.829581 891.414513 135.746678 892.857314 C 135.661184 894.297627 133.878762 898.369808 133.111907 899.387231 C 132.350232 900.402167 129.205087 908.969419 127.505569 911.258 C 125.806051 913.546581 119.606437 925.166103 118.075316 927.200949 C 116.544196 929.238284 112.129594 928.559172 109.23834 931.780598 C 106.352268 935.002025 102.784835 933.307977 98.365051 934.071667 C 94.864977 934.676151 91.315678 933.648777 91.315678 933.648777 M 51.195651 906.882333 C 49.845882 905.240525 49.739662 903.180803 53.338184 900.178284 C 58.662132 895.257836 69.084634 886.155752 73.387835 882.650741 C 77.691035 879.14573 89.248277 871.118285 93.890863 868.628209 C 98.875425 864.787374 99.554196 863.767463 104.764152 860.772407 C 110.883453 856.419129 121.925139 851.329525 124.306019 850.936486 C 126.684308 850.540959 130.987509 849.63299 135.86067 850.652901 C 140.728649 851.670324 149.679618 851.782265 151.493128 851.83948 C 153.304047 851.894207 162.819794 855.401706 169.218894 856.192758 C 175.623176 856.983811 189.892911 863.541093 197.766135 863.991346 C 205.63936 864.446574 217.362408 872.47402 222.178573 874.056126 C 226.992148 875.638232 239.510549 885.0239 242.168637 886.494064 C 244.831906 887.964229 253.894276 891.526454 257.350308 892.093624 C 260.80375 892.658307 264.202786 893.280204 266.581075 893.280204 C 268.959364 893.280204 271.000858 893.732945 275.078666 892.317507 C 279.156473 890.904557 278.138316 891.359786 281.252372 890.735401 C 284.369019 890.113504 284.537417 891.526454 284.876802 892.658307 C 285.216187 893.787671 286.57632 896.387201 286.177348 898.029008 C 285.780966 899.670816 285.270593 901.648449 285.159191 903.061398 C 285.04779 904.474348 284.423424 905.208187 284.591822 907.076365 C 284.76281 908.942056 285.837962 913.123691 284.988203 914.424699 C 284.138444 915.72322 283.063292 917.70334 282.270529 918.327724 C 281.477766 918.947133 278.589103 920.75561 277.51136 921.151136 C 276.436207 921.54915 275.814433 922.113833 275.247063 922.113833 C 274.679693 922.113833 272.244408 921.830248 270.265091 921.944677 C 268.280593 922.056618 262.220878 922.959612 259.503204 924.03425 C 256.782938 925.108888 255.368401 925.676058 252.705131 926.521838 C 250.044453 927.370105 249.930461 927.937275 246.021051 929.350225 C 242.114232 930.763175 236.507895 929.857693 232.940461 931.103975 C 229.370437 932.345281 222.403967 933.932362 219.743288 935.116454 C 217.080019 936.303033 209.375191 937.546827 207.73526 938.113997 C 206.092738 938.681167 192.667581 941.504579 190.911067 941.95732 C 189.154553 942.410061 189.892911 942.126476 184.457561 942.410061 C 179.019622 942.691158 178.001465 942.467275 176.073963 942.917529 C 174.149051 943.37027 170.747424 942.974743 169.107493 942.917529 C 167.467562 942.862802 152.907666 942.295632 148.661461 941.392637 C 144.412666 940.487155 144.298674 940.206058 139.599092 940.317999 C 134.896919 940.429941 121.360361 940.601584 119.318866 940.317999 C 117.282553 940.034414 106.520666 938.847835 101.367706 937.661256 C 96.212156 936.474676 97.572288 936.136365 97.007509 935.907506 C 96.44014 935.681136 93.890863 934.210972 90.831212 933.477133 C 87.774152 932.740807 80.069324 930.82039 73.387835 926.748209 C 66.703754 922.676027 62.229566 920.531727 59.397899 918.777978 C 56.566232 917.024228 47.389871 910.240577 47.902835 908.827627 C 48.410618 907.412189 49.69821 905.817646 50.493564 905.872373 M 64.268469 894.693153 C 63.70369 895.08868 63.475706 895.596148 63.475706 895.596148 M 60.473051 897.57378 C 60.869433 898.369808 61.040421 898.765334 61.040421 898.70812 " transform="matrix(-1.50778,0,0,1.570296,511.676171,-1298.742026)"/>
<path style="fill-rule:nonzero;fill:rgb(81.176472%,52.156866%,30.980393%);fill-opacity:1;stroke-width:0.23916;stroke-linecap:round;stroke-linejoin:round;stroke:rgb(0%,0%,0%);stroke-opacity:1;stroke-miterlimit:4;" d="M 175.208659 873.083479 C 174.361491 873.085967 173.491006 873.165569 172.620521 873.349651 C 168.625618 874.200406 156.560593 878.777567 153.586437 880.89948 C 150.61228 883.018904 147.55522 887.173176 146.280581 889.295088 C 145.793524 890.106042 144.899723 891.275208 143.886748 892.514027 C 143.744258 899.807634 142.355627 910.414708 145.184703 912.974435 C 146.710642 914.355047 146.218404 917.6312 145.140661 921.290441 C 149.034526 920.894915 154.218574 920.357596 155.710834 920.163564 C 157.666835 919.907342 159.96222 920.417298 161.742051 919.230718 C 163.527063 918.044139 167.607461 915.922227 170.068653 913.462003 C 172.532437 911.001778 177.801979 906.424617 179.076618 904.048971 C 180.348666 901.675812 184.089678 894.805095 184.597461 892.344871 C 185.107834 889.889622 186.040497 884.038815 186.040497 883.18806 C 186.040497 882.339793 184.768449 875.556141 182.644051 874.707874 C 180.983394 874.043688 178.234631 873.073529 175.208659 873.083479 Z M 132.277692 906.300238 C 132.249194 906.337551 132.202561 906.389791 132.176653 906.424617 C 130.987509 907.949508 131.075594 910.155999 131.075594 911.173422 C 131.075594 911.563973 131.06264 911.942087 131.104092 912.417216 C 131.513427 910.539087 131.912399 908.379861 132.277692 906.300238 Z M 132.277692 906.300238 " transform="matrix(-1.50778,0,0,1.570296,511.676171,-1298.742026)"/>
</g>
</svg>
