<?xml version="1.0" encoding="UTF-8"?>
<svg xmlns="http://www.w3.org/2000/svg" xmlns:xlink="http://www.w3.org/1999/xlink" width="449pt" height="250pt" viewBox="0 0 449 250" version="1.1">
<g id="surface31">
<path style="fill-rule:nonzero;fill:rgb(56.078434%,78.039217%,83.137256%);fill-opacity:1;stroke-width:1.40879;stroke-linecap:butt;stroke-linejoin:miter;stroke:rgb(0%,0%,0%);stroke-opacity:1;stroke-miterlimit:4;" d="M 479.987658 362.000291 C 479.987658 362.000291 491.499533 363.496286 497.994975 365.505613 C 504.490417 367.500274 519.509221 376.490913 527.49892 387.00688 C 535.503866 397.508181 550.492175 406.000155 557.993953 409.490811 C 565.510978 412.996134 565.510978 427.002757 564.992563 435.509397 C 564.504642 444.001371 553.999103 468.01063 549.501086 474.009279 C 545.003069 479.99326 526.507831 530.505104 516.50546 543.998396 C 506.487842 557.491688 470.000534 625.999476 461.0045 637.996773 C 452.008465 649.994069 425.996202 646.004748 408.995221 664.998023 C 392.009487 683.991297 370.998409 674.003328 345.001394 678.505981 C 324.401999 682.06997 303.497653 676.012655 303.497653 676.012655 M 67.405107 518.199809 C 59.445903 508.519839 58.820755 496.375876 80.014803 478.673264 C 111.333202 449.662687 172.673961 395.997519 198.000086 375.317583 C 223.326211 354.66698 291.330135 307.337793 318.668932 292.671172 C 348.005154 270.011241 352.000004 263.997927 382.678007 246.324648 C 418.677394 220.672727 483.677557 190.679486 497.65953 188.31816 C 511.65675 185.986167 536.998122 180.662184 565.678701 186.675499 C 594.328785 192.674147 647.008955 193.334145 657.666969 193.671477 C 668.324983 193.994143 724.329111 214.674079 761.990477 219.338065 C 799.667091 224.00205 883.665659 262.663264 930.002862 265.332589 C 976.324818 268.001914 1045.31983 315.316435 1073.680211 324.673739 C 1101.994849 333.987044 1175.67085 389.338873 1191.345297 397.99218 C 1207.004496 406.660153 1260.325062 427.662755 1280.665249 430.992078 C 1301.005436 434.336068 1320.99493 438.002723 1335.007398 438.002723 C 1349.004618 438.002723 1360.989166 440.672048 1385.004005 432.326741 C 1409.003596 423.9961 1402.996074 426.680091 1421.323589 422.998769 C 1439.666352 419.332114 1440.672688 427.662755 1442.670112 434.336068 C 1444.667537 440.994714 1452.657236 456.321333 1450.339613 466.001303 C 1448.006743 475.666607 1445.002983 487.341237 1444.332092 495.671878 C 1443.661201 503.987853 1440.001797 508.329173 1441.008133 519.329139 C 1441.999222 530.343771 1448.342189 554.998362 1443.341003 562.669005 C 1438.32457 570.324981 1432.012098 581.999612 1427.331111 585.680934 C 1422.665371 589.332923 1405.679637 599.995557 1399.33667 602.327549 C 1393.008951 604.674209 1389.319052 608.003532 1386.010341 608.003532 C 1382.671135 608.003532 1368.323222 606.331537 1356.658871 606.991535 C 1344.994521 607.6662 1309.33058 612.990183 1293.320688 619.326164 C 1277.326043 625.662144 1269.000899 629.006134 1253.341699 634.007452 C 1237.667252 638.994103 1236.996361 642.338093 1214.003106 650.668733 C 1191.009851 659.014041 1157.998978 653.660724 1137.003147 661.008702 C 1115.99207 668.327346 1074.991498 677.655317 1059.332298 684.680629 C 1043.673098 691.676607 998.342232 698.995251 988.675306 702.339241 C 979.008381 705.68323 899.99575 722.329846 889.673181 724.999171 C 879.320117 727.668496 883.665659 725.996501 851.661122 727.668496 C 819.671832 729.325824 813.679558 728.005828 802.335406 730.660487 C 791.006501 733.329812 771.001759 730.997819 761.334834 730.660487 C 751.667908 730.337821 665.992113 726.993831 641.001433 721.669848 C 615.995506 716.331198 615.339863 714.673869 587.66562 715.333867 C 559.991377 715.993865 480.323103 717.005862 468.338555 715.333867 C 456.33876 713.661872 393.000576 706.665894 362.658018 699.669916 C 332.330707 692.659271 340.320406 690.679277 337.011695 689.344614 C 333.672489 687.995285 318.668932 679.327312 300.661615 675.000658 C 282.669546 670.659338 237.323431 659.336707 198.000086 635.327447 C 158.661493 611.318188 132.329032 598.675561 115.678744 588.335592 C 98.997961 577.995624 45.006505 537.999748 48.010265 529.683773 C 50.998779 521.323799 58.576794 511.922495 63.257782 512.259827 M 144.328828 446.318697 C 141.004869 448.665357 139.663088 451.672014 139.663088 451.672014 M 121.991216 463.317312 C 124.324086 468.01063 125.330422 470.342623 125.330422 470.005291 " transform="matrix(-0.256189,0,0,0.266336,451.748933,-12.683259)"/>
<path style="fill-rule:nonzero;fill:rgb(41.960785%,70.19608%,77.254903%);fill-opacity:1;stroke-width:1.40879;stroke-linecap:butt;stroke-linejoin:miter;stroke:rgb(0%,0%,0%);stroke-opacity:1;stroke-miterlimit:4;" d="M 86.494997 533.497095 C 80.990644 530.373105 67.618572 521.118467 63.257782 512.259827 C 58.576794 511.922495 50.998779 521.323799 48.010265 529.683773 C 45.006505 537.999748 98.997961 577.995624 115.678744 588.335592 C 132.329032 598.675561 158.661493 611.318188 198.000086 635.327447 C 209.328991 640.666098 215.336512 625.999476 221.328786 617.331503 C 227.336308 608.66353 239.320856 582.65961 227.336308 575.326299 C 215.336512 567.992989 190.666031 558.665017 177.995344 555.321028 C 165.339906 552.006371 142.666848 543.998396 123.988641 529.331775 C 106.667462 511.995828 77.986883 482.677252 68.457185 490.318562 C 59.537388 501.978526 61.3061 510.807832 67.405107 518.199809 C 73.229658 525.26912 82.972821 531.033103 91.008262 536.679752 C 94.499944 539.994408 96.756576 541.241071 100.65994 544.673061 C 101.574791 545.626391 124.369829 562.786338 136.003684 575.326299 C 176.394355 616.114173 163.327233 610.65819 199.997511 625.999476 " transform="matrix(-0.256189,0,0,0.266336,451.748933,-12.683259)"/>
<path style="fill-rule:nonzero;fill:rgb(16.862746%,52.941179%,61.960787%);fill-opacity:1;stroke-width:1.40879;stroke-linecap:butt;stroke-linejoin:miter;stroke:rgb(0%,0%,0%);stroke-opacity:1;stroke-miterlimit:4;" d="M 181.502273 461.997316 C 187.494547 475.490607 198.000086 498.003871 215.992156 502.506524 C 234.01472 507.009177 235.493729 514.489154 262.512329 505.498515 C 289.500433 496.493209 288.006177 496.493209 300.005972 477.001269 C 312.005768 457.50933 310.511511 447.008029 309.002007 432.004075 C 307.50775 417.000121 289.500433 394.486857 274.496877 389.998871 C 259.508568 385.496218 237.003234 384.000223 215.992156 388.502876 C 194.996325 393.005529 192.007812 406.49882 187.494547 414.00813 C 183.011777 421.502774 175.494752 448.504024 181.502273 461.997316 Z M 181.502273 461.997316 " transform="matrix(-0.256189,0,0,0.266336,451.748933,-12.683259)"/>
<path style="fill-rule:nonzero;fill:rgb(1.960784%,7.843138%,9.019608%);fill-opacity:1;stroke-width:1.40879;stroke-linecap:butt;stroke-linejoin:miter;stroke:rgb(0%,0%,0%);stroke-opacity:1;stroke-miterlimit:4;" d="M 240.006994 408.009482 C 223.509181 409.490811 215.992156 408.009482 208.490378 418.510783 C 201.003847 429.012084 196.673552 467.321299 206.492953 480.506592 C 213.50681 485.009245 220.002253 488.983899 229.501455 488.983899 C 239.000658 488.983899 253.516294 488.001235 259.996489 485.009245 C 266.507178 482.002587 275.503213 482.999918 280.992319 475.490607 C 286.496672 468.01063 289.012513 464.006643 288.494097 452.493345 C 288.006177 440.994714 288.006177 432.986739 282.989744 425.99076 C 277.988558 418.994782 274.496877 409.490811 264.997674 406.997485 C 255.513719 404.50416 256.48956 406.49882 240.006994 408.009482 Z M 240.006994 408.009482 " transform="matrix(-0.256189,0,0,0.266336,451.748933,-12.683259)"/>
<path style=" stroke:none;fill-rule:nonzero;fill:rgb(100%,100%,100%);fill-opacity:1;" d="M 399.871094 105.039062 C 399.359375 105.703125 398.71875 105.96875 397.050781 105.433594 C 395.386719 104.902344 394.875 103.972656 391.796875 103.839844 C 388.726562 103.703125 387.320312 103.703125 385.910156 103.972656 C 384.496094 104.238281 383.601562 103.308594 383.347656 103.972656 C 383.089844 104.636719 381.042969 105.171875 384.117188 105.835938 C 387.1875 106.5 387.699219 108.101562 390.007812 108.101562 C 392.316406 108.101562 392.441406 109.167969 394.746094 108.898438 C 397.050781 108.632812 399.359375 109.964844 399.484375 110.628906 C 399.617188 111.296875 402.222656 110.183594 402.222656 109.121094 C 402.222656 108.054688 400.382812 104.371094 399.871094 105.039062 Z M 399.871094 105.039062 "/>
<path style="fill-rule:nonzero;fill:rgb(67.058825%,84.313726%,88.235295%);fill-opacity:1;stroke-width:1.76099;stroke-linecap:butt;stroke-linejoin:miter;stroke:rgb(0%,0%,0%);stroke-opacity:1;stroke-miterlimit:4;" d="M 985.211452 59.544839 C 979.741419 59.508172 970.993177 64.164819 967.486257 65.851478 C 959.595686 69.591462 947.912304 75.421438 939.583368 79.60142 C 931.254432 83.744735 924.58366 86.256391 912.080726 95.001354 C 899.596852 103.746316 879.584534 121.657906 870.836293 124.572894 C 862.088051 127.487882 865.004131 127.487882 862.907603 122.482903 C 860.830134 117.514591 860.830134 114.159605 862.907603 96.248015 C 865.004131 78.336425 857.094501 91.26137 843.733897 98.759671 C 830.411411 106.239639 829.172553 110.419621 816.66962 122.097905 C 804.147627 133.757855 797.495913 135.407848 788.766731 137.919504 C 780.018489 140.412826 776.664044 135.407848 774.167269 123.747898 C 773.481132 120.539578 777.94102 107.761299 773.347717 109.594625 C 761.168792 114.416271 732.007986 145.234472 724.155534 154.602766 C 713.348883 167.491044 698.749421 171.249361 697.910809 169.177703 C 697.072198 167.087712 694.575423 165.841051 692.917259 165.841051 C 691.259096 165.841051 675.401717 179.150994 669.588615 183.734308 C 663.756454 188.335955 604.596231 238.349074 622.073655 235.39742 C 639.570138 232.482432 671.265838 225.827461 707.097416 233.344095 C 742.928994 240.842397 808.759989 241.667393 822.101534 242.089058 C 835.404961 242.49239 905.409954 268.342279 952.486548 274.172254 C 999.582202 280.002229 1104.580162 328.328689 1162.501527 331.665342 C 1220.403833 335.001994 1306.666451 394.145074 1342.078724 405.841691 C 1377.490996 417.483308 1469.585776 486.673012 1489.178788 497.489633 C 1502.787164 505.042934 1539.190522 520.039536 1568.637218 529.847827 C 1581.540398 534.174476 1569.590186 522.899524 1575.403287 520.00287 C 1581.235449 517.087882 1604.583152 520.00287 1615.828169 520.406201 C 1627.073186 520.827866 1659.150072 516.244552 1670.833453 511.239574 C 1682.497776 506.234595 1677.504226 473.748067 1677.923532 464.178108 C 1678.152244 459.209796 1683.164853 439.061549 1680.420306 419.573299 C 1677.828235 401.38671 1667.479008 383.805119 1666.659456 379.166805 C 1665.839904 374.436825 1657.206018 355.498573 1645.846645 337.916982 C 1634.201382 319.877059 1619.811573 303.175464 1617.505392 298.738816 C 1612.893029 290.012186 1572.086961 252.924012 1564.577577 247.919033 C 1557.087252 242.914055 1508.352494 209.584197 1500.423804 205.844213 C 1492.495115 202.085896 1480.01124 191.250942 1452.908844 184.595971 C 1441.530412 181.772649 1430.380693 176.052674 1418.335183 173.339352 C 1401.71543 169.581035 1384.905083 169.287703 1377.910302 170.0027 C 1365.826674 171.249361 1362.929653 170.0027 1355.839574 169.177703 C 1348.749496 168.352707 1350.826965 167.087712 1341.659418 168.756038 C 1332.49187 170.406031 1328.737179 173.339352 1321.246854 176.25434 C 1313.756529 179.150994 1310.421143 177.922666 1302.492453 178.325997 C 1294.582823 178.747662 1293.763271 172.917687 1290.408825 170.846029 C 1287.092499 168.756038 1280.402667 170.406031 1265.841323 170.846029 C 1251.241861 171.249361 1255.854224 170.0027 1252.080472 163.347728 C 1248.32578 156.65609 1247.506228 150.826115 1247.506228 150.826115 C 1247.506228 150.826115 1241.254762 149.597787 1232.906766 150.001119 C 1224.57783 150.422783 1222.081055 147.507796 1217.087506 143.327814 C 1212.093956 139.166165 1213.332814 138.762833 1207.919958 128.349545 C 1202.488044 117.917922 1206.242735 122.904568 1199.171717 122.097905 C 1192.100698 121.254575 1189.584863 122.482903 1173.746544 122.482903 C 1157.908224 122.482903 1166.656465 119.604582 1161.662916 113.73794 C 1156.650307 107.907965 1157.507977 105.817974 1157.507977 105.817974 C 1157.507977 105.817974 1149.598347 108.32963 1143.34688 109.594625 C 1137.095413 110.822953 1132.101864 114.599603 1121.257093 112.912944 C 1110.412323 111.244618 1115.005627 105.414643 1115.005627 105.414643 L 1111.651181 95.001354 C 1111.651181 95.001354 1098.347755 100.006332 1091.238617 102.499655 C 1084.167598 104.992978 1077.096579 106.239639 1072.922582 104.992978 C 1068.748584 103.746316 1067.490667 97.091345 1062.916423 82.516407 C 1058.323119 67.904803 1053.32957 71.66312 1046.258551 73.331446 C 1039.149413 74.999773 1036.652638 76.649766 1029.981866 80.004751 C 1023.349212 83.341404 1000.001508 91.664701 996.246816 91.26137 C 992.511184 90.839705 986.659963 90.839705 987.498574 80.004751 C 987.879761 75.036439 991.920344 63.119823 988.337186 60.406502 C 987.536693 59.819838 986.46937 59.563172 985.211452 59.544839 Z M 985.211452 59.544839 " transform="matrix(-0.204952,0,0,0.213069,451.749083,-12.683259)"/>
<path style="fill-rule:nonzero;fill:rgb(58.039218%,76.078433%,81.176472%);fill-opacity:1;stroke-width:1.40879;stroke-linecap:butt;stroke-linejoin:miter;stroke:rgb(0%,0%,0%);stroke-opacity:1;stroke-miterlimit:4;" d="M 921.494748 243.992655 C 922.501084 235.999346 930.002862 225.498046 935.491968 217.504737 C 940.996322 209.496762 959.506807 196.487468 971.506602 187.496829 C 983.491151 178.506191 985.503823 175.000868 998.997875 161.49291 C 1012.507175 147.999618 1014.352124 154.232932 1017.63034 146.004957 C 1011.150146 148.996948 998.006786 158.500919 991.008176 163.003572 C 984.009566 167.506224 979.496301 170.498215 970.500266 177.494194 C 961.504232 184.504839 952.005029 188.508826 944.488003 196.487468 C 937.001472 204.495444 931.497119 206.006106 927.014349 208.998096 C 922.501084 212.004754 904.996935 227.507373 897.495157 233.506021 C 890.008626 239.490002 887.004866 240.003334 883.010016 235.002016 C 878.984672 230.000698 886.501698 224.500715 892.006051 216.507407 C 897.495157 208.499431 904.996935 202.002118 914.511385 191.999482 C 923.995341 182.011513 923.50742 183.492842 935.491968 171.994211 C 947.491764 160.510246 948.4981 163.502237 964.507992 148.498283 C 969.082247 143.262299 978.550955 136.368987 977.834322 134.35966 C 971.232147 137.498317 963.989577 142.9983 949.489189 151.490274 C 935.004048 159.996914 927.014349 165.995562 921.494748 168.488888 C 915.990395 170.99688 883.010016 192.498147 864.499531 212.503419 C 846.004293 232.494024 844.494789 215.994075 849.495975 204.495444 C 854.512408 193.011479 859.498346 193.495478 865.993788 184.006174 C 872.504477 174.502203 895.009812 155.992927 916.50881 137.996982 C 938.007809 120.001038 938.007809 119.487706 927.014349 125.002356 C 915.990395 130.502339 911.507625 133.010331 902.51159 139.008979 C 893.500308 144.992961 882.00368 150.991609 870.507053 161.991575 C 858.995178 172.991541 883.010016 151.490274 833.50133 192.498147 C 784.007891 233.506021 821.989455 195.504805 823.498959 186.998164 C 824.993216 178.506191 829.506481 170.498215 837.008259 160.510246 C 844.494789 150.50761 858.004089 143.99563 889.490211 118.505042 C 920.99158 92.999788 901.002086 104.483752 892.006051 108.003741 C 883.010016 111.509064 878.984672 116.99438 868.509628 122.993029 C 858.004089 129.006343 846.995382 139.008979 837.999347 145.506292 C 828.988065 152.003606 825.496384 159.498249 796.007687 178.990189 C 766.503742 198.496796 767.510078 189.007491 771.504927 179.488854 C 775.499777 169.99955 782.010466 165.995562 793.491846 151.490274 C 805.003721 136.999652 817.506685 129.490342 839.493604 112.491728 C 861.511018 95.493113 858.995178 88.497135 842.497365 103.501089 C 826.014799 118.505042 830.497569 111.010399 819.99203 118.505042 C 809.501739 126.014353 808.998571 128.507678 759.993052 161.008911 C 711.002782 193.495478 730.504355 168.488888 732.50178 154.995596 C 733.584354 147.691619 745.111476 135.092991 759.993052 122.905029 C 771.61166 113.401058 785.517395 100.083766 798.005111 92.721122 C 799.102932 92.075791 805.827087 88.790467 806.909661 88.189136 C 813.633816 82.923819 819.321139 80.151827 821.638762 73.273182 C 807.138374 83.261151 798.9962 86.502474 789.496997 93.498453 C 780.013042 100.509098 771.001759 105.495749 766.000574 107.006411 C 760.999389 108.48774 754.488699 115.513052 709.996446 152.003606 C 665.504192 188.508826 691.501208 152.502271 693.498633 140.490308 C 695.496057 128.507678 729.498019 101.007763 752.491274 77.497169 C 775.499777 54.001241 750.005929 73.009183 739.50039 80.48916 C 729.010099 87.99847 725.015249 88.9958 712.512286 99.497101 C 699.994075 109.998402 677.991908 127.994346 670.505378 133.010331 C 663.003599 137.996982 646.002618 154.496931 635.009159 169.500885 C 624.000452 184.504839 619.502435 177.494194 618.999267 177.494194 C 618.496098 177.494194 619.502435 167.007559 620.996691 161.49291 C 622.506195 155.992927 639.004008 131.001004 647.008955 122.993029 C 654.998653 114.99972 670.00221 90.990461 667.501617 94.495783 C 665.001024 97.986439 655.486574 105.994414 649.006379 112.990393 C 642.49569 120.001038 606.51155 152.502271 600.488781 158.500919 C 594.496507 164.4849 588.504233 175.998198 580.987208 179.488854 C 573.500677 182.994177 574.507013 176.496863 572.997509 172.991541 C 571.503252 169.500885 585.012552 137.498317 589.495322 129.490342 C 594.008587 121.497033 606.51155 103.002424 601.998286 107.505076 C 597.500268 111.993062 593.002251 118.505042 588.504233 122.50903 C 584.006216 126.498351 582.496712 126.014353 571.991173 145.506292 C 561.500882 165.012899 550.492175 176.995529 545.003069 177.494194 C 539.498715 178.007525 535.503866 175.5142 536.007034 173.504873 C 536.494954 171.510212 540.001883 162.49024 542.502476 157.503589 C 545.003069 152.502271 555.508607 137.498317 554.487024 135.503657 C 553.511183 133.494329 539.498715 151.490274 532.500105 161.991575 C 525.501495 172.492876 483.677557 190.679486 497.65953 188.31816 C 511.65675 185.986167 536.998122 180.662184 565.678701 186.675499 C 594.328785 192.674147 647.008955 193.334145 657.666969 193.671477 C 668.324983 193.994143 724.329111 214.674079 761.990477 219.338065 C 799.667091 224.00205 883.665659 262.663264 930.002862 265.332589 C 932.335732 265.479255 920.50366 252.00063 921.494748 243.992655 Z M 921.494748 243.992655 " transform="matrix(-0.256189,0,0,0.266336,451.748933,-12.683259)"/>
<path style="fill-rule:nonzero;fill:rgb(47.058824%,67.058825%,72.156864%);fill-opacity:1;stroke-width:1.76099;stroke-linecap:round;stroke-linejoin:round;stroke:rgb(0%,0%,0%);stroke-opacity:1;stroke-miterlimit:4;" d="M 749.561648 893.781271 C 747.693832 893.799604 743.233944 893.964604 734.580999 894.166269 C 721.754056 894.459601 699.988278 894.826267 676.945524 895.064599 C 699.988278 925.846134 683.749712 904.579558 695.83334 953.327683 C 695.83334 953.327683 712.090966 1009.995774 715.407292 1025.01071 C 718.742679 1039.988979 744.587157 1098.747061 749.580707 1106.245362 C 754.574257 1113.761997 772.0898 1131.251922 777.083349 1140.840214 C 782.095958 1150.410174 790.005589 1162.510122 798.334525 1175.3984 C 806.644401 1188.341678 806.644401 1194.15332 820.424312 1208.343259 C 834.166103 1222.496532 840.836875 1232.506489 844.591567 1232.506489 C 848.346259 1232.506489 846.230672 1235.421477 852.901444 1224.164858 C 859.591276 1212.90824 867.901153 1193.328323 873.752373 1189.991671 C 879.584534 1186.673352 887.91347 1166.250106 887.91347 1166.250106 L 893.345385 1150.410174 C 893.345385 1150.410174 899.997098 1143.755202 903.332484 1128.336935 C 906.667871 1112.900334 907.906728 1097.5004 912.900278 1088.737104 C 917.912887 1079.992141 923.325743 1055.828911 923.325743 1055.828911 C 923.325743 1055.828911 928.338352 1029.997355 923.764108 1019.584066 C 919.151745 1009.152444 905.409954 987.922535 904.990648 987.922535 C 904.590402 987.922535 890.84861 972.082603 865.404378 959.157658 C 839.998264 946.251047 819.604759 926.67113 809.579541 924.984471 C 799.592442 923.334478 780.018489 914.149517 780.018489 913.746186 C 780.018489 913.324521 767.496496 908.337875 754.574257 907.494546 C 748.761155 907.494546 741.652018 900.417909 741.652018 900.417909 C 737.859207 894.991266 755.222275 893.726271 749.561648 893.781271 Z M 749.561648 893.781271 " transform="matrix(-0.204952,0,0,0.213069,451.749083,-12.683259)"/>
<path style="fill-rule:nonzero;fill:rgb(67.058825%,84.313726%,88.235295%);fill-opacity:1;stroke-width:1.76099;stroke-linecap:round;stroke-linejoin:round;stroke:rgb(0%,0%,0%);stroke-opacity:1;stroke-miterlimit:4;" d="M 1517.481923 813.334948 C 1488.759482 823.76657 1447.495989 817.074932 1421.251264 826.259893 C 1394.987479 835.408187 1343.755946 847.068137 1324.162935 855.849767 C 1304.588982 864.594729 1247.925534 873.743023 1235.841906 877.923006 C 1223.758278 882.102988 1124.992726 902.911232 1112.089546 906.247884 C 1099.148247 909.584537 1101.664082 915.836177 1101.664082 915.836177 C 1101.664082 915.836177 1118.321953 939.999407 1144.985984 954.996009 C 1171.650015 969.992612 1235.003295 1008.345781 1269.15765 1015.825749 C 1303.331065 1023.32405 1384.161769 1035.845664 1405.012698 1050.823933 C 1425.825508 1065.838869 1437.48983 1066.663865 1460.017982 1072.49384 C 1482.508015 1078.342148 1500.824051 1080.853804 1515.842818 1073.33717 C 1530.842527 1065.838869 1569.990432 1048.33061 1584.151529 1033.334008 C 1598.331686 1018.337405 1603.325235 1022.499054 1616.66678 993.330845 C 1629.989266 964.162637 1639.995425 959.157658 1636.660039 927.496127 C 1633.343712 895.852929 1632.486041 871.653032 1629.169714 860.836412 C 1625.853387 849.983125 1604.144787 822.501576 1597.512134 820.851583 C 1590.841361 819.164923 1535.397712 819.98992 1535.397712 819.98992 C 1520.836368 822.501576 1522.094285 818.339927 1517.481923 813.334948 Z M 1517.481923 813.334948 " transform="matrix(-0.204952,0,0,0.213069,451.749083,-12.683259)"/>
<path style="fill-rule:nonzero;fill:rgb(67.058825%,84.313726%,88.235295%);fill-opacity:1;stroke-width:1.76099;stroke-linecap:round;stroke-linejoin:round;stroke:rgb(0%,0%,0%);stroke-opacity:1;stroke-miterlimit:4;" d="M 996.570825 398.655055 C 990.319358 398.673388 983.915417 399.278386 977.511475 400.616713 C 948.141016 406.868353 859.362564 440.619876 837.501489 456.258142 C 815.640415 471.878075 793.131322 502.494611 783.735063 518.132878 C 774.376922 533.752811 745.006463 566.881002 731.874571 581.877605 C 718.742679 596.874207 688.743262 633.137386 679.99502 644.375671 C 671.246778 655.63229 671.875737 671.875553 671.875737 679.373855 C 671.875737 686.890489 671.246778 693.747127 678.756162 714.372038 C 686.246487 735.015283 691.888054 754.998531 701.246195 756.245193 C 710.623396 757.491854 727.50998 758.738515 752.496788 756.245193 C 777.483596 753.75187 838.740347 747.50023 853.130156 745.611905 C 867.500906 743.760246 884.38749 747.50023 897.500323 738.755267 C 910.632216 730.010305 940.631633 714.372038 958.738015 696.240449 C 976.863457 678.10886 1015.630175 644.375671 1024.988316 626.867413 C 1034.365516 609.377487 1061.887218 558.75937 1065.64191 540.627781 C 1069.377542 522.496192 1076.238908 479.358043 1076.238908 473.124737 C 1076.238908 466.873097 1066.880768 416.878311 1051.252101 410.626671 C 1039.035057 405.750025 1018.832146 398.581722 996.570825 398.655055 Z M 996.570825 398.655055 " transform="matrix(-0.204952,0,0,0.213069,451.749083,-12.683259)"/>
<path style="fill-rule:nonzero;fill:rgb(92.156863%,96.078432%,97.254902%);fill-opacity:1;stroke-width:1.76099;stroke-linecap:round;stroke-linejoin:round;stroke:rgb(0%,0%,0%);stroke-opacity:1;stroke-miterlimit:4;" d="M 2153.873622 396.070066 C 2149.146903 396.070066 2140.379602 397.61006 2122.101686 402.083374 C 2089.586434 409.985007 2035.400702 430.408253 2005.83965 442.508201 C 1976.259539 454.571483 1952.911835 460.401458 1924.170335 472.501406 C 1900.003079 480.421372 1871.661825 492.906319 1845.836406 500.844618 C 1827.082005 510.836242 1753.741626 533.349479 1776.650965 528.747832 C 1799.579363 524.164518 1800.83728 534.577807 1803.334055 542.919438 C 1805.83083 551.242736 1815.81793 570.400987 1812.920908 582.500936 C 1810.004828 594.582551 1806.250136 609.157488 1805.411524 619.58911 C 1804.572913 629.984066 1799.998669 635.410709 1801.256586 649.160651 C 1802.495444 662.928925 1810.424133 693.747127 1804.172667 703.335419 C 1797.9212 712.905378 1790.01157 727.498649 1784.160349 732.100296 C 1778.328188 736.665276 1757.096072 749.993553 1749.167382 752.90854 C 1741.257752 755.841861 1736.645389 760.00351 1732.50951 760.00351 C 1728.335513 760.00351 1780.844022 770.416799 1790.831122 774.981779 C 1800.83728 779.583426 1870.823214 809.154966 1890.416226 814.58161 C 1910.009238 819.98992 1999.988429 852.898113 2009.594342 853.759776 C 2019.162136 854.584772 2101.250757 878.748002 2108.321775 878.326337 C 2115.411854 877.923006 2139.159804 877.923006 2139.159804 877.923006 L 2138.340252 799.163342 C 2138.340252 799.163342 2126.65687 737.930271 2120.005157 725.408658 C 2113.334385 712.905378 2099.154228 670.848891 2094.160678 666.668909 C 2089.148069 662.50726 2083.334967 648.317321 2083.334967 648.317321 C 2083.334967 648.317321 2087.089659 639.590691 2092.083209 632.074057 C 2102.089368 619.149112 2107.502223 594.985882 2112.915079 581.235941 C 2125.837318 557.091044 2137.082335 521.249531 2140.017475 507.921255 C 2140.017475 507.921255 2158.752816 438.749884 2158.752816 438.328219 C 2158.752816 437.924887 2162.907754 401.240044 2160.010733 398.325057 C 2158.733756 397.060062 2157.533017 396.106733 2153.873622 396.070066 Z M 2153.873622 396.070066 " transform="matrix(-0.204952,0,0,0.213069,451.749083,-12.683259)"/>
<path style="fill-rule:nonzero;fill:rgb(9.803922%,25.882354%,29.019609%);fill-opacity:1;stroke-width:1.76099;stroke-linecap:round;stroke-linejoin:round;stroke:rgb(0%,0%,0%);stroke-opacity:1;stroke-miterlimit:4;" d="M 2153.873622 396.070066 C 2149.146903 396.070066 2140.379602 397.61006 2122.101686 402.083374 C 2089.586434 409.985007 2035.400702 430.408253 2005.83965 442.508201 C 1976.259539 454.571483 1952.911835 460.401458 1924.170335 472.501406 C 1900.003079 480.421372 1871.661825 492.906319 1845.836406 500.844618 C 1827.082005 510.836242 1753.741626 533.349479 1776.650965 528.747832 C 1799.579363 524.164518 1800.83728 534.577807 1803.334055 542.919438 C 1805.83083 551.242736 1815.81793 570.400987 1812.920908 582.500936 C 1812.177594 585.525923 1811.377101 588.752576 1810.595668 591.979228 C 1859.19701 514.741225 2006.792617 460.218125 2058.348159 439.391548 C 2109.884642 418.546637 2124.083858 411.818332 2160.010733 398.325057 C 2158.733756 397.060062 2157.533017 396.106733 2153.873622 396.070066 Z M 1805.106575 701.48376 C 1804.839744 702.143757 1804.515735 702.785421 1804.172667 703.335419 C 1797.9212 712.905378 1790.01157 727.498649 1784.160349 732.100296 C 1778.328188 736.665276 1757.096072 749.993553 1749.167382 752.90854 C 1741.257752 755.841861 1736.645389 760.00351 1732.50951 760.00351 C 1728.335513 760.00351 1780.844022 770.416799 1790.831122 774.981779 C 1800.83728 779.583426 1870.823214 809.154966 1890.416226 814.58161 C 1910.009238 819.98992 1999.988429 852.898113 2009.594342 853.759776 C 2019.162136 854.584772 2101.250757 878.748002 2108.321775 878.326337 C 2115.411854 877.923006 2139.159804 877.923006 2139.159804 877.923006 C 2139.159804 877.923006 2132.336557 872.844694 2109.446277 866.00639 C 2086.594116 859.168086 2054.040746 849.396461 1989.105541 821.181582 C 1904.691679 784.515072 1832.475802 753.916869 1805.106575 701.48376 Z M 1805.106575 701.48376 " transform="matrix(-0.204952,0,0,0.213069,451.749083,-12.683259)"/>
</g>
</svg>
