<?xml version="1.0" encoding="UTF-8"?>
<!-- Created by grConvert v0.1-0 -->
<svg xmlns="http://www.w3.org/2000/svg" xmlns:xlink="http://www.w3.org/1999/xlink" width="359pt" height="200pt" viewBox="0 0 359 200" version="1.1">
<g id="surface49">
<path style="fill-rule:nonzero;fill:rgb(56.078431%,78.431373%,83.921569%);fill-opacity:1;stroke-width:1.40879;stroke-linecap:butt;stroke-linejoin:miter;stroke:rgb(0%,0%,0%);stroke-opacity:1;stroke-miterlimit:4;" d="M 479.994136 361.993311 C 479.994136 361.993311 491.503495 363.498851 497.991254 365.500118 C 504.497341 367.501385 519.507157 376.497905 527.497731 386.999966 C 535.506632 397.502027 550.498122 406.002821 557.993867 409.491268 C 565.507939 412.998075 565.507939 427.006942 564.994782 435.507736 C 564.499953 444.00853 553.99858 468.005372 549.508464 474.009173 C 545.000021 479.994613 526.508073 530.50365 516.501529 543.998431 C 506.494984 557.493212 470.005918 625.995291 461.007359 638.002892 C 452.0088 649.992132 426.002781 646.007959 408.995321 664.992454 C 392.006188 683.995308 371.003441 674.007334 344.997421 678.505595 C 324.397868 682.067483 303.505083 676.008601 303.505083 676.008601 M 67.398285 518.202285 C 59.444365 508.526436 58.821247 496.371953 80.007264 478.672675 C 111.328115 449.663486 172.668599 395.996487 197.996519 375.322849 C 223.324439 354.667572 291.335952 307.334858 318.661516 292.665021 C 348.00305 270.008477 351.998337 264.004677 382.677742 246.32376 C 418.671979 220.674496 483.677864 190.673853 497.661368 188.323742 C 511.6632 185.991991 536.99112 180.667519 565.672882 186.67132 C 594.336317 192.67512 647.008127 193.336089 657.674444 193.666574 C 668.322433 193.997058 724.329759 214.670695 761.991753 219.334198 C 799.672074 223.9977 883.664735 262.664379 929.995403 265.326614 C 976.32607 268.00721 1045.327242 315.321565 1073.679117 324.66693 C 1101.994339 333.993935 1175.668897 389.331717 1191.338486 397.997753 C 1207.008075 406.66379 1260.321331 427.667911 1280.664305 430.991116 C 1301.00728 434.332681 1321.002042 438.00473 1335.003874 438.00473 C 1349.005705 438.00473 1360.991566 440.666966 1384.999942 432.331414 C 1409.008317 423.995862 1402.99706 426.676458 1421.324064 423.004409 C 1439.669396 419.33236 1440.677381 427.667911 1442.675025 434.332681 C 1444.672668 440.99745 1452.663242 456.328256 1450.335712 466.004105 C 1448.008183 475.661595 1445.002554 487.338711 1444.324455 495.674263 C 1443.664683 503.991455 1439.999282 508.324473 1441.007267 519.32226 C 1441.996925 530.338408 1448.338069 554.996219 1443.334797 562.670802 C 1438.331525 570.327024 1432.008708 582.004141 1427.335322 585.67619 C 1422.661936 589.329879 1405.672803 599.997182 1399.331659 602.328933 C 1393.008843 604.679045 1389.325115 608.002249 1386.007927 608.002249 C 1382.672412 608.002249 1368.322368 606.331467 1356.666393 606.992436 C 1344.992091 607.671765 1309.32774 612.996236 1293.328265 619.330521 C 1277.328791 625.664806 1269.008331 629.006371 1253.338742 634.000358 C 1237.669153 638.994345 1236.991054 642.33591 1214.00899 650.671462 C 1191.0086 659.007013 1158.001665 653.664182 1136.998918 661.00828 C 1115.996171 668.334018 1074.998662 677.661023 1059.329073 684.674638 C 1043.677811 691.669891 998.336802 698.99563 988.678471 702.337194 C 979.001813 705.678759 899.994096 722.331502 889.675993 724.993738 C 879.321235 727.674334 883.664735 726.003552 851.665786 727.674334 C 819.666836 729.326756 813.673906 728.004819 802.32949 730.667054 C 791.003401 733.32929 771.008639 730.997539 761.331981 730.667054 C 751.67365 730.33657 665.994904 726.995005 640.99687 721.670534 C 615.998836 716.327702 615.339064 714.67528 587.665287 715.336249 C 559.99151 715.997218 480.324022 717.007031 468.338161 715.336249 C 456.333973 713.665466 392.995846 706.670212 362.664654 699.674959 C 332.333461 692.661345 340.324035 690.678438 337.006847 689.33814 C 333.671333 687.997842 318.661516 679.331806 300.664398 674.998788 C 282.667279 670.66577 237.32627 659.337498 197.996519 635.322296 C 158.666767 611.325454 132.330862 598.675244 115.671615 588.338426 C 98.994041 578.001607 45.002686 537.994631 48.008314 529.677439 C 50.995616 521.323527 58.582996 511.923081 63.256382 512.253566 M 144.33505 446.321921 C 140.999535 448.672033 139.661664 451.664753 139.661664 451.664753 M 121.994431 463.323509 C 124.321961 468.005372 125.329946 470.337123 125.329946 470.006639 " transform="matrix(0.213142,0,0,0.212756,-10.052889,-9.984949)"/>
<path style="fill-rule:nonzero;fill:rgb(42.352941%,70.980392%,77.647059%);fill-opacity:1;stroke-width:1.40879;stroke-linecap:butt;stroke-linejoin:miter;stroke:rgb(0%,0%,0%);stroke-opacity:1;stroke-miterlimit:4;" d="M 86.495024 533.49637 C 80.996922 530.375129 67.618209 521.121564 63.256382 512.253566 C 58.582996 511.923081 50.995616 521.323527 48.008314 529.677439 C 45.002686 537.994631 98.994041 578.001607 115.671615 588.338426 C 132.330862 598.675244 158.666767 611.325454 197.996519 635.322296 C 209.322607 640.665127 215.333865 625.995291 221.326795 617.329254 C 227.338053 608.663218 239.323914 582.66511 227.338053 575.321011 C 215.333865 567.995273 190.665717 558.668268 178.001757 555.326703 C 165.337797 552.003499 142.667292 543.998431 123.992075 529.328594 C 106.673056 511.996522 77.991294 482.675209 68.461251 490.313071 C 59.536 501.971828 61.31372 510.803106 67.398285 518.202285 C 73.226273 525.27098 82.976239 531.036097 91.003467 536.672693 C 94.503925 539.995898 96.758146 541.244394 100.661798 544.67776 C 101.578148 545.632493 124.376942 562.780963 135.996263 575.321011 C 176.38898 616.117478 163.321826 610.664485 199.994162 625.995291 " transform="matrix(0.213142,0,0,0.212756,-10.052889,-9.984949)"/>
<path style="fill-rule:nonzero;fill:rgb(17.254902%,53.72549%,62.745098%);fill-opacity:1;stroke-width:1.40879;stroke-linecap:butt;stroke-linejoin:miter;stroke:rgb(0%,0%,0%);stroke-opacity:1;stroke-miterlimit:4;" d="M 181.502215 462.001572 C 187.495145 475.496353 197.996519 498.006014 215.993637 502.504275 C 234.009082 507.002535 235.49357 514.493516 262.507574 505.496995 C 289.503252 496.500474 288.000437 496.500474 300.004625 477.001893 C 312.008813 457.503311 310.505999 447.001251 309.003185 432.000929 C 307.50037 417.000608 289.503252 394.490946 274.493435 389.992686 C 259.501946 385.494426 236.996384 384.007246 215.993637 388.505506 C 194.99089 393.003766 192.003588 406.498547 187.495145 414.007888 C 183.005029 421.498869 175.490957 448.506791 181.502215 462.001572 Z M 181.502215 462.001572 " transform="matrix(0.213142,0,0,0.212756,-10.052889,-9.984949)"/>
<path style="fill-rule:nonzero;fill:rgb(2.745098%,8.235294%,9.411765%);fill-opacity:1;stroke-width:1.40879;stroke-linecap:butt;stroke-linejoin:miter;stroke:rgb(0%,0%,0%);stroke-opacity:1;stroke-miterlimit:4;" d="M 240.002013 408.004088 C 223.507709 409.491268 215.993637 408.004088 208.497892 418.506148 C 201.002147 429.008209 196.676974 467.326043 206.500249 480.5087 C 213.501164 485.00696 220.007251 488.991134 229.500639 488.991134 C 238.994028 488.991134 253.509015 487.99968 259.996775 485.00696 C 266.502861 481.99588 275.50142 483.005693 280.999522 475.496353 C 286.497623 468.005372 289.008423 464.002839 288.495267 452.490964 C 288.000437 440.99745 288.000437 432.992383 282.997165 425.997129 C 277.993893 419.001875 274.493435 409.491268 265.000047 406.994274 C 255.506659 404.497281 256.496317 406.498547 240.002013 408.004088 Z M 240.002013 408.004088 " transform="matrix(0.213142,0,0,0.212756,-10.052889,-9.984949)"/>
<path style=" stroke:none;fill-rule:nonzero;fill:rgb(100%,100%,100%);fill-opacity:1;" d="M 33.109375 84.054688 C 33.535156 84.585938 34.066406 84.796875 35.453125 84.371094 C 36.839844 83.945312 37.265625 83.203125 39.824219 83.097656 C 42.378906 82.988281 43.550781 82.988281 44.722656 83.203125 C 45.898438 83.414062 46.644531 82.671875 46.855469 83.203125 C 47.070312 83.734375 48.773438 84.160156 46.214844 84.691406 C 43.660156 85.222656 43.234375 86.5 41.3125 86.5 C 39.394531 86.5 39.289062 87.351562 37.371094 87.136719 C 35.453125 86.925781 33.535156 87.988281 33.429688 88.519531 C 33.320312 89.054688 31.152344 88.164062 31.152344 87.316406 C 31.152344 86.464844 32.683594 83.519531 33.109375 84.054688 Z M 33.109375 84.054688 "/>
<path style="fill-rule:nonzero;fill:rgb(67.843137%,84.313725%,88.235294%);fill-opacity:1;stroke-width:1.760985;stroke-linecap:butt;stroke-linejoin:miter;stroke:rgb(0%,0%,0%);stroke-opacity:1;stroke-miterlimit:4;" d="M 985.202624 59.536378 C 979.750349 59.513428 970.999217 64.172334 967.494183 65.847703 C 959.590675 69.588598 947.907227 75.417967 939.591361 79.594917 C 931.252587 83.748916 924.586149 86.250496 912.077988 94.99455 C 899.592735 103.738604 879.593422 121.662767 870.842291 124.577451 C 862.09116 127.492136 865.000567 127.492136 862.915874 122.488977 C 860.83118 117.508767 860.83118 114.158028 862.915874 96.256815 C 865.000567 78.332652 857.097059 91.253655 843.741274 98.758395 C 830.408399 106.240183 829.171328 110.417133 816.663167 122.098822 C 804.155005 133.75756 797.488568 135.40998 788.760345 137.91156 C 780.009214 140.41314 776.664541 135.40998 774.16749 123.751242 C 773.480228 120.538203 777.947429 107.754901 773.342776 109.590923 C 761.178245 114.410481 732.015444 145.232697 724.157753 154.596408 C 713.344837 167.494461 698.751982 171.258306 697.904359 169.169831 C 697.079645 167.081356 694.582595 165.842042 692.910258 165.842042 C 691.26083 165.842042 675.407996 179.1532 669.58918 183.743254 C 663.747457 188.333309 604.59714 238.341953 622.076494 235.404318 C 639.578756 232.489634 671.261517 225.834055 707.090756 233.338794 C 742.919995 240.843533 808.759658 241.669743 822.092534 242.082848 C 835.4025 242.495953 905.41155 268.33796 952.488971 274.167329 C 999.589301 279.996698 1104.579967 328.329973 1162.493213 331.657762 C 1220.406459 335.008502 1306.657792 394.151355 1342.074674 405.833044 C 1377.491556 417.491782 1469.584613 486.663904 1489.171569 497.496433 C 1502.779349 505.047073 1539.181306 520.033601 1568.64192 529.856318 C 1581.53953 534.170969 1569.581178 522.902385 1575.399993 520.010651 C 1581.241717 517.095966 1604.585703 520.010651 1615.833885 520.400805 C 1627.082067 520.836861 1659.154276 516.246806 1670.837723 511.243647 C 1682.498262 506.240487 1677.504161 473.742901 1677.916518 464.172637 C 1678.145605 459.215378 1683.162615 439.065039 1680.413568 419.580257 C 1677.824883 401.380691 1667.470141 383.800782 1666.668336 379.164827 C 1665.843622 374.437071 1657.207034 355.503096 1645.844309 337.923187 C 1634.206679 319.884272 1619.820002 303.176474 1617.506222 298.747071 C 1612.901569 290.003017 1572.078229 252.915377 1564.587077 247.912217 C 1557.095925 242.909058 1508.346168 209.585262 1500.419751 205.844367 C 1492.493333 202.080522 1480.00808 191.247994 1452.907064 184.592415 C 1441.52143 181.769531 1430.387792 176.054913 1418.337805 173.346781 C 1401.706073 169.582936 1384.913981 169.284583 1377.903913 169.996041 C 1365.831017 171.258306 1362.921609 169.996041 1355.842815 169.169831 C 1348.741111 168.343621 1350.825805 167.081356 1341.662317 168.756726 C 1332.498829 170.409146 1328.741798 173.346781 1321.250647 176.261466 C 1313.759495 179.1532 1310.414822 177.913885 1302.488405 178.32699 C 1294.584896 178.740095 1293.760182 172.910726 1290.415509 170.845201 C 1287.093744 168.756726 1280.404398 170.409146 1265.834452 170.845201 C 1251.241597 171.258306 1255.846249 169.996041 1252.089219 163.340462 C 1248.332189 156.661933 1247.507475 150.832563 1247.507475 150.832563 C 1247.507475 150.832563 1241.253394 149.593249 1232.91462 150.006354 C 1224.575846 150.419458 1222.078795 147.504774 1217.084694 143.327824 C 1212.090593 139.173825 1213.327664 138.76072 1207.921206 128.341296 C 1202.491839 117.921872 1206.248869 122.902081 1199.170075 122.098822 C 1192.09128 121.249662 1189.594229 122.488977 1173.741395 122.488977 C 1157.911469 122.488977 1166.6626 119.597242 1161.668499 113.744923 C 1156.651489 107.915553 1157.499112 105.827079 1157.499112 105.827079 C 1157.499112 105.827079 1149.595603 108.328658 1143.341523 109.590923 C 1137.087442 110.830238 1132.093341 114.594083 1121.257516 112.918713 C 1110.421691 111.243343 1115.003435 105.413974 1115.003435 105.413974 L 1111.658762 94.99455 C 1111.658762 94.99455 1098.348795 99.997709 1091.247092 102.499289 C 1084.168297 105.000869 1077.089503 106.240183 1072.920115 105.000869 C 1068.750728 103.738604 1067.490749 97.083025 1062.909004 82.509601 C 1058.32726 67.913228 1053.333159 71.654122 1046.254365 73.329492 C 1039.152661 75.004862 1036.655611 76.657282 1029.989173 80.008022 C 1023.345644 83.335811 1000.001658 91.66676 996.244628 91.253655 C 992.510506 90.84055 986.668782 90.84055 987.493496 80.008022 C 987.882945 75.027813 991.914879 63.116621 988.341119 60.408489 C 987.539314 59.811782 986.462604 59.559329 985.202624 59.536378 Z M 985.202624 59.536378 " transform="matrix(0.170514,0,0,0.170205,-10.053014,-9.984949)"/>
<path style="fill-rule:nonzero;fill:rgb(58.431373%,76.862745%,81.176471%);fill-opacity:1;stroke-width:1.40879;stroke-linecap:butt;stroke-linejoin:miter;stroke:rgb(0%,0%,0%);stroke-opacity:1;stroke-miterlimit:4;" d="M 921.491673 243.992008 C 922.499658 236.005301 929.995403 225.50324 935.493504 217.498173 C 940.991605 209.493106 959.50188 196.494051 971.506068 187.497531 C 983.491929 178.50101 985.507899 174.994203 998.996574 161.499422 C 1012.503577 148.004641 1014.354604 154.228765 1017.635138 146.003374 C 1011.147378 148.996095 998.006916 158.506702 991.006 163.004962 C 984.005085 167.503223 979.496642 170.495943 970.498082 177.491197 C 961.499523 184.504811 952.006135 188.507344 944.492063 196.494051 C 936.996318 204.499119 931.498217 206.004659 927.008101 208.997379 C 922.499658 212.00846 904.997369 227.504507 897.501624 233.508308 C 890.005879 239.493748 887.00025 240.007835 883.004963 234.995488 C 878.991349 230.001501 886.505421 224.493427 892.003522 216.50672 C 897.501624 208.501653 904.997369 202.002125 914.509084 191.995791 C 924.002472 182.007817 923.507643 183.494997 935.493504 172.001483 C 947.497692 160.507969 948.505677 163.500689 964.505152 148.500368 C 969.086903 143.267698 978.543637 136.364245 977.828884 134.362978 C 971.231163 137.50258 963.991996 142.992294 949.495335 151.493088 C 934.998675 159.993882 927.008101 165.997683 921.491673 168.494676 C 915.993571 170.99167 883.004963 192.491518 864.494689 212.504186 C 846.002741 232.498494 844.499927 215.992633 849.503199 204.499119 C 854.506471 193.005605 859.491417 193.501331 865.997503 184.009084 C 872.50359 174.498477 895.009151 155.991348 916.506727 137.998307 C 938.004304 120.005266 938.004304 119.491179 927.008101 124.999253 C 915.993571 130.507327 911.503455 133.00432 902.504896 139.008121 C 893.506337 144.993561 881.996978 150.997361 870.505946 161.995149 C 858.996587 172.992936 883.004963 151.493088 833.503724 192.491518 C 784.002485 233.508308 821.994366 195.502598 823.49718 187.001804 C 824.999994 178.50101 829.508437 170.495943 837.004182 160.507969 C 844.499927 150.501635 858.006929 144.002108 889.492723 118.499726 C 920.996843 92.997344 901.002082 104.490858 892.003522 107.997665 C 883.004963 111.504472 878.991349 116.994185 868.508303 122.997986 C 858.006929 129.001786 846.9924 139.008121 837.99384 145.507648 C 828.995281 152.007175 825.494823 159.498155 796.006673 178.996737 C 766.500196 198.495318 767.508181 189.003071 771.503468 179.492464 C 775.498755 170.000216 782.004842 165.997683 793.495874 151.493088 C 805.005232 137.006854 817.504249 129.497513 839.496655 112.495925 C 861.507387 95.494337 858.996587 88.499083 842.502284 103.499405 C 826.00798 118.499726 830.498096 111.008745 819.996722 118.499726 C 809.495349 126.009066 809.000519 128.50606 759.99411 161.003696 C 711.006027 193.501331 730.505959 168.494676 732.503603 154.999895 C 733.584896 147.692517 745.112582 135.097388 759.99411 122.906185 C 771.61343 113.395577 785.523627 100.084399 798.004317 92.72194 C 799.103937 92.079331 805.829948 88.792847 806.911241 88.186959 C 813.637252 82.917569 819.318623 80.145171 821.646152 73.278439 C 807.131165 83.266413 798.993975 86.497817 789.500587 93.49307 C 780.007198 100.506684 771.008639 105.500671 766.005367 107.006212 C 761.002095 108.493391 754.496008 115.507006 709.998041 152.007175 C 665.500075 188.507344 691.506094 152.502902 693.503737 140.495301 C 695.501381 128.50606 729.497974 101.002411 752.498365 77.501296 C 775.498755 54.000181 750.005892 73.003036 739.504519 80.494016 C 729.003145 88.003357 725.007858 88.99481 712.508841 99.496871 C 699.991497 109.998932 677.999092 127.991973 670.503347 133.00432 C 663.007602 137.998307 646.000142 154.504168 635.003939 169.50449 C 624.007737 184.504811 619.499294 177.491197 619.004464 177.491197 C 618.491308 177.491197 619.499294 167.007496 621.002108 161.499422 C 622.504922 155.991348 638.999226 131.003053 647.008127 122.997986 C 654.998701 114.992919 670.008518 90.996077 667.497718 94.502884 C 665.005246 97.991331 655.49353 105.996398 649.005771 112.991652 C 642.499684 120.005266 606.505447 152.502902 600.49419 158.506702 C 594.50126 164.492142 588.508329 176.004017 580.994257 179.492464 C 573.498512 182.999271 574.506498 176.499743 573.003683 172.992936 C 571.500869 169.50449 585.007871 137.50258 589.497987 129.497513 C 594.00643 121.492446 606.505447 103.003678 601.997004 107.501938 C 597.506888 112.000199 592.998445 118.499726 588.508329 122.502259 C 583.999886 126.504793 582.497072 126.009066 571.995698 145.507648 C 561.494325 165.006229 550.498122 176.99547 545.000021 177.491197 C 539.501919 178.005284 535.506632 175.50829 536.001461 173.507023 C 536.496291 171.505756 539.996748 162.490876 542.507548 157.496889 C 545.000021 152.502902 555.501394 137.50258 554.493409 135.501314 C 553.503751 133.500047 539.501919 151.493088 532.501004 161.995149 C 525.500088 172.49721 483.677864 190.673853 497.661368 188.323742 C 511.6632 185.991991 536.99112 180.667519 565.672882 186.67132 C 594.336317 192.67512 647.008127 193.336089 657.674444 193.666574 C 668.322433 193.997058 724.329759 214.670695 761.991753 219.334198 C 799.672074 223.9977 883.664735 262.664379 929.995403 265.326614 C 932.341259 265.473496 920.502014 251.997076 921.491673 243.992008 Z M 921.491673 243.992008 " transform="matrix(0.213142,0,0,0.212756,-10.052889,-9.984949)"/>
<path style="fill-rule:nonzero;fill:rgb(47.45098%,67.843137%,72.54902%);fill-opacity:1;stroke-width:1.760985;stroke-linecap:round;stroke-linejoin:round;stroke:rgb(0%,0%,0%);stroke-opacity:1;stroke-miterlimit:4;" d="M 749.563524 893.778793 C 747.685009 893.801743 743.240717 893.962395 734.581221 894.168947 C 721.752337 894.467301 699.989053 894.834505 676.94288 895.064008 C 699.989053 925.840324 683.74677 904.588371 695.842574 953.33475 C 695.842574 953.33475 712.084857 1009.998974 715.406622 1025.008452 C 718.751295 1039.99498 744.592332 1098.747678 749.586433 1106.252418 C 754.580534 1113.757157 772.082796 1131.245265 777.076898 1140.838479 C 782.093907 1150.408742 789.997416 1162.503536 798.33619 1175.401589 C 806.652056 1188.345543 806.652056 1194.151962 820.420197 1208.335231 C 834.165429 1222.495549 840.831867 1232.501868 844.588897 1232.501868 C 848.345927 1232.501868 846.238325 1235.416553 852.904763 1224.170919 C 859.594109 1212.902335 867.909975 1193.325752 873.751698 1189.997963 C 879.593422 1186.670173 887.909288 1166.244431 887.909288 1166.244431 L 893.338655 1150.408742 C 893.338655 1150.408742 900.005092 1143.753163 903.326857 1128.33058 C 906.67153 1112.907997 907.908601 1097.508364 912.902702 1088.741359 C 917.919712 1079.997306 923.32617 1055.830668 923.32617 1055.830668 C 923.32617 1055.830668 928.34318 1029.988661 923.761436 1019.592188 C 919.156783 1009.149814 905.41155 987.920811 904.999193 987.920811 C 904.586836 987.920811 890.841604 972.085123 865.412924 959.16412 C 840.007153 946.243116 819.595483 926.666533 809.584372 924.991163 C 799.59617 923.338744 780.009214 914.158635 780.009214 913.74553 C 780.009214 913.332425 767.501052 908.329265 754.580534 907.503056 C 748.761719 907.503056 741.660015 900.411421 741.660015 900.411421 C 737.857168 894.995157 755.221978 893.732892 749.563524 893.778793 Z M 749.563524 893.778793 " transform="matrix(0.170514,0,0,0.170205,-10.053014,-9.984949)"/>
<path style="fill-rule:nonzero;fill:rgb(67.843137%,84.313725%,88.235294%);fill-opacity:1;stroke-width:1.760985;stroke-linecap:round;stroke-linejoin:round;stroke:rgb(0%,0%,0%);stroke-opacity:1;stroke-miterlimit:4;" d="M 1517.486747 813.338087 C 1488.759212 823.75751 1447.500606 817.078981 1421.247212 826.25909 C 1394.993818 835.416249 1343.74701 847.074988 1324.160054 855.841992 C 1304.596007 864.586046 1247.919832 873.743204 1235.846936 877.920154 C 1223.751132 882.097104 1124.991637 902.913001 1112.094028 906.240791 C 1099.1506 909.59153 1101.67056 915.834005 1101.67056 915.834005 C 1101.67056 915.834005 1118.3252 940.000642 1144.99095 954.98717 C 1171.656701 969.996648 1234.999314 1008.346554 1269.156216 1015.828343 C 1303.336027 1023.333082 1384.157993 1035.840981 1405.004929 1050.827509 C 1425.828956 1065.836987 1437.489495 1066.663197 1460.008767 1072.492566 C 1482.505131 1078.344886 1500.832108 1080.846466 1515.83732 1073.341726 C 1530.842532 1065.836987 1569.993535 1048.325929 1584.151124 1033.339401 C 1598.331622 1018.329923 1603.325723 1022.506872 1616.658599 993.337076 C 1629.991474 964.167279 1640.002585 959.16412 1636.657912 927.492743 C 1633.336147 895.844317 1632.488525 871.65473 1629.16676 860.845151 C 1625.844996 849.989672 1604.150437 822.495245 1597.506908 820.842826 C 1590.840471 819.167456 1535.401367 819.993666 1535.401367 819.993666 C 1520.831421 822.495245 1522.0914 818.341246 1517.486747 813.338087 Z M 1517.486747 813.338087 " transform="matrix(0.170514,0,0,0.170205,-10.053014,-9.984949)"/>
<path style="fill-rule:nonzero;fill:rgb(67.843137%,84.313725%,88.235294%);fill-opacity:1;stroke-width:1.760985;stroke-linecap:round;stroke-linejoin:round;stroke:rgb(0%,0%,0%);stroke-opacity:1;stroke-miterlimit:4;" d="M 996.56535 398.649608 C 990.311269 398.672559 983.919736 399.269266 977.505294 400.623332 C 948.136314 406.865806 859.365022 440.625657 837.510102 456.254793 C 815.632274 471.883929 793.135911 502.499593 783.743335 518.128728 C 774.373669 533.757864 745.004689 566.875108 731.877992 581.884586 C 718.751295 596.871114 688.740871 633.132545 679.98974 644.378179 C 671.238608 655.623812 671.880053 671.872605 671.880053 679.377345 C 671.880053 686.882084 671.238608 693.744215 678.752669 714.376511 C 686.24382 735.008806 691.879366 754.998493 701.249032 756.237808 C 710.618699 757.500073 727.502426 758.739388 752.49584 756.237808 C 777.489255 753.759179 838.747173 747.493754 853.13385 745.611832 C 867.497618 743.75286 884.381345 747.493754 897.508042 738.7497 C 910.634739 730.005646 940.622254 714.376511 958.743052 696.245795 C 976.86385 678.11508 1015.625405 644.378179 1024.995072 626.867121 C 1034.364739 609.379013 1061.878112 558.750711 1065.635142 540.619996 C 1069.369264 522.48928 1076.24188 479.365718 1076.24188 473.123243 C 1076.24188 466.880769 1066.872213 416.872125 1051.248466 410.629651 C 1039.038118 405.741243 1018.832626 398.580758 996.56535 398.649608 Z M 996.56535 398.649608 " transform="matrix(0.170514,0,0,0.170205,-10.053014,-9.984949)"/>
<path style="fill-rule:nonzero;fill:rgb(92.941176%,96.470588%,97.254902%);fill-opacity:1;stroke-width:1.760985;stroke-linecap:round;stroke-linejoin:round;stroke:rgb(0%,0%,0%);stroke-opacity:1;stroke-miterlimit:4;" d="M 2153.868097 396.079178 C 2149.148901 396.079178 2140.374861 397.616846 2122.093702 402.092149 C 2089.586227 409.987043 2035.407103 430.412786 2005.831944 442.50758 C 1976.256786 454.579423 1952.9128 460.408792 1924.162356 472.503586 C 1899.993655 480.42143 1871.655568 492.906379 1845.83744 500.847173 C 1827.075198 510.830542 1753.744383 533.344759 1776.653104 528.754705 C 1799.584733 524.16465 1800.844713 534.584074 1803.341763 542.915023 C 1805.838814 551.245972 1815.827016 570.40945 1812.917608 582.504243 C 1810.008201 594.576087 1806.251171 609.14951 1805.403548 619.591884 C 1804.578834 629.988358 1799.99709 635.404622 1801.257069 649.151835 C 1802.49414 662.921999 1810.420558 693.744215 1804.166477 703.337429 C 1797.912396 712.907693 1790.008888 727.504067 1784.167164 732.094121 C 1778.32544 736.661225 1757.089056 749.995334 1749.162639 752.910018 C 1741.25913 755.847653 1736.654477 760.001653 1732.507999 760.001653 C 1728.338612 760.001653 1780.845399 770.421077 1790.833602 774.988181 C 1800.844713 779.578235 1870.830854 809.161137 1890.41781 814.577401 C 1910.004766 819.993666 1999.990221 852.904357 2009.588975 853.753517 C 2019.16482 854.579727 2101.246766 878.746364 2108.32556 878.333259 C 2115.404355 877.920154 2139.160698 877.920154 2139.160698 877.920154 L 2138.335984 799.154818 C 2138.335984 799.154818 2126.652537 737.92349 2120.009008 725.415592 C 2113.34257 712.907693 2099.162072 670.839843 2094.167971 666.662894 C 2089.150961 662.508894 2083.332146 648.325626 2083.332146 648.325626 C 2083.332146 648.325626 2087.089176 639.581572 2092.083278 632.076832 C 2102.094388 619.155829 2107.500846 594.989192 2112.907305 581.241978 C 2125.827823 557.098291 2137.076005 521.249965 2140.008321 507.915857 C 2140.008321 507.915857 2158.747654 438.743735 2158.747654 438.33063 C 2158.747654 437.917525 2162.917042 401.242989 2160.007634 398.328305 C 2158.724746 397.06604 2157.533492 396.102128 2153.868097 396.079178 Z M 2153.868097 396.079178 " transform="matrix(0.170514,0,0,0.170205,-10.053014,-9.984949)"/>
<path style="fill-rule:nonzero;fill:rgb(10.588235%,26.666667%,29.803922%);fill-opacity:1;stroke-width:1.760985;stroke-linecap:round;stroke-linejoin:round;stroke:rgb(0%,0%,0%);stroke-opacity:1;stroke-miterlimit:4;" d="M 2153.868097 396.079178 C 2149.148901 396.079178 2140.374861 397.616846 2122.093702 402.092149 C 2089.586227 409.987043 2035.407103 430.412786 2005.831944 442.50758 C 1976.256786 454.579423 1952.9128 460.408792 1924.162356 472.503586 C 1899.993655 480.42143 1871.655568 492.906379 1845.83744 500.847173 C 1827.075198 510.830542 1753.744383 533.344759 1776.653104 528.754705 C 1799.584733 524.16465 1800.844713 534.584074 1803.341763 542.915023 C 1805.838814 551.245972 1815.827016 570.40945 1812.917608 582.504243 C 1812.184529 585.533679 1811.382724 588.746718 1810.603827 591.982706 C 1859.193224 514.732088 2006.794111 460.22519 2058.338732 439.386343 C 2109.883353 418.547495 2124.08676 411.823065 2160.007634 398.328305 C 2158.724746 397.06604 2157.533492 396.102128 2153.868097 396.079178 Z M 1805.105735 701.478457 C 1804.83083 702.144015 1804.510108 702.786623 1804.166477 703.337429 C 1797.912396 712.907693 1790.008888 727.504067 1784.167164 732.094121 C 1778.32544 736.661225 1757.089056 749.995334 1749.162639 752.910018 C 1741.25913 755.847653 1736.654477 760.001653 1732.507999 760.001653 C 1728.338612 760.001653 1780.845399 770.421077 1790.833602 774.988181 C 1800.844713 779.578235 1870.830854 809.161137 1890.41781 814.577401 C 1910.004766 819.993666 1999.990221 852.904357 2009.588975 853.753517 C 2019.16482 854.579727 2101.246766 878.746364 2108.32556 878.333259 C 2115.404355 877.920154 2139.160698 877.920154 2139.160698 877.920154 C 2139.160698 877.920154 2132.3339 872.848144 2109.448088 866.008963 C 2086.585185 859.169781 2054.031893 849.392965 1989.108578 821.18708 C 1904.689943 784.512544 1832.481656 753.91983 1805.105735 701.478457 Z M 1805.105735 701.478457 " transform="matrix(0.170514,0,0,0.170205,-10.053014,-9.984949)"/>
</g>
</svg>
