<?xml version="1.0" encoding="UTF-8"?>
<svg xmlns="http://www.w3.org/2000/svg" xmlns:xlink="http://www.w3.org/1999/xlink" width="449pt" height="250pt" viewBox="0 0 449 250" version="1.1">
<g id="surface41">
<path style=" stroke:none;fill-rule:nonzero;fill:rgb(21.960784%,16.862746%,16.862746%);fill-opacity:1;" d="M 328.78125 83.730469 C 328.78125 83.730469 325.832031 84.128906 324.167969 84.664062 C 322.503906 85.195312 318.65625 87.589844 316.609375 90.390625 C 314.558594 93.1875 310.71875 95.449219 308.796875 96.378906 C 306.871094 97.3125 306.871094 101.042969 307.003906 103.308594 C 307.128906 105.570312 309.820312 111.964844 310.972656 113.5625 C 312.125 115.15625 316.863281 128.609375 319.425781 132.203125 C 321.992188 135.796875 331.339844 154.042969 333.644531 157.238281 C 335.949219 160.433594 342.613281 159.371094 346.96875 164.429688 C 351.320312 169.488281 356.703125 166.828125 363.363281 168.027344 C 368.640625 168.976562 373.996094 167.363281 373.996094 167.363281 M 434.484375 125.332031 C 436.519531 122.753906 436.679688 119.519531 431.253906 114.804688 C 423.230469 107.078125 407.515625 92.785156 401.023438 87.277344 C 394.535156 81.777344 377.113281 69.171875 370.113281 65.265625 C 362.59375 59.230469 361.570312 57.628906 353.710938 52.921875 C 344.492188 46.089844 327.835938 38.101562 324.253906 37.472656 C 320.667969 36.851562 314.179688 35.433594 306.832031 37.035156 C 299.488281 38.632812 285.992188 38.808594 283.261719 38.898438 C 280.53125 38.984375 266.183594 44.492188 256.535156 45.734375 C 246.882812 46.976562 225.363281 57.273438 213.496094 57.984375 C 201.625 58.695312 183.949219 71.296875 176.683594 73.789062 C 169.429688 76.269531 150.554688 91.007812 146.542969 93.316406 C 142.527344 95.625 128.867188 101.21875 123.65625 102.105469 C 118.445312 102.996094 113.324219 103.972656 109.734375 103.972656 C 106.148438 103.972656 103.078125 104.683594 96.925781 102.460938 C 90.777344 100.242188 92.316406 100.957031 87.621094 99.976562 C 82.921875 99 82.664062 101.21875 82.152344 102.996094 C 81.640625 104.769531 79.59375 108.851562 80.1875 111.429688 C 80.785156 114.003906 81.554688 117.113281 81.730469 119.332031 C 81.898438 121.546875 82.835938 122.703125 82.578125 125.632812 C 82.324219 128.566406 80.699219 135.132812 81.984375 137.175781 C 83.265625 139.214844 84.882812 142.324219 86.082031 143.304688 C 87.277344 144.277344 91.632812 147.117188 93.253906 147.738281 C 94.875 148.363281 95.820312 149.25 96.667969 149.25 C 97.523438 149.25 101.199219 148.804688 104.1875 148.980469 C 107.175781 149.160156 116.3125 150.578125 120.414062 152.265625 C 124.511719 153.953125 126.644531 154.84375 130.65625 156.171875 C 134.671875 157.503906 134.84375 158.394531 140.734375 160.613281 C 146.625 162.832031 155.082031 161.410156 160.460938 163.367188 C 165.84375 165.316406 176.347656 167.800781 180.359375 169.671875 C 184.371094 171.535156 195.988281 173.484375 198.460938 174.375 C 200.941406 175.265625 221.179688 179.699219 223.824219 180.410156 C 226.476562 181.121094 225.363281 180.675781 233.5625 181.121094 C 241.757812 181.5625 243.296875 181.210938 246.203125 181.917969 C 249.101562 182.628906 254.226562 182.007812 256.703125 181.917969 C 259.179688 181.832031 281.128906 180.941406 287.53125 179.523438 C 293.9375 178.101562 294.105469 177.660156 301.195312 177.835938 C 308.285156 178.011719 328.695312 178.28125 331.765625 177.835938 C 334.839844 177.390625 351.066406 175.527344 358.839844 173.664062 C 366.609375 171.796875 364.5625 171.269531 365.410156 170.914062 C 366.265625 170.554688 370.113281 168.246094 374.722656 167.09375 C 379.332031 165.9375 390.949219 162.921875 401.023438 156.527344 C 411.101562 150.132812 417.847656 146.765625 422.117188 144.011719 C 426.386719 141.257812 440.21875 130.605469 439.449219 128.390625 C 438.683594 126.164062 436.742188 123.660156 435.542969 123.75 M 414.773438 106.1875 C 415.628906 106.8125 415.96875 107.609375 415.96875 107.609375 M 420.496094 110.714844 C 419.898438 111.964844 419.640625 112.585938 419.640625 112.496094 "/>
<path style=" stroke:none;fill-rule:nonzero;fill:rgb(100%,81.176472%,6.666667%);fill-opacity:1;" d="M 434.484375 125.332031 C 436.519531 122.753906 436.679688 119.519531 431.253906 114.804688 C 423.230469 107.078125 407.515625 92.785156 401.023438 87.277344 C 394.535156 81.777344 377.113281 69.171875 370.113281 65.265625 C 362.59375 59.230469 361.570312 57.628906 353.710938 52.921875 C 344.492188 46.089844 327.835938 38.101562 324.253906 37.472656 C 322.378906 37.152344 331.324219 54.320312 305.335938 91.585938 C 299.796875 99.53125 277.3125 132.1875 263.453125 142.722656 C 247.214844 155.0625 233.035156 153.773438 223.484375 163.5 C 206.226562 181.058594 223.203125 180.242188 223.824219 180.410156 C 226.476562 181.121094 225.363281 180.675781 233.5625 181.121094 C 241.757812 181.5625 243.296875 181.210938 246.203125 181.917969 C 249.101562 182.628906 254.226562 182.007812 256.703125 181.917969 C 259.179688 181.832031 281.128906 180.941406 287.53125 179.523438 C 293.9375 178.101562 294.105469 177.660156 301.195312 177.835938 C 308.285156 178.011719 328.695312 178.28125 331.765625 177.835938 C 334.839844 177.390625 351.066406 175.527344 358.839844 173.664062 C 366.609375 171.796875 364.5625 171.269531 365.410156 170.914062 C 366.265625 170.554688 370.113281 168.246094 374.722656 167.09375 C 379.332031 165.9375 390.949219 162.921875 401.023438 156.527344 C 411.101562 150.132812 417.847656 146.765625 422.117188 144.011719 C 426.386719 141.257812 440.21875 130.605469 439.449219 128.390625 C 438.683594 126.164062 436.742188 123.660156 435.542969 123.75 "/>
<path style="fill-rule:nonzero;fill:rgb(100%,87.058824%,36.078432%);fill-opacity:1;stroke-width:1.40879;stroke-linecap:butt;stroke-linejoin:miter;stroke:rgb(0%,0%,0%);stroke-opacity:1;stroke-miterlimit:4;" d="M 86.497473 533.497095 C 80.993127 530.373105 67.621074 521.118467 63.26029 512.259827 C 58.57931 511.922495 51.001305 521.323799 48.012796 529.683773 C 45.009039 537.999748 99.000418 577.995624 115.66593 588.335592 C 132.331442 598.675561 158.663866 611.318188 198.002402 635.327447 C 209.316044 640.666098 215.338804 625.999476 221.33107 617.331503 C 227.338582 608.66353 239.323113 582.65961 227.338582 575.326299 C 215.338804 567.992989 190.668357 558.665017 177.997689 555.321028 C 165.342268 552.006371 142.669244 543.998396 123.991062 529.331775 C 106.669908 511.995828 77.98937 482.677252 68.459686 490.318562 C 59.539902 501.978526 61.308611 510.807832 67.392362 518.199809 C 73.232152 525.26912 82.975301 531.033103 91.010731 536.679752 C 94.502407 539.994408 96.759037 541.241071 100.662395 544.673061 C 101.577245 545.626391 124.37225 562.786338 135.990841 575.326299 C 176.381455 616.114173 163.314352 610.65819 199.999824 625.999476 " transform="matrix(-0.25619,0,0,0.266336,451.749599,-12.683259)"/>
<path style="fill-rule:nonzero;fill:rgb(81.960785%,54.901963%,36.862746%);fill-opacity:1;stroke-width:1.40879;stroke-linecap:butt;stroke-linejoin:miter;stroke:rgb(0%,0%,0%);stroke-opacity:1;stroke-miterlimit:4;" d="M 181.504613 461.997316 C 187.496878 475.490607 198.002402 498.003871 215.994446 502.506524 C 234.001738 507.009177 235.495992 514.489154 262.514553 505.498515 C 289.502619 496.493209 287.993117 496.493209 300.008143 477.001269 C 312.007921 457.50933 310.498419 447.008029 309.004165 432.004075 C 307.494663 417.000121 289.502619 394.486857 274.499084 389.998871 C 259.495549 385.496218 236.990247 384.000223 215.994446 388.502876 C 194.983398 393.005529 192.010137 406.49882 187.496878 414.00813 C 182.998867 421.502774 175.4971 448.504024 181.504613 461.997316 Z M 181.504613 461.997316 " transform="matrix(-0.25619,0,0,0.266336,451.749599,-12.683259)"/>
<path style="fill-rule:nonzero;fill:rgb(11.764706%,9.019608%,9.019608%);fill-opacity:1;stroke-width:1.40879;stroke-linecap:butt;stroke-linejoin:miter;stroke:rgb(0%,0%,0%);stroke-opacity:1;stroke-miterlimit:4;" d="M 240.009251 408.009482 C 223.511461 409.490811 215.994446 408.009482 208.492679 418.510783 C 201.006159 429.012084 196.67587 467.321299 206.495257 480.506592 C 213.493857 485.009245 220.004537 488.983899 229.503727 488.983899 C 238.987669 488.983899 253.503284 488.001235 259.998716 485.009245 C 266.509397 482.002587 275.505419 482.999918 280.994517 475.490607 C 286.498862 468.01063 289.014699 464.006643 288.496284 452.493345 C 287.993117 440.994714 287.993117 432.986739 282.991939 425.99076 C 277.99076 418.994782 274.499084 409.490811 264.999895 406.997485 C 255.500705 404.50416 256.491793 406.49882 240.009251 408.009482 Z M 240.009251 408.009482 " transform="matrix(-0.25619,0,0,0.266336,451.749599,-12.683259)"/>
<path style=" stroke:none;fill-rule:nonzero;fill:rgb(100%,100%,100%);fill-opacity:1;" d="M 399.871094 105.039062 C 399.359375 105.703125 398.71875 105.96875 397.054688 105.433594 C 395.386719 104.902344 394.875 103.972656 391.800781 103.839844 C 388.726562 103.703125 387.320312 103.703125 385.910156 103.972656 C 384.496094 104.238281 383.601562 103.308594 383.347656 103.972656 C 383.089844 104.636719 381.042969 105.171875 384.117188 105.835938 C 387.1875 106.5 387.699219 108.101562 390.011719 108.101562 C 392.316406 108.101562 392.441406 109.167969 394.746094 108.898438 C 397.054688 108.632812 399.359375 109.964844 399.484375 110.628906 C 399.617188 111.296875 402.222656 110.183594 402.222656 109.121094 C 402.222656 108.054688 400.382812 104.371094 399.871094 105.039062 Z M 399.871094 105.039062 "/>
<path style="fill-rule:nonzero;fill:rgb(100%,81.176472%,6.666667%);fill-opacity:1;stroke-width:1.76099;stroke-linecap:butt;stroke-linejoin:miter;stroke:rgb(0%,0%,0%);stroke-opacity:1;stroke-miterlimit:4;" d="M 985.194237 59.544839 C 979.74327 59.508172 970.995041 64.164819 967.488126 65.851478 C 959.597566 69.591462 947.914201 75.421438 939.585277 79.60142 C 931.256353 83.744735 924.58559 86.256391 912.082674 95.001354 C 899.598817 103.746316 879.586528 121.657906 870.838299 124.572894 C 862.09007 127.487882 865.006146 127.487882 862.909621 122.482903 C 860.832155 117.514591 860.832155 114.159605 862.909621 96.248015 C 865.006146 78.336425 857.096527 91.26137 843.735942 98.759671 C 830.413475 106.239639 829.174619 110.419621 816.671703 122.097905 C 804.149728 133.757855 797.498025 135.407848 788.768855 137.919504 C 780.001566 140.412826 776.666185 135.407848 774.169413 123.747898 C 773.483278 120.539578 777.943159 107.761299 773.349862 109.594625 C 761.170955 114.416271 732.010191 145.234472 724.15775 154.602766 C 713.351114 167.491044 698.751673 171.249361 697.913062 169.177703 C 697.074452 167.087712 694.577681 165.841051 692.91952 165.841051 C 691.261359 165.841051 675.404002 179.150994 669.590908 183.734308 C 663.739696 188.335955 604.598617 238.349074 622.076016 235.39742 C 639.572475 232.482432 671.268129 225.827461 707.099656 233.344095 C 742.912124 240.842397 808.762084 241.667393 822.084551 242.089058 C 835.407018 242.49239 905.411911 268.342279 952.488439 274.172254 C 999.584026 280.002229 1104.581835 328.328689 1162.484059 331.665342 C 1220.405341 335.001994 1306.648777 394.145074 1342.080058 405.841691 C 1377.49228 417.483308 1469.586929 486.673012 1489.179913 497.489633 C 1502.788269 505.042934 1539.172517 520.039536 1568.63823 529.847827 C 1581.541392 534.174476 1569.572137 522.899524 1575.40429 520.00287 C 1581.236442 517.087882 1604.584113 520.00287 1615.829114 520.406201 C 1627.074114 520.827866 1659.150955 516.244552 1670.834319 511.239574 C 1682.498625 506.234595 1677.505082 473.748067 1677.924388 464.178108 C 1678.153099 459.209796 1683.165701 439.061549 1680.421159 419.573299 C 1677.829091 401.38671 1667.460819 383.805119 1666.660328 379.166805 C 1665.840777 374.436825 1657.206904 355.498573 1645.847547 337.916982 C 1634.202301 319.877059 1619.812512 303.175464 1617.506334 298.738816 C 1612.893978 290.012186 1572.068908 252.924012 1564.578594 247.919033 C 1557.08828 242.914055 1508.353592 209.584197 1500.424913 205.844213 C 1492.496235 202.085896 1480.012378 191.250942 1452.910021 184.595971 C 1441.512546 181.772649 1430.381901 176.052674 1418.336409 173.339352 C 1401.697621 169.581035 1384.906357 169.287703 1377.911585 170.0027 C 1365.827975 171.249361 1362.930958 170.0027 1355.84089 169.177703 C 1348.731762 168.352707 1350.828288 167.087712 1341.660753 168.756038 C 1332.493219 170.406031 1328.738532 173.339352 1321.248218 176.25434 C 1313.757905 179.150994 1310.422523 177.922666 1302.493845 178.325997 C 1294.584226 178.747662 1293.764675 172.917687 1290.410234 170.846029 C 1287.093912 168.756038 1280.404089 170.406031 1265.842767 170.846029 C 1251.243325 171.249361 1255.855682 170.0027 1252.081936 163.347728 C 1248.327249 156.65609 1247.507698 150.826115 1247.507698 150.826115 C 1247.507698 150.826115 1241.25624 149.597787 1232.908257 150.001119 C 1224.579333 150.422783 1222.082561 147.507796 1217.089019 143.327814 C 1212.095476 139.166165 1213.334332 138.762833 1207.921484 128.349545 C 1202.489577 117.917922 1206.244264 122.904568 1199.173255 122.097905 C 1192.083187 121.254575 1189.586416 122.482903 1173.748118 122.482903 C 1157.909821 122.482903 1166.65805 119.604582 1161.664508 113.73794 C 1156.651906 107.907965 1157.490516 105.817974 1157.490516 105.817974 C 1157.490516 105.817974 1149.599956 108.32963 1143.348498 109.594625 C 1137.077981 110.822953 1132.084438 114.599603 1121.258743 112.912944 C 1110.413988 111.244618 1115.007285 105.414643 1115.007285 105.414643 L 1111.652844 95.001354 C 1111.652844 95.001354 1098.349437 100.006332 1091.240309 102.499655 C 1084.169301 104.992978 1077.098292 106.239639 1072.9243 104.992978 C 1068.750308 103.746316 1067.492393 97.091345 1062.918156 82.516407 C 1058.324859 67.904803 1053.331316 71.66312 1046.260307 73.331446 C 1039.15118 74.999773 1036.654409 76.649766 1029.983646 80.004751 C 1023.351001 83.341404 1000.003331 91.664701 996.248644 91.26137 C 992.513017 90.839705 986.661805 90.839705 987.500415 80.004751 C 987.881601 75.036439 991.922178 63.119823 988.339025 60.406502 C 987.538533 59.819838 986.471211 59.563172 985.194237 59.544839 Z M 985.194237 59.544839 " transform="matrix(-0.204952,0,0,0.213069,451.749749,-12.683259)"/>
<path style="fill-rule:nonzero;fill:rgb(85.09804%,68.235296%,0%);fill-opacity:1;stroke-width:1.40879;stroke-linecap:butt;stroke-linejoin:miter;stroke:rgb(0%,0%,0%);stroke-opacity:1;stroke-miterlimit:4;" d="M 921.496033 243.992655 C 922.502368 235.999346 929.988888 225.498046 935.493233 217.504737 C 940.997579 209.496762 959.508038 196.487468 971.507816 187.496829 C 983.492347 178.506191 985.505016 175.000868 998.999049 161.49291 C 1012.50833 147.999618 1014.353276 154.232932 1017.631488 146.004957 C 1011.151303 148.996948 998.007962 158.500919 991.009362 163.003572 C 984.010762 167.506224 979.497503 170.498215 970.501481 177.494194 C 961.505459 184.504839 952.00627 188.508826 944.489255 196.487468 C 937.002735 204.495444 931.498389 206.006106 927.015626 208.998096 C 922.502368 212.004754 904.998243 227.507373 897.496476 233.506021 C 890.009956 239.490002 887.0062 240.003334 883.011356 235.002016 C 878.986017 230.000698 886.503032 224.500715 892.007378 216.507407 C 897.496476 208.499431 904.998243 202.002118 914.51268 191.999482 C 923.996622 182.011513 923.508702 183.492842 935.493233 171.994211 C 947.493012 160.510246 948.499346 163.502237 964.509216 148.498283 C 969.083464 143.262299 978.536911 136.368987 977.835526 134.35966 C 971.233361 137.498317 963.990801 142.9983 949.490433 151.490274 C 935.005313 159.996914 927.015626 165.995562 921.496033 168.488888 C 915.991687 170.99688 883.011356 192.498147 864.500897 212.503419 C 846.005686 232.494024 844.496184 215.994075 849.497362 204.495444 C 854.513788 193.011479 859.484471 193.495478 865.995152 184.006174 C 872.505832 174.502203 895.011134 155.992927 916.510102 137.996982 C 938.00907 120.001038 938.00907 119.487706 927.015626 125.002356 C 915.991687 130.502339 911.508924 133.010331 902.497654 139.008979 C 893.501632 144.992961 881.989774 150.991609 870.50841 161.991575 C 858.996551 172.991541 883.011356 151.490274 833.50274 192.498147 C 784.009372 233.506021 821.990882 195.504805 823.500383 186.998164 C 824.994638 178.506191 829.507896 170.498215 837.009664 160.510246 C 844.496184 150.50761 858.005464 143.99563 889.491541 118.505042 C 920.992866 92.999788 901.0034 104.483752 892.007378 108.003741 C 883.011356 111.509064 878.986017 116.99438 868.510988 122.993029 C 858.005464 129.006343 846.996773 139.008979 838.000751 145.506292 C 828.989482 152.003606 825.497805 159.498249 796.00915 178.990189 C 766.505248 198.496796 767.511582 189.007491 771.506426 179.488854 C 775.50127 169.99955 782.01195 165.995562 793.493314 151.490274 C 805.005172 136.999652 817.508118 129.490342 839.495006 112.491728 C 861.512388 95.493113 858.996551 88.497135 842.498762 103.501089 C 826.000973 118.505042 830.498984 111.010399 819.99346 118.505042 C 809.487936 126.014353 809.000016 128.507678 759.994567 161.008911 C 711.004367 193.495478 730.505912 168.488888 732.503334 154.995596 C 733.585906 147.691619 745.113012 135.092991 759.994567 122.905029 C 771.613159 113.401058 785.518874 100.083766 798.006572 92.721122 C 799.104392 92.075791 805.828537 88.790467 806.911109 88.189136 C 813.635254 82.923819 819.32257 80.151827 821.640189 73.273182 C 807.124574 83.261151 798.997659 86.502474 789.49847 93.498453 C 780.014528 100.509098 771.003259 105.495749 766.00208 107.006411 C 761.000902 108.48774 754.490222 115.513052 709.998032 152.003606 C 665.505842 188.508826 691.502821 152.502271 693.500242 140.490308 C 695.497664 128.507678 729.499578 101.007763 752.4928 77.497169 C 775.50127 54.001241 750.007458 73.009183 739.501934 80.48916 C 728.99641 87.99847 725.001567 88.9958 712.513869 99.497101 C 699.995675 109.998402 677.99354 127.994346 670.50702 133.010331 C 663.005253 137.996982 646.004296 154.496931 635.010852 169.500885 C 624.002161 184.504839 619.50415 177.494194 619.000983 177.494194 C 618.497815 177.494194 619.50415 167.007559 620.998404 161.49291 C 622.507906 155.992927 639.005696 131.001004 647.010631 122.993029 C 655.000318 114.99972 670.003853 90.990461 667.503264 94.495783 C 665.002675 97.986439 655.488238 105.994414 649.008052 112.990393 C 642.497372 120.001038 606.498037 152.502271 600.490524 158.500919 C 594.498258 164.4849 588.505993 175.998198 580.988978 179.488854 C 573.502458 182.994177 574.508793 176.496863 572.999291 172.991541 C 571.505036 169.500885 585.014317 137.498317 589.49708 129.490342 C 594.010339 121.497033 606.498037 103.002424 602.000026 107.505076 C 597.502015 111.993062 593.004004 118.505042 588.505993 122.50903 C 583.992734 126.498351 582.49848 126.014353 571.992956 145.506292 C 561.487432 165.012899 550.493988 176.995529 545.00489 177.494194 C 539.500544 178.007525 535.505701 175.5142 536.008868 173.504873 C 536.496788 171.510212 540.003712 162.49024 542.504301 157.503589 C 545.00489 152.502271 555.495167 137.498317 554.488832 135.503657 C 553.497745 133.494329 539.500544 151.490274 532.501944 161.991575 C 525.503344 172.492876 483.679466 190.679486 497.661419 188.31816 C 511.658619 185.986167 536.984708 180.662184 565.680493 186.675499 C 594.330536 192.674147 647.010631 193.334145 657.66863 193.671477 C 668.326628 193.994143 724.330677 214.674079 761.991989 219.338065 C 799.668549 224.00205 883.666998 262.663264 929.988888 265.332589 C 932.337002 265.479255 920.504946 252.00063 921.496033 243.992655 Z M 921.496033 243.992655 " transform="matrix(-0.25619,0,0,0.266336,451.749599,-12.683259)"/>
<path style="fill-rule:nonzero;fill:rgb(21.960784%,16.862746%,16.862746%);fill-opacity:1;stroke-width:1.40879;stroke-linecap:butt;stroke-linejoin:miter;stroke:rgb(0%,0%,0%);stroke-opacity:1;stroke-miterlimit:4;" d="M 149.332399 453.006677 C 141.678156 462.657314 135.990841 466.338636 130.669465 472.997282 C 123.655618 479.333262 114.99504 482.999918 117.998797 490.993226 C 121.002553 499.001202 123.991062 502.007859 138.994597 505.99718 C 153.998132 510.001168 165.997911 503.005189 169.992754 502.007859 C 174.002845 500.995862 176.991354 493.999884 176.000267 485.991908 C 174.993933 477.9986 166.6688 468.670628 165.006824 461.997316 C 163.314352 457.670662 166.6688 453.98934 165.006824 445.996032 C 164.335934 438.662721 159.319508 443.678706 149.332399 453.006677 Z M 149.332399 453.006677 " transform="matrix(-0.25619,0,0,0.266336,451.749599,-12.683259)"/>
<path style="fill-rule:nonzero;fill:rgb(100%,87.058824%,36.078432%);fill-opacity:1;stroke-width:1.76099;stroke-linecap:round;stroke-linejoin:round;stroke:rgb(0%,0%,0%);stroke-opacity:1;stroke-miterlimit:4;" d="M 749.563827 893.781271 C 747.676954 893.799604 743.236132 893.964604 734.5832 894.166269 C 721.756275 894.459601 699.990528 894.826267 676.947807 895.064599 C 699.990528 925.846134 683.751985 904.579558 695.835596 953.327683 C 695.835596 953.327683 712.093199 1009.995774 715.409521 1025.01071 C 718.744902 1039.988979 744.589344 1098.747061 749.582887 1106.245362 C 754.576429 1113.761997 772.091947 1131.251922 777.08549 1140.840214 C 782.098092 1150.410174 789.988651 1162.510122 798.336635 1175.3984 C 806.6465 1188.341678 806.6465 1194.15332 820.42639 1208.343259 C 834.168162 1222.496532 840.838925 1232.506489 844.593612 1232.506489 C 848.348298 1232.506489 846.232713 1235.421477 852.903476 1224.164858 C 859.593299 1212.90824 867.903163 1193.328323 873.754376 1189.991671 C 879.586528 1186.673352 887.915453 1166.250106 887.915453 1166.250106 L 893.34736 1150.410174 C 893.34736 1150.410174 899.999063 1143.755202 903.334445 1128.336935 C 906.669826 1112.900334 907.908682 1097.5004 912.902225 1088.737104 C 917.914827 1079.992141 923.327674 1055.828911 923.327674 1055.828911 C 923.327674 1055.828911 928.340276 1029.997355 923.766039 1019.584066 C 919.153683 1009.152444 905.411911 987.922535 904.992606 987.922535 C 904.59236 987.922535 890.850588 972.082603 865.406392 959.157658 C 840.000315 946.251047 819.58778 926.67113 809.581635 924.984471 C 799.59455 923.334478 780.001566 914.149517 780.001566 913.746186 C 780.001566 913.324521 767.49865 908.337875 754.576429 907.494546 C 748.763336 907.494546 741.654208 900.417909 741.654208 900.417909 C 737.861403 894.991266 755.224446 893.726271 749.563827 893.781271 Z M 749.563827 893.781271 " transform="matrix(-0.204952,0,0,0.213069,451.749749,-12.683259)"/>
<path style="fill-rule:nonzero;fill:rgb(100%,87.058824%,36.078432%);fill-opacity:1;stroke-width:1.76099;stroke-linecap:round;stroke-linejoin:round;stroke:rgb(0%,0%,0%);stroke-opacity:1;stroke-miterlimit:4;" d="M 1517.483007 813.334948 C 1488.760608 823.76657 1447.497173 817.074932 1421.252486 826.259893 C 1394.988739 835.408187 1343.738219 847.068137 1324.164295 855.849767 C 1304.59037 864.594729 1247.927003 873.743023 1235.843392 877.923006 C 1223.759782 882.102988 1124.99437 902.911232 1112.091209 906.247884 C 1099.149928 909.584537 1101.665759 915.836177 1101.665759 915.836177 C 1101.665759 915.836177 1118.323607 939.999407 1144.9876 954.996009 C 1171.651593 969.992612 1235.004782 1008.345781 1269.159089 1015.825749 C 1303.332455 1023.32405 1384.163043 1035.845664 1405.013943 1050.823933 C 1425.826723 1065.838869 1437.491029 1066.663865 1460.000089 1072.49384 C 1482.50915 1078.342148 1500.825159 1080.853804 1515.843905 1073.33717 C 1530.843593 1065.838869 1569.991442 1048.33061 1584.152519 1033.334008 C 1598.332655 1018.337405 1603.326198 1022.499054 1616.667724 993.330845 C 1629.99019 964.162637 1639.996335 959.157658 1636.660953 927.496127 C 1633.344631 895.852929 1632.486962 871.653032 1629.17064 860.836412 C 1625.854317 849.983125 1604.145749 822.501576 1597.513104 820.851583 C 1590.842341 819.164923 1535.398771 819.98992 1535.398771 819.98992 C 1520.837448 822.501576 1522.095363 818.339927 1517.483007 813.334948 Z M 1517.483007 813.334948 " transform="matrix(-0.204952,0,0,0.213069,451.749749,-12.683259)"/>
<path style="fill-rule:nonzero;fill:rgb(29.803923%,22.745098%,22.745098%);fill-opacity:1;stroke-width:1.76099;stroke-linecap:round;stroke-linejoin:round;stroke:rgb(0%,0%,0%);stroke-opacity:1;stroke-miterlimit:4;" d="M 996.572652 398.655055 C 990.302135 398.673388 983.917262 399.278386 977.51333 400.616713 C 948.142913 406.868353 859.364587 440.619876 837.503543 456.258142 C 815.623441 471.878075 793.13344 502.494611 783.737193 518.132878 C 774.379066 533.752811 745.008649 566.881002 731.876776 581.877605 C 718.744902 596.874207 688.745528 633.137386 679.997299 644.375671 C 671.23001 655.63229 671.878027 671.875553 671.878027 679.373855 C 671.878027 686.890489 671.23001 693.747127 678.758443 714.372038 C 686.248757 735.015283 691.871257 754.998531 701.248444 756.245193 C 710.625631 757.491854 727.493131 758.738515 752.498963 756.245193 C 777.485735 753.75187 838.742399 747.50023 853.132188 745.611905 C 867.502918 743.760246 884.389478 747.50023 897.502292 738.755267 C 910.634165 730.010305 940.61448 714.372038 958.739896 696.240449 C 976.865313 678.10886 1015.631975 644.375671 1024.990103 626.867413 C 1034.36729 609.377487 1061.869893 558.75937 1065.643639 540.627781 C 1069.360207 522.496192 1076.240622 479.358043 1076.240622 473.124737 C 1076.240622 466.873097 1066.863435 416.878311 1051.25385 410.626671 C 1039.036824 405.750025 1018.833942 398.581722 996.572652 398.655055 Z M 996.572652 398.655055 " transform="matrix(-0.204952,0,0,0.213069,451.749749,-12.683259)"/>
<path style="fill-rule:nonzero;fill:rgb(100%,81.176472%,6.666667%);fill-opacity:1;stroke-width:1.76099;stroke-linecap:round;stroke-linejoin:round;stroke:rgb(0%,0%,0%);stroke-opacity:1;stroke-miterlimit:4;" d="M 2153.8738 396.070066 C 2149.147088 396.070066 2140.379799 397.61006 2122.101908 402.083374 C 2089.586703 409.985007 2035.401048 430.408253 2005.840038 442.508201 C 1976.259969 454.571483 1952.912299 460.401458 1924.17084 472.501406 C 1899.984559 480.421372 1871.662405 492.906319 1845.837023 500.844618 C 1827.082649 510.836242 1753.742374 533.349479 1776.65168 528.747832 C 1799.580046 524.164518 1800.837961 534.577807 1803.334732 542.919438 C 1805.831504 551.242736 1815.818589 570.400987 1812.921572 582.500936 C 1810.005495 594.582551 1806.250809 609.157488 1805.412199 619.58911 C 1804.573588 629.984066 1799.999351 635.410709 1801.257266 649.160651 C 1802.496122 662.928925 1810.424801 693.747127 1804.173343 703.335419 C 1797.921885 712.905378 1790.012266 727.498649 1784.161054 732.100296 C 1778.328901 736.665276 1757.096815 749.993553 1749.168137 752.90854 C 1741.258518 755.841861 1736.646162 760.00351 1732.510288 760.00351 C 1728.336297 760.00351 1780.844731 770.416799 1790.831817 774.981779 C 1800.837961 779.583426 1870.823795 809.154966 1890.416779 814.58161 C 1910.009763 819.98992 1999.988826 852.898113 2009.594725 853.759776 C 2019.162505 854.584772 2101.251009 878.748002 2108.322018 878.326337 C 2115.412086 877.923006 2139.160002 877.923006 2139.160002 877.923006 L 2138.340451 799.163342 C 2138.340451 799.163342 2126.657086 737.930271 2120.005383 725.408658 C 2113.33462 712.905378 2099.154483 670.848891 2094.160941 666.668909 C 2089.148339 662.50726 2083.335245 648.317321 2083.335245 648.317321 C 2083.335245 648.317321 2087.089932 639.590691 2092.083475 632.074057 C 2102.089619 619.149112 2107.502467 594.985882 2112.915315 581.235941 C 2125.818476 557.091044 2137.082536 521.249531 2140.017672 507.921255 C 2140.017672 507.921255 2158.752986 438.749884 2158.752986 438.328219 C 2158.752986 437.924887 2162.907919 401.240044 2160.010902 398.325057 C 2158.733927 397.060062 2157.53319 396.106733 2153.8738 396.070066 Z M 2153.8738 396.070066 " transform="matrix(-0.204952,0,0,0.213069,451.749749,-12.683259)"/>
<path style="fill:none;stroke-width:1.40879;stroke-linecap:butt;stroke-linejoin:miter;stroke:rgb(0%,0%,0%);stroke-opacity:1;stroke-miterlimit:4;" d="M 479.989572 362.000291 C 479.989572 362.000291 491.501431 363.496286 497.996864 365.505613 C 504.492296 367.500274 519.511079 376.490913 527.500766 387.00688 C 535.505701 397.508181 550.493988 406.000155 557.995756 409.490811 C 565.512771 412.996134 565.512771 427.002757 564.994356 435.509397 C 564.506436 444.001371 554.000912 468.01063 549.502901 474.009279 C 545.00489 479.99326 526.509679 530.505104 516.507322 543.998396 C 506.489718 557.491688 470.002463 625.999476 461.006441 637.996773 C 452.010419 649.994069 425.998193 646.004748 408.997236 664.998023 C 392.011527 683.991297 371.000479 674.003328 345.0035 678.505981 C 324.404135 682.06997 303.499819 676.012655 303.499819 676.012655 M 67.392362 518.199809 C 59.448417 508.519839 58.823269 496.375876 80.00204 478.673264 C 111.335642 449.662687 172.661066 395.997519 198.002402 375.317583 C 223.328491 354.66698 291.332318 307.337793 318.655829 292.671172 C 348.007257 270.011241 352.0021 263.997927 382.68006 246.324648 C 418.679395 220.672727 483.679466 190.679486 497.661419 188.31816 C 511.658619 185.986167 536.984708 180.662184 565.680493 186.675499 C 594.330536 192.674147 647.010631 193.334145 657.66863 193.671477 C 668.326628 193.994143 724.330677 214.674079 761.991989 219.338065 C 799.668549 224.00205 883.666998 262.663264 929.988888 265.332589 C 976.326024 268.001914 1045.320939 315.316435 1073.681279 324.673739 C 1101.995877 333.987044 1175.671772 389.338873 1191.330949 397.99218 C 1207.005374 406.660153 1260.325863 427.662755 1280.666021 430.992078 C 1301.00618 434.336068 1320.995645 438.002723 1335.008093 438.002723 C 1349.005293 438.002723 1360.989824 440.672048 1385.004629 432.326741 C 1409.004186 423.9961 1402.996673 426.680091 1421.324161 422.998769 C 1439.666898 419.332114 1440.673232 427.662755 1442.670654 434.336068 C 1444.668076 440.994714 1452.657763 456.321333 1450.340144 466.001303 C 1448.007277 475.666607 1445.003521 487.341237 1444.317384 495.671878 C 1443.661741 503.987853 1440.002343 508.329173 1441.008677 519.329139 C 1441.999764 530.343771 1448.342722 554.998362 1443.341544 562.669005 C 1438.325118 570.324981 1432.012655 581.999612 1427.331674 585.680934 C 1422.665941 589.332923 1405.680232 599.995557 1399.337274 602.327549 C 1393.009564 604.674209 1389.31967 608.003532 1386.010963 608.003532 C 1382.671762 608.003532 1368.323869 606.331537 1356.659536 606.991535 C 1344.995202 607.6662 1309.331312 612.990183 1293.321442 619.326164 C 1277.32682 625.662144 1269.001688 629.006134 1253.342511 634.007452 C 1237.668086 638.994103 1236.997196 642.338093 1214.003974 650.668733 C 1191.010752 659.014041 1157.999925 653.660724 1137.004125 661.008702 C 1115.993077 668.327346 1074.992564 677.655317 1059.333386 684.680629 C 1043.674209 691.676607 998.343407 698.995251 988.676495 702.339241 C 978.994336 705.68323 899.997065 722.329846 889.674511 724.999171 C 879.321462 727.668496 883.666998 725.996501 851.662506 727.668496 C 819.673262 729.325824 813.680997 728.005828 802.336861 730.660487 C 791.007972 733.329812 771.003259 730.997819 761.336347 730.660487 C 751.669435 730.337821 665.993762 726.993831 641.003118 721.669848 C 615.997226 716.331198 615.341584 714.673869 587.667381 715.333867 C 559.993178 715.993865 480.325017 717.005862 468.340486 715.333867 C 456.340708 713.661872 393.002614 706.665894 362.660099 699.669916 C 332.332832 692.659271 340.322519 690.679277 337.013813 689.344614 C 333.674612 687.995285 318.655829 679.327312 300.663785 675.000658 C 282.671741 670.659338 237.325692 659.336707 198.002402 635.327447 C 158.663866 611.318188 132.331442 598.675561 115.66593 588.335592 C 99.000418 577.995624 45.009039 537.999748 48.012796 529.683773 C 51.001305 521.323799 58.57931 511.922495 63.26029 512.259827 M 144.331221 446.318697 C 140.992019 448.665357 139.665487 451.672014 139.665487 451.672014 M 121.993641 463.317312 C 124.326507 468.01063 125.332842 470.342623 125.332842 470.005291 " transform="matrix(-0.25619,0,0,0.266336,451.749599,-12.683259)"/>
<path style="fill-rule:nonzero;fill:rgb(100%,87.058824%,36.078432%);fill-opacity:1;stroke-width:1.76099;stroke-linecap:round;stroke-linejoin:round;stroke:rgb(0%,0%,0%);stroke-opacity:1;stroke-miterlimit:4;" d="M 759.169726 550.30774 C 749.011107 562.407688 738.433183 574.379304 731.876776 581.877605 C 718.744902 596.874207 688.745528 633.137386 679.997299 644.375671 C 671.23001 655.63229 671.878027 671.875553 671.878027 679.373855 C 671.878027 686.890489 671.23001 693.747127 678.758443 714.372038 C 686.248757 735.015283 691.871257 754.998531 701.248444 756.245193 C 710.625631 757.491854 727.493131 758.738515 752.498963 756.245193 C 777.485735 753.75187 838.742399 747.50023 853.132188 745.611905 C 867.502918 743.760246 884.389478 747.50023 897.502292 738.755267 C 902.038411 735.711947 908.671055 731.84363 916.047013 727.351983 C 869.351672 691.913801 804.035372 609.982485 759.169726 550.30774 Z M 759.169726 550.30774 " transform="matrix(-0.204952,0,0,0.213069,451.749749,-12.683259)"/>
</g>
</svg>
