<?xml version="1.0" encoding="UTF-8"?>
<svg xmlns="http://www.w3.org/2000/svg" xmlns:xlink="http://www.w3.org/1999/xlink" width="449pt" height="250pt" viewBox="0 0 449 250" version="1.1">
<g id="surface46">
<path style=" stroke:none;fill-rule:nonzero;fill:rgb(97.254902%,97.254902%,97.254902%);fill-opacity:1;" d="M 333.035156 83.792969 C 333.035156 83.792969 329.96875 84.1875 328.238281 84.722656 C 326.507812 85.253906 322.511719 87.648438 320.378906 90.4375 C 318.246094 93.234375 314.25 95.492188 312.253906 96.425781 C 310.257812 97.351562 310.257812 101.078125 310.386719 103.339844 C 310.519531 105.601562 313.316406 111.984375 314.519531 113.578125 C 315.714844 115.171875 320.648438 128.601562 323.308594 132.191406 C 325.972656 135.78125 335.695312 154 338.097656 157.191406 C 340.496094 160.386719 347.417969 159.320312 351.949219 164.371094 C 356.476562 169.421875 362.074219 166.765625 369 167.964844 C 374.488281 168.910156 380.054688 167.300781 380.054688 167.300781 M 442.960938 125.332031 C 445.082031 122.757812 445.246094 119.527344 439.601562 114.820312 C 431.257812 107.105469 414.914062 92.832031 408.167969 87.339844 C 401.417969 81.839844 383.296875 69.253906 376.019531 65.351562 C 368.199219 59.328125 367.136719 57.730469 358.96875 53.03125 C 349.371094 46.207031 332.058594 38.226562 328.328125 37.609375 C 324.597656 36.988281 317.847656 35.566406 310.207031 37.164062 C 302.570312 38.757812 288.542969 38.9375 285.695312 39.023438 C 282.859375 39.109375 267.9375 44.609375 257.902344 45.851562 C 247.863281 47.089844 225.484375 57.375 213.140625 58.082031 C 200.796875 58.792969 182.414062 71.382812 174.867188 73.863281 C 167.316406 76.34375 147.6875 91.058594 143.519531 93.363281 C 139.34375 95.667969 125.132812 101.253906 119.714844 102.144531 C 114.300781 103.027344 108.96875 104.003906 105.242188 104.003906 C 101.511719 104.003906 98.3125 104.710938 91.917969 102.496094 C 85.523438 100.277344 87.121094 100.992188 82.238281 100.015625 C 77.351562 99.039062 77.085938 101.253906 76.554688 103.027344 C 76.019531 104.800781 73.890625 108.875 74.515625 111.449219 C 75.132812 114.023438 75.929688 117.125 76.109375 119.339844 C 76.285156 121.558594 77.261719 122.703125 77 125.632812 C 76.730469 128.558594 75.046875 135.117188 76.378906 137.15625 C 77.707031 139.195312 79.398438 142.300781 80.640625 143.277344 C 81.882812 144.25 86.410156 147.085938 88.097656 147.703125 C 89.789062 148.328125 90.765625 149.214844 91.652344 149.214844 C 92.535156 149.214844 96.359375 148.769531 99.464844 148.949219 C 102.574219 149.125 112.078125 150.542969 116.339844 152.226562 C 120.601562 153.910156 122.824219 154.800781 127 156.128906 C 131.167969 157.457031 131.351562 158.34375 137.476562 160.5625 C 143.605469 162.777344 152.394531 161.359375 157.992188 163.3125 C 163.585938 165.257812 174.507812 167.742188 178.683594 169.605469 C 182.859375 171.464844 194.9375 173.414062 197.511719 174.300781 C 200.085938 175.191406 221.136719 179.617188 223.890625 180.328125 C 226.644531 181.039062 225.484375 180.59375 234.011719 181.039062 C 242.535156 181.480469 244.132812 181.128906 247.15625 181.835938 C 250.171875 182.542969 255.503906 181.921875 258.078125 181.835938 C 260.652344 181.75 283.480469 180.859375 290.140625 179.445312 C 296.800781 178.023438 296.980469 177.582031 304.347656 177.757812 C 311.722656 177.933594 332.945312 178.203125 336.144531 177.757812 C 339.339844 177.3125 356.214844 175.453125 364.292969 173.59375 C 372.375 171.734375 370.246094 171.203125 371.128906 170.84375 C 372.019531 170.488281 376.019531 168.183594 380.8125 167.03125 C 385.609375 165.878906 397.6875 162.867188 408.167969 156.480469 C 418.644531 150.097656 425.660156 146.734375 430.101562 143.984375 C 434.542969 141.234375 448.929688 130.59375 448.128906 128.382812 C 447.332031 126.164062 445.308594 123.664062 444.066406 123.75 M 422.464844 106.21875 C 423.351562 106.839844 423.707031 107.636719 423.707031 107.636719 M 428.414062 110.738281 C 427.796875 111.984375 427.527344 112.601562 427.527344 112.515625 "/>
<path style=" stroke:none;fill-rule:nonzero;fill:rgb(72.941178%,72.156864%,87.058824%);fill-opacity:1;" d="M 385.933594 71.46875 C 393.992188 76.773438 403.636719 83.648438 408.167969 87.339844 C 414.914062 92.832031 431.257812 107.105469 439.601562 114.820312 C 444.542969 118.941406 445.03125 121.929688 443.65625 124.335938 L 444.066406 123.75 C 445.308594 123.664062 447.332031 126.164062 448.132812 128.382812 C 448.929688 130.59375 434.542969 141.234375 430.101562 143.984375 C 425.660156 146.734375 418.644531 150.097656 408.167969 156.484375 C 397.6875 162.867188 385.609375 165.878906 380.8125 167.03125 C 380.542969 167.09375 380.285156 167.164062 380.023438 167.234375 L 380.054688 167.300781 C 380.054688 167.300781 379.5625 167.441406 378.738281 167.613281 C 374.898438 168.828125 371.886719 170.542969 371.128906 170.84375 C 370.246094 171.203125 372.375 171.734375 364.292969 173.59375 C 362.449219 174.019531 360.132812 174.445312 357.640625 174.847656 C 355.179688 171.816406 348.234375 167.441406 352.113281 161.851562 C 355.984375 156.253906 386.242188 120.9375 386.273438 81.371094 C 386.261719 78.0625 386.148438 74.757812 385.933594 71.46875 Z M 422.464844 106.21875 L 423.707031 107.636719 C 423.707031 107.636719 423.351562 106.839844 422.464844 106.21875 Z M 428.414062 110.742188 L 427.527344 112.515625 C 427.527344 112.601562 427.796875 111.984375 428.414062 110.742188 Z M 428.414062 110.742188 "/>
<path style="fill-rule:nonzero;fill:rgb(69.01961%,74.117649%,87.058824%);fill-opacity:1;stroke-width:0.23916;stroke-linecap:butt;stroke-linejoin:miter;stroke:rgb(0%,0%,0%);stroke-opacity:1;stroke-miterlimit:4;" d="M 54.439798 909.476085 C 53.505578 908.94794 51.233553 907.378453 50.49116 905.873739 C 49.698941 905.81644 48.408471 907.410839 47.900255 908.82836 C 47.389547 910.238407 56.564839 917.024569 59.397395 918.778408 C 62.229952 920.532247 66.704245 922.677212 73.385791 926.747913 C 75.311531 927.652236 76.332945 925.16597 77.351868 923.696133 C 78.3683 922.226296 80.408638 917.816786 78.3683 916.573652 C 76.332945 915.328028 72.140163 913.746085 69.99021 913.17808 C 67.837766 912.615058 63.986287 911.257327 60.812428 908.76857 C 57.870256 905.828896 52.994871 900.856364 51.375555 902.151813 C 49.860872 904.129865 50.162314 905.627105 51.196185 906.882695 C 52.185213 908.083476 53.841897 909.060046 55.207105 910.014194 C 55.802515 910.579708 56.183677 910.791464 56.848842 911.371925 C 57.003299 911.538839 60.877201 914.443635 62.852766 916.573652 C 69.71119 923.489359 67.493973 922.565106 73.727093 925.16597 " transform="matrix(-1.567985,0,0,1.567989,523.235785,-1296.64978)"/>
<path style="fill-rule:nonzero;fill:rgb(76.078433%,43.137255%,20.784314%);fill-opacity:1;stroke-width:0.23916;stroke-linecap:butt;stroke-linejoin:miter;stroke:rgb(0%,0%,0%);stroke-opacity:1;stroke-miterlimit:4;" d="M 70.583129 897.351176 C 71.602052 899.638143 73.385791 903.457227 76.445052 904.21955 C 79.501821 904.981872 79.75842 906.252409 84.347312 904.727764 C 88.936203 903.200629 88.679604 903.200629 90.719941 899.894742 C 92.755296 896.586363 92.50368 894.80512 92.249572 892.261555 C 91.992972 889.71799 88.936203 885.903888 86.385158 885.139075 C 83.836604 884.374261 80.012528 884.122645 76.445052 884.884967 C 72.875083 885.647289 72.369359 887.936747 71.602052 889.209775 C 70.839728 890.480312 69.561715 895.061719 70.583129 897.351176 Z M 70.583129 897.351176 " transform="matrix(-1.567985,0,0,1.567989,523.235785,-1296.64978)"/>
<path style="fill-rule:nonzero;fill:rgb(21.960784%,11.764706%,5.882353%);fill-opacity:1;stroke-width:0.23916;stroke-linecap:butt;stroke-linejoin:miter;stroke:rgb(0%,0%,0%);stroke-opacity:1;stroke-miterlimit:4;" d="M 80.523236 888.190855 C 77.720574 888.447453 76.445052 888.190855 75.17202 889.972097 C 73.896498 891.75334 73.161578 898.253009 74.830718 900.49015 C 76.021538 901.252472 77.127655 901.930092 78.739497 901.930092 C 80.35383 901.930092 82.81519 901.760687 83.921307 901.252472 C 85.027424 900.741766 86.557055 900.913662 87.491275 899.638143 C 88.425496 898.367606 88.849009 897.689986 88.764306 895.739338 C 88.679604 893.788691 88.679604 892.433451 87.830086 891.242634 C 86.980568 890.0568 86.385158 888.447453 84.770825 888.02145 C 83.158983 887.597937 83.325897 887.936747 80.523236 888.190855 Z M 80.523236 888.190855 " transform="matrix(-1.567985,0,0,1.567989,523.235785,-1296.64978)"/>
<path style=" stroke:none;fill-rule:nonzero;fill:rgb(100%,100%,100%);fill-opacity:1;" d="M 406.964844 105.070312 C 406.433594 105.734375 405.769531 105.996094 404.035156 105.464844 C 402.300781 104.9375 401.769531 104.003906 398.578125 103.871094 C 395.378906 103.734375 393.914062 103.734375 392.449219 104.003906 C 390.980469 104.265625 390.050781 103.339844 389.78125 104.003906 C 389.515625 104.667969 387.386719 105.199219 390.582031 105.863281 C 393.777344 106.527344 394.3125 108.125 396.710938 108.125 C 399.109375 108.125 399.242188 109.1875 401.636719 108.921875 C 404.035156 108.65625 406.433594 109.984375 406.566406 110.65625 C 406.703125 111.320312 409.410156 110.210938 409.410156 109.144531 C 409.410156 108.082031 407.496094 104.40625 406.964844 105.070312 Z M 406.964844 105.070312 "/>
<path style="fill-rule:nonzero;fill:rgb(14.901961%,32.941177%,81.960785%);fill-opacity:1;stroke-width:0.23916;stroke-linecap:butt;stroke-linejoin:miter;stroke:rgb(0%,0%,0%);stroke-opacity:1;stroke-miterlimit:4;" d="M 125.72207 853.422986 C 125.72207 854.950121 121.813292 858.848926 122.832215 865.126873 C 123.853629 871.399837 125.38326 869.875193 127.762408 873.435188 C 129.17495 875.55524 129.187406 881.920381 130.510262 888.123591 C 131.412096 892.346258 134.057809 897.064683 133.716507 898.093569 C 133.320397 899.274421 131.437009 913.23787 129.879975 916.770461 C 128.078797 920.848635 126.760924 923.882977 121.895503 915.004166 C 117.543281 907.069538 123.519801 895.086631 118.519853 892.645207 C 112.349015 889.633288 107.882195 876.317563 107.882195 876.317563 C 107.882195 876.317563 99.553931 863.769142 104.763144 860.77217 C 110.884157 856.419958 121.925398 851.330337 124.304547 850.934228 C 126.683695 850.540611 125.72207 851.893359 125.72207 853.422986 Z M 194.622703 872.588163 C 196.152334 875.303624 197.343153 880.898969 199.722302 888.360259 C 202.096467 895.824041 196.832446 905.661983 194.707406 913.718681 C 192.584857 921.772889 194.281401 922.368297 194.029784 925.676676 C 193.773185 928.982563 190.28792 931.356723 187.146448 931.780235 C 184.002484 932.206239 176.249699 944.517991 169.035026 941.550913 C 162.542816 938.882786 146.748261 939.704898 141.563959 935.803602 C 138.943159 933.830533 149.261937 916.663337 145.183753 912.973798 C 141.192762 909.361487 145.602283 889.71799 143.051239 885.986099 C 142.373617 884.204856 142.627725 880.898969 139.060248 875.727137 C 135.49028 870.552813 138.208239 861.987899 138.208239 861.987899 C 138.208239 861.987899 141.481748 851.420022 144.461289 851.586935 C 147.682481 851.763814 150.549915 851.811148 151.494101 851.838552 C 153.302752 851.893359 162.819345 855.401037 169.219378 856.190763 C 174.448522 856.835997 184.924248 861.33021 192.876334 863.203629 C 194.665054 863.622159 193.095564 869.875193 194.622703 872.588163 Z M 248.570825 892.094641 C 248.570825 892.941666 249.589748 896.332256 249.079041 898.198201 C 248.570825 900.061655 250.26986 905.661983 250.949973 909.224468 C 251.630086 912.784463 251.630086 916.685759 250.780568 919.06241 C 249.928559 921.434079 248.74023 921.944785 246.022271 922.79181 C 243.301821 923.638834 241.43338 926.693105 238.887317 926.693105 C 236.336273 926.693105 235.997462 925.843589 235.147944 922.11419 C 234.295935 918.382299 235.658651 911.090414 236.336273 908.033651 C 237.016385 904.981872 235.317349 898.198201 235.317349 898.198201 C 235.317349 898.198201 232.950657 880.278648 237.853447 883.641834 C 239.826521 884.997074 241.405976 886.073293 242.1683 886.494314 C 242.948063 886.9253 244.268428 887.530674 245.830444 888.188363 C 249.639573 889.785254 248.570825 891.242634 248.570825 892.094641 Z M 271.849109 899.214631 C 271.849109 901.930092 274.228257 903.624141 274.228257 906.847817 C 274.228257 910.071493 273.206843 911.429224 270.999591 914.819813 C 268.79234 918.210403 269.808771 916.177544 265.902484 917.363378 C 261.993705 918.551704 260.802886 916.346949 261.313593 914.819813 C 261.8243 913.295169 265.222371 912.443162 265.561182 910.410303 C 265.902484 908.374953 263.01512 905.828896 264.034043 902.607712 C 265.050475 899.386527 261.473033 892.792191 263.29414 893.023877 C 264.512364 893.180826 265.630937 893.280476 266.580105 893.280476 C 268.299071 893.280476 269.838667 893.517145 272.095743 893.116053 C 272.965191 892.959105 271.849109 896.504152 271.849109 899.214631 Z M 220.108239 877.759996 C 219.602514 879.625941 219.602514 881.065883 220.703649 884.122645 C 221.809766 887.174425 223.506311 896.416958 223.678207 900.061655 C 223.850104 903.708844 224.784324 911.852736 223.76291 916.516354 C 222.743987 921.179972 221.725064 924.824669 220.618946 927.029424 C 219.515321 929.239162 218.663311 930.086186 216.79487 928.728456 C 214.926429 927.370725 216.540762 921.944785 216.712659 918.805811 C 216.879573 915.666838 214.502916 912.191546 214.248808 907.443226 C 213.992209 901.16777 213.39929 895.739338 213.314587 892.518154 C 214.161614 881.237779 208.723205 871.908052 208.880154 867.510998 C 214.236352 870.034633 219.373319 873.138729 222.175981 874.058 C 220.536735 875.216431 220.364838 875.978753 220.108239 877.759996 Z M 220.108239 877.759996 " transform="matrix(-1.567985,0,0,1.567989,523.235785,-1296.64978)"/>
<path style="fill-rule:nonzero;fill:rgb(90.196079%,92.156863%,99.215686%);fill-opacity:1;stroke-width:0.23916;stroke-linecap:butt;stroke-linejoin:miter;stroke:rgb(0%,0%,0%);stroke-opacity:1;stroke-miterlimit:4;" d="M 173.666268 827.073047 C 172.923874 827.065573 171.735546 827.700842 171.259716 827.925054 C 170.183494 828.433269 168.596565 829.222995 167.465535 829.790999 C 166.332014 830.354022 165.425197 830.692832 163.726162 831.881157 C 162.029617 833.069483 159.306676 835.498451 158.120839 835.89705 C 156.930019 836.293159 157.326128 836.293159 157.042125 835.613048 C 156.760613 834.935428 156.760613 834.47953 157.042125 832.050562 C 157.326128 829.619103 156.249906 831.372942 154.436273 832.391863 C 152.625131 833.408293 152.453234 833.973806 150.756689 835.55824 C 149.055162 837.140183 148.148346 837.364396 146.960017 837.703206 C 145.769197 838.042016 145.31828 837.364396 144.97947 835.782453 C 144.884802 835.346484 145.492668 833.612575 144.867363 833.8617 C 143.21317 834.514407 139.249584 838.697214 138.180835 839.967751 C 136.710995 841.716608 134.727956 842.227314 134.613359 841.945802 C 134.501252 841.6618 134.15995 841.492395 133.933246 841.492395 C 133.706542 841.492395 131.554098 843.303533 130.76437 843.926345 C 129.96966 844.544175 121.925398 851.330337 124.304547 850.934228 C 126.683695 850.540611 130.988583 849.633796 135.861477 850.652717 C 140.73188 851.669147 149.677976 851.781253 151.494101 851.838552 C 153.302752 851.893359 162.819345 855.401037 169.219378 856.190763 C 175.621903 856.98298 189.894302 863.539947 197.766667 863.993355 C 205.639032 864.446762 217.362876 872.476057 222.175981 874.058 C 226.991576 875.639943 239.510131 885.024477 242.1683 886.494314 C 244.021794 887.518217 248.969425 889.553568 252.972872 890.886386 C 254.729206 891.471829 253.102417 889.944694 253.894636 889.548585 C 254.686855 889.154968 257.860714 889.548585 259.390344 889.605884 C 260.919975 889.660691 265.27967 889.037879 266.8666 888.360259 C 268.451038 887.685131 267.770925 883.270638 267.825733 881.972697 C 267.858119 881.30006 268.543214 878.56716 268.169526 875.921454 C 267.815768 873.452626 266.408209 871.068501 266.296102 870.438215 C 266.183996 869.797964 265.010615 867.231978 263.466037 864.84287 C 261.88409 862.393973 259.930946 860.126936 259.614557 859.526545 C 258.991743 858.340711 253.441228 853.308388 252.424796 852.628277 C 251.403381 851.950658 244.776644 847.429041 243.69793 846.920826 C 242.6242 846.412612 240.922673 844.940284 237.243089 844.038452 C 235.69602 843.654799 234.181337 842.882512 232.544583 842.511316 C 230.282524 842.00061 228.000534 841.96075 227.046384 842.057909 C 225.407138 842.227314 225.008537 842.057909 224.044422 841.945802 C 223.082797 841.833696 223.3668 841.6618 222.121173 841.888504 C 220.875546 842.112716 220.364838 842.511316 219.345915 842.907425 C 218.324501 843.303533 217.873584 843.131637 216.79487 843.191427 C 215.72114 843.246234 215.606542 842.451526 215.155625 842.172506 C 214.699725 841.888504 213.792908 842.112716 211.812361 842.172506 C 209.829322 842.227314 210.452136 842.057909 209.94392 841.153585 C 209.433213 840.246771 209.318615 839.457045 209.318615 839.457045 C 209.318615 839.457045 208.471588 839.28764 207.338067 839.344939 C 206.204546 839.399746 205.865736 839.006129 205.185623 838.440615 C 204.508002 837.875102 204.674916 837.817803 203.937505 836.405265 C 203.202584 834.990236 203.713292 835.670347 202.749176 835.55824 C 201.790043 835.443643 201.44625 835.613048 199.293806 835.613048 C 197.143853 835.613048 198.332181 835.219431 197.649578 834.424722 C 196.971956 833.632505 197.086554 833.353485 197.086554 833.353485 C 197.086554 833.353485 196.010332 833.692295 195.163305 833.8617 C 194.311296 834.031105 193.631184 834.53932 192.156361 834.312616 C 190.684029 834.088404 191.309334 833.293695 191.309334 833.293695 L 190.855926 831.881157 C 190.855926 831.881157 189.042292 832.558777 188.080668 832.897587 C 187.119044 833.238888 186.157419 833.408293 185.586922 833.238888 C 185.023899 833.069483 184.852002 832.162668 184.229188 830.187108 C 183.606375 828.206565 182.926262 828.717271 181.964638 828.943975 C 181.000522 829.168187 180.65922 829.3924 179.754895 829.845807 C 178.848078 830.299214 175.676711 831.42775 175.166004 831.372942 C 174.655296 831.315644 173.865569 831.315644 173.977675 829.845807 C 174.029991 829.17317 174.578067 827.55884 174.092273 827.187644 C 173.982658 827.105433 173.838165 827.073047 173.666268 827.073047 Z M 173.666268 827.073047 " transform="matrix(-1.567985,0,0,1.567989,523.235785,-1296.64978)"/>
<path style="fill-rule:nonzero;fill:rgb(69.01961%,74.117649%,87.058824%);fill-opacity:1;stroke-width:0.23916;stroke-linecap:butt;stroke-linejoin:miter;stroke:rgb(0%,0%,0%);stroke-opacity:1;stroke-miterlimit:4;" d="M 196.321739 860.376061 C 196.491144 859.018331 197.766667 857.237088 198.700887 855.879357 C 199.635108 854.526609 202.779071 852.321854 204.816918 850.792227 C 206.854764 849.265092 207.196066 848.674666 209.490511 846.382717 C 211.784957 844.093259 212.098855 845.149548 212.656896 843.754449 C 211.550779 844.262664 209.318615 845.874502 208.130286 846.636824 C 206.939467 847.401637 206.177143 847.907361 204.647512 849.098178 C 203.117882 850.284012 201.503549 850.964123 200.228026 852.321854 C 198.954995 853.674602 198.020775 853.931201 197.255959 854.439415 C 196.491144 854.950121 193.519077 857.578389 192.243555 858.594818 C 190.968032 859.613739 190.459816 859.698442 189.782195 858.848926 C 189.099591 858.001901 190.372623 857.070174 191.309334 855.712444 C 192.243555 854.354713 193.519077 853.25109 195.130919 851.554549 C 196.747743 849.8605 196.660549 850.112116 198.700887 848.16396 C 200.738734 846.213312 200.908139 846.721526 203.626098 844.177961 C 204.408352 843.291077 206.015211 842.12019 205.890648 841.778889 C 204.772075 842.312016 203.541395 843.246234 201.080035 844.688667 C 198.616184 846.131101 197.255959 847.145039 196.321739 847.571042 C 195.387518 847.994555 189.782195 851.641743 186.63574 855.032333 C 183.494268 858.425414 183.237669 855.627741 184.089678 853.674602 C 184.936705 851.726445 185.786223 851.811148 186.89234 850.19931 C 187.995965 848.587472 191.81755 845.45099 195.46973 842.396719 C 199.126892 839.344939 199.126892 839.260236 197.255959 840.191963 C 195.387518 841.126182 194.622703 841.549694 193.095564 842.568615 C 191.563442 843.585044 189.610299 844.601474 187.654664 846.467419 C 185.70152 848.335856 189.782195 844.688667 181.369228 851.641743 C 172.958752 858.594818 179.413593 852.149958 179.670192 850.707525 C 179.9243 849.265092 180.689115 847.907361 181.964638 846.213312 C 183.237669 844.516771 185.529623 843.415639 190.88333 839.08834 C 196.237036 834.763532 192.838965 836.716671 191.309334 837.307097 C 189.782195 837.902506 189.099591 838.836724 187.315853 839.853153 C 185.529623 840.869583 183.661182 842.568615 182.134043 843.669747 C 180.604413 844.77337 180.009003 846.043907 174.996598 849.349794 C 169.984194 852.658172 170.153599 851.046334 170.836203 849.436988 C 171.513824 847.82515 172.619941 847.145039 174.573085 844.688667 C 176.52872 842.227314 178.651269 840.954285 182.388151 838.071911 C 186.125033 835.189536 185.70152 834.00121 182.898858 836.544775 C 180.093705 839.08834 180.858521 837.817803 179.074782 839.08834 C 177.291044 840.363859 177.206341 840.787372 168.880568 846.298014 C 160.552303 851.811148 163.865672 847.571042 164.209465 845.279093 C 164.391327 844.043434 166.351944 841.903451 168.880568 839.835715 C 170.853642 838.223877 173.217842 835.966805 175.3379 834.721181 C 175.524744 834.609075 176.66823 834.053526 176.852583 833.948894 C 177.993578 833.054535 178.960184 832.583689 179.351311 831.420276 C 176.889952 833.114325 175.507305 833.6624 173.892972 834.850726 C 172.276148 836.03656 170.749009 836.883585 169.901982 837.140183 C 169.049973 837.394291 167.946347 838.582617 160.385389 844.77337 C 152.824431 850.964123 157.238934 844.855581 157.582727 842.820231 C 157.921538 840.787372 163.698758 836.121263 167.605045 832.135265 C 171.513824 828.149266 167.179041 831.372942 165.397794 832.645971 C 163.614055 833.916508 162.931451 834.088404 160.808902 835.867155 C 158.683862 837.648398 154.94698 840.702669 153.673949 841.549694 C 152.395935 842.396719 149.511062 845.196882 147.642621 847.740447 C 145.769197 850.284012 145.006874 849.098178 144.922171 849.098178 C 144.834977 849.098178 145.006874 847.316935 145.263473 846.382717 C 145.517581 845.45099 148.320242 841.210884 149.677976 839.853153 C 151.038201 838.497914 153.586755 834.424722 153.163242 835.020131 C 152.739728 835.613048 151.122904 836.968287 150.021769 838.159104 C 148.915652 839.344939 142.799622 844.855581 141.778207 845.874502 C 140.759284 846.893423 139.73787 848.841579 138.464839 849.436988 C 137.191807 850.029905 137.358721 848.926282 137.107105 848.335856 C 136.850505 847.740447 139.14246 842.312016 139.909766 840.954285 C 140.674582 839.599046 142.799622 836.460073 142.032315 837.224886 C 141.2675 837.987208 140.505176 839.08834 139.73787 839.768451 C 138.975546 840.446071 138.718947 840.363859 136.935208 843.669747 C 135.15147 846.978125 133.283029 849.010984 132.348808 849.098178 C 131.414588 849.18288 130.734475 848.759368 130.819178 848.418067 C 130.90388 848.079257 131.49929 846.554613 131.922804 845.702606 C 132.348808 844.855581 134.132547 842.312016 133.96065 841.973206 C 133.793736 841.634396 131.414588 844.688667 130.223768 846.467419 C 129.035439 848.248662 121.925398 851.330337 124.304547 850.934228 C 126.683695 850.540611 130.988583 849.633796 135.861477 850.652717 C 140.73188 851.669147 149.677976 851.781253 151.494101 851.838552 C 153.302752 851.893359 162.819345 855.401037 169.219378 856.190763 C 175.621903 856.98298 189.894302 863.539947 197.766667 863.993355 C 198.165267 864.018267 196.152334 861.731301 196.321739 860.376061 Z M 196.321739 860.376061 " transform="matrix(-1.567985,0,0,1.567989,523.235785,-1296.64978)"/>
<path style="fill-rule:nonzero;fill:rgb(14.901961%,32.941177%,81.960785%);fill-opacity:1;stroke-width:0.23916;stroke-linecap:butt;stroke-linejoin:miter;stroke:rgb(0%,0%,0%);stroke-opacity:1;stroke-miterlimit:4;" d="M 84.60142 916.573652 C 83.467899 915.215922 79.389715 910.238407 79.277608 909.448681 C 79.16301 908.656464 78.8242 907.866738 79.731017 907.75214 C 80.635342 907.640034 83.355792 907.410839 85.054828 906.962414 C 86.756355 906.509007 88.001982 906.170197 89.018414 905.604684 C 90.037337 905.03917 91.282965 903.457227 91.738864 903.908143 C 92.192273 904.359059 90.719941 906.284795 90.832048 906.847817 C 90.944154 907.410839 91.170858 908.76857 92.531083 911.145221 C 93.888817 913.519381 95.022338 915.328028 95.134445 917.704679 C 95.251534 920.076348 95.475747 921.434079 94.571421 922.338402 C 93.662113 923.242726 93.09909 924.824669 91.397563 923.584027 C 89.698527 922.338402 85.734941 917.928892 84.60142 916.573652 Z M 84.60142 916.573652 " transform="matrix(-1.567985,0,0,1.567989,523.235785,-1296.64978)"/>
<path style="fill-rule:nonzero;fill:rgb(90.196079%,92.156863%,99.215686%);fill-opacity:1;stroke-width:0.23916;stroke-linecap:round;stroke-linejoin:round;stroke:rgb(0%,0%,0%);stroke-opacity:1;stroke-miterlimit:4;" d="M 141.633715 940.265429 C 141.377115 940.265429 140.77174 940.290341 139.598359 940.317745 C 137.854481 940.357605 134.89487 940.40743 131.763363 940.439816 C 134.89487 944.615149 132.687619 941.732774 134.331847 948.34704 C 134.331847 948.34704 136.539099 956.035034 136.992507 958.070384 C 137.445915 960.105735 140.958585 968.077731 141.638697 969.09416 C 142.316318 970.113081 144.695467 972.487241 145.375579 973.787673 C 146.055692 975.085614 147.131914 976.727347 148.265435 978.478695 C 149.393973 980.235025 149.393973 981.02226 151.262414 982.945504 C 153.135838 984.868748 154.040163 986.226479 154.55087 986.226479 C 155.059086 986.226479 154.775083 986.620096 155.6819 985.095452 C 156.591208 983.565825 157.722238 980.910154 158.516948 980.459237 C 159.309167 980.00583 160.440197 977.235561 160.440197 977.235561 L 161.177608 975.085614 C 161.177608 975.085614 162.084425 974.183782 162.535342 972.091133 C 162.98875 969.998484 163.158156 967.908326 163.838268 966.72 C 164.515889 965.531674 165.255792 962.253191 165.255792 962.253191 C 165.255792 962.253191 165.935905 958.748004 165.3106 957.335466 C 164.687786 955.922928 162.819345 953.038062 162.764537 953.038062 C 162.707239 953.038062 160.838797 950.890605 157.383427 949.136766 C 153.928057 947.382927 151.15529 944.727256 149.792574 944.500552 C 148.432349 944.276339 145.769197 943.030715 145.769197 942.973416 C 145.769197 942.918609 144.072653 942.238498 142.316318 942.126392 C 141.521608 942.126392 140.559984 941.16477 140.559984 941.16477 C 140.044294 940.429851 142.403512 940.257955 141.633715 940.265429 Z M 141.633715 940.265429 " transform="matrix(-1.567985,0,0,1.567989,523.235785,-1296.64978)"/>
<path style="fill-rule:nonzero;fill:rgb(90.196079%,92.156863%,99.215686%);fill-opacity:1;stroke-width:0.23916;stroke-linecap:round;stroke-linejoin:round;stroke:rgb(0%,0%,0%);stroke-opacity:1;stroke-miterlimit:4;" d="M 246.022271 929.351268 C 242.113492 930.763806 236.508169 929.856991 232.938201 931.102616 C 229.370724 932.345749 222.405176 933.930183 219.742025 935.118509 C 217.078873 936.304343 209.375914 937.547476 207.734177 938.11299 C 206.09244 938.680995 192.667068 941.50358 190.910734 941.956987 C 189.154399 942.410394 189.495701 943.257419 189.495701 943.257419 C 189.495701 943.257419 191.762743 946.535902 195.387518 948.573744 C 199.012294 950.606603 207.62207 955.810822 212.265769 956.82476 C 216.911959 957.843681 227.898393 959.540221 230.728458 961.575571 C 233.561015 963.610922 235.147944 963.723028 238.204714 964.515245 C 241.263975 965.307462 243.757721 965.648763 245.798058 964.629842 C 247.833413 963.610922 253.159716 961.23427 255.082965 959.201411 C 257.011196 957.166061 257.688817 957.731574 259.502451 953.77298 C 261.313593 949.816877 262.671327 949.136766 262.220409 944.839362 C 261.769492 940.544449 261.654895 937.263474 261.198995 935.796128 C 260.748078 934.3238 257.800924 930.59191 256.896598 930.367697 C 255.989781 930.140994 248.456227 930.2531 248.456227 930.2531 C 246.475679 930.59191 246.645085 930.028887 246.022271 929.351268 Z M 246.022271 929.351268 " transform="matrix(-1.567985,0,0,1.567989,523.235785,-1296.64978)"/>
<path style="fill-rule:nonzero;fill:rgb(100%,100%,100%);fill-opacity:1;stroke-width:0.23916;stroke-linecap:round;stroke-linejoin:round;stroke:rgb(0%,0%,0%);stroke-opacity:1;stroke-miterlimit:4;" d="M 175.208355 873.08143 C 174.361328 873.086413 173.49188 873.166133 172.619941 873.350485 C 168.623969 874.200001 156.561313 878.778916 153.586755 880.898969 C 150.614688 883.019022 147.555427 887.174425 146.279905 889.294478 C 145.006874 891.414531 141.015883 895.908743 139.229654 897.944094 C 137.445915 899.979444 133.367731 904.89966 132.176912 906.424305 C 130.988583 907.95144 131.075777 910.156195 131.075777 911.172625 C 131.075777 912.191546 130.988583 913.123273 132.009997 915.923437 C 133.026429 918.721109 133.793736 921.434079 135.066767 921.605975 C 136.339798 921.772889 138.636735 921.942294 142.032315 921.605975 C 145.430387 921.267165 153.758651 920.415158 155.709304 920.163542 C 157.664939 919.909435 159.961876 920.415158 161.743123 919.229324 C 163.526861 918.043489 167.605045 915.923437 170.068896 913.462083 C 172.532747 911.00322 177.801751 906.424305 179.074782 904.047653 C 180.347813 901.675984 184.089678 894.80512 184.595403 892.346258 C 185.10611 889.889886 186.04033 884.037943 186.04033 883.188427 C 186.04033 882.341402 184.767299 875.55524 182.64475 874.708216 C 180.983083 874.045544 178.235229 873.073957 175.208355 873.08143 Z M 175.208355 873.08143 " transform="matrix(-1.567985,0,0,1.567989,523.235785,-1296.64978)"/>
<path style="fill-rule:nonzero;fill:rgb(90.196079%,92.156863%,99.215686%);fill-opacity:1;stroke-width:0.23916;stroke-linecap:round;stroke-linejoin:round;stroke:rgb(0%,0%,0%);stroke-opacity:1;stroke-miterlimit:4;" d="M 332.523619 872.737638 C 331.885857 872.732656 330.690055 872.944412 328.203783 873.549785 C 323.789279 874.623513 316.42513 877.391291 312.404245 879.033024 C 308.380869 880.674757 305.209501 881.461991 301.303214 883.103724 C 298.017249 884.177453 294.165769 885.871502 290.655591 886.950213 C 288.104546 888.302961 278.137036 891.359723 281.251105 890.736911 C 284.367664 890.114099 284.53707 891.526637 284.87588 892.657664 C 285.217182 893.788691 286.574916 896.387063 286.176315 898.028796 C 285.782697 899.670529 285.274481 901.648581 285.159883 903.061119 C 285.047777 904.476148 284.424963 905.206084 284.591877 907.074521 C 284.763774 908.940466 285.837505 913.123273 284.987987 914.423705 C 284.14096 915.724137 283.062247 917.704679 282.270028 918.327492 C 281.477809 918.945321 278.590444 920.756459 277.514222 921.150077 C 276.435509 921.548676 275.812695 922.11419 275.247181 922.11419 C 274.684157 922.11419 281.816619 923.526728 283.179336 924.14954 C 284.53707 924.769861 294.053663 928.783263 296.711831 929.518181 C 299.374983 930.2531 311.609535 934.719909 312.912461 934.834506 C 314.212896 934.946613 325.373717 938.225096 326.335342 938.170289 C 327.299457 938.11299 330.528123 938.11299 330.528123 938.11299 L 330.416017 927.425532 C 330.416017 927.425532 328.826596 919.117218 327.922271 917.420677 C 327.015454 915.724137 325.089714 910.014194 324.409602 909.448681 C 323.729489 908.885659 322.939761 906.962414 322.939761 906.962414 C 322.939761 906.962414 323.445486 905.774089 324.12809 904.757659 C 325.485824 903.001329 326.220744 899.725337 326.958155 897.8569 C 328.71449 894.580908 330.24412 889.71799 330.64023 887.909343 C 330.64023 887.909343 333.191275 878.522318 333.191275 878.46751 C 333.191275 878.410212 333.754298 873.435188 333.358189 873.04157 C 333.186292 872.867183 333.021869 872.737638 332.523619 872.737638 Z M 332.523619 872.737638 " transform="matrix(-1.567985,0,0,1.567989,523.235785,-1296.64978)"/>
<path style="fill:none;stroke-width:0.23916;stroke-linecap:butt;stroke-linejoin:miter;stroke:rgb(0%,0%,0%);stroke-opacity:1;stroke-miterlimit:4;" d="M 121.302585 880.390754 C 121.302585 880.390754 123.25822 880.642371 124.361845 880.983672 C 125.465471 881.322482 128.014025 882.847126 129.37425 884.628369 C 130.734475 886.409612 133.283029 887.852045 134.55606 888.447453 C 135.829091 889.037879 135.829091 891.414531 135.74688 892.856964 C 135.662177 894.299397 133.878439 898.367606 133.111132 899.386527 C 132.348808 900.402956 129.202353 908.96787 127.505809 911.257327 C 125.806773 913.546785 119.60604 925.16597 118.073918 927.20132 C 116.544288 929.239162 112.129785 928.559051 109.239929 931.780235 C 106.352565 935.00142 102.782597 933.307371 98.365602 934.072184 C 94.865389 934.675066 91.315351 933.648672 91.315351 933.648672 M 51.196185 906.882695 C 49.843433 905.240962 49.738801 903.180699 53.338664 900.178744 C 58.659984 895.258527 69.083394 886.155504 73.385791 882.652808 C 77.690679 879.14513 89.24761 871.118326 93.888817 868.629569 C 98.876309 864.785572 99.553931 863.769142 104.763144 860.77217 C 110.884157 856.419958 121.925398 851.330337 124.304547 850.934228 C 126.683695 850.540611 130.988583 849.633796 135.861477 850.652717 C 140.73188 851.669147 149.677976 851.781253 151.494101 851.838552 C 153.302752 851.893359 162.819345 855.401037 169.219378 856.190763 C 175.621903 856.98298 189.894302 863.539947 197.766667 863.993355 C 205.639032 864.446762 217.362876 872.476057 222.175981 874.058 C 226.991576 875.639943 239.510131 885.024477 242.1683 886.494314 C 244.831451 887.964151 253.894636 891.526637 257.350006 892.094641 C 260.802886 892.657664 264.203448 893.280476 266.580105 893.280476 C 268.959254 893.280476 270.999591 893.731392 275.077775 892.318854 C 279.155959 890.903825 278.137036 891.359723 281.251105 890.736911 C 284.367664 890.114099 284.53707 891.526637 284.87588 892.657664 C 285.217182 893.788691 286.574916 896.387063 286.176315 898.028796 C 285.782697 899.670529 285.274481 901.648581 285.159883 903.061119 C 285.047777 904.476148 284.424963 905.206084 284.591877 907.074521 C 284.763774 908.940466 285.837505 913.123273 284.987987 914.423705 C 284.14096 915.724137 283.062247 917.704679 282.270028 918.327492 C 281.477809 918.945321 278.590444 920.756459 277.514222 921.150077 C 276.435509 921.548676 275.812695 922.11419 275.247181 922.11419 C 274.684157 922.11419 272.245219 921.830187 270.264671 921.944785 C 268.281632 922.056891 262.220409 922.961214 259.502451 924.034943 C 256.784492 925.108671 255.366968 925.676676 252.703816 926.5237 C 250.045648 927.370725 249.928559 927.936238 246.022271 929.351268 C 242.113492 930.763806 236.508169 929.856991 232.938201 931.102616 C 229.370724 932.345749 222.405176 933.930183 219.742025 935.118509 C 217.078873 936.304343 209.375914 937.547476 207.734177 938.11299 C 206.09244 938.680995 192.667068 941.50358 190.910734 941.956987 C 189.154399 942.410394 189.894302 942.126392 184.455892 942.410394 C 179.019975 942.691905 178.001051 942.467693 176.07282 942.918609 C 174.149572 943.369525 170.749009 942.973416 169.107272 942.918609 C 167.465535 942.86131 152.906642 942.295797 148.659053 941.391473 C 144.411464 940.48715 144.296866 940.205639 139.598359 940.317745 C 134.89487 940.429851 121.359883 940.601747 119.319546 940.317745 C 117.281699 940.033743 106.519479 938.847908 101.367564 937.662074 C 96.213158 936.476239 97.570892 936.134938 97.007868 935.908235 C 96.439862 935.681531 93.888817 934.211694 90.832048 933.476776 C 87.772787 932.741857 80.069827 930.821105 73.385791 926.747913 C 66.704245 922.677212 62.229952 920.532247 59.397395 918.778408 C 56.564839 917.024569 47.389547 910.238407 47.900255 908.82836 C 48.408471 907.410839 49.698941 905.81644 50.49116 905.873739 M 64.267798 894.693014 C 63.702284 895.089123 63.475579 895.597337 63.475579 895.597337 M 60.473617 897.575389 C 60.867236 898.367606 61.039132 898.763715 61.039132 898.708907 " transform="matrix(-1.567985,0,0,1.567989,523.235785,-1296.64978)"/>
<path style="fill-rule:nonzero;fill:rgb(30.980393%,45.09804%,87.058824%);fill-opacity:1;stroke-width:0.23916;stroke-linecap:round;stroke-linejoin:round;stroke:rgb(0%,0%,0%);stroke-opacity:1;stroke-miterlimit:4;" d="M 175.208355 873.08143 C 174.361328 873.086413 173.49188 873.166133 172.619941 873.350485 C 168.623969 874.200001 156.561313 878.778916 153.586755 880.898969 C 150.614688 883.019022 147.555427 887.174425 146.279905 889.294478 C 145.791619 890.106625 144.897258 891.275021 143.885809 892.513171 C 143.743807 899.807548 142.356178 910.412794 145.183753 912.973798 C 146.710892 914.356441 146.217623 917.632433 145.141401 921.292078 C 149.032741 920.895969 154.219534 920.357859 155.709304 920.163542 C 157.664939 919.909435 159.961876 920.415158 161.743123 919.229324 C 163.526861 918.043489 167.605045 915.923437 170.068896 913.462083 C 172.532747 911.00322 177.801751 906.424305 179.074782 904.047653 C 180.347813 901.675984 184.089678 894.80512 184.595403 892.346258 C 185.10611 889.889886 186.04033 884.037943 186.04033 883.188427 C 186.04033 882.341402 184.767299 875.55524 182.64475 874.708216 C 180.983083 874.045544 178.235229 873.073957 175.208355 873.08143 Z M 132.276562 906.299742 C 132.249158 906.337111 132.201824 906.389427 132.176912 906.424305 C 130.988583 907.95144 131.075777 910.156195 131.075777 911.172625 C 131.075777 911.563751 131.063321 911.942421 131.103181 912.415758 C 131.514238 910.537357 131.912839 908.379935 132.276562 906.299742 Z M 132.276562 906.299742 " transform="matrix(-1.567985,0,0,1.567989,523.235785,-1296.64978)"/>
</g>
</svg>
