<?xml version="1.0" encoding="UTF-8"?>
<!-- Created by grConvert v0.1-0 -->
<svg xmlns="http://www.w3.org/2000/svg" xmlns:xlink="http://www.w3.org/1999/xlink" width="359pt" height="200pt" viewBox="0 0 359 200" version="1.1">
<g id="surface73">
<path style=" stroke:none;fill-rule:nonzero;fill:rgb(97.647059%,97.647059%,97.647059%);fill-opacity:1;" d="M 92.253906 67.035156 C 92.253906 67.035156 94.707031 67.351562 96.089844 67.777344 C 97.476562 68.203125 100.671875 70.117188 102.378906 72.351562 C 104.085938 74.585938 107.28125 76.394531 108.878906 77.140625 C 110.476562 77.882812 110.476562 80.863281 110.371094 82.671875 C 110.265625 84.480469 108.027344 89.585938 107.066406 90.863281 C 106.109375 92.136719 102.164062 102.882812 100.035156 105.753906 C 97.902344 108.625 90.125 123.199219 88.203125 125.753906 C 86.285156 128.308594 80.746094 127.457031 77.121094 131.496094 C 73.5 135.539062 69.023438 133.414062 63.480469 134.371094 C 59.089844 135.128906 54.636719 133.839844 54.636719 133.839844 M 4.3125 100.265625 C 2.617188 98.207031 2.484375 95.621094 7 91.855469 C 13.675781 85.683594 26.75 74.265625 32.148438 69.871094 C 37.546875 65.472656 52.042969 55.402344 57.867188 52.28125 C 64.121094 47.460938 64.972656 46.183594 71.507812 42.425781 C 79.183594 36.964844 93.035156 30.582031 96.019531 30.085938 C 99.003906 29.589844 104.402344 28.453125 110.515625 29.730469 C 116.625 31.007812 127.847656 31.148438 130.125 31.21875 C 132.394531 31.289062 144.332031 35.6875 152.359375 36.679688 C 160.390625 37.671875 178.292969 45.898438 188.167969 46.464844 C 198.042969 47.035156 212.75 57.105469 218.789062 59.089844 C 224.828125 61.074219 240.53125 72.847656 243.867188 74.691406 C 247.207031 76.535156 258.574219 81.003906 262.910156 81.714844 C 267.242188 82.421875 271.507812 83.203125 274.488281 83.203125 C 277.472656 83.203125 280.03125 83.769531 285.148438 81.996094 C 290.261719 80.222656 288.984375 80.792969 292.890625 80.011719 C 296.800781 79.230469 297.011719 81.003906 297.4375 82.421875 C 297.867188 83.839844 299.570312 87.101562 299.070312 89.160156 C 298.574219 91.21875 297.9375 93.699219 297.792969 95.472656 C 297.652344 97.246094 296.871094 98.164062 297.082031 100.507812 C 297.296875 102.847656 298.644531 108.09375 297.578125 109.726562 C 296.515625 111.355469 295.164062 113.839844 294.167969 114.621094 C 293.175781 115.398438 289.554688 117.667969 288.203125 118.164062 C 286.851562 118.664062 286.070312 119.371094 285.359375 119.371094 C 284.652344 119.371094 281.59375 119.015625 279.109375 119.160156 C 276.621094 119.300781 269.019531 120.433594 265.609375 121.78125 C 262.199219 123.128906 260.421875 123.839844 257.082031 124.902344 C 253.746094 125.964844 253.601562 126.675781 248.699219 128.449219 C 243.796875 130.222656 236.765625 129.085938 232.289062 130.648438 C 227.8125 132.207031 219.074219 134.195312 215.734375 135.683594 C 212.394531 137.171875 202.730469 138.730469 200.671875 139.441406 C 198.613281 140.152344 181.773438 143.695312 179.570312 144.261719 C 177.367188 144.832031 178.292969 144.476562 171.472656 144.832031 C 164.652344 145.183594 163.375 144.902344 160.957031 145.46875 C 158.542969 146.035156 154.277344 145.539062 152.21875 145.46875 C 150.160156 145.398438 131.898438 144.6875 126.570312 143.554688 C 121.242188 142.417969 121.097656 142.066406 115.203125 142.207031 C 109.304688 142.347656 92.324219 142.5625 89.765625 142.207031 C 87.210938 141.851562 73.710938 140.363281 67.246094 138.875 C 60.78125 137.386719 62.484375 136.960938 61.777344 136.675781 C 61.066406 136.390625 57.867188 134.546875 54.03125 133.625 C 50.195312 132.703125 40.53125 130.292969 32.148438 125.183594 C 23.765625 120.078125 18.152344 117.386719 14.601562 115.1875 C 11.046875 112.988281 -0.460938 104.476562 0.179688 102.707031 C 0.816406 100.929688 2.433594 98.929688 3.429688 99 M 20.710938 84.976562 C 20 85.472656 19.714844 86.109375 19.714844 86.109375 M 15.949219 88.589844 C 16.445312 89.585938 16.660156 90.082031 16.660156 90.011719 "/>
<path style=" stroke:none;fill-rule:nonzero;fill:rgb(73.333333%,72.156863%,87.843137%);fill-opacity:1;" d="M 49.933594 57.175781 C 43.488281 61.417969 35.773438 66.917969 32.148438 69.871094 C 26.75 74.265625 13.675781 85.683594 7 91.855469 C 3.046875 95.152344 2.65625 97.542969 3.757812 99.46875 L 3.429688 99 C 2.433594 98.929688 0.816406 100.929688 0.175781 102.707031 C -0.460938 104.476562 11.046875 112.988281 14.601562 115.1875 C 18.152344 117.386719 23.765625 120.078125 32.148438 125.1875 C 40.53125 130.292969 50.195312 132.703125 54.03125 133.625 C 54.246094 133.675781 54.453125 133.730469 54.664062 133.789062 L 54.636719 133.839844 C 54.636719 133.839844 55.03125 133.953125 55.691406 134.089844 C 58.761719 135.0625 61.171875 136.433594 61.777344 136.675781 C 62.484375 136.960938 60.78125 137.386719 67.246094 138.875 C 68.722656 139.214844 70.574219 139.554688 72.570312 139.878906 C 74.539062 137.453125 80.09375 133.953125 76.992188 129.480469 C 73.894531 125.003906 49.6875 96.75 49.664062 65.097656 C 49.671875 62.449219 49.761719 59.804688 49.933594 57.175781 Z M 20.710938 84.976562 L 19.714844 86.109375 C 19.714844 86.109375 20 85.472656 20.710938 84.976562 Z M 15.949219 88.59375 L 16.660156 90.011719 C 16.660156 90.082031 16.445312 89.585938 15.949219 88.59375 Z M 15.949219 88.59375 "/>
<path style="fill-rule:nonzero;fill:rgb(69.411765%,74.509804%,87.45098%);fill-opacity:1;stroke-width:0.23916;stroke-linecap:butt;stroke-linejoin:miter;stroke:rgb(0%,0%,0%);stroke-opacity:1;stroke-miterlimit:4;" d="M 54.440865 909.476468 C 53.506645 908.947078 51.233375 907.377591 50.492227 905.8735 C 49.69814 905.817447 48.408916 907.411846 47.901323 908.828743 C 47.390616 910.239413 56.564659 917.02495 59.39846 918.778166 C 62.229147 920.531381 66.704062 922.676969 73.38685 926.747046 C 75.311344 927.653237 76.332758 925.165103 77.351058 923.695267 C 78.369358 922.22543 80.409072 917.815921 78.369358 916.573411 C 76.332758 915.327787 72.141223 913.745844 69.989403 913.179085 C 67.837582 912.61544 63.985481 911.25771 60.812246 908.769576 C 57.869453 905.829903 52.995938 900.856749 51.376622 902.152198 C 49.860072 904.129626 50.162136 905.627489 51.196007 906.882456 C 52.18628 908.084483 53.842964 909.059184 55.206925 910.0152 C 55.801712 910.578845 56.184742 910.790601 56.848039 911.37293 C 57.003742 911.537976 60.877642 914.443394 62.851961 916.573411 C 69.712251 923.489739 67.495035 922.564863 73.726284 925.165103 " transform="matrix(1.254388,0,0,1.254391,-59.907178,-1037.319837)"/>
<path style="fill-rule:nonzero;fill:rgb(76.470588%,43.137255%,21.176471%);fill-opacity:1;stroke-width:0.23916;stroke-linecap:butt;stroke-linejoin:miter;stroke:rgb(0%,0%,0%);stroke-opacity:1;stroke-miterlimit:4;" d="M 70.58419 897.350317 C 71.60249 899.639152 73.38685 903.456989 76.444864 904.219934 C 79.502879 904.982879 79.758232 906.253415 84.348367 904.727526 C 88.935388 903.201637 88.680035 903.201637 90.719749 899.894505 C 92.756349 896.587373 92.50411 894.80613 92.248756 892.261943 C 91.993403 889.717756 88.935388 885.903032 86.384967 885.140087 C 83.83766 884.374029 80.013586 884.12179 76.444864 884.884735 C 72.876143 885.647679 72.36855 887.936513 71.60249 889.210164 C 70.839543 890.480701 69.562776 895.061483 70.58419 897.350317 Z M 70.58419 897.350317 " transform="matrix(1.254388,0,0,1.254391,-59.907178,-1037.319837)"/>
<path style="fill-rule:nonzero;fill:rgb(22.745098%,12.941176%,6.27451%);fill-opacity:1;stroke-width:0.23916;stroke-linecap:butt;stroke-linejoin:miter;stroke:rgb(0%,0%,0%);stroke-opacity:1;stroke-miterlimit:4;" d="M 80.524293 888.191866 C 77.721632 888.447219 76.444864 888.191866 75.171211 889.973109 C 73.897557 891.754351 73.162637 898.253395 74.831778 900.48929 C 76.021351 901.252235 77.126845 901.9311 78.739932 901.9311 C 80.353019 901.9311 82.816246 901.759827 83.92174 901.252235 C 85.027234 900.741529 86.556241 900.912802 87.490461 899.639152 C 88.424681 898.368615 88.848195 897.68975 88.764115 895.740348 C 88.680035 893.787833 88.680035 892.433216 87.829895 891.243645 C 86.979754 890.057188 86.384967 888.447219 84.77188 888.020593 C 83.158794 887.597081 83.326953 887.936513 80.524293 888.191866 Z M 80.524293 888.191866 " transform="matrix(1.254388,0,0,1.254391,-59.907178,-1037.319837)"/>
<path style=" stroke:none;fill-rule:nonzero;fill:rgb(100%,100%,100%);fill-opacity:1;" d="M 33.109375 84.054688 C 33.535156 84.585938 34.066406 84.796875 35.453125 84.371094 C 36.839844 83.949219 37.265625 83.203125 39.820312 83.097656 C 42.378906 82.988281 43.550781 82.988281 44.722656 83.203125 C 45.898438 83.414062 46.640625 82.671875 46.855469 83.203125 C 47.070312 83.734375 48.773438 84.160156 46.214844 84.691406 C 43.660156 85.222656 43.230469 86.5 41.3125 86.5 C 39.394531 86.5 39.289062 87.351562 37.371094 87.136719 C 35.453125 86.925781 33.535156 87.988281 33.429688 88.523438 C 33.320312 89.054688 31.152344 88.167969 31.152344 87.316406 C 31.152344 86.464844 32.683594 83.523438 33.109375 84.054688 Z M 33.109375 84.054688 "/>
<path style="fill-rule:nonzero;fill:rgb(15.686275%,33.333333%,82.745098%);fill-opacity:1;stroke-width:0.23916;stroke-linecap:butt;stroke-linejoin:miter;stroke:rgb(0%,0%,0%);stroke-opacity:1;stroke-miterlimit:4;" d="M 125.721866 853.423384 C 125.721866 854.949274 121.813711 858.848077 122.832011 865.126023 C 123.853425 871.400854 125.382432 869.874964 127.76158 873.434335 C 129.175366 875.55501 129.187823 881.920149 130.511301 888.123357 C 131.411267 892.346023 134.058224 897.063824 133.715677 898.094578 C 133.32019 899.274807 131.436179 913.238252 129.879146 916.769597 C 128.079215 920.849016 126.761964 923.88211 121.894677 915.003925 C 117.544325 907.069299 123.52022 895.086396 118.519028 892.644972 C 112.350061 889.633676 107.881374 876.317955 107.881374 876.317955 C 107.881374 876.317955 99.554358 863.768292 104.764193 860.772567 C 110.883335 856.41911 121.925818 851.330736 124.304965 850.93525 C 126.684113 850.539765 125.721866 851.894381 125.721866 853.423384 Z M 194.623719 872.587311 C 196.152726 875.302771 197.3423 880.898737 199.721447 888.360026 C 202.097481 895.824428 196.831593 905.661744 194.707799 913.717818 C 192.584005 921.773891 194.281172 922.368677 194.028932 925.675809 C 193.773579 928.982941 190.288938 931.355855 187.146844 931.779367 C 184.001636 932.205993 176.250722 944.518987 169.035428 941.551288 C 162.542598 938.882538 146.748048 939.70465 141.563126 935.802733 C 138.944196 933.831532 149.261101 916.663719 145.184786 912.973557 C 141.192552 909.361248 145.602071 889.717756 143.05165 885.987112 C 142.372784 884.205869 142.628137 880.898737 139.059416 875.726284 C 135.490695 870.55383 138.209276 861.98705 138.209276 861.98705 C 138.209276 861.98705 141.48216 851.421044 144.462323 851.586089 C 147.682268 851.76359 150.550324 851.810301 151.493887 851.838328 C 153.30316 851.894381 162.81975 855.400813 169.219158 856.191784 C 174.447677 856.836394 184.9234 861.329983 192.876727 863.204648 C 194.664202 863.621932 193.094712 869.874964 194.623719 872.587311 Z M 248.571822 892.093784 C 248.571822 892.940808 249.590122 896.33202 249.079414 898.197342 C 248.571822 900.062664 250.268988 905.661744 250.950969 909.224229 C 251.629836 912.7836 251.629836 916.685517 250.779695 919.061545 C 249.929555 921.434459 248.739981 921.945165 246.0214 922.792189 C 243.30282 923.639213 241.434379 926.694107 238.887072 926.694107 C 236.336651 926.694107 235.997218 925.843968 235.147077 922.113324 C 234.296937 918.38268 235.657784 911.089551 236.336651 908.034658 C 237.015518 904.982879 235.318351 898.197342 235.318351 898.197342 C 235.318351 898.197342 232.95166 880.27904 237.853202 883.642225 C 239.82752 884.996841 241.406353 886.074306 242.169299 886.494704 C 242.947816 886.924444 244.26818 887.531686 245.831442 888.188752 C 249.639947 889.786265 248.571822 891.243645 248.571822 892.093784 Z M 271.849475 899.215639 C 271.849475 901.9311 274.228622 903.625149 274.228622 906.848201 C 274.228622 910.071253 273.207208 911.428984 270.999334 914.820195 C 268.791461 918.211407 269.809761 916.177925 265.901606 917.364382 C 261.993452 918.550839 260.803878 916.346085 261.314585 914.820195 C 261.825292 913.294306 265.222739 912.444167 265.562173 910.410686 C 265.901606 908.37409 263.014866 905.829903 264.033166 902.606851 C 265.051466 899.386913 261.473402 892.791333 263.295132 893.024888 C 264.512732 893.180591 265.630682 893.280241 266.580473 893.280241 C 268.299438 893.280241 269.837787 893.516909 272.095486 893.115196 C 272.964311 892.959493 271.849475 896.503293 271.849475 899.215639 Z M 220.109246 877.759765 C 219.601653 879.625087 219.601653 881.066897 220.704033 884.12179 C 221.809527 887.173569 223.506694 896.416099 223.677967 900.062664 C 223.849241 903.709228 224.783461 911.852496 223.762047 916.517358 C 222.743747 921.179106 221.725447 924.82567 220.619953 927.030425 C 219.514459 929.238294 218.664319 930.085318 216.795879 928.727588 C 214.927438 927.369858 216.540525 921.945165 216.711799 918.806192 C 216.879958 915.667219 214.503925 912.191928 214.248572 907.442986 C 213.993218 901.168155 213.398431 895.740348 213.314351 892.517296 C 214.161378 881.23817 208.724216 871.908446 208.879919 867.511393 C 214.236115 870.033782 219.374326 873.1385 222.176987 874.057147 C 220.535873 875.215578 220.3646 875.978522 220.109246 877.759765 Z M 220.109246 877.759765 " transform="matrix(1.254388,0,0,1.254391,-59.907178,-1037.319837)"/>
<path style="fill-rule:nonzero;fill:rgb(90.196078%,92.54902%,99.215686%);fill-opacity:1;stroke-width:0.23916;stroke-linecap:butt;stroke-linejoin:miter;stroke:rgb(0%,0%,0%);stroke-opacity:1;stroke-miterlimit:4;" d="M 173.666046 827.072207 C 172.924898 827.065979 171.735324 827.701247 171.258872 827.92546 C 170.184519 828.433052 168.596345 829.224023 167.465938 829.790782 C 166.332418 830.354427 165.426224 830.693859 163.725943 831.880316 C 162.028777 833.069887 159.307082 835.498854 158.120622 835.897454 C 156.931048 836.292939 157.326535 836.292939 157.043155 835.614074 C 156.759775 834.935209 156.759775 834.480556 157.043155 832.051589 C 157.326535 829.619508 156.249068 831.372724 154.43668 832.391022 C 152.624293 833.40932 152.45302 833.972965 150.755853 835.558021 C 149.055572 837.139964 148.149379 837.364176 146.959805 837.703609 C 145.770231 838.043041 145.318691 837.364176 144.979258 835.782234 C 144.885836 835.346265 145.493079 833.611734 144.867152 833.860858 C 143.213582 834.514811 139.249374 838.696994 138.181249 839.96753 C 136.711409 841.717632 134.727748 842.228338 134.612528 841.944959 C 134.500421 841.661579 134.160988 841.49342 133.933661 841.49342 C 133.706334 841.49342 131.554514 843.302689 130.763541 843.925501 C 129.969454 844.545199 121.925818 851.330736 124.304965 850.93525 C 126.684113 850.539765 130.987754 849.633573 135.861269 850.651871 C 140.73167 851.670169 149.678386 851.782275 151.493887 851.838328 C 153.30316 851.894381 162.81975 855.400813 169.219158 856.191784 C 175.62168 856.982755 189.893451 863.540966 197.765813 863.992505 C 205.638175 864.447158 217.362639 872.475205 222.176987 874.057147 C 226.991335 875.63909 239.509886 885.024867 242.169299 886.494704 C 244.022169 887.519229 248.970422 889.552711 252.971999 890.885528 C 254.728333 891.470972 253.102789 889.945082 253.893763 889.549597 C 254.68785 889.154111 257.861084 889.549597 259.390091 889.60565 C 260.919098 889.661703 265.278793 889.038891 266.866967 888.360026 C 268.452027 887.684275 267.770047 883.271651 267.8261 881.973088 C 267.85724 881.300451 268.542335 878.566306 268.168647 875.922469 C 267.816758 873.45302 266.409199 871.067649 266.297093 870.438609 C 266.184986 869.797113 265.010983 867.231127 263.466406 864.842643 C 261.884459 862.394992 259.931939 860.127956 259.614304 859.526942 C 258.991491 858.340486 253.442223 853.308164 252.423923 852.629299 C 251.402509 851.950434 244.775773 847.428819 243.698306 846.921227 C 242.623953 846.413635 240.923672 844.940685 237.242845 844.037607 C 235.695153 843.654578 234.181716 842.882291 232.543717 842.511718 C 230.282904 842.001012 228.000293 841.960529 227.047388 842.057065 C 225.406275 842.228338 225.007674 842.057065 224.045427 841.944959 C 223.08318 841.832852 223.366561 841.661579 222.120934 841.888906 C 220.875307 842.113118 220.3646 842.511718 219.3463 842.907203 C 218.324886 843.302689 217.873346 843.131416 216.795879 843.190583 C 215.721525 843.246636 215.606305 842.45255 215.154765 842.172285 C 214.700111 841.888906 213.793918 842.113118 211.813371 842.172285 C 209.82971 842.228338 210.452523 842.057065 209.94493 841.153987 C 209.434223 840.247796 209.319003 839.456825 209.319003 839.456825 C 209.319003 839.456825 208.471977 839.288665 207.338456 839.344718 C 206.204936 839.400771 205.865502 839.005286 205.186636 838.441641 C 204.507769 837.874882 204.675929 837.818829 203.937895 836.405046 C 203.202975 834.991262 203.713682 835.670127 202.748321 835.558021 C 201.789188 835.442801 201.446641 835.614074 199.29482 835.614074 C 197.143 835.614074 198.332573 835.218589 197.650593 834.424503 C 196.971726 833.633532 197.086947 833.353267 197.086947 833.353267 C 197.086947 833.353267 196.009479 833.692699 195.162453 833.860858 C 194.312313 834.032132 193.630332 834.539724 192.157378 834.312397 C 190.684424 834.088185 191.310352 833.294099 191.310352 833.294099 L 190.855698 831.880316 C 190.855698 831.880316 189.043311 832.559181 188.081064 832.898614 C 187.118817 833.238046 186.15657 833.40932 185.586696 833.238046 C 185.02305 833.069887 184.851776 832.163696 184.228963 830.186267 C 183.606149 828.205725 182.927282 828.716431 181.965036 828.943757 C 180.999675 829.16797 180.660241 829.392182 179.754048 829.846835 C 178.847854 830.298374 175.677734 831.428777 175.167027 831.372724 C 174.65632 831.316671 173.865346 831.316671 173.977453 829.846835 C 174.030392 829.174198 174.578468 827.558001 174.092673 827.187427 C 173.983681 827.106462 173.83732 827.072207 173.666046 827.072207 Z M 173.666046 827.072207 " transform="matrix(1.254388,0,0,1.254391,-59.907178,-1037.319837)"/>
<path style="fill-rule:nonzero;fill:rgb(69.411765%,74.509804%,87.45098%);fill-opacity:1;stroke-width:0.23916;stroke-linecap:butt;stroke-linejoin:miter;stroke:rgb(0%,0%,0%);stroke-opacity:1;stroke-miterlimit:4;" d="M 196.320886 860.377081 C 196.49216 859.019351 197.765813 857.238108 198.700033 855.880378 C 199.634254 854.525762 202.779462 852.321007 204.816062 850.792004 C 206.855776 849.266114 207.195209 848.674443 209.490277 846.382494 C 211.785344 844.09366 212.099865 845.149327 212.657283 843.754228 C 211.551789 844.261819 209.319003 845.874903 208.129429 846.637847 C 206.939856 847.400792 206.176909 847.908384 204.647902 849.097955 C 203.118895 850.284412 201.502694 850.963277 200.22904 852.321007 C 198.955387 853.675623 198.021167 853.930976 197.255106 854.438568 C 196.49216 854.949274 193.518225 857.577541 192.244572 858.595838 C 190.967804 859.614136 190.460211 859.698216 189.781345 858.848077 C 189.099364 858.001053 190.373017 857.069949 191.310352 855.712219 C 192.244572 854.354488 193.518225 853.252111 195.131312 851.554948 C 196.747513 849.8609 196.660319 850.113139 198.700033 848.163737 C 200.739747 846.214335 200.907907 846.721927 203.626488 844.17774 C 204.408119 843.290233 206.014978 842.119346 205.890415 841.779913 C 204.772465 842.312418 203.542408 843.246636 201.079181 844.688446 C 198.615954 846.130256 197.255106 847.145439 196.320886 847.572065 C 195.386666 847.995578 189.781345 851.642142 186.636137 855.033354 C 183.494043 858.424565 183.238689 855.628139 184.08883 853.675623 C 184.935856 851.726222 185.785996 851.810301 186.89149 850.200332 C 187.996984 848.587249 191.817945 845.45139 195.470746 842.396497 C 199.126661 839.344718 199.126661 839.260639 197.255106 840.191743 C 195.386666 841.125961 194.623719 841.549473 193.094712 842.567771 C 191.562591 843.586068 189.610071 844.601252 187.654437 846.466574 C 185.701916 848.33501 189.781345 844.688446 181.370249 851.642142 C 172.959153 858.595838 179.414614 852.149734 179.669968 850.707924 C 179.925321 849.266114 180.688268 847.908384 181.965036 846.214335 C 183.238689 844.517172 185.530643 843.414795 190.883724 839.089365 C 196.236806 834.763936 192.839359 836.716452 191.310352 837.308123 C 189.781345 837.902909 189.099364 838.837127 187.315003 839.85231 C 185.530643 840.870608 183.662202 842.567771 182.133195 843.670148 C 180.604188 844.772525 180.009401 846.043062 174.995753 849.350194 C 169.985219 852.657326 170.153378 851.047357 170.835359 849.437387 C 171.514226 847.824304 172.61972 847.145439 174.57224 844.688446 C 176.527874 842.228338 178.651668 840.954688 182.388549 838.071068 C 186.12543 835.190562 185.701916 834.000991 182.899256 836.545178 C 180.093481 839.089365 180.859542 837.818829 179.075181 839.089365 C 177.290821 840.363016 177.206741 840.786528 168.879725 846.298415 C 160.552709 851.810301 163.866076 847.572065 164.208624 845.280117 C 164.392354 844.043835 166.351102 841.904476 168.879725 839.83674 C 170.854043 838.223657 173.21762 835.965963 175.3383 834.720339 C 175.525144 834.608233 176.668007 834.05393 176.851737 833.948052 C 177.9946 833.054317 178.959961 832.584094 179.352333 831.419435 C 176.889106 833.113484 175.50646 833.661559 173.893373 834.85113 C 172.277172 836.037586 170.748165 836.884611 169.901139 837.139964 C 169.050998 837.395317 167.945505 838.581774 160.384549 844.772525 C 152.823594 850.963277 157.239341 844.856605 157.581888 842.82001 C 157.921322 840.786528 163.697917 836.121666 167.606071 832.135669 C 171.514226 828.149672 167.179444 831.372724 165.398197 832.646375 C 163.613837 833.916911 162.931856 834.088185 160.808062 835.866313 C 158.684268 837.647556 154.947388 840.702449 153.673734 841.549473 C 152.396966 842.396497 149.510226 845.196037 147.641786 847.740225 C 145.770231 850.284412 145.007285 849.097955 144.923205 849.097955 C 144.836011 849.097955 145.007285 847.316712 145.262638 846.382494 C 145.517992 845.45139 148.320652 841.21004 149.678386 839.85231 C 151.039233 838.497694 153.58654 834.424503 153.163027 835.019289 C 152.739514 835.614074 151.123313 836.96869 150.020933 838.158261 C 148.915439 839.344718 142.799411 844.856605 141.777997 845.874903 C 140.759697 846.8932 139.738283 848.842602 138.464629 849.437387 C 137.190976 850.029059 137.359135 848.926682 137.106896 848.33501 C 136.851542 847.740225 139.143496 842.312418 139.909556 840.954688 C 140.675617 839.600071 142.799411 836.461099 142.03335 837.224043 C 141.26729 837.986988 140.504343 839.089365 139.738283 839.768231 C 138.975336 840.447096 138.719983 840.363016 136.935622 843.670148 C 135.151262 846.97728 133.282821 849.010761 132.348601 849.097955 C 131.414381 849.182035 130.735514 848.758522 130.819594 848.41909 C 130.903674 848.079657 131.498461 846.553768 131.921974 845.703629 C 132.348601 844.856605 134.132962 842.312418 133.961688 841.972985 C 133.793528 841.633553 131.414381 844.688446 130.224807 846.466574 C 129.035233 848.247816 121.925818 851.330736 124.304965 850.93525 C 126.684113 850.539765 130.987754 849.633573 135.861269 850.651871 C 140.73167 851.670169 149.678386 851.782275 151.493887 851.838328 C 153.30316 851.894381 162.81975 855.400813 169.219158 856.191784 C 175.62168 856.982755 189.893451 863.540966 197.765813 863.992505 C 198.164414 864.017417 196.152726 861.731697 196.320886 860.377081 Z M 196.320886 860.377081 " transform="matrix(1.254388,0,0,1.254391,-59.907178,-1037.319837)"/>
<path style="fill-rule:nonzero;fill:rgb(15.686275%,33.333333%,82.745098%);fill-opacity:1;stroke-width:0.23916;stroke-linecap:butt;stroke-linejoin:miter;stroke:rgb(0%,0%,0%);stroke-opacity:1;stroke-miterlimit:4;" d="M 84.600607 916.573411 C 83.467086 915.215681 79.390772 910.239413 79.278666 909.448441 C 79.163445 908.65747 78.824012 907.866499 79.730205 907.751278 C 80.636399 907.639172 83.35498 907.411846 85.055261 906.963421 C 86.755541 906.508768 88.001168 906.169336 89.019468 905.605691 C 90.037768 905.038932 91.283395 903.456989 91.738049 903.908528 C 92.192703 904.360067 90.719749 906.284556 90.831855 906.848201 C 90.943962 907.411846 91.171289 908.769576 92.532136 911.145604 C 93.88987 913.518518 95.02339 915.327787 95.135496 917.703815 C 95.250717 920.076729 95.47493 921.434459 94.57185 922.337536 C 93.662543 923.243728 93.098896 924.82567 91.398616 923.58316 C 89.698335 922.337536 85.734127 917.928027 84.600607 916.573411 Z M 84.600607 916.573411 " transform="matrix(1.254388,0,0,1.254391,-59.907178,-1037.319837)"/>
<path style="fill-rule:nonzero;fill:rgb(90.196078%,92.54902%,99.215686%);fill-opacity:1;stroke-width:0.23916;stroke-linecap:round;stroke-linejoin:round;stroke:rgb(0%,0%,0%);stroke-opacity:1;stroke-miterlimit:4;" d="M 141.63475 940.265181 C 141.376282 940.265181 140.772153 940.290093 139.59815 940.31812 C 137.854272 940.358603 134.895908 940.408428 131.763156 940.439568 C 134.895908 944.615523 132.688034 941.731903 134.332262 948.346167 C 134.332262 948.346167 136.540136 956.034782 136.991675 958.071377 C 137.446329 960.104858 140.958997 968.076852 141.637864 969.09515 C 142.31673 970.113448 144.695878 972.486362 145.374745 973.788039 C 146.056725 975.086602 147.131079 976.727712 148.264599 978.477813 C 149.395005 980.234143 149.395005 981.022 151.263446 982.94649 C 153.135 984.867865 154.041194 986.225595 154.551901 986.225595 C 155.059494 986.225595 154.776114 986.621081 155.682307 985.095191 C 156.591615 983.566188 157.722022 980.909894 158.516109 980.458356 C 159.310196 980.006817 160.440602 977.235303 160.440602 977.235303 L 161.178636 975.086602 C 161.178636 975.086602 162.08483 974.183524 162.53637 972.090876 C 162.987909 969.998227 163.159183 967.908693 163.83805 966.719122 C 164.516916 965.532665 165.25495 962.25356 165.25495 962.25356 C 165.25495 962.25356 165.936931 958.747128 165.311004 957.336459 C 164.68819 955.922675 162.81975 953.039056 162.763696 953.039056 C 162.707643 953.039056 160.839203 950.890354 157.382588 949.137138 C 153.929088 947.383922 151.154454 944.727629 149.793606 944.500303 C 148.432759 944.27609 145.770231 943.030466 145.770231 942.974413 C 145.770231 942.91836 144.073064 942.239495 142.31673 942.127389 C 141.522643 942.127389 140.560396 941.165144 140.560396 941.165144 C 140.043461 940.430226 142.403924 940.258953 141.63475 940.265181 Z M 141.63475 940.265181 " transform="matrix(1.254388,0,0,1.254391,-59.907178,-1037.319837)"/>
<path style="fill-rule:nonzero;fill:rgb(90.196078%,92.54902%,99.215686%);fill-opacity:1;stroke-width:0.23916;stroke-linecap:round;stroke-linejoin:round;stroke:rgb(0%,0%,0%);stroke-opacity:1;stroke-miterlimit:4;" d="M 246.0214 929.3504 C 242.113246 930.764183 236.507925 929.857992 232.939204 931.103616 C 229.370482 932.346126 222.404314 933.931182 219.741786 935.117639 C 217.079259 936.304096 209.375056 937.546606 207.733943 938.113365 C 206.092829 938.680124 192.668085 941.504577 190.911751 941.956115 C 189.155417 942.410768 189.49485 943.257793 189.49485 943.257793 C 189.49485 943.257793 191.761891 946.536898 195.386666 948.573493 C 199.01144 950.606975 207.621836 955.810569 212.264911 956.825753 C 216.911099 957.844051 227.897529 959.541213 230.728216 961.574695 C 233.562017 963.61129 235.147077 963.723396 238.205091 964.514367 C 241.263106 965.308453 243.757473 965.647885 245.797188 964.629588 C 247.833788 963.61129 253.158843 961.235262 255.083336 959.201781 C 257.010944 957.165185 257.689811 957.731944 259.502198 953.773974 C 261.314585 949.816003 262.672318 949.137138 262.220779 944.839735 C 261.769239 940.545446 261.654018 937.263227 261.199365 935.796504 C 260.747825 934.323554 257.801917 930.59291 256.895723 930.368698 C 255.98953 930.141371 248.456601 930.253477 248.456601 930.253477 C 246.476054 930.59291 246.644214 930.029265 246.0214 929.3504 Z M 246.0214 929.3504 " transform="matrix(1.254388,0,0,1.254391,-59.907178,-1037.319837)"/>
<path style="fill-rule:nonzero;fill:rgb(100%,100%,100%);fill-opacity:1;stroke-width:0.23916;stroke-linecap:round;stroke-linejoin:round;stroke:rgb(0%,0%,0%);stroke-opacity:1;stroke-miterlimit:4;" d="M 175.20751 873.082446 C 174.360483 873.08556 173.491658 873.166526 172.61972 873.350256 C 168.624371 874.200394 156.560474 878.778062 153.58654 880.898737 C 150.61572 883.019412 147.554592 887.173569 146.280938 889.294244 C 145.007285 891.414919 141.01505 895.908508 139.23069 897.945103 C 137.446329 899.978584 133.366901 904.898799 132.177327 906.424689 C 130.987754 907.950578 131.074947 910.155333 131.074947 911.173631 C 131.074947 912.191928 130.987754 913.123032 132.009168 915.922572 C 133.027468 918.722112 133.793528 921.434459 135.067182 921.605732 C 136.340835 921.773891 138.635903 921.942051 142.03335 921.605732 C 145.430798 921.2663 153.757814 920.416161 155.710334 920.163922 C 157.665968 919.908569 159.961036 920.416161 161.742282 919.229704 C 163.526643 918.043247 167.606071 915.922572 170.069298 913.462465 C 172.532526 911.002357 177.801528 906.424689 179.075181 904.048661 C 180.348835 901.675747 184.08883 894.80613 184.596422 892.346023 C 185.10713 889.889029 186.04135 884.03771 186.04135 883.187572 C 186.04135 882.340547 184.767696 875.55501 182.643902 874.707986 C 180.984104 874.044691 178.234383 873.073104 175.20751 873.082446 Z M 175.20751 873.082446 " transform="matrix(1.254388,0,0,1.254391,-59.907178,-1037.319837)"/>
<path style="fill-rule:nonzero;fill:rgb(90.196078%,92.54902%,99.215686%);fill-opacity:1;stroke-width:0.23916;stroke-linecap:round;stroke-linejoin:round;stroke:rgb(0%,0%,0%);stroke-opacity:1;stroke-miterlimit:4;" d="M 332.523962 872.736786 C 331.885579 872.733672 330.689777 872.945428 328.204751 873.549555 C 323.789004 874.623906 316.424234 877.392306 312.403973 879.033415 C 308.380598 880.674525 305.210478 881.462382 301.302323 883.103492 C 298.016982 884.177843 294.164881 885.871892 290.655327 886.949356 C 288.104906 888.303973 278.136777 891.358866 281.250844 890.736054 C 284.368025 890.113242 284.536185 891.527025 284.875618 892.657429 C 285.218166 893.787833 286.575899 896.388073 286.177298 898.029183 C 285.781812 899.670292 285.274219 901.64772 285.158998 903.061504 C 285.046892 904.475287 284.424079 905.207091 284.592238 907.075527 C 284.763512 908.940849 285.837865 913.123032 284.987725 914.424709 C 284.140698 915.723273 283.063231 917.703815 282.269144 918.326627 C 281.478171 918.946325 278.59143 920.755594 277.513963 921.151079 C 276.436496 921.549679 275.813682 922.113324 275.246922 922.113324 C 274.683276 922.113324 281.817604 923.527107 283.178452 924.149919 C 284.536185 924.769617 294.052775 928.783641 296.712188 929.518559 C 299.374716 930.253477 311.609886 934.71904 312.911566 934.83426 C 314.213247 934.946366 325.374064 938.225471 326.336311 938.169418 C 327.298557 938.113365 330.527845 938.113365 330.527845 938.113365 L 330.415739 927.425911 C 330.415739 927.425911 328.827565 919.117598 327.921371 917.420435 C 327.015177 915.723273 325.090684 910.0152 324.408703 909.448441 C 323.729836 908.884796 322.938863 906.963421 322.938863 906.963421 C 322.938863 906.963421 323.446456 905.77385 324.128437 904.758667 C 325.48617 903.002337 326.22109 899.726345 326.959124 897.857909 C 328.715458 894.581918 330.244465 889.717756 330.639952 887.908487 C 330.639952 887.908487 333.190373 878.52271 333.190373 878.466656 C 333.190373 878.410603 333.754019 873.434335 333.358532 873.041964 C 333.187259 872.867576 333.022213 872.736786 332.523962 872.736786 Z M 332.523962 872.736786 " transform="matrix(1.254388,0,0,1.254391,-59.907178,-1037.319837)"/>
<path style="fill:none;stroke-width:0.23916;stroke-linecap:butt;stroke-linejoin:miter;stroke:rgb(0%,0%,0%);stroke-opacity:1;stroke-miterlimit:4;" d="M 121.303004 880.391146 C 121.303004 880.391146 123.258638 880.643385 124.361018 880.982817 C 125.466512 881.32225 128.013819 882.848139 129.374667 884.629382 C 130.735514 886.410624 133.282821 887.852434 134.556475 888.447219 C 135.830128 889.038891 135.830128 891.414919 135.746048 892.856729 C 135.661969 894.298538 133.877608 898.368615 133.111547 899.386913 C 132.348601 900.402096 129.203393 908.968876 127.506226 911.25771 C 125.805946 913.546544 119.605837 925.165103 118.073716 927.201698 C 116.544709 929.238294 112.128962 928.559429 109.239107 931.779367 C 106.352367 935.002419 102.783646 933.30837 98.364784 934.071315 C 94.864573 934.675443 91.314536 933.647803 91.314536 933.647803 M 51.196007 906.882456 C 49.844501 905.241346 49.738623 903.179838 53.338485 900.177884 C 58.660426 895.257669 69.083209 886.155271 73.38685 882.651953 C 77.690491 879.145522 89.246795 871.117474 93.88987 868.62934 C 98.875491 864.78659 99.554358 863.768292 104.764193 860.772567 C 110.883335 856.41911 121.925818 851.330736 124.304965 850.93525 C 126.684113 850.539765 130.987754 849.633573 135.861269 850.651871 C 140.73167 851.670169 149.678386 851.782275 151.493887 851.838328 C 153.30316 851.894381 162.81975 855.400813 169.219158 856.191784 C 175.62168 856.982755 189.893451 863.540966 197.765813 863.992505 C 205.638175 864.447158 217.362639 872.475205 222.176987 874.057147 C 226.991335 875.63909 239.509886 885.024867 242.169299 886.494704 C 244.831827 887.96454 253.893763 891.527025 257.350377 892.093784 C 260.803878 892.657429 264.204439 893.280241 266.580473 893.280241 C 268.95962 893.280241 270.999334 893.731779 275.078763 892.317996 C 279.155077 890.904213 278.136777 891.358866 281.250844 890.736054 C 284.368025 890.113242 284.536185 891.527025 284.875618 892.657429 C 285.218166 893.787833 286.575899 896.388073 286.177298 898.029183 C 285.781812 899.670292 285.274219 901.64772 285.158998 903.061504 C 285.046892 904.475287 284.424079 905.207091 284.592238 907.075527 C 284.763512 908.940849 285.837865 913.123032 284.987725 914.424709 C 284.140698 915.723273 283.063231 917.703815 282.269144 918.326627 C 281.478171 918.946325 278.59143 920.755594 277.513963 921.151079 C 276.436496 921.549679 275.813682 922.113324 275.246922 922.113324 C 274.683276 922.113324 272.244961 921.829945 270.264414 921.945165 C 268.280754 922.057271 262.220779 922.960348 259.502198 924.034699 C 256.783617 925.10905 255.366716 925.675809 252.704189 926.522833 C 250.044775 927.369858 249.929555 927.936617 246.0214 929.3504 C 242.113246 930.764183 236.507925 929.857992 232.939204 931.103616 C 229.370482 932.346126 222.404314 933.931182 219.741786 935.117639 C 217.079259 936.304096 209.375056 937.546606 207.733943 938.113365 C 206.092829 938.680124 192.668085 941.504577 190.911751 941.956115 C 189.155417 942.410768 189.893451 942.127389 184.456289 942.410768 C 179.019128 942.691034 178.000828 942.466821 176.07322 942.91836 C 174.148727 943.369899 170.748165 942.974413 169.107052 942.91836 C 167.465938 942.862307 152.907673 942.295548 148.660086 941.392471 C 144.412498 940.486279 144.297277 940.206014 139.59815 940.31812 C 134.895908 940.430226 121.359057 940.601499 119.319343 940.31812 C 117.282743 940.03474 106.520527 938.848283 101.366745 937.661827 C 96.212964 936.47537 97.570697 936.135937 97.007051 935.908611 C 96.440291 935.681284 93.88987 934.211448 90.831855 933.47653 C 87.773841 932.741611 80.069639 930.820236 73.38685 926.747046 C 66.704062 922.676969 62.229147 920.531381 59.39846 918.778166 C 56.564659 917.02495 47.390616 910.239413 47.901323 908.828743 C 48.408916 907.411846 49.69814 905.817447 50.492227 905.8735 M 64.268861 894.694024 C 63.702101 895.08951 63.474774 895.597102 63.474774 895.597102 M 60.472813 897.57453 C 60.8683 898.368615 61.039573 898.764101 61.039573 898.708048 " transform="matrix(1.254388,0,0,1.254391,-59.907178,-1037.319837)"/>
<path style="fill-rule:nonzero;fill:rgb(31.372549%,45.882353%,87.058824%);fill-opacity:1;stroke-width:0.23916;stroke-linecap:round;stroke-linejoin:round;stroke:rgb(0%,0%,0%);stroke-opacity:1;stroke-miterlimit:4;" d="M 175.20751 873.082446 C 174.360483 873.08556 173.491658 873.166526 172.61972 873.350256 C 168.624371 874.200394 156.560474 878.778062 153.58654 880.898737 C 150.61572 883.019412 147.554592 887.173569 146.280938 889.294244 C 145.79203 890.107013 144.898292 891.274786 143.88622 892.514182 C 143.742973 899.807311 142.357213 910.4138 145.184786 912.973557 C 146.710679 914.3562 146.218657 917.632191 145.14119 921.291212 C 149.033774 920.895726 154.218696 920.356994 155.710334 920.163922 C 157.665968 919.908569 159.961036 920.416161 161.742282 919.229704 C 163.526643 918.043247 167.606071 915.922572 170.069298 913.462465 C 172.532526 911.002357 177.801528 906.424689 179.075181 904.048661 C 180.348835 901.675747 184.08883 894.80613 184.596422 892.346023 C 185.10713 889.889029 186.04135 884.03771 186.04135 883.187572 C 186.04135 882.340547 184.767696 875.55501 182.643902 874.707986 C 180.984104 874.044691 178.234383 873.073104 175.20751 873.082446 Z M 132.276977 906.300126 C 132.248951 906.337495 132.20224 906.390434 132.177327 906.424689 C 130.987754 907.950578 131.074947 910.155333 131.074947 911.173631 C 131.074947 911.562888 131.062491 911.942803 131.102974 912.416141 C 131.514031 910.538362 131.912632 908.380319 132.276977 906.300126 Z M 132.276977 906.300126 " transform="matrix(1.254388,0,0,1.254391,-59.907178,-1037.319837)"/>
</g>
</svg>
