<?xml version="1.0" encoding="UTF-8"?>
<svg xmlns="http://www.w3.org/2000/svg" xmlns:xlink="http://www.w3.org/1999/xlink" width="446pt" height="249pt" viewBox="0 0 446 249" version="1.1">
<g id="surface51">
<path style="fill-rule:nonzero;fill:rgb(96.078432%,92.156863%,89.019608%);fill-opacity:1;stroke-width:0.24;stroke-linecap:butt;stroke-linejoin:miter;stroke:rgb(0%,0%,0%);stroke-opacity:1;stroke-miterlimit:4;" d="M 73.545693 53.43793 C 73.545693 53.43793 75.49929 53.693073 76.60241 54.030763 C 77.710533 54.370954 80.256963 55.896811 81.615226 57.677812 C 82.975991 59.458813 85.524923 60.899622 86.80064 61.494957 C 88.073855 62.08779 88.073855 64.461624 87.986306 65.902433 C 87.90376 67.345744 86.117756 71.415531 85.357329 72.433603 C 84.591899 73.454176 81.447632 82.018988 79.746677 84.305273 C 78.050724 86.59656 71.847238 98.215588 70.31888 100.249231 C 68.78802 102.285375 64.373039 101.607494 61.481414 104.829304 C 58.594793 108.053615 55.025287 106.355161 50.605304 107.11809 C 47.105838 107.725931 43.556343 106.692851 43.556343 106.692851 M 3.436302 79.930315 C 2.088045 78.291894 1.980484 76.228235 5.577505 73.229049 C 10.902997 68.308785 21.323852 59.206171 25.628771 55.6992 C 29.933689 52.194731 41.487681 44.16522 46.135292 41.678823 C 51.11559 37.834163 51.795973 36.816091 57.008902 33.819407 C 63.124838 29.469463 74.168543 24.379103 76.547379 23.98138 C 78.928717 23.588659 83.231134 22.685652 88.103872 23.701223 C 92.971607 24.719295 101.921636 24.831858 103.735154 24.886889 C 105.546172 24.944421 115.061518 28.44889 121.462615 29.241836 C 127.863711 30.03228 142.134229 36.590965 150.008653 37.043719 C 157.880576 37.496473 169.602161 45.520982 174.419868 47.106873 C 179.235074 48.690263 191.749605 58.075536 194.413602 59.543861 C 197.075097 61.014687 206.137689 64.57919 209.594631 65.139504 C 213.04657 65.707323 216.443479 66.327672 218.824817 66.327672 C 221.203653 66.327672 223.239797 66.780426 227.31959 65.364631 C 231.39688 63.953838 230.378808 64.406593 233.493058 63.783743 C 236.609809 63.163394 236.777403 64.57919 237.120096 65.707323 C 237.460287 66.837959 238.81855 69.436919 238.418325 71.077841 C 238.025605 72.718763 237.515318 74.697374 237.400253 76.110669 C 237.28769 77.521461 236.66484 78.256874 236.834936 80.122923 C 237.007533 81.98647 238.080636 86.171321 237.232659 87.474553 C 236.382181 88.772783 235.306577 90.753896 234.513632 91.374244 C 233.718185 91.997094 230.831563 93.80561 229.753457 94.200832 C 228.677853 94.596054 228.057504 95.163873 227.489685 95.163873 C 226.924368 95.163873 224.487999 94.878713 222.506886 94.993778 C 220.523271 95.106341 214.462366 96.009348 211.743338 97.084953 C 209.024311 98.160557 207.608515 98.725875 204.94702 99.57135 C 202.285524 100.419326 202.172961 100.984644 198.263265 102.400439 C 194.356069 103.813733 188.75042 102.910726 185.180914 104.148922 C 181.61391 105.394622 174.647496 106.978011 171.983499 108.166179 C 169.322004 109.354346 161.617675 110.597545 159.979255 111.162862 C 158.33333 111.72818 144.908287 114.552267 143.157304 115.007522 C 141.396314 115.460277 142.134229 115.175117 136.696173 115.460277 C 131.263121 115.740434 130.240046 115.515308 128.316465 115.968062 C 126.390383 116.418315 122.990973 116.025594 121.34755 115.968062 C 119.706628 115.91053 105.15095 115.342711 100.903564 114.439703 C 96.653676 113.534195 96.541113 113.254037 91.840972 113.366601 C 87.140831 113.479164 73.603225 113.649259 71.562078 113.366601 C 69.525934 113.083942 58.762387 111.898276 53.609492 110.710108 C 48.454095 109.52194 49.812358 109.184251 49.247041 108.956623 C 48.681723 108.731496 46.135292 107.26067 43.076073 106.525257 C 40.014353 105.789844 32.312526 103.868764 25.628771 99.796476 C 18.947517 95.729191 14.472503 93.577982 11.640912 91.824497 C 8.809321 90.076015 -0.368336 83.289702 0.144453 81.878909 C 0.652238 80.463114 1.940462 78.864716 2.733407 78.922248 M 16.508647 67.740966 C 15.943329 68.13869 15.718203 68.646475 15.718203 68.646475 M 12.716516 70.625086 C 13.111738 71.415531 13.281834 71.813254 13.281834 71.755722 " transform="matrix(-1.561622,0,0,1.561622,446.409174,0.194678)"/>
<path style=" stroke:none;fill-rule:evenodd;fill:rgb(38.039216%,20.784314%,9.803922%);fill-opacity:1;" d="M 306.300781 60.234375 C 309.722656 72.359375 298.476562 80.882812 297.589844 92.382812 C 294.027344 99.457031 298.859375 112.1875 286.625 107.644531 C 284.648438 107.195312 282.984375 106.824219 280.996094 106.585938 C 278.378906 102.84375 279.324219 105.292969 279.335938 106.464844 C 276.398438 106.175781 273.445312 106.097656 270.507812 106.214844 C 270.257812 106.222656 269.175781 105.132812 268.929688 105.140625 C 268.691406 105.15625 269.292969 106.277344 269.050781 106.292969 C 266.40625 106.453125 263.773438 106.777344 261.15625 107.234375 C 261.015625 107.261719 259.898438 106.164062 259.757812 106.191406 C 259.640625 106.214844 260.492188 107.355469 260.375 107.375 C 255.933594 108.210938 251.5625 109.441406 247.308594 111 C 247.121094 111.070312 246.496094 110.421875 246.316406 110.488281 C 246.175781 110.542969 246.472656 111.3125 246.332031 111.367188 C 243.953125 112.269531 241.617188 113.277344 239.324219 114.367188 C 238.519531 114.589844 237.6875 114.855469 236.835938 115.164062 C 236.554688 115.261719 235.652344 114.53125 235.375 114.636719 C 235.125 114.730469 235.507812 115.667969 235.257812 115.765625 C 232.785156 116.75 230.183594 117.980469 227.597656 119.132812 C 227.390625 119.226562 226.167969 117.960938 225.960938 118.046875 C 225.738281 118.152344 226.53125 119.601562 226.308594 119.699219 C 221.164062 121.933594 216.195312 123.65625 212.582031 122.347656 C 208.222656 111.574219 206.289062 99.417969 211.398438 88.515625 C 214.582031 86.957031 217.601562 85.089844 220.582031 83.140625 C 220.949219 82.902344 220.597656 84.703125 220.964844 84.457031 C 221.320312 84.226562 222.398438 81.945312 222.753906 81.707031 C 225.867188 79.636719 228.964844 77.542969 232.179688 75.691406 C 232.410156 75.558594 232.527344 77.636719 232.863281 75.300781 C 232.894531 75.078125 233.253906 75.078125 233.453125 74.972656 C 233.902344 74.726562 234.351562 74.484375 234.804688 74.25 C 234.898438 74.199219 234.988281 74.152344 235.082031 74.109375 C 235.195312 74.050781 235.300781 73.996094 235.410156 73.941406 C 238.675781 72.296875 242.09375 70.980469 245.804688 70.234375 C 246.144531 70.121094 246.023438 71.335938 246.371094 71.230469 C 246.820312 71.082031 247.746094 69.617188 248.199219 69.480469 C 251.679688 68.4375 255.203125 67.574219 258.753906 66.886719 C 259.222656 66.792969 258.996094 67.796875 259.46875 67.710938 C 259.769531 67.65625 260.777344 66.511719 261.078125 66.457031 C 264 65.953125 266.941406 65.5625 269.890625 65.28125 C 270.0625 65.265625 269.613281 66.542969 269.789062 66.53125 C 270.039062 66.503906 270.914062 65.1875 271.164062 65.167969 C 273.660156 64.953125 276.164062 64.820312 278.671875 64.757812 C 279.792969 64.585938 280.90625 64.398438 282.023438 64.195312 C 282.257812 64.15625 281.902344 65.972656 282.136719 65.929688 C 282.496094 65.867188 283.445312 63.9375 283.804688 63.871094 C 291.273438 62.453125 298.691406 60.660156 306.300781 60.234375 Z M 369.410156 78.320312 C 381.582031 83.800781 376.203125 94.605469 374.496094 103.984375 C 370.757812 111.304688 365.332031 101.191406 357.15625 100.574219 L 346.464844 99.761719 C 336.21875 98.988281 321.492188 108.179688 320.070312 93.140625 C 315.277344 83.757812 319.492188 72.644531 327.222656 66.414062 L 327.917969 64.949219 C 327.988281 64.640625 329.394531 63.519531 329.511719 63.445312 C 330.589844 62.726562 334.507812 63.757812 339.039062 65.34375 C 339.351562 65.457031 338.734375 68.457031 339.058594 68.574219 C 339.550781 68.753906 340.988281 66.046875 341.496094 66.238281 C 347.296875 68.410156 353.414062 71.113281 355.5625 72.082031 Z M 187.765625 97.898438 C 187.648438 109.015625 187.089844 120.253906 185.5625 131.253906 C 177.585938 132.972656 167.226562 135.605469 171.066406 123.988281 C 172.699219 114.640625 168.640625 98.941406 182.371094 98.972656 C 184.148438 98.523438 185.949219 98.148438 187.765625 97.898438 Z M 153.867188 107.796875 C 152.535156 116.410156 150.433594 125.109375 153.125 133.714844 C 153.710938 134.476562 152.839844 134.109375 152.710938 134.28125 C 149.988281 134.128906 146.691406 134.578125 143.367188 135.039062 C 142.921875 135.105469 141.457031 133.605469 141.015625 133.667969 C 140.398438 133.753906 140.800781 135.398438 140.195312 135.476562 C 135.285156 136.101562 130.738281 136.347656 128.417969 134.265625 C 130.3125 126.207031 130.625 114.222656 134.070312 108.855469 C 137.023438 108.082031 140.023438 107.722656 143.050781 107.527344 C 143.335938 107.507812 142.847656 108.503906 143.136719 108.488281 C 143.527344 108.46875 144.699219 107.433594 145.089844 107.414062 C 147.832031 107.292969 150.582031 107.261719 153.316406 107.144531 C 154.082031 107.140625 153.6875 107.574219 153.867188 107.796875 Z M 103.167969 109.390625 C 105.527344 116.789062 102.226562 114.484375 101.597656 122.730469 C 101.554688 123.320312 100.25 123.3125 99.40625 123.445312 C 94.84375 123.578125 95.113281 121.175781 92.664062 120.601562 C 90.046875 119.992188 86.292969 123.417969 87.75 117.152344 C 88.542969 108.328125 97.042969 111.246094 103.167969 109.390625 Z M 103.167969 109.390625 "/>
<path style="fill:none;stroke-width:1.44;stroke-linecap:round;stroke-linejoin:miter;stroke:rgb(74.117649%,74.117649%,100%);stroke-opacity:1;stroke-miterlimit:4;" d="M 25.82388 78.244367 C 28.662976 79.810247 29.921182 80.092906 30.719131 81.47118 C 32.112414 83.895042 36.244735 88.872839 36.389817 87.832254 M 43.72894 80.398077 C 44.999654 81.080961 44.436838 81.391135 46.075259 84.01511 C 46.565534 84.798049 47.543584 87.046813 47.345972 87.732198 M 70.433944 60.832084 C 71.219386 64.546671 70.241336 62.590572 71.609605 66.112551 C 72.977874 69.63453 75.719414 78.441978 76.890072 79.024806 C 78.065732 79.612636 78.065732 80.002855 78.065732 80.002855 M 93.77706 111.738186 C 91.178099 109.091699 83.163596 95.706678 76.912584 92.34479 M 73.513174 90.368679 C 66.834422 82.974525 62.784647 72.483631 62.501988 69.727082 C 62.266856 66.512776 60.130655 67.118116 60.328267 63.986357 C 60.525878 60.8596 61.623995 56.702264 60.675962 54.303416 C 59.610363 51.6044 58.10952 49.678318 58.10952 49.678318 C 54.237344 46.766682 53.999711 45.568509 53.999711 45.568509 M 47.543584 56.134445 C 49.302072 57.502714 48.911852 56.524664 49.889902 58.678374 C 50.867951 60.832084 50.675343 60.046643 51.263173 62.590572 C 51.846001 65.134502 51.455782 69.0467 52.631442 71.398021 C 53.807103 73.744339 54.860194 81.020927 55.845748 82.709376 C 56.616181 84.020112 58.319638 87.694677 62.254349 90.141051 C 64.805782 91.724441 66.844428 94.988775 69.308312 97.602744 M 72.652691 100.349287 C 76.930094 102.830681 82.480713 110.174807 84.416801 111.39049 M 21.719074 70.22236 C 23.087343 72.766289 23.477562 74.134558 24.455612 74.92 C 25.433661 75.700438 26.411711 76.876099 27.779979 77.458926 L 30.52152 78.634587 M 38.345916 57.112494 C 40.889845 58.678374 39.911796 57.700325 41.675286 59.854035 C 43.433774 62.002742 44.609435 63.568622 44.999654 65.722332 C 45.389873 67.876042 44.609435 72.178459 44.021605 72.766289 C 43.433774 73.35412 43.241166 73.744339 42.455725 75.112608 C 41.675286 76.480877 42.065506 76.090657 40.889845 76.678488 C 39.719187 77.266318 36.785039 78.244367 36.785039 78.244367 " transform="matrix(-1.561622,0,0,1.561622,446.409174,0.194678)"/>
<path style="fill-rule:nonzero;fill:rgb(94.117647%,81.960785%,78.039217%);fill-opacity:1;stroke-width:0.24;stroke-linecap:butt;stroke-linejoin:miter;stroke:rgb(0%,0%,0%);stroke-opacity:1;stroke-miterlimit:4;" d="M 6.683126 82.524272 C 5.750102 81.996475 3.473823 80.425593 2.733407 78.922248 C 1.940462 78.864716 0.652238 80.463114 0.144453 81.878909 C -0.368336 83.289702 8.809321 90.076015 11.640912 91.824497 C 14.472503 93.577982 18.947517 95.729191 25.628771 99.796476 C 27.557354 100.704486 28.575426 98.215588 29.593498 96.744762 C 30.61157 95.273935 32.652717 90.866459 30.61157 89.62326 C 28.575426 88.377561 24.385572 86.794171 22.231862 86.228853 C 20.078152 85.663536 16.228489 84.305273 13.056707 81.818876 C 10.112553 78.877223 5.239815 73.90693 3.618905 75.200157 C 2.100552 77.178769 2.405723 78.67711 3.436302 79.930315 C 4.426859 81.130989 6.08529 82.106537 7.451058 83.062074 C 8.043891 83.627392 8.424104 83.840011 9.089478 84.422839 C 9.244565 84.58543 13.121744 87.494564 15.092851 89.62326 C 21.956708 96.537145 19.737961 95.616628 25.968962 98.215588 " transform="matrix(-1.561622,0,0,1.561622,446.409174,0.194678)"/>
<path style="fill-rule:nonzero;fill:rgb(38.039216%,20.784314%,9.803922%);fill-opacity:1;stroke-width:0.24;stroke-linecap:butt;stroke-linejoin:miter;stroke:rgb(0%,0%,0%);stroke-opacity:1;stroke-miterlimit:4;" d="M 22.824695 70.39996 C 23.84777 72.688746 25.628771 76.505891 28.68799 77.268819 C 31.747208 78.031748 31.99985 79.302462 36.589929 77.779106 C 41.177507 76.250747 40.922363 76.250747 42.96351 72.943889 C 44.999654 69.637031 44.744511 67.856031 44.489368 65.312101 C 44.234224 62.765671 41.177507 58.951027 38.628575 58.188099 C 36.077141 57.42517 32.254994 57.170027 28.68799 57.935457 C 25.118484 58.695884 24.608197 60.987171 23.84777 62.260387 C 23.08234 63.531101 21.806623 68.108673 22.824695 70.39996 Z M 22.824695 70.39996 " transform="matrix(-1.561622,0,0,1.561622,446.409174,0.194678)"/>
<path style="fill-rule:nonzero;fill:rgb(20%,9.803922%,2.745098%);fill-opacity:1;stroke-width:0.24;stroke-linecap:butt;stroke-linejoin:miter;stroke:rgb(0%,0%,0%);stroke-opacity:1;stroke-miterlimit:4;" d="M 32.76528 61.239813 C 29.961205 61.494957 28.68799 61.239813 27.412273 63.020814 C 26.141559 64.804316 25.403644 71.302967 27.074583 73.536722 C 28.262751 74.299651 29.368372 74.977532 30.981778 74.977532 C 32.597686 74.977532 35.059069 74.809938 36.16469 74.299651 C 37.26781 73.791866 38.796169 73.961961 39.731694 72.688746 C 40.664719 71.415531 41.089958 70.73765 41.007411 68.786554 C 40.922363 66.837959 40.922363 65.482197 40.071886 64.294029 C 39.221408 63.105862 38.628575 61.494957 37.012667 61.072219 C 35.39926 60.64698 35.569356 60.987171 32.76528 61.239813 Z M 32.76528 61.239813 " transform="matrix(-1.561622,0,0,1.561622,446.409174,0.194678)"/>
<path style=" stroke:none;fill-rule:nonzero;fill:rgb(99.215686%,98.039216%,98.039216%);fill-opacity:1;" d="M 247.378906 72.234375 C 248.703125 72.238281 250.058594 72.367188 251.425781 72.652344 C 257.65625 73.976562 276.5 81.128906 281.140625 84.4375 C 285.785156 87.753906 290.5625 94.238281 292.550781 97.550781 C 294.542969 100.859375 300.777344 107.878906 303.566406 111.058594 C 306.351562 114.238281 312.71875 121.917969 314.574219 124.300781 C 316.433594 126.6875 316.300781 130.125 316.300781 131.71875 C 316.300781 133.308594 316.433594 134.761719 314.84375 139.136719 C 313.25 143.503906 312.054688 147.742188 310.066406 148.007812 C 308.074219 148.269531 304.492188 148.539062 299.1875 148.007812 C 293.878906 147.476562 280.878906 146.152344 277.828125 145.757812 C 274.773438 145.359375 271.191406 146.152344 268.410156 144.296875 C 265.621094 142.445312 259.253906 139.136719 255.402344 135.292969 C 251.558594 131.453125 243.328125 124.300781 241.339844 120.597656 C 239.351562 116.886719 233.511719 106.160156 232.714844 102.320312 C 231.921875 98.480469 230.460938 89.339844 230.460938 88.015625 C 230.460938 86.6875 232.453125 76.097656 235.769531 74.773438 C 238.363281 73.738281 242.652344 72.21875 247.378906 72.234375 Z M 247.378906 72.234375 "/>
<path style="fill-rule:nonzero;fill:rgb(99.215686%,98.039216%,98.039216%);fill-opacity:1;stroke-width:0.24;stroke-linecap:butt;stroke-linejoin:miter;stroke:rgb(0%,0%,0%);stroke-opacity:1;stroke-miterlimit:4;" d="M 125.905111 0.117972 C 125.169697 0.115471 123.974026 0.750828 123.50126 0.975954 C 122.425656 1.481238 120.837263 2.271682 119.706628 2.839502 C 118.57099 3.402318 117.667983 3.742509 115.969528 4.930676 C 114.268573 6.118844 111.549545 8.55021 110.361377 8.947934 C 109.170708 9.340654 109.568432 9.340654 109.283272 8.662773 C 109.003114 7.984892 109.003114 7.532138 109.283272 5.100772 C 109.568432 2.669406 108.492828 4.422891 106.679309 5.440963 C 104.86579 6.456534 104.698196 7.021851 102.99724 8.605241 C 101.296284 10.188631 100.393277 10.413757 99.202608 10.753948 C 98.011939 11.094139 97.559185 10.416258 97.218993 8.830367 C 97.128943 8.397624 97.734283 6.659148 97.108932 6.909288 C 95.455503 7.564656 91.490775 11.747006 90.425176 13.015219 C 88.95435 14.768704 86.968234 15.278991 86.855671 14.99383 C 86.743108 14.713673 86.402916 14.543577 86.175289 14.543577 C 85.950162 14.543577 83.796452 16.349592 83.006008 16.972442 C 82.213062 17.592791 74.168543 24.379103 76.547379 23.98138 C 78.928717 23.588659 83.231134 22.685652 88.103872 23.701223 C 92.971607 24.719295 101.921636 24.831858 103.735154 24.886889 C 105.546172 24.944421 115.061518 28.44889 121.462615 29.241836 C 127.863711 30.03228 142.134229 36.590965 150.006152 37.043719 C 157.880576 37.496473 169.602161 45.520982 174.419868 47.106873 C 179.235074 48.690263 191.749605 58.075536 194.413602 59.543861 C 196.26214 60.566935 201.212422 62.600578 205.21467 63.933827 C 206.968155 64.519156 205.344743 62.993299 206.137689 62.598077 C 206.928133 62.202854 210.102416 62.598077 211.630775 62.653107 C 213.159134 62.713141 217.521585 62.08779 219.107476 61.409909 C 220.693367 60.732028 220.012984 56.32205 220.068015 55.02132 C 220.100534 54.350943 220.783417 51.616907 220.410708 48.972921 C 220.060511 46.504034 218.649719 44.115192 218.539657 43.487339 C 218.429595 42.846979 217.253934 40.278036 215.710567 37.891695 C 214.127178 35.44282 212.171079 33.179048 211.855901 32.57871 C 211.235553 31.390543 205.684934 26.355214 204.666862 25.677333 C 203.643788 24.999452 197.020066 20.476911 195.94196 19.969126 C 194.866356 19.46134 193.1654 17.990514 189.483332 17.087507 C 187.937463 16.707293 186.424113 15.931857 184.785692 15.559148 C 182.524422 15.048861 180.240639 15.008839 179.290105 15.106394 C 177.646681 15.278991 177.248958 15.106394 176.288418 14.99383 C 175.325377 14.881267 175.610537 14.713673 174.362336 14.936298 C 173.116636 15.161425 172.606349 15.559148 171.588277 15.956871 C 170.567704 16.349592 170.112448 16.181998 169.036844 16.237029 C 167.963741 16.294561 167.851178 15.504117 167.395922 15.221458 C 166.943168 14.936298 166.037659 15.161425 164.056546 15.221458 C 162.072931 15.278991 162.698283 15.106394 162.185494 14.203386 C 161.675208 13.297878 161.562644 12.507433 161.562644 12.507433 C 161.562644 12.507433 160.712167 12.337338 159.57903 12.39487 C 158.445893 12.449901 158.105702 12.052178 157.427821 11.491863 C 156.747439 10.921542 156.920036 10.866511 156.182121 9.453217 C 155.444207 8.039923 155.956995 8.717804 154.991453 8.605241 C 154.030913 8.492678 153.690722 8.662773 151.537012 8.662773 C 149.383302 8.662773 150.573971 8.26505 149.893588 7.474606 C 149.215707 6.68166 149.328271 6.399001 149.328271 6.399001 C 149.328271 6.399001 148.252666 6.741694 147.402189 6.909288 C 146.554212 7.079384 145.876331 7.587169 144.400502 7.362042 C 142.927174 7.134415 143.550024 6.34397 143.550024 6.34397 L 143.09727 4.930676 C 143.09727 4.930676 141.288754 5.608557 140.323211 5.946247 C 139.36017 6.286438 138.397129 6.456534 137.831811 6.286438 C 137.266494 6.118844 137.093897 5.213335 136.471047 3.234724 C 135.850698 1.256112 135.167815 1.766399 134.207275 1.991525 C 133.244234 2.216652 132.904043 2.444279 131.996033 2.897034 C 131.090524 3.347287 127.918742 4.477922 127.408455 4.422891 C 126.90067 4.365359 126.105223 4.365359 126.217786 2.897034 C 126.272817 2.221654 126.818123 0.605746 126.335352 0.23804 C 126.22529 0.155494 126.077707 0.122975 125.905111 0.117972 Z M 125.905111 0.117972 " transform="matrix(-1.561622,0,0,1.561622,446.409174,0.194678)"/>
<path style="fill-rule:nonzero;fill:rgb(94.117647%,81.960785%,78.039217%);fill-opacity:1;stroke-width:0.24;stroke-linecap:butt;stroke-linejoin:miter;stroke:rgb(0%,0%,0%);stroke-opacity:1;stroke-miterlimit:4;" d="M 148.562841 33.424185 C 148.735438 32.068424 150.008653 30.287423 150.944179 28.931661 C 151.877203 27.570897 155.021469 25.36966 157.060115 23.841301 C 159.096259 22.315444 159.43645 21.722611 161.730239 19.431324 C 164.024027 17.142538 164.341706 18.200632 164.899519 16.802346 C 163.793898 17.312633 161.562644 18.921037 160.371976 19.686467 C 159.183808 20.449396 158.418378 20.959682 156.890019 22.14785 C 155.359159 23.333516 153.748254 24.011397 152.472537 25.36966 C 151.196821 26.725422 150.263796 26.978064 149.495865 27.48835 C 148.735438 27.996136 145.758765 30.625113 144.48555 31.643185 C 143.212334 32.663758 142.699546 32.746304 142.021666 31.895827 C 141.343785 31.050352 142.617 30.119829 143.550024 28.759064 C 144.48555 27.403303 145.758765 26.300183 147.374673 24.606731 C 148.98808 22.908277 148.903032 23.16342 150.944179 21.212324 C 152.980323 19.263729 153.150418 19.771515 155.869446 17.227585 C 156.649884 16.339586 158.255787 15.168929 158.135719 14.828738 C 157.012588 15.361537 155.784398 16.294561 153.323015 17.737872 C 150.856629 19.178682 149.495865 20.196754 148.562841 20.619491 C 147.627315 21.04473 142.021666 24.691779 138.877399 28.081183 C 135.735634 31.475591 135.48049 28.674016 136.330968 26.725422 C 137.178945 24.774325 138.029422 24.859373 139.135044 23.245967 C 140.238163 21.637563 144.060311 18.500801 147.712363 15.446585 C 151.369417 12.39487 151.369417 12.309822 149.495865 13.240345 C 147.627315 14.175871 146.866888 14.596107 145.333526 15.61668 C 143.805168 16.634752 141.854071 17.650323 139.897972 19.516371 C 137.944375 21.38242 142.021666 17.737872 133.611941 24.691779 C 125.199714 31.643185 131.655842 25.199564 131.913486 23.756253 C 132.166128 22.315444 132.931558 20.959682 134.207275 19.263729 C 135.48049 17.565275 137.774279 16.462155 143.124785 12.137225 C 148.477793 7.812295 145.080884 9.765893 143.550024 10.358726 C 142.021666 10.954061 141.343785 11.884583 139.560283 12.902655 C 137.774279 13.918226 135.905729 15.61668 134.374869 16.7198 C 132.84651 17.82292 132.253677 19.093634 127.240861 22.400492 C 122.228045 25.70735 122.39814 24.096445 123.076021 22.48554 C 123.756403 20.874634 124.859523 20.196754 126.815622 17.737872 C 128.76922 15.278991 130.892913 14.003274 134.632514 11.121655 C 138.369614 8.237534 137.944375 7.049367 135.140299 9.593296 C 132.338725 12.137225 133.099152 10.866511 131.31565 12.137225 C 129.53465 13.412942 129.447101 13.833178 121.122423 19.346276 C 112.797746 24.859373 116.109607 20.619491 116.449798 18.328204 C 116.634902 17.090008 118.591001 14.953808 121.122423 12.887647 C 123.096032 11.271739 125.45986 9.015471 127.578551 7.769772 C 127.766156 7.65971 128.909298 7.101896 129.094402 6.996837 C 130.237545 6.103836 131.203087 5.633571 131.595808 4.467916 C 129.131923 6.161368 127.751148 6.711677 126.13524 7.899845 C 124.521833 9.088012 122.990973 9.933487 122.140495 10.188631 C 121.290018 10.443774 120.186898 11.631942 112.625149 17.82292 C 105.065902 24.011397 109.483384 17.905466 109.821074 15.871824 C 110.163766 13.833178 115.939511 9.17306 119.846707 5.183318 C 123.756403 1.201081 119.421468 4.422891 117.637966 5.693605 C 115.856965 6.96682 115.174081 7.134415 113.050388 8.915415 C 110.929196 10.696416 107.189595 13.750632 105.91638 14.596107 C 104.640663 15.446585 101.754041 18.243156 99.880489 20.787085 C 98.011939 23.333516 97.24901 22.14785 97.166464 22.14785 C 97.078915 22.14785 97.24901 20.366849 97.504154 19.431324 C 97.759297 18.500801 100.563372 14.258417 101.921636 12.902655 C 103.2824 11.546894 105.831332 7.474606 105.406093 8.06994 C 104.980854 8.662773 103.364946 10.018535 102.261827 11.206703 C 101.156205 12.39487 95.040269 17.905466 94.022197 18.921037 C 92.999122 19.94161 91.98105 21.890205 90.705334 22.48554 C 89.43462 23.078373 89.602214 21.975253 89.347071 21.38242 C 89.094429 20.787085 91.388217 15.361537 92.153647 14.003274 C 92.916576 12.647512 95.040269 9.508248 94.274839 10.271177 C 93.509409 11.036607 92.746481 12.137225 91.98105 12.817608 C 91.21562 13.49799 90.962978 13.412942 89.176975 16.7198 C 87.393473 20.024157 85.524923 22.062802 84.591899 22.14785 C 83.656373 22.230396 82.975991 21.805157 83.06354 21.469969 C 83.146087 21.127276 83.741421 19.603921 84.16666 18.753443 C 84.591899 17.905466 86.375401 15.361537 86.202804 15.021346 C 86.03521 14.683656 83.656373 17.737872 82.465704 19.516371 C 81.277537 21.297372 74.168543 24.379103 76.547379 23.98138 C 78.928717 23.588659 83.231134 22.685652 88.103872 23.701223 C 92.971607 24.719295 101.921636 24.831858 103.735154 24.886889 C 105.546172 24.944421 115.061518 28.44889 121.462615 29.241836 C 127.863711 30.03228 142.134229 36.590965 150.008653 37.043719 C 150.406376 37.066232 148.392745 34.782448 148.562841 33.424185 Z M 148.562841 33.424185 " transform="matrix(-1.561622,0,0,1.561622,446.409174,0.194678)"/>
<path style="fill-rule:nonzero;fill:rgb(99.215686%,98.039216%,98.039216%);fill-opacity:1;stroke-width:0.24;stroke-linecap:round;stroke-linejoin:round;stroke:rgb(0%,0%,0%);stroke-opacity:1;stroke-miterlimit:4;" d="M 93.877116 113.31157 C 93.619471 113.316572 93.016632 113.336584 91.840972 113.366601 C 90.097492 113.409124 87.140831 113.456651 84.004069 113.491671 C 87.140831 117.661514 84.93209 114.782396 86.573012 121.39361 C 86.573012 121.39361 88.781753 129.085432 89.234507 131.119075 C 89.687262 133.152717 93.199235 141.124696 93.882119 142.142768 C 94.559999 143.158339 96.936335 145.534674 97.619218 146.837906 C 98.297099 148.133634 99.372703 149.774556 100.50584 151.528041 C 101.636475 153.281527 101.636475 154.071971 103.507527 155.99305 C 105.376076 157.916631 106.284087 159.274894 106.794373 159.274894 C 107.302159 159.274894 107.0195 159.670116 107.925008 158.144259 C 108.830517 156.6159 109.963654 153.959407 110.756599 153.506653 C 111.549545 153.053899 112.68018 150.284843 112.68018 150.284843 L 113.418095 148.133634 C 113.418095 148.133634 114.326105 147.230627 114.778859 145.141953 C 115.231614 143.048277 115.399208 140.957102 116.082091 139.768935 C 116.759972 138.580767 117.497887 135.303926 117.497887 135.303926 C 117.497887 135.303926 118.178269 131.796956 117.552918 130.383661 C 116.930068 128.967866 115.061518 126.088748 115.006487 126.088748 C 114.948955 126.088748 113.080405 123.940041 109.625964 122.184055 C 106.169022 120.435572 103.394963 117.774077 102.034199 117.54895 C 100.675936 117.326325 98.011939 116.078124 98.011939 116.025594 C 98.011939 115.968062 96.315986 115.290181 94.559999 115.175117 C 93.764553 115.175117 92.804013 114.212076 92.804013 114.212076 C 92.283721 113.479164 94.647549 113.306567 93.877116 113.31157 Z M 93.877116 113.31157 " transform="matrix(-1.561622,0,0,1.561622,446.409174,0.194678)"/>
<path style=" stroke:none;fill-rule:nonzero;fill:rgb(74.117649%,74.117649%,100%);fill-opacity:1;" d="M 315.226562 177.425781 C 310.328125 183.9375 313.777344 179.441406 311.214844 189.765625 C 311.214844 189.765625 307.765625 201.777344 307.058594 204.953125 C 306.351562 208.128906 300.867188 220.578125 299.800781 222.167969 C 298.742188 223.757812 295.03125 227.464844 293.964844 229.5 C 292.90625 231.523438 291.226562 234.085938 289.457031 236.824219 C 287.691406 239.5625 287.691406 240.796875 284.769531 243.796875 C 281.851562 246.800781 280.433594 248.921875 279.636719 248.921875 C 279.734375 248.332031 281.78125 245.847656 282.078125 242.738281 C 282.53125 238.023438 287.417969 234.164062 291.949219 228.242188 C 295.035156 224.214844 297.03125 218.816406 300.957031 213.179688 C 304.800781 207.660156 304.066406 200.703125 307.359375 195.710938 C 308.871094 193.421875 307.425781 186.703125 308.34375 185.078125 C 312.582031 180.839844 311.171875 179.566406 314.027344 177.632812 C 314.367188 177.398438 314.734375 177.652344 315.226562 177.425781 Z M 315.226562 177.425781 "/>
<path style="fill-rule:nonzero;fill:rgb(99.215686%,98.039216%,98.039216%);fill-opacity:1;stroke-width:0.24;stroke-linecap:round;stroke-linejoin:round;stroke:rgb(0%,0%,0%);stroke-opacity:1;stroke-miterlimit:4;" d="M 198.263265 102.400439 C 194.356069 103.813733 188.75042 102.910726 185.180914 104.148922 C 181.61391 105.394622 174.647496 106.978011 171.983499 108.166179 C 169.322004 109.354346 161.617675 110.597545 159.979255 111.162862 C 158.33333 111.72818 144.908287 114.552267 143.157304 115.007522 C 141.396314 115.460277 141.736505 116.305752 141.736505 116.305752 C 141.736505 116.305752 144.002779 119.585094 147.627315 121.621238 C 151.254353 123.657382 159.861689 128.860306 164.506799 129.875876 C 169.15441 130.893948 180.138081 132.589901 182.972173 134.626045 C 185.803764 136.659688 187.389655 136.772251 190.446373 137.562695 C 193.505591 138.355641 195.999493 138.69333 198.038138 137.67776 C 200.079285 136.659688 205.399774 134.283353 207.325856 132.24971 C 209.25444 130.216067 209.932321 130.778884 211.743338 126.82166 C 213.556857 122.861935 214.91512 122.184055 214.462366 117.891643 C 214.009612 113.594228 213.897048 110.312385 213.444294 108.84406 C 212.99154 107.375735 210.044884 103.643638 209.136874 103.41601 C 208.233866 103.190883 200.699633 103.303447 200.699633 103.303447 C 198.71852 103.643638 198.888616 103.07832 198.263265 102.400439 Z M 198.263265 102.400439 " transform="matrix(-1.561622,0,0,1.561622,446.409174,0.194678)"/>
<path style="fill-rule:nonzero;fill:rgb(99.215686%,98.039216%,98.039216%);fill-opacity:1;stroke-width:0.24;stroke-linecap:round;stroke-linejoin:round;stroke:rgb(0%,0%,0%);stroke-opacity:1;stroke-miterlimit:4;" d="M 284.766866 45.783629 C 284.129008 45.781128 282.930835 45.993747 280.446939 46.596586 C 276.029457 47.672191 268.66532 50.441246 264.64306 52.082168 C 260.623301 53.72309 257.451519 54.513534 253.544324 56.154456 C 250.259979 57.225058 246.405313 58.921011 242.898343 59.996615 C 240.346909 61.352377 230.378808 64.406593 233.493058 63.783743 C 236.609809 63.163394 236.777403 64.57919 237.120096 65.707323 C 237.460287 66.837959 238.81855 69.436919 238.418325 71.077841 C 238.025605 72.718763 237.515318 74.694873 237.400253 76.110669 C 237.28769 77.521461 236.66484 78.256874 236.834936 80.122923 C 237.007533 81.98647 238.080636 86.171321 237.232659 87.474553 C 236.382181 88.772783 235.306577 90.753896 234.513632 91.374244 C 233.718185 91.994593 230.831563 93.80561 229.753457 94.200832 C 228.677853 94.596054 228.057504 95.163873 227.489685 95.163873 C 226.924368 95.163873 234.060877 96.574666 235.41914 97.197516 C 236.777403 97.817865 246.295251 101.83262 248.956746 102.568033 C 251.618242 103.303447 263.850114 107.768455 265.155848 107.881019 C 266.456579 107.996083 277.615348 111.275426 278.578389 111.217893 C 279.54143 111.162862 282.768243 111.162862 282.768243 111.162862 L 282.65568 100.474357 C 282.65568 100.474357 281.069789 92.164688 280.161779 90.468736 C 279.25627 88.772783 277.332689 83.062074 276.649806 82.496757 C 275.971925 81.931439 275.181481 80.01036 275.181481 80.01036 C 275.181481 80.01036 275.691767 78.824693 276.369648 77.806621 C 277.727911 76.053136 278.465826 72.776295 279.201239 70.910247 C 280.957226 67.628403 282.488086 62.765671 282.880806 60.957155 C 282.880806 60.957155 285.43224 51.571882 285.43224 51.516851 C 285.43224 51.459318 285.997558 46.484023 285.599834 46.091302 C 285.427237 45.916204 285.267147 45.783629 284.766866 45.783629 Z M 284.766866 45.783629 " transform="matrix(-1.561622,0,0,1.561622,446.409174,0.194678)"/>
<path style=" stroke:none;fill-rule:nonzero;fill:rgb(100%,100%,100%);fill-opacity:1;" d="M 405.191406 104.832031 C 404.660156 105.496094 403.996094 105.761719 402.273438 105.234375 C 400.546875 104.703125 400.019531 103.773438 396.832031 103.640625 C 393.652344 103.511719 392.191406 103.511719 390.734375 103.773438 C 389.269531 104.039062 388.339844 103.109375 388.078125 103.773438 C 387.808594 104.4375 385.6875 104.964844 388.875 105.628906 C 392.054688 106.292969 392.585938 107.878906 394.972656 107.878906 C 397.363281 107.878906 397.496094 108.941406 399.882812 108.675781 C 402.273438 108.410156 404.660156 109.734375 404.792969 110.398438 C 404.921875 111.058594 407.621094 109.953125 407.621094 108.894531 C 407.621094 107.835938 405.722656 104.175781 405.191406 104.832031 Z M 405.191406 104.832031 "/>
<path style="fill:none;stroke-width:0.24;stroke-linecap:butt;stroke-linejoin:miter;stroke:rgb(0%,0%,0%);stroke-opacity:1;stroke-miterlimit:4;" d="M 73.545693 53.43793 C 73.545693 53.43793 75.49929 53.693073 76.60241 54.030763 C 77.710533 54.370954 80.256963 55.896811 81.615226 57.677812 C 82.975991 59.458813 85.524923 60.899622 86.80064 61.494957 C 88.073855 62.08779 88.073855 64.461624 87.986306 65.902433 C 87.90376 67.345744 86.117756 71.415531 85.357329 72.433603 C 84.591899 73.454176 81.447632 82.018988 79.746677 84.305273 C 78.050724 86.59656 71.847238 98.215588 70.31888 100.249231 C 68.78802 102.285375 64.373039 101.607494 61.481414 104.829304 C 58.594793 108.053615 55.025287 106.355161 50.605304 107.11809 C 47.105838 107.725931 43.556343 106.692851 43.556343 106.692851 M 3.436302 79.930315 C 2.088045 78.291894 1.980484 76.228235 5.577505 73.229049 C 10.902997 68.308785 21.323852 59.206171 25.628771 55.6992 C 29.933689 52.194731 41.487681 44.16522 46.135292 41.678823 C 51.11559 37.834163 51.795973 36.816091 57.008902 33.819407 C 63.124838 29.469463 74.168543 24.379103 76.547379 23.98138 C 78.928717 23.588659 83.231134 22.685652 88.103872 23.701223 C 92.971607 24.719295 101.921636 24.831858 103.735154 24.886889 C 105.546172 24.944421 115.061518 28.44889 121.462615 29.241836 C 127.863711 30.03228 142.134229 36.590965 150.008653 37.043719 C 157.880576 37.496473 169.602161 45.520982 174.419868 47.106873 C 179.235074 48.690263 191.749605 58.075536 194.413602 59.543861 C 197.075097 61.014687 206.137689 64.57919 209.594631 65.139504 C 213.04657 65.707323 216.443479 66.327672 218.824817 66.327672 C 221.203653 66.327672 223.239797 66.780426 227.31959 65.364631 C 231.39688 63.953838 230.378808 64.406593 233.493058 63.783743 C 236.609809 63.163394 236.777403 64.57919 237.120096 65.707323 C 237.460287 66.837959 238.81855 69.436919 238.418325 71.077841 C 238.025605 72.718763 237.515318 74.697374 237.400253 76.110669 C 237.28769 77.521461 236.66484 78.256874 236.834936 80.122923 C 237.007533 81.98647 238.080636 86.171321 237.232659 87.474553 C 236.382181 88.772783 235.306577 90.753896 234.513632 91.374244 C 233.718185 91.997094 230.831563 93.80561 229.753457 94.200832 C 228.677853 94.596054 228.057504 95.163873 227.489685 95.163873 C 226.924368 95.163873 224.487999 94.878713 222.506886 94.993778 C 220.523271 95.106341 214.462366 96.009348 211.743338 97.084953 C 209.024311 98.160557 207.608515 98.725875 204.94702 99.57135 C 202.285524 100.419326 202.172961 100.984644 198.263265 102.400439 C 194.356069 103.813733 188.75042 102.910726 185.180914 104.148922 C 181.61391 105.394622 174.647496 106.978011 171.983499 108.166179 C 169.322004 109.354346 161.617675 110.597545 159.979255 111.162862 C 158.33333 111.72818 144.908287 114.552267 143.157304 115.007522 C 141.396314 115.460277 142.134229 115.175117 136.696173 115.460277 C 131.263121 115.740434 130.240046 115.515308 128.316465 115.968062 C 126.390383 116.418315 122.990973 116.025594 121.34755 115.968062 C 119.706628 115.91053 105.15095 115.342711 100.903564 114.439703 C 96.653676 113.534195 96.541113 113.254037 91.840972 113.366601 C 87.140831 113.479164 73.603225 113.649259 71.562078 113.366601 C 69.525934 113.083942 58.762387 111.898276 53.609492 110.710108 C 48.454095 109.52194 49.812358 109.184251 49.247041 108.956623 C 48.681723 108.731496 46.135292 107.26067 43.076073 106.525257 C 40.014353 105.789844 32.312526 103.868764 25.628771 99.796476 C 18.947517 95.729191 14.472503 93.577982 11.640912 91.824497 C 8.809321 90.076015 -0.368336 83.289702 0.144453 81.878909 C 0.652238 80.463114 1.940462 78.864716 2.733407 78.922248 M 16.508647 67.740966 C 15.943329 68.13869 15.718203 68.646475 15.718203 68.646475 M 12.716516 70.625086 C 13.111738 71.415531 13.281834 71.813254 13.281834 71.755722 " transform="matrix(-1.561622,0,0,1.561622,446.409174,0.194678)"/>
<path style=" stroke:none;fill-rule:nonzero;fill:rgb(61.176473%,61.176473%,100%);fill-opacity:1;" d="M 334.929688 79.582031 C 334.929688 80.535156 335.476562 81.058594 336.421875 81.566406 C 337.011719 81.882812 337.894531 82.390625 338.492188 82.390625 C 340.042969 82.390625 340.546875 81.136719 340.546875 79.582031 C 340.546875 78.03125 340.152344 76.878906 338.605469 76.878906 C 337.699219 76.878906 336.609375 77.269531 335.847656 77.898438 C 335.300781 78.355469 334.929688 78.929688 334.929688 79.582031 Z M 416.8125 125.382812 C 416.8125 125.621094 416.871094 125.816406 417.109375 125.816406 C 417.347656 125.816406 417.675781 125.621094 417.675781 125.382812 C 417.675781 125.144531 417.535156 124.816406 417.292969 124.816406 C 417.058594 124.816406 416.8125 125.144531 416.8125 125.382812 Z M 421.457031 119.875 C 421.726562 120.335938 422.140625 120.601562 422.546875 120.832031 C 422.917969 121.035156 423.730469 121.292969 423.964844 121.570312 C 424.730469 122.484375 425.234375 120.863281 425.234375 119.550781 C 425.234375 118.238281 424.484375 117.929688 423.292969 117.929688 C 422.097656 117.929688 420.796875 118.742188 421.457031 119.875 Z M 421.457031 119.875 "/>
<path style="fill:none;stroke-width:0.24;stroke-linecap:round;stroke-linejoin:round;stroke:rgb(0%,0%,0%);stroke-opacity:1;stroke-miterlimit:4;" d="M 127.450979 46.131325 C 126.603003 46.133826 125.735015 46.216373 124.859523 46.398975 C 120.869781 47.246952 108.803002 51.827025 105.831332 53.945715 C 102.857161 56.069408 99.797942 60.221741 98.524727 62.342933 C 97.24901 64.461624 93.256767 68.956649 91.470764 70.992793 C 89.687262 73.028937 85.609971 77.9467 84.421803 79.472557 C 83.231134 81.000916 83.316182 83.202153 83.316182 84.222726 C 83.316182 85.240798 83.231134 86.171321 84.249206 88.972895 C 85.26978 91.769466 86.03521 94.483491 87.308425 94.653587 C 88.584142 94.821181 90.877931 94.993778 94.274839 94.653587 C 97.674249 94.313396 105.998926 93.465419 107.952524 93.212777 C 109.908623 92.957634 112.202412 93.465419 113.983412 92.277252 C 115.769416 91.091585 119.846707 88.972895 122.313092 86.511512 C 124.774475 84.052631 130.044936 79.472557 131.318152 77.101225 C 132.591367 74.72489 136.330968 67.856031 136.841255 65.397149 C 137.34904 62.938268 138.284566 57.084979 138.284566 56.237003 C 138.284566 55.386525 137.008849 48.605215 134.885156 47.757238 C 133.224223 47.094366 130.47768 46.121319 127.450979 46.131325 Z M 127.450979 46.131325 " transform="matrix(-1.561622,0,0,1.561622,446.409174,0.194678)"/>
<path style=" stroke:none;fill-rule:evenodd;fill:rgb(43.921569%,24.705882%,11.764706%);fill-opacity:1;" d="M 247.378906 72.234375 C 248.703125 72.238281 250.058594 72.367188 251.421875 72.652344 C 257.65625 73.976562 276.5 81.128906 281.140625 84.4375 C 285.785156 87.75 290.5625 94.242188 292.550781 97.550781 C 293.21875 98.65625 294.414062 100.214844 295.738281 101.867188 C 295.195312 106.746094 294.09375 110.417969 286.625 107.640625 C 284.648438 107.195312 282.984375 106.828125 280.996094 106.585938 C 278.378906 102.847656 279.324219 105.292969 279.335938 106.464844 C 276.398438 106.171875 273.445312 106.097656 270.507812 106.214844 C 270.257812 106.230469 269.179688 105.132812 268.929688 105.140625 C 268.691406 105.15625 269.285156 106.273438 269.046875 106.289062 C 266.402344 106.453125 263.773438 106.777344 261.15625 107.234375 C 261.015625 107.261719 259.898438 106.164062 259.757812 106.191406 C 259.640625 106.214844 260.492188 107.355469 260.375 107.375 C 255.933594 108.210938 251.5625 109.441406 247.300781 111 C 247.121094 111.070312 246.496094 110.421875 246.3125 110.488281 C 246.171875 110.542969 246.472656 111.3125 246.332031 111.367188 C 243.953125 112.269531 241.617188 113.277344 239.324219 114.367188 C 238.972656 114.464844 238.601562 114.601562 238.234375 114.714844 C 235.890625 110.207031 233.238281 104.828125 232.714844 102.316406 C 231.921875 98.480469 230.460938 89.339844 230.460938 88.015625 C 230.460938 86.695312 232.453125 76.09375 235.765625 74.773438 C 238.355469 73.738281 242.652344 72.21875 247.378906 72.234375 Z M 247.378906 72.234375 "/>
<path style="fill:none;stroke-width:0.24;stroke-linecap:round;stroke-linejoin:round;stroke:rgb(0%,0%,0%);stroke-opacity:1;stroke-miterlimit:4;" d="M 127.450979 46.131325 C 126.603003 46.133826 125.735015 46.216373 124.859523 46.398975 C 120.869781 47.246952 108.803002 51.827025 105.831332 53.945715 C 102.857161 56.069408 99.797942 60.221741 98.524727 62.342933 C 97.24901 64.461624 93.256767 68.956649 91.470764 70.992793 C 89.687262 73.028937 85.609971 77.9467 84.421803 79.472557 C 83.231134 81.000916 83.316182 83.202153 83.316182 84.222726 C 83.316182 85.240798 83.231134 86.171321 84.249206 88.972895 C 85.26978 91.769466 86.03521 94.483491 87.308425 94.653587 C 88.584142 94.821181 90.877931 94.993778 94.274839 94.653587 C 97.674249 94.313396 105.998926 93.465419 107.952524 93.212777 C 109.908623 92.957634 112.202412 93.465419 113.983412 92.277252 C 115.769416 91.091585 119.846707 88.972895 122.313092 86.511512 C 124.774475 84.052631 130.044936 79.472557 131.318152 77.101225 C 132.591367 74.72489 136.330968 67.856031 136.841255 65.397149 C 137.34904 62.938268 138.284566 57.084979 138.284566 56.237003 C 138.284566 55.386525 137.008849 48.605215 134.885156 47.757238 C 133.224223 47.094366 130.47768 46.121319 127.450979 46.131325 Z M 127.450979 46.131325 " transform="matrix(-1.561622,0,0,1.561622,446.409174,0.194678)"/>
<path style="fill:none;stroke-width:0.24;stroke-linecap:round;stroke-linejoin:round;stroke:rgb(0%,0%,0%);stroke-opacity:1;stroke-miterlimit:4;" d="M 93.877116 113.31157 C 93.619471 113.316572 93.016632 113.336584 91.840972 113.366601 C 90.097492 113.409124 87.140831 113.456651 84.004069 113.491671 C 87.140831 117.661514 84.93209 114.782396 86.573012 121.39361 C 86.573012 121.39361 88.781753 129.085432 89.234507 131.119075 C 89.687262 133.152717 93.199235 141.124696 93.882119 142.142768 C 94.559999 143.158339 96.936335 145.534674 97.619218 146.837906 C 98.297099 148.133634 99.372703 149.774556 100.50584 151.528041 C 101.636475 153.281527 101.636475 154.071971 103.507527 155.99305 C 105.376076 157.916631 106.284087 159.274894 106.794373 159.274894 C 107.302159 159.274894 107.0195 159.670116 107.925008 158.144259 C 108.830517 156.6159 109.963654 153.959407 110.756599 153.506653 C 111.549545 153.053899 112.68018 150.284843 112.68018 150.284843 L 113.418095 148.133634 C 113.418095 148.133634 114.326105 147.230627 114.778859 145.141953 C 115.231614 143.048277 115.399208 140.957102 116.082091 139.768935 C 116.759972 138.580767 117.497887 135.303926 117.497887 135.303926 C 117.497887 135.303926 118.178269 131.796956 117.552918 130.383661 C 116.930068 128.967866 115.061518 126.088748 115.006487 126.088748 C 114.948955 126.088748 113.080405 123.940041 109.625964 122.184055 C 106.169022 120.435572 103.394963 117.774077 102.034199 117.54895 C 100.675936 117.326325 98.011939 116.078124 98.011939 116.025594 C 98.011939 115.968062 96.315986 115.290181 94.559999 115.175117 C 93.764553 115.175117 92.804013 114.212076 92.804013 114.212076 C 92.283721 113.479164 94.647549 113.306567 93.877116 113.31157 Z M 93.877116 113.31157 " transform="matrix(-1.561622,0,0,1.561622,446.409174,0.194678)"/>
</g>
</svg>
