<?xml version="1.0" encoding="UTF-8"?>
<!-- Created by grConvert v0.1-0 -->
<svg xmlns="http://www.w3.org/2000/svg" xmlns:xlink="http://www.w3.org/1999/xlink" width="357pt" height="199pt" viewBox="0 0 357 199" version="1.1">
<g id="surface81">
<path style="fill-rule:nonzero;fill:rgb(96.470588%,92.54902%,89.803922%);fill-opacity:1;stroke-width:0.24;stroke-linecap:butt;stroke-linejoin:miter;stroke:rgb(0%,0%,0%);stroke-opacity:1;stroke-miterlimit:4;" d="M 73.546898 53.437583 C 73.546898 53.437583 75.500026 53.693833 76.603153 54.031334 C 77.709405 54.371959 80.256283 55.896962 81.615661 57.678215 C 82.975038 59.459467 85.525042 60.900095 86.800044 61.493845 C 88.075046 62.087596 88.075046 64.4626 87.987545 65.903227 C 87.90317 67.34698 86.118793 71.415736 85.356291 72.434487 C 84.590665 73.453239 81.44691 82.018877 79.746908 84.306381 C 78.05003 86.597009 71.846895 98.215778 70.318768 100.250156 C 68.787516 102.284534 64.371884 101.606408 61.481254 104.828288 C 58.59375 108.053293 55.024994 106.356415 50.606237 107.118916 C 47.106232 107.725167 43.556226 106.693916 43.556226 106.693916 M 3.437414 79.931374 C 2.087412 78.290747 1.981162 76.228243 5.578042 73.228239 C 10.903051 68.309481 21.324942 59.206342 25.628074 55.700086 C 29.93433 52.193831 41.487473 44.165694 46.134355 41.67819 C 51.115613 37.834434 51.796864 36.815682 57.009372 33.818803 C 63.125007 29.468796 74.168774 24.378163 76.546903 23.981287 C 78.928156 23.587537 83.231288 22.68441 88.103171 23.700037 C 92.971928 24.718788 101.921942 24.831289 103.734445 24.887539 C 105.546948 24.943789 115.062588 28.450044 121.462597 29.24067 C 127.862607 30.031297 142.134505 36.590682 150.009517 37.043808 C 157.881404 37.496933 169.603297 45.521946 174.41893 47.106323 C 179.234562 48.690701 191.750207 58.07509 194.412711 59.543842 C 197.075215 61.01572 206.137729 64.578225 209.593984 65.140726 C 213.047115 65.706352 216.443995 66.328228 218.825249 66.328228 C 221.203377 66.328228 223.240881 66.781354 227.319012 65.365727 C 231.397143 63.953224 230.378392 64.40635 233.494021 63.784474 C 236.609651 63.162598 236.778402 64.578225 237.119027 65.706352 C 237.459653 66.837604 238.81903 69.437608 238.419029 71.078235 C 238.025278 72.718863 237.515903 74.696991 237.400278 76.109493 C 237.287777 77.521995 236.665901 78.256372 236.834652 80.121999 C 237.006527 81.987627 238.081529 86.172009 237.231527 87.475136 C 236.381526 88.772013 235.306524 90.753266 234.512773 91.375142 C 233.719022 91.997018 230.831517 93.806396 229.753391 94.200146 C 228.678389 94.597022 228.056513 95.162648 227.490887 95.162648 C 226.925261 95.162648 224.487757 94.878272 222.506504 94.993898 C 220.522126 95.106398 214.462742 96.009524 211.743988 97.084526 C 209.025233 98.159527 207.609606 98.725153 204.947102 99.57203 C 202.284598 100.418906 202.172098 100.984532 198.262717 102.400159 C 194.356461 103.812661 188.750202 102.909535 185.181446 104.150162 C 181.612691 105.393914 174.647055 106.978291 171.984551 108.165793 C 169.322047 109.353295 161.61891 110.597047 159.978282 111.162673 C 158.33453 111.728299 144.909509 114.553303 143.156381 115.006429 C 141.397003 115.459554 142.134505 115.175179 136.696996 115.459554 C 131.262613 115.740805 130.240736 115.515804 128.315733 115.96893 C 126.39073 116.418931 122.990725 116.02518 121.346972 115.96893 C 119.706345 115.909555 105.150072 115.343929 100.903191 114.440803 C 96.653184 113.534551 96.540684 113.253301 91.840676 113.365801 C 87.140669 113.478301 73.603148 113.650176 71.56252 113.365801 C 69.525017 113.084551 58.7625 111.897049 53.609367 110.709547 C 48.453109 109.522045 49.812486 109.184545 49.24686 108.956419 C 48.681234 108.731419 46.134355 107.259542 43.074976 106.525165 C 40.015596 105.790789 32.312459 103.868911 25.628074 99.79703 C 18.946813 95.728274 14.471806 93.57827 11.640552 91.825143 C 8.809298 90.07514 -0.368842 83.290754 0.143659 81.878252 C 0.653035 80.462625 1.940537 78.865747 2.734288 78.921998 M 16.509309 67.74073 C 15.943684 68.137606 15.718683 68.646982 15.718683 68.646982 M 12.715554 70.62511 C 13.112429 71.415736 13.281179 71.812612 13.281179 71.756361 " transform="matrix(1.249998,0,0,1.249998,0.000113954,0)"/>
<path style=" stroke:none;fill-rule:evenodd;fill:rgb(38.823529%,21.960784%,10.588235%);fill-opacity:1;" d="M 112.148438 48.058594 C 109.410156 57.765625 118.414062 64.585938 119.121094 73.792969 C 121.972656 79.453125 118.105469 89.644531 127.898438 86.007812 C 129.480469 85.648438 130.8125 85.351562 132.40625 85.160156 C 134.5 82.164062 133.742188 84.125 133.734375 85.0625 C 136.085938 84.832031 138.449219 84.769531 140.800781 84.863281 C 141 84.871094 141.867188 83.996094 142.0625 84.003906 C 142.253906 84.015625 141.773438 84.914062 141.964844 84.925781 C 144.082031 85.054688 146.191406 85.3125 148.285156 85.679688 C 148.398438 85.703125 149.292969 84.824219 149.40625 84.84375 C 149.5 84.863281 148.816406 85.777344 148.910156 85.792969 C 152.464844 86.460938 155.964844 87.445312 159.371094 88.695312 C 159.519531 88.75 160.019531 88.230469 160.164062 88.285156 C 160.277344 88.328125 160.039062 88.945312 160.152344 88.988281 C 162.054688 89.710938 163.925781 90.515625 165.761719 91.390625 C 166.40625 91.566406 167.070312 91.78125 167.753906 92.027344 C 167.976562 92.105469 168.699219 91.519531 168.921875 91.605469 C 169.121094 91.679688 168.816406 92.429688 169.015625 92.507812 C 170.996094 93.296875 173.078125 94.28125 175.148438 95.203125 C 175.3125 95.277344 176.292969 94.265625 176.457031 94.335938 C 176.636719 94.417969 176 95.578125 176.179688 95.65625 C 180.296875 97.445312 184.273438 98.824219 187.167969 97.777344 C 190.65625 89.152344 192.203125 79.421875 188.113281 70.695312 C 185.566406 69.449219 183.148438 67.953125 180.761719 66.394531 C 180.46875 66.203125 180.75 67.644531 180.457031 67.449219 C 180.171875 67.261719 179.308594 65.4375 179.023438 65.246094 C 176.53125 63.589844 174.054688 61.914062 171.480469 60.429688 C 171.296875 60.324219 171.203125 61.988281 170.933594 60.117188 C 170.90625 59.941406 170.621094 59.941406 170.460938 59.855469 C 170.101562 59.660156 169.742188 59.464844 169.378906 59.277344 C 169.304688 59.238281 169.230469 59.199219 169.15625 59.164062 C 169.066406 59.117188 168.980469 59.074219 168.894531 59.03125 C 166.28125 57.714844 163.542969 56.660156 160.574219 56.0625 C 160.300781 55.972656 160.398438 56.945312 160.121094 56.859375 C 159.761719 56.742188 159.019531 55.570312 158.65625 55.460938 C 155.871094 54.625 153.050781 53.933594 150.207031 53.382812 C 149.832031 53.308594 150.015625 54.113281 149.636719 54.042969 C 149.394531 54 148.589844 53.082031 148.347656 53.039062 C 146.007812 52.636719 143.65625 52.324219 141.292969 52.097656 C 141.15625 52.085938 141.515625 53.109375 141.375 53.097656 C 141.175781 53.078125 140.476562 52.023438 140.273438 52.007812 C 138.277344 51.835938 136.273438 51.730469 134.265625 51.679688 C 133.367188 51.542969 132.476562 51.390625 131.582031 51.230469 C 131.394531 51.199219 131.679688 52.652344 131.492188 52.617188 C 131.203125 52.566406 130.445312 51.023438 130.15625 50.96875 C 124.179688 49.835938 118.242188 48.398438 112.148438 48.058594 Z M 61.632812 62.535156 C 51.890625 66.921875 56.195312 75.570312 57.5625 83.078125 C 60.554688 88.9375 64.898438 80.84375 71.441406 80.347656 L 80 79.699219 C 88.203125 79.078125 99.988281 86.4375 101.128906 74.398438 C 104.964844 66.886719 101.589844 57.992188 95.402344 53.003906 L 94.847656 51.832031 C 94.789062 51.585938 93.664062 50.6875 93.570312 50.628906 C 92.707031 50.054688 89.570312 50.878906 85.945312 52.148438 C 85.695312 52.238281 86.1875 54.640625 85.929688 54.734375 C 85.535156 54.878906 84.382812 52.710938 83.976562 52.863281 C 79.335938 54.601562 74.4375 56.765625 72.71875 57.542969 Z M 207.03125 78.207031 C 207.125 87.105469 207.570312 96.101562 208.792969 104.90625 C 215.179688 106.28125 223.472656 108.390625 220.398438 99.089844 C 219.089844 91.609375 222.339844 79.042969 211.347656 79.066406 C 209.925781 78.707031 208.484375 78.40625 207.03125 78.207031 Z M 234.164062 86.128906 C 235.230469 93.023438 236.914062 99.988281 234.757812 106.875 C 234.289062 107.484375 234.988281 107.191406 235.089844 107.328125 C 237.269531 107.207031 239.910156 107.566406 242.570312 107.9375 C 242.925781 107.988281 244.097656 106.789062 244.453125 106.839844 C 244.945312 106.90625 244.625 108.222656 245.109375 108.285156 C 249.039062 108.785156 252.679688 108.984375 254.535156 107.316406 C 253.019531 100.867188 252.769531 91.273438 250.011719 86.976562 C 247.648438 86.359375 245.246094 86.070312 242.824219 85.914062 C 242.59375 85.898438 242.984375 86.695312 242.753906 86.683594 C 242.441406 86.667969 241.503906 85.839844 241.191406 85.824219 C 238.996094 85.726562 236.792969 85.703125 234.605469 85.609375 C 233.992188 85.605469 234.308594 85.953125 234.164062 86.128906 Z M 274.746094 87.40625 C 272.859375 93.328125 275.5 91.484375 276.003906 98.082031 C 276.039062 98.554688 277.082031 98.550781 277.757812 98.65625 C 281.410156 98.761719 281.195312 96.839844 283.15625 96.378906 C 285.25 95.890625 288.253906 98.632812 287.089844 93.617188 C 286.453125 86.554688 279.648438 88.890625 274.746094 87.40625 Z M 274.746094 87.40625 "/>
<path style="fill:none;stroke-width:1.440002;stroke-linecap:round;stroke-linejoin:miter;stroke:rgb(74.117647%,74.117647%,100%);stroke-opacity:1;stroke-miterlimit:4;" d="M 25.824949 78.243872 C 28.662453 79.809499 29.92183 80.093874 30.718707 81.472002 C 32.112459 83.89388 36.243715 88.872013 36.39059 87.831386 M 43.728102 80.397 C 44.999979 81.081376 44.437478 81.390751 46.07498 84.015755 C 46.565606 84.797007 47.543733 87.04701 47.346857 87.731386 M 70.434393 60.831344 C 71.218769 64.546975 70.240643 62.590722 71.609395 66.112603 C 72.978147 69.634483 75.718776 78.440747 76.890653 79.025123 C 78.065655 79.612624 78.065655 80.003249 78.065655 80.003249 M 93.778179 111.737674 C 91.178175 109.090794 83.162538 95.706399 76.912528 92.343893 M 73.512523 90.36889 C 66.834388 82.975129 62.784381 72.484488 62.503131 69.728233 C 62.265631 66.512603 60.131252 67.118854 60.328128 63.987599 C 60.525003 60.85947 61.625005 56.703213 60.675003 54.303209 C 59.609376 51.603205 58.109374 49.678202 58.109374 49.678202 C 54.237493 46.765698 53.999993 45.568821 53.999993 45.568821 M 47.543733 56.134462 C 49.30311 57.503214 48.912485 56.525088 49.890611 58.678216 C 50.868738 60.831344 50.674988 60.046968 51.262488 62.590722 C 51.846864 65.134476 51.456239 69.046982 52.631241 71.396986 C 53.806242 73.743865 54.859369 81.022001 55.846871 82.709503 C 56.615622 84.01888 58.318749 87.693886 62.253131 90.140765 C 64.806259 91.725142 66.843763 94.987648 69.309391 97.603277 M 72.653147 100.350156 C 76.931278 102.83141 82.481287 110.175171 84.415665 111.390798 M 21.718693 70.221984 C 23.087445 72.765738 23.47807 74.13449 24.456197 74.918866 C 25.434323 75.700118 26.41245 76.875119 27.781202 77.459495 L 30.521831 78.634497 M 38.346843 57.112589 C 40.890597 58.678216 39.912471 57.70009 41.674974 59.853218 C 43.434351 62.003221 44.609353 63.568849 44.999979 65.721977 C 45.390604 67.875105 44.609353 72.178237 44.021852 72.765738 C 43.434351 73.353239 43.240601 73.743865 42.456225 75.112617 C 41.674974 76.481369 42.065599 76.090743 40.890597 76.678244 C 39.718721 77.265745 36.784341 78.243872 36.784341 78.243872 " transform="matrix(1.249998,0,0,1.249998,0.000113954,0)"/>
<path style="fill-rule:nonzero;fill:rgb(94.901961%,82.745098%,78.823529%);fill-opacity:1;stroke-width:0.24;stroke-linecap:butt;stroke-linejoin:miter;stroke:rgb(0%,0%,0%);stroke-opacity:1;stroke-miterlimit:4;" d="M 6.684294 82.525128 C 5.749918 81.997002 3.474914 80.425125 2.734288 78.921998 C 1.940537 78.865747 0.653035 80.462625 0.143659 81.878252 C -0.368842 83.290754 8.809298 90.07514 11.640552 91.825143 C 14.471806 93.57827 18.946813 95.728274 25.628074 99.79703 C 27.556202 100.703281 28.574953 98.215778 29.593705 96.7439 C 30.612456 95.275148 32.653085 90.865766 30.612456 89.622014 C 28.574953 88.378262 24.384322 86.793885 22.231193 86.228259 C 20.078065 85.662633 16.228059 84.306381 13.056179 81.818877 C 10.112425 78.878247 5.240542 73.906365 3.618664 75.200117 C 2.099912 77.178245 2.406163 78.678247 3.437414 79.931374 C 4.428041 81.131376 6.084293 82.106378 7.44992 83.062629 C 8.043671 83.628255 8.424922 83.840755 9.090548 84.422006 C 9.243673 84.584506 13.121804 87.493886 15.093682 89.622014 C 21.956193 96.53765 19.737439 95.615773 25.968699 98.215778 " transform="matrix(1.249998,0,0,1.249998,0.000113954,0)"/>
<path style="fill-rule:nonzero;fill:rgb(38.823529%,21.960784%,10.588235%);fill-opacity:1;stroke-width:0.24;stroke-linecap:butt;stroke-linejoin:miter;stroke:rgb(0%,0%,0%);stroke-opacity:1;stroke-miterlimit:4;" d="M 22.824944 70.400109 C 23.846821 72.687613 25.628074 76.506369 28.687453 77.26887 C 31.746833 78.031371 31.999959 79.303248 36.590591 77.778246 C 41.178098 76.250118 40.921847 76.250118 42.962476 72.943863 C 44.999979 69.637608 44.743728 67.856355 44.490603 65.312601 C 44.234353 62.765722 41.178098 58.950092 38.628094 58.18759 C 36.07809 57.425089 32.256209 57.168839 28.687453 57.934465 C 25.118698 58.696966 24.609322 60.987595 23.846821 62.259472 C 23.081195 63.531349 21.806193 68.109481 22.824944 70.400109 Z M 22.824944 70.400109 " transform="matrix(1.249998,0,0,1.249998,0.000113954,0)"/>
<path style="fill-rule:nonzero;fill:rgb(20.392157%,10.196078%,3.137255%);fill-opacity:1;stroke-width:0.24;stroke-linecap:butt;stroke-linejoin:miter;stroke:rgb(0%,0%,0%);stroke-opacity:1;stroke-miterlimit:4;" d="M 32.765585 61.24072 C 29.962455 61.493845 28.687453 61.24072 27.412451 63.021973 C 26.140574 64.803226 25.403073 71.303236 27.074951 73.537614 C 28.262453 74.300115 29.368704 74.978241 30.981207 74.978241 C 32.596834 74.978241 35.059338 74.809491 36.16559 74.300115 C 37.268717 73.79074 38.796844 73.962615 39.731221 72.687613 C 40.665597 71.415736 41.090598 70.73761 41.006223 68.787607 C 40.921847 66.837604 40.921847 65.481352 40.071846 64.29385 C 39.221845 63.106348 38.628094 61.493845 37.012466 61.07197 C 35.399964 60.646969 35.568714 60.987595 32.765585 61.24072 Z M 32.765585 61.24072 " transform="matrix(1.249998,0,0,1.249998,0.000113954,0)"/>
<path style=" stroke:none;fill-rule:nonzero;fill:rgb(99.607843%,98.431373%,98.039216%);fill-opacity:1;" d="M 159.3125 57.664062 C 158.253906 57.667969 157.167969 57.769531 156.074219 58 C 151.085938 59.058594 136.003906 64.785156 132.289062 67.433594 C 128.570312 70.085938 124.746094 75.277344 123.15625 77.929688 C 121.5625 80.578125 116.570312 86.195312 114.339844 88.742188 C 112.109375 91.285156 107.011719 97.433594 105.527344 99.339844 C 104.039062 101.25 104.144531 104.003906 104.144531 105.277344 C 104.144531 106.550781 104.039062 107.714844 105.3125 111.214844 C 106.585938 114.710938 107.542969 118.105469 109.136719 118.316406 C 110.730469 118.527344 113.597656 118.742188 117.84375 118.316406 C 122.09375 117.890625 132.5 116.832031 134.941406 116.515625 C 137.386719 116.195312 140.253906 116.832031 142.480469 115.347656 C 144.710938 113.863281 149.808594 111.214844 152.890625 108.140625 C 155.96875 105.066406 162.554688 99.339844 164.148438 96.375 C 165.738281 93.40625 170.414062 84.820312 171.050781 81.746094 C 171.6875 78.671875 172.855469 71.355469 172.855469 70.296875 C 172.855469 69.234375 171.261719 60.757812 168.605469 59.695312 C 166.53125 58.867188 163.097656 57.652344 159.3125 57.664062 Z M 159.3125 57.664062 "/>
<path style="fill-rule:nonzero;fill:rgb(99.607843%,98.431373%,98.039216%);fill-opacity:1;stroke-width:0.24;stroke-linecap:butt;stroke-linejoin:miter;stroke:rgb(0%,0%,0%);stroke-opacity:1;stroke-miterlimit:4;" d="M 125.906354 0.11875 C 125.168853 0.115625 123.975101 0.750001 123.500101 0.975002 C 122.425099 1.481252 120.837596 2.271879 119.706345 2.840629 C 118.571968 3.40313 117.668842 3.743756 115.968839 4.931258 C 114.268836 6.11876 111.550082 8.550013 110.36258 8.946889 C 109.171953 9.34064 109.568829 9.34064 109.284454 8.662513 C 109.003203 7.984387 109.003203 7.531262 109.284454 5.100008 C 109.568829 2.668754 108.493827 4.421882 106.6782 5.440633 C 104.865697 6.45626 104.696946 7.021886 102.996944 8.606263 C 101.296941 10.187516 100.393815 10.412516 99.203188 10.753142 C 98.012561 11.093767 97.559435 10.415641 97.21881 8.831264 C 97.128185 8.396888 97.734436 6.659385 97.109435 6.909386 C 95.456307 7.565637 91.490676 11.746893 90.425049 13.015645 C 88.953172 14.768773 86.968794 15.278149 86.856294 14.993773 C 86.743794 14.712523 86.403168 14.543773 86.175043 14.543773 C 85.950042 14.543773 83.796914 16.350025 83.006288 16.971901 C 82.212537 17.593777 74.168774 24.378163 76.546903 23.981287 C 78.928156 23.587537 83.231288 22.68441 88.103171 23.700037 C 92.971928 24.718788 101.921942 24.831289 103.734445 24.887539 C 105.546948 24.943789 115.062588 28.450044 121.462597 29.24067 C 127.862607 30.031297 142.134505 36.590682 150.006392 37.043808 C 157.881404 37.496933 169.603297 45.521946 174.41893 47.106323 C 179.234562 48.690701 191.750207 58.07509 194.412711 59.543842 C 196.262714 60.565719 201.212721 62.600097 205.215853 63.934474 C 206.96898 64.51885 205.343978 62.993848 206.137729 62.596972 C 206.928355 62.203222 210.10336 62.596972 211.631487 62.653222 C 213.159615 62.712597 217.522122 62.087596 219.106499 61.40947 C 220.694002 60.731344 220.012751 56.321962 220.069001 55.02196 C 220.100251 54.350084 220.784627 51.615705 220.409626 48.971951 C 220.059626 46.503197 218.650248 44.115694 218.540873 43.487568 C 218.428373 42.846942 217.253371 40.278188 215.709619 37.890684 C 214.128366 35.443805 212.172113 33.178177 211.856488 32.578176 C 211.234612 31.390674 205.684603 26.356291 204.665852 25.678165 C 203.643975 25.000039 197.018965 20.478157 195.940838 19.968781 C 194.865836 19.46253 193.165834 17.990653 189.484578 17.087527 C 187.937701 16.706276 186.425198 15.931275 184.784571 15.559399 C 182.525192 15.050023 180.240814 15.009398 179.290812 15.106273 C 177.64706 15.278149 177.250184 15.106273 176.287683 14.993773 C 175.325181 14.881273 175.609557 14.712523 174.36268 14.937523 C 173.115803 15.162524 172.606427 15.559399 171.587675 15.956275 C 170.568924 16.350025 170.112673 16.181275 169.037671 16.237525 C 167.96267 16.293775 167.850169 15.503149 167.397044 15.221899 C 166.943918 14.937523 166.037667 15.162524 164.056414 15.221899 C 162.072036 15.278149 162.697036 15.106273 162.184536 14.203147 C 161.67516 13.296896 161.56266 12.506269 161.56266 12.506269 C 161.56266 12.506269 160.712658 12.337519 159.578282 12.393769 C 158.44703 12.450019 158.106404 12.053144 157.428278 11.490643 C 156.747027 10.921892 156.918903 10.865642 156.181401 9.45314 C 155.4439 8.040637 155.956401 8.718764 154.990775 8.606263 C 154.031398 8.493763 153.690773 8.662513 151.537644 8.662513 C 149.384516 8.662513 150.575143 8.265638 149.893892 7.475012 C 149.215766 6.68126 149.328266 6.40001 149.328266 6.40001 C 149.328266 6.40001 148.253264 6.740635 147.403263 6.909386 C 146.553261 7.078136 145.875135 7.587512 144.400133 7.362511 C 142.928256 7.134386 143.550132 6.34376 143.550132 6.34376 L 143.097006 4.931258 C 143.097006 4.931258 141.287628 5.609384 140.322002 5.946884 C 139.3595 6.28751 138.396999 6.45626 137.831373 6.28751 C 137.265747 6.11876 137.093872 5.212508 136.471996 3.23438 C 135.85012 1.256252 135.168869 1.765628 134.206367 1.990628 C 133.243866 2.215628 132.90324 2.443754 131.996989 2.896879 C 131.090737 3.34688 127.918857 4.478132 127.409482 4.421882 C 126.900106 4.365632 126.106355 4.365632 126.218855 2.896879 C 126.27198 2.221878 126.818856 0.606251 126.33448 0.2375 C 126.225105 0.15625 126.07823 0.121875 125.906354 0.11875 Z M 125.906354 0.11875 " transform="matrix(1.249998,0,0,1.249998,0.000113954,0)"/>
<path style="fill-rule:nonzero;fill:rgb(94.901961%,82.745098%,78.823529%);fill-opacity:1;stroke-width:0.24;stroke-linecap:butt;stroke-linejoin:miter;stroke:rgb(0%,0%,0%);stroke-opacity:1;stroke-miterlimit:4;" d="M 148.56264 33.425052 C 148.734515 32.0688 150.009517 30.287547 150.943893 28.931295 C 151.87827 27.571918 155.022025 25.368789 157.059528 23.840662 C 159.097031 22.31566 159.437656 21.721909 161.73141 19.43128 C 164.025164 17.143777 164.340789 18.200028 164.900165 16.803151 C 163.793913 17.312527 161.56266 18.921904 160.372033 19.687531 C 159.184531 20.450032 158.418905 20.959408 156.890777 22.146909 C 155.359525 23.334411 153.747023 24.012537 152.472021 25.368789 C 151.197019 26.725042 150.262642 26.978167 149.497016 27.487543 C 148.734515 27.996918 145.75951 30.625048 144.484508 31.643799 C 143.212631 32.662551 142.70013 32.746926 142.022004 31.896925 C 141.343878 31.050048 142.615755 30.118797 143.550132 28.75942 C 144.484508 27.403168 145.75951 26.300041 147.375138 24.606288 C 148.98764 22.909411 148.903265 23.162536 150.943893 21.212533 C 152.981396 19.26253 153.150147 19.771906 155.868901 17.228152 C 156.650152 16.34065 158.256405 15.168774 158.134529 14.828148 C 157.012653 15.362524 155.784526 16.293775 153.322022 17.737528 C 150.856393 19.178155 149.497016 20.196906 148.56264 20.618782 C 147.628263 21.043783 142.022004 24.690663 138.87825 28.081294 C 135.734495 31.475049 135.481369 28.675045 136.331371 26.725042 C 137.178247 24.775038 138.028248 24.859414 139.1345 23.246911 C 140.237627 21.637534 144.059508 18.500029 147.712638 15.446899 C 151.368894 12.393769 151.368894 12.309394 149.497016 13.240646 C 147.628263 14.175022 146.865762 14.596898 145.33451 15.615649 C 143.806382 16.634401 141.853254 17.650027 139.897001 19.515655 C 137.943873 21.381283 142.022004 17.737528 133.612616 24.690663 C 125.200103 31.643799 131.656363 25.200039 131.912614 23.756287 C 132.165739 22.31566 132.931365 20.959408 134.206367 19.26253 C 135.481369 17.565652 137.775123 16.462526 143.125131 12.137519 C 148.478264 7.812512 145.081384 9.76564 143.550132 10.359391 C 142.022004 10.953142 141.343878 11.884393 139.559501 12.903145 C 137.775123 13.918772 135.90637 15.615649 134.375118 16.718776 C 132.84699 17.821903 132.253239 19.09378 127.240731 22.400035 C 122.228224 25.70629 122.396974 24.096912 123.0751 22.48441 C 123.756351 20.875032 124.859478 20.196906 126.815731 17.737528 C 128.768859 15.278149 130.893862 14.003147 134.631368 11.121892 C 138.368874 8.237513 137.943873 7.050011 135.140744 9.593765 C 132.337614 12.137519 133.100116 10.865642 131.315738 12.137519 C 129.534485 13.412521 129.446985 13.834396 121.121972 19.346905 C 112.796959 24.859414 116.109464 20.618782 116.45009 18.328153 C 116.634465 17.090652 118.590718 14.953148 121.121972 12.88752 C 123.096975 11.271893 125.459479 9.015639 127.578232 7.768762 C 127.765732 7.659387 128.909484 7.103136 129.093859 6.996886 C 130.237611 6.103134 131.203238 5.634384 131.596988 4.468757 C 129.131359 6.16251 127.750107 6.71251 126.13448 7.900012 C 124.521977 9.087514 122.990725 9.93439 122.140724 10.187516 C 121.290722 10.443766 120.187595 11.631268 112.625084 17.821903 C 105.065697 24.012537 109.484454 17.906278 109.821954 15.8719 C 110.16258 13.834396 115.940714 9.171889 119.84697 5.184383 C 123.756351 1.200002 119.421969 4.421882 117.637592 5.693759 C 115.856339 6.965636 115.175088 7.134386 113.050084 8.915639 C 110.928206 10.696892 107.1907 13.750021 105.915698 14.596898 C 104.640696 15.446899 101.753192 18.243778 99.881314 20.787532 C 98.012561 23.334411 97.25006 22.146909 97.165685 22.146909 C 97.078185 22.146909 97.25006 20.365657 97.503185 19.43128 C 97.759436 18.500029 100.562565 14.259397 101.921942 12.903145 C 103.281319 11.546893 105.831323 7.475012 105.406323 8.068763 C 104.981322 8.662513 103.365694 10.018766 102.262568 11.206267 C 101.156316 12.393769 95.040681 17.906278 94.02193 18.921904 C 93.000053 19.940656 91.981302 21.890659 90.7063 22.48441 C 89.434423 23.078161 89.603173 21.975034 89.346923 21.381283 C 89.093797 20.787532 91.387551 15.362524 92.153177 14.003147 C 92.915678 12.646895 95.040681 9.50939 94.275055 10.271891 C 93.509429 11.037517 92.746928 12.137519 91.981302 12.81877 C 91.215675 13.496896 90.96255 13.412521 89.178172 16.718776 C 87.393795 20.025031 85.525042 22.062534 84.590665 22.146909 C 83.656289 22.231285 82.975038 21.806284 83.062538 21.468783 C 83.146913 21.128158 83.740664 19.603155 84.165665 18.753154 C 84.590665 17.906278 86.375043 15.362524 86.203168 15.021898 C 86.034417 14.684398 83.656289 17.737528 82.465662 19.515655 C 81.27816 21.296908 74.168774 24.378163 76.546903 23.981287 C 78.928156 23.587537 83.231288 22.68441 88.103171 23.700037 C 92.971928 24.718788 101.921942 24.831289 103.734445 24.887539 C 105.546948 24.943789 115.062588 28.450044 121.462597 29.24067 C 127.862607 30.031297 142.134505 36.590682 150.009517 37.043808 C 150.406392 37.065683 148.393889 34.781304 148.56264 33.425052 Z M 148.56264 33.425052 " transform="matrix(1.249998,0,0,1.249998,0.000113954,0)"/>
<path style="fill-rule:nonzero;fill:rgb(99.607843%,98.431373%,98.039216%);fill-opacity:1;stroke-width:0.24;stroke-linecap:round;stroke-linejoin:round;stroke:rgb(0%,0%,0%);stroke-opacity:1;stroke-miterlimit:4;" d="M 93.87818 113.312676 C 93.618804 113.315801 93.015678 113.337676 91.840676 113.365801 C 90.096924 113.409551 87.140669 113.456426 84.003164 113.490801 C 87.140669 117.662683 84.931291 114.781428 86.571918 121.393939 C 86.571918 121.393939 88.781297 129.084575 89.234422 131.118954 C 89.687548 133.153332 93.200054 141.125219 93.881305 142.143971 C 94.559431 143.159597 96.937559 145.534601 97.61881 146.837728 C 98.296936 148.134605 99.371938 149.775233 100.506315 151.52836 C 101.637567 153.281488 101.637567 154.072114 103.50632 155.993992 C 105.375072 157.91587 106.284449 159.275247 106.793825 159.275247 C 107.3032 159.275247 107.018825 159.668998 107.925076 158.143996 C 108.831328 156.615868 109.96258 153.959614 110.756331 153.506488 C 111.550082 153.053363 112.681334 150.284608 112.681334 150.284608 L 113.418835 148.134605 C 113.418835 148.134605 114.325086 147.231479 114.778212 145.14085 C 115.231338 143.047097 115.400088 140.956469 116.081339 139.768967 C 116.759465 138.581465 117.496966 135.303335 117.496966 135.303335 C 117.496966 135.303335 118.178217 131.79708 117.553216 130.384577 C 116.93134 128.96895 115.062588 126.087696 115.006337 126.087696 C 114.950087 126.087696 113.081334 123.940817 109.625079 122.184565 C 106.168824 120.434562 103.393819 117.775183 102.034442 117.550183 C 100.675065 117.325182 98.012561 116.078305 98.012561 116.02518 C 98.012561 115.96893 96.315683 115.290804 94.559431 115.175179 C 93.765679 115.175179 92.803178 114.212677 92.803178 114.212677 C 92.284427 113.478301 94.646931 113.306426 93.87818 113.312676 Z M 93.87818 113.312676 " transform="matrix(1.249998,0,0,1.249998,0.000113954,0)"/>
<path style=" stroke:none;fill-rule:nonzero;fill:rgb(74.117647%,74.117647%,100%);fill-opacity:1;" d="M 105.003906 141.863281 C 108.925781 147.078125 106.164062 143.476562 108.214844 151.742188 C 108.214844 151.742188 110.976562 161.355469 111.542969 163.898438 C 112.109375 166.441406 116.5 176.40625 117.351562 177.679688 C 118.199219 178.949219 121.171875 181.917969 122.023438 183.546875 C 122.871094 185.167969 124.214844 187.21875 125.632812 189.410156 C 127.046875 191.601562 127.046875 192.589844 129.382812 194.992188 C 131.71875 197.394531 132.855469 199.09375 133.492188 199.09375 C 133.414062 198.621094 131.777344 196.632812 131.539062 194.144531 C 131.175781 190.371094 127.265625 187.28125 123.636719 182.539062 C 121.167969 179.316406 119.570312 174.996094 116.425781 170.484375 C 113.351562 166.066406 113.9375 160.496094 111.300781 156.5 C 110.09375 154.667969 111.25 149.289062 110.515625 147.988281 C 107.121094 144.597656 108.25 143.578125 105.964844 142.03125 C 105.691406 141.84375 105.398438 142.046875 105.003906 141.863281 Z M 105.003906 141.863281 "/>
<path style="fill-rule:nonzero;fill:rgb(99.607843%,98.431373%,98.039216%);fill-opacity:1;stroke-width:0.24;stroke-linecap:round;stroke-linejoin:round;stroke:rgb(0%,0%,0%);stroke-opacity:1;stroke-miterlimit:4;" d="M 198.262717 102.400159 C 194.356461 103.812661 188.750202 102.909535 185.181446 104.150162 C 181.612691 105.393914 174.647055 106.978291 171.984551 108.165793 C 169.322047 109.353295 161.61891 110.597047 159.978282 111.162673 C 158.33453 111.728299 144.909509 114.553303 143.156381 115.006429 C 141.397003 115.459554 141.737629 116.306431 141.737629 116.306431 C 141.737629 116.306431 144.003257 119.584561 147.628263 121.622064 C 151.253269 123.656442 159.862657 128.859575 164.506414 129.875202 C 169.153297 130.893953 180.137689 132.590831 182.972068 134.625209 C 185.803322 136.659587 187.390825 136.772087 190.44708 137.562714 C 193.506459 138.356465 196.000213 138.693965 198.037716 137.678339 C 200.078345 136.659587 205.400228 134.284584 207.325231 132.250205 C 209.253359 130.215827 209.931485 130.778328 211.743988 126.822072 C 213.55649 122.862691 214.915868 122.184565 214.462742 117.890808 C 214.009616 113.593926 213.897116 110.312671 213.44399 108.843919 C 212.990865 107.375167 210.043985 103.643911 209.137734 103.415786 C 208.234607 103.190785 200.700221 103.303285 200.700221 103.303285 C 198.718967 103.643911 198.887718 103.078285 198.262717 102.400159 Z M 198.262717 102.400159 " transform="matrix(1.249998,0,0,1.249998,0.000113954,0)"/>
<path style="fill-rule:nonzero;fill:rgb(99.607843%,98.431373%,98.039216%);fill-opacity:1;stroke-width:0.24;stroke-linecap:round;stroke-linejoin:round;stroke:rgb(0%,0%,0%);stroke-opacity:1;stroke-miterlimit:4;" d="M 284.765976 45.784446 C 284.128475 45.781321 282.931598 45.993821 280.447219 46.596947 C 276.028462 47.671949 268.665951 50.440703 264.64407 52.081331 C 260.622189 53.721958 257.450309 54.512585 253.544053 56.153212 C 250.259672 57.225089 246.406541 58.921967 242.897161 59.996968 C 240.347157 61.35322 230.378392 64.40635 233.494021 63.784474 C 236.609651 63.162598 236.778402 64.578225 237.119027 65.706352 C 237.459653 66.837604 238.81903 69.437608 238.419029 71.078235 C 238.025278 72.718863 237.515903 74.693866 237.400278 76.109493 C 237.287777 77.521995 236.665901 78.256372 236.834652 80.121999 C 237.006527 81.987627 238.081529 86.172009 237.231527 87.475136 C 236.381526 88.772013 235.306524 90.753266 234.512773 91.375142 C 233.719022 91.993893 230.831517 93.806396 229.753391 94.200146 C 228.678389 94.597022 228.056513 95.162648 227.490887 95.162648 C 226.925261 95.162648 234.059647 96.57515 235.419024 97.197026 C 236.778402 97.818902 246.294041 101.831408 248.956545 102.568909 C 251.61905 103.303285 263.850319 107.768917 265.156571 107.881418 C 266.456573 107.997043 277.615965 111.275173 278.578466 111.218923 C 279.540968 111.162673 282.769098 111.162673 282.769098 111.162673 L 282.656598 100.475156 C 282.656598 100.475156 281.069095 92.165768 280.162844 90.46889 C 279.256593 88.772013 277.33159 83.062629 276.650338 82.497003 C 275.972212 81.931377 275.181586 80.009499 275.181586 80.009499 C 275.181586 80.009499 275.690962 78.825122 276.369088 77.806371 C 277.728465 76.053243 278.465966 72.775113 279.200342 70.909485 C 280.956595 67.62823 282.487848 62.765722 282.881598 60.956345 C 282.881598 60.956345 285.431602 51.571955 285.431602 51.515705 C 285.431602 51.459455 285.997228 46.484447 285.600352 46.090697 C 285.428477 45.915696 285.265977 45.784446 284.765976 45.784446 Z M 284.765976 45.784446 " transform="matrix(1.249998,0,0,1.249998,0.000113954,0)"/>
<path style=" stroke:none;fill-rule:nonzero;fill:rgb(100%,100%,100%);fill-opacity:1;" d="M 32.992188 83.757812 C 33.417969 84.289062 33.949219 84.5 35.328125 84.078125 C 36.710938 83.652344 37.132812 82.910156 39.683594 82.804688 C 42.230469 82.699219 43.398438 82.699219 44.566406 82.910156 C 45.738281 83.121094 46.480469 82.378906 46.691406 82.910156 C 46.90625 83.441406 48.605469 83.863281 46.054688 84.394531 C 43.507812 84.925781 43.082031 86.195312 41.171875 86.195312 C 39.257812 86.195312 39.152344 87.046875 37.242188 86.832031 C 35.328125 86.621094 33.417969 87.679688 33.3125 88.210938 C 33.207031 88.742188 31.046875 87.855469 31.046875 87.007812 C 31.046875 86.160156 32.566406 83.230469 32.992188 83.757812 Z M 32.992188 83.757812 "/>
<path style="fill:none;stroke-width:0.24;stroke-linecap:butt;stroke-linejoin:miter;stroke:rgb(0%,0%,0%);stroke-opacity:1;stroke-miterlimit:4;" d="M 73.546898 53.437583 C 73.546898 53.437583 75.500026 53.693833 76.603153 54.031334 C 77.709405 54.371959 80.256283 55.896962 81.615661 57.678215 C 82.975038 59.459467 85.525042 60.900095 86.800044 61.493845 C 88.075046 62.087596 88.075046 64.4626 87.987545 65.903227 C 87.90317 67.34698 86.118793 71.415736 85.356291 72.434487 C 84.590665 73.453239 81.44691 82.018877 79.746908 84.306381 C 78.05003 86.597009 71.846895 98.215778 70.318768 100.250156 C 68.787516 102.284534 64.371884 101.606408 61.481254 104.828288 C 58.59375 108.053293 55.024994 106.356415 50.606237 107.118916 C 47.106232 107.725167 43.556226 106.693916 43.556226 106.693916 M 3.437414 79.931374 C 2.087412 78.290747 1.981162 76.228243 5.578042 73.228239 C 10.903051 68.309481 21.324942 59.206342 25.628074 55.700086 C 29.93433 52.193831 41.487473 44.165694 46.134355 41.67819 C 51.115613 37.834434 51.796864 36.815682 57.009372 33.818803 C 63.125007 29.468796 74.168774 24.378163 76.546903 23.981287 C 78.928156 23.587537 83.231288 22.68441 88.103171 23.700037 C 92.971928 24.718788 101.921942 24.831289 103.734445 24.887539 C 105.546948 24.943789 115.062588 28.450044 121.462597 29.24067 C 127.862607 30.031297 142.134505 36.590682 150.009517 37.043808 C 157.881404 37.496933 169.603297 45.521946 174.41893 47.106323 C 179.234562 48.690701 191.750207 58.07509 194.412711 59.543842 C 197.075215 61.01572 206.137729 64.578225 209.593984 65.140726 C 213.047115 65.706352 216.443995 66.328228 218.825249 66.328228 C 221.203377 66.328228 223.240881 66.781354 227.319012 65.365727 C 231.397143 63.953224 230.378392 64.40635 233.494021 63.784474 C 236.609651 63.162598 236.778402 64.578225 237.119027 65.706352 C 237.459653 66.837604 238.81903 69.437608 238.419029 71.078235 C 238.025278 72.718863 237.515903 74.696991 237.400278 76.109493 C 237.287777 77.521995 236.665901 78.256372 236.834652 80.121999 C 237.006527 81.987627 238.081529 86.172009 237.231527 87.475136 C 236.381526 88.772013 235.306524 90.753266 234.512773 91.375142 C 233.719022 91.997018 230.831517 93.806396 229.753391 94.200146 C 228.678389 94.597022 228.056513 95.162648 227.490887 95.162648 C 226.925261 95.162648 224.487757 94.878272 222.506504 94.993898 C 220.522126 95.106398 214.462742 96.009524 211.743988 97.084526 C 209.025233 98.159527 207.609606 98.725153 204.947102 99.57203 C 202.284598 100.418906 202.172098 100.984532 198.262717 102.400159 C 194.356461 103.812661 188.750202 102.909535 185.181446 104.150162 C 181.612691 105.393914 174.647055 106.978291 171.984551 108.165793 C 169.322047 109.353295 161.61891 110.597047 159.978282 111.162673 C 158.33453 111.728299 144.909509 114.553303 143.156381 115.006429 C 141.397003 115.459554 142.134505 115.175179 136.696996 115.459554 C 131.262613 115.740805 130.240736 115.515804 128.315733 115.96893 C 126.39073 116.418931 122.990725 116.02518 121.346972 115.96893 C 119.706345 115.909555 105.150072 115.343929 100.903191 114.440803 C 96.653184 113.534551 96.540684 113.253301 91.840676 113.365801 C 87.140669 113.478301 73.603148 113.650176 71.56252 113.365801 C 69.525017 113.084551 58.7625 111.897049 53.609367 110.709547 C 48.453109 109.522045 49.812486 109.184545 49.24686 108.956419 C 48.681234 108.731419 46.134355 107.259542 43.074976 106.525165 C 40.015596 105.790789 32.312459 103.868911 25.628074 99.79703 C 18.946813 95.728274 14.471806 93.57827 11.640552 91.825143 C 8.809298 90.07514 -0.368842 83.290754 0.143659 81.878252 C 0.653035 80.462625 1.940537 78.865747 2.734288 78.921998 M 16.509309 67.74073 C 15.943684 68.137606 15.718683 68.646982 15.718683 68.646982 M 12.715554 70.62511 C 13.112429 71.415736 13.281179 71.812612 13.281179 71.756361 " transform="matrix(1.249998,0,0,1.249998,0.000113954,0)"/>
<path style=" stroke:none;fill-rule:nonzero;fill:rgb(61.176471%,61.176471%,100%);fill-opacity:1;" d="M 89.234375 63.546875 C 89.234375 64.308594 88.796875 64.726562 88.039062 65.132812 C 87.566406 65.386719 86.859375 65.792969 86.382812 65.792969 C 85.140625 65.792969 84.738281 64.789062 84.738281 63.546875 C 84.738281 62.304688 85.054688 61.382812 86.292969 61.382812 C 87.015625 61.382812 87.890625 61.695312 88.5 62.199219 C 88.9375 62.5625 89.234375 63.023438 89.234375 63.546875 Z M 23.691406 100.207031 C 23.691406 100.398438 23.644531 100.554688 23.453125 100.554688 C 23.261719 100.554688 23 100.398438 23 100.207031 C 23 100.015625 23.113281 99.753906 23.304688 99.753906 C 23.492188 99.753906 23.691406 100.015625 23.691406 100.207031 Z M 19.972656 95.796875 C 19.757812 96.167969 19.425781 96.378906 19.101562 96.5625 C 18.804688 96.726562 18.152344 96.933594 17.964844 97.15625 C 17.351562 97.886719 16.949219 96.589844 16.949219 95.539062 C 16.949219 94.488281 17.550781 94.242188 18.503906 94.242188 C 19.460938 94.242188 20.5 94.890625 19.972656 95.796875 Z M 19.972656 95.796875 "/>
<path style="fill:none;stroke-width:0.24;stroke-linecap:round;stroke-linejoin:round;stroke:rgb(0%,0%,0%);stroke-opacity:1;stroke-miterlimit:4;" d="M 127.450107 46.131322 C 126.60323 46.134447 125.734479 46.215697 124.859478 46.400072 C 120.868847 47.246948 108.803203 51.828205 105.831323 53.946959 C 102.856319 56.068837 99.796939 60.221969 98.525062 62.343847 C 97.25006 64.4626 93.256304 68.956357 91.471926 70.99386 C 89.687548 73.028238 85.609417 77.946996 84.421915 79.471998 C 83.231288 81.000126 83.315663 83.203254 83.315663 84.222006 C 83.315663 85.240757 83.231288 86.172009 84.25004 88.972013 C 85.268791 91.768893 86.034417 94.484522 87.309419 94.653272 C 88.584421 94.822022 90.878175 94.993898 94.275055 94.653272 C 97.675061 94.312646 106.000073 93.46577 107.953201 93.212645 C 109.909455 92.956394 112.203208 93.46577 113.984461 92.278268 C 115.768839 91.090766 119.84697 88.972013 122.312599 86.512634 C 124.775103 84.053256 130.043861 79.471998 131.318863 77.10012 C 132.59074 74.725116 136.331371 67.856355 136.840746 65.396977 C 137.350122 62.937598 138.284499 57.084464 138.284499 56.237587 C 138.284499 55.387586 137.009497 48.606325 134.884493 47.756324 C 133.225116 47.093823 130.478236 46.121947 127.450107 46.131322 Z M 127.450107 46.131322 " transform="matrix(1.249998,0,0,1.249998,0.000113954,0)"/>
<path style=" stroke:none;fill-rule:evenodd;fill:rgb(44.313725%,25.098039%,12.156863%);fill-opacity:1;" d="M 159.3125 57.664062 C 158.253906 57.667969 157.167969 57.769531 156.078125 58 C 151.085938 59.058594 136.003906 64.785156 132.289062 67.433594 C 128.570312 70.082031 124.746094 75.28125 123.15625 77.929688 C 122.621094 78.8125 121.664062 80.0625 120.605469 81.382812 C 121.039062 85.289062 121.921875 88.226562 127.898438 86.003906 C 129.480469 85.648438 130.8125 85.355469 132.40625 85.160156 C 134.5 82.167969 133.742188 84.125 133.734375 85.0625 C 136.085938 84.828125 138.449219 84.769531 140.800781 84.863281 C 141 84.875 141.863281 83.996094 142.0625 84.003906 C 142.253906 84.015625 141.777344 84.910156 141.96875 84.921875 C 144.085938 85.054688 146.191406 85.3125 148.285156 85.679688 C 148.398438 85.703125 149.292969 84.824219 149.40625 84.84375 C 149.5 84.863281 148.816406 85.777344 148.910156 85.792969 C 152.464844 86.460938 155.964844 87.445312 159.375 88.695312 C 159.519531 88.75 160.019531 88.230469 160.167969 88.285156 C 160.28125 88.328125 160.039062 88.945312 160.152344 88.988281 C 162.054688 89.710938 163.925781 90.515625 165.761719 91.390625 C 166.042969 91.46875 166.339844 91.578125 166.632812 91.667969 C 168.507812 88.058594 170.632812 83.753906 171.050781 81.742188 C 171.6875 78.671875 172.855469 71.355469 172.855469 70.296875 C 172.855469 69.238281 171.261719 60.753906 168.609375 59.695312 C 166.535156 58.867188 163.097656 57.652344 159.3125 57.664062 Z M 159.3125 57.664062 "/>
<path style="fill:none;stroke-width:0.24;stroke-linecap:round;stroke-linejoin:round;stroke:rgb(0%,0%,0%);stroke-opacity:1;stroke-miterlimit:4;" d="M 127.450107 46.131322 C 126.60323 46.134447 125.734479 46.215697 124.859478 46.400072 C 120.868847 47.246948 108.803203 51.828205 105.831323 53.946959 C 102.856319 56.068837 99.796939 60.221969 98.525062 62.343847 C 97.25006 64.4626 93.256304 68.956357 91.471926 70.99386 C 89.687548 73.028238 85.609417 77.946996 84.421915 79.471998 C 83.231288 81.000126 83.315663 83.203254 83.315663 84.222006 C 83.315663 85.240757 83.231288 86.172009 84.25004 88.972013 C 85.268791 91.768893 86.034417 94.484522 87.309419 94.653272 C 88.584421 94.822022 90.878175 94.993898 94.275055 94.653272 C 97.675061 94.312646 106.000073 93.46577 107.953201 93.212645 C 109.909455 92.956394 112.203208 93.46577 113.984461 92.278268 C 115.768839 91.090766 119.84697 88.972013 122.312599 86.512634 C 124.775103 84.053256 130.043861 79.471998 131.318863 77.10012 C 132.59074 74.725116 136.331371 67.856355 136.840746 65.396977 C 137.350122 62.937598 138.284499 57.084464 138.284499 56.237587 C 138.284499 55.387586 137.009497 48.606325 134.884493 47.756324 C 133.225116 47.093823 130.478236 46.121947 127.450107 46.131322 Z M 127.450107 46.131322 " transform="matrix(1.249998,0,0,1.249998,0.000113954,0)"/>
<path style="fill:none;stroke-width:0.24;stroke-linecap:round;stroke-linejoin:round;stroke:rgb(0%,0%,0%);stroke-opacity:1;stroke-miterlimit:4;" d="M 93.87818 113.312676 C 93.618804 113.315801 93.015678 113.337676 91.840676 113.365801 C 90.096924 113.409551 87.140669 113.456426 84.003164 113.490801 C 87.140669 117.662683 84.931291 114.781428 86.571918 121.393939 C 86.571918 121.393939 88.781297 129.084575 89.234422 131.118954 C 89.687548 133.153332 93.200054 141.125219 93.881305 142.143971 C 94.559431 143.159597 96.937559 145.534601 97.61881 146.837728 C 98.296936 148.134605 99.371938 149.775233 100.506315 151.52836 C 101.637567 153.281488 101.637567 154.072114 103.50632 155.993992 C 105.375072 157.91587 106.284449 159.275247 106.793825 159.275247 C 107.3032 159.275247 107.018825 159.668998 107.925076 158.143996 C 108.831328 156.615868 109.96258 153.959614 110.756331 153.506488 C 111.550082 153.053363 112.681334 150.284608 112.681334 150.284608 L 113.418835 148.134605 C 113.418835 148.134605 114.325086 147.231479 114.778212 145.14085 C 115.231338 143.047097 115.400088 140.956469 116.081339 139.768967 C 116.759465 138.581465 117.496966 135.303335 117.496966 135.303335 C 117.496966 135.303335 118.178217 131.79708 117.553216 130.384577 C 116.93134 128.96895 115.062588 126.087696 115.006337 126.087696 C 114.950087 126.087696 113.081334 123.940817 109.625079 122.184565 C 106.168824 120.434562 103.393819 117.775183 102.034442 117.550183 C 100.675065 117.325182 98.012561 116.078305 98.012561 116.02518 C 98.012561 115.96893 96.315683 115.290804 94.559431 115.175179 C 93.765679 115.175179 92.803178 114.212677 92.803178 114.212677 C 92.284427 113.478301 94.646931 113.306426 93.87818 113.312676 Z M 93.87818 113.312676 " transform="matrix(1.249998,0,0,1.249998,0.000113954,0)"/>
</g>
</svg>
