<?xml version="1.0" encoding="UTF-8"?>
<svg xmlns="http://www.w3.org/2000/svg" xmlns:xlink="http://www.w3.org/1999/xlink" width="449pt" height="250pt" viewBox="0 0 449 250" version="1.1">
<g id="surface56">
<path style=" stroke:none;fill-rule:nonzero;fill:rgb(40.000001%,34.117648%,30.980393%);fill-opacity:1;" d="M 328.777344 83.734375 C 328.777344 83.734375 325.828125 84.128906 324.167969 84.664062 C 322.5 85.195312 318.660156 87.589844 316.605469 90.386719 C 314.558594 93.1875 310.714844 95.449219 308.792969 96.382812 C 306.875 97.3125 306.875 101.042969 307 103.308594 C 307.128906 105.570312 309.816406 111.964844 310.972656 113.5625 C 312.121094 115.15625 316.867188 128.609375 319.425781 132.203125 C 321.988281 135.796875 331.335938 154.042969 333.644531 157.238281 C 335.953125 160.4375 342.609375 159.371094 346.96875 164.429688 C 351.320312 169.488281 356.699219 166.828125 363.363281 168.027344 C 368.640625 168.976562 373.992188 167.363281 373.992188 167.363281 M 434.484375 125.332031 C 436.519531 122.753906 436.679688 119.519531 431.253906 114.804688 C 423.230469 107.078125 407.511719 92.785156 401.023438 87.285156 C 394.535156 81.777344 377.109375 69.171875 370.109375 65.265625 C 362.59375 59.230469 361.570312 57.628906 353.714844 52.925781 C 344.488281 46.089844 327.839844 38.101562 324.25 37.480469 C 320.664062 36.859375 314.175781 35.433594 306.828125 37.035156 C 299.488281 38.632812 285.992188 38.808594 283.257812 38.898438 C 280.527344 38.984375 266.179688 44.492188 256.53125 45.734375 C 246.875 46.976562 225.359375 57.273438 213.488281 57.984375 C 201.617188 58.695312 183.941406 71.304688 176.679688 73.789062 C 169.421875 76.269531 150.546875 91.007812 146.539062 93.316406 C 142.523438 95.625 128.859375 101.21875 123.648438 102.109375 C 118.441406 102.996094 113.316406 103.972656 109.730469 103.972656 C 106.144531 103.972656 103.066406 104.683594 96.917969 102.460938 C 90.769531 100.242188 92.304688 100.957031 87.609375 99.976562 C 82.910156 99 82.65625 101.21875 82.144531 102.996094 C 81.632812 104.769531 79.582031 108.851562 80.183594 111.429688 C 80.78125 114.007812 81.550781 117.113281 81.71875 119.332031 C 81.886719 121.550781 82.828125 122.703125 82.574219 125.636719 C 82.316406 128.566406 80.695312 135.132812 81.976562 137.175781 C 83.257812 139.214844 84.878906 142.324219 86.074219 143.304688 C 87.269531 144.277344 91.625 147.117188 93.25 147.738281 C 94.871094 148.363281 95.808594 149.25 96.664062 149.25 C 97.519531 149.25 101.191406 148.804688 104.175781 148.984375 C 107.167969 149.160156 116.304688 150.578125 120.402344 152.265625 C 124.503906 153.953125 126.640625 154.84375 130.652344 156.171875 C 134.664062 157.503906 134.835938 158.394531 140.730469 160.613281 C 146.621094 162.835938 155.074219 161.410156 160.453125 163.367188 C 165.835938 165.316406 176.339844 167.808594 180.351562 169.671875 C 184.367188 171.535156 195.984375 173.484375 198.457031 174.375 C 200.933594 175.265625 221.175781 179.699219 223.824219 180.410156 C 226.472656 181.121094 225.359375 180.675781 233.554688 181.121094 C 241.753906 181.5625 243.289062 181.210938 246.195312 181.917969 C 249.097656 182.628906 254.226562 182.007812 256.699219 181.917969 C 259.171875 181.832031 281.125 180.941406 287.527344 179.523438 C 293.933594 178.101562 294.105469 177.660156 301.191406 177.835938 C 308.28125 178.011719 328.691406 178.28125 331.769531 177.835938 C 334.839844 177.390625 351.066406 175.527344 358.835938 173.664062 C 366.609375 171.800781 364.558594 171.269531 365.410156 170.914062 C 366.265625 170.554688 370.109375 168.246094 374.722656 167.09375 C 379.332031 165.9375 390.949219 162.921875 401.023438 156.527344 C 411.101562 150.132812 417.847656 146.765625 422.117188 144.011719 C 426.386719 141.257812 440.222656 130.605469 439.449219 128.390625 C 438.6875 126.164062 436.742188 123.660156 435.542969 123.75 M 414.773438 106.191406 C 415.625 106.8125 415.96875 107.609375 415.96875 107.609375 M 420.496094 110.714844 C 419.898438 111.964844 419.640625 112.585938 419.640625 112.496094 "/>
<path style=" stroke:none;fill-rule:nonzero;fill:rgb(100%,81.176472%,9.019608%);fill-opacity:1;" d="M 401.023438 156.527344 C 398.121094 157.949219 396.582031 154.042969 395.046875 151.734375 C 393.511719 149.425781 390.4375 142.5 393.511719 140.550781 C 396.582031 138.59375 402.902344 136.109375 406.148438 135.21875 C 409.347656 134.34375 408.289062 134.722656 415.328125 131.730469 C 415.261719 131.664062 415.191406 131.601562 415.113281 131.539062 C 414.996094 131.546875 414.886719 131.550781 414.773438 131.558594 C 389.289062 133.191406 395.109375 124.511719 384.882812 119.953125 C 366.230469 111.636719 362.574219 79.640625 323.78125 78.402344 C 295.035156 77.488281 245 135.132812 161.210938 127.210938 C 102.808594 118.355469 88.734375 100.210938 87.609375 99.976562 C 82.910156 99 82.65625 101.21875 82.144531 102.996094 C 81.632812 104.769531 79.582031 108.851562 80.183594 111.429688 C 80.78125 114.007812 81.550781 117.113281 81.71875 119.332031 C 81.886719 121.550781 82.828125 122.703125 82.574219 125.636719 C 82.316406 128.566406 80.695312 135.132812 81.976562 137.175781 C 83.257812 139.214844 84.878906 142.324219 86.074219 143.304688 C 87.269531 144.277344 91.625 147.117188 93.25 147.738281 C 94.871094 148.363281 95.808594 149.25 96.664062 149.25 C 97.519531 149.25 101.191406 148.804688 104.175781 148.984375 C 107.167969 149.160156 116.304688 150.578125 120.402344 152.265625 C 124.503906 153.953125 126.640625 154.84375 130.652344 156.171875 C 134.664062 157.503906 134.835938 158.394531 140.730469 160.613281 C 146.621094 162.832031 155.074219 161.410156 160.453125 163.367188 C 165.835938 165.316406 176.339844 167.808594 180.351562 169.671875 C 184.367188 171.535156 195.984375 173.484375 198.457031 174.375 C 200.933594 175.265625 221.175781 179.699219 223.824219 180.410156 C 226.472656 181.121094 225.359375 180.675781 233.554688 181.121094 C 241.753906 181.5625 243.289062 181.210938 246.195312 181.917969 C 249.097656 182.628906 254.226562 182.007812 256.699219 181.917969 C 259.171875 181.832031 281.125 180.941406 287.527344 179.523438 C 293.933594 178.101562 294.105469 177.660156 301.191406 177.835938 C 308.28125 178.011719 328.691406 178.28125 331.769531 177.835938 C 334.839844 177.390625 351.066406 175.527344 358.835938 173.664062 C 366.609375 171.800781 364.558594 171.269531 365.410156 170.914062 C 366.265625 170.554688 370.109375 168.246094 374.722656 167.09375 C 379.332031 165.9375 390.949219 162.921875 401.023438 156.53125 M 373.992188 167.363281 "/>
<path style="fill:none;stroke-width:1.44;stroke-linecap:round;stroke-linejoin:miter;stroke:rgb(61.176473%,81.960785%,94.117647%);stroke-opacity:1;stroke-miterlimit:4;" d="M 43.065407 48.751022 C 43.564574 48.950729 43.01341 48.853372 43.483979 49.028115 M 45.831623 49.80697 C 46.439983 50.044121 46.369788 50.006676 46.93395 50.283769 M 49.1906 51.611816 C 49.809359 52.001244 49.830158 51.988762 50.394321 52.560422 M 51.717633 53.945885 C 52.528779 54.924446 52.520979 55.441187 53.209934 57.141187 C 55.744766 63.399487 57.346259 71.527538 56.542913 75.391856 C 55.744766 79.253679 57.525647 83.5249 59.7459 86.977324 C 61.10041 89.074242 68.156342 96.703026 68.156342 96.703026 M 15.44484 79.785397 C 17.711889 80.18481 18.380045 80.449421 20.246721 79.917703 C 22.115997 79.383488 23.717491 76.987011 25.98714 79.118877 C 28.256789 81.250743 38.983678 85.741641 40.265393 95.502291 C 40.683965 97.556771 41.120736 98.882322 41.791491 99.818446 M 43.140802 101.061619 C 44.003945 101.595833 45.13227 101.977772 46.668768 102.432104 M 18.380045 66.065567 C 17.178924 66.996699 15.177057 70.329299 13.975937 71.128125 C 12.774817 71.924454 11.706288 73.791709 11.040732 73.659403 C 10.372576 73.524602 10.239985 73.524602 10.239985 73.524602 M 40.397984 59.273053 C 41.331322 59.807268 43.733563 60.738399 44.934683 64.600222 C 46.138403 68.462044 45.467647 71.26043 44.269127 73.524602 C 43.065407 75.791269 41.331322 78.719464 39.196864 79.653092 L 37.062405 80.584223 " transform="matrix(-1.502504,0,0,1.564797,439.666863,-0.183895)"/>
<path style="fill:none;stroke-width:0.24;stroke-linecap:butt;stroke-linejoin:miter;stroke:rgb(0%,0%,0%);stroke-opacity:1;stroke-miterlimit:4;" d="M 73.803167 53.628851 C 73.803167 53.628851 75.766037 53.88098 76.870964 54.222978 C 77.98109 54.562478 80.536721 56.092729 81.90423 57.880101 C 83.266539 59.66997 85.82477 61.115345 87.103885 61.711968 C 88.3804 62.306094 88.3804 64.69009 88.297206 66.137961 C 88.211411 67.583336 86.42273 71.669828 85.653181 72.690827 C 84.888832 73.70933 81.730041 82.306691 80.027154 84.603314 C 78.321668 86.899938 72.10028 98.560296 70.563782 100.602294 C 69.027284 102.646788 64.597178 101.96529 61.695771 105.198037 C 58.799563 108.430785 55.2196 106.730784 50.784295 107.497157 C 47.271928 108.103766 43.710164 107.072781 43.710164 107.072781 M 3.449235 80.21227 C 2.094725 78.564692 1.988132 76.497731 5.599293 73.48466 C 10.939338 68.546919 21.401044 59.412848 25.719358 55.898015 C 30.037671 52.37819 41.635502 44.322533 46.294393 41.826203 C 51.296461 37.969373 51.977616 36.945877 57.205869 33.940296 C 63.346661 29.571718 74.427126 24.466723 76.816367 24.069807 C 79.203009 23.67289 83.521323 22.76173 88.411598 23.785225 C 93.296674 24.806224 102.279078 24.918559 104.098957 24.975975 C 105.916237 25.030894 115.465403 28.550719 121.886977 29.344552 C 128.31375 30.138385 142.6336 36.718711 150.534476 37.173043 C 158.435352 37.627375 170.199571 45.685529 175.032651 47.273195 C 179.86313 48.858364 192.425497 58.277018 195.09292 59.752349 C 197.765542 61.22768 206.859739 64.802424 210.327909 65.371588 C 213.793479 65.938255 217.204452 66.562337 219.591094 66.562337 C 221.977736 66.562337 224.0264 67.016669 228.118528 65.596257 C 232.210657 64.178342 231.188925 64.63517 234.313917 64.008591 C 237.44151 63.384509 237.610498 64.802424 237.951076 65.938255 C 238.291653 67.071588 239.656563 69.680253 239.256189 71.327831 C 238.858416 72.975409 238.34625 74.959991 238.234457 76.377907 C 238.122664 77.795822 237.496106 78.53224 237.665095 80.406984 C 237.836683 82.279231 238.915612 86.475562 238.062868 87.781143 C 237.210125 89.084227 236.131197 91.071306 235.335649 91.697884 C 234.540102 92.319471 231.641294 94.134303 230.559766 94.531219 C 229.480838 94.930632 228.856879 95.497299 228.287517 95.497299 C 227.718155 95.497299 225.274317 95.212717 223.288049 95.327548 C 221.296581 95.439883 215.215584 96.346051 212.488365 97.424466 C 209.758546 98.50288 208.336441 99.072043 205.666418 99.920796 C 202.996395 100.772044 202.882003 101.341207 198.958863 102.759123 C 195.038323 104.179535 189.412296 103.268374 185.832334 104.519036 C 182.249772 105.764704 175.258836 107.357363 172.588813 108.548112 C 169.91619 109.738862 162.184303 110.98453 160.538612 111.553694 C 158.890322 112.122857 145.418016 114.956192 143.655333 115.410524 C 141.892649 115.864856 142.6336 115.580274 137.179162 115.864856 C 131.722124 116.146941 130.700392 115.922271 128.76612 116.374107 C 126.834449 116.828439 123.420875 116.431523 121.775184 116.374107 C 120.129494 116.319188 105.518463 115.750025 101.257346 114.843857 C 96.993629 113.935193 96.879236 113.653107 92.163149 113.765442 C 87.444462 113.877777 73.860364 114.050024 71.811699 113.765442 C 69.768235 113.480861 58.968552 112.290111 53.797495 111.099362 C 48.623838 109.908612 49.988747 109.569111 49.421985 109.341945 C 48.852623 109.112283 46.294393 107.636952 43.223996 106.900535 C 40.1562 106.161621 32.424313 104.234454 25.719358 100.147962 C 19.011803 96.061469 14.521901 93.909633 11.680289 92.14972 C 8.838678 90.389807 -0.369911 83.582315 0.144855 82.166896 C 0.651821 80.743988 1.946535 79.143841 2.744682 79.201256 M 16.567965 67.980253 C 16.001203 68.377169 15.772418 68.88642 15.772418 68.88642 M 12.759218 70.871003 C 13.156991 71.669828 13.32858 72.066745 13.32858 72.009329 " transform="matrix(-1.502504,0,0,1.564797,439.666863,-0.183895)"/>
<path style="fill-rule:nonzero;fill:rgb(32.941177%,27.843139%,24.705882%);fill-opacity:1;stroke-width:0.24;stroke-linecap:butt;stroke-linejoin:miter;stroke:rgb(0%,0%,0%);stroke-opacity:1;stroke-miterlimit:4;" d="M 6.706819 82.815942 C 5.768282 82.284224 3.488233 80.70904 2.744682 79.201256 C 1.946535 79.143841 0.651821 80.743988 0.144855 82.166896 C -0.369911 83.582315 8.838678 90.389807 11.680289 92.14972 C 14.521901 93.909633 19.011803 96.061469 25.719358 100.147962 C 27.65103 101.056626 28.675362 98.560296 29.697094 97.084965 C 30.718826 95.609634 32.76489 91.18364 30.718826 89.937972 C 28.675362 88.68731 24.468841 87.099644 22.308384 86.530481 C 20.150527 85.966311 16.284584 84.603314 13.099795 82.106984 C 10.146391 79.156322 5.256116 74.166158 3.631223 75.466746 C 2.110324 77.451329 2.411904 78.954119 3.449235 80.21227 C 4.44237 81.417997 6.106259 82.396559 7.473768 83.355149 C 8.071729 83.921816 8.456503 84.134004 9.122059 84.718146 C 9.278049 84.8854 13.164791 87.801113 15.145859 89.937972 C 22.030203 96.877769 19.80735 95.949135 26.059935 98.560296 " transform="matrix(-1.502504,0,0,1.564797,439.666863,-0.183895)"/>
<path style="fill-rule:nonzero;fill:rgb(54.11765%,29.803923%,13.725491%);fill-opacity:1;stroke-width:0.24;stroke-linecap:butt;stroke-linejoin:miter;stroke:rgb(0%,0%,0%);stroke-opacity:1;stroke-miterlimit:4;" d="M 22.906344 70.646333 C 23.928077 72.942957 25.719358 76.774823 28.787154 77.541197 C 31.854951 78.30757 32.112334 79.580698 36.716628 78.050448 C 41.320923 76.517701 41.06614 76.517701 43.112204 73.200079 C 45.155668 69.882456 44.903485 68.095084 44.646102 65.541338 C 44.391319 62.987592 41.320923 59.158222 38.762692 58.394345 C 36.207062 57.625475 32.369717 57.37085 28.787154 58.137223 C 25.207192 58.903596 24.697626 61.20022 23.928077 62.478341 C 23.163727 63.753966 21.882012 68.349709 22.906344 70.646333 Z M 22.906344 70.646333 " transform="matrix(-1.502504,0,0,1.564797,439.666863,-0.183895)"/>
<path style="fill-rule:nonzero;fill:rgb(14.901961%,12.941177%,11.764706%);fill-opacity:1;stroke-width:0.24;stroke-linecap:butt;stroke-linejoin:miter;stroke:rgb(0%,0%,0%);stroke-opacity:1;stroke-miterlimit:4;" d="M 32.881883 61.457342 C 30.066269 61.711968 28.787154 61.457342 27.508039 63.244714 C 26.231524 65.032087 25.493173 71.552501 27.167462 73.796702 C 28.363382 74.563075 29.470909 75.244573 31.090601 75.244573 C 32.710294 75.244573 35.18013 75.072326 36.290256 74.563075 C 37.400383 74.051327 38.934281 74.221078 39.872819 72.942957 C 40.808757 71.669828 41.235128 70.98833 41.149334 69.031208 C 41.06614 67.071588 41.06614 65.713585 40.213396 64.517843 C 39.358053 63.327093 38.762692 61.711968 37.143 61.285095 C 35.525907 60.858223 35.694896 61.20022 32.881883 61.457342 Z M 32.881883 61.457342 " transform="matrix(-1.502504,0,0,1.564797,439.666863,-0.183895)"/>
<path style=" stroke:none;fill-rule:nonzero;fill:rgb(100%,100%,100%);fill-opacity:1;" d="M 399.871094 105.039062 C 399.359375 105.703125 398.71875 105.96875 397.050781 105.433594 C 395.386719 104.90625 394.875 103.972656 391.804688 103.839844 C 388.726562 103.703125 387.320312 103.703125 385.910156 103.972656 C 384.5 104.238281 383.605469 103.308594 383.347656 103.972656 C 383.089844 104.636719 381.042969 105.171875 384.117188 105.835938 C 387.1875 106.5 387.703125 108.101562 390.007812 108.101562 C 392.316406 108.101562 392.441406 109.167969 394.746094 108.898438 C 397.050781 108.632812 399.359375 109.964844 399.488281 110.632812 C 399.617188 111.296875 402.222656 110.1875 402.222656 109.121094 C 402.222656 108.054688 400.382812 104.375 399.871094 105.039062 Z M 399.871094 105.039062 "/>
<path style="fill-rule:nonzero;fill:rgb(45.882353%,38.82353%,34.901962%);fill-opacity:1;stroke-width:0.24;stroke-linecap:butt;stroke-linejoin:miter;stroke:rgb(0%,0%,0%);stroke-opacity:1;stroke-miterlimit:4;" d="M 126.350881 0.122513 C 125.60733 0.115024 124.411409 0.754084 123.935641 0.978754 C 122.856713 1.488005 121.263018 2.281838 120.129494 2.851001 C 118.990769 3.415172 118.080829 3.757169 116.375343 4.947919 C 114.669856 6.141164 111.940037 8.577582 110.746716 8.976995 C 109.555995 9.373912 109.953769 9.373912 109.667788 8.69491 C 109.384406 8.013412 109.384406 7.556583 109.667788 5.117669 C 109.953769 2.678755 108.87224 4.438667 107.052361 5.459666 C 105.235082 6.480665 105.063493 7.047332 103.360606 8.637494 C 101.652519 10.22516 100.74258 10.44983 99.549259 10.791827 C 98.355938 11.131328 97.903568 10.44983 97.562991 8.862164 C 97.469397 8.425306 98.077757 6.685364 97.451198 6.934997 C 95.789908 7.591532 91.812172 11.787863 90.741043 13.063488 C 89.261742 14.818408 87.275473 15.330155 87.158481 15.04807 C 87.046689 14.763488 86.706111 14.593738 86.477326 14.593738 C 86.251141 14.593738 84.090685 16.40857 83.297737 17.035149 C 82.49959 17.656735 74.427126 24.466723 76.816367 24.069807 C 79.203009 23.67289 83.521323 22.76173 88.411598 23.785225 C 93.296674 24.806224 102.279078 24.918559 104.098957 24.975975 C 105.916237 25.030894 115.465403 28.550719 121.886977 29.344552 C 128.31375 30.138385 142.6336 36.718711 150.534476 37.173043 C 158.435352 37.627375 170.199571 45.685529 175.032651 47.273195 C 179.86313 48.858364 192.425497 58.277018 195.09292 59.752349 C 196.954396 60.780837 201.920067 62.822835 205.9342 64.158371 C 207.694283 64.747505 206.066791 63.214758 206.859739 62.817842 C 207.655286 62.420926 210.840075 62.817842 212.373973 62.875258 C 213.910471 62.930177 218.283381 62.306094 219.877075 61.624596 C 221.46817 60.948091 220.784415 56.519601 220.841611 55.216517 C 220.872809 54.540012 221.559163 51.796545 221.182188 49.142946 C 220.831212 46.666587 219.419505 44.272606 219.307713 43.641034 C 219.19332 42.996981 218.015599 40.420769 216.466101 38.024292 C 214.877607 35.567903 212.919937 33.293746 212.600158 32.689634 C 211.976199 31.498885 206.407369 26.448809 205.385637 25.769808 C 204.358705 25.088309 197.708346 20.549981 196.629418 20.04073 C 195.550489 19.531479 193.845002 18.053651 190.150647 17.147484 C 188.595951 16.763049 187.077651 15.98669 185.43456 15.614737 C 183.164911 15.102989 180.871863 15.063048 179.917726 15.160405 C 178.272036 15.330155 177.871662 15.160405 176.907126 15.04807 C 175.93999 14.933239 176.225971 14.763488 174.975454 14.990654 C 173.724937 15.215324 173.212771 15.614737 172.191039 16.011653 C 171.166707 16.40857 170.709137 16.236323 169.630209 16.296235 C 168.55388 16.353651 168.436888 15.557321 167.984518 15.275236 C 167.529548 14.990654 166.619609 15.215324 164.630741 15.275236 C 162.641873 15.330155 163.265831 15.160405 162.756265 14.254237 C 162.244099 13.343077 162.127107 12.549244 162.127107 12.549244 C 162.127107 12.549244 161.279563 12.381989 160.140839 12.436909 C 159.002114 12.494324 158.661537 12.097408 157.980382 11.530741 C 157.296627 10.961578 157.468216 10.906658 156.727265 9.488743 C 155.991514 8.068331 156.50368 8.749829 155.533944 8.637494 C 154.572008 8.522663 154.228831 8.69491 152.068374 8.69491 C 149.910517 8.69491 151.103838 8.297993 150.420084 7.499168 C 149.738929 6.705335 149.853321 6.425746 149.853321 6.425746 C 149.853321 6.425746 148.771793 6.765247 147.91905 6.934997 C 147.068906 7.107244 146.385151 7.616495 144.90585 7.386833 C 143.429148 7.162163 144.055706 6.365834 144.055706 6.365834 L 143.600736 4.947919 C 143.600736 4.947919 141.780857 5.62692 140.816321 5.968918 C 139.846585 6.308418 138.884649 6.480665 138.312687 6.308418 C 137.745925 6.141164 137.574336 5.2325 136.950377 3.247918 C 136.326419 1.258343 135.642664 1.772587 134.678128 1.999753 C 133.708393 2.224422 133.367815 2.449092 132.460475 2.905921 C 131.550536 3.360253 128.368347 4.493586 127.856181 4.438667 C 127.344015 4.381252 126.545868 4.381252 126.66286 2.905921 C 126.714857 2.231911 127.26602 0.609297 126.777252 0.237344 C 126.66806 0.157461 126.522469 0.122513 126.350881 0.122513 Z M 126.350881 0.122513 " transform="matrix(-1.502504,0,0,1.564797,439.666863,-0.183895)"/>
<path style="fill-rule:nonzero;fill:rgb(38.039216%,32.941177%,29.019609%);fill-opacity:1;stroke-width:0.24;stroke-linecap:butt;stroke-linejoin:miter;stroke:rgb(0%,0%,0%);stroke-opacity:1;stroke-miterlimit:4;" d="M 149.083772 33.543379 C 149.255361 32.180383 150.534476 30.393011 151.473014 29.032511 C 152.408952 27.672011 155.565142 25.460263 157.608607 23.92502 C 159.657271 22.394769 159.997848 21.800643 162.301295 19.499026 C 164.599543 17.202403 164.919322 18.263343 165.478285 16.862902 C 164.368158 17.372153 162.127107 18.989775 160.933786 19.756148 C 159.740465 20.522522 158.976116 21.031773 157.439618 22.225019 C 155.90572 23.415768 154.283427 24.097266 153.006912 25.460263 C 151.727797 26.818266 150.791859 27.075388 150.02231 27.58464 C 149.255361 28.096387 146.270759 30.735008 144.994244 31.756007 C 143.712529 32.777006 143.202963 32.861881 142.519208 32.010633 C 141.838053 31.159384 143.114568 30.225757 144.055706 28.862761 C 144.994244 27.499764 146.270759 26.39389 147.890452 24.691393 C 149.512744 22.991392 149.42435 23.243522 151.473014 21.286399 C 153.519078 19.331772 153.688067 19.841024 156.415286 17.287278 C 157.200434 16.396088 158.812327 15.222813 158.687535 14.880816 C 157.567009 15.41503 156.332091 16.353651 153.859655 17.799026 C 151.38722 19.246897 150.02231 20.2654 149.083772 20.694769 C 148.147834 21.119145 142.519208 24.778765 139.365617 28.181262 C 136.212026 31.58376 135.957243 28.777885 136.809987 26.818266 C 137.66013 24.86364 138.512874 24.946019 139.623 23.330893 C 140.730527 21.713271 144.565272 18.565399 148.231029 15.499906 C 151.896786 12.436909 151.896786 12.352034 150.02231 13.288157 C 148.147834 14.224281 147.380885 14.651153 145.844387 15.672152 C 144.310489 16.693151 142.350219 17.711654 140.387349 19.583902 C 138.427079 21.458646 142.519208 17.799026 134.080168 24.778765 C 125.641128 31.756007 132.119898 25.288016 132.374681 23.840144 C 132.632064 22.394769 133.396413 21.031773 134.678128 19.331772 C 135.957243 17.629275 138.255491 16.520905 143.629334 12.182283 C 149.000578 7.841165 145.589604 9.800784 144.055706 10.394911 C 142.519208 10.991534 141.838053 11.927657 140.046772 12.94616 C 138.255491 13.969655 136.381015 15.672152 134.847117 16.778027 C 133.313219 17.883901 132.715258 19.159526 127.684592 22.477148 C 122.656526 25.797267 122.825515 24.182142 123.509269 22.56452 C 124.190424 20.946898 125.297951 20.2654 127.258221 17.799026 C 129.21849 15.330155 131.352949 14.052034 135.1045 11.158788 C 138.853451 8.268038 138.427079 7.074792 135.616666 9.628537 C 132.801053 12.182283 133.568002 10.906658 131.779321 12.182283 C 129.988039 13.460404 129.902245 13.88478 121.546399 19.416648 C 113.190554 24.946019 116.515733 20.694769 116.858911 18.393152 C 117.040898 17.152476 119.008968 15.005632 121.546399 12.931182 C 123.527468 11.31356 125.901111 9.046893 128.027769 7.796231 C 128.214957 7.683896 129.361481 7.127215 129.546069 7.022369 C 130.692593 6.126186 131.662328 5.65438 132.057502 4.483601 C 129.585066 6.183602 128.196758 6.735291 126.577066 7.928537 C 124.957373 9.119286 123.420875 9.968038 122.568132 10.22516 C 121.717988 10.482282 120.610462 11.673032 113.021565 17.883901 C 105.435268 24.097266 109.865375 17.968776 110.208552 15.924282 C 110.549129 13.88478 116.346744 9.204161 120.269884 5.202544 C 124.190424 1.203423 119.840913 4.438667 118.052231 5.716788 C 116.26355 6.989917 115.577196 7.162163 113.447937 8.947039 C 111.316078 10.734412 107.564527 13.799905 106.288012 14.651153 C 105.006297 15.499906 102.110089 18.308277 100.235614 20.862023 C 98.355938 23.415768 97.591589 22.225019 97.505795 22.225019 C 97.42 22.225019 97.591589 20.437647 97.846372 19.499026 C 98.103755 18.565399 100.916768 14.309156 102.279078 12.94616 C 103.643987 11.588157 106.199618 7.499168 105.775846 8.095791 C 105.346874 8.69491 103.727182 10.052914 102.619655 11.246159 C 101.512129 12.436909 95.373936 17.968776 94.349604 18.989775 C 93.327872 20.01327 92.30354 21.967897 91.024425 22.56452 C 89.747909 23.158646 89.916898 22.052772 89.662115 21.458646 C 89.407332 20.862023 91.705579 15.41503 92.475128 14.052034 C 93.239478 12.694031 95.373936 9.543662 94.606987 10.310036 C 93.837438 11.073913 93.073089 12.182283 92.30354 12.861285 C 91.536591 13.542783 91.281808 13.460404 89.490526 16.778027 C 87.699245 20.098146 85.82477 22.137647 84.888832 22.225019 C 83.950294 22.309894 83.266539 21.885518 83.352334 21.543521 C 83.438128 21.20402 84.033489 19.671273 84.45986 18.820025 C 84.888832 17.968776 86.677513 15.41503 86.505924 15.07553 C 86.336936 14.733532 83.950294 17.799026 82.756973 19.583902 C 81.563652 21.371274 74.427126 24.466723 76.816367 24.069807 C 79.203009 23.67289 83.521323 22.76173 88.411598 23.785225 C 93.296674 24.806224 102.279078 24.918559 104.098957 24.975975 C 105.916237 25.030894 115.465403 28.550719 121.886977 29.344552 C 128.31375 30.138385 142.6336 36.718711 150.534476 37.173043 C 150.93485 37.198007 148.914784 34.903879 149.083772 33.543379 Z M 149.083772 33.543379 " transform="matrix(-1.502504,0,0,1.564797,439.666863,-0.183895)"/>
<path style="fill-rule:nonzero;fill:rgb(100%,85.09804%,29.803923%);fill-opacity:1;stroke-width:0.24;stroke-linecap:round;stroke-linejoin:round;stroke:rgb(0%,0%,0%);stroke-opacity:1;stroke-miterlimit:4;" d="M 94.206614 113.713019 C 93.946631 113.713019 93.340871 113.737983 92.163149 113.765442 C 90.413465 113.805383 87.444462 113.85531 84.301271 113.887762 C 87.444462 118.079101 85.229409 115.183358 86.8777 121.821099 C 86.8777 121.821099 89.092753 129.537255 89.547723 131.58175 C 90.002692 133.621251 93.528059 141.621989 94.209213 142.642988 C 94.890368 143.666484 97.27701 146.047983 97.958165 147.353563 C 98.644519 148.656647 99.720848 150.304225 100.859572 152.059145 C 101.993097 153.821554 101.993097 154.612891 103.867573 156.54505 C 105.747248 158.472217 106.657187 159.835213 107.169353 159.835213 C 107.67892 159.835213 107.392939 160.23213 108.302878 158.699383 C 109.212818 157.166637 110.348942 154.500556 111.14709 154.046224 C 111.942637 153.594388 113.078761 150.813477 113.078761 150.813477 L 113.819712 148.656647 C 113.819712 148.656647 114.724452 147.75048 115.182022 145.651066 C 115.634392 143.549156 115.80598 141.452239 116.487135 140.258993 C 117.16829 139.068244 117.909241 135.778081 117.909241 135.778081 C 117.909241 135.778081 118.592995 132.260752 117.966437 130.842836 C 117.339879 129.424921 115.465403 126.531674 115.410807 126.531674 C 115.35361 126.531674 113.479135 124.374845 110.008365 122.614932 C 106.540195 120.857516 103.75578 118.191435 102.39347 117.961773 C 101.028561 117.737103 98.355938 116.486442 98.355938 116.431523 C 98.355938 116.374107 96.653051 115.695105 94.890368 115.580274 C 94.094821 115.580274 93.127685 114.616691 93.127685 114.616691 C 92.610319 113.877777 94.978762 113.70553 94.206614 113.713019 Z M 94.206614 113.713019 " transform="matrix(-1.502504,0,0,1.564797,439.666863,-0.183895)"/>
<path style="fill-rule:nonzero;fill:rgb(100%,85.09804%,29.803923%);fill-opacity:1;stroke-width:0.24;stroke-linecap:round;stroke-linejoin:round;stroke:rgb(0%,0%,0%);stroke-opacity:1;stroke-miterlimit:4;" d="M 198.958863 102.759123 C 195.038323 104.179535 189.412296 103.268374 185.832334 104.519036 C 182.249772 105.764704 175.258836 107.357363 172.588813 108.548112 C 169.91619 109.738862 162.184303 110.98453 160.538612 111.553694 C 158.890322 112.122857 145.418016 114.956192 143.655333 115.410524 C 141.892649 115.864856 142.233227 116.716104 142.233227 116.716104 C 142.233227 116.716104 144.510676 120.006267 148.147834 122.050762 C 151.784993 124.090263 160.42422 129.312586 165.085711 130.331088 C 169.747201 131.352087 180.77307 133.057081 183.612081 135.096583 C 186.456293 137.141077 188.047387 137.253412 191.115183 138.047245 C 194.18558 138.843574 196.686614 139.185571 198.735278 138.162076 C 200.778742 137.141077 206.121388 134.757082 208.05306 132.715084 C 209.987331 130.673086 210.668486 131.239753 212.488365 127.268091 C 214.305645 123.29643 215.667954 122.614932 215.215584 118.30377 C 214.763214 113.995105 214.646222 110.699949 214.191252 109.227114 C 213.738882 107.749287 210.780279 104.007288 209.872939 103.782618 C 208.962999 103.552956 201.402701 103.665291 201.402701 103.665291 C 199.416433 104.007288 199.585421 103.440621 198.958863 102.759123 Z M 198.958863 102.759123 " transform="matrix(-1.502504,0,0,1.564797,439.666863,-0.183895)"/>
<path style=" stroke:none;fill-rule:nonzero;fill:rgb(43.921569%,36.862746%,34.117648%);fill-opacity:1;" d="M 247.5 72.257812 C 248.777344 72.261719 250.089844 72.386719 251.402344 72.675781 C 257.425781 74.011719 275.617188 81.199219 280.101562 84.53125 C 284.585938 87.859375 289.195312 94.382812 291.117188 97.714844 C 293.035156 101.042969 299.054688 108.101562 301.746094 111.296875 C 304.4375 114.492188 310.585938 122.21875 312.382812 124.613281 C 314.175781 127.011719 314.042969 130.472656 314.042969 132.070312 C 314.042969 133.671875 314.175781 135.132812 312.636719 139.527344 C 311.097656 143.925781 309.945312 148.183594 308.023438 148.453125 C 306.105469 148.714844 302.644531 148.980469 297.519531 148.453125 C 292.398438 147.917969 279.84375 146.585938 276.898438 146.1875 C 273.949219 145.789062 270.496094 146.585938 267.804688 144.722656 C 265.113281 142.859375 258.960938 139.527344 255.25 135.664062 C 251.535156 131.800781 243.589844 124.613281 241.667969 120.882812 C 239.75 117.15625 234.109375 106.371094 233.34375 102.507812 C 232.574219 98.648438 231.167969 89.460938 231.167969 88.125 C 231.167969 86.792969 233.085938 76.140625 236.289062 74.808594 C 238.792969 73.765625 242.9375 72.242188 247.5 72.257812 Z M 247.5 72.257812 "/>
<path style="fill-rule:nonzero;fill:rgb(100%,85.09804%,29.803923%);fill-opacity:1;stroke-width:0.24;stroke-linecap:round;stroke-linejoin:round;stroke:rgb(0%,0%,0%);stroke-opacity:1;stroke-miterlimit:4;" d="M 285.767103 45.947643 C 285.124946 45.942651 283.926425 46.157335 281.430591 46.761447 C 276.997885 47.839862 269.609175 50.618277 265.574243 52.265855 C 261.536711 53.913433 258.354522 54.702273 254.431382 56.349851 C 251.137401 57.428265 247.271457 59.128266 243.746091 60.209177 C 241.190461 61.569677 231.188925 64.63517 234.313917 64.008591 C 237.44151 63.384509 237.610498 64.802424 237.951076 65.938255 C 238.291653 67.071588 239.656563 69.680253 239.256189 71.327831 C 238.858416 72.975409 238.34625 74.959991 238.234457 76.377907 C 238.122664 77.795822 237.496106 78.53224 237.665095 80.406984 C 237.836683 82.279231 238.915612 86.475562 238.062868 87.781143 C 237.210125 89.084227 236.131197 91.071306 235.335649 91.697884 C 234.540102 92.319471 231.641294 94.134303 230.559766 94.531219 C 229.480838 94.930632 228.856879 95.497299 228.287517 95.497299 C 227.718155 95.497299 234.88068 96.915214 236.248189 97.541793 C 237.610498 98.163379 247.159665 102.18996 249.829688 102.928873 C 252.499711 103.665291 264.778696 108.146203 266.083809 108.263531 C 267.391522 108.375866 278.591579 111.666029 279.556115 111.608613 C 280.523251 111.553694 283.760036 111.553694 283.760036 111.553694 L 283.648244 100.82946 C 283.648244 100.82946 282.057149 92.491717 281.14721 90.786724 C 280.23727 89.084227 278.302998 83.355149 277.621844 82.788482 C 276.940689 82.221816 276.147741 80.294649 276.147741 80.294649 C 276.147741 80.294649 276.657308 79.098907 277.341062 78.080404 C 278.703372 76.317995 279.441723 73.030328 280.182674 71.155584 C 281.945357 67.867918 283.479255 62.987592 283.874429 61.17276 C 283.874429 61.17276 286.432659 51.754107 286.432659 51.696692 C 286.432659 51.641772 286.999421 46.646616 286.604248 46.252196 C 286.427459 46.077453 286.26627 45.947643 285.767103 45.947643 Z M 285.767103 45.947643 " transform="matrix(-1.502504,0,0,1.564797,439.666863,-0.183895)"/>
<path style=" stroke:none;fill-rule:nonzero;fill:rgb(100%,86.274511%,31.764707%);fill-opacity:1;" d="M 287.539062 92.378906 C 289.054688 94.402344 290.316406 96.335938 291.117188 97.714844 C 293.035156 101.042969 299.054688 108.101562 301.746094 111.296875 C 304.4375 114.492188 310.585938 122.21875 312.382812 124.613281 C 314.175781 127.011719 314.042969 130.472656 314.042969 132.070312 C 314.042969 133.671875 314.175781 135.132812 312.636719 139.527344 C 311.097656 143.925781 309.945312 148.183594 308.023438 148.453125 C 306.105469 148.714844 302.644531 148.980469 297.519531 148.453125 C 292.398438 147.917969 279.84375 146.585938 276.898438 146.1875 C 273.949219 145.789062 270.496094 146.585938 267.804688 144.722656 C 265.113281 142.859375 258.960938 139.527344 255.25 135.664062 C 251.535156 131.800781 243.589844 124.613281 241.667969 120.882812 C 241.101562 119.78125 240.195312 118.027344 239.199219 116.050781 C 257.953125 108.925781 273.9375 99.847656 287.539062 92.378906 Z M 287.539062 92.378906 "/>
<path style="fill:none;stroke-width:0.24;stroke-linecap:round;stroke-linejoin:round;stroke:rgb(0%,0%,0%);stroke-opacity:1;stroke-miterlimit:4;" d="M 127.897778 46.294633 C 127.047634 46.29713 126.174092 46.377012 125.30055 46.561741 C 121.291616 47.415486 109.18422 52.008733 106.199618 54.138102 C 103.215016 56.264976 100.147219 60.433847 98.868104 62.563216 C 97.591589 64.69009 93.585255 69.200958 91.793974 71.242956 C 90.002692 73.284954 85.910564 78.222695 84.714643 79.752945 C 83.521323 81.285692 83.609717 83.49744 83.609717 84.518439 C 83.609717 85.541935 83.521323 86.475562 84.545655 89.283933 C 85.569987 92.094801 86.336936 94.815801 87.616051 94.988047 C 88.892566 95.155302 91.196013 95.325052 94.606987 94.988047 C 98.015361 94.64605 106.371206 93.794802 108.331476 93.540176 C 110.294346 93.28555 112.592594 93.794802 114.383875 92.604052 C 116.175156 91.413303 120.269884 89.283933 122.73972 86.815063 C 125.212156 84.346192 130.500205 79.752945 131.779321 77.36895 C 133.055836 74.987451 136.809987 68.095084 137.319553 65.626213 C 137.831719 63.159839 138.767657 57.288471 138.767657 56.434726 C 138.767657 55.583477 137.491142 48.775985 135.359283 47.924737 C 133.692794 47.258217 130.934377 46.284648 127.897778 46.294633 Z M 127.897778 46.294633 " transform="matrix(-1.502504,0,0,1.564797,439.666863,-0.183895)"/>
<path style="fill-rule:nonzero;fill:rgb(14.901961%,9.019608%,3.921569%);fill-opacity:1;stroke-width:0.24;stroke-linecap:butt;stroke-linejoin:miter;stroke:rgb(0%,0%,0%);stroke-opacity:1;stroke-miterlimit:4;" d="M 17.418109 69.116083 C 16.115595 70.763661 15.145859 71.385247 14.23852 72.518581 C 13.042599 73.596995 11.565897 74.221078 12.078063 75.584074 C 12.590229 76.944574 13.099795 77.456321 15.658025 78.13782 C 18.216256 78.816821 20.26232 77.626072 20.943475 77.456321 C 21.627229 77.284075 22.136795 76.093325 21.967807 74.730329 C 21.796218 73.369829 20.379312 71.782163 20.090731 70.646333 C 19.80735 69.909916 20.379312 69.283337 20.090731 67.925333 C 19.978939 66.674672 19.126195 67.528417 17.418109 69.116083 Z M 17.418109 69.116083 " transform="matrix(-1.502504,0,0,1.564797,439.666863,-0.183895)"/>
<path style="fill-rule:nonzero;fill:rgb(14.901961%,9.019608%,3.921569%);fill-opacity:1;stroke-width:0.24;stroke-linecap:butt;stroke-linejoin:miter;stroke:rgb(0%,0%,0%);stroke-opacity:1;stroke-miterlimit:4;" d="M 210.327909 65.371588 C 213.793479 65.938255 217.204452 66.562337 219.591094 66.562337 C 221.977736 66.562337 224.0264 67.016669 228.118528 65.596257 C 232.210657 64.178342 231.188925 64.63517 234.313917 64.008591 C 237.44151 63.384509 237.610498 64.802424 237.951076 65.938255 C 238.291653 67.071588 239.656563 69.680253 239.256189 71.327831 C 238.858416 72.975409 238.34625 74.959991 238.234457 76.377907 C 238.122664 77.795822 237.496106 78.53224 237.665095 80.406984 C 237.836683 82.279231 234.199525 82.903314 232.265253 84.49098 C 230.333581 86.078645 229.652426 87.441642 227.832547 84.718146 C 224.879143 80.406984 221.694354 80.858819 221.46817 78.931653 C 221.241985 76.999493 217.035464 73.257494 216.466101 72.915497 C 215.896739 72.575996 209.306176 68.943836 210.327909 65.371588 Z M 210.327909 65.371588 " transform="matrix(-1.502504,0,0,1.564797,439.666863,-0.183895)"/>
</g>
</svg>
