<?xml version="1.0" encoding="UTF-8"?>
<!-- Created by grConvert v0.1-0 -->
<svg xmlns="http://www.w3.org/2000/svg" xmlns:xlink="http://www.w3.org/1999/xlink" width="359pt" height="200pt" viewBox="0 0 359 200" version="1.1">
<g id="surface89">
<path style=" stroke:none;fill-rule:nonzero;fill:rgb(40.784314%,34.901961%,31.372549%);fill-opacity:1;" d="M 92.253906 67.035156 C 92.253906 67.035156 94.707031 67.351562 96.089844 67.777344 C 97.476562 68.203125 100.671875 70.117188 102.378906 72.351562 C 104.082031 74.585938 107.28125 76.394531 108.878906 77.140625 C 110.476562 77.882812 110.476562 80.863281 110.371094 82.671875 C 110.265625 84.480469 108.027344 89.585938 107.066406 90.863281 C 106.109375 92.136719 102.164062 102.882812 100.035156 105.753906 C 97.902344 108.625 90.125 123.199219 88.203125 125.753906 C 86.285156 128.308594 80.746094 127.457031 77.121094 131.496094 C 73.5 135.539062 69.023438 133.414062 63.480469 134.371094 C 59.089844 135.128906 54.636719 133.839844 54.636719 133.839844 M 4.3125 100.265625 C 2.617188 98.207031 2.484375 95.621094 7 91.855469 C 13.675781 85.683594 26.75 74.265625 32.148438 69.871094 C 37.546875 65.472656 52.042969 55.402344 57.867188 52.28125 C 64.121094 47.460938 64.972656 46.183594 71.507812 42.425781 C 79.183594 36.964844 93.035156 30.582031 96.019531 30.085938 C 99.003906 29.589844 104.402344 28.453125 110.515625 29.730469 C 116.621094 31.007812 127.847656 31.148438 130.125 31.21875 C 132.394531 31.289062 144.332031 35.6875 152.359375 36.679688 C 160.390625 37.671875 178.292969 45.898438 188.167969 46.464844 C 198.042969 47.035156 212.75 57.105469 218.789062 59.089844 C 224.828125 61.074219 240.53125 72.847656 243.867188 74.691406 C 247.207031 76.535156 258.574219 81.003906 262.910156 81.714844 C 267.242188 82.421875 271.503906 83.203125 274.488281 83.203125 C 277.472656 83.203125 280.03125 83.769531 285.148438 81.996094 C 290.261719 80.222656 288.984375 80.792969 292.890625 80.011719 C 296.800781 79.230469 297.011719 81.003906 297.4375 82.421875 C 297.863281 83.839844 299.570312 87.101562 299.070312 89.160156 C 298.574219 91.21875 297.933594 93.699219 297.792969 95.472656 C 297.652344 97.246094 296.871094 98.164062 297.082031 100.507812 C 297.296875 102.847656 298.644531 108.09375 297.578125 109.726562 C 296.511719 111.355469 295.164062 113.839844 294.167969 114.621094 C 293.175781 115.398438 289.550781 117.667969 288.199219 118.164062 C 286.851562 118.664062 286.070312 119.371094 285.359375 119.371094 C 284.648438 119.371094 281.59375 119.015625 279.109375 119.160156 C 276.621094 119.300781 269.019531 120.433594 265.609375 121.78125 C 262.199219 123.128906 260.421875 123.839844 257.082031 124.902344 C 253.746094 125.964844 253.601562 126.675781 248.699219 128.449219 C 243.796875 130.222656 236.765625 129.085938 232.289062 130.648438 C 227.8125 132.207031 219.074219 134.195312 215.734375 135.683594 C 212.394531 137.171875 202.730469 138.730469 200.671875 139.441406 C 198.613281 140.152344 181.773438 143.695312 179.570312 144.261719 C 177.367188 144.832031 178.292969 144.476562 171.472656 144.832031 C 164.652344 145.183594 163.375 144.902344 160.957031 145.46875 C 158.542969 146.035156 154.277344 145.539062 152.21875 145.46875 C 150.160156 145.398438 131.898438 144.6875 126.570312 143.554688 C 121.242188 142.417969 121.097656 142.066406 115.203125 142.207031 C 109.304688 142.347656 92.324219 142.5625 89.765625 142.207031 C 87.210938 141.851562 73.710938 140.363281 67.246094 138.875 C 60.78125 137.386719 62.484375 136.960938 61.777344 136.675781 C 61.066406 136.390625 57.867188 134.546875 54.03125 133.625 C 50.195312 132.703125 40.53125 130.292969 32.148438 125.183594 C 23.765625 120.078125 18.152344 117.386719 14.601562 115.1875 C 11.046875 112.988281 -0.460938 104.476562 0.179688 102.707031 C 0.816406 100.929688 2.433594 98.929688 3.429688 99 M 20.710938 84.976562 C 20 85.472656 19.714844 86.109375 19.714844 86.109375 M 15.949219 88.589844 C 16.445312 89.585938 16.660156 90.082031 16.660156 90.011719 "/>
<path style=" stroke:none;fill-rule:nonzero;fill:rgb(100%,81.568627%,9.803922%);fill-opacity:1;" d="M 32.148438 125.183594 C 34.5625 126.320312 35.84375 123.199219 37.121094 121.355469 C 38.398438 119.511719 40.957031 113.980469 38.398438 112.421875 C 35.84375 110.859375 30.585938 108.875 27.886719 108.164062 C 25.222656 107.464844 26.105469 107.765625 20.25 105.375 C 20.304688 105.324219 20.363281 105.273438 20.425781 105.222656 C 20.523438 105.230469 20.617188 105.234375 20.710938 105.238281 C 41.910156 106.542969 37.070312 99.609375 45.578125 95.96875 C 61.09375 89.324219 64.136719 63.765625 96.410156 62.777344 C 120.324219 62.046875 161.953125 108.09375 231.660156 101.765625 C 280.246094 94.691406 291.957031 80.199219 292.890625 80.011719 C 296.800781 79.230469 297.011719 81.003906 297.4375 82.421875 C 297.863281 83.839844 299.570312 87.101562 299.070312 89.160156 C 298.574219 91.21875 297.933594 93.699219 297.792969 95.472656 C 297.652344 97.246094 296.871094 98.164062 297.082031 100.507812 C 297.296875 102.847656 298.644531 108.09375 297.578125 109.726562 C 296.511719 111.355469 295.164062 113.839844 294.167969 114.621094 C 293.175781 115.398438 289.550781 117.667969 288.199219 118.164062 C 286.851562 118.664062 286.070312 119.371094 285.359375 119.371094 C 284.648438 119.371094 281.59375 119.015625 279.109375 119.160156 C 276.621094 119.300781 269.019531 120.433594 265.609375 121.78125 C 262.199219 123.128906 260.421875 123.839844 257.082031 124.902344 C 253.746094 125.964844 253.601562 126.675781 248.699219 128.449219 C 243.796875 130.222656 236.765625 129.085938 232.289062 130.648438 C 227.8125 132.207031 219.074219 134.195312 215.734375 135.683594 C 212.394531 137.171875 202.730469 138.730469 200.671875 139.441406 C 198.613281 140.152344 181.773438 143.695312 179.570312 144.261719 C 177.367188 144.832031 178.292969 144.476562 171.472656 144.832031 C 164.652344 145.183594 163.375 144.902344 160.957031 145.46875 C 158.542969 146.035156 154.277344 145.539062 152.21875 145.46875 C 150.160156 145.398438 131.898438 144.6875 126.570312 143.554688 C 121.242188 142.417969 121.097656 142.066406 115.203125 142.207031 C 109.304688 142.347656 92.324219 142.5625 89.765625 142.207031 C 87.210938 141.851562 73.710938 140.363281 67.246094 138.875 C 60.78125 137.386719 62.484375 136.960938 61.777344 136.675781 C 61.066406 136.390625 57.867188 134.546875 54.03125 133.625 C 50.195312 132.703125 40.53125 130.292969 32.148438 125.1875 M 54.636719 133.839844 "/>
<path style="fill:none;stroke-width:1.440002;stroke-linecap:round;stroke-linejoin:miter;stroke:rgb(61.960784%,82.745098%,94.901961%);stroke-opacity:1;stroke-miterlimit:4;" d="M 43.065596 48.750076 C 43.565597 48.950076 43.012471 48.853201 43.484347 49.028201 M 45.831225 49.806327 C 46.440601 50.043828 46.368726 50.006328 46.934352 50.284453 M 49.190606 51.61258 C 49.809357 52.000081 49.831232 51.987581 50.393733 52.559457 M 51.718735 53.946959 C 52.528111 54.925085 52.521861 55.440711 53.209362 57.140714 C 55.743741 63.400099 57.346868 71.528236 56.543742 75.390742 C 55.743741 79.253248 57.524994 83.52513 59.746872 86.97826 C 61.099999 89.075139 68.15626 96.703275 68.15626 96.703275 M 15.443678 79.784499 C 17.712432 80.1845 18.381183 80.450125 20.246811 79.918874 C 22.115564 79.384498 23.718691 76.98762 25.987445 79.118873 C 28.256198 81.250126 38.98434 85.740758 40.265592 95.503274 C 40.684342 97.556402 41.121843 98.881404 41.790594 99.818905 M 43.140596 101.062657 C 44.003098 101.597033 45.131224 101.978284 46.668727 102.431409 M 18.381183 66.065728 C 17.178056 66.996979 15.178053 70.328234 13.974926 71.128236 C 12.774924 71.925112 11.706172 73.79074 11.040546 73.65949 C 10.371795 73.525114 10.240545 73.525114 10.240545 73.525114 M 40.396842 59.271967 C 41.331218 59.806343 43.734347 60.737594 44.934349 64.6001 C 46.137476 68.462606 45.468725 71.259486 44.268723 73.525114 C 43.065596 75.790743 41.331218 78.718872 39.19684 79.653249 L 37.062462 80.5845 " transform="matrix(1.249998,0,0,1.249998,0.000119797,0)"/>
<path style="fill:none;stroke-width:0.24;stroke-linecap:butt;stroke-linejoin:miter;stroke:rgb(0%,0%,0%);stroke-opacity:1;stroke-miterlimit:4;" d="M 73.803144 53.628208 C 73.803144 53.628208 75.765647 53.881334 76.871899 54.221959 C 77.981275 54.562585 80.537529 56.093837 81.903157 57.88134 C 83.265659 59.668843 85.825038 61.11572 87.103165 61.712596 C 88.381292 62.306347 88.381292 64.690726 88.296916 66.137603 C 88.212541 67.58448 86.421914 71.668861 85.653162 72.690738 C 84.887536 73.70949 81.731281 82.306378 80.028154 84.603257 C 78.321901 86.900135 72.100016 98.559528 70.562514 100.603281 C 69.028137 102.647035 64.59688 101.965784 61.696875 105.197039 C 58.799996 108.431419 55.21874 106.731416 50.784358 107.497042 C 47.271853 108.103293 43.709347 107.072041 43.709347 107.072041 M 3.44991 80.212625 C 2.093657 78.565747 1.987407 76.496994 5.599913 73.484489 C 10.940546 68.546982 21.399937 59.412592 25.718694 55.896962 C 30.037451 52.378206 41.634344 44.321944 46.293726 41.825065 C 51.296859 37.968809 51.97811 36.946932 57.206243 33.940678 C 63.346878 29.571921 74.428145 24.465663 76.815649 24.068787 C 79.203152 23.671912 83.521909 22.762535 88.412542 23.784412 C 93.296924 24.806289 102.278188 24.918789 104.100066 24.975039 C 105.915694 25.031289 115.465709 28.550044 121.887594 29.343796 C 128.312604 30.137547 142.634501 36.718807 150.534513 37.171933 C 158.434526 37.628184 170.200169 45.684446 175.031426 47.271949 C 179.862684 48.859451 192.425203 58.278216 195.093958 59.753218 C 197.765837 61.22822 206.859601 64.803226 210.328356 65.371977 C 213.793987 65.937603 217.203367 66.562604 219.590871 66.562604 C 221.978374 66.562604 224.025253 67.015729 228.119009 65.596977 C 232.20964 64.178225 231.187764 64.634476 234.312769 64.009475 C 237.440898 63.384474 237.609649 64.803226 237.950274 65.937603 C 238.2909 67.071979 239.656527 69.681358 239.256526 71.328236 C 238.859651 72.975113 238.34715 74.959492 238.23465 76.378244 C 238.122149 77.796996 237.497148 78.531372 237.665899 80.406375 C 237.837774 82.278253 238.915901 86.475134 238.062774 87.781386 C 237.209648 89.084514 236.131521 91.072017 235.334645 91.697018 C 234.540894 92.318894 231.640889 94.134521 230.559638 94.531397 C 229.481511 94.931398 228.85651 95.497023 228.287759 95.497023 C 227.719008 95.497023 225.275254 95.212648 223.287751 95.328273 C 221.297123 95.440773 215.215864 96.347025 212.487735 97.425151 C 209.759605 98.503278 208.337728 99.072029 205.665849 99.92203 C 202.997095 100.772032 202.88147 101.340783 198.959589 102.759535 C 195.037707 104.178287 189.412699 103.268911 185.831443 104.518913 C 182.250188 105.765789 175.259552 107.356417 172.587673 108.547044 C 169.915793 109.737671 162.184531 110.984548 160.537654 111.553298 C 158.890776 112.122049 145.41888 114.956429 143.656378 115.409554 C 141.893875 115.865805 142.634501 115.58143 137.178242 115.865805 C 131.721984 116.147056 130.700107 115.922055 128.765729 116.375181 C 126.834476 116.828307 123.421971 116.431431 121.775094 116.375181 C 120.128216 116.318931 105.518818 115.75018 101.256312 114.843929 C 96.993805 113.934552 96.87818 113.653302 92.162547 113.765802 C 87.44379 113.878302 73.859394 114.050177 71.812516 113.765802 C 69.768763 113.481426 58.968746 112.2908 53.796863 111.100173 C 48.62498 109.909546 49.987482 109.56892 49.421856 109.340795 C 48.853105 109.11267 46.293726 107.637667 43.224971 106.900166 C 40.156217 106.162665 32.424955 104.234537 25.718694 100.147031 C 19.012434 96.062649 14.521802 93.909521 11.681172 92.150143 C 8.837418 90.390766 -0.368846 83.58138 0.143654 82.165753 C 0.65303 80.743876 1.946782 79.143873 2.743658 79.200123 M 16.56868 67.981356 C 15.999929 68.378231 15.771804 68.887607 15.771804 68.887607 M 12.759299 70.871985 C 13.156175 71.668861 13.32805 72.065737 13.32805 72.009487 " transform="matrix(1.249998,0,0,1.249998,0.000119797,0)"/>
<path style="fill-rule:nonzero;fill:rgb(33.333333%,28.235294%,25.490196%);fill-opacity:1;stroke-width:0.24;stroke-linecap:butt;stroke-linejoin:miter;stroke:rgb(0%,0%,0%);stroke-opacity:1;stroke-miterlimit:4;" d="M 6.706165 82.815754 C 5.768663 82.284503 3.48741 80.709501 2.743658 79.200123 C 1.946782 79.143873 0.65303 80.743876 0.143654 82.165753 C -0.368846 83.58138 8.837418 90.390766 11.681172 92.150143 C 14.521802 93.909521 19.012434 96.062649 25.718694 100.147031 C 27.649947 101.056407 28.674949 98.559528 29.696825 97.084526 C 30.718702 95.609524 32.76558 91.184517 30.718702 89.93764 C 28.674949 88.687638 24.468692 87.100135 22.309314 86.531385 C 20.149935 85.965759 16.284304 84.603257 13.099925 82.106378 C 10.146795 79.156373 5.256162 74.16574 3.63116 75.465742 C 2.109282 77.45012 2.412408 78.953248 3.44991 80.212625 C 4.443661 81.418877 6.106164 82.397003 7.474916 83.35638 C 8.071792 83.922005 8.456167 84.134506 9.121793 84.718882 C 9.278044 84.884507 13.16555 87.800137 15.146803 89.93764 C 22.031188 96.878276 19.806185 95.950149 26.05932 98.559528 " transform="matrix(1.249998,0,0,1.249998,0.000119797,0)"/>
<path style="fill-rule:nonzero;fill:rgb(54.509804%,30.980392%,14.901961%);fill-opacity:1;stroke-width:0.24;stroke-linecap:butt;stroke-linejoin:miter;stroke:rgb(0%,0%,0%);stroke-opacity:1;stroke-miterlimit:4;" d="M 22.90619 70.646985 C 23.928066 72.943863 25.718694 76.775119 28.787449 77.540746 C 31.856204 78.306372 32.112454 79.581374 36.715586 78.050121 C 41.321843 76.518869 41.065593 76.518869 43.112471 73.200114 C 45.156224 69.881359 44.903099 68.093856 44.646849 65.540727 C 44.390598 62.987598 41.321843 59.159467 38.762464 58.393841 C 36.20621 57.62509 32.368704 57.371964 28.787449 58.13759 C 25.206193 58.903217 24.696818 61.200095 23.928066 62.478222 C 23.16244 63.753224 21.881188 68.350106 22.90619 70.646985 Z M 22.90619 70.646985 " transform="matrix(1.249998,0,0,1.249998,0.000119797,0)"/>
<path style="fill-rule:nonzero;fill:rgb(15.686275%,13.72549%,12.156863%);fill-opacity:1;stroke-width:0.24;stroke-linecap:butt;stroke-linejoin:miter;stroke:rgb(0%,0%,0%);stroke-opacity:1;stroke-miterlimit:4;" d="M 32.881205 61.456346 C 30.065576 61.712596 28.787449 61.456346 27.509322 63.243848 C 26.231195 65.031351 25.493694 71.553236 27.168696 73.79699 C 28.362448 74.562616 29.471825 75.243867 31.090578 75.243867 C 32.70933 75.243867 35.181209 75.071992 36.290586 74.562616 C 37.399962 74.050115 38.93434 74.22199 39.871841 72.943863 C 40.809343 71.668861 41.234343 70.98761 41.149968 69.031357 C 41.065593 67.071979 41.065593 65.712602 40.212467 64.51885 C 39.35934 63.328223 38.762464 61.712596 37.143712 61.28447 C 35.524959 60.85947 35.69371 61.200095 32.881205 61.456346 Z M 32.881205 61.456346 " transform="matrix(1.249998,0,0,1.249998,0.000119797,0)"/>
<path style=" stroke:none;fill-rule:nonzero;fill:rgb(100%,100%,100%);fill-opacity:1;" d="M 33.109375 84.054688 C 33.535156 84.585938 34.066406 84.796875 35.453125 84.371094 C 36.839844 83.949219 37.265625 83.203125 39.820312 83.097656 C 42.378906 82.988281 43.550781 82.988281 44.722656 83.203125 C 45.894531 83.414062 46.640625 82.671875 46.855469 83.203125 C 47.070312 83.734375 48.773438 84.160156 46.214844 84.691406 C 43.660156 85.222656 43.230469 86.5 41.3125 86.5 C 39.394531 86.5 39.289062 87.351562 37.371094 87.136719 C 35.453125 86.925781 33.535156 87.988281 33.425781 88.523438 C 33.320312 89.054688 31.152344 88.167969 31.152344 87.316406 C 31.152344 86.464844 32.683594 83.523438 33.109375 84.054688 Z M 33.109375 84.054688 "/>
<path style="fill-rule:nonzero;fill:rgb(46.27451%,39.607843%,35.294118%);fill-opacity:1;stroke-width:0.24;stroke-linecap:butt;stroke-linejoin:miter;stroke:rgb(0%,0%,0%);stroke-opacity:1;stroke-miterlimit:4;" d="M 126.350101 0.121875 C 125.606349 0.115625 124.412598 0.753126 123.934472 0.978127 C 122.856345 1.487502 121.262593 2.281254 120.128216 2.850004 C 118.990714 3.41563 118.081338 3.756256 116.375085 4.946883 C 114.668832 6.140635 111.940703 8.578138 110.746951 8.978139 C 109.556325 9.375015 109.9532 9.375015 109.668825 8.693764 C 109.384449 8.012512 109.384449 7.556262 109.668825 5.118758 C 109.9532 2.678129 108.871948 4.437507 107.053196 5.459383 C 105.234443 6.48126 105.062568 7.046886 103.35944 8.637513 C 101.653187 10.225016 100.743811 10.450016 99.550059 10.790642 C 98.356307 11.131267 97.903181 10.450016 97.562556 8.862514 C 97.468806 8.425013 98.078182 6.684385 97.450056 6.934386 C 95.790678 7.590637 91.812547 11.787518 90.74067 13.06252 C 89.262543 14.818773 87.27504 15.331274 87.159415 15.046898 C 87.046915 14.762523 86.706289 14.593773 86.478164 14.593773 C 86.250038 14.593773 84.09066 16.409401 83.296909 17.034401 C 82.500032 17.656277 74.428145 24.465663 76.815649 24.068787 C 79.203152 23.671912 83.521909 22.762535 88.412542 23.784412 C 93.296924 24.806289 102.278188 24.918789 104.100066 24.975039 C 105.915694 25.031289 115.465709 28.550044 121.887594 29.343796 C 128.312604 30.137547 142.634501 36.718807 150.534513 37.171933 C 158.434526 37.628184 170.200169 45.684446 175.031426 47.271949 C 179.862684 48.859451 192.425203 58.278216 195.093958 59.753218 C 196.953335 60.781345 201.918968 62.821973 205.934599 64.159475 C 207.693977 64.746976 206.06585 63.215723 206.859601 62.818848 C 207.656477 62.421972 210.840857 62.818848 212.375234 62.875098 C 213.909612 62.931348 218.284619 62.306347 219.878371 61.625096 C 221.468999 60.94697 220.784622 56.518838 220.840873 55.215711 C 220.872123 54.54071 221.559624 51.796956 221.181498 49.143826 C 220.831498 46.665698 219.418995 44.271944 219.306495 43.640693 C 219.193995 42.996942 218.015868 40.421938 216.465866 38.025059 C 214.878363 35.568805 212.918985 33.293802 212.600235 32.690676 C 211.975234 31.500049 206.406475 26.450041 205.384599 25.76879 C 204.359597 25.087539 197.709587 20.550032 196.628335 20.040656 C 195.550208 19.53128 193.843956 18.053153 190.1502 17.146902 C 188.597072 16.762526 187.07832 15.987525 185.434568 15.615649 C 183.165814 15.103148 180.87206 15.062523 179.918934 15.159399 C 178.272056 15.331274 177.872056 15.159399 176.906429 15.046898 C 175.940803 14.934398 176.225178 14.762523 174.975176 14.990648 C 173.725174 15.215649 173.212674 15.615649 172.190797 16.012525 C 171.165795 16.409401 170.709545 16.237525 169.631418 16.2969 C 168.553291 16.35315 168.437666 15.556274 167.98454 15.275024 C 167.52829 14.990648 166.618913 15.215649 164.63141 15.275024 C 162.640782 15.331274 163.265783 15.159399 162.756407 14.253147 C 162.243906 13.343771 162.128281 12.55002 162.128281 12.55002 C 162.128281 12.55002 161.27828 12.381269 160.140778 12.437519 C 159.003276 12.493769 158.662651 12.096894 157.9814 11.531268 C 157.297024 10.962517 157.468899 10.906267 156.728273 9.487515 C 155.990772 8.068763 156.503273 8.750014 155.534521 8.637513 C 154.57202 8.521888 154.228269 8.693764 152.068891 8.693764 C 149.909512 8.693764 151.103264 8.296888 150.418888 7.500012 C 149.737637 6.70626 149.853262 6.42501 149.853262 6.42501 C 149.853262 6.42501 148.772011 6.765636 147.918884 6.934386 C 147.068883 7.106261 146.384507 7.615637 144.906379 7.387511 C 143.428252 7.162511 144.056378 6.365635 144.056378 6.365635 L 143.600127 4.946883 C 143.600127 4.946883 141.781375 5.628134 140.815748 5.968759 C 139.846997 6.309385 138.884495 6.48126 138.312619 6.309385 C 137.746993 6.140635 137.575118 5.231258 136.950117 3.24688 C 136.325116 1.259377 135.643865 1.771878 134.678239 2.000003 C 133.709487 2.225003 133.368862 2.450004 132.459485 2.906255 C 131.550109 3.35938 128.368854 4.493757 127.856353 4.437507 C 127.343852 4.381257 126.546976 4.381257 126.662601 2.906255 C 126.715726 2.231253 127.265727 0.609376 126.778226 0.2375 C 126.668851 0.15625 126.521976 0.121875 126.350101 0.121875 Z M 126.350101 0.121875 " transform="matrix(1.249998,0,0,1.249998,0.000119797,0)"/>
<path style="fill-rule:nonzero;fill:rgb(38.823529%,33.333333%,29.411765%);fill-opacity:1;stroke-width:0.24;stroke-linecap:butt;stroke-linejoin:miter;stroke:rgb(0%,0%,0%);stroke-opacity:1;stroke-miterlimit:4;" d="M 149.084511 33.543802 C 149.256386 32.1813 150.534513 30.393797 151.472015 29.031295 C 152.409516 27.671918 155.565771 25.459415 157.609524 23.925037 C 159.656402 22.393785 159.997028 21.800034 162.300157 19.50003 C 164.60016 17.203152 164.918911 18.262528 165.478286 16.862526 C 164.36891 17.371902 162.128281 18.990655 160.934529 19.756281 C 159.740778 20.521907 158.975151 21.031283 157.440774 22.225035 C 155.906397 23.415661 154.284519 24.096912 153.006392 25.459415 C 151.728265 26.818792 150.790764 27.075042 150.022012 27.584418 C 149.256386 28.096919 146.272007 30.734423 144.99388 31.756299 C 143.712628 32.778176 143.203252 32.862551 142.518876 32.009425 C 141.837625 31.159423 143.115752 30.225047 144.056378 28.862545 C 144.99388 27.500043 146.272007 26.393791 147.890759 24.690663 C 149.512637 22.990661 149.425137 23.243786 151.472015 21.287533 C 153.518893 19.33128 153.687643 19.840656 156.415772 17.287527 C 157.200149 16.3969 158.812651 15.221899 158.687651 14.881273 C 157.565774 15.415649 156.331397 16.35315 153.859518 17.800028 C 151.38764 19.246905 150.022012 20.265657 149.084511 20.693782 C 148.14701 21.118783 142.518876 24.778164 139.365746 28.181294 C 136.212616 31.584424 135.956366 28.77817 136.809492 26.818792 C 137.659493 24.862539 138.51262 24.946914 139.621996 23.331286 C 140.731373 21.712534 144.565754 18.565654 148.231385 15.500024 C 151.897015 12.437519 151.897015 12.353144 150.022012 13.287521 C 148.14701 14.225022 147.381383 14.650023 145.843881 15.671899 C 144.309504 16.693776 142.350126 17.712528 140.387622 19.584405 C 138.428244 21.459408 142.518876 17.800028 134.081363 24.778164 C 125.640725 31.756299 132.11886 25.287539 132.37511 23.840662 C 132.63136 22.393785 133.396987 21.031283 134.678239 19.33128 C 135.956366 17.628152 138.256369 16.521901 143.628253 12.181269 C 149.000136 7.840637 145.590756 9.800015 144.056378 10.393766 C 142.518876 10.990642 141.837625 11.928144 140.046997 12.946895 C 138.256369 13.968772 136.381366 15.671899 134.846989 16.778151 C 133.312611 17.884403 132.715736 19.159405 127.684478 22.47816 C 122.656345 25.796915 122.825095 24.181288 123.509471 22.56566 C 124.190722 20.946908 125.296974 20.265657 127.259477 17.800028 C 129.218855 15.331274 131.353233 14.053147 135.103239 11.159392 C 138.853245 8.268763 138.428244 7.075011 135.61574 9.62814 C 132.800111 12.181269 133.568862 10.906267 131.778234 12.181269 C 129.987606 13.459396 129.903231 13.884397 121.546968 19.415655 C 113.190705 24.946914 116.51571 20.693782 116.859461 18.393779 C 117.040711 17.153152 119.009464 15.006273 121.546968 12.93127 C 123.528221 11.312518 125.9001 9.046889 128.028228 7.796887 C 128.215729 7.684387 129.362605 7.128136 129.546981 7.021886 C 130.693857 6.12501 131.662609 5.653134 132.05636 4.484382 C 129.584481 6.184385 128.196979 6.734385 126.578226 7.928137 C 124.956348 9.118764 123.421971 9.968766 122.568845 10.225016 C 121.718843 10.481266 120.609467 11.671893 113.021955 17.884403 C 105.434443 24.096912 109.8657 17.968778 110.209451 15.925025 C 110.550076 13.884397 116.34696 9.203139 120.268841 5.203133 C 124.190722 1.203127 119.840716 4.437507 118.053213 5.715634 C 116.262585 6.990636 115.578209 7.162511 113.446956 8.946889 C 111.315702 10.734392 107.565696 13.800021 106.287569 14.650023 C 105.006317 15.500024 102.109438 18.309403 100.234435 20.862532 C 98.356307 23.415661 97.590681 22.225035 97.506306 22.225035 C 97.418806 22.225035 97.590681 20.437532 97.846931 19.50003 C 98.103182 18.565654 100.915686 14.309397 102.278188 12.946895 C 103.643815 11.587518 106.200069 7.500012 105.775069 8.096888 C 105.346943 8.693764 103.72819 10.053141 102.618814 11.246892 C 101.512562 12.437519 95.375052 17.968778 94.350051 18.990655 C 93.328174 20.012531 92.303173 21.968784 91.025046 22.56566 C 89.746919 23.159411 89.915669 22.053159 89.662544 21.459408 C 89.406293 20.862532 91.706297 15.415649 92.475048 14.053147 C 93.240674 12.69377 95.375052 9.543765 94.606301 10.309391 C 93.83755 11.075017 93.071924 12.181269 92.303173 12.86252 C 91.537547 13.543771 91.281296 13.459396 89.490668 16.778151 C 87.700041 20.096906 85.825038 22.137534 84.887536 22.225035 C 83.950035 22.30941 83.265659 21.884409 83.353159 21.543784 C 83.437534 21.203158 84.03441 19.671906 84.45941 18.818779 C 84.887536 17.968778 86.678164 15.415649 86.506289 15.075023 C 86.337538 14.734398 83.950035 17.800028 82.756283 19.584405 C 81.562531 21.371908 74.428145 24.465663 76.815649 24.068787 C 79.203152 23.671912 83.521909 22.762535 88.412542 23.784412 C 93.296924 24.806289 102.278188 24.918789 104.100066 24.975039 C 105.915694 25.031289 115.465709 28.550044 121.887594 29.343796 C 128.312604 30.137547 142.634501 36.718807 150.534513 37.171933 C 150.934514 37.196933 148.915761 34.903179 149.084511 33.543802 Z M 149.084511 33.543802 " transform="matrix(1.249998,0,0,1.249998,0.000119797,0)"/>
<path style="fill-rule:nonzero;fill:rgb(100%,85.882353%,30.588235%);fill-opacity:1;stroke-width:0.24;stroke-linecap:round;stroke-linejoin:round;stroke:rgb(0%,0%,0%);stroke-opacity:1;stroke-miterlimit:4;" d="M 94.206301 113.712677 C 93.946925 113.712677 93.340674 113.737677 92.162547 113.765802 C 90.412545 113.806427 87.44379 113.856427 84.300035 113.887677 C 87.44379 118.078309 85.228162 115.184554 86.878164 121.822064 C 86.878164 121.822064 89.093793 129.537701 89.546918 131.581455 C 90.003169 133.622083 93.528175 141.622095 94.209426 142.643972 C 94.890677 143.665848 97.27818 146.047102 97.959431 147.353354 C 98.643808 148.656481 99.721934 150.303359 100.859436 152.059611 C 101.993813 153.822114 101.993813 154.61274 103.868816 156.543993 C 105.746944 158.472121 106.65632 159.834624 107.168821 159.834624 C 107.678197 159.834624 107.393821 160.231499 108.303198 158.700247 C 109.212574 157.165869 110.350076 154.50024 111.146952 154.047115 C 111.943828 153.593989 113.078205 150.812735 113.078205 150.812735 L 113.818831 148.656481 C 113.818831 148.656481 114.725083 147.75023 115.181333 145.650226 C 115.634459 143.550223 115.806334 141.453345 116.487585 140.259593 C 117.168836 139.068966 117.909463 135.778336 117.909463 135.778336 C 117.909463 135.778336 118.593839 132.259581 117.965713 130.843953 C 117.340712 129.425201 115.465709 126.531447 115.409459 126.531447 C 115.353209 126.531447 113.478206 124.375193 110.00945 122.615816 C 106.540695 120.856438 103.756316 118.190809 102.393813 117.962683 C 101.028186 117.737683 98.356307 116.487681 98.356307 116.431431 C 98.356307 116.375181 96.653179 115.69393 94.890677 115.58143 C 94.0938 115.58143 93.128174 114.615803 93.128174 114.615803 C 92.609423 113.878302 94.978177 113.706427 94.206301 113.712677 Z M 94.206301 113.712677 " transform="matrix(1.249998,0,0,1.249998,0.000119797,0)"/>
<path style="fill-rule:nonzero;fill:rgb(100%,85.882353%,30.588235%);fill-opacity:1;stroke-width:0.24;stroke-linecap:round;stroke-linejoin:round;stroke:rgb(0%,0%,0%);stroke-opacity:1;stroke-miterlimit:4;" d="M 198.959589 102.759535 C 195.037707 104.178287 189.412699 103.268911 185.831443 104.518913 C 182.250188 105.765789 175.259552 107.356417 172.587673 108.547044 C 169.915793 109.737671 162.184531 110.984548 160.537654 111.553298 C 158.890776 112.122049 145.41888 114.956429 143.656378 115.409554 C 141.893875 115.865805 142.2345 116.715806 142.2345 116.715806 C 142.2345 116.715806 144.509504 120.006437 148.14701 122.05019 C 151.784515 124.090818 160.425154 129.312701 165.084536 130.331453 C 169.747043 131.353329 180.77206 133.056457 183.61269 135.097085 C 186.456444 137.140838 188.047072 137.253338 191.115826 138.04709 C 194.184581 138.843966 196.68771 139.184591 198.734588 138.162715 C 200.778341 137.140838 206.1221 134.75646 208.053353 132.715831 C 209.987731 130.672078 210.668982 131.240829 212.487735 127.268948 C 214.306487 123.297067 215.66899 122.615816 215.215864 118.303309 C 214.762738 113.993927 214.647113 110.700172 214.190862 109.228295 C 213.737737 107.750168 210.781482 104.006412 209.872106 103.781411 C 208.962729 103.553286 201.403342 103.665786 201.403342 103.665786 C 199.415839 104.006412 199.58459 103.440786 198.959589 102.759535 Z M 198.959589 102.759535 " transform="matrix(1.249998,0,0,1.249998,0.000119797,0)"/>
<path style=" stroke:none;fill-rule:nonzero;fill:rgb(44.313725%,37.647059%,34.117647%);fill-opacity:1;" d="M 159.871094 57.867188 C 158.808594 57.871094 157.71875 57.972656 156.625 58.203125 C 151.613281 59.269531 136.480469 65.011719 132.75 67.671875 C 129.019531 70.332031 125.183594 75.542969 123.585938 78.203125 C 121.988281 80.863281 116.980469 86.5 114.742188 89.054688 C 112.503906 91.605469 107.386719 97.777344 105.894531 99.691406 C 104.402344 101.605469 104.511719 104.371094 104.511719 105.648438 C 104.511719 106.925781 104.402344 108.09375 105.683594 111.605469 C 106.960938 115.117188 107.921875 118.519531 109.519531 118.734375 C 111.117188 118.945312 113.996094 119.15625 118.257812 118.734375 C 122.519531 118.308594 132.964844 117.242188 135.414062 116.925781 C 137.867188 116.605469 140.742188 117.242188 142.980469 115.753906 C 145.21875 114.265625 150.335938 111.605469 153.425781 108.519531 C 156.515625 105.433594 163.125 99.691406 164.722656 96.710938 C 166.320312 93.734375 171.011719 85.117188 171.648438 82.03125 C 172.289062 78.949219 173.460938 71.609375 173.460938 70.542969 C 173.460938 69.480469 171.863281 60.96875 169.199219 59.90625 C 167.117188 59.074219 163.667969 57.855469 159.871094 57.867188 Z M 159.871094 57.867188 "/>
<path style="fill-rule:nonzero;fill:rgb(100%,85.882353%,30.588235%);fill-opacity:1;stroke-width:0.24;stroke-linecap:round;stroke-linejoin:round;stroke:rgb(0%,0%,0%);stroke-opacity:1;stroke-miterlimit:4;" d="M 285.765974 45.946946 C 285.125348 45.943821 283.925346 46.156322 281.431592 46.762573 C 276.99721 47.840699 269.609698 50.618829 265.575317 52.265706 C 261.537811 53.912584 258.353431 54.70321 254.43155 56.350088 C 251.137795 57.428214 247.272164 59.128217 243.747158 60.209469 C 241.190904 61.568846 231.187764 64.634476 234.312769 64.009475 C 237.440898 63.384474 237.609649 64.803226 237.950274 65.937603 C 238.2909 67.071979 239.656527 69.681358 239.256526 71.328236 C 238.859651 72.975113 238.34715 74.959492 238.23465 76.378244 C 238.122149 77.796996 237.497148 78.531372 237.665899 80.406375 C 237.837774 82.278253 238.915901 86.475134 238.062774 87.781386 C 237.209648 89.084514 236.131521 91.072017 235.334645 91.697018 C 234.540894 92.318894 231.640889 94.134521 230.559638 94.531397 C 229.481511 94.931398 228.85651 95.497023 228.287759 95.497023 C 227.719008 95.497023 234.881519 96.915776 236.247147 97.540777 C 237.609649 98.162653 247.159663 102.190784 249.828418 102.928285 C 252.500297 103.665786 264.778441 108.147043 266.084693 108.262668 C 267.390945 108.375169 278.590962 111.665799 279.556589 111.609549 C 280.522215 111.553298 283.75972 111.553298 283.75972 111.553298 L 283.64722 100.828282 C 283.64722 100.828282 282.056593 92.490769 281.147216 90.787641 C 280.23784 89.084514 278.303462 83.35638 277.622211 82.787629 C 276.94096 82.222003 276.147209 80.293875 276.147209 80.293875 C 276.147209 80.293875 276.656584 79.100123 277.34096 78.081371 C 278.703463 76.318869 279.440964 73.031364 280.18159 71.156361 C 281.944093 67.868856 283.47847 62.987598 283.875346 61.17197 C 283.875346 61.17197 286.4316 51.753205 286.4316 51.696955 C 286.4316 51.640705 287.00035 46.646948 286.603475 46.253197 C 286.428475 46.078197 286.265974 45.946946 285.765974 45.946946 Z M 285.765974 45.946946 " transform="matrix(1.249998,0,0,1.249998,0.000119797,0)"/>
<path style=" stroke:none;fill-rule:nonzero;fill:rgb(100%,86.27451%,32.54902%);fill-opacity:1;" d="M 126.5625 73.941406 C 125.300781 75.558594 124.25 77.101562 123.585938 78.203125 C 121.988281 80.863281 116.980469 86.5 114.742188 89.054688 C 112.503906 91.605469 107.386719 97.777344 105.894531 99.691406 C 104.402344 101.605469 104.511719 104.371094 104.511719 105.648438 C 104.511719 106.925781 104.402344 108.09375 105.683594 111.605469 C 106.960938 115.117188 107.921875 118.519531 109.519531 118.734375 C 111.117188 118.945312 113.996094 119.15625 118.257812 118.734375 C 122.519531 118.308594 132.964844 117.242188 135.414062 116.925781 C 137.867188 116.605469 140.742188 117.242188 142.980469 115.753906 C 145.21875 114.265625 150.335938 111.605469 153.425781 108.519531 C 156.515625 105.433594 163.125 99.691406 164.722656 96.710938 C 165.195312 95.832031 165.949219 94.429688 166.777344 92.851562 C 151.175781 87.160156 137.878906 79.90625 126.5625 73.941406 Z M 126.5625 73.941406 "/>
<path style="fill:none;stroke-width:0.24;stroke-linecap:round;stroke-linejoin:round;stroke:rgb(0%,0%,0%);stroke-opacity:1;stroke-miterlimit:4;" d="M 127.896978 46.293822 C 127.046977 46.296947 126.1751 46.378197 125.300099 46.562572 C 121.290718 47.415699 109.184449 52.009456 106.200069 54.137584 C 103.21569 56.265712 100.146935 60.434469 98.868808 62.562597 C 97.590681 64.690726 93.584425 69.200108 91.793797 71.243861 C 90.003169 73.284489 85.909413 78.221997 84.715661 79.753249 C 83.521909 81.284501 83.609409 83.497005 83.609409 84.518881 C 83.609409 85.540758 83.521909 86.475134 84.546911 89.284514 C 85.568787 92.093893 86.337538 94.815772 87.615665 94.987648 C 88.893792 95.156398 91.196921 95.325148 94.606301 94.987648 C 98.015682 94.647022 106.371945 93.793896 108.331323 93.54077 C 110.293826 93.28452 112.593829 93.793896 114.384457 92.603269 C 116.175085 91.412642 120.268841 89.284514 122.74072 86.81576 C 125.212599 84.347006 130.500107 79.753249 131.778234 77.36887 C 133.056361 74.987617 136.809492 68.093856 137.318868 65.625102 C 137.831368 63.159473 138.76887 57.287589 138.76887 56.434463 C 138.76887 55.584461 137.490743 48.775076 135.35949 47.925075 C 133.693862 47.259448 130.934483 46.284447 127.896978 46.293822 Z M 127.896978 46.293822 " transform="matrix(1.249998,0,0,1.249998,0.000119797,0)"/>
<path style="fill-rule:nonzero;fill:rgb(15.686275%,9.019608%,4.313725%);fill-opacity:1;stroke-width:0.24;stroke-linecap:butt;stroke-linejoin:miter;stroke:rgb(0%,0%,0%);stroke-opacity:1;stroke-miterlimit:4;" d="M 17.418681 69.115732 C 16.115554 70.76261 15.146803 71.384486 14.237426 72.518863 C 13.043674 73.596989 11.565547 74.22199 12.078048 75.584493 C 12.590549 76.94387 13.099925 77.45637 15.659304 78.137622 C 18.215557 78.815748 20.262436 77.625121 20.943687 77.45637 C 21.628063 77.284495 22.137439 76.093868 21.968688 74.731366 C 21.796813 73.368864 20.378061 71.781362 20.09056 70.646985 C 19.806185 69.909484 20.378061 69.284483 20.09056 67.925106 C 19.97806 66.675104 19.124934 67.52823 17.418681 69.115732 Z M 17.418681 69.115732 " transform="matrix(1.249998,0,0,1.249998,0.000119797,0)"/>
<path style="fill-rule:nonzero;fill:rgb(15.686275%,9.019608%,4.313725%);fill-opacity:1;stroke-width:0.24;stroke-linecap:butt;stroke-linejoin:miter;stroke:rgb(0%,0%,0%);stroke-opacity:1;stroke-miterlimit:4;" d="M 210.328356 65.371977 C 213.793987 65.937603 217.203367 66.562604 219.590871 66.562604 C 221.978374 66.562604 224.025253 67.015729 228.119009 65.596977 C 232.20964 64.178225 231.187764 64.634476 234.312769 64.009475 C 237.440898 63.384474 237.609649 64.803226 237.950274 65.937603 C 238.2909 67.071979 239.656527 69.681358 239.256526 71.328236 C 238.859651 72.975113 238.34715 74.959492 238.23465 76.378244 C 238.122149 77.796996 237.497148 78.531372 237.665899 80.406375 C 237.837774 82.278253 234.200268 82.903254 232.26589 84.490756 C 230.334637 86.078259 229.653386 87.440761 227.831508 84.718882 C 224.878379 80.406375 221.693999 80.859501 221.468999 78.931373 C 221.240873 77.00012 217.034617 73.256364 216.465866 72.915738 C 215.897115 72.575113 209.30648 68.943857 210.328356 65.371977 Z M 210.328356 65.371977 " transform="matrix(1.249998,0,0,1.249998,0.000119797,0)"/>
</g>
</svg>
