<?xml version="1.0" encoding="UTF-8"?>
<!-- Created by grConvert v0.1-0 -->
<svg xmlns="http://www.w3.org/2000/svg" xmlns:xlink="http://www.w3.org/1999/xlink" width="357pt" height="199pt" viewBox="0 0 357 199" version="1.1">
<g id="surface113">
<path style="fill-rule:nonzero;fill:rgb(96.470588%,94.117647%,92.941176%);fill-opacity:1;stroke-width:0.24;stroke-linecap:butt;stroke-linejoin:miter;stroke:rgb(0%,0%,0%);stroke-opacity:1;stroke-miterlimit:4;" d="M 121.304565 880.391046 C 121.304565 880.391046 123.257693 880.644171 124.363944 880.984797 C 125.467071 881.322297 128.017075 882.850424 129.376452 884.628552 C 130.732704 886.409805 133.282708 887.853557 134.55771 888.447308 C 135.832712 889.041059 135.832712 891.412937 135.748336 892.85669 C 135.660836 894.297317 133.876459 898.369198 133.113957 899.384824 C 132.348331 900.403576 129.204577 908.969214 127.504574 911.259842 C 125.807696 913.547346 119.604562 925.166113 118.076435 927.200491 C 116.545182 929.237994 112.129551 928.559868 109.238921 931.781748 C 106.351417 935.003628 102.782662 933.306751 98.363905 934.069252 C 94.8639 934.675503 91.313894 933.647376 91.313894 933.647376 M 51.195084 906.881711 C 49.845082 905.241083 49.741957 903.17858 53.338837 900.178576 C 58.66072 895.259818 69.082611 886.156679 73.388867 882.650424 C 77.691999 879.147294 89.245141 871.116032 93.892023 868.631653 C 98.876406 864.784772 99.554532 863.769146 104.76704 860.772266 C 110.882674 856.419135 121.926441 851.331627 124.307694 850.934751 C 126.685823 850.537876 130.988954 849.634749 135.860837 850.653501 C 140.729594 851.669127 149.679607 851.781628 151.49211 851.841003 C 153.304613 851.894128 162.820252 855.400383 169.220262 856.191009 C 175.620272 856.98476 189.895293 863.54102 197.76718 863.994146 C 205.639067 864.447272 217.36096 872.475409 222.176592 874.056661 C 226.992224 875.641039 239.507868 885.025428 242.170372 886.49418 C 244.832876 887.966057 253.89539 891.528563 257.351645 892.091063 C 260.804775 892.656689 264.20478 893.278565 266.582909 893.278565 C 268.961038 893.278565 270.998541 893.731691 275.076672 892.319189 C 279.154803 890.906687 278.136051 891.356687 281.251681 890.734811 C 284.367311 890.112935 284.536061 891.528563 284.876687 892.656689 C 285.217312 893.787941 286.576689 896.387945 286.179814 898.028572 C 285.782938 899.6692 285.273562 901.647328 285.157937 903.05983 C 285.045437 904.475457 284.423561 905.209833 284.592311 907.075461 C 284.764186 908.941089 285.839188 913.12547 284.989187 914.425472 C 284.139186 915.725474 283.064184 917.703602 282.270433 918.325478 C 281.479807 918.947354 278.589177 920.756732 277.514176 921.150482 C 276.436049 921.547358 275.814173 922.112984 275.248547 922.112984 C 274.682921 922.112984 272.245418 921.828608 270.264165 921.944233 C 268.279787 922.056734 262.220402 922.95986 259.501648 924.034862 C 256.782894 925.109863 255.367267 925.675489 252.704763 926.522365 C 250.045384 927.372367 249.929759 927.934868 246.023503 929.350495 C 242.114122 930.762997 236.507864 929.85987 232.939108 931.103622 C 229.370353 932.344249 222.404717 933.928627 219.742213 935.116128 C 217.079709 936.30363 209.376573 937.547382 207.735945 938.113008 C 206.092193 938.678634 192.667172 941.503638 190.914045 941.956764 C 189.157792 942.409889 189.895293 942.125514 184.457785 942.409889 C 179.020277 942.69114 177.9984 942.466139 176.073397 942.919265 C 174.148394 943.369266 170.748389 942.975515 169.107762 942.919265 C 167.464009 942.85989 152.907737 942.297389 148.660856 941.391138 C 144.413975 940.488011 144.298349 940.206761 139.598342 940.316136 C 134.898335 940.431761 121.360815 940.600512 119.320187 940.316136 C 117.282684 940.034886 106.520167 938.847384 101.367034 937.659882 C 96.213902 936.47238 97.573279 936.13488 97.004528 935.906755 C 96.438902 935.681754 93.892023 934.209877 90.832644 933.475501 C 87.773264 932.741125 80.070127 930.819247 73.388867 926.747366 C 66.704482 922.67861 62.229475 920.531731 59.398221 918.775479 C 56.566967 917.025476 47.391953 910.241091 47.901329 908.828589 C 48.410705 907.412962 49.698206 905.816084 50.491958 905.872334 M 64.266978 894.694192 C 63.701353 895.091068 63.476352 895.597319 63.476352 895.597319 M 60.473223 897.575447 C 60.870098 898.369198 61.038849 898.762948 61.038849 898.706698 " transform="matrix(1.249998,0,0,1.249998,-59.696883,-1033.686364)"/>
<path style="fill-rule:nonzero;fill:rgb(12.54902%,12.54902%,23.529412%);fill-opacity:1;stroke-width:0.24;stroke-linecap:butt;stroke-linejoin:miter;stroke:rgb(0%,0%,0%);stroke-opacity:1;stroke-miterlimit:4;" d="M 81.592005 883.1098 C 79.813877 883.094175 77.945124 883.269175 76.132621 883.694176 C 71.99199 884.662927 71.401364 887.566057 70.510738 889.178559 C 69.623237 890.791061 68.145109 896.59732 69.329486 899.50045 C 70.513863 902.403579 72.582616 907.241086 76.132621 908.209838 C 80.010752 910.834842 82.16388 913.875471 84.601384 916.57235 C 85.735761 917.928602 89.698267 922.337984 91.398269 923.584861 C 93.098272 924.825488 93.663898 923.244235 94.570149 922.337984 C 95.476401 921.434858 95.2514 920.078606 95.135775 917.703602 C 92.460771 911.437968 92.948272 908.281713 93.267022 906.291085 C 95.632651 902.097328 94.773275 896.275445 94.476399 893.047315 C 94.182649 889.82231 90.632643 884.984803 87.673264 884.016051 C 86.007636 883.4723 83.876383 883.131675 81.592005 883.1098 Z M 81.592005 883.1098 " transform="matrix(1.249998,0,0,1.249998,-59.696883,-1033.686364)"/>
<path style="fill-rule:nonzero;fill:rgb(90.980392%,87.843137%,86.27451%);fill-opacity:1;stroke-width:0.24;stroke-linecap:butt;stroke-linejoin:miter;stroke:rgb(0%,0%,0%);stroke-opacity:1;stroke-miterlimit:4;" d="M 54.441964 909.47859 C 53.507587 908.947339 51.232584 907.378586 50.491958 905.872334 C 49.698206 905.816084 48.410705 907.412962 47.901329 908.828589 C 47.391953 910.241091 56.566967 917.025476 59.398221 918.775479 C 62.229475 920.531731 66.704482 922.67861 73.388867 926.747366 C 75.31387 927.653617 76.332622 925.166113 77.351373 923.694236 C 78.370125 922.225484 80.410753 917.816102 78.370125 916.57235 C 76.332622 915.328598 72.14199 913.747346 69.988862 913.178595 C 67.835734 912.616094 63.985728 911.259842 60.813848 908.769214 C 57.870094 905.831709 52.998211 900.856702 51.376334 902.153579 C 49.860707 904.128582 50.163832 905.628584 51.195084 906.881711 C 52.18571 908.081713 53.841963 909.059839 55.20759 910.01609 C 55.801341 910.578591 56.182591 910.791092 56.848217 911.372343 C 57.001342 911.537968 60.879473 914.444222 62.851351 916.57235 C 69.713862 923.487986 67.495108 922.566109 73.726368 925.166113 " transform="matrix(1.249998,0,0,1.249998,-59.696883,-1033.686364)"/>
<path style="fill-rule:nonzero;fill:rgb(35.294118%,27.058824%,27.058824%);fill-opacity:1;stroke-width:0.24;stroke-linecap:butt;stroke-linejoin:miter;stroke:rgb(0%,0%,0%);stroke-opacity:1;stroke-miterlimit:4;" d="M 70.582613 897.350446 C 71.60449 899.641075 73.388867 903.456706 76.445122 904.219207 C 79.504501 904.981708 79.760752 906.253585 84.348259 904.728582 C 88.935766 903.200455 88.679515 903.200455 90.720143 899.8942 C 92.757646 896.587945 92.504521 894.806692 92.248271 892.262939 C 91.99202 889.719185 88.935766 885.900429 86.385762 885.137928 C 83.838883 884.375427 80.013877 884.122301 76.445122 884.884802 C 72.876366 885.647304 72.366991 887.937932 71.60449 889.209809 C 70.838863 890.481686 69.563861 895.059818 70.582613 897.350446 Z M 70.582613 897.350446 " transform="matrix(1.249998,0,0,1.249998,-59.696883,-1033.686364)"/>
<path style="fill-rule:nonzero;fill:rgb(16.862745%,12.941176%,12.941176%);fill-opacity:1;stroke-width:0.24;stroke-linecap:butt;stroke-linejoin:miter;stroke:rgb(0%,0%,0%);stroke-opacity:1;stroke-miterlimit:4;" d="M 80.523253 888.191057 C 77.720124 888.447308 76.445122 888.191057 75.173245 889.97231 C 73.898243 891.753563 73.160742 898.253573 74.832619 900.487951 C 76.020121 901.250452 77.126373 901.928578 78.738875 901.928578 C 80.354503 901.928578 82.817006 901.759828 83.923258 901.250452 C 85.026385 900.741076 86.557637 900.912952 87.492014 899.641075 C 88.42639 898.369198 88.851391 897.691072 88.76389 895.737944 C 88.679515 893.787941 88.679515 892.431689 87.829514 891.244187 C 86.979513 890.056685 86.385762 888.447308 84.773259 888.022307 C 83.157632 887.597307 83.326382 887.937932 80.523253 888.191057 Z M 80.523253 888.191057 " transform="matrix(1.249998,0,0,1.249998,-59.696883,-1033.686364)"/>
<path style=" stroke:none;fill-rule:nonzero;fill:rgb(100%,100%,100%);fill-opacity:1;" d="M 32.992188 83.761719 C 33.417969 84.289062 33.949219 84.5 35.328125 84.078125 C 36.710938 83.652344 37.136719 82.910156 39.683594 82.804688 C 42.234375 82.699219 43.402344 82.699219 44.570312 82.910156 C 45.738281 83.125 46.480469 82.382812 46.691406 82.910156 C 46.90625 83.441406 48.605469 83.867188 46.054688 84.394531 C 43.507812 84.925781 43.082031 86.199219 41.171875 86.199219 C 39.257812 86.199219 39.152344 87.046875 37.242188 86.832031 C 35.328125 86.621094 33.417969 87.683594 33.3125 88.210938 C 33.207031 88.742188 31.046875 87.859375 31.046875 87.011719 C 31.046875 86.160156 32.570312 83.230469 32.992188 83.761719 Z M 32.992188 83.761719 "/>
<path style="fill-rule:nonzero;fill:rgb(57.647059%,57.647059%,67.843137%);fill-opacity:1;stroke-width:0.24;stroke-linecap:butt;stroke-linejoin:miter;stroke:rgb(0%,0%,0%);stroke-opacity:1;stroke-miterlimit:4;" d="M 173.667144 827.072215 C 172.926518 827.065965 171.732766 827.700341 171.257765 827.925341 C 170.182763 828.434717 168.595261 829.225343 167.464009 829.790969 C 166.332758 830.356595 165.426506 830.694096 163.726504 831.881597 C 162.026501 833.069099 159.307747 835.500353 158.120245 835.897229 C 156.929618 836.290979 157.326494 836.290979 157.042119 835.612853 C 156.760868 834.934727 156.760868 834.481601 157.042119 832.050348 C 157.326494 829.622219 156.251492 831.372222 154.43899 832.390973 C 152.623362 833.409725 152.454612 833.972226 150.754609 835.556603 C 149.057732 837.14098 148.15148 837.365981 146.960853 837.703481 C 145.773352 838.044107 145.317101 837.365981 144.9796 835.781603 C 144.88585 835.347228 145.492101 833.61285 144.8671 833.859725 C 143.213973 834.515976 139.248342 838.697233 138.182715 839.965985 C 136.710838 841.719112 134.72646 842.228488 134.61396 841.944113 C 134.50146 841.662862 134.160834 841.494112 133.932709 841.494112 C 133.707708 841.494112 131.55458 843.300365 130.763954 843.925366 C 129.970203 844.547242 121.926441 851.331627 124.307694 850.934751 C 126.685823 850.537876 130.988954 849.634749 135.860837 850.653501 C 140.729594 851.669127 149.679607 851.781628 151.49211 851.841003 C 153.304613 851.894128 162.820252 855.400383 169.220262 856.191009 C 175.620272 856.98476 189.895293 863.54102 197.76718 863.994146 C 205.639067 864.447272 217.36096 872.475409 222.176592 874.056661 C 226.992224 875.641039 239.507868 885.025428 242.170372 886.49418 C 244.0235 887.519181 248.970382 889.550435 252.973513 890.887937 C 254.726641 891.469187 253.101639 889.944185 253.89539 889.54731 C 254.689141 889.153559 257.861021 889.54731 259.389148 889.60356 C 260.917275 889.662935 265.279782 889.041059 266.867284 888.359808 C 268.451662 887.681682 267.770411 883.2723 267.826661 881.972298 C 267.857911 881.300422 268.542287 878.566043 268.167286 875.922289 C 267.817286 873.453535 266.407909 871.069157 266.298534 870.437906 C 266.186033 869.79728 265.011032 867.228526 263.467279 864.841022 C 261.886027 862.397269 259.932899 860.128515 259.614148 859.528514 C 258.992273 858.341012 253.442264 853.309755 252.423513 852.628504 C 251.404761 851.950378 244.776626 847.428496 243.698499 846.922245 C 242.623498 846.412869 240.923495 844.940992 237.24224 844.037866 C 235.695362 843.656615 234.18286 842.881614 232.542233 842.509738 C 230.282854 842.000363 227.998476 841.959738 227.048474 842.059738 C 225.404722 842.228488 225.007846 842.059738 224.04847 841.944113 C 223.082843 841.831612 223.367219 841.662862 222.120342 841.887863 C 220.873465 842.112863 220.364089 842.509738 219.345338 842.906614 C 218.326586 843.300365 217.87346 843.131614 216.795334 843.19099 C 215.720332 843.244115 215.607832 842.453488 215.154706 842.172238 C 214.701581 841.887863 213.795329 842.112863 211.814076 842.172238 C 209.829698 842.228488 210.454699 842.059738 209.945323 841.153486 C 209.432823 840.247235 209.320323 839.459734 209.320323 839.459734 C 209.320323 839.459734 208.470321 839.287859 207.33907 839.344109 C 206.204693 839.400359 205.867192 839.006608 205.185941 838.440982 C 204.507815 837.875356 204.676566 837.819106 203.939064 836.406604 C 203.204688 834.990977 203.714064 835.669103 202.748438 835.556603 C 201.789061 835.444103 201.448436 835.612853 199.295307 835.612853 C 197.142179 835.612853 198.332806 835.219102 197.651555 834.425351 C 196.973429 833.634725 197.085929 833.353475 197.085929 833.353475 C 197.085929 833.353475 196.010927 833.690975 195.160926 833.859725 C 194.310925 834.031601 193.632799 834.540976 192.157797 834.312851 C 190.685919 834.087851 191.31092 833.2941 191.31092 833.2941 L 190.85467 831.881597 C 190.85467 831.881597 189.045292 832.559723 188.079665 832.900349 C 187.117164 833.237849 186.154663 833.409725 185.589037 833.237849 C 185.023411 833.069099 184.851536 832.165973 184.22966 830.18472 C 183.607784 828.206592 182.926533 828.715968 181.964031 828.944093 C 181.00153 829.169093 180.660904 829.394094 179.754653 829.847219 C 178.848402 830.300345 175.676522 831.428472 175.167146 831.372222 C 174.65777 831.315972 173.864019 831.315972 173.976519 829.847219 C 174.029644 829.172218 174.57652 827.556591 174.092144 827.18784 C 173.982769 827.10659 173.835894 827.072215 173.667144 827.072215 Z M 173.667144 827.072215 " transform="matrix(1.249998,0,0,1.249998,-59.696883,-1033.686364)"/>
<path style="fill-rule:nonzero;fill:rgb(58.039216%,54.509804%,52.54902%);fill-opacity:1;stroke-width:0.24;stroke-linecap:butt;stroke-linejoin:miter;stroke:rgb(0%,0%,0%);stroke-opacity:1;stroke-miterlimit:4;" d="M 196.320303 860.37539 C 196.492178 859.019138 197.76718 857.237886 198.701557 855.881634 C 199.635933 854.525382 202.779688 852.319128 204.817191 850.794126 C 206.857819 849.265999 207.195319 848.672248 209.489073 846.384744 C 211.782826 844.094116 212.101577 845.150367 212.657828 843.75349 C 211.551576 844.262866 209.320323 845.875369 208.129696 846.63787 C 206.942194 847.400371 206.176568 847.909747 204.64844 849.097248 C 203.117188 850.28475 201.504686 850.962876 200.229684 852.319128 C 198.954682 853.67538 198.020305 853.931631 197.257804 854.441007 C 196.492178 854.947257 193.517174 857.578511 192.245297 858.594138 C 190.970295 859.612889 190.460919 859.697264 189.779668 858.850388 C 189.101542 858.000387 190.373419 857.069135 191.307795 855.712883 C 192.245297 854.353506 193.517174 853.253505 195.132801 851.556627 C 196.745304 849.85975 196.660928 850.116 198.701557 848.162872 C 200.73906 846.212869 200.910935 846.722245 203.629689 844.178491 C 204.407815 843.29099 206.014068 842.119113 205.892192 841.781612 C 204.770316 842.312863 203.542189 843.244115 201.079685 844.687867 C 198.617181 846.128494 197.257804 847.147246 196.320303 847.569121 C 195.385926 847.994122 189.779668 851.641002 186.635913 855.034757 C 183.492159 858.425388 183.239033 855.625383 184.089034 853.67538 C 184.935911 851.725377 185.785912 851.809753 186.892164 850.200375 C 187.99529 848.587873 191.820296 845.450368 195.473427 842.397238 C 199.126557 839.344109 199.126557 839.259734 197.257804 840.19411 C 195.385926 841.125361 194.623425 841.550362 193.092173 842.565989 C 191.564046 843.58474 189.610918 844.603492 187.654665 846.469119 C 185.701537 848.334747 189.779668 844.687867 181.37028 851.641002 C 172.957768 858.594138 179.414027 852.150378 179.670278 850.709751 C 179.923403 849.265999 180.689029 847.909747 181.964031 846.212869 C 183.239033 844.519117 185.532787 843.41599 190.88592 839.090983 C 196.235928 834.765977 192.839048 836.71598 191.307795 837.309731 C 189.779668 837.903482 189.101542 838.834733 187.317164 839.853484 C 185.532787 840.872236 183.664034 842.565989 182.132781 843.669115 C 180.604654 844.772242 180.010903 846.044119 174.998396 849.350374 C 169.985888 852.659754 170.154638 851.047251 170.835889 849.434749 C 171.514015 847.825372 172.617142 847.147246 174.573395 844.687867 C 176.526523 842.228488 178.651526 840.956611 182.389032 838.072232 C 186.126538 835.187852 185.701537 834.000351 182.898408 836.547229 C 180.095278 839.090983 180.860905 837.819106 179.076527 839.090983 C 177.292149 840.36286 177.207774 840.784736 168.879636 846.297244 C 160.554624 851.809753 163.867129 847.569121 164.207754 845.281618 C 164.39213 844.044116 166.351508 841.906613 168.879636 839.837859 C 170.854639 838.222232 173.217143 835.965979 175.335896 834.719102 C 175.523396 834.609727 176.667148 834.053476 176.851524 833.947226 C 177.995275 833.053474 178.960902 832.584724 179.354652 831.419097 C 176.889024 833.115974 175.507771 833.66285 173.892144 834.850352 C 172.279642 836.037854 170.748389 836.88473 169.898388 837.14098 C 169.051512 837.394106 167.94526 838.581608 160.385874 844.772242 C 152.823362 850.962876 157.242119 844.856617 157.579619 842.822239 C 157.920245 840.784736 163.698379 836.122229 167.604635 832.134723 C 171.514015 828.150342 167.182759 831.372222 165.398381 832.644099 C 163.614004 833.915976 162.932752 834.087851 160.810874 835.869103 C 158.685871 837.647231 154.948365 840.700361 153.673363 841.550362 C 152.398362 842.397238 149.510857 845.197243 147.642104 847.740996 C 145.773352 850.28475 145.007725 849.097248 144.92335 849.097248 C 144.83585 849.097248 145.007725 847.315996 145.260851 846.384744 C 145.517101 845.450368 148.32023 841.209737 149.679607 839.853484 C 151.038985 838.497232 153.588988 834.425351 153.163988 835.019102 C 152.738987 835.612853 151.12336 836.969105 150.020233 838.156607 C 148.913981 839.344109 142.798347 844.856617 141.779596 845.875369 C 140.760844 846.890995 139.738967 848.844123 138.463966 849.434749 C 137.192089 850.0285 137.360839 848.928498 137.104588 848.334747 C 136.851463 847.740996 139.145217 842.312863 139.910843 840.956611 C 140.673344 839.600359 142.798347 836.459729 142.032721 837.225356 C 141.27022 837.987857 140.504594 839.090983 139.738967 839.769109 C 138.976466 840.447235 138.720216 840.36286 136.935838 843.669115 C 135.151461 846.97537 133.282708 849.012873 132.348331 849.097248 C 131.413955 849.181624 130.732704 848.756623 130.820204 848.419122 C 130.904579 848.078497 131.49833 846.553495 131.923331 845.703493 C 132.348331 844.856617 134.132709 842.312863 133.963959 841.972238 C 133.792083 841.634737 131.413955 844.687867 130.223328 846.469119 C 129.035826 848.250372 121.926441 851.331627 124.307694 850.934751 C 126.685823 850.537876 130.988954 849.634749 135.860837 850.653501 C 140.729594 851.669127 149.679607 851.781628 151.49211 851.841003 C 153.304613 851.894128 162.820252 855.400383 169.220262 856.191009 C 175.620272 856.98476 189.895293 863.54102 197.76718 863.994146 C 198.164056 864.016021 196.151553 861.731643 196.320303 860.37539 Z M 196.320303 860.37539 " transform="matrix(1.249998,0,0,1.249998,-59.696883,-1033.686364)"/>
<path style="fill-rule:nonzero;fill:rgb(10.588235%,10.588235%,14.901961%);fill-opacity:1;stroke-width:0.24;stroke-linecap:butt;stroke-linejoin:miter;stroke:rgb(0%,0%,0%);stroke-opacity:1;stroke-miterlimit:4;" d="M 257.351645 892.091063 C 260.804775 892.656689 264.20478 893.278565 266.582909 893.278565 C 268.961038 893.278565 270.998541 893.731691 275.076672 892.319189 C 279.154803 890.906687 278.136051 891.356687 281.251681 890.734811 C 284.367311 890.112935 284.536061 891.528563 284.876687 892.656689 C 285.217312 893.787941 286.576689 896.387945 286.179814 898.028572 C 285.782938 899.6692 285.273562 901.647328 285.157937 903.05983 C 285.045437 904.475457 284.423561 905.209833 284.592311 907.075461 C 284.764186 908.941089 281.139181 909.562965 279.211053 911.144217 C 277.28605 912.728595 276.607924 914.084847 274.795421 911.372343 C 271.848542 907.075461 268.676662 907.525462 268.451662 905.606709 C 268.226662 903.681706 264.032905 899.95045 263.467279 899.609825 C 262.898528 899.272324 256.329769 895.653569 257.351645 892.091063 Z M 257.351645 892.091063 " transform="matrix(1.249998,0,0,1.249998,-59.696883,-1033.686364)"/>
<path style="fill-rule:nonzero;fill:rgb(20.392157%,20.392157%,30.588235%);fill-opacity:1;stroke-width:0.24;stroke-linecap:round;stroke-linejoin:round;stroke:rgb(0%,0%,0%);stroke-opacity:1;stroke-miterlimit:4;" d="M 141.635845 940.266136 C 141.379595 940.266136 140.773344 940.288011 139.598342 940.316136 C 137.85459 940.359886 134.898335 940.409886 131.76083 940.441136 C 134.898335 944.616143 132.688957 941.731763 134.332709 948.347398 C 134.332709 948.347398 136.538963 956.03491 136.992088 958.069288 C 137.445214 960.106791 140.957719 968.075553 141.63897 969.094305 C 142.317096 970.113056 144.695225 972.48806 145.376476 973.788062 C 146.054602 975.088064 147.132729 976.725566 148.26398 978.478694 C 149.395232 980.231821 149.395232 981.022448 151.263985 982.947451 C 153.132738 984.869329 154.042114 986.225581 154.55149 986.225581 C 155.060866 986.225581 154.77649 986.619331 155.682742 985.094329 C 156.588993 983.566202 157.72337 980.909948 158.517121 980.456822 C 159.307747 980.006821 160.442124 977.234942 160.442124 977.234942 L 161.1765 975.088064 C 161.1765 975.088064 162.082751 974.181812 162.535877 972.091184 C 162.989003 969.997431 163.160878 967.906803 163.839004 966.719301 C 164.51713 965.531799 165.254631 962.253669 165.254631 962.253669 C 165.254631 962.253669 165.935882 958.747414 165.310881 957.334912 C 164.689005 955.92241 162.820252 953.03803 162.764002 953.03803 C 162.707752 953.03803 160.838999 950.891152 157.382744 949.138025 C 153.926489 947.384897 151.15461 944.725518 149.795233 944.500518 C 148.435856 944.275517 145.773352 943.031765 145.773352 942.975515 C 145.773352 942.919265 144.073349 942.241139 142.317096 942.125514 C 141.523345 942.125514 140.560844 941.166137 140.560844 941.166137 C 140.042093 940.428636 142.404596 940.256761 141.635845 940.266136 Z M 141.635845 940.266136 " transform="matrix(1.249998,0,0,1.249998,-59.696883,-1033.686364)"/>
<path style="fill-rule:nonzero;fill:rgb(98.431373%,97.254902%,96.470588%);fill-opacity:1;stroke-width:0.24;stroke-linecap:round;stroke-linejoin:round;stroke:rgb(0%,0%,0%);stroke-opacity:1;stroke-miterlimit:4;" d="M 246.023503 929.350495 C 242.114122 930.762997 236.507864 929.85987 232.939108 931.103622 C 229.370353 932.344249 222.404717 933.928627 219.742213 935.116128 C 217.079709 936.30363 209.376573 937.547382 207.735945 938.113008 C 206.092193 938.678634 192.667172 941.503638 190.914045 941.956764 C 189.157792 942.409889 189.495293 943.256766 189.495293 943.256766 C 189.495293 943.256766 191.764046 946.538021 195.385926 948.572399 C 199.010932 950.606777 207.62032 955.80991 212.264077 956.825536 C 216.910959 957.844288 227.898476 959.541165 230.72973 961.575543 C 233.560984 963.609921 235.148487 963.722422 238.204741 964.516173 C 241.264121 965.306799 243.757875 965.647424 245.795378 964.628673 C 247.836006 963.609921 253.157889 961.238043 255.082892 959.20054 C 257.01102 957.166162 257.689146 957.731788 259.501648 953.772407 C 261.314151 949.816151 262.673528 949.138025 262.220402 944.841143 C 261.767277 940.544262 261.654777 937.263007 261.201651 935.794254 C 260.748525 934.325502 257.801646 930.594247 256.895394 930.369246 C 255.992268 930.141121 248.457882 930.253621 248.457882 930.253621 C 246.476629 930.594247 246.645379 930.028621 246.023503 929.350495 Z M 246.023503 929.350495 " transform="matrix(1.249998,0,0,1.249998,-59.696883,-1033.686364)"/>
<path style="fill-rule:nonzero;fill:rgb(98.431373%,97.254902%,96.470588%);fill-opacity:1;stroke-width:0.24;stroke-linecap:round;stroke-linejoin:round;stroke:rgb(0%,0%,0%);stroke-opacity:1;stroke-miterlimit:4;" d="M 175.207771 873.08166 C 174.360895 873.084785 173.492143 873.166035 172.617142 873.35041 C 168.626511 874.200411 156.560868 878.778543 153.588988 880.897296 C 150.613984 883.019175 147.554604 887.175431 146.282727 889.294184 C 145.007725 891.412937 141.013969 895.909819 139.229592 897.944197 C 137.445214 899.978575 133.367083 904.897333 132.179581 906.42546 C 130.988954 907.950462 131.073329 910.156716 131.073329 911.172342 C 131.073329 912.191094 130.988954 913.122345 132.007706 915.922349 C 133.029582 918.722354 133.792083 921.434858 135.067085 921.603608 C 136.342087 921.772358 138.635841 921.944233 142.032721 921.603608 C 145.432726 921.266107 153.757739 920.416106 155.710867 920.162981 C 157.66712 919.90673 159.960873 920.416106 161.745251 919.228604 C 163.529628 918.041103 167.604635 915.922349 170.070263 913.462971 C 172.532767 911.003592 177.801525 906.42546 179.076527 904.050456 C 180.348404 901.675453 184.089034 894.806692 184.59841 892.347314 C 185.107786 889.887935 186.042162 884.034801 186.042162 883.187925 C 186.042162 882.341049 184.76716 875.556663 182.642157 874.706662 C 180.985905 874.044161 178.235901 873.072285 175.207771 873.08166 Z M 175.207771 873.08166 " transform="matrix(1.249998,0,0,1.249998,-59.696883,-1033.686364)"/>
<path style="fill-rule:nonzero;fill:rgb(20.392157%,20.392157%,30.588235%);fill-opacity:1;stroke-width:0.24;stroke-linecap:round;stroke-linejoin:round;stroke:rgb(0%,0%,0%);stroke-opacity:1;stroke-miterlimit:4;" d="M 332.526759 872.734784 C 331.886133 872.734784 330.689256 872.944159 328.204877 873.55041 C 323.789245 874.622287 316.423609 877.394166 312.404853 879.031669 C 308.382972 880.672296 305.207967 881.462922 301.301711 883.10355 C 298.017331 884.178551 294.164201 885.872304 290.65482 886.947306 C 288.104817 888.306683 278.136051 891.359812 281.251681 890.734811 C 284.367311 890.112935 284.536061 891.528563 284.876687 892.656689 C 285.217312 893.787941 286.576689 896.387945 286.179814 898.028572 C 285.782938 899.6692 285.273562 901.647328 285.157937 903.05983 C 285.045437 904.475457 284.423561 905.209833 284.592311 907.075461 C 284.764186 908.941089 285.839188 913.12547 284.989187 914.425472 C 284.139186 915.725474 283.064184 917.703602 282.270433 918.325478 C 281.479807 918.947354 278.589177 920.756732 277.514176 921.150482 C 276.436049 921.547358 275.814173 922.112984 275.248547 922.112984 C 274.682921 922.112984 281.817307 923.525486 283.176684 924.147362 C 284.536061 924.772363 294.051701 928.784869 296.714205 929.519245 C 299.376709 930.253621 311.611102 934.719253 312.914229 934.834878 C 314.214231 934.947378 325.373623 938.225508 326.336124 938.169258 C 327.298626 938.113008 330.526756 938.113008 330.526756 938.113008 L 330.414255 927.428617 C 330.414255 927.428617 328.826753 919.116104 327.920502 917.419227 C 327.017375 915.725474 325.089247 910.01609 324.411121 909.44734 C 323.72987 908.884839 322.939244 906.962961 322.939244 906.962961 C 322.939244 906.962961 323.44862 905.775459 324.126746 904.756708 C 325.486123 903.00358 326.223624 899.72545 326.958 897.859822 C 328.714253 894.581692 330.245505 889.719185 330.639256 887.909807 C 330.639256 887.909807 333.18926 878.525418 333.18926 878.469168 C 333.18926 878.409793 333.754885 873.434785 333.35801 873.041035 C 333.186135 872.866034 333.023634 872.737909 332.526759 872.734784 Z M 332.526759 872.734784 " transform="matrix(1.249998,0,0,1.249998,-59.696883,-1033.686364)"/>
<path style=" stroke:none;fill-rule:nonzero;fill:rgb(53.72549%,53.72549%,60.392157%);fill-opacity:1;" d="M 159.3125 57.664062 C 158.253906 57.667969 157.167969 57.769531 156.074219 58 C 151.085938 59.0625 136.003906 64.785156 132.289062 67.433594 C 128.570312 70.085938 124.746094 75.28125 123.15625 77.929688 C 121.5625 80.578125 116.570312 86.199219 114.339844 88.742188 C 112.109375 91.285156 107.011719 97.433594 105.527344 99.34375 C 104.039062 101.25 104.144531 104.007812 104.144531 105.277344 C 104.144531 106.550781 104.039062 107.714844 105.3125 111.214844 C 106.589844 114.714844 107.542969 118.105469 109.136719 118.316406 C 110.652344 118.519531 109.933594 114.273438 110.171875 109.457031 C 110.410156 104.644531 110.875 103.355469 113.867188 97.300781 C 115.148438 94.710938 122.101562 82.707031 127.980469 75.894531 C 135.847656 66.78125 144.382812 62.328125 159.773438 57.671875 C 159.621094 57.667969 159.46875 57.664062 159.3125 57.664062 Z M 159.3125 57.664062 "/>
<path style="fill:none;stroke-width:0.24;stroke-linecap:round;stroke-linejoin:round;stroke:rgb(0%,0%,0%);stroke-opacity:1;stroke-miterlimit:4;" d="M 175.207771 873.08166 C 174.360895 873.084785 173.492143 873.166035 172.617142 873.35041 C 168.626511 874.200411 156.560868 878.778543 153.588988 880.897296 C 150.613984 883.019175 147.554604 887.175431 146.282727 889.294184 C 145.007725 891.412937 141.013969 895.909819 139.229592 897.944197 C 137.445214 899.978575 133.367083 904.897333 132.179581 906.42546 C 130.988954 907.950462 131.073329 910.156716 131.073329 911.172342 C 131.073329 912.191094 130.988954 913.122345 132.007706 915.922349 C 133.029582 918.722354 133.792083 921.434858 135.067085 921.603608 C 136.342087 921.772358 138.635841 921.944233 142.032721 921.603608 C 145.432726 921.266107 153.757739 920.416106 155.710867 920.162981 C 157.66712 919.90673 159.960873 920.416106 161.745251 919.228604 C 163.529628 918.041103 167.604635 915.922349 170.070263 913.462971 C 172.532767 911.003592 177.801525 906.42546 179.076527 904.050456 C 180.348404 901.675453 184.089034 894.806692 184.59841 892.347314 C 185.107786 889.887935 186.042162 884.034801 186.042162 883.187925 C 186.042162 882.341049 184.76716 875.556663 182.642157 874.706662 C 180.985905 874.044161 178.235901 873.072285 175.207771 873.08166 Z M 175.207771 873.08166 " transform="matrix(1.249998,0,0,1.249998,-59.696883,-1033.686364)"/>
</g>
</svg>
