<?xml version="1.0" encoding="UTF-8"?>
<svg xmlns="http://www.w3.org/2000/svg" xmlns:xlink="http://www.w3.org/1999/xlink" width="446pt" height="249pt" viewBox="0 0 446 249" version="1.1">
<g id="surface71">
<path style="fill-rule:nonzero;fill:rgb(96.078432%,94.117647%,92.156863%);fill-opacity:1;stroke-width:0.24;stroke-linecap:butt;stroke-linejoin:miter;stroke:rgb(0%,0%,0%);stroke-opacity:1;stroke-miterlimit:4;" d="M 121.303588 880.390893 C 121.303588 880.390893 123.257186 880.643535 124.362807 880.983726 C 125.465927 881.321416 128.01736 882.849775 129.375624 884.628274 C 130.733887 886.409275 133.282819 887.852585 134.558536 888.44792 C 135.831751 889.040753 135.831751 891.412085 135.749204 892.857898 C 135.661655 894.296206 133.875652 898.368494 133.112723 899.384064 C 132.347293 900.404638 129.205528 908.96945 127.504572 911.260737 C 125.808619 913.547022 119.605134 925.16605 118.076775 927.199692 C 116.545915 929.238338 112.128433 928.560457 109.23931 931.782267 C 106.350187 935.004077 102.783183 933.305623 98.363199 934.068552 C 94.863733 934.676393 91.314239 933.648316 91.314239 933.648316 M 51.194198 906.880776 C 49.84594 905.239854 49.740881 903.178696 53.337902 900.179511 C 58.660893 895.259247 69.081748 886.156633 73.389168 882.649662 C 77.691585 879.147695 89.245577 871.115682 93.893188 868.631786 C 98.875987 864.784625 99.553868 863.769054 104.766797 860.772371 C 110.882733 856.419925 121.926438 851.332067 124.307776 850.934343 C 126.686613 850.539121 130.98903 849.633612 135.861768 850.654186 C 140.729503 851.669756 149.679531 851.78232 151.49305 851.839852 C 153.304068 851.894883 162.819414 855.399352 169.22051 856.189796 C 175.619105 856.985243 189.894626 863.541426 197.766549 863.994181 C 205.638471 864.446935 217.360057 872.476446 222.177764 874.057335 C 226.992969 875.640724 239.507501 885.025997 242.171497 886.494322 C 244.832993 887.965149 253.895584 891.529651 257.352527 892.089966 C 260.804466 892.657785 264.203876 893.278134 266.582713 893.278134 C 268.961549 893.278134 270.997693 893.730888 275.077485 892.320096 C 279.154776 890.906801 278.136704 891.357054 281.250954 890.734204 C 284.367705 890.113856 284.535299 891.529651 284.87549 892.657785 C 285.218183 893.78842 286.576446 896.387381 286.178722 898.028303 C 285.7835 899.669225 285.273214 901.647836 285.158149 903.058629 C 285.045586 904.474424 284.422736 905.209838 284.592831 907.075886 C 284.765428 908.941934 285.838531 913.124284 284.988054 914.425015 C 284.140077 915.725746 283.064473 917.704358 282.271527 918.324706 C 281.478582 918.947556 278.589458 920.756072 277.513854 921.151294 C 276.435748 921.546516 275.8154 922.111834 275.247581 922.111834 C 274.682263 922.111834 272.245894 921.829175 270.264781 921.94424 C 268.278665 922.056803 262.220262 922.95981 259.501234 924.035415 C 256.782206 925.111019 255.366411 925.676337 252.704915 926.521812 C 250.045921 927.372289 249.930857 927.935106 246.023662 929.350901 C 242.113965 930.764195 236.508315 929.858686 232.93881 931.104386 C 229.369304 932.345083 222.405392 933.928473 219.741395 935.116641 C 217.0799 936.304808 209.375571 937.548007 207.737151 938.113324 C 206.091226 938.678642 192.666183 941.502728 190.915199 941.957984 C 189.156711 942.410739 189.894626 942.125578 184.45657 942.410739 C 179.021017 942.690896 177.997942 942.46577 176.074361 942.918524 C 174.148279 943.368777 170.748869 942.976056 169.107947 942.918524 C 167.464524 942.860992 152.908846 942.298175 148.661459 941.390165 C 144.414073 940.487158 144.299008 940.207001 139.598867 940.317062 C 134.898727 940.432127 121.361121 940.599721 119.319974 940.317062 C 117.28383 940.034404 106.520282 938.846236 101.367387 937.66057 C 96.214492 936.472402 97.572755 936.134713 97.004936 935.907085 C 96.439619 935.681958 93.893188 934.20863 90.831468 933.475719 C 87.772249 932.740305 80.070422 930.819226 73.389168 926.746938 C 66.705413 922.679653 62.230398 920.530946 59.398807 918.774959 C 56.567217 917.026477 47.392062 910.240164 47.902348 908.829371 C 48.410134 907.413576 49.698357 905.815178 50.491303 905.87271 M 64.266542 894.693929 C 63.701225 895.091653 63.476098 895.596937 63.476098 895.596937 M 60.474412 897.575548 C 60.869634 898.368494 61.039729 898.763716 61.039729 898.706183 " transform="matrix(-1.561622,0,0,1.561622,520.98896,-1291.189454)"/>
<path style="fill-rule:nonzero;fill:rgb(11.764706%,11.764706%,22.745098%);fill-opacity:1;stroke-width:0.24;stroke-linecap:butt;stroke-linejoin:miter;stroke:rgb(0%,0%,0%);stroke-opacity:1;stroke-miterlimit:4;" d="M 81.591276 883.109921 C 79.812777 883.094912 77.944227 883.270011 76.13321 883.69525 C 71.990882 884.663294 71.400551 887.564924 70.51005 889.17833 C 69.622051 890.791737 68.146222 896.597499 69.329387 899.50163 C 70.515053 902.403261 72.583715 907.240979 76.13321 908.209023 C 80.010388 910.835498 82.164098 913.874706 84.600467 916.571221 C 85.736105 917.929484 89.698331 922.33696 91.399287 923.585162 C 93.097741 924.825859 93.663059 923.24497 94.571069 922.33696 C 95.476578 921.433953 95.251451 920.078191 95.136386 917.704358 C 92.459883 911.438337 92.947657 908.281563 93.267837 906.290445 C 95.631665 902.098089 94.773683 896.274817 94.476015 893.048004 C 94.183351 889.821192 90.633857 884.985975 87.672193 884.01543 C 86.008758 883.472625 83.877561 883.132433 81.591276 883.109921 Z M 81.591276 883.109921 " transform="matrix(-1.561622,0,0,1.561622,520.98896,-1291.189454)"/>
<path style="fill-rule:nonzero;fill:rgb(90.196079%,87.058824%,86.274511%);fill-opacity:1;stroke-width:0.24;stroke-linecap:butt;stroke-linejoin:miter;stroke:rgb(0%,0%,0%);stroke-opacity:1;stroke-miterlimit:4;" d="M 54.441022 909.479737 C 53.507998 908.946937 51.231719 907.378556 50.491303 905.87271 C 49.698357 905.815178 48.410134 907.413576 47.902348 908.829371 C 47.392062 910.240164 56.567217 917.026477 59.398807 918.774959 C 62.230398 920.530946 66.705413 922.679653 73.389168 926.746938 C 75.312749 927.652447 76.333322 925.16605 77.351394 923.695223 C 78.369466 922.224397 80.410613 917.816921 78.369466 916.571221 C 76.333322 915.328022 72.140967 913.747134 69.989758 913.179315 C 67.836048 912.616499 63.986385 911.260737 60.814603 908.769337 C 57.870449 905.832687 52.997711 900.857392 51.3768 902.15312 C 49.860949 904.12923 50.163619 905.627572 51.194198 906.880776 C 52.184754 908.081451 53.843186 909.0595 55.206452 910.015037 C 55.801786 910.577854 56.182 910.790473 56.847374 911.3733 C 57.002461 911.538393 60.879639 914.445026 62.850747 916.571221 C 69.714603 923.487607 67.495857 922.56709 73.726858 925.16605 " transform="matrix(-1.561622,0,0,1.561622,520.98896,-1291.189454)"/>
<path style="fill-rule:nonzero;fill:rgb(34.901962%,27.058825%,27.058825%);fill-opacity:1;stroke-width:0.24;stroke-linecap:butt;stroke-linejoin:miter;stroke:rgb(0%,0%,0%);stroke-opacity:1;stroke-miterlimit:4;" d="M 70.582591 897.350422 C 71.605666 899.641709 73.389168 903.456352 76.445885 904.219281 C 79.505104 904.98221 79.760247 906.252924 84.347825 904.729568 C 88.935402 903.201209 88.680259 903.201209 90.718904 899.894351 C 92.75755 896.587493 92.504908 894.806492 92.247263 892.262563 C 91.99212 889.718634 88.935402 885.901489 86.38647 885.138561 C 83.84004 884.375632 80.012889 884.12299 76.445885 884.885919 C 72.87638 885.646346 72.366093 887.937633 71.605666 889.210849 C 70.837734 890.481563 69.564519 895.059134 70.582591 897.350422 Z M 70.582591 897.350422 " transform="matrix(-1.561622,0,0,1.561622,520.98896,-1291.189454)"/>
<path style="fill-rule:nonzero;fill:rgb(15.686275%,11.764706%,11.764706%);fill-opacity:1;stroke-width:0.24;stroke-linecap:butt;stroke-linejoin:miter;stroke:rgb(0%,0%,0%);stroke-opacity:1;stroke-miterlimit:4;" d="M 80.523176 888.190275 C 77.719101 888.44792 76.445885 888.190275 75.17267 889.971276 C 73.899455 891.754778 73.16154 898.253429 74.832479 900.487184 C 76.020646 901.250113 77.126268 901.927994 78.739674 901.927994 C 80.355582 901.927994 82.816965 901.760399 83.922586 901.250113 C 85.025706 900.742327 86.556566 900.912423 87.492092 899.641709 C 88.427617 898.368494 88.850355 897.690613 88.762805 895.737015 C 88.680259 893.78842 88.680259 892.432659 87.829781 891.244491 C 86.979303 890.056324 86.38647 888.44792 84.773064 888.022681 C 83.157156 887.597442 83.327252 887.937633 80.523176 888.190275 Z M 80.523176 888.190275 " transform="matrix(-1.561622,0,0,1.561622,520.98896,-1291.189454)"/>
<path style=" stroke:none;fill-rule:nonzero;fill:rgb(100%,100%,100%);fill-opacity:1;" d="M 405.191406 104.839844 C 404.660156 105.496094 403.996094 105.761719 402.273438 105.234375 C 400.546875 104.703125 400.015625 103.773438 396.832031 103.640625 C 393.644531 103.511719 392.1875 103.511719 390.726562 103.773438 C 389.269531 104.042969 388.339844 103.117188 388.078125 103.773438 C 387.808594 104.4375 385.6875 104.96875 388.875 105.628906 C 392.054688 106.292969 392.585938 107.882812 394.972656 107.882812 C 397.363281 107.882812 397.496094 108.941406 399.882812 108.675781 C 402.273438 108.410156 404.660156 109.738281 404.792969 110.398438 C 404.925781 111.058594 407.621094 109.957031 407.621094 108.898438 C 407.621094 107.835938 405.71875 104.175781 405.191406 104.839844 Z M 405.191406 104.839844 "/>
<path style="fill-rule:nonzero;fill:rgb(56.862748%,56.862748%,67.058825%);fill-opacity:1;stroke-width:0.24;stroke-linecap:butt;stroke-linejoin:miter;stroke:rgb(0%,0%,0%);stroke-opacity:1;stroke-miterlimit:4;" d="M 173.668009 827.073437 C 172.927593 827.065933 171.731921 827.70129 171.256654 827.926416 C 170.183551 828.434202 168.595159 829.224646 167.464524 829.789963 C 166.333888 830.357782 165.425878 830.692971 163.727424 831.881138 C 162.026468 833.069306 159.307441 835.500672 158.119273 835.898395 C 156.928604 836.291116 157.326327 836.291116 157.041167 835.613235 C 156.76101 834.935354 156.76101 834.4826 157.041167 832.051234 C 157.326327 829.622369 156.250723 831.373353 154.439706 832.391425 C 152.623685 833.409497 152.45359 833.972313 150.755135 835.555703 C 149.056681 837.141594 148.151172 837.36672 146.960503 837.70441 C 145.772336 838.044601 145.31708 837.36672 144.97939 835.780829 C 144.886838 835.348086 145.492179 833.612111 144.866827 833.85975 C 143.213398 834.515118 139.248671 838.697468 138.183072 839.96568 C 136.709744 841.719166 134.72613 842.229452 134.613566 841.944292 C 134.501003 841.661633 134.160812 841.494039 133.933184 841.494039 C 133.708058 841.494039 131.554348 843.300054 130.763904 843.925405 C 129.970958 844.548255 121.926438 851.332067 124.307776 850.934343 C 126.686613 850.539121 130.98903 849.633612 135.861768 850.654186 C 140.729503 851.669756 149.679531 851.78232 151.49305 851.839852 C 153.304068 851.894883 162.819414 855.399352 169.22051 856.189796 C 175.619105 856.985243 189.894626 863.541426 197.766549 863.994181 C 205.638471 864.446935 217.360057 872.476446 222.177764 874.057335 C 226.992969 875.640724 239.507501 885.025997 242.171497 886.494322 C 244.022537 887.519899 248.970317 889.55104 252.972566 890.88679 C 254.726051 891.469618 253.102639 889.94376 253.895584 889.548538 C 254.68853 889.153316 257.860312 889.548538 259.388671 889.603569 C 260.917029 889.663603 265.27948 889.040753 266.867873 888.360371 C 268.451262 887.68249 267.77088 883.272512 267.825911 881.971781 C 267.858429 881.301405 268.541313 878.564867 268.166102 875.923383 C 267.818407 873.454496 266.407614 871.068155 266.297552 870.437801 C 266.184989 869.797441 265.01183 867.228498 263.468463 864.842157 C 261.885073 862.398284 259.933977 860.129509 259.613797 859.529172 C 258.993449 858.341005 253.44283 853.310678 252.424758 852.627795 C 251.404185 851.949914 244.77546 847.427373 243.697355 846.922089 C 242.624252 846.411802 240.923296 844.940976 237.241227 844.037968 C 235.695359 843.657755 234.182008 842.882319 232.541086 842.50961 C 230.282317 841.999323 227.998534 841.959301 227.048 842.059357 C 225.404577 842.229452 225.006853 842.059357 224.048815 841.944292 C 223.083273 841.831729 223.368433 841.661633 222.120232 841.88676 C 220.874532 842.111886 220.364245 842.50961 219.346173 842.907333 C 218.3256 843.300054 217.872845 843.13246 216.794739 843.189992 C 215.719135 843.245023 215.609073 842.454579 215.153818 842.17192 C 214.701063 841.88676 213.795554 842.111886 211.814441 842.17192 C 209.830827 842.229452 210.453677 842.059357 209.945891 841.153848 C 209.433103 840.248339 209.32054 839.460397 209.32054 839.460397 C 209.32054 839.460397 208.470062 839.2878 207.339427 839.345332 C 206.203789 839.400363 205.866099 839.007642 205.185717 838.439823 C 204.507836 837.874506 204.67543 837.819475 203.940017 836.406181 C 203.204604 834.990385 203.714891 835.668266 202.749348 835.555703 C 201.788808 835.44314 201.448617 835.613235 199.294907 835.613235 C 197.141197 835.613235 198.331866 835.218013 197.651484 834.425068 C 196.973603 833.634623 197.086166 833.354466 197.086166 833.354466 C 197.086166 833.354466 196.010562 833.692156 195.160084 833.85975 C 194.312108 834.032347 193.631725 834.540132 192.158398 834.312504 C 190.68507 834.087378 191.310421 833.294432 191.310421 833.294432 L 190.855165 831.881138 C 190.855165 831.881138 189.044148 832.559019 188.078605 832.89921 C 187.118066 833.2369 186.155025 833.409497 185.589707 833.2369 C 185.024389 833.069306 184.851793 832.166298 184.228943 830.185185 C 183.608594 828.206574 182.92571 828.71686 181.965171 828.944488 C 181.00213 829.169615 180.661938 829.394741 179.753928 829.847496 C 178.84842 830.30025 175.676637 831.428384 175.166351 831.373353 C 174.658565 831.315821 173.863119 831.315821 173.975682 829.847496 C 174.030713 829.172116 174.576019 827.556208 174.093248 827.188502 C 173.983186 827.105955 173.835603 827.070936 173.668009 827.070936 Z M 173.668009 827.073437 " transform="matrix(-1.561622,0,0,1.561622,520.98896,-1291.189454)"/>
<path style="fill-rule:nonzero;fill:rgb(58.039218%,54.11765%,52.156866%);fill-opacity:1;stroke-width:0.24;stroke-linecap:butt;stroke-linejoin:miter;stroke:rgb(0%,0%,0%);stroke-opacity:1;stroke-miterlimit:4;" d="M 196.320736 860.374647 C 196.493333 859.018885 197.766549 857.237885 198.702074 855.882123 C 199.635098 854.526361 202.779365 852.320122 204.81801 850.794264 C 206.856656 849.265906 207.194346 848.673073 209.488134 846.384287 C 211.781923 844.092999 212.102103 845.151094 212.657415 843.752808 C 211.551794 844.263095 209.32054 845.876501 208.129871 846.636929 C 206.941704 847.399857 206.176274 847.910144 204.647915 849.098312 C 203.117055 850.283978 201.503648 850.961859 200.230433 852.320122 C 198.954716 853.675883 198.019191 853.931027 197.258763 854.441314 C 196.493333 854.946597 193.516661 857.578076 192.245947 858.593646 C 190.97023 859.611718 190.459943 859.696766 189.779561 858.851291 C 189.10168 858.000813 190.372394 857.070291 191.30792 855.712027 C 192.245947 854.353764 193.516661 853.253146 195.132569 851.557193 C 196.745975 849.858739 196.660927 850.116384 198.702074 848.162786 C 200.738218 846.21169 200.910815 846.721976 203.629843 844.178047 C 204.40778 843.290048 206.013682 842.119391 205.891113 841.781701 C 204.770484 842.311999 203.542294 843.245023 201.080911 844.688334 C 198.617026 846.129143 197.258763 847.147215 196.320736 847.569953 C 195.385211 847.995192 189.779561 851.642241 186.635295 855.034147 C 183.491028 858.426052 183.238386 855.624478 184.088864 853.675883 C 184.93684 851.724787 185.784817 851.809835 186.892939 850.201431 C 187.996059 848.588025 191.820708 845.451263 195.47276 842.397047 C 199.127313 839.345332 199.127313 839.260284 197.258763 840.193308 C 195.385211 841.126333 194.622282 841.551571 193.091422 842.567142 C 191.563063 843.585214 189.611967 844.603286 187.655868 846.469335 C 185.70227 848.335383 189.779561 844.688334 181.369836 851.642241 C 172.95761 858.593646 179.413737 852.150026 179.671382 850.709217 C 179.924024 849.265906 180.689454 847.910144 181.965171 846.21169 C 183.238386 844.518238 185.532175 843.415119 190.885182 839.090189 C 196.235688 834.765259 192.83878 836.716355 191.30792 837.309188 C 189.779561 837.904522 189.10168 838.835045 187.318178 839.853117 C 185.532175 840.871189 183.663625 842.567142 182.132765 843.670262 C 180.604406 844.773382 180.011573 846.044096 174.998757 849.350954 C 169.98594 852.660313 170.153534 851.046906 170.836418 849.436001 C 171.514299 847.825096 172.617419 847.147215 174.573518 844.688334 C 176.527115 842.229452 178.650809 840.956237 182.387908 838.072117 C 186.127509 835.187996 185.70227 833.999829 182.898195 836.546259 C 180.094119 839.090189 180.862051 837.819475 179.076047 839.090189 C 177.292545 840.363404 177.207498 840.78364 168.880319 846.296738 C 160.555642 851.809835 163.867503 847.569953 164.207694 845.281167 C 164.392798 844.042971 166.351398 841.906771 168.880319 839.838109 C 170.853928 838.222201 173.217756 835.965933 175.336446 834.720233 C 175.524052 834.610172 176.667194 834.052358 176.852298 833.947299 C 177.99544 833.054297 178.960983 832.584033 179.353703 831.418378 C 176.889819 833.116832 175.506542 833.662139 173.893135 834.850306 C 172.279729 836.038474 170.748869 836.883949 169.898391 837.141594 C 169.050415 837.394236 167.944793 838.582403 160.385546 844.773382 C 152.823798 850.961859 157.24128 844.855928 157.578969 842.822285 C 157.919161 840.78364 163.697407 836.12102 167.604602 832.13378 C 171.514299 828.151543 167.181865 831.373353 165.398363 832.644067 C 163.614861 833.914781 162.931977 834.087378 160.810785 835.868378 C 158.687092 837.646878 154.947491 840.701094 153.674276 841.551571 C 152.398559 842.397047 149.511937 845.196119 147.640886 847.740048 C 145.772336 850.283978 145.006906 849.098312 144.92436 849.098312 C 144.83681 849.098312 145.006906 847.31481 145.262049 846.384287 C 145.517193 845.451263 148.321268 841.208879 149.679531 839.853117 C 151.037794 838.497356 153.589228 834.425068 153.163989 835.017901 C 152.73875 835.613235 151.122842 836.968997 150.019722 838.157164 C 148.914101 839.345332 142.798165 844.855928 141.780093 845.876501 C 140.762021 846.892072 139.738946 848.843168 138.463229 849.436001 C 137.192515 850.028834 137.36011 848.928216 137.104966 848.335383 C 136.852324 847.740048 139.146113 842.311999 139.911543 840.956237 C 140.674472 839.600475 142.798165 836.45871 142.032735 837.22414 C 141.269806 837.987069 140.504376 839.090189 139.738946 839.768069 C 138.976017 840.448452 138.720874 840.363404 136.934871 843.670262 C 135.151369 846.974618 133.282819 849.013264 132.347293 849.098312 C 131.414269 849.180858 130.733887 848.755619 130.821436 848.417929 C 130.903982 848.077738 131.499317 846.554382 131.924556 845.703904 C 132.347293 844.855928 134.133297 842.311999 133.963201 841.971808 C 133.793105 841.634118 131.414269 844.688334 130.2236 846.469335 C 129.035432 848.250335 121.926438 851.332067 124.307776 850.934343 C 126.686613 850.539121 130.98903 849.633612 135.861768 850.654186 C 140.729503 851.669756 149.679531 851.78232 151.49305 851.839852 C 153.304068 851.894883 162.819414 855.399352 169.22051 856.189796 C 175.619105 856.985243 189.894626 863.541426 197.766549 863.994181 C 198.164272 864.016693 196.150641 861.73291 196.320736 860.374647 Z M 196.320736 860.374647 " transform="matrix(-1.561622,0,0,1.561622,520.98896,-1291.189454)"/>
<path style="fill-rule:nonzero;fill:rgb(9.803922%,9.803922%,13.725491%);fill-opacity:1;stroke-width:0.24;stroke-linecap:butt;stroke-linejoin:miter;stroke:rgb(0%,0%,0%);stroke-opacity:1;stroke-miterlimit:4;" d="M 257.352527 892.089966 C 260.804466 892.657785 264.203876 893.278134 266.582713 893.278134 C 268.961549 893.278134 270.997693 893.730888 275.077485 892.320096 C 279.154776 890.906801 278.136704 891.357054 281.250954 890.734204 C 284.367705 890.113856 284.535299 891.529651 284.87549 892.657785 C 285.218183 893.78842 286.576446 896.387381 286.178722 898.028303 C 285.7835 899.669225 285.273214 901.647836 285.158149 903.058629 C 285.045586 904.474424 284.422736 905.209838 284.592831 907.075886 C 284.765428 908.941934 281.138391 909.562283 279.209807 911.143171 C 277.286226 912.729062 276.608345 914.084824 274.794826 911.3733 C 271.848171 907.075886 268.676389 907.526139 268.451262 905.607561 C 268.226136 903.681479 264.03378 899.949382 263.468463 899.609191 C 262.898142 899.271501 256.329452 895.654469 257.352527 892.089966 Z M 257.352527 892.089966 " transform="matrix(-1.561622,0,0,1.561622,520.98896,-1291.189454)"/>
<path style="fill-rule:nonzero;fill:rgb(20%,20%,29.803923%);fill-opacity:1;stroke-width:0.24;stroke-linecap:round;stroke-linejoin:round;stroke:rgb(0%,0%,0%);stroke-opacity:1;stroke-miterlimit:4;" d="M 141.635011 940.267034 C 141.379868 940.267034 140.774528 940.287045 139.598867 940.317062 C 137.855388 940.359586 134.898727 940.409614 131.761964 940.442133 C 134.898727 944.616978 132.689986 941.732858 134.333409 948.346574 C 134.333409 948.346574 136.539649 956.035894 136.992403 958.069536 C 137.445157 960.10568 140.957131 968.075158 141.640014 969.09323 C 142.317895 970.113803 144.69423 972.487637 145.377114 973.788368 C 146.054995 975.089099 147.1331 976.725018 148.263736 978.478503 C 149.394371 980.231988 149.394371 981.022432 151.262921 982.948515 C 153.133972 984.869594 154.041982 986.225356 154.552269 986.225356 C 155.060054 986.225356 154.777395 986.620578 155.682904 985.09472 C 156.588413 983.566362 157.724051 980.909869 158.516996 980.457115 C 159.307441 980.006862 160.443079 977.235305 160.443079 977.235305 L 161.17599 975.089099 C 161.17599 975.089099 162.084001 974.181089 162.536755 972.092415 C 162.989509 969.996237 163.162106 967.907564 163.839987 966.719396 C 164.517868 965.531229 165.255783 962.254388 165.255783 962.254388 C 165.255783 962.254388 165.936165 958.747417 165.310814 957.334123 C 164.687964 955.923331 162.819414 953.03921 162.764383 953.03921 C 162.70685 953.03921 160.838301 950.890503 157.38386 949.137018 C 153.926918 947.386034 151.15536 944.724539 149.794596 944.499412 C 148.436333 944.274286 145.772336 943.031087 145.772336 942.976056 C 145.772336 942.918524 144.073882 942.240643 142.317895 942.125578 C 141.522448 942.125578 140.561908 941.165039 140.561908 941.165039 C 140.041616 940.429626 142.405444 940.257029 141.635011 940.267034 Z M 141.635011 940.267034 " transform="matrix(-1.561622,0,0,1.561622,520.98896,-1291.189454)"/>
<path style="fill-rule:nonzero;fill:rgb(98.039216%,97.254902%,96.078432%);fill-opacity:1;stroke-width:0.24;stroke-linecap:round;stroke-linejoin:round;stroke:rgb(0%,0%,0%);stroke-opacity:1;stroke-miterlimit:4;" d="M 246.023662 929.350901 C 242.113965 930.764195 236.508315 929.858686 232.93881 931.104386 C 229.369304 932.345083 222.405392 933.928473 219.741395 935.116641 C 217.0799 936.304808 209.375571 937.548007 207.737151 938.113324 C 206.091226 938.678642 192.666183 941.502728 190.915199 941.957984 C 189.156711 942.410739 189.494401 943.256214 189.494401 943.256214 C 189.494401 943.256214 191.763176 946.538058 195.385211 948.5717 C 199.009747 950.607844 207.619584 955.810767 212.264694 956.826338 C 216.909804 957.84441 227.898478 959.540363 230.730069 961.576507 C 233.56166 963.610149 235.147551 963.722713 238.204268 964.515658 C 241.263487 965.306102 243.757388 965.646293 245.796034 964.628221 C 247.83718 963.610149 253.15767 961.238817 255.083752 959.200172 C 257.009834 957.166529 257.690216 957.731847 259.501234 953.772122 C 261.314753 949.8174 262.673016 949.137018 262.220262 944.842105 C 261.767507 940.54469 261.654944 937.262846 261.20219 935.794521 C 260.749435 934.326196 257.80278 930.5941 256.894769 930.368973 C 255.991762 930.141345 248.457529 930.253908 248.457529 930.253908 C 246.476416 930.5941 246.646512 930.028782 246.023662 929.350901 Z M 246.023662 929.350901 " transform="matrix(-1.561622,0,0,1.561622,520.98896,-1291.189454)"/>
<path style="fill-rule:nonzero;fill:rgb(98.039216%,97.254902%,96.078432%);fill-opacity:1;stroke-width:0.24;stroke-linecap:round;stroke-linejoin:round;stroke:rgb(0%,0%,0%);stroke-opacity:1;stroke-miterlimit:4;" d="M 175.208875 873.081787 C 174.360898 873.084288 173.492911 873.166834 172.617419 873.349437 C 168.627677 874.199915 156.560897 878.777487 153.589228 880.896177 C 150.615057 883.01987 147.555838 887.174705 146.282623 889.293395 C 145.006906 891.412085 141.014663 895.909612 139.228659 897.943255 C 137.445157 899.979399 133.367867 904.897162 132.179699 906.425521 C 130.98903 907.951378 131.074078 910.157617 131.074078 911.173188 C 131.074078 912.19126 130.98903 913.121783 132.007102 915.923357 C 133.030177 918.72243 133.793105 921.433953 135.066321 921.604049 C 136.342038 921.771643 138.635826 921.94424 142.032735 921.604049 C 145.432145 921.266359 153.756822 920.415881 155.71042 920.163239 C 157.666519 919.905594 159.960307 920.415881 161.746311 919.227713 C 163.529813 918.042047 167.604602 915.923357 170.070988 913.461974 C 172.532371 911.003092 177.800331 906.425521 179.076047 904.051687 C 180.349263 901.675352 184.088864 894.806492 184.599151 892.347611 C 185.106936 889.888729 186.042461 884.035441 186.042461 883.187464 C 186.042461 882.341989 184.766745 875.555677 182.643052 874.7077 C 180.987121 874.044828 178.235575 873.071781 175.208875 873.081787 Z M 175.208875 873.081787 " transform="matrix(-1.561622,0,0,1.561622,520.98896,-1291.189454)"/>
<path style="fill-rule:nonzero;fill:rgb(20%,20%,29.803923%);fill-opacity:1;stroke-width:0.24;stroke-linecap:round;stroke-linejoin:round;stroke:rgb(0%,0%,0%);stroke-opacity:1;stroke-miterlimit:4;" d="M 332.527263 872.734091 C 331.886903 872.734091 330.68873 872.944209 328.204835 873.549549 C 323.789854 874.622652 316.423215 877.394209 312.405958 879.03263 C 308.383698 880.671051 305.206913 881.463996 301.30222 883.102417 C 298.017874 884.178021 294.163209 885.871472 290.653737 886.947077 C 288.104805 888.307841 278.136704 891.359556 281.250954 890.734204 C 284.367705 890.113856 284.535299 891.529651 284.87549 892.657785 C 285.218183 893.78842 286.576446 896.387381 286.178722 898.028303 C 285.7835 899.669225 285.273214 901.647836 285.158149 903.058629 C 285.045586 904.474424 284.422736 905.209838 284.592831 907.075886 C 284.765428 908.941934 285.838531 913.124284 284.988054 914.425015 C 284.140077 915.725746 283.064473 917.704358 282.271527 918.324706 C 281.478582 918.947556 278.589458 920.756072 277.513854 921.151294 C 276.435748 921.546516 275.8154 922.111834 275.247581 922.111834 C 274.682263 922.111834 281.816271 923.525128 283.177036 924.147978 C 284.535299 924.773329 294.050645 928.785583 296.714642 929.518495 C 299.376137 930.253908 311.610511 934.718917 312.913743 934.833982 C 314.214474 934.946545 325.373244 938.225887 326.336285 938.168355 C 327.299326 938.113324 330.526139 938.113324 330.526139 938.113324 L 330.413576 927.429822 C 330.413576 927.429822 328.827685 919.11515 327.919674 917.419197 C 327.016667 915.725746 325.088083 910.015037 324.410203 909.447218 C 323.72982 908.884402 322.939376 906.963323 322.939376 906.963323 C 322.939376 906.963323 323.449663 905.775155 324.127544 904.757083 C 325.485807 903.003598 326.223722 899.724255 326.959135 897.860708 C 328.715121 894.581366 330.245981 889.718634 330.638702 887.910118 C 330.638702 887.910118 333.190136 878.524845 333.190136 878.469814 C 333.190136 878.40978 333.755453 873.434485 333.35773 873.041764 C 333.185133 872.866666 333.022541 872.739094 332.527263 872.734091 Z M 332.527263 872.734091 " transform="matrix(-1.561622,0,0,1.561622,520.98896,-1291.189454)"/>
<path style=" stroke:none;fill-rule:nonzero;fill:rgb(52.941179%,52.941179%,60.000002%);fill-opacity:1;" d="M 247.378906 72.234375 C 248.703125 72.238281 250.058594 72.367188 251.425781 72.652344 C 257.65625 73.980469 276.5 81.128906 281.140625 84.4375 C 285.785156 87.753906 290.5625 94.242188 292.550781 97.550781 C 294.542969 100.859375 300.777344 107.882812 303.566406 111.058594 C 306.351562 114.238281 312.71875 121.917969 314.574219 124.304688 C 316.433594 126.6875 316.300781 130.132812 316.300781 131.71875 C 316.300781 133.308594 316.433594 134.761719 314.84375 139.136719 C 313.246094 143.507812 312.054688 147.742188 310.066406 148.007812 C 308.171875 148.261719 309.070312 142.957031 308.773438 136.9375 C 308.472656 130.925781 307.894531 129.316406 304.15625 121.753906 C 302.554688 118.515625 293.867188 103.519531 286.523438 95.007812 C 276.695312 83.625 266.03125 78.0625 246.804688 72.242188 C 246.996094 72.238281 247.183594 72.234375 247.378906 72.234375 Z M 247.378906 72.234375 "/>
<path style="fill:none;stroke-width:0.24;stroke-linecap:round;stroke-linejoin:round;stroke:rgb(0%,0%,0%);stroke-opacity:1;stroke-miterlimit:4;" d="M 175.208875 873.081787 C 174.360898 873.084288 173.492911 873.166834 172.617419 873.349437 C 168.627677 874.199915 156.560897 878.777487 153.589228 880.896177 C 150.615057 883.01987 147.555838 887.174705 146.282623 889.293395 C 145.006906 891.412085 141.014663 895.909612 139.228659 897.943255 C 137.445157 899.979399 133.367867 904.897162 132.179699 906.425521 C 130.98903 907.951378 131.074078 910.157617 131.074078 911.173188 C 131.074078 912.19126 130.98903 913.121783 132.007102 915.923357 C 133.030177 918.72243 133.793105 921.433953 135.066321 921.604049 C 136.342038 921.771643 138.635826 921.94424 142.032735 921.604049 C 145.432145 921.266359 153.756822 920.415881 155.71042 920.163239 C 157.666519 919.905594 159.960307 920.415881 161.746311 919.227713 C 163.529813 918.042047 167.604602 915.923357 170.070988 913.461974 C 172.532371 911.003092 177.800331 906.425521 179.076047 904.051687 C 180.349263 901.675352 184.088864 894.806492 184.599151 892.347611 C 185.106936 889.888729 186.042461 884.035441 186.042461 883.187464 C 186.042461 882.341989 184.766745 875.555677 182.643052 874.7077 C 180.987121 874.044828 178.235575 873.071781 175.208875 873.081787 Z M 175.208875 873.081787 " transform="matrix(-1.561622,0,0,1.561622,520.98896,-1291.189454)"/>
</g>
</svg>
