<?xml version="1.0" encoding="UTF-8"?>
<!-- Created by grConvert v0.1-0 -->
<svg xmlns="http://www.w3.org/2000/svg" xmlns:xlink="http://www.w3.org/1999/xlink" width="357pt" height="199pt" viewBox="0 0 357 199" version="1.1">
<g id="surface121">
<path style="fill-rule:nonzero;fill:rgb(96.862745%,92.156863%,89.019608%);fill-opacity:1;stroke-width:1.413747;stroke-linecap:butt;stroke-linejoin:miter;stroke:rgb(0%,0%,0%);stroke-opacity:1;stroke-miterlimit:4;" d="M 480.006112 361.994345 C 480.006112 361.994345 491.500782 363.505185 497.992972 365.495071 C 504.503553 367.503382 519.492603 376.494721 527.492894 386.996899 C 535.493184 397.499077 550.500625 405.992943 558.004346 409.493669 C 565.508067 412.994395 565.508067 426.997299 564.993106 435.491166 C 564.496536 444.003458 553.995005 467.992643 549.507486 473.999152 C 545.001575 480.005661 526.499754 530.508239 516.494793 543.995246 C 506.508224 557.500679 470.001151 626.004359 461.007721 637.998951 C 451.9959 649.993544 426.00875 645.995347 408.996638 664.991391 C 392.002917 684.005861 370.999856 674.001154 344.994314 678.496824 C 324.395865 682.071249 303.503153 675.991041 303.503153 675.991041 M 67.393431 518.200423 C 59.448315 508.527365 58.823005 496.366948 79.99159 478.67907 C 111.330659 449.678319 172.666219 396.006662 197.991276 375.333954 C 223.334725 354.661246 291.327998 307.327745 318.676117 292.661546 C 347.992124 269.998951 352.001465 263.992443 382.678441 246.322989 C 418.670552 220.675565 483.666015 190.661446 497.661926 188.321487 C 511.676227 185.999953 537.001285 180.675164 565.67359 186.663248 C 594.327504 192.669757 647.00068 193.333052 657.667734 193.6647 C 668.334788 193.996348 724.336821 214.669056 762.002557 219.330549 C 799.668292 223.992042 883.662146 262.665852 930.008656 265.337458 C 976.336775 268.009065 1045.323187 315.32414 1073.664446 324.665551 C 1102.005705 334.006962 1175.663551 389.336858 1191.333086 397.996548 C 1207.00262 406.674664 1260.33789 427.67902 1280.678858 430.995497 C 1301.001435 434.330399 1320.992965 437.996949 1335.007267 437.996949 C 1349.003178 437.996949 1360.994418 440.668555 1384.995289 432.322088 C 1408.99616 423.994045 1403.00054 426.665651 1421.336838 422.999102 C 1439.673136 419.332552 1440.666275 427.67902 1442.670946 434.330399 C 1444.675616 441.000203 1452.675907 456.329698 1450.321798 466.002757 C 1448.004473 475.675815 1445.006663 487.33876 1444.326178 495.666803 C 1443.664085 503.994846 1440.004182 508.324691 1440.997322 519.324341 C 1442.008853 530.32399 1448.335519 554.994896 1443.333039 562.678068 C 1438.330558 570.324391 1432.003892 582.005761 1427.332458 585.672311 C 1422.661024 589.33886 1405.667304 600.006862 1399.322246 602.328396 C 1392.995579 604.668355 1389.335676 608.003257 1386.00682 608.003257 C 1382.677963 608.003257 1368.332615 606.326594 1356.672422 607.008314 C 1344.993837 607.67161 1309.332772 612.996398 1293.332191 619.334555 C 1277.33161 625.672711 1269.000273 629.007613 1253.330739 634.000754 C 1237.661204 638.993895 1236.999111 642.328797 1213.99138 650.675265 C 1191.002039 659.003307 1158.007738 653.678519 1137.004677 660.993194 C 1116.001615 668.326293 1075.007023 677.667704 1059.337489 684.669156 C 1043.667955 691.670608 998.332976 699.003708 988.677453 702.33861 C 979.003538 705.673512 899.993773 722.329598 889.676157 725.001205 C 879.321758 727.672811 883.662146 725.996148 851.660984 727.672811 C 819.678214 729.33105 813.664202 728.004459 802.335055 730.676066 C 791.005908 733.329247 770.995987 731.007713 761.322072 730.676066 C 751.666549 730.325993 665.999071 726.991091 641.005061 721.666302 C 615.992658 716.323089 615.330565 714.66485 587.669791 715.328146 C 560.009017 715.991441 480.337159 717.004809 468.327527 715.328146 C 456.336287 713.669907 392.996057 706.668455 362.668519 699.667003 C 332.32259 692.665551 340.32288 690.675665 336.994024 689.330649 C 333.665167 688.004058 318.676117 679.325943 300.670866 674.996098 C 282.665615 670.666252 237.330635 659.334955 197.991276 635.327345 C 158.670308 611.338159 132.33372 598.661846 115.671046 588.325492 C 99.008372 578.007563 44.992618 538.007163 48.00882 529.67912 C 51.00663 521.332652 58.583916 511.917542 63.25535 512.249189 M 144.32496 446.324992 C 140.996104 448.664951 139.671918 451.668205 139.671918 451.668205 M 121.997713 463.33115 C 124.33343 467.992643 125.326569 470.332602 125.326569 470.000954 " transform="matrix(0.212395,0,0,0.21201,-10.017128,-9.9494)"/>
<path style="fill-rule:nonzero;fill:rgb(91.372549%,86.27451%,83.137255%);fill-opacity:1;stroke-width:1.413747;stroke-linecap:butt;stroke-linejoin:miter;stroke:rgb(0%,0%,0%);stroke-opacity:1;stroke-miterlimit:4;" d="M 86.502171 533.493069 C 81.003121 530.379265 67.614129 521.111553 63.25535 512.249189 C 58.583916 511.917542 51.00663 521.332652 48.00882 529.67912 C 44.992618 538.007163 99.008372 578.007563 115.671046 588.325492 C 132.33372 598.661846 158.670308 611.338159 197.991276 635.327345 C 209.338815 640.670558 215.334434 626.004359 221.330054 617.326243 C 227.325674 608.666553 239.335306 582.669056 227.325674 575.335956 C 215.334434 568.002857 190.67147 558.661446 177.999746 555.326544 C 165.328021 551.991642 142.669728 543.995246 124.002383 529.329047 C 106.677616 511.991241 78.005311 482.677267 68.460137 490.305165 C 59.521881 501.96811 61.324246 510.812049 67.393431 518.200423 C 73.223528 525.275575 82.971008 531.024135 91.008082 536.662147 C 94.502462 539.997049 96.746221 541.24994 100.663605 544.676967 C 101.564787 545.63506 124.388604 562.788618 135.993623 575.335956 C 176.381296 616.110202 163.323351 610.674864 199.995947 626.004359 " transform="matrix(0.212395,0,0,0.21201,-10.017128,-9.9494)"/>
<path style="fill-rule:nonzero;fill:rgb(64.313725%,32.156863%,10.980392%);fill-opacity:1;stroke-width:1.413747;stroke-linecap:butt;stroke-linejoin:miter;stroke:rgb(0%,0%,0%);stroke-opacity:1;stroke-miterlimit:4;" d="M 181.494125 462.004559 C 187.508137 475.491566 197.991276 498.006762 215.996528 502.502431 C 234.001779 506.9981 235.491488 514.497024 262.508561 505.505686 C 289.507242 496.495922 287.999141 496.495922 300.008773 477.002406 C 312.000013 457.50889 310.491912 447.006712 309.002203 432.008865 C 307.494102 416.992593 289.507242 394.495822 274.499801 390.000153 C 259.492359 385.504484 236.999589 383.993644 215.996528 388.507738 C 194.993466 393.003407 191.995656 406.50884 187.508137 414.007763 C 183.002226 421.506687 175.498506 448.499127 181.494125 462.004559 Z M 181.494125 462.004559 " transform="matrix(0.212395,0,0,0.21201,-10.017128,-9.9494)"/>
<path style="fill-rule:nonzero;fill:rgb(20.392157%,10.196078%,3.137255%);fill-opacity:1;stroke-width:1.413747;stroke-linecap:butt;stroke-linejoin:miter;stroke:rgb(0%,0%,0%);stroke-opacity:1;stroke-miterlimit:4;" d="M 239.997399 408.001255 C 223.500248 409.493669 215.996528 408.001255 208.492807 418.503432 C 201.007478 429.00561 196.66709 467.329347 206.506528 480.503132 C 213.495287 484.998801 220.005868 488.996999 229.495868 488.996999 C 239.004259 488.996999 253.496739 488.002056 260.007321 484.998801 C 266.49951 481.995547 275.49294 483.008915 280.991991 475.491566 C 286.491041 467.992643 288.992281 463.994445 288.495711 452.497324 C 287.999141 441.000203 287.999141 433.003808 282.996661 426.002356 C 277.994181 419.000904 274.499801 409.493669 264.99141 407.006311 C 255.50141 404.500529 256.494549 406.50884 239.997399 408.001255 Z M 239.997399 408.001255 " transform="matrix(0.212395,0,0,0.21201,-10.017128,-9.9494)"/>
<path style="fill-rule:nonzero;fill:rgb(99.607843%,98.431373%,98.039216%);fill-opacity:1;stroke-width:1.767181;stroke-linecap:round;stroke-linejoin:round;stroke:rgb(0%,0%,0%);stroke-opacity:1;stroke-miterlimit:4;" d="M 996.549985 398.645631 C 990.319883 398.668662 983.928856 399.267469 977.491851 400.626301 C 948.134508 406.867718 859.3728 440.631247 837.509971 456.246304 C 815.624152 471.884391 793.117622 502.492666 783.760975 518.130754 C 774.381338 533.74581 745.001006 566.86447 731.874113 581.880719 C 718.747219 596.873937 688.746176 633.12482 680.01024 644.363976 C 671.251315 655.626163 671.872026 671.863058 671.872026 679.371183 C 671.872026 686.879307 671.251315 693.742562 678.745828 714.378389 C 686.240342 734.991185 691.872722 755.005173 701.252358 756.24885 C 710.631995 757.492527 727.506145 758.759236 752.49552 756.24885 C 777.507884 753.738465 838.751393 747.497049 853.119709 745.631533 C 867.511014 743.742986 884.385164 747.497049 897.489068 738.745247 C 910.615961 729.993446 940.617005 714.378389 958.755567 696.252947 C 976.871139 678.127505 1015.631108 644.363976 1025.010745 626.883404 C 1034.367392 609.379801 1061.88559 558.757538 1065.632847 540.632096 C 1069.380104 522.506654 1076.253906 479.369485 1076.253906 473.128068 C 1076.253906 466.863621 1066.87427 416.886228 1051.241542 410.62178 C 1039.034221 405.739196 1018.826621 398.576537 996.549985 398.645631 Z M 996.549985 398.645631 " transform="matrix(0.169916,0,0,0.169608,-10.017253,-9.9494)"/>
<path style="fill-rule:nonzero;fill:rgb(64.313725%,32.156863%,10.980392%);fill-opacity:1;stroke-width:1.413747;stroke-linecap:butt;stroke-linejoin:miter;stroke:rgb(0%,0%,0%);stroke-opacity:1;stroke-miterlimit:4;" d="M 505.993262 203.006111 C 505.993262 211.997449 483.003922 234.991692 488.999542 272.007263 C 494.995162 309.004409 504.006983 299.994646 518.002894 320.999002 C 531.998804 342.003357 532.991944 370.009165 528.007855 385.007012 C 523.005374 400.004859 508.991072 408.001255 496.006693 408.001255 C 483.003922 408.001255 449.991229 400.004859 437.00685 392.008464 C 424.004079 383.993644 400.996347 338.00516 400.996347 338.00516 C 400.996347 338.00516 352.001465 263.992443 382.678441 246.322989 C 418.670552 220.675565 483.666015 190.661446 497.661926 188.321487 C 511.676227 185.999953 505.993262 193.996348 505.993262 203.006111 Z M 911.506835 316.005861 C 920.500265 331.998651 927.507416 364.9976 941.503326 408.996198 C 955.499237 452.994796 924.491214 510.996298 912.003405 558.495622 C 899.497203 605.994946 909.502164 609.495672 907.994064 629.007613 C 906.504354 648.501129 885.997863 662.504033 867.496042 664.991391 C 848.994221 667.497174 824.00021 615.502181 810.997439 587.993845 C 797.994668 560.503933 743.997305 514.497024 713.504244 491.502782 C 698.09219 479.876686 691.489652 441.258151 667.507172 419.498376 C 644.002871 398.199222 622.999809 416.992593 607.992368 394.993294 C 604.001418 384.491116 605.491128 364.9976 584.506458 334.504434 C 563.503396 303.992843 579.503977 253.50869 579.503977 253.50869 C 579.503977 253.50869 598.759849 191.195767 616.305313 192.172285 C 635.24853 193.222503 652.131901 193.498876 657.667734 193.6647 C 668.334788 193.996348 724.336821 214.669056 762.002557 219.330549 C 792.753098 223.144498 854.401313 249.621041 901.226002 260.675965 C 911.745924 263.144898 902.495013 299.994646 911.506835 316.005861 Z M 1228.998821 430.995497 C 1228.998821 436.007062 1234.994441 455.99805 1231.996631 466.9977 C 1228.998821 477.997349 1239.003782 510.996298 1242.994731 532.000654 C 1247.004072 553.00501 1247.004072 575.999252 1242.001592 590.002156 C 1236.999111 604.00506 1229.99196 607.008314 1213.99138 612.001455 C 1198.00919 616.994596 1186.992698 634.995697 1172.003648 634.995697 C 1156.996207 634.995697 1154.991536 630.002556 1150.007447 608.003257 C 1145.004967 586.003958 1153.005257 543.000303 1156.996207 524.999202 C 1161.005548 506.9981 1151.000587 466.9977 1151.000587 466.9977 C 1151.000587 466.9977 1137.078242 361.33105 1165.916071 381.174639 C 1177.557873 389.171034 1186.827175 395.50919 1191.333086 397.996548 C 1195.894171 400.539181 1203.673764 404.095181 1212.887891 407.98283 C 1235.288704 417.416365 1228.998821 426.002356 1228.998821 430.995497 Z M 1365.996898 473.004209 C 1365.996898 488.996999 1379.992808 499.001705 1379.992808 517.99775 C 1379.992808 536.993795 1373.997188 545.008615 1360.994418 564.999602 C 1347.991647 585.009015 1354.005658 572.995997 1330.997926 579.997449 C 1308.008586 586.998901 1301.001435 573.990941 1303.999245 564.999602 C 1306.997055 556.008264 1327.006977 550.996698 1328.993256 539.002106 C 1330.997926 527.007513 1314.004206 511.991241 1319.999826 492.995196 C 1325.995446 473.999152 1304.93721 435.122668 1315.659438 436.486109 C 1322.832113 437.407353 1329.397868 437.996949 1335.007267 437.996949 C 1345.104185 437.996949 1354.15279 439.397239 1367.431433 437.038855 C 1372.562654 436.117612 1365.996898 456.992993 1365.996898 473.004209 Z M 1061.507683 346.499027 C 1058.491481 357.498676 1058.491481 365.992543 1065.002063 383.993644 C 1071.494252 401.994746 1081.499213 456.495522 1082.492353 477.997349 C 1083.503884 499.499177 1089.002934 547.495972 1083.007314 575.004309 C 1076.993302 602.49422 1070.997683 623.996048 1064.505493 637.004008 C 1057.994912 649.993544 1052.992431 655.00511 1041.994331 647.008715 C 1030.99623 638.993895 1040.504621 607.008314 1041.497761 588.491316 C 1042.4909 569.992743 1028.49499 549.504284 1027.005281 521.498476 C 1025.49718 484.50133 1022.0028 452.497324 1021.506231 433.50128 C 1026.508711 367.005911 994.507549 312.007663 995.408731 286.065441 C 1026.931715 300.952739 1057.185687 319.248639 1073.664446 324.665551 C 1064.008923 331.501179 1062.997392 335.996849 1061.507683 346.499027 Z M 1061.507683 346.499027 " transform="matrix(0.212395,0,0,0.21201,-10.017128,-9.9494)"/>
<path style="fill-rule:nonzero;fill:rgb(91.372549%,86.27451%,83.137255%);fill-opacity:1;stroke-width:1.767181;stroke-linecap:butt;stroke-linejoin:miter;stroke:rgb(0%,0%,0%);stroke-opacity:1;stroke-miterlimit:4;" d="M 985.193268 59.536349 C 979.767792 59.513318 970.985877 64.188623 967.491503 65.846859 C 959.583182 69.57789 947.904615 75.404748 939.582486 79.5964 C 931.237368 83.74199 924.593459 86.252375 912.087277 95.004177 C 899.581095 103.755979 879.580399 121.674141 870.844463 124.599085 C 862.085538 127.500998 865.00518 127.500998 862.913153 122.503259 C 860.844115 117.50552 860.844115 114.166016 862.913153 96.247854 C 865.00518 78.329692 857.096859 91.250115 843.740072 98.758239 C 830.406275 106.243333 829.164853 110.411954 816.658671 122.0887 C 804.152489 133.742415 797.508579 135.400651 788.749654 137.911036 C 779.990729 140.421421 776.657279 135.423682 774.151445 123.746936 C 773.484755 120.545619 777.944681 107.740351 773.34682 109.582836 C 761.185477 114.419358 732.012049 145.234912 724.172695 154.585521 C 713.344733 167.505944 698.746524 171.260006 697.918909 169.16418 C 697.091294 167.091385 694.58546 165.847708 692.90724 165.847708 C 691.25201 165.847708 675.412379 179.159659 669.596085 183.742839 C 663.756801 188.326019 604.582329 238.326444 622.077191 235.4015 C 639.595041 232.499586 671.251315 225.843611 707.091642 233.328704 C 742.908979 240.836829 808.75035 241.665947 822.084147 242.080506 C 835.417944 242.495065 905.420378 268.335911 952.502476 274.162768 C 999.584573 279.989626 1104.57673 328.331814 1162.48679 331.671317 C 1220.41984 335.01082 1306.652724 394.154574 1342.079243 405.83132 C 1377.505763 417.508066 1469.57793 486.67033 1489.164819 497.494927 C 1502.774487 505.026082 1539.189547 520.0193 1568.638847 529.853561 C 1581.535847 534.160369 1569.581408 522.921213 1575.420692 519.996269 C 1581.236986 517.094356 1604.59412 519.996269 1615.835891 520.410828 C 1627.077661 520.848418 1659.170731 516.242207 1670.826309 511.244468 C 1682.504876 506.246728 1677.493208 473.749907 1677.907015 464.168987 C 1678.136908 459.21731 1683.171566 439.065135 1680.412849 419.580861 C 1677.838047 401.386326 1667.46987 383.790599 1666.665245 379.161356 C 1665.83763 374.43999 1657.193651 355.508461 1645.836934 337.912734 C 1634.204346 319.879416 1619.813041 303.1819 1617.491121 298.759937 C 1612.916249 290.008135 1572.087243 252.905103 1564.592729 247.907363 C 1557.075226 242.909624 1508.337899 209.583685 1500.406589 205.829623 C 1492.498268 202.098591 1479.992086 191.250964 1452.910684 184.594988 C 1441.530978 181.785199 1430.404154 176.073497 1418.334769 173.332801 C 1401.713501 169.578739 1384.908319 169.279335 1377.91957 169.993298 C 1365.827196 171.260006 1362.907554 169.993298 1355.826848 169.16418 C 1348.746142 168.335062 1350.838169 167.091385 1341.665436 168.749621 C 1332.492703 170.407857 1328.745446 173.332801 1321.250933 176.257746 C 1313.756419 179.159659 1310.399981 177.915982 1302.49166 178.330541 C 1294.583339 178.7451 1293.755724 172.918242 1290.422274 170.845447 C 1287.088825 168.749621 1280.421926 170.407857 1265.846707 170.845447 C 1251.248498 171.260006 1255.846359 169.993298 1252.076113 163.337323 C 1248.328856 156.658316 1247.501241 150.831459 1247.501241 150.831459 C 1247.501241 150.831459 1241.24815 149.587782 1232.903032 150.002341 C 1224.580904 150.4169 1222.07507 147.491956 1217.08639 143.346365 C 1212.074722 139.154713 1213.339134 138.740154 1207.913658 128.330116 C 1202.488182 117.920079 1206.258428 122.917818 1199.154732 122.0887 C 1192.097016 121.259582 1189.591181 122.503259 1173.75155 122.503259 C 1157.911919 122.503259 1166.670844 119.578315 1161.659175 113.751457 C 1156.670496 107.901569 1157.498111 105.828774 1157.498111 105.828774 C 1157.498111 105.828774 1149.58979 108.339159 1143.336699 109.582836 C 1137.083608 110.826513 1132.094929 114.580575 1121.243977 112.922339 C 1110.416014 111.241072 1114.990886 105.414215 1114.990886 105.414215 L 1111.657436 95.004177 C 1111.657436 95.004177 1098.346629 100.001916 1091.242933 102.48927 C 1084.162227 104.999656 1077.081521 106.243333 1072.920457 104.999656 C 1068.759393 103.755979 1067.494981 97.076972 1062.920109 82.498313 C 1058.345237 67.919654 1053.333569 71.673716 1046.252863 73.331952 C 1039.172157 74.990189 1036.666322 76.671456 1029.999424 80.010959 C 1023.332525 83.327431 999.99838 91.664674 996.251124 91.250115 C 992.503867 90.835556 986.664583 90.835556 987.492198 80.010959 C 987.883017 75.036251 991.906145 63.129194 988.342803 60.41153 C 987.538177 59.812722 986.45768 59.55938 985.193268 59.536349 Z M 985.193268 59.536349 " transform="matrix(0.169916,0,0,0.169608,-10.017253,-9.9494)"/>
<path style="fill-rule:nonzero;fill:rgb(84.705882%,75.686275%,69.803922%);fill-opacity:1;stroke-width:1.413747;stroke-linecap:butt;stroke-linejoin:miter;stroke:rgb(0%,0%,0%);stroke-opacity:1;stroke-miterlimit:4;" d="M 921.493404 244.001455 C 922.504935 236.00506 930.008656 225.502882 935.507706 217.506487 C 941.006756 209.491667 959.508578 196.502131 971.499817 187.492368 C 983.491057 178.501029 985.495728 175.000303 998.995069 161.494871 C 1012.494409 148.007863 1014.351948 154.235471 1017.644021 145.999552 C 1011.13344 149.002807 998.001929 158.491617 990.994778 163.005711 C 984.006019 167.50138 979.500108 170.504634 970.506678 177.506086 C 961.494857 184.507538 952.004857 188.505736 944.501136 196.502131 C 936.997415 204.498526 931.498365 205.990941 926.992455 208.994195 C 922.504935 211.997449 904.996254 227.492768 897.492533 233.499277 C 890.007204 239.505786 886.991002 240.003257 883.000053 234.991692 C 879.009103 229.998551 886.494433 224.507939 891.993483 216.493119 C 897.492533 208.496723 904.996254 201.992743 914.504645 192.006462 C 923.994645 182.001755 923.498075 183.49417 935.507706 171.997049 C 947.498946 160.499928 948.492086 163.503182 964.492667 148.505335 C 969.090535 143.272671 978.543751 136.363343 977.826484 134.355032 C 971.223945 137.505686 963.996097 142.996298 949.503617 151.508589 C 934.992745 160.002456 926.992455 166.008965 921.493404 168.496323 C 915.994354 171.002106 883.000053 192.503933 864.498232 212.494921 C 845.996411 232.504334 844.506701 215.995647 849.509182 204.498526 C 854.493271 193.001405 859.495751 193.498876 866.006332 183.991642 C 872.498522 174.502832 894.991293 156.004259 916.490924 138.003157 C 938.008946 120.002056 938.008946 119.504584 926.992455 124.995196 C 915.994354 130.504234 911.506835 132.991591 902.495013 138.9981 C 893.501584 145.004609 882.006913 150.992693 870.493852 161.992342 C 858.999182 172.991992 883.000053 151.508589 833.508601 192.503933 C 783.998758 233.499277 821.995539 195.507188 823.50364 186.994896 C 824.993349 178.501029 829.49926 170.504634 837.002981 160.499928 C 844.506701 150.495221 858.006042 143.991241 889.492243 118.491216 C 920.996835 92.991191 901.005304 104.506737 891.993483 108.007463 C 883.000053 111.508189 879.009103 116.998801 868.507573 123.00531 C 858.006042 128.993394 847.007942 138.9981 837.99612 145.502081 C 829.00269 152.006061 825.50831 159.504985 796.008389 178.998501 C 766.508467 198.492017 767.501607 189.003207 771.492556 179.495972 C 775.501897 170.007163 781.994087 166.008965 793.507149 151.508589 C 805.001819 137.008214 817.50802 129.490865 839.504221 112.503132 C 861.500422 95.496974 858.999182 88.495522 842.502031 103.493369 C 826.00488 118.491216 830.492399 110.992292 819.990869 118.491216 C 809.50773 126.008564 808.992768 128.495922 759.997886 160.997399 C 711.003004 193.498876 730.497965 168.496323 732.502635 154.990891 C 733.587732 147.694641 745.119185 135.092027 759.997886 122.913186 C 771.621297 113.387526 785.52525 100.084767 797.994668 92.733243 C 799.098156 92.088372 805.829435 88.808745 806.914532 88.182299 C 813.645811 82.912785 819.328776 80.149054 821.646101 73.276576 C 807.13523 83.262858 799.006199 86.505635 789.497808 93.507087 C 780.007808 100.508539 770.995987 105.50168 765.993506 106.994095 C 760.991026 108.504934 754.498836 115.506386 709.991473 152.006061 C 665.502502 188.505736 691.508043 152.503533 693.494322 140.50894 C 695.498993 128.495922 729.504825 101.006011 752.494166 77.495872 C 775.501897 54.004158 749.992925 73.000203 739.491395 80.499127 C 729.008255 87.99805 724.998914 88.992993 712.492713 99.495171 C 700.004904 109.997349 678.008703 127.998451 670.504982 132.991591 C 663.001261 138.003157 646.007541 154.493419 634.991049 169.491266 C 623.992949 184.507538 619.505429 177.506086 619.00886 177.506086 C 618.493898 177.506086 619.505429 167.003908 620.995139 161.494871 C 622.503239 156.004259 639.00039 131.001705 647.00068 123.00531 C 655.000971 115.008915 670.008412 91.001305 667.507172 94.502031 C 665.005932 98.002757 655.497541 105.999152 649.005351 113.000604 C 642.49477 120.002056 606.502659 152.503533 600.507039 158.491617 C 594.493027 164.498125 588.497407 175.995246 580.993686 179.495972 C 573.508357 182.996698 574.501497 176.492718 572.993396 172.991992 C 571.503687 169.491266 585.003027 137.505686 589.508938 129.490865 C 593.996457 121.49447 606.502659 102.995897 601.996748 107.491566 C 597.490837 112.00566 593.003318 118.491216 588.497407 122.507838 C 583.991496 126.506036 582.501787 126.008564 572.000257 145.502081 C 561.498726 164.995597 550.500625 177.008614 545.001575 177.506086 C 539.502525 178.003558 535.493184 175.497775 536.008145 173.507888 C 536.504715 171.499577 539.999095 162.508239 542.500335 157.496673 C 545.001575 152.503533 555.503106 137.505686 554.491575 135.497374 C 553.498435 133.507488 539.502525 151.508589 532.495374 161.992342 C 525.506615 172.49452 483.666015 190.661446 497.661926 188.321487 C 511.676227 185.999953 537.001285 180.675164 565.67359 186.663248 C 594.327504 192.669757 647.00068 193.333052 657.667734 193.6647 C 668.334788 193.996348 724.336821 214.669056 762.002557 219.330549 C 799.668292 223.992042 883.662146 262.665852 930.008656 265.337458 C 932.344373 265.466433 920.500265 251.99785 921.493404 244.001455 Z M 921.493404 244.001455 " transform="matrix(0.212395,0,0,0.21201,-10.017128,-9.9494)"/>
<path style="fill-rule:nonzero;fill:rgb(64.313725%,32.156863%,10.980392%);fill-opacity:1;stroke-width:1.413747;stroke-linecap:butt;stroke-linejoin:miter;stroke:rgb(0%,0%,0%);stroke-opacity:1;stroke-miterlimit:4;" d="M 263.99827 575.335956 C 257.322166 567.321136 233.321294 538.007163 232.677593 533.327245 C 231.997108 528.665752 229.992438 524.004259 235.325965 523.322538 C 240.677883 522.677668 256.678464 521.332652 266.665034 518.661045 C 276.669995 516.007863 284.008192 513.999552 290.003812 510.66465 C 295.999432 507.329748 303.337629 498.006762 306.004393 500.678369 C 308.671156 503.33155 300.008773 514.662848 300.670866 517.99775 C 301.332959 521.332652 302.675536 529.329047 310.675827 543.331951 C 318.676117 557.334855 325.33383 568.002857 325.995923 582.005761 C 326.676408 596.008665 328.000594 604.00506 322.667067 609.329848 C 317.33354 614.673062 314.004683 623.996048 303.999722 616.662948 C 293.994761 609.329848 270.674375 583.332352 263.99827 575.335956 Z M 263.99827 575.335956 " transform="matrix(0.212395,0,0,0.21201,-10.017128,-9.9494)"/>
<path style="fill-rule:nonzero;fill:rgb(91.372549%,86.27451%,83.137255%);fill-opacity:1;stroke-width:1.767181;stroke-linecap:round;stroke-linejoin:round;stroke:rgb(0%,0%,0%);stroke-opacity:1;stroke-miterlimit:4;" d="M 749.575878 893.767291 C 747.667766 893.790322 743.23083 893.951539 734.586851 894.158819 C 721.758818 894.481254 700.010936 894.826719 676.929673 895.080061 C 700.010936 925.826522 683.757497 904.591888 695.826882 953.325604 C 695.826882 953.325604 712.080321 1010.005035 715.41377 1024.998253 C 718.747219 1039.991471 744.587199 1098.743697 749.598867 1106.251821 C 754.587546 1113.736915 772.082408 1131.240518 777.094076 1140.844469 C 782.082756 1150.402357 789.991077 1162.493662 798.336194 1175.414085 C 806.658323 1188.334508 806.658323 1194.161365 820.405927 1208.325465 C 834.153532 1222.489565 840.84342 1232.508075 844.590677 1232.508075 C 848.337933 1232.508075 846.245907 1235.409988 852.912805 1224.170832 C 859.579704 1212.908646 867.901832 1193.332247 873.741116 1189.992744 C 879.580399 1186.653241 887.902528 1166.247724 887.902528 1166.247724 L 893.328004 1150.402357 C 893.328004 1150.402357 899.994902 1143.746382 903.328352 1128.338605 C 906.661801 1112.907797 907.903223 1097.50002 912.914892 1088.748218 C 917.903571 1079.996417 923.329047 1055.836838 923.329047 1055.836838 C 923.329047 1055.836838 928.340716 1029.995992 923.742855 1019.585954 C 919.167983 1009.152886 905.420378 987.918251 905.006571 987.918251 C 904.592763 987.918251 890.845159 972.095915 865.418987 959.152461 C 839.992816 946.255069 819.578312 926.65564 809.577965 924.997404 C 799.577617 923.339168 779.990729 914.149776 779.990729 913.758248 C 779.990729 913.343689 767.507536 908.34595 754.587546 907.493801 C 748.748263 907.493801 741.667557 900.400235 741.667557 900.400235 C 737.851332 894.987937 755.231247 893.721229 749.575878 893.767291 Z M 749.575878 893.767291 " transform="matrix(0.169916,0,0,0.169608,-10.017253,-9.9494)"/>
<path style="fill-rule:nonzero;fill:rgb(91.372549%,86.27451%,83.137255%);fill-opacity:1;stroke-width:1.767181;stroke-linecap:round;stroke-linejoin:round;stroke:rgb(0%,0%,0%);stroke-opacity:1;stroke-miterlimit:4;" d="M 1517.487643 813.34284 C 1488.751011 823.752878 1447.508197 817.096903 1421.254411 826.240232 C 1395.000624 835.406593 1343.757463 847.083339 1324.170574 855.83514 C 1304.583686 864.586942 1247.915049 873.753302 1235.845663 877.921924 C 1223.753289 882.090545 1124.991233 902.91062 1112.094233 906.250124 C 1099.151254 909.589627 1101.657088 915.831043 1101.657088 915.831043 C 1101.657088 915.831043 1118.324335 939.990622 1144.991929 955.006871 C 1171.659523 970.000089 1234.995059 1008.346799 1269.157167 1015.831892 C 1303.342264 1023.340017 1384.149672 1035.845881 1405.000972 1050.839099 C 1425.829282 1065.832317 1437.50785 1066.661435 1459.99139 1072.488292 C 1482.49792 1078.33818 1500.843386 1080.825535 1515.832413 1073.340441 C 1530.844429 1065.832317 1569.995216 1048.328713 1584.156628 1033.335495 C 1598.341029 1018.342277 1603.329709 1022.487868 1616.663506 993.33055 C 1629.997303 964.150201 1639.997651 959.152461 1636.664201 927.507789 C 1633.330752 895.840086 1632.503137 871.657476 1629.169688 860.83288 C 1625.836239 850.008283 1604.157324 822.509201 1597.490425 820.827934 C 1590.846516 819.169698 1535.419301 819.998816 1535.419301 819.998816 C 1520.844081 822.509201 1522.085504 818.34058 1517.487643 813.34284 Z M 1517.487643 813.34284 " transform="matrix(0.169916,0,0,0.169608,-10.017253,-9.9494)"/>
<path style="fill-rule:nonzero;fill:rgb(91.372549%,86.27451%,83.137255%);fill-opacity:1;stroke-width:1.767181;stroke-linecap:round;stroke-linejoin:round;stroke:rgb(0%,0%,0%);stroke-opacity:1;stroke-miterlimit:4;" d="M 2153.854603 396.089183 C 2149.164784 396.066152 2140.35988 397.632264 2122.083383 402.077258 C 2089.576505 409.999942 2035.413702 430.405458 2005.826466 442.496763 C 1976.23923 454.588068 1952.905085 460.414925 1924.168453 472.50623 C 1900.006694 480.405882 1871.66088 492.911746 1845.84389 500.83443 C 1827.084617 510.829908 1753.748733 533.331251 1776.669071 528.748071 C 1799.589408 524.16489 1800.83083 534.597959 1803.336665 542.912171 C 1805.842499 551.249413 1815.842847 570.411253 1812.900216 582.502557 C 1810.003563 594.593862 1806.256307 609.14949 1805.405702 619.582559 C 1804.578087 629.992597 1800.003215 635.404895 1801.244638 649.154436 C 1802.50905 662.903977 1810.417371 693.742562 1804.16428 703.346513 C 1797.911189 712.904401 1790.002868 727.506091 1784.163584 732.089272 C 1778.324301 736.649421 1757.082182 750.007434 1749.150872 752.909347 C 1741.242551 755.834291 1736.667679 760.002913 1732.506615 760.002913 C 1728.345551 760.002913 1780.830135 770.41295 1790.830483 774.996131 C 1800.83083 779.579311 1870.833265 809.151188 1890.420153 814.586517 C 1910.007041 819.998816 1999.987182 852.910196 2009.596712 853.739314 C 2019.160263 854.591463 2101.255072 878.751042 2108.335778 878.336483 C 2115.416484 877.921924 2139.164437 877.921924 2139.164437 877.921924 L 2138.336822 799.155709 C 2138.336822 799.155709 2126.658254 737.916129 2119.991356 725.410265 C 2113.324457 712.904401 2099.163045 670.82666 2094.151377 666.658039 C 2089.162697 662.489418 2083.346403 648.325318 2083.346403 648.325318 C 2083.346403 648.325318 2087.09366 639.596547 2092.082339 632.088423 C 2102.082687 619.168 2107.508163 595.008421 2112.91065 581.25888 C 2125.830639 557.076271 2137.095399 521.239946 2139.992052 507.904964 C 2139.992052 507.904964 2158.751325 438.742701 2158.751325 438.328142 C 2158.751325 437.913582 2162.912389 401.24814 2159.992747 398.346227 C 2158.728335 397.056488 2157.532891 396.089183 2153.854603 396.089183 Z M 2153.854603 396.089183 " transform="matrix(0.169916,0,0,0.169608,-10.017253,-9.9494)"/>
<path style=" stroke:none;fill-rule:nonzero;fill:rgb(100%,100%,100%);fill-opacity:1;" d="M 32.992188 83.757812 C 33.417969 84.289062 33.949219 84.5 35.328125 84.078125 C 36.710938 83.652344 37.132812 82.910156 39.683594 82.804688 C 42.230469 82.699219 43.398438 82.699219 44.566406 82.910156 C 45.738281 83.121094 46.480469 82.378906 46.691406 82.910156 C 46.90625 83.441406 48.605469 83.863281 46.054688 84.394531 C 43.507812 84.925781 43.082031 86.195312 41.171875 86.195312 C 39.257812 86.195312 39.152344 87.046875 37.242188 86.832031 C 35.328125 86.621094 33.417969 87.679688 33.3125 88.210938 C 33.207031 88.742188 31.046875 87.855469 31.046875 87.007812 C 31.046875 86.160156 32.566406 83.230469 32.992188 83.757812 Z M 32.992188 83.757812 "/>
<path style="fill-rule:nonzero;fill:rgb(81.960784%,52.156863%,31.764706%);fill-opacity:1;stroke-width:1.767181;stroke-linecap:round;stroke-linejoin:round;stroke:rgb(0%,0%,0%);stroke-opacity:1;stroke-miterlimit:4;" d="M 996.549985 398.645631 C 990.319883 398.668662 983.928856 399.267469 977.491851 400.626301 C 948.134508 406.867718 859.3728 440.631247 837.509971 456.246304 C 819.302441 469.258851 800.681104 492.612343 789.55428 509.102579 C 803.071991 510.231101 818.244933 509.747449 834.383425 524.37217 C 864.361479 551.571848 872.61464 599.844943 891.879678 614.37754 C 913.995389 631.052025 945.996502 657.422585 972.158332 683.332524 C 991.630273 664.884648 1017.53922 640.794162 1025.010745 626.883404 C 1034.367392 609.379801 1061.88559 558.757538 1065.632847 540.632096 C 1069.380104 522.506654 1076.253906 479.369485 1076.253906 473.128068 C 1076.253906 466.863621 1066.87427 416.886228 1051.241542 410.62178 C 1039.034221 405.739196 1018.826621 398.576537 996.549985 398.645631 Z M 996.549985 398.645631 " transform="matrix(0.169916,0,0,0.169608,-10.017253,-9.9494)"/>
</g>
</svg>
