<?xml version="1.0" encoding="UTF-8"?>
<svg xmlns="http://www.w3.org/2000/svg" xmlns:xlink="http://www.w3.org/1999/xlink" width="446pt" height="249pt" viewBox="0 0 446 249" version="1.1">
<g id="surface76">
<path style="fill-rule:nonzero;fill:rgb(96.078432%,92.156863%,89.019608%);fill-opacity:1;stroke-width:1.41375;stroke-linecap:butt;stroke-linejoin:miter;stroke:rgb(0%,0%,0%);stroke-opacity:1;stroke-miterlimit:4;" d="M 480.013316 361.995686 C 480.013316 361.995686 491.496008 363.499996 497.988145 365.490994 C 504.509725 367.49674 519.49611 376.493102 527.48983 386.993772 C 535.498272 397.494443 550.499378 405.989368 558.007292 409.499424 C 565.515206 412.994731 565.515206 426.99071 564.999957 435.485635 C 564.49943 444.010056 553.98835 467.99052 549.513045 473.993011 C 545.008296 480.010249 526.503497 530.507857 516.492945 544.002399 C 506.511836 557.496941 470.002764 626.00202 461.007989 637.992253 C 451.998492 649.997233 426.015221 646.000489 408.997283 664.996085 C 392.008788 684.006429 371.00135 674.007194 344.988637 678.490627 C 324.393398 682.074423 303.503732 675.998192 303.503732 675.998192 M 67.3872 518.193166 C 59.452365 508.533139 58.819345 496.365929 79.988718 478.682917 C 111.330578 449.673339 172.65993 396.004882 197.995459 375.327999 C 223.330988 354.665864 291.329134 307.324356 318.681495 292.664712 C 347.991802 269.996831 351.996023 263.994341 382.67542 246.326077 C 418.669243 220.679073 483.664223 190.666622 497.664274 188.321669 C 511.679047 186.006212 536.999855 180.682136 565.677142 186.669878 C 594.324986 192.672368 646.998154 193.336034 657.671169 193.660493 C 668.329463 193.9997 724.329668 214.661835 762.00173 219.336993 C 799.673792 223.997403 883.659378 262.667009 930.002345 265.336421 C 976.33059 268.005833 1045.329791 315.317845 1073.668486 324.668161 C 1102.007181 334.00373 1175.658344 389.338726 1191.336635 397.99588 C 1207.000204 406.667782 1260.335836 427.683872 1280.68081 431.002202 C 1300.996342 434.33528 1320.988003 437.992817 1335.002776 437.992817 C 1349.002827 437.992817 1361.000768 440.662229 1384.99665 432.314786 C 1408.992531 423.996839 1403.000922 426.666251 1421.343786 422.993966 C 1439.671929 419.336429 1440.672984 427.683872 1442.675094 434.33528 C 1444.677205 441.001437 1452.670925 456.324747 1450.315501 465.999522 C 1448.004241 475.674298 1445.001075 487.340071 1444.323891 495.672767 C 1443.661428 503.990714 1440.010521 508.326665 1440.996855 519.328772 C 1442.012631 530.33088 1448.342833 554.989759 1443.337557 562.673536 C 1438.332281 570.327817 1432.002079 582.008339 1427.335396 585.665876 C 1422.65399 589.338161 1405.665495 600.001061 1399.320572 602.331267 C 1392.99037 604.661472 1389.339463 608.009298 1386.012426 608.009298 C 1382.670668 608.009298 1368.332025 606.328011 1356.672676 607.006425 C 1344.998606 607.670091 1309.328654 612.994167 1293.326493 619.335864 C 1277.324331 625.677562 1269.00674 629.01064 1253.328449 633.995509 C 1237.66488 638.995126 1237.002417 642.328204 1213.992869 650.675647 C 1190.998043 659.008343 1158.007386 653.684267 1136.999948 660.999341 C 1116.007232 668.329163 1075.008133 677.664731 1059.344564 684.670095 C 1043.666273 691.675458 998.339083 699.00528 988.681845 702.338358 C 979.009885 705.671436 900.000132 722.336827 889.680431 725.006239 C 879.316565 727.675651 883.659378 725.994364 851.655055 727.675651 C 819.680174 729.327442 813.659122 728.00011 802.338365 730.669522 C 791.002888 733.324186 770.996505 731.008729 761.324545 730.669522 C 751.667307 730.330315 666.003482 726.997237 641.006545 721.673161 C 615.994886 716.319589 615.332423 714.667798 587.670913 715.331464 C 560.009403 715.99513 480.337187 716.998003 468.324524 715.331464 C 456.341305 713.664925 392.995122 706.67431 362.669038 699.668946 C 332.328233 692.663583 340.321953 690.672585 336.994917 689.330505 C 333.66788 688.003173 318.681495 679.33127 300.677223 674.995319 C 282.672951 670.659368 237.33104 659.332802 197.995459 635.322841 C 158.6746 611.342376 132.338016 598.658981 115.673391 588.32054 C 99.008767 578.011595 44.995951 537.999909 48.013838 529.681962 C 51.002282 521.334519 58.583803 511.910461 63.250487 512.249668 M 144.321235 446.325513 C 140.994199 448.670466 139.669273 451.664337 139.669273 451.664337 M 122.003593 463.33011 C 124.329574 467.99052 125.33063 470.335474 125.33063 469.996267 " transform="matrix(-0.265345,0,0,0.264864,458.923826,-12.235105)"/>
<path style="fill-rule:nonzero;fill:rgb(90.980393%,86.274511%,83.137256%);fill-opacity:1;stroke-width:1.41375;stroke-linecap:butt;stroke-linejoin:miter;stroke:rgb(0%,0%,0%);stroke-opacity:1;stroke-miterlimit:4;" d="M 86.495577 533.48698 C 81.004495 530.375124 67.608021 521.113297 63.250487 512.249668 C 58.583803 511.910461 51.002282 521.334519 48.013838 529.681962 C 44.995951 537.999909 99.008767 578.011595 115.673391 588.32054 C 132.338016 598.658981 158.6746 611.342376 197.995459 635.322841 C 209.345659 640.676413 215.337268 626.00202 221.328878 617.330118 C 227.320488 608.672964 239.33315 582.672005 227.320488 575.342183 C 215.337268 567.997612 190.664202 558.662044 178.003798 555.328966 C 165.328673 551.995888 142.672439 544.002399 124.005704 529.328007 C 106.678616 511.984202 78.001329 482.679661 68.461862 490.304446 C 59.525972 501.97022 61.321983 510.819099 67.3872 518.193166 C 73.216874 525.27227 82.977162 531.024042 91.015047 536.657829 C 94.504018 539.990907 96.741671 541.244498 100.657564 544.680814 C 101.57029 545.639442 124.38846 562.791521 135.988923 575.342183 C 176.384444 616.106023 163.326563 610.67871 199.99757 626.00202 " transform="matrix(-0.265345,0,0,0.264864,458.923826,-12.235105)"/>
<path style="fill-rule:nonzero;fill:rgb(63.921571%,31.764707%,9.803922%);fill-opacity:1;stroke-width:1.41375;stroke-linecap:butt;stroke-linejoin:miter;stroke:rgb(0%,0%,0%);stroke-opacity:1;stroke-miterlimit:4;" d="M 181.49277 462.002778 C 187.513823 475.49732 197.995459 498.002972 215.999731 502.501152 C 234.004003 506.999333 235.490865 514.491385 262.504633 505.509772 C 289.503681 496.498662 288.002098 496.498662 300.01476 477.00163 C 311.99798 457.504598 310.496397 447.003927 309.009535 432.005075 C 307.493231 416.991476 289.503681 394.500572 274.502574 390.002392 C 259.486746 385.504211 236.992447 383.999901 215.999731 388.51283 C 194.992294 392.996263 191.989128 406.505553 187.513823 414.012353 C 183.009074 421.504404 175.50116 448.493488 181.49277 462.002778 Z M 181.49277 462.002778 " transform="matrix(-0.265345,0,0,0.264864,458.923826,-12.235105)"/>
<path style="fill-rule:nonzero;fill:rgb(20%,9.803922%,2.745098%);fill-opacity:1;stroke-width:1.41375;stroke-linecap:butt;stroke-linejoin:miter;stroke:rgb(0%,0%,0%);stroke-opacity:1;stroke-miterlimit:4;" d="M 239.995613 407.995114 C 223.492924 409.499424 215.999731 407.995114 208.491817 418.510533 C 201.013346 429.011204 196.670533 467.326854 206.504428 480.496937 C 213.497093 484.995118 220.003952 488.991862 229.499255 488.991862 C 239.009279 488.991862 253.495137 488.003737 260.001995 484.995118 C 266.494133 482.001247 275.488908 483.00412 280.994712 475.49732 C 286.485794 467.99052 288.988432 463.993776 288.502625 452.490232 C 288.002098 441.001437 288.002098 433.007948 282.996822 426.002585 C 277.991546 418.997222 274.502574 409.499424 264.99255 407.006989 C 255.497247 404.499807 256.498302 406.505553 239.995613 407.995114 Z M 239.995613 407.995114 " transform="matrix(-0.265345,0,0,0.264864,458.923826,-12.235105)"/>
<path style="fill-rule:nonzero;fill:rgb(99.215686%,98.039216%,98.039216%);fill-opacity:1;stroke-width:1.76718;stroke-linecap:round;stroke-linejoin:round;stroke:rgb(0%,0%,0%);stroke-opacity:1;stroke-miterlimit:4;" d="M 996.556652 398.645486 C 990.318459 398.663922 983.933052 399.272282 977.49244 400.618049 C 948.14165 406.867571 859.371612 440.622361 837.510334 456.255382 C 815.630654 471.888403 793.125315 502.49078 783.758824 518.123801 C 774.373932 533.738387 745.004741 566.866382 731.865892 581.872607 C 718.745445 596.878833 688.750594 633.122371 680.009763 644.367822 C 671.25053 655.631709 671.87619 671.854656 671.87619 679.376204 C 671.87619 686.879316 671.25053 693.737198 678.740042 714.384585 C 686.247956 734.995101 691.878891 754.997257 701.245381 756.250848 C 710.630273 757.486004 727.504677 758.758031 752.494253 756.250848 C 777.50223 753.743666 838.743251 747.494144 853.115017 745.632192 C 867.505185 743.751805 884.379589 747.494144 897.481634 738.73744 C 910.620483 729.999171 940.615334 714.384585 958.759459 696.244381 C 976.86678 678.122612 1015.639266 644.367822 1025.005756 626.891284 C 1034.372246 609.377876 1061.882861 558.754908 1065.636818 540.63314 C 1069.372373 522.511371 1076.254627 479.373081 1076.254627 473.12356 C 1076.254627 466.855603 1066.869735 416.877866 1051.24665 410.628345 C 1039.027889 405.743026 1018.822768 398.571746 996.556652 398.645486 Z M 996.556652 398.645486 " transform="matrix(-0.212276,0,0,0.211891,458.923982,-12.235105)"/>
<path style="fill-rule:nonzero;fill:rgb(63.921571%,31.764707%,9.803922%);fill-opacity:1;stroke-width:1.41375;stroke-linecap:butt;stroke-linejoin:miter;stroke:rgb(0%,0%,0%);stroke-opacity:1;stroke-miterlimit:4;" d="M 505.996587 203.01081 C 505.996587 211.992423 483.00176 234.984763 488.99337 272.002577 C 494.999701 309.005644 504.009198 299.994534 518.009249 320.995876 C 531.994579 341.997218 532.995634 370.003923 528.005079 385.002774 C 522.999803 400.001626 508.985031 407.995114 496.000756 407.995114 C 483.00176 407.995114 449.996382 400.001626 437.012107 392.008138 C 423.99839 383.999901 401.003563 338.000474 401.003563 338.000474 C 401.003563 338.000474 351.996023 263.994341 382.67542 246.326077 C 418.669243 220.679073 483.664223 190.666622 497.664274 188.321669 C 511.679047 186.006212 505.996587 193.9997 505.996587 203.01081 Z M 911.512267 316.011007 C 920.507042 331.997983 927.514428 365.004306 941.499758 408.997987 C 955.499809 452.991669 924.496541 510.996077 911.998073 558.499814 C 899.499604 605.988804 909.495435 609.498859 907.993852 629.01064 C 906.506991 648.507672 886.000081 662.50365 867.495281 664.996085 C 848.990482 667.503268 823.993545 615.50135 810.994549 587.996081 C 797.995552 560.505561 743.997458 514.491385 713.509439 491.499045 C 698.096133 479.877516 691.486225 441.252155 667.505064 419.498658 C 644.00971 398.202354 623.002273 416.991476 607.986445 394.987261 C 603.996945 384.48659 605.483807 365.004306 584.505812 334.505166 C 563.498374 303.991278 579.500536 253.508418 579.500536 253.508418 C 579.500536 253.508418 598.756127 191.197555 616.304036 192.170932 C 635.250477 193.218049 652.135923 193.498264 657.671169 193.660493 C 668.329463 193.9997 724.329668 214.661835 762.00173 219.336993 C 792.754734 223.142012 854.407957 249.614911 901.222008 260.676011 C 911.747809 263.138949 902.488049 299.994534 911.512267 316.011007 Z M 1228.993976 431.002202 C 1228.993976 436.001819 1235.000307 456.000288 1231.997141 467.002395 C 1228.993976 478.004503 1239.004527 510.996077 1242.994027 531.997419 C 1246.998248 552.998761 1246.998248 576.005849 1242.007693 590.001827 C 1237.002417 603.997806 1229.995031 607.006425 1213.992869 612.006042 C 1198.005429 616.990911 1186.993822 634.998382 1172.007437 634.998382 C 1156.991609 634.998382 1154.989499 629.998765 1150.013665 608.009298 C 1145.008389 586.005083 1153.00211 542.999526 1156.991609 524.992056 C 1161.010551 506.999333 1150.999999 467.002395 1150.999999 467.002395 C 1150.999999 467.002395 1137.073555 361.332021 1165.912777 381.16826 C 1177.557405 389.176496 1186.831886 395.503445 1191.336635 397.99588 C 1195.900269 400.532559 1203.673168 404.101607 1212.888764 407.980366 C 1235.294735 417.419171 1228.993976 426.002585 1228.993976 431.002202 Z M 1365.991322 473.004886 C 1365.991322 488.991862 1379.991374 499.005845 1379.991374 518.00144 C 1379.991374 536.997036 1373.999764 545.005272 1361.000768 565.003741 C 1347.98705 585.00221 1354.008103 572.997229 1330.998555 580.002593 C 1308.003728 586.993208 1300.996342 573.985354 1303.999508 565.003741 C 1307.002673 556.00738 1327.009056 550.993015 1328.996445 539.002782 C 1330.998555 527.01255 1314.01006 511.984202 1320.001669 492.988606 C 1325.993279 473.993011 1304.941677 435.116931 1315.658856 436.488508 C 1322.828178 437.402892 1329.393922 437.992817 1335.002776 437.992817 C 1345.101656 437.992817 1354.155317 439.39389 1367.43402 437.034189 C 1372.557067 436.119804 1365.991322 456.988413 1365.991322 473.004886 Z M 1061.50861 346.495398 C 1058.490723 357.497506 1058.490723 365.992431 1064.997581 383.999901 C 1071.489719 401.992624 1081.500271 456.501725 1082.486604 478.004503 C 1083.502381 499.492533 1089.008184 547.497707 1083.001853 575.002976 C 1076.995522 602.493496 1071.003912 623.996274 1064.511775 637.004128 C 1057.990195 649.997233 1052.99964 655.011599 1041.988033 647.003362 C 1030.991148 638.995126 1040.501172 607.006425 1041.502227 588.497518 C 1042.488561 569.98861 1028.48851 549.503453 1027.001648 521.496748 C 1025.500066 484.50843 1021.996372 452.490232 1021.510566 433.494637 C 1026.515842 367.010052 994.511519 312.014263 995.409524 286.072296 C 1026.928041 300.953163 1057.180518 319.255596 1073.668486 324.668161 C 1064.011248 331.496547 1062.995471 335.994728 1061.50861 346.495398 Z M 1061.50861 346.495398 " transform="matrix(-0.265345,0,0,0.264864,458.923826,-12.235105)"/>
<path style="fill-rule:nonzero;fill:rgb(90.980393%,86.274511%,83.137256%);fill-opacity:1;stroke-width:1.76718;stroke-linecap:butt;stroke-linejoin:miter;stroke:rgb(0%,0%,0%);stroke-opacity:1;stroke-miterlimit:4;" d="M 985.184371 59.530597 C 979.774256 59.512162 970.97822 64.194694 967.50029 65.853859 C 959.587538 69.577763 947.902427 75.403275 939.584836 79.588058 C 931.230442 83.73597 924.587411 86.261588 912.092623 94.999857 C 899.579434 103.756561 879.576732 121.675543 870.835901 124.606735 C 862.076669 127.501056 865.002547 127.501056 862.904748 122.505126 C 860.843752 117.509196 860.843752 114.172431 862.904748 96.253449 C 865.002547 78.334467 857.089795 91.257518 843.748527 98.760631 C 830.407259 106.245309 829.15594 110.411657 816.661152 122.081117 C 804.147962 133.750577 797.504931 135.409742 788.745698 137.916925 C 779.986466 140.424108 776.655749 135.428178 774.153111 123.740282 C 773.490648 120.550998 777.943872 107.738557 773.343434 109.582074 C 761.179878 114.412088 732.013106 145.235686 724.173961 154.582316 C 713.353732 167.505368 698.742743 171.266142 697.914665 169.164533 C 697.086586 167.099794 694.583948 165.846203 692.909389 165.846203 C 691.253231 165.846203 675.409325 179.156393 669.594373 183.746749 C 663.761018 188.318671 604.580993 238.333278 622.081056 235.402086 C 639.599522 232.507765 671.25053 225.85267 707.097137 233.337347 C 742.906941 240.84046 808.7484 241.670043 822.089668 242.075616 C 835.412534 242.499625 905.412788 268.327294 952.502864 274.171242 C 999.59294 279.996754 1104.574919 328.333761 1162.485224 331.670526 C 1220.41393 335.007291 1306.644527 394.147306 1342.086295 405.835201 C 1377.509663 417.504662 1469.573614 486.673407 1489.171476 497.49485 C 1502.770369 505.034833 1539.187431 520.022623 1568.630229 529.848567 C 1581.529855 534.162396 1569.58712 522.916945 1575.420475 520.004188 C 1581.235427 517.091432 1604.587247 520.004188 1615.830716 520.409762 C 1627.074185 520.852206 1659.166835 516.243414 1670.833544 511.247484 C 1682.500253 506.251554 1677.494977 473.750355 1677.899816 464.164069 C 1678.139039 459.223444 1683.162716 439.073807 1680.420855 419.587836 C 1677.844611 401.392326 1667.466024 383.786742 1666.656347 379.159515 C 1665.84667 374.440113 1657.197848 355.507197 1645.843969 337.920048 C 1634.195662 319.87202 1619.805494 303.188194 1617.486873 298.763754 C 1612.92324 290.00705 1572.089758 252.897059 1564.600246 247.901129 C 1557.073931 242.905199 1508.346099 209.592853 1500.414945 205.832079 C 1492.502193 202.08974 1479.989004 191.249862 1452.901629 184.594767 C 1441.529348 181.792622 1430.39629 176.07772 1418.343144 173.33088 C 1401.707963 169.570106 1384.907166 169.275144 1377.914501 169.994115 C 1365.824552 171.266142 1362.898674 169.994115 1355.832402 169.164533 C 1348.747729 168.33495 1350.845528 167.099794 1341.663055 168.740524 C 1332.498984 170.399689 1328.745027 173.33088 1321.255515 176.262072 C 1313.747602 179.156393 1310.398483 177.921237 1302.485731 178.32681 C 1294.591381 178.750819 1293.763302 172.925307 1290.414184 170.842133 C 1287.083467 168.740524 1280.422034 170.399689 1265.847849 170.842133 C 1251.255262 171.266142 1255.837297 169.994115 1252.08334 163.33902 C 1248.329384 156.66549 1247.501305 150.839977 1247.501305 150.839977 C 1247.501305 150.839977 1241.24471 149.586386 1232.908718 150.010394 C 1224.572725 150.415968 1222.070088 147.484777 1217.083213 143.355299 C 1212.077938 139.152081 1213.347658 138.746508 1207.919142 128.330638 C 1202.490626 117.914769 1206.262985 122.9107 1199.15991 122.081117 C 1192.093638 121.251535 1189.591 122.505126 1173.747094 122.505126 C 1157.903188 122.505126 1166.662421 119.573934 1161.657145 113.748422 C 1156.670271 107.904474 1157.49835 105.8213 1157.49835 105.8213 C 1157.49835 105.8213 1149.585598 108.346918 1143.329003 109.582074 C 1137.09081 110.835665 1132.103936 114.578004 1121.246904 112.918839 C 1110.408274 111.241239 1114.990309 105.415726 1114.990309 105.415726 L 1111.659593 94.999857 C 1111.659593 94.999857 1098.355128 99.995787 1091.252053 102.484535 C 1084.167379 104.991718 1077.082706 106.245309 1072.923911 104.991718 C 1068.765115 103.756561 1067.495395 97.083031 1062.913359 82.500814 C 1058.349725 67.918598 1053.326048 71.679372 1046.259776 73.338537 C 1039.175103 74.997701 1036.672465 76.675302 1029.99263 80.012067 C 1023.331197 83.330397 999.997779 91.663092 996.243822 91.257518 C 992.508267 90.83351 986.656511 90.83351 987.484589 80.012067 C 987.889428 75.034572 991.901009 63.125454 988.349472 60.415485 C 987.539795 59.807124 986.454091 59.567467 985.184371 59.530597 Z M 985.184371 59.530597 " transform="matrix(-0.212276,0,0,0.211891,458.923982,-12.235105)"/>
<path style="fill-rule:nonzero;fill:rgb(84.313726%,74.901962%,69.01961%);fill-opacity:1;stroke-width:1.41375;stroke-linecap:butt;stroke-linejoin:miter;stroke:rgb(0%,0%,0%);stroke-opacity:1;stroke-miterlimit:4;" d="M 921.493376 243.995872 C 922.509152 236.002384 930.002345 225.501713 935.508148 217.508225 C 941.013952 209.48524 959.50403 196.506883 971.501971 187.495773 C 983.48519 178.499412 985.502022 175.004105 999.001546 161.494814 C 1012.50107 148.015021 1014.355966 154.238733 1017.638838 145.994526 C 1011.131979 149.003146 998.000491 158.486195 990.993104 162.999124 C 984.000439 167.497305 979.495691 170.505924 970.500916 177.511287 C 961.491419 184.501902 952.010838 188.498647 944.502924 196.506883 C 936.99501 204.500371 931.503928 205.989933 926.999179 208.998552 C 922.509152 211.992423 904.990686 227.492711 897.497494 233.495201 C 890.004301 239.51244 886.986414 239.999128 882.996915 234.984763 C 879.007416 229.999894 886.500608 224.513588 891.99169 216.490603 C 897.497494 208.497115 904.990686 201.993188 914.500711 192.008702 C 923.996014 181.99472 923.495486 183.499029 935.508148 171.995485 C 947.506089 160.50669 948.492423 163.500561 964.494585 148.501709 C 969.087661 143.266122 978.5388 136.363995 977.832173 134.358249 C 971.222264 137.499602 963.994057 143.000655 949.5082 151.510328 C 934.992899 160.005253 926.999179 166.007743 921.493376 168.500178 C 915.987572 171.00736 882.996915 192.510139 864.492116 212.493859 C 846.002037 232.507076 844.500455 215.989167 849.505731 204.500371 C 854.496285 192.996827 859.501561 193.498264 866.00842 183.985718 C 872.500557 174.502668 894.994856 156.008509 916.4881 138.001038 C 938.010786 120.008316 938.010786 119.506879 926.999179 124.993185 C 915.987572 130.508986 911.512267 132.986673 902.488049 139.003911 C 893.507995 145.006401 882.010581 150.994144 870.498447 161.996251 C 859.001033 172.998358 882.996915 151.510328 833.503569 192.510139 C 783.995501 233.495201 821.991434 195.50401 823.507738 186.994337 C 824.9946 178.499412 829.499348 170.505924 837.007262 160.50669 C 844.500455 150.492707 857.999978 143.98878 889.489052 118.489258 C 920.992848 92.989735 901.001187 104.508027 891.99169 108.003335 C 882.996915 111.513391 879.007416 116.999696 868.511058 123.002187 C 857.999978 128.989929 847.003093 139.003911 837.993596 145.507838 C 828.998821 152.011765 825.509849 159.503816 796.008163 179.000849 C 766.506478 198.497881 767.507533 189.000083 771.497033 179.502285 C 775.501254 170.004487 781.993391 166.007743 793.505526 151.510328 C 805.002939 137.012913 817.501407 129.491365 839.5099 112.501516 C 861.503671 95.496918 859.001033 88.491555 842.498344 103.490406 C 826.010376 118.489258 830.485682 110.997206 819.989324 118.489258 C 809.507687 126.010806 808.992438 128.50324 759.999619 160.993378 C 711.006801 193.498264 730.497934 168.500178 732.500045 154.990888 C 733.589428 147.690562 745.116284 135.095656 759.999619 122.913698 C 771.614804 113.386404 785.526527 100.083587 797.995552 92.739017 C 799.099657 92.090099 805.827337 88.816014 806.916721 88.181844 C 813.6444 82.91676 819.326861 80.144111 821.652842 73.271481 C 807.137542 83.255967 799.011329 86.500557 789.501305 93.50592 C 780.006002 100.511283 770.996505 105.496152 765.991229 107.000462 C 760.985953 108.504772 754.493816 115.510135 709.991024 152.011765 C 665.502954 188.498647 691.500946 152.498453 693.488335 140.508221 C 695.505167 128.50324 729.5116 101.01272 752.491706 77.489447 C 775.501254 54.010419 749.989068 73.006015 739.49271 80.498066 C 729.011073 88.004866 724.992131 88.992991 712.493662 99.493662 C 700.009915 109.994333 678.001422 128.001804 670.50823 132.986673 C 663.000316 138.001038 646.011821 154.489451 634.985492 169.488303 C 623.988606 184.501902 619.498579 177.511287 619.012773 177.511287 C 618.497524 177.511287 619.498579 167.010616 621.000162 161.494814 C 622.501745 156.008509 639.004434 130.995675 646.998154 123.002187 C 655.006596 115.008698 670.007702 90.998737 667.505064 94.508793 C 665.002426 98.004101 655.492402 105.997589 649.000265 113.002952 C 642.493406 120.008316 606.499583 152.498453 600.507974 158.486195 C 594.486921 164.503434 588.495311 175.992229 580.987397 179.502285 C 573.508926 182.997593 574.49526 176.493666 572.993677 172.998358 C 571.506816 169.488303 585.00634 137.499602 589.511088 129.491365 C 594.001115 121.497877 606.499583 102.98897 601.994835 107.48715 C 597.490087 112.000079 593.00006 118.489258 588.495311 122.50075 C 583.990563 126.512242 582.503702 126.010806 572.007344 145.507838 C 561.496264 164.990122 550.499378 177.009851 545.008296 177.511287 C 539.502493 177.997976 535.498272 175.490793 536.013521 173.514543 C 536.499327 171.494049 540.00302 162.512436 542.505658 157.49807 C 545.008296 152.498453 555.504654 137.499602 554.488878 135.493855 C 553.502544 133.502857 539.502493 151.510328 532.495106 161.996251 C 525.502441 172.496922 483.664223 190.666622 497.664274 188.321669 C 511.679047 186.006212 536.999855 180.682136 565.677142 186.669878 C 594.324986 192.672368 646.998154 193.336034 657.671169 193.660493 C 668.329463 193.9997 724.329668 214.661835 762.00173 219.336993 C 799.673792 223.997403 883.659378 262.667009 930.002345 265.336421 C 932.343047 265.469154 920.507042 252.004108 921.493376 243.995872 Z M 921.493376 243.995872 " transform="matrix(-0.265345,0,0,0.264864,458.923826,-12.235105)"/>
<path style="fill-rule:nonzero;fill:rgb(63.921571%,31.764707%,9.803922%);fill-opacity:1;stroke-width:1.41375;stroke-linecap:butt;stroke-linejoin:miter;stroke:rgb(0%,0%,0%);stroke-opacity:1;stroke-miterlimit:4;" d="M 263.991495 575.342183 C 257.322701 567.319198 233.326819 537.999909 232.679077 533.324751 C 232.001893 528.664341 229.999782 524.003931 235.328929 523.325517 C 240.672797 522.676599 256.674959 521.334519 266.670789 518.665106 C 276.66662 516.010442 284.012598 514.004696 290.004208 510.671618 C 295.995818 507.323792 303.341796 498.002972 306.00637 500.672384 C 308.670943 503.327048 300.01476 514.668362 300.677223 518.00144 C 301.339686 521.334519 302.679333 529.328007 310.673054 543.338733 C 318.681495 557.334712 325.335568 567.997612 325.998031 582.008339 C 326.675215 596.004317 328.000141 603.997806 322.670994 609.33663 C 317.327126 614.675454 314.00009 623.996274 304.004259 616.666452 C 293.993708 609.33663 270.67501 583.335671 263.991495 575.342183 Z M 263.991495 575.342183 " transform="matrix(-0.265345,0,0,0.264864,458.923826,-12.235105)"/>
<path style="fill-rule:nonzero;fill:rgb(90.980393%,86.274511%,83.137256%);fill-opacity:1;stroke-width:1.76718;stroke-linecap:round;stroke-linejoin:round;stroke:rgb(0%,0%,0%);stroke-opacity:1;stroke-miterlimit:4;" d="M 749.568375 893.758756 C 747.672994 893.795626 743.238173 893.943108 734.589351 894.16433 C 721.763332 894.477728 700.012464 894.827996 676.936671 895.086088 C 700.012464 925.817511 683.76372 904.598634 695.835267 953.322779 C 695.835267 953.322779 712.084011 1010.010917 715.414728 1024.998707 C 718.745445 1039.986498 744.5815 1098.739374 749.605178 1106.260922 C 754.592052 1113.745599 772.073714 1131.240572 777.097391 1140.845294 C 782.084265 1150.39471 789.997017 1162.48818 798.33301 1175.411231 C 806.6506 1188.334283 806.6506 1194.159796 820.415109 1208.318004 C 834.161215 1222.494647 840.84105 1232.504942 844.595007 1232.504942 C 848.330562 1232.504942 846.251165 1235.417699 852.912598 1224.172247 C 859.574031 1212.90836 867.910023 1193.330213 873.743378 1189.993448 C 879.576732 1186.656683 887.894323 1166.248954 887.894323 1166.248954 L 893.322839 1150.39471 C 893.322839 1150.39471 900.002674 1143.739615 903.33339 1128.346251 C 906.664107 1112.916017 907.897024 1097.504217 912.920702 1088.747513 C 917.907576 1079.990809 923.336092 1055.840741 923.336092 1055.840741 C 923.336092 1055.840741 928.341368 1029.994637 923.74093 1019.578768 C 919.158895 1009.144464 905.412788 987.925587 905.00795 987.925587 C 904.584709 987.925587 890.838603 972.089779 865.425787 959.148292 C 839.99457 946.262111 819.58703 926.647093 809.576478 925.006363 C 799.584329 923.347198 779.986466 914.14805 779.986466 913.760912 C 779.986466 913.336903 767.51008 908.340973 754.592052 907.492955 C 748.740296 907.492955 741.674024 900.395416 741.674024 900.395416 C 737.84646 894.993912 755.236113 893.721886 749.568375 893.758756 Z M 749.568375 893.758756 " transform="matrix(-0.212276,0,0,0.211891,458.923982,-12.235105)"/>
<path style="fill-rule:nonzero;fill:rgb(90.980393%,86.274511%,83.137256%);fill-opacity:1;stroke-width:1.76718;stroke-linecap:round;stroke-linejoin:round;stroke:rgb(0%,0%,0%);stroke-opacity:1;stroke-miterlimit:4;" d="M 1517.491768 813.344559 C 1488.748236 823.760428 1447.509916 817.105333 1421.25062 826.249176 C 1395.009726 835.411454 1343.760855 847.080914 1324.162992 855.837618 C 1304.583531 864.594322 1247.906143 873.7566 1235.852998 877.922948 C 1223.744647 882.089296 1124.982459 902.902599 1112.101235 906.257799 C 1099.146403 909.594564 1101.649041 915.82565 1101.649041 915.82565 C 1101.649041 915.82565 1118.321026 939.994154 1144.98516 955.00038 C 1171.667697 970.006605 1234.988115 1008.351752 1269.160164 1015.836429 C 1303.350614 1023.339542 1384.152694 1035.838585 1405.001876 1050.844811 C 1425.832656 1065.832601 1437.499365 1066.662184 1459.986302 1072.487696 C 1482.491642 1078.331644 1500.838185 1080.820392 1515.835611 1073.335714 C 1530.851438 1065.832601 1569.991959 1048.337628 1584.161306 1033.331402 C 1598.349054 1018.343612 1603.335928 1022.491524 1616.658795 993.327091 C 1630.000063 964.144222 1639.992213 959.148292 1636.661496 927.513546 C 1633.330779 895.84193 1632.502701 871.654991 1629.171984 860.833548 C 1625.841267 850.012106 1604.164007 822.506837 1597.484172 820.829237 C 1590.841141 819.170072 1535.415072 819.999654 1535.415072 819.999654 C 1520.840887 822.506837 1522.092206 818.340489 1517.491768 813.344559 Z M 1517.491768 813.344559 " transform="matrix(-0.212276,0,0,0.211891,458.923982,-12.235105)"/>
<path style="fill-rule:nonzero;fill:rgb(90.980393%,86.274511%,83.137256%);fill-opacity:1;stroke-width:1.76718;stroke-linecap:round;stroke-linejoin:round;stroke:rgb(0%,0%,0%);stroke-opacity:1;stroke-miterlimit:4;" d="M 2153.861058 396.082998 C 2149.168612 396.064563 2140.354174 397.631552 2122.081237 402.074427 C 2089.583748 410.001549 2035.408998 430.409279 2005.818986 442.502748 C 1976.247375 454.596217 1952.913957 460.42173 1924.170425 472.515199 C 1900.008928 480.40545 1871.651833 492.904493 1845.85258 500.831615 C 1827.082796 510.823475 1753.751826 533.332814 1776.662003 528.742457 C 1799.590583 524.170536 1800.8235 534.60484 1803.34454 542.9191 C 1805.847178 551.251796 1815.839327 570.405934 1812.895048 582.499403 C 1810.005973 594.592872 1806.252016 609.156654 1805.405536 619.590958 C 1804.577457 629.988392 1799.995421 635.408331 1801.24674 649.160965 C 1802.516461 662.895165 1810.410811 693.737198 1804.172618 703.34192 C 1797.916024 712.909772 1790.003272 727.510424 1784.169917 732.082345 C 1778.318161 736.654266 1757.082542 750.001327 1749.151388 752.914083 C 1741.238636 755.826839 1736.675003 760.011622 1732.497806 760.011622 C 1728.33901 760.011622 1780.839201 770.409056 1790.83135 774.999413 C 1800.8235 779.571334 1870.842156 809.159776 1890.421617 814.579715 C 1910.001078 819.999654 1999.985631 852.906427 2009.591344 853.736009 C 2019.160254 854.584027 2101.250457 878.75253 2108.33513 878.328522 C 2115.419804 877.922948 2139.15806 877.922948 2139.15806 877.922948 L 2138.329981 799.149481 C 2138.329981 799.149481 2126.663272 737.907858 2119.983437 725.408815 C 2113.322004 712.909772 2099.171059 670.822286 2094.147382 666.655939 C 2089.160508 662.489591 2083.345555 648.331383 2083.345555 648.331383 C 2083.345555 648.331383 2087.099512 639.593114 2092.086386 632.090001 C 2102.078535 619.166949 2107.507051 595.016881 2112.917166 581.264247 C 2125.835194 557.077308 2137.097064 521.239344 2139.986139 507.910719 C 2139.986139 507.910719 2158.755923 438.741974 2158.755923 438.3364 C 2158.755923 437.912391 2162.914718 401.244845 2159.98884 398.350524 C 2158.719119 397.060062 2157.541407 396.082998 2153.861058 396.082998 Z M 2153.861058 396.082998 " transform="matrix(-0.212276,0,0,0.211891,458.923982,-12.235105)"/>
<path style=" stroke:none;fill-rule:nonzero;fill:rgb(100%,100%,100%);fill-opacity:1;" d="M 405.191406 104.832031 C 404.660156 105.496094 403.996094 105.761719 402.273438 105.234375 C 400.546875 104.703125 400.019531 103.773438 396.832031 103.640625 C 393.652344 103.511719 392.191406 103.511719 390.734375 103.773438 C 389.269531 104.039062 388.339844 103.109375 388.078125 103.773438 C 387.808594 104.4375 385.6875 104.964844 388.875 105.628906 C 392.054688 106.292969 392.585938 107.878906 394.972656 107.878906 C 397.363281 107.878906 397.496094 108.941406 399.882812 108.675781 C 402.273438 108.410156 404.660156 109.734375 404.792969 110.398438 C 404.925781 111.058594 407.621094 109.953125 407.621094 108.894531 C 407.621094 107.835938 405.722656 104.175781 405.191406 104.832031 Z M 405.191406 104.832031 "/>
<path style="fill-rule:nonzero;fill:rgb(81.176472%,52.156866%,30.980393%);fill-opacity:1;stroke-width:1.76718;stroke-linecap:round;stroke-linejoin:round;stroke:rgb(0%,0%,0%);stroke-opacity:1;stroke-miterlimit:4;" d="M 996.556652 398.645486 C 990.318459 398.663922 983.933052 399.272282 977.49244 400.618049 C 948.14165 406.867571 859.371612 440.622361 837.510334 456.255382 C 819.311004 469.252175 800.688434 492.609531 789.555375 509.109005 C 803.080661 510.23355 818.243702 509.754236 834.382036 524.373323 C 864.358486 551.565193 872.620871 599.846895 891.887502 614.373806 C 913.988003 631.057632 945.988645 657.41992 972.155932 683.339764 C 991.624983 664.886163 1017.534646 640.7914 1025.005756 626.891284 C 1034.372246 609.377876 1061.882861 558.754908 1065.636818 540.63314 C 1069.372373 522.511371 1076.254627 479.373081 1076.254627 473.12356 C 1076.254627 466.855603 1066.869735 416.877866 1051.24665 410.628345 C 1039.027889 405.743026 1018.822768 398.571746 996.556652 398.645486 Z M 996.556652 398.645486 " transform="matrix(-0.212276,0,0,0.211891,458.923982,-12.235105)"/>
</g>
</svg>
