<?xml version="1.0" encoding="UTF-8"?>
<svg xmlns="http://www.w3.org/2000/svg" xmlns:xlink="http://www.w3.org/1999/xlink" width="448pt" height="250pt" viewBox="0 0 448 250" version="1.1">
<g id="surface81">
<path style=" stroke:none;fill-rule:nonzero;fill:rgb(81.176472%,74.117649%,49.019608%);fill-opacity:1;" d="M 332.773438 83.847656 C 332.773438 83.847656 329.710938 84.242188 327.984375 84.773438 C 326.253906 85.308594 322.261719 87.703125 320.132812 90.5 C 318.003906 93.296875 314.011719 95.554688 312.015625 96.488281 C 310.019531 97.417969 310.019531 101.140625 310.15625 103.40625 C 310.289062 105.667969 313.082031 112.054688 314.277344 113.652344 C 315.476562 115.25 320.398438 128.6875 323.0625 132.28125 C 325.722656 135.875 335.433594 154.101562 337.832031 157.296875 C 340.222656 160.488281 347.144531 159.421875 351.667969 164.476562 C 356.191406 169.535156 361.78125 166.875 368.699219 168.070312 C 374.179688 169.023438 379.746094 167.40625 379.746094 167.40625 M 442.578125 125.414062 C 444.691406 122.835938 444.851562 119.605469 439.21875 114.890625 C 430.882812 107.179688 414.558594 92.894531 407.816406 87.390625 C 401.078125 81.894531 382.984375 69.296875 375.707031 65.394531 C 367.898438 59.367188 366.835938 57.769531 358.675781 53.066406 C 349.097656 46.234375 331.796875 38.25 328.070312 37.632812 C 324.34375 37.011719 317.605469 35.589844 309.976562 37.1875 C 302.347656 38.785156 288.335938 38.960938 285.492188 39.054688 C 282.65625 39.140625 267.753906 44.640625 257.730469 45.878906 C 247.703125 47.125 225.351562 57.414062 213.023438 58.121094 C 200.691406 58.832031 182.328125 71.425781 174.789062 73.910156 C 167.25 76.398438 147.644531 91.117188 143.476562 93.429688 C 139.304688 95.734375 125.117188 101.324219 119.703125 102.207031 C 114.292969 103.09375 108.96875 104.070312 105.242188 104.070312 C 101.519531 104.070312 98.324219 104.78125 91.9375 102.5625 C 85.550781 100.347656 87.148438 101.054688 82.269531 100.078125 C 77.386719 99.101562 77.125 101.324219 76.589844 103.09375 C 76.058594 104.867188 73.929688 108.949219 74.550781 111.523438 C 75.171875 114.097656 75.972656 117.195312 76.148438 119.417969 C 76.324219 121.636719 77.300781 122.789062 77.035156 125.710938 C 76.765625 128.640625 75.082031 135.203125 76.414062 137.246094 C 77.742188 139.289062 79.429688 142.390625 80.671875 143.367188 C 81.914062 144.339844 86.433594 147.183594 88.125 147.804688 C 89.808594 148.421875 90.785156 149.3125 91.667969 149.3125 C 92.558594 149.3125 96.371094 148.867188 99.476562 149.042969 C 102.582031 149.222656 112.074219 150.640625 116.332031 152.324219 C 120.589844 154.015625 122.808594 154.898438 126.976562 156.230469 C 131.148438 157.558594 131.324219 158.445312 137.445312 160.664062 C 143.5625 162.882812 152.347656 161.464844 157.933594 163.414062 C 163.523438 165.367188 174.433594 167.851562 178.601562 169.71875 C 182.773438 171.578125 194.839844 173.53125 197.40625 174.414062 C 199.980469 175.304688 221.003906 179.734375 223.753906 180.449219 C 226.503906 181.15625 225.351562 180.710938 233.867188 181.15625 C 242.382812 181.601562 243.980469 181.246094 246.996094 181.957031 C 250.007812 182.664062 255.332031 182.046875 257.90625 181.957031 C 260.476562 181.867188 283.277344 180.980469 289.929688 179.5625 C 296.582031 178.140625 296.761719 177.699219 304.121094 177.875 C 311.484375 178.050781 332.683594 178.320312 335.878906 177.875 C 339.070312 177.429688 355.925781 175.570312 364 173.707031 C 372.070312 171.84375 369.941406 171.3125 370.828125 170.953125 C 371.714844 170.601562 375.707031 168.289062 380.496094 167.140625 C 385.289062 165.992188 397.351562 162.96875 407.816406 156.582031 C 418.285156 150.195312 425.292969 146.828125 429.726562 144.078125 C 434.164062 141.328125 448.535156 130.683594 447.734375 128.46875 C 446.9375 126.246094 444.921875 123.742188 443.675781 123.828125 M 422.097656 106.289062 C 422.988281 106.910156 423.339844 107.710938 423.339844 107.710938 M 428.042969 110.8125 C 427.421875 112.054688 427.15625 112.675781 427.15625 112.585938 "/>
<path style=" stroke:none;fill-rule:nonzero;fill:rgb(81.176472%,74.117649%,54.11765%);fill-opacity:1;" d="M 248.347656 72.382812 C 249.675781 72.386719 251.039062 72.507812 252.40625 72.804688 C 258.660156 74.132812 277.554688 81.320312 282.210938 84.644531 C 286.871094 87.972656 291.660156 94.492188 293.65625 97.816406 C 295.648438 101.140625 301.902344 108.199219 304.695312 111.390625 C 307.496094 114.585938 313.882812 122.300781 315.742188 124.695312 C 317.605469 127.089844 317.46875 130.550781 317.46875 132.148438 C 317.46875 133.746094 317.605469 135.203125 316.011719 139.601562 C 314.414062 143.988281 313.210938 148.246094 311.21875 148.511719 C 309.222656 148.78125 305.628906 149.042969 300.308594 148.511719 C 294.984375 147.976562 281.941406 146.648438 278.886719 146.25 C 275.824219 145.851562 272.230469 146.648438 269.4375 144.785156 C 266.644531 142.925781 260.257812 139.601562 256.394531 135.738281 C 252.539062 131.878906 244.292969 124.695312 242.292969 120.972656 C 240.296875 117.246094 234.441406 106.464844 233.648438 102.609375 C 232.847656 98.75 231.382812 89.570312 231.382812 88.238281 C 231.382812 86.910156 233.378906 76.257812 236.703125 74.929688 C 239.304688 73.890625 243.609375 72.363281 248.347656 72.382812 Z M 248.347656 72.382812 "/>
<path style=" stroke:none;fill-rule:nonzero;fill:rgb(65.882355%,65.098041%,54.901963%);fill-opacity:1;" d="M 328.070312 37.632812 C 324.34375 37.011719 317.605469 35.589844 309.976562 37.1875 C 302.347656 38.785156 288.335938 38.960938 285.492188 39.054688 C 282.65625 39.140625 267.753906 44.640625 257.730469 45.878906 C 247.703125 47.125 225.351562 57.414062 213.023438 58.121094 C 200.691406 58.832031 182.328125 71.425781 174.789062 73.910156 C 167.25 76.398438 147.644531 91.117188 143.476562 93.429688 C 153.667969 94.511719 170.757812 107.183594 193.851562 108.324219 C 218.242188 109.535156 245.09375 89.382812 269.410156 85.980469 C 302.386719 81.367188 333.164062 71.582031 328.070312 37.632812 Z M 328.070312 37.632812 "/>
<path style="fill-rule:nonzero;fill:rgb(65.882355%,65.098041%,54.901963%);fill-opacity:1;stroke-width:0.24;stroke-linecap:butt;stroke-linejoin:miter;stroke:rgb(0%,0%,0%);stroke-opacity:1;stroke-miterlimit:4;" d="M 126.20361 0.1225 C 125.463609 0.115 124.266107 0.752501 123.791106 0.977502 C 122.713604 1.490002 121.121102 2.280004 119.9886 2.852505 C 118.853598 3.417506 117.943596 3.760006 116.241094 4.952508 C 114.538591 6.14251 111.813586 8.585014 110.621085 8.985015 C 109.428583 9.380015 109.826083 9.380015 109.541083 8.700014 C 109.258582 8.017513 109.258582 7.562512 109.541083 5.122508 C 109.826083 2.680004 108.746082 4.440007 106.931079 5.462509 C 105.113576 6.485011 104.941075 7.052511 103.238573 8.642514 C 101.53357 10.230017 100.628568 10.460017 99.438566 10.800018 C 98.243564 11.140018 97.788564 10.460017 97.446063 8.867514 C 97.353563 8.430014 97.966064 6.687511 97.338563 6.940011 C 95.68106 7.597512 91.706054 11.792519 90.633552 13.072521 C 89.15855 14.830024 87.171047 15.340025 87.058546 15.055024 C 86.946046 14.775024 86.606046 14.602524 86.378545 14.602524 C 86.151045 14.602524 83.993541 16.417527 83.20104 17.042528 C 82.403539 17.667529 74.343526 24.48004 76.72853 24.085039 C 79.113533 23.687538 83.42604 22.777537 88.308548 23.800039 C 93.191056 24.82254 102.163571 24.93504 103.978574 24.992541 C 105.793577 25.050041 115.331092 28.567546 121.746103 29.362548 C 128.163613 30.160049 142.468636 36.74256 150.358649 37.19756 C 158.251162 37.652561 170.003681 45.712574 174.828689 47.302577 C 179.653696 48.892579 192.201217 58.315095 194.868721 59.792597 C 196.726224 60.817599 201.683732 62.862602 205.696239 64.202604 C 207.456242 64.787605 205.826239 63.255103 206.61874 62.860102 C 207.416241 62.462601 210.596247 62.860102 212.128749 62.915102 C 213.663752 62.972602 218.031259 62.347601 219.621261 61.6651 C 221.213764 60.985099 220.531263 56.555092 220.588763 55.25009 C 220.616263 54.575088 221.303764 51.830084 220.928763 49.17758 C 220.576263 46.697576 219.163761 44.300072 219.05376 43.667571 C 218.94126 43.02507 217.763758 40.447566 216.216256 38.050062 C 214.631253 35.592558 212.67125 33.315054 212.356249 32.712553 C 211.728748 31.522551 206.168739 26.467543 205.146238 25.787542 C 204.126236 25.105041 197.481225 20.565033 196.401224 20.052533 C 195.321222 19.542532 193.618719 18.065029 189.928713 17.160028 C 188.378711 16.775027 186.863708 15.997526 185.218705 15.625025 C 182.953702 15.112525 180.666198 15.072524 179.708697 15.172525 C 178.066194 15.340025 177.666193 15.172525 176.703692 15.055024 C 175.73869 14.942524 176.021191 14.775024 174.771189 15.000024 C 173.521187 15.227525 173.013686 15.625025 171.991184 16.022526 C 170.968682 16.417527 170.513682 16.250026 169.43368 16.305026 C 168.356178 16.362527 168.243678 15.567525 167.788677 15.285025 C 167.333676 15.000024 166.426175 15.227525 164.441172 15.285025 C 162.453669 15.340025 163.07867 15.172525 162.566169 14.262523 C 162.056168 13.352522 161.941168 12.56002 161.941168 12.56002 C 161.941168 12.56002 161.091166 12.39002 159.953665 12.44752 C 158.818663 12.50002 158.478662 12.10502 157.796161 11.537519 C 157.11616 10.967518 157.28866 10.912518 156.546159 9.492515 C 155.808658 8.072513 156.321159 8.752514 155.356157 8.642514 C 154.391156 8.527514 154.051155 8.700014 151.893651 8.700014 C 149.733648 8.700014 150.92865 8.302513 150.246149 7.505012 C 149.566148 6.710011 149.678648 6.42751 149.678648 6.42751 C 149.678648 6.42751 148.601146 6.767511 147.751145 6.940011 C 146.896143 7.110012 146.216142 7.622512 144.74114 7.390012 C 143.263637 7.165012 143.888638 6.36751 143.888638 6.36751 L 143.433638 4.950008 C 143.433638 4.950008 141.618635 5.630009 140.653633 5.97251 C 139.688632 6.31251 138.72113 6.485011 138.153629 6.31251 C 137.588628 6.14251 137.416128 5.237508 136.791127 3.247505 C 136.168626 1.260002 135.488625 1.772503 134.521123 2.000003 C 133.556122 2.225004 133.216121 2.452504 132.30612 2.905005 C 131.401118 3.362505 128.218613 4.497507 127.708612 4.440007 C 127.196111 4.385007 126.40361 4.385007 126.51611 2.905005 C 126.56861 2.230004 127.116111 0.610001 126.63111 0.2375 C 126.52111 0.155 126.37611 0.1225 126.20361 0.1225 Z M 126.20361 0.1225 " transform="matrix(-1.562497,0,0,1.562497,447.958446,0)"/>
<path style="fill-rule:nonzero;fill:rgb(47.843137%,45.882353%,36.078432%);fill-opacity:1;stroke-width:0.24;stroke-linecap:butt;stroke-linejoin:miter;stroke:rgb(0%,0%,0%);stroke-opacity:1;stroke-miterlimit:4;" d="M 148.913647 33.565054 C 149.081147 32.202552 150.358649 30.412549 151.29615 29.050047 C 152.233652 27.687545 155.383657 25.475041 157.42866 23.940039 C 159.471164 22.410036 159.813664 21.812535 162.113668 19.512532 C 164.413672 17.215028 164.728672 18.27503 165.288673 16.875027 C 164.178671 17.385028 161.941168 19.002531 160.751166 19.767532 C 159.556164 20.535033 158.791163 21.047534 157.25866 22.237536 C 155.726158 23.430038 154.106155 24.112539 152.828653 25.475041 C 151.553651 26.837544 150.616149 27.092544 149.851148 27.602545 C 149.081147 28.115046 146.103642 30.75255 144.82614 31.775052 C 143.546138 32.797553 143.038637 32.885053 142.356136 32.030052 C 141.676135 31.180051 142.951137 30.242549 143.888638 28.880047 C 144.82614 27.517545 146.103642 26.412543 147.718645 24.71004 C 149.338647 23.005037 149.253647 23.260038 151.29615 21.302535 C 153.341154 19.342531 153.508654 19.852532 156.238658 17.300028 C 157.01866 16.410027 158.628662 15.230025 158.503662 14.890024 C 157.38116 15.425025 156.151158 16.362527 153.681154 17.810029 C 151.21365 19.260031 149.851148 20.280033 148.913647 20.705034 C 147.976145 21.130034 142.356136 24.79254 139.203631 28.200046 C 136.053626 31.605051 135.796125 28.797547 136.651127 26.837544 C 137.501128 24.87754 138.35363 24.96254 139.458631 23.347538 C 140.566133 21.727535 144.401139 18.57753 148.058645 15.512525 C 151.721151 12.44752 151.721151 12.36002 149.851148 13.297522 C 147.976145 14.235023 147.208644 14.660024 145.676141 15.680025 C 144.143639 16.702527 142.183636 17.725029 140.226133 19.600032 C 138.268629 21.472535 142.356136 17.810029 133.926122 24.79254 C 125.493609 31.775052 131.966119 25.302541 132.22112 23.855039 C 132.47862 22.410036 133.243621 21.047534 134.521123 19.342531 C 135.796125 17.640029 138.096129 16.535027 143.463638 12.19002 C 148.828646 7.847513 145.421141 9.805016 143.888638 10.402517 C 142.356136 10.997518 141.676135 11.935019 139.883632 12.955021 C 138.096129 13.977523 136.226126 15.680025 134.691124 16.787527 C 133.158621 17.897529 132.56362 19.172531 127.538612 22.492536 C 122.513604 25.815042 122.683604 24.197539 123.366105 22.577537 C 124.046106 20.962534 125.153608 20.280033 127.113611 17.810029 C 129.071114 15.340025 131.201118 14.062523 134.946124 11.167518 C 138.69363 8.272513 138.268629 7.080011 135.456125 9.635016 C 132.64612 12.19002 133.413621 10.912518 131.626119 12.19002 C 129.838616 13.467522 129.753616 13.892523 121.406102 19.427531 C 113.063589 24.96254 116.381094 20.705034 116.721094 18.40503 C 116.906095 17.162528 118.871098 15.015024 121.406102 12.940021 C 123.383605 11.317518 125.753609 9.052515 127.878613 7.800013 C 128.066113 7.690012 129.213615 7.130012 129.396115 7.025011 C 130.543617 6.12751 131.508618 5.655009 131.906119 4.487507 C 129.433615 6.19001 128.051113 6.740011 126.43111 7.930013 C 124.813608 9.125015 123.281105 9.975016 122.428604 10.230017 C 121.578602 10.487517 120.468601 11.677519 112.891088 17.897529 C 105.313576 24.112539 109.741083 17.980029 110.081084 15.937526 C 110.421084 13.892523 116.213594 9.210015 120.1286 5.205008 C 124.046106 1.202502 119.703599 4.440007 117.916096 5.717509 C 116.128593 6.992511 115.446092 7.165012 113.316089 8.952515 C 111.188585 10.742517 107.441079 13.810022 106.163577 14.660024 C 104.888575 15.512525 101.991071 18.32253 100.116068 20.875034 C 98.243564 23.430038 97.478563 22.237536 97.391063 22.237536 C 97.306063 22.237536 97.478563 20.450033 97.731064 19.512532 C 97.988564 18.57753 100.796069 14.317523 102.158571 12.955021 C 103.521073 11.592519 106.078577 7.505012 105.653576 8.102513 C 105.228576 8.697514 103.608573 10.062516 102.501071 11.252518 C 101.39357 12.44752 95.26356 17.980029 94.241058 19.002531 C 93.218556 20.025032 92.196055 21.985036 90.918553 22.577537 C 89.643551 23.175038 89.813551 22.067536 89.55605 21.472535 C 89.30355 20.875034 91.601054 15.425025 92.368555 14.062523 C 93.133556 12.700021 95.26356 9.550015 94.496058 10.315017 C 93.731057 11.085018 92.963556 12.19002 92.196055 12.872521 C 91.431053 13.552522 91.176053 13.467522 89.38855 16.787527 C 87.601047 20.110033 85.726044 22.152536 84.788543 22.237536 C 83.853541 22.325036 83.17104 21.897536 83.25604 21.555035 C 83.34104 21.215034 83.938541 19.685032 84.363542 18.830031 C 84.788543 17.980029 86.578546 15.425025 86.406045 15.085024 C 86.238545 14.742524 83.853541 17.810029 82.658539 19.600032 C 81.468537 21.387535 74.343526 24.48004 76.72853 24.085039 C 79.113533 23.687538 83.42604 22.777537 88.308548 23.800039 C 93.191056 24.82254 102.158571 24.93504 103.978574 24.992541 C 105.793577 25.050041 115.331092 28.567546 121.746103 29.362548 C 128.163613 30.160049 142.468636 36.74256 150.358649 37.19756 C 150.75865 37.22256 148.741146 34.927557 148.913647 33.565054 Z M 148.913647 33.565054 " transform="matrix(-1.562497,0,0,1.562497,447.958446,0)"/>
<path style=" stroke:none;fill-rule:nonzero;fill:rgb(98.039216%,88.235295%,50.980395%);fill-opacity:1;" d="M 407.816406 156.582031 C 404.804688 158.003906 403.207031 154.101562 401.609375 151.792969 C 400.015625 149.488281 396.820312 142.570312 400.015625 140.617188 C 403.207031 138.667969 409.769531 136.179688 413.140625 135.292969 C 416.46875 134.417969 415.367188 134.796875 422.675781 131.800781 C 422.605469 131.742188 422.535156 131.679688 422.457031 131.617188 C 422.332031 131.621094 422.214844 131.628906 422.097656 131.636719 C 395.628906 133.265625 401.675781 124.589844 391.054688 120.039062 C 371.679688 111.726562 367.253906 110.699219 326.957031 109.460938 C 304.261719 108.765625 261.546875 124.273438 209.917969 128.070312 C 193.621094 129.265625 165.269531 129.90625 154.847656 130.160156 C 148.671875 130.3125 129.148438 131.394531 109.859375 127.71875 C 96.628906 125.199219 82.867188 116.519531 76.148438 119.417969 C 76.324219 121.636719 77.300781 122.789062 77.035156 125.710938 C 76.765625 128.640625 75.082031 135.203125 76.414062 137.246094 C 77.742188 139.285156 79.429688 142.390625 80.671875 143.367188 C 81.914062 144.339844 86.433594 147.183594 88.125 147.800781 C 89.808594 148.421875 90.785156 149.3125 91.667969 149.3125 C 92.558594 149.3125 96.371094 148.867188 99.476562 149.042969 C 102.582031 149.222656 112.074219 150.640625 116.332031 152.324219 C 120.589844 154.011719 122.808594 154.898438 126.976562 156.230469 C 131.148438 157.558594 131.324219 158.445312 137.445312 160.664062 C 143.5625 162.878906 152.347656 161.464844 157.933594 163.414062 C 163.523438 165.367188 174.433594 167.851562 178.601562 169.714844 C 182.773438 171.578125 194.839844 173.53125 197.40625 174.414062 C 199.980469 175.300781 221.003906 179.734375 223.753906 180.449219 C 226.503906 181.15625 225.351562 180.710938 233.867188 181.15625 C 242.382812 181.601562 243.980469 181.246094 246.996094 181.957031 C 250.007812 182.664062 255.332031 182.046875 257.90625 181.957031 C 260.476562 181.867188 283.277344 180.980469 289.929688 179.558594 C 296.582031 178.140625 296.761719 177.699219 304.121094 177.871094 C 311.484375 178.050781 332.683594 178.320312 335.878906 177.871094 C 339.070312 177.429688 355.925781 175.570312 364 173.707031 C 372.070312 171.84375 369.941406 171.3125 370.828125 170.953125 C 371.714844 170.601562 375.707031 168.289062 380.496094 167.136719 C 385.289062 165.984375 397.351562 162.96875 407.816406 156.582031 "/>
<path style="fill-rule:nonzero;fill:rgb(92.156863%,77.254903%,27.843139%);fill-opacity:1;stroke-width:0.24;stroke-linecap:round;stroke-linejoin:round;stroke:rgb(0%,0%,0%);stroke-opacity:1;stroke-miterlimit:4;" d="M 94.096058 113.787684 C 93.841057 113.787684 93.233556 113.812685 92.056054 113.840185 C 90.308552 113.880185 87.343547 113.930185 84.201042 113.962685 C 87.343547 118.155192 85.128543 115.260187 86.776046 121.902698 C 86.776046 121.902698 88.991049 129.62271 89.44355 131.665213 C 89.896051 133.710217 93.418557 141.71523 94.101058 142.737731 C 94.781059 143.760233 97.166063 146.142737 97.846064 147.450239 C 98.528565 148.752741 99.606067 150.400244 100.743569 152.160247 C 101.87857 153.92275 101.87607 154.715251 103.751073 156.647754 C 105.621076 158.575257 106.533578 159.937759 107.043579 159.937759 C 107.55608 159.937759 107.271079 160.33526 108.178581 158.802757 C 109.088582 157.267755 110.221084 154.602751 111.018585 154.14775 C 111.813586 153.692749 112.946088 150.912745 112.946088 150.912745 L 113.68859 148.752741 C 113.68859 148.752741 114.593591 147.84774 115.051092 145.747736 C 115.503592 143.642733 115.671093 141.542729 116.353594 140.352728 C 117.033595 139.160226 117.776096 135.86772 117.776096 135.86772 C 117.776096 135.86772 118.456097 132.347715 117.831096 130.927712 C 117.206095 129.51021 115.331092 126.612705 115.276092 126.612705 C 115.218592 126.612705 113.346089 124.455202 109.881083 122.697699 C 106.418578 120.937696 103.638573 118.267692 102.276071 118.040191 C 100.913569 117.815191 98.243564 116.565189 98.243564 116.510189 C 98.243564 116.452689 96.541062 115.772688 94.781059 115.655188 C 93.983558 115.655188 93.018556 114.690186 93.018556 114.690186 C 92.501055 113.952685 94.868559 113.777684 94.096058 113.787684 Z M 94.096058 113.787684 " transform="matrix(-1.562497,0,0,1.562497,447.958446,0)"/>
<path style="fill-rule:nonzero;fill:rgb(92.156863%,77.254903%,27.843139%);fill-opacity:1;stroke-width:0.24;stroke-linecap:round;stroke-linejoin:round;stroke:rgb(0%,0%,0%);stroke-opacity:1;stroke-miterlimit:4;" d="M 198.728727 102.825167 C 194.813721 104.242669 189.191212 103.337668 185.616206 104.58517 C 182.0387 105.835172 175.056189 107.425174 172.388685 108.617676 C 169.71868 109.810178 161.996168 111.06018 160.353665 111.625181 C 158.706162 112.192682 145.251141 115.030186 143.491138 115.487687 C 141.731135 115.940188 142.071136 116.792689 142.071136 116.792689 C 142.071136 116.792689 144.343639 120.085195 147.976145 122.127698 C 151.608651 124.172701 160.238665 129.39771 164.893673 130.417711 C 169.55118 131.440213 180.563698 133.142716 183.401203 135.187719 C 186.241207 137.230222 187.82871 137.342723 190.893715 138.137724 C 193.95872 138.935225 196.458724 139.275226 198.503727 138.252724 C 200.54623 137.230222 205.881239 134.847719 207.813742 132.802715 C 209.743745 130.760212 210.426246 131.325213 212.241249 127.352706 C 214.058752 123.3777 215.421254 122.697699 214.966254 118.380192 C 214.513753 114.067685 214.401253 110.77268 213.943752 109.300177 C 213.491251 107.822675 210.538747 104.075169 209.628745 103.847668 C 208.721244 103.617668 201.168731 103.735168 201.168731 103.735168 C 199.183728 104.075169 199.353728 103.505168 198.728727 102.825167 Z M 198.728727 102.825167 " transform="matrix(-1.562497,0,0,1.562497,447.958446,0)"/>
<path style="fill-rule:nonzero;fill:rgb(81.176472%,74.117649%,49.019608%);fill-opacity:1;stroke-width:0.24;stroke-linecap:round;stroke-linejoin:round;stroke:rgb(0%,0%,0%);stroke-opacity:1;stroke-miterlimit:4;" d="M 285.438868 45.975075 C 284.793867 45.975075 283.596365 46.185075 281.106361 46.792576 C 276.678854 47.872578 269.296342 50.652582 265.266335 52.300085 C 261.233829 53.947587 258.056324 54.740089 254.138817 56.387591 C 250.846312 57.465093 246.983806 59.167596 243.4663 60.247598 C 240.913796 61.6101 230.91878 64.675105 234.041285 64.050104 C 237.16629 63.425103 237.33379 64.847605 237.676291 65.980107 C 238.016291 67.115109 239.378793 69.727613 238.981293 71.375116 C 238.583792 73.022618 238.071291 75.005122 237.958791 76.427624 C 237.846291 77.847626 237.22129 78.585127 237.39129 80.45513 C 237.56379 82.330133 238.641292 86.53014 237.788791 87.837642 C 236.938789 89.142645 235.858788 91.130148 235.063786 91.755149 C 234.268785 92.37765 231.37628 94.197653 230.293779 94.592653 C 229.216277 94.990154 228.591276 95.560155 228.026275 95.560155 C 227.456274 95.560155 234.608786 96.977657 235.971288 97.602658 C 237.33379 98.227659 246.871305 102.255166 249.54131 102.997667 C 252.208814 103.735168 264.471334 108.217675 265.778836 108.330176 C 267.081338 108.447676 278.266356 111.740181 279.231358 111.685181 C 280.196359 111.625181 283.431365 111.625181 283.431365 111.625181 L 283.318865 100.892664 C 283.318865 100.892664 281.728862 92.55015 280.82136 90.847647 C 279.913859 89.142645 277.981356 83.410135 277.301355 82.840134 C 276.618854 82.275133 275.826352 80.34263 275.826352 80.34263 C 275.826352 80.34263 276.338853 79.152628 277.018854 78.130127 C 278.381357 76.367624 279.118858 73.077618 279.856359 71.202615 C 281.616362 67.91261 283.151364 63.027602 283.546365 61.212599 C 283.546365 61.212599 286.101369 51.787584 286.101369 51.730084 C 286.101369 51.675084 286.66887 46.677576 286.271369 46.280075 C 286.096369 46.105075 285.933869 45.977575 285.438868 45.975075 Z M 285.438868 45.975075 " transform="matrix(-1.562497,0,0,1.562497,447.958446,0)"/>
<path style=" stroke:none;fill-rule:evenodd;fill:rgb(18.82353%,18.039216%,13.725491%);fill-opacity:1;" d="M 316.523438 125.683594 C 318.160156 125.679688 317.875 126.449219 319.257812 127.507812 C 320.058594 128.09375 319.886719 129.390625 320.277344 130.273438 C 320.925781 131.074219 320.640625 133.042969 321.367188 133.71875 C 321.832031 134.691406 321.664062 134.535156 321.109375 135.578125 C 320.179688 136.601562 320.035156 136.445312 318.34375 136.234375 C 317.859375 136.011719 317.503906 135.816406 317.191406 135.628906 C 317.519531 134.058594 317.46875 133.121094 317.46875 132.148438 C 317.46875 130.789062 317.558594 128.089844 316.445312 125.84375 C 316.46875 125.789062 316.480469 125.753906 316.523438 125.683594 Z M 316.523438 125.683594 "/>
<path style=" stroke:none;fill-rule:nonzero;fill:rgb(96.078432%,87.058824%,54.901963%);fill-opacity:1;" d="M 305.195312 111.976562 C 308.148438 115.386719 313.960938 122.402344 315.742188 124.695312 C 317.605469 127.089844 317.46875 130.550781 317.46875 132.148438 C 317.46875 133.746094 317.605469 135.203125 316.011719 139.601562 C 314.414062 143.988281 313.210938 148.246094 311.21875 148.515625 C 309.222656 148.78125 305.628906 149.046875 300.308594 148.515625 C 294.984375 147.984375 281.941406 146.648438 278.886719 146.25 C 275.824219 145.851562 272.230469 146.648438 269.4375 144.789062 C 266.644531 142.925781 260.257812 139.601562 256.402344 135.742188 C 253.542969 132.886719 248.304688 128.222656 244.957031 124.476562 C 269.605469 120.628906 289.351562 115.152344 305.195312 111.976562 Z M 305.195312 111.976562 "/>
<path style=" stroke:none;fill-rule:nonzero;fill:rgb(32.941177%,31.764707%,24.705882%);fill-opacity:1;" d="M 316.445312 125.84375 C 317.558594 128.089844 317.46875 130.789062 317.46875 132.148438 C 317.46875 133.121094 317.519531 134.058594 317.191406 135.628906 C 314.75 134.183594 317.03125 133.847656 314.730469 131.710938 C 313.832031 130.914062 313.988281 129.507812 314.632812 128.765625 C 315.554688 128.105469 315.4375 127.648438 316.082031 126.648438 C 316.394531 126.203125 316.273438 126.195312 316.445312 125.84375 Z M 316.445312 125.84375 "/>
<path style="fill:none;stroke-width:0.24;stroke-linecap:butt;stroke-linejoin:miter;stroke:rgb(0%,0%,0%);stroke-opacity:1;stroke-miterlimit:4;" d="M 73.718525 53.662587 C 73.718525 53.662587 75.678528 53.915087 76.78353 54.255088 C 77.891031 54.597589 80.446036 56.130091 81.808538 57.917594 C 83.17104 59.710097 85.726044 61.155099 87.003546 61.7526 C 88.281048 62.347601 88.281048 64.730105 88.193548 66.180107 C 88.108548 67.62761 86.321045 71.715116 85.556044 72.737618 C 84.788543 73.76012 81.638538 82.360134 79.933535 84.660137 C 78.231032 86.960141 72.016022 98.62516 70.481019 100.667663 C 68.951017 102.712667 64.52101 102.030165 61.626005 105.265171 C 58.731 108.502676 55.153495 106.800173 50.725987 107.565174 C 47.218482 108.175175 43.655976 107.140174 43.655976 107.140174 M 3.443411 80.26513 C 2.090909 78.615127 1.988408 76.547624 5.593414 73.530119 C 10.928423 68.592611 21.37594 59.452596 25.690947 55.930091 C 30.003454 52.412585 41.583473 44.350072 46.24098 41.852568 C 51.238488 37.992562 51.918489 36.97256 57.140998 33.962555 C 63.271008 29.590048 74.343526 24.48004 76.72853 24.085039 C 79.113533 23.687538 83.42604 22.777537 88.308548 23.800039 C 93.191056 24.82254 102.158571 24.93504 103.978574 24.992541 C 105.793577 25.050041 115.331092 28.567546 121.746103 29.362548 C 128.163613 30.160049 142.468636 36.74256 150.358649 37.19756 C 158.251162 37.652561 170.003681 45.712574 174.828689 47.302577 C 179.653696 48.892579 192.201217 58.315095 194.868721 59.792597 C 197.538725 61.267599 206.61874 64.847605 210.083746 65.412606 C 213.546251 65.980107 216.953757 66.605108 219.338761 66.605108 C 221.721265 66.605108 223.766268 67.060109 227.853775 65.640106 C 231.941281 64.222604 230.91878 64.675105 234.041285 64.050104 C 237.16629 63.425103 237.33379 64.847605 237.676291 65.980107 C 238.016291 67.115109 239.378793 69.727613 238.981293 71.375116 C 238.583792 73.022618 238.071291 75.005122 237.958791 76.427624 C 237.846291 77.847626 237.22129 78.585127 237.39129 80.45513 C 237.56379 82.330133 238.641292 86.53014 237.788791 87.837642 C 236.938789 89.142645 235.858788 91.130148 235.063786 91.755149 C 234.268785 92.37765 231.37628 94.197653 230.293779 94.592653 C 229.216277 94.990154 228.591276 95.560155 228.026275 95.560155 C 227.456274 95.560155 225.01627 95.275154 223.028767 95.387655 C 221.041264 95.502655 214.966254 96.410156 212.241249 97.487658 C 209.516245 98.56766 208.096243 99.135161 205.428738 99.987662 C 202.758734 100.837663 202.646234 101.405164 198.728727 102.825167 C 194.813721 104.242669 189.191212 103.337668 185.616206 104.58517 C 182.0387 105.835172 175.056189 107.425174 172.388685 108.617676 C 169.71868 109.810178 161.996168 111.06018 160.353665 111.625181 C 158.706162 112.192682 145.251141 115.030186 143.491138 115.487687 C 141.731135 115.940188 142.468636 115.655188 137.018627 115.940188 C 131.568619 116.225188 130.546117 115.997688 128.616114 116.452689 C 126.688611 116.90519 123.281105 116.510189 121.633602 116.452689 C 119.9886 116.392689 105.396076 115.827688 101.138569 114.917686 C 96.881062 114.010185 96.766062 113.727684 92.056054 113.840185 C 87.343547 113.952685 73.776025 114.125185 71.731021 113.840185 C 69.688518 113.555184 58.901001 112.365182 53.733492 111.17268 C 48.568484 109.980178 49.930986 109.640178 49.363485 109.410177 C 48.795984 109.185177 46.24098 107.705175 43.175975 106.967673 C 40.10847 106.235172 32.388458 104.300169 25.690947 100.212662 C 18.990936 96.125156 14.505929 93.967652 11.668424 92.210149 C 8.82842 90.450147 -0.369095 83.637636 0.143405 82.217633 C 0.653406 80.797631 1.943408 79.192628 2.74091 79.250128 M 16.550932 68.02511 C 15.980931 68.422611 15.755931 68.935112 15.755931 68.935112 M 12.745926 70.917615 C 13.143427 71.715116 13.313427 72.112617 13.313427 72.055117 " transform="matrix(-1.562497,0,0,1.562497,447.958446,0)"/>
<path style=" stroke:none;fill-rule:nonzero;fill:rgb(65.882355%,65.098041%,59.215689%);fill-opacity:1;" d="M 248.347656 72.382812 C 249.675781 72.382812 251.039062 72.507812 252.40625 72.804688 C 258.304688 74.058594 275.417969 80.511719 281.265625 84.03125 C 277.382812 84.78125 273.414062 85.421875 269.410156 85.980469 C 257.632812 87.632812 245.257812 93.203125 232.867188 98.378906 C 232.144531 94.199219 231.382812 89.195312 231.382812 88.238281 C 231.382812 86.910156 233.378906 76.265625 236.703125 74.929688 C 239.300781 73.890625 243.609375 72.363281 248.347656 72.382812 Z M 248.347656 72.382812 "/>
<path style=" stroke:none;fill-rule:nonzero;fill:rgb(49.803922%,49.803922%,76.078433%);fill-opacity:1;" d="M 316.394531 178.066406 C 311.484375 184.617188 314.945312 180.09375 312.371094 190.472656 C 312.371094 190.472656 308.910156 202.535156 308.203125 205.726562 C 307.496094 208.921875 301.992188 221.429688 300.925781 223.027344 C 299.863281 224.625 296.136719 228.351562 295.074219 230.390625 C 294.007812 232.425781 292.324219 235 290.546875 237.75 C 288.773438 240.503906 288.777344 241.742188 285.847656 244.761719 C 282.925781 247.773438 281.5 249.902344 280.703125 249.902344 C 281.285156 247.558594 285.59375 244.238281 287.523438 237.855469 C 289.707031 230.632812 293.503906 228.027344 298.148438 219.929688 C 301.40625 214.257812 301.253906 210.757812 302.988281 207.742188 C 304.222656 205.59375 307.039062 199.15625 308.316406 195.109375 C 310.179688 189.199219 310.359375 185.550781 310.746094 184.367188 C 311.488281 182.054688 314.472656 178.257812 316.394531 178.066406 Z M 316.394531 178.066406 "/>
<path style=" stroke:none;fill-rule:nonzero;fill:rgb(18.82353%,18.039216%,13.725491%);fill-opacity:1;" d="M 103.347656 104.117188 C 100.328125 104.226562 97.226562 104.398438 91.9375 102.5625 C 88.089844 101.226562 87.136719 100.953125 85.925781 100.734375 C 83.167969 101.945312 87.289062 104.359375 89.734375 105.933594 C 91.460938 107.039062 92.480469 109.175781 94.441406 109.628906 C 97.097656 110.242188 97.554688 109.8125 99.664062 108.984375 C 100.746094 108.398438 102.75 108.398438 103.53125 107.601562 C 104.59375 106.523438 104.9375 105.308594 103.347656 104.117188 Z M 103.347656 104.117188 "/>
<path style="fill:none;stroke-width:0.24;stroke-linecap:round;stroke-linejoin:round;stroke:rgb(0%,0%,0%);stroke-opacity:1;stroke-miterlimit:4;" d="M 127.751112 46.325075 C 126.901111 46.327575 126.02861 46.405075 125.153608 46.592576 C 121.151102 47.442577 109.058582 52.042584 106.078577 54.172588 C 103.096072 56.302591 100.031067 60.475098 98.753565 62.602601 C 97.478563 64.730105 93.476057 69.247612 91.688554 71.290116 C 89.896051 73.335119 85.808544 78.272627 84.618542 79.805129 C 83.42604 81.337632 83.513541 83.552635 83.513541 84.575137 C 83.513541 85.597639 83.42604 86.53014 84.446042 89.342645 C 85.468544 92.152649 86.238545 94.877654 87.513547 95.047654 C 88.791049 95.217654 91.091053 95.387655 94.496058 95.047654 C 97.903564 94.705154 106.251077 93.855152 108.206081 93.600152 C 110.166084 93.342651 112.466088 93.855152 114.25359 92.66265 C 116.041093 91.472648 120.1286 89.342645 122.601104 86.872641 C 125.068608 84.402637 130.346117 79.805129 131.626119 77.422626 C 132.903621 75.037622 136.651127 68.13761 137.158628 65.667606 C 137.671128 63.200102 138.60863 57.325093 138.60863 56.472592 C 138.60863 55.62259 137.331128 48.805079 135.203624 47.955078 C 133.538622 47.290077 130.783617 46.312575 127.751112 46.325075 Z M 127.751112 46.325075 " transform="matrix(-1.562497,0,0,1.562497,447.958446,0)"/>
<path style="fill-rule:nonzero;fill:rgb(77.254903%,67.058825%,36.862746%);fill-opacity:1;stroke-width:0.24;stroke-linecap:butt;stroke-linejoin:miter;stroke:rgb(0%,0%,0%);stroke-opacity:1;stroke-miterlimit:4;" d="M 6.700916 82.872634 C 5.763415 82.340133 3.483411 80.762631 2.74091 79.250128 C 1.943408 79.192628 0.653406 80.797631 0.143405 82.217633 C -0.369095 83.637636 8.82842 90.450147 11.668424 92.210149 C 14.505929 93.967652 18.990936 96.125156 25.690947 100.212662 C 27.61845 101.122664 28.640952 98.62516 29.663453 97.147658 C 30.683455 95.672655 32.728458 91.242648 30.683455 89.992646 C 28.640952 88.747644 24.440945 87.155141 22.283441 86.58764 C 20.125938 86.022639 16.265932 84.660137 13.088426 82.160133 C 10.133422 79.210128 5.253414 74.21262 3.628411 75.515122 C 2.105909 77.500126 2.408409 79.005128 3.443411 80.26513 C 4.438412 81.472632 6.095915 82.450134 7.465917 83.410135 C 8.063418 83.977636 8.443419 84.190136 9.11342 84.772637 C 9.26592 84.937638 13.150927 87.855142 15.13093 89.992646 C 22.005941 96.940157 19.783437 96.012656 26.030947 98.62516 " transform="matrix(-1.562497,0,0,1.562497,447.958446,0)"/>
<path style="fill-rule:nonzero;fill:rgb(61.176473%,60.000002%,47.843137%);fill-opacity:1;stroke-width:0.24;stroke-linecap:butt;stroke-linejoin:miter;stroke:rgb(0%,0%,0%);stroke-opacity:1;stroke-miterlimit:4;" d="M 22.878442 70.692615 C 23.900944 72.992618 25.690947 76.825125 28.755952 77.590126 C 31.820957 78.355127 32.075957 79.635129 36.675965 78.102627 C 41.270972 76.567624 41.018472 76.567624 43.063475 73.247619 C 45.105978 69.927613 44.850978 68.13761 44.593477 65.585106 C 44.338477 63.027602 41.270972 59.197596 38.718468 58.430095 C 36.163464 57.665093 32.330958 57.410093 28.755952 58.175094 C 25.178446 58.940096 24.668445 61.240099 23.900944 62.517601 C 23.133443 63.797603 21.855941 68.392611 22.878442 70.692615 Z M 22.878442 70.692615 " transform="matrix(-1.562497,0,0,1.562497,447.958446,0)"/>
<path style="fill-rule:nonzero;fill:rgb(10.980392%,10.980392%,7.843138%);fill-opacity:1;stroke-width:0.24;stroke-linecap:butt;stroke-linejoin:miter;stroke:rgb(0%,0%,0%);stroke-opacity:1;stroke-miterlimit:4;" d="M 32.843458 61.4976 C 30.030954 61.7526 28.755952 61.4976 27.47845 63.285103 C 26.200948 65.072605 25.463446 71.600116 27.138449 73.84262 C 28.328451 74.610121 29.438453 75.290122 31.053456 75.290122 C 32.670958 75.290122 35.140962 75.122622 36.250964 74.610121 C 37.355966 74.10012 38.888468 74.26762 39.82597 72.992618 C 40.763471 71.715116 41.188472 71.035115 41.103472 69.075112 C 41.018472 67.115109 41.018472 65.752607 40.16597 64.562605 C 39.315969 63.367603 38.718468 61.7526 37.100965 61.325099 C 35.480963 60.900099 35.653463 61.240099 32.843458 61.4976 Z M 32.843458 61.4976 " transform="matrix(-1.562497,0,0,1.562497,447.958446,0)"/>
<path style=" stroke:none;fill-rule:nonzero;fill:rgb(100%,100%,100%);fill-opacity:1;" d="M 406.621094 105.136719 C 406.089844 105.800781 405.425781 106.070312 403.695312 105.539062 C 401.960938 105.003906 401.429688 104.070312 398.238281 103.941406 C 395.042969 103.804688 393.582031 103.804688 392.117188 104.070312 C 390.652344 104.335938 389.722656 103.40625 389.457031 104.070312 C 389.1875 104.734375 387.058594 105.269531 390.253906 105.933594 C 393.445312 106.601562 393.980469 108.199219 396.375 108.199219 C 398.769531 108.199219 398.90625 109.261719 401.296875 108.992188 C 403.695312 108.730469 406.089844 110.058594 406.21875 110.722656 C 406.355469 111.390625 409.0625 110.277344 409.0625 109.214844 C 409.0625 108.148438 407.152344 104.472656 406.621094 105.136719 Z M 406.621094 105.136719 "/>
<path style=" stroke:none;fill-rule:nonzero;fill:rgb(18.82353%,18.039216%,13.725491%);fill-opacity:1;" d="M 420.769531 108.0625 C 422.808594 110.632812 424.316406 111.609375 425.738281 113.382812 C 427.597656 115.070312 429.90625 116.046875 429.105469 118.171875 C 428.308594 120.304688 427.507812 121.101562 423.519531 122.167969 C 419.527344 123.234375 416.332031 121.367188 415.269531 121.101562 C 414.203125 120.835938 413.40625 118.976562 413.671875 116.84375 C 413.941406 114.71875 416.15625 112.230469 416.601562 110.460938 C 417.046875 109.304688 416.15625 108.328125 416.601562 106.203125 C 416.777344 104.25 418.109375 105.582031 420.769531 108.0625 Z M 420.769531 108.0625 "/>
<path style="fill:none;stroke-width:0.800001;stroke-linecap:round;stroke-linejoin:miter;stroke:rgb(49.803922%,49.803922%,76.078433%);stroke-opacity:1;stroke-miterlimit:4;" d="M 17.963434 78.352627 C 19.390937 78.192627 20.463438 77.617626 20.920939 77.505126 C 21.60344 77.335125 22.113441 76.142623 21.943441 74.780121 C 21.77094 73.417619 20.353438 71.827616 20.068438 70.692615 C 19.783437 69.955113 20.353438 69.330112 20.068438 67.96761 C 19.955938 66.717608 19.103436 67.57261 17.400933 69.160112 C 16.095931 70.805115 15.13093 71.430116 14.220928 72.565118 " transform="matrix(-1.562497,0,0,1.562497,447.958446,0)"/>
</g>
</svg>
