<?xml version="1.0" encoding="UTF-8"?>
<!-- Created by grConvert v0.1-0 -->
<svg xmlns="http://www.w3.org/2000/svg" xmlns:xlink="http://www.w3.org/1999/xlink" width="358pt" height="200pt" viewBox="0 0 358 200" version="1.1">
<g id="surface129">
<path style=" stroke:none;fill-rule:nonzero;fill:rgb(81.960784%,74.117647%,49.803922%);fill-opacity:1;" d="M 92.148438 67.078125 C 92.148438 67.078125 94.597656 67.394531 95.980469 67.820312 C 97.363281 68.246094 100.558594 70.164062 102.261719 72.398438 C 103.964844 74.636719 107.15625 76.445312 108.753906 77.191406 C 110.351562 77.933594 110.351562 80.914062 110.242188 82.726562 C 110.136719 84.535156 107.902344 89.644531 106.945312 90.921875 C 105.984375 92.199219 102.046875 102.949219 99.917969 105.824219 C 97.789062 108.699219 90.019531 123.28125 88.101562 125.835938 C 86.1875 128.390625 80.652344 127.539062 77.03125 131.582031 C 73.414062 135.628906 68.941406 133.5 63.40625 134.457031 C 59.023438 135.21875 54.570312 133.925781 54.570312 133.925781 M 4.304688 100.332031 C 2.613281 98.269531 2.484375 95.683594 6.992188 91.914062 C 13.660156 85.742188 26.71875 74.316406 32.113281 69.914062 C 37.503906 65.515625 51.980469 55.4375 57.800781 52.316406 C 64.046875 47.492188 64.898438 46.214844 71.425781 42.453125 C 79.089844 36.988281 92.929688 30.601562 95.910156 30.105469 C 98.890625 29.609375 104.28125 28.472656 110.386719 29.75 C 116.488281 31.027344 127.699219 31.167969 129.972656 31.242188 C 132.242188 31.3125 144.164062 35.710938 152.183594 36.703125 C 160.203125 37.699219 178.085938 45.929688 187.949219 46.496094 C 197.8125 47.066406 212.503906 57.140625 218.535156 59.128906 C 224.566406 61.117188 240.25 72.894531 243.585938 74.742188 C 246.921875 76.585938 258.273438 81.058594 262.605469 81.765625 C 266.933594 82.476562 271.191406 83.257812 274.171875 83.257812 C 277.152344 83.257812 279.707031 83.824219 284.816406 82.050781 C 289.925781 80.277344 288.648438 80.84375 292.550781 80.0625 C 296.457031 79.28125 296.667969 81.058594 297.09375 82.476562 C 297.519531 83.894531 299.222656 87.160156 298.726562 89.21875 C 298.230469 91.277344 297.589844 93.757812 297.449219 95.535156 C 297.308594 97.308594 296.527344 98.230469 296.738281 100.570312 C 296.953125 102.914062 298.300781 108.164062 297.234375 109.796875 C 296.171875 111.429688 294.824219 113.914062 293.828125 114.695312 C 292.835938 115.472656 289.21875 117.746094 287.867188 118.242188 C 286.519531 118.738281 285.738281 119.449219 285.03125 119.449219 C 284.320312 119.449219 281.269531 119.09375 278.785156 119.234375 C 276.300781 119.378906 268.707031 120.511719 265.300781 121.859375 C 261.894531 123.210938 260.121094 123.917969 256.785156 124.984375 C 253.449219 126.046875 253.308594 126.757812 248.410156 128.53125 C 243.515625 130.304688 236.488281 129.171875 232.019531 130.730469 C 227.546875 132.292969 218.820312 134.28125 215.484375 135.773438 C 212.148438 137.261719 202.496094 138.824219 200.441406 139.53125 C 198.382812 140.242188 181.5625 143.789062 179.363281 144.359375 C 177.164062 144.925781 178.085938 144.570312 171.273438 144.925781 C 164.460938 145.28125 163.183594 144.996094 160.769531 145.566406 C 158.359375 146.132812 154.101562 145.636719 152.042969 145.566406 C 149.984375 145.492188 131.746094 144.785156 126.421875 143.648438 C 121.101562 142.511719 120.957031 142.160156 115.070312 142.300781 C 109.179688 142.441406 92.21875 142.65625 89.664062 142.300781 C 87.109375 141.945312 73.625 140.457031 67.167969 138.964844 C 60.710938 137.476562 62.414062 137.050781 61.703125 136.761719 C 60.996094 136.480469 57.800781 134.632812 53.96875 133.710938 C 50.136719 132.792969 40.484375 130.375 32.113281 125.265625 C 23.738281 120.15625 18.132812 117.460938 14.585938 115.261719 C 11.035156 113.0625 -0.460938 104.546875 0.179688 102.773438 C 0.816406 100.996094 2.429688 98.992188 3.425781 99.0625 M 20.6875 85.03125 C 19.976562 85.527344 19.695312 86.167969 19.695312 86.167969 M 15.933594 88.648438 C 16.429688 89.644531 16.640625 90.140625 16.640625 90.070312 "/>
<path style=" stroke:none;fill-rule:nonzero;fill:rgb(81.176471%,74.901961%,54.117647%);fill-opacity:1;" d="M 159.6875 57.90625 C 158.625 57.910156 157.535156 58.007812 156.441406 58.242188 C 151.4375 59.304688 136.324219 65.054688 132.597656 67.714844 C 128.871094 70.378906 125.039062 75.59375 123.441406 78.253906 C 121.847656 80.914062 116.84375 86.558594 114.609375 89.113281 C 112.371094 91.667969 107.261719 97.839844 105.773438 99.757812 C 104.28125 101.671875 104.390625 104.441406 104.390625 105.71875 C 104.390625 106.996094 104.28125 108.164062 105.558594 111.679688 C 106.835938 115.191406 107.796875 118.597656 109.390625 118.808594 C 110.988281 119.023438 113.863281 119.234375 118.121094 118.808594 C 122.378906 118.382812 132.8125 117.320312 135.257812 117 C 137.707031 116.679688 140.582031 117.320312 142.816406 115.828125 C 145.050781 114.339844 150.160156 111.679688 153.25 108.589844 C 156.335938 105.503906 162.933594 99.757812 164.53125 96.777344 C 166.128906 93.796875 170.8125 85.171875 171.449219 82.085938 C 172.089844 79 173.261719 71.65625 173.261719 70.589844 C 173.261719 69.527344 171.664062 61.007812 169.003906 59.945312 C 166.921875 59.113281 163.480469 57.890625 159.6875 57.90625 Z M 159.6875 57.90625 "/>
<path style=" stroke:none;fill-rule:nonzero;fill:rgb(66.666667%,65.490196%,55.294118%);fill-opacity:1;" d="M 95.910156 30.105469 C 98.890625 29.609375 104.28125 28.472656 110.386719 29.75 C 116.488281 31.027344 127.699219 31.167969 129.972656 31.242188 C 132.242188 31.3125 144.164062 35.710938 152.183594 36.703125 C 160.203125 37.699219 178.085938 45.929688 187.949219 46.496094 C 197.8125 47.066406 212.503906 57.140625 218.535156 59.128906 C 224.566406 61.117188 240.25 72.894531 243.585938 74.742188 C 235.433594 75.609375 221.761719 85.746094 203.285156 86.660156 C 183.773438 87.628906 162.292969 71.507812 142.839844 68.785156 C 116.457031 65.09375 91.835938 57.265625 95.910156 30.105469 Z M 95.910156 30.105469 "/>
<path style="fill-rule:nonzero;fill:rgb(66.666667%,65.490196%,55.294118%);fill-opacity:1;stroke-width:0.24;stroke-linecap:butt;stroke-linejoin:miter;stroke:rgb(0%,0%,0%);stroke-opacity:1;stroke-miterlimit:4;" d="M 126.203227 0.121875 C 125.462601 0.115625 124.265724 0.753126 123.790723 0.978126 C 122.712596 1.490627 121.121969 2.281253 119.987592 2.853129 C 118.853216 3.418755 117.943839 3.759381 116.240712 4.953133 C 114.537584 6.143759 111.81258 8.584388 110.621953 8.984389 C 109.428201 9.381264 109.825077 9.381264 109.540701 8.700013 C 109.259451 8.018762 109.259451 7.562512 109.540701 5.121883 C 109.825077 2.681254 108.74695 4.440632 106.931322 5.462508 C 105.11257 6.484385 104.940694 7.053136 103.237567 8.643763 C 101.534439 10.231266 100.628188 10.459391 99.437561 10.800016 C 98.243809 11.140642 97.787558 10.459391 97.446933 8.868764 C 97.353183 8.431263 97.965684 6.68751 97.337558 6.940636 C 95.681305 7.596887 91.706299 11.793768 90.634422 13.071895 C 89.15942 14.831273 87.171917 15.340648 87.059417 15.056273 C 86.946917 14.775023 86.606291 14.603147 86.378166 14.603147 C 86.150041 14.603147 83.993787 16.418775 83.200036 17.043776 C 82.40316 17.668777 74.343773 24.481287 76.728151 24.084412 C 79.11253 23.687536 83.425036 22.77816 88.309419 23.800036 C 93.190676 24.821913 102.162565 24.934413 103.978193 24.993788 C 105.793821 25.050038 115.331335 28.568794 121.74697 29.362545 C 128.162605 30.159421 142.468877 36.743806 150.359514 37.196932 C 158.250151 37.653182 170.003294 45.71257 174.828301 47.303197 C 179.653308 48.893825 192.200202 58.315714 194.868957 59.793841 C 196.725209 60.818843 201.684592 62.862596 205.697098 64.203223 C 207.456476 64.787599 205.825223 63.256347 206.618975 62.859471 C 207.415851 62.462595 210.597106 62.859471 212.128358 62.915721 C 213.662735 62.971971 218.031492 62.34697 219.622119 61.665719 C 221.212747 60.984468 220.531496 56.556336 220.587746 55.250084 C 220.615871 54.575083 221.303372 51.831329 220.928371 49.1782 C 220.575246 46.696946 219.162744 44.300068 219.053368 43.668817 C 218.940868 43.025066 217.762742 40.446937 216.215864 38.050058 C 214.631487 35.593804 212.672109 33.315676 212.356483 32.71255 C 211.728357 31.521923 206.168974 26.46879 205.147097 25.787539 C 204.125221 25.106288 197.481461 20.565656 196.400209 20.053156 C 195.322082 19.54378 193.618955 18.065653 189.928324 17.159401 C 188.378322 16.775026 186.862694 15.996899 185.218942 15.625024 C 182.953313 15.112523 180.66581 15.071898 179.709558 15.171898 C 178.065806 15.340648 177.665805 15.171898 176.703304 15.056273 C 175.737677 14.943773 176.022053 14.775023 174.772051 15.000023 C 173.522049 15.228148 173.012673 15.625024 171.990797 16.021899 C 170.96892 16.418775 170.512669 16.250025 169.434543 16.306275 C 168.356416 16.362525 168.243916 15.568774 167.787665 15.284398 C 167.33454 15.000023 166.425163 15.228148 164.440785 15.284398 C 162.453282 15.340648 163.078283 15.171898 162.565782 14.262522 C 162.056406 13.353145 161.940781 12.559394 161.940781 12.559394 C 161.940781 12.559394 161.09078 12.390644 159.953278 12.446894 C 158.818902 12.500019 158.478276 12.106268 157.797025 11.537518 C 157.115774 10.968767 157.287649 10.912517 156.547023 9.493764 C 155.809522 8.071887 156.322023 8.753138 155.356396 8.643763 C 154.39077 8.528138 154.050144 8.700013 151.893891 8.700013 C 149.734513 8.700013 150.928264 8.303138 150.247013 7.506261 C 149.565762 6.709385 149.678263 6.428135 149.678263 6.428135 C 149.678263 6.428135 148.600136 6.76876 147.750135 6.940636 C 146.897008 7.109386 146.215757 7.621887 144.740755 7.390636 C 143.262628 7.165636 143.887629 6.36876 143.887629 6.36876 L 143.434503 4.950008 C 143.434503 4.950008 141.618875 5.631259 140.653249 5.971884 C 139.687622 6.31251 138.721996 6.484385 138.153245 6.31251 C 137.587619 6.143759 137.415744 5.237508 136.790743 3.24688 C 136.168867 1.259377 135.487616 1.771878 134.521989 2.000003 C 133.556363 2.225003 133.215737 2.453129 132.306361 2.906254 C 131.40011 3.362505 128.218855 4.496882 127.709479 4.440632 C 127.196978 4.384382 126.403227 4.384382 126.515727 2.906254 C 126.568852 2.231253 127.115728 0.609376 126.631352 0.2375 C 126.521977 0.15625 126.375102 0.121875 126.203227 0.121875 Z M 126.203227 0.121875 " transform="matrix(1.249998,0,0,1.249998,0.000113621,0)"/>
<path style="fill-rule:nonzero;fill:rgb(48.235294%,46.666667%,36.078431%);fill-opacity:1;stroke-width:0.24;stroke-linecap:butt;stroke-linejoin:miter;stroke:rgb(0%,0%,0%);stroke-opacity:1;stroke-miterlimit:4;" d="M 148.912636 33.565676 C 149.081387 32.203174 150.359514 30.412546 151.297015 29.050044 C 152.234516 27.687542 155.384521 25.475039 157.428274 23.940662 C 159.472028 22.409409 159.812653 21.812533 162.112657 19.51253 C 164.41266 17.215651 164.728286 18.275028 165.287661 16.875026 C 164.178285 17.384402 161.940781 19.003154 160.750154 19.76878 C 159.556403 20.534406 158.790776 21.046907 157.259524 22.237534 C 155.725147 23.431286 154.106394 24.112537 152.828267 25.475039 C 151.553265 26.837541 150.615764 27.093791 149.850138 27.603167 C 149.081387 28.115668 146.103257 30.753172 144.82513 31.775049 C 143.547003 32.796925 143.037627 32.884425 142.356376 32.031299 C 141.675125 31.181298 142.950127 30.243796 143.887629 28.881294 C 144.82513 27.518792 146.103257 26.41254 147.718885 24.709413 C 149.337637 23.006285 149.253262 23.259411 151.297015 21.303158 C 153.340768 19.34378 153.509518 19.853155 156.237648 17.300026 C 157.018899 16.4094 158.628276 15.231273 158.503276 14.890648 C 157.381399 15.425024 156.150147 16.362525 153.681394 17.809402 C 151.21264 19.259404 149.850138 20.281281 148.912636 20.706282 C 147.975135 21.131282 142.356376 24.793788 139.203247 28.200043 C 136.053242 31.606298 135.796991 28.796919 136.650118 26.837541 C 137.500119 24.878163 138.353245 24.962538 139.459497 23.346911 C 140.565749 21.728158 144.40013 18.578153 148.05951 15.512524 C 151.722016 12.446894 151.722016 12.359394 149.850138 13.296895 C 147.975135 14.234397 147.209509 14.659397 145.675131 15.681274 C 144.143879 16.70315 142.184501 17.725027 140.225123 19.60003 C 138.26887 21.471908 142.356376 17.809402 133.925114 24.793788 C 125.493851 31.775049 131.965736 25.303164 132.221986 23.856286 C 132.478236 22.409409 133.243863 21.046907 134.521989 19.34378 C 135.796991 17.640652 138.096995 16.5344 143.462628 12.190644 C 148.828261 7.846887 145.422006 9.806265 143.887629 10.403141 C 142.356376 10.996892 141.675125 11.934393 139.884498 12.95627 C 138.096995 13.978146 136.225117 15.681274 134.69074 16.787526 C 133.159487 17.896902 132.562611 19.171904 127.537604 22.493784 C 122.512596 25.815664 122.684471 24.196912 123.365722 22.578159 C 124.046973 20.962532 125.153225 20.281281 127.112603 17.809402 C 129.071981 15.340648 131.200109 14.062521 134.94699 11.168767 C 138.693871 8.271888 138.26887 7.081261 135.456366 9.63439 C 132.646987 12.190644 133.412613 10.912517 131.62511 12.190644 C 129.837607 13.468771 129.753232 13.893771 121.406344 19.428155 C 113.062582 24.962538 116.381337 20.706282 116.721962 18.406278 C 116.906338 17.162526 118.871966 15.015648 121.406344 12.940645 C 123.384472 11.318767 125.753226 9.053139 127.878229 7.800012 C 128.06573 7.690637 129.212606 7.131261 129.396982 7.025011 C 130.543858 6.128134 131.509485 5.656259 131.90636 4.487507 C 129.434482 6.190634 128.050105 6.740635 126.431352 7.931262 C 124.8126 9.125014 123.281347 9.975015 122.428221 10.231266 C 121.57822 10.487516 120.468843 11.678143 112.890706 17.896902 C 105.31257 24.112537 109.740702 17.981277 110.081327 15.937524 C 110.421953 13.893771 116.212587 9.209389 120.128217 5.206258 C 124.046973 1.203127 119.703217 4.440632 117.915714 5.718759 C 116.128211 6.993761 115.44696 7.165636 113.315707 8.953139 C 111.187579 10.743766 107.440698 13.809396 106.162571 14.659397 C 104.887569 15.512524 101.99069 18.321903 100.115687 20.875032 C 98.243809 23.431286 97.478183 22.237534 97.390683 22.237534 C 97.306308 22.237534 97.478183 20.450031 97.731308 19.51253 C 97.987559 18.578153 100.796938 14.318772 102.15944 12.95627 C 103.521942 11.593768 106.078196 7.506261 105.653195 8.103137 C 105.228195 8.696888 103.609442 10.062515 102.500066 11.253142 C 101.393814 12.446894 95.262555 17.981277 94.240678 19.003154 C 93.218801 20.025031 92.196925 21.984409 90.918798 22.578159 C 89.643796 23.175035 89.812546 22.068784 89.556296 21.471908 C 89.30317 20.875032 91.600049 15.425024 92.3688 14.062521 C 93.134426 12.700019 95.262555 9.550015 94.496928 10.315641 C 93.731302 11.084392 92.962551 12.190644 92.196925 12.871895 C 91.431299 13.553146 91.175048 13.468771 89.387546 16.787526 C 87.600043 20.109406 85.72504 22.153159 84.787539 22.237534 C 83.853162 22.325034 83.171911 21.896908 83.256286 21.556283 C 83.340661 21.215657 83.937537 19.684405 84.362538 18.831279 C 84.787539 17.981277 86.578166 15.425024 86.406291 15.084398 C 86.237541 14.743773 83.853162 17.809402 82.65941 19.60003 C 81.468783 21.387533 74.343773 24.481287 76.728151 24.084412 C 79.11253 23.687536 83.425036 22.77816 88.309419 23.800036 C 93.190676 24.821913 102.15944 24.934413 103.978193 24.993788 C 105.793821 25.050038 115.331335 28.568794 121.74697 29.362545 C 128.162605 30.159421 142.468877 36.743806 150.359514 37.196932 C 150.759514 37.221932 148.740761 34.928178 148.912636 33.565676 Z M 148.912636 33.565676 " transform="matrix(1.249998,0,0,1.249998,0.000113621,0)"/>
<path style=" stroke:none;fill-rule:nonzero;fill:rgb(98.431373%,88.235294%,51.372549%);fill-opacity:1;" d="M 32.113281 125.265625 C 34.523438 126.402344 35.800781 123.28125 37.078125 121.433594 C 38.355469 119.589844 40.910156 114.054688 38.355469 112.492188 C 35.800781 110.933594 30.550781 108.945312 27.855469 108.234375 C 25.191406 107.535156 26.074219 107.835938 20.226562 105.441406 C 20.28125 105.394531 20.339844 105.34375 20.402344 105.292969 C 20.5 105.296875 20.59375 105.304688 20.6875 105.308594 C 41.863281 106.613281 37.027344 99.671875 45.523438 96.03125 C 61.023438 89.382812 64.5625 88.558594 96.800781 87.570312 C 114.957031 87.011719 149.128906 99.417969 190.433594 102.457031 C 203.46875 103.414062 226.152344 103.925781 234.488281 104.128906 C 239.429688 104.25 255.046875 105.117188 270.480469 102.175781 C 281.0625 100.160156 292.074219 93.214844 297.449219 95.535156 C 297.308594 97.308594 296.527344 98.230469 296.738281 100.570312 C 296.953125 102.914062 298.300781 108.164062 297.234375 109.796875 C 296.171875 111.429688 294.824219 113.914062 293.828125 114.695312 C 292.835938 115.472656 289.21875 117.746094 287.867188 118.242188 C 286.519531 118.738281 285.738281 119.449219 285.03125 119.449219 C 284.320312 119.449219 281.269531 119.09375 278.785156 119.234375 C 276.300781 119.378906 268.707031 120.511719 265.300781 121.859375 C 261.894531 123.210938 260.121094 123.917969 256.785156 124.984375 C 253.449219 126.046875 253.308594 126.757812 248.410156 128.53125 C 243.515625 130.304688 236.488281 129.171875 232.019531 130.730469 C 227.546875 132.292969 218.820312 134.28125 215.484375 135.773438 C 212.148438 137.261719 202.496094 138.824219 200.441406 139.53125 C 198.382812 140.242188 181.5625 143.789062 179.363281 144.359375 C 177.164062 144.925781 178.085938 144.570312 171.273438 144.925781 C 164.460938 145.28125 163.183594 144.996094 160.769531 145.566406 C 158.359375 146.132812 154.101562 145.636719 152.042969 145.566406 C 149.984375 145.492188 131.746094 144.785156 126.421875 143.648438 C 121.101562 142.511719 120.957031 142.160156 115.070312 142.296875 C 109.179688 142.441406 92.21875 142.65625 89.664062 142.296875 C 87.109375 141.945312 73.625 140.457031 67.167969 138.964844 C 60.710938 137.476562 62.414062 137.050781 61.703125 136.761719 C 60.996094 136.480469 57.800781 134.632812 53.96875 133.710938 C 50.136719 132.789062 40.484375 130.375 32.113281 125.265625 "/>
<path style="fill-rule:nonzero;fill:rgb(92.54902%,77.647059%,28.235294%);fill-opacity:1;stroke-width:0.24;stroke-linecap:round;stroke-linejoin:round;stroke:rgb(0%,0%,0%);stroke-opacity:1;stroke-miterlimit:4;" d="M 94.096928 113.787674 C 93.840677 113.787674 93.234426 113.812674 92.0563 113.840799 C 90.309422 113.881424 87.343792 113.931424 84.200038 113.962674 C 87.343792 118.15643 85.128164 115.259551 86.775042 121.903311 C 86.775042 121.903311 88.99067 129.622073 89.443796 131.665826 C 89.896921 133.709579 93.418802 141.715841 94.100053 142.737718 C 94.781304 143.759594 97.165682 146.143973 97.846933 147.450225 C 98.528185 148.753352 99.606311 150.40023 100.743813 152.159607 C 101.87819 153.92211 101.875065 154.715861 103.750067 156.647114 C 105.621945 158.575242 106.534447 159.937744 107.043823 159.937744 C 107.556323 159.937744 107.271948 160.33462 108.178199 158.803367 C 109.087576 157.26899 110.221952 154.603361 111.018829 154.14711 C 111.81258 153.693985 112.946957 150.91273 112.946957 150.91273 L 113.687583 148.753352 C 113.687583 148.753352 114.593834 147.847101 115.050085 145.747097 C 115.50321 143.643969 115.671961 141.543966 116.353212 140.353339 C 117.034463 139.159587 117.775089 135.868957 117.775089 135.868957 C 117.775089 135.868957 118.45634 132.347077 117.831339 130.928325 C 117.206338 129.509573 115.331335 126.612693 115.275085 126.612693 C 115.218835 126.612693 113.346957 124.45644 109.881327 122.697062 C 106.418822 120.937685 103.637567 118.268931 102.275065 118.040805 C 100.912563 117.815805 98.243809 116.565803 98.243809 116.509553 C 98.243809 116.453303 96.540681 115.772052 94.781304 115.656427 C 93.984428 115.656427 93.018801 114.6908 93.018801 114.6908 C 92.50005 113.953299 94.868804 113.778299 94.096928 113.787674 Z M 94.096928 113.787674 " transform="matrix(1.249998,0,0,1.249998,0.000113621,0)"/>
<path style="fill-rule:nonzero;fill:rgb(92.54902%,77.647059%,28.235294%);fill-opacity:1;stroke-width:0.24;stroke-linecap:round;stroke-linejoin:round;stroke:rgb(0%,0%,0%);stroke-opacity:1;stroke-miterlimit:4;" d="M 198.728337 102.825157 C 194.812706 104.243909 189.190823 103.337658 185.615817 104.584535 C 182.037687 105.834537 175.056426 107.425164 172.387672 108.618916 C 169.718918 109.809543 161.997031 111.059545 160.353279 111.62517 C 158.706401 112.193921 145.250131 115.031426 143.490753 115.487676 C 141.731375 115.940802 142.072001 116.793928 142.072001 116.793928 C 142.072001 116.793928 144.343879 120.084558 147.975135 122.128311 C 151.609516 124.172065 160.237654 129.397073 164.893911 130.418949 C 169.550168 131.440826 180.562685 133.143953 183.400189 135.187706 C 186.240818 137.231459 187.828321 137.34396 190.893951 138.137711 C 193.95958 138.934587 196.459584 139.275213 198.503337 138.253336 C 200.54709 137.231459 205.881473 134.847081 207.812726 132.803328 C 209.743979 130.759575 210.42523 131.3252 212.240858 127.353319 C 214.059611 123.378313 215.422113 122.697062 214.965862 118.381431 C 214.512737 114.068924 214.400236 110.772044 213.943986 109.300167 C 213.49086 107.82204 210.53773 104.075159 209.628354 103.847034 C 208.722103 103.618908 201.168966 103.734533 201.168966 103.734533 C 199.184588 104.075159 199.353338 103.506408 198.728337 102.825157 Z M 198.728337 102.825157 " transform="matrix(1.249998,0,0,1.249998,0.000113621,0)"/>
<path style="fill-rule:nonzero;fill:rgb(81.960784%,74.117647%,49.803922%);fill-opacity:1;stroke-width:0.24;stroke-linecap:round;stroke-linejoin:round;stroke:rgb(0%,0%,0%);stroke-opacity:1;stroke-miterlimit:4;" d="M 285.437845 45.97507 C 284.794094 45.97507 283.597217 46.184446 281.106588 46.793821 C 276.678456 47.871948 269.297195 50.653202 265.265939 52.30008 C 261.234683 53.946957 258.056553 54.740709 254.137797 56.387586 C 250.847167 57.465713 246.984661 59.16884 243.465906 60.246967 C 240.912777 61.609469 230.919012 64.675099 234.040891 64.050098 C 237.165896 63.425097 237.334646 64.846974 237.675272 65.981351 C 238.015897 67.115727 239.3784 69.728231 238.981524 71.375109 C 238.584648 73.021986 238.072148 75.006364 237.959647 76.428242 C 237.847147 77.846994 237.222146 78.584495 237.390896 80.456373 C 237.562772 82.331376 238.640898 86.531382 237.787772 87.837634 C 236.937771 89.143886 235.859644 91.131389 235.062768 91.75639 C 234.269017 92.378266 231.375262 94.197019 230.294011 94.593894 C 229.215884 94.99077 228.590883 95.559521 228.025257 95.559521 C 227.456506 95.559521 234.609642 96.978273 235.972144 97.603274 C 237.334646 98.228275 246.872161 102.256406 249.540915 102.997032 C 252.209669 103.734533 264.472188 108.218915 265.77844 108.331415 C 267.081567 108.447041 278.265959 111.740796 279.231585 111.684545 C 280.197212 111.62517 283.431592 111.62517 283.431592 111.62517 L 283.319092 100.893904 C 283.319092 100.893904 281.728464 92.550141 280.822213 90.847014 C 279.912836 89.143886 277.981583 83.409502 277.300332 82.840751 C 276.619081 82.275126 275.82533 80.343873 275.82533 80.343873 C 275.82533 80.343873 276.337831 79.153246 277.019082 78.131369 C 278.381584 76.368867 279.119085 73.078237 279.856586 71.203234 C 281.615964 67.912604 283.150341 63.028221 283.547217 61.212593 C 283.547217 61.212593 286.100346 51.787579 286.100346 51.731329 C 286.100346 51.675079 286.669097 46.678196 286.272221 46.281321 C 286.097221 46.10632 285.934721 45.978195 285.437845 45.97507 Z M 285.437845 45.97507 " transform="matrix(1.249998,0,0,1.249998,0.000113621,0)"/>
<path style=" stroke:none;fill-rule:evenodd;fill:rgb(19.607843%,18.823529%,14.901961%);fill-opacity:1;" d="M 105.148438 100.546875 C 103.839844 100.542969 104.066406 101.160156 102.960938 102.007812 C 102.320312 102.476562 102.457031 103.511719 102.144531 104.21875 C 101.625 104.859375 101.855469 106.433594 101.273438 106.976562 C 100.902344 107.753906 101.035156 107.628906 101.480469 108.460938 C 102.222656 109.28125 102.339844 109.15625 103.691406 108.988281 C 104.078125 108.808594 104.363281 108.652344 104.613281 108.503906 C 104.351562 107.246094 104.390625 106.496094 104.390625 105.71875 C 104.390625 104.632812 104.320312 102.472656 105.210938 100.675781 C 105.191406 100.632812 105.183594 100.601562 105.148438 100.546875 Z M 105.148438 100.546875 "/>
<path style=" stroke:none;fill-rule:nonzero;fill:rgb(96.470588%,87.45098%,55.294118%);fill-opacity:1;" d="M 114.210938 89.582031 C 111.847656 92.308594 107.199219 97.921875 105.773438 99.757812 C 104.28125 101.671875 104.390625 104.441406 104.390625 105.71875 C 104.390625 106.996094 104.28125 108.164062 105.558594 111.679688 C 106.835938 115.191406 107.796875 118.597656 109.390625 118.8125 C 110.988281 119.023438 113.863281 119.238281 118.121094 118.8125 C 122.378906 118.386719 132.8125 117.320312 135.257812 117 C 137.707031 116.679688 140.582031 117.320312 142.816406 115.832031 C 145.050781 114.339844 150.160156 111.679688 153.246094 108.59375 C 155.53125 106.308594 159.722656 102.578125 162.402344 99.582031 C 142.683594 96.503906 126.886719 92.121094 114.210938 89.582031 Z M 114.210938 89.582031 "/>
<path style=" stroke:none;fill-rule:nonzero;fill:rgb(33.72549%,32.54902%,25.490196%);fill-opacity:1;" d="M 105.210938 100.675781 C 104.320312 102.472656 104.390625 104.632812 104.390625 105.71875 C 104.390625 106.496094 104.351562 107.246094 104.613281 108.503906 C 106.566406 107.347656 104.742188 107.078125 106.582031 105.367188 C 107.300781 104.730469 107.175781 103.605469 106.660156 103.011719 C 105.921875 102.484375 106.015625 102.117188 105.5 101.320312 C 105.25 100.960938 105.347656 100.957031 105.210938 100.675781 Z M 105.210938 100.675781 "/>
<path style="fill:none;stroke-width:0.24;stroke-linecap:butt;stroke-linejoin:miter;stroke:rgb(0%,0%,0%);stroke-opacity:1;stroke-miterlimit:4;" d="M 73.718772 53.662582 C 73.718772 53.662582 75.67815 53.915707 76.784401 54.256333 C 77.890653 54.596958 80.446907 56.131336 81.809409 57.918838 C 83.171911 59.709466 85.72504 61.156343 87.003167 61.753219 C 88.281294 62.34697 88.281294 64.731349 88.193794 66.181351 C 88.109419 67.628228 86.321916 71.715734 85.55629 72.737611 C 84.787539 73.759488 81.637534 82.359501 79.934406 84.659504 C 78.231279 86.959508 72.015644 98.625151 70.481267 100.668904 C 68.950014 102.712657 64.521883 102.031406 61.625003 105.265786 C 58.731249 108.503291 55.153118 106.800163 50.724987 107.565789 C 47.218731 108.175165 43.656226 107.140789 43.656226 107.140789 M 3.443664 80.265748 C 2.090537 78.615745 1.987412 76.546992 5.593668 73.531362 C 10.928051 68.593855 21.374942 59.453216 25.690573 55.931335 C 30.00308 52.41258 41.584348 44.350068 46.240605 41.853189 C 51.237487 37.993808 51.918738 36.971931 57.140621 33.962552 C 63.271881 29.59067 74.343773 24.481287 76.728151 24.084412 C 79.11253 23.687536 83.425036 22.77816 88.309419 23.800036 C 93.190676 24.821913 102.15944 24.934413 103.978193 24.993788 C 105.793821 25.050038 115.331335 28.568794 121.74697 29.362545 C 128.162605 30.159421 142.468877 36.743806 150.359514 37.196932 C 158.250151 37.653182 170.003294 45.71257 174.828301 47.303197 C 179.653308 48.893825 192.200202 58.315714 194.868957 59.793841 C 197.537711 61.268844 206.618975 64.846974 210.084605 65.4126 C 213.54711 65.981351 216.953365 66.606352 219.337744 66.606352 C 221.722123 66.606352 223.765876 67.059477 227.853382 65.640725 C 231.940888 64.221973 230.919012 64.675099 234.040891 64.050098 C 237.165896 63.425097 237.334646 64.846974 237.675272 65.981351 C 238.015897 67.115727 239.3784 69.728231 238.981524 71.375109 C 238.584648 73.021986 238.072148 75.006364 237.959647 76.428242 C 237.847147 77.846994 237.222146 78.584495 237.390896 80.456373 C 237.562772 82.331376 238.640898 86.531382 237.787772 87.837634 C 236.937771 89.143886 235.859644 91.131389 235.062768 91.75639 C 234.269017 92.378266 231.375262 94.197019 230.294011 94.593894 C 229.215884 94.99077 228.590883 95.559521 228.025257 95.559521 C 227.456506 95.559521 225.015878 95.275145 223.028375 95.387646 C 221.040872 95.503271 214.965862 96.409522 212.240858 97.487649 C 209.515854 98.5689 208.097102 99.134526 205.428348 99.987653 C 202.759594 100.837654 202.647093 101.406405 198.728337 102.825157 C 194.812706 104.243909 189.190823 103.337658 185.615817 104.584535 C 182.037687 105.834537 175.056426 107.425164 172.387672 108.618916 C 169.718918 109.809543 161.997031 111.059545 160.353279 111.62517 C 158.706401 112.193921 145.250131 115.031426 143.490753 115.487676 C 141.731375 115.940802 142.468877 115.656427 137.018868 115.940802 C 131.56886 116.225177 130.546983 115.997052 128.61573 116.453303 C 126.687602 116.906428 123.281347 116.509553 121.63447 116.453303 C 119.987592 116.393928 105.396945 115.828302 101.137563 114.918925 C 96.881307 114.009549 96.765682 113.728299 92.0563 113.840799 C 87.343792 113.953299 73.775022 114.125174 71.731269 113.840799 C 69.687515 113.556423 58.899999 112.365797 53.734366 111.172045 C 48.568733 109.981418 49.931235 109.640792 49.362484 109.409542 C 48.796859 109.184542 46.240605 107.706414 43.174975 106.968913 C 40.109345 106.234537 32.387459 104.300159 25.690573 100.212653 C 18.990563 96.125147 14.506181 93.968893 11.668677 92.209516 C 8.828048 90.450138 -0.368841 83.637628 0.143659 82.218876 C 0.653035 80.796998 1.943662 79.193871 2.740538 79.250121 M 16.549934 68.025104 C 15.981183 68.421979 15.756183 68.93448 15.756183 68.93448 M 12.746804 70.918858 C 13.143679 71.715734 13.312429 72.11261 13.312429 72.05636 " transform="matrix(1.249998,0,0,1.249998,0.000113621,0)"/>
<path style=" stroke:none;fill-rule:nonzero;fill:rgb(66.666667%,65.882353%,59.215686%);fill-opacity:1;" d="M 159.6875 57.90625 C 158.625 57.90625 157.535156 58.007812 156.441406 58.242188 C 151.722656 59.246094 138.03125 64.410156 133.355469 67.226562 C 136.460938 67.824219 139.636719 68.335938 142.839844 68.785156 C 152.261719 70.105469 162.160156 74.5625 172.074219 78.703125 C 172.652344 75.359375 173.261719 71.355469 173.261719 70.589844 C 173.261719 69.527344 171.664062 61.011719 169.003906 59.945312 C 166.925781 59.113281 163.480469 57.890625 159.6875 57.90625 Z M 159.6875 57.90625 "/>
<path style=" stroke:none;fill-rule:nonzero;fill:rgb(50.196078%,50.196078%,76.470588%);fill-opacity:1;" d="M 105.25 142.453125 C 109.179688 147.695312 106.410156 144.074219 108.46875 152.378906 C 108.46875 152.378906 111.238281 162.027344 111.804688 164.582031 C 112.371094 167.136719 116.773438 177.144531 117.625 178.421875 C 118.476562 179.699219 121.457031 182.679688 122.308594 184.3125 C 123.160156 185.941406 124.507812 188 125.929688 190.199219 C 127.347656 192.402344 127.34375 193.394531 129.6875 195.808594 C 132.027344 198.21875 133.167969 199.921875 133.804688 199.921875 C 133.339844 198.046875 129.890625 195.390625 128.347656 190.285156 C 126.601562 184.507812 123.5625 182.421875 119.847656 175.945312 C 117.242188 171.40625 117.363281 168.605469 115.976562 166.195312 C 114.988281 164.476562 112.734375 159.324219 111.714844 156.085938 C 110.222656 151.359375 110.078125 148.441406 109.769531 147.492188 C 109.175781 145.644531 106.789062 142.605469 105.25 142.453125 Z M 105.25 142.453125 "/>
<path style=" stroke:none;fill-rule:nonzero;fill:rgb(19.607843%,18.823529%,14.901961%);fill-opacity:1;" d="M 275.6875 83.292969 C 278.105469 83.382812 280.585938 83.519531 284.816406 82.050781 C 287.894531 80.980469 288.65625 80.761719 289.625 80.585938 C 291.832031 81.554688 288.535156 83.488281 286.578125 84.746094 C 285.199219 85.632812 284.382812 87.339844 282.8125 87.703125 C 280.6875 88.195312 280.324219 87.851562 278.636719 87.1875 C 277.769531 86.71875 276.167969 86.71875 275.542969 86.082031 C 274.691406 85.21875 274.417969 84.246094 275.6875 83.292969 Z M 275.6875 83.292969 "/>
<path style="fill:none;stroke-width:0.24;stroke-linecap:round;stroke-linejoin:round;stroke:rgb(0%,0%,0%);stroke-opacity:1;stroke-miterlimit:4;" d="M 127.750104 46.325071 C 126.900103 46.328196 126.028226 46.406321 125.153225 46.593821 C 121.150094 47.443822 109.059451 52.043829 106.078196 54.171958 C 103.096941 56.303211 100.031312 60.475092 98.753185 62.603221 C 97.478183 64.731349 93.475052 69.246981 91.687549 71.290734 C 89.896921 73.334487 85.809415 78.271994 84.618788 79.806372 C 83.425036 81.337624 83.512537 83.553253 83.512537 84.575129 C 83.512537 85.597006 83.425036 86.531382 84.446913 89.343886 C 85.46879 92.153266 86.237541 94.87827 87.512543 95.04702 C 88.79067 95.218895 91.090673 95.387646 94.496928 95.04702 C 97.903184 94.706395 106.250071 93.856393 108.206324 93.600143 C 110.165702 93.343892 112.465706 93.856393 114.253209 92.662641 C 116.040711 91.472015 120.128217 89.343886 122.600096 86.872008 C 125.06885 84.403254 130.346983 79.806372 131.62511 77.421993 C 132.903237 75.037615 136.650118 68.137604 137.159493 65.66885 C 137.671994 63.200096 138.609496 57.325088 138.609496 56.471961 C 138.609496 55.62196 137.331369 48.806325 135.20324 47.956323 C 133.537613 47.290697 130.784484 46.312571 127.750104 46.325071 Z M 127.750104 46.325071 " transform="matrix(1.249998,0,0,1.249998,0.000113621,0)"/>
<path style="fill-rule:nonzero;fill:rgb(77.647059%,67.843137%,37.254902%);fill-opacity:1;stroke-width:0.24;stroke-linecap:butt;stroke-linejoin:miter;stroke:rgb(0%,0%,0%);stroke-opacity:1;stroke-miterlimit:4;" d="M 6.699919 82.872002 C 5.762418 82.340751 3.484289 80.762623 2.740538 79.250121 C 1.943662 79.193871 0.653035 80.796998 0.143659 82.218876 C -0.368841 83.637628 8.828048 90.450138 11.668677 92.209516 C 14.506181 93.968893 18.990563 96.125147 25.690573 100.212653 C 27.618701 101.122029 28.640578 98.625151 29.662454 97.147023 C 30.684331 95.672021 32.728084 91.243889 30.684331 89.993887 C 28.640578 88.74701 24.440571 87.156383 22.284318 86.587632 C 20.12494 86.022006 16.265559 84.659504 13.087429 82.1595 C 10.1343 79.209496 5.253042 74.212613 3.62804 75.51574 C 2.106162 77.500118 2.409288 79.006371 3.443664 80.265748 C 4.437416 81.471999 6.096793 82.450126 7.465545 83.409502 C 8.062421 83.978253 8.443672 84.190754 9.112423 84.772004 C 9.265548 84.93763 13.149929 87.856384 15.131182 89.993887 C 22.006193 96.940773 19.784314 96.012647 26.031199 98.625151 " transform="matrix(1.249998,0,0,1.249998,0.000113621,0)"/>
<path style="fill-rule:nonzero;fill:rgb(61.568627%,60.392157%,48.235294%);fill-opacity:1;stroke-width:0.24;stroke-linecap:butt;stroke-linejoin:miter;stroke:rgb(0%,0%,0%);stroke-opacity:1;stroke-miterlimit:4;" d="M 22.878069 70.693858 C 23.899946 72.993861 25.690573 76.825117 28.756203 77.590743 C 31.821833 78.35637 32.074958 79.634497 36.674965 78.103244 C 41.271847 76.568867 41.018722 76.568867 43.062475 73.246987 C 45.106228 69.928232 44.849978 68.137604 44.593727 65.584475 C 44.337477 63.028221 41.271847 59.196965 38.718718 58.431339 C 36.162464 57.665713 32.331208 57.409463 28.756203 58.175089 C 25.178073 58.940715 24.668697 61.240718 23.899946 62.518845 C 23.134319 63.796972 21.856192 68.393854 22.878069 70.693858 Z M 22.878069 70.693858 " transform="matrix(1.249998,0,0,1.249998,0.000113621,0)"/>
<path style="fill-rule:nonzero;fill:rgb(11.372549%,11.372549%,8.627451%);fill-opacity:1;stroke-width:0.24;stroke-linecap:butt;stroke-linejoin:miter;stroke:rgb(0%,0%,0%);stroke-opacity:1;stroke-miterlimit:4;" d="M 32.843709 61.496969 C 30.031205 61.753219 28.756203 61.496969 27.478076 63.284472 C 26.199949 65.071974 25.462448 71.600109 27.137451 73.843863 C 28.328077 74.609489 29.437454 75.29074 31.053082 75.29074 C 32.671834 75.29074 35.140588 75.12199 36.249964 74.609489 C 37.356216 74.100113 38.887468 74.268863 39.82497 72.993861 C 40.762471 71.715734 41.187472 71.034483 41.103097 69.075105 C 41.018722 67.115727 41.018722 65.753225 40.165595 64.562599 C 39.315594 63.368847 38.718718 61.753219 37.099966 61.325094 C 35.481213 60.900093 35.653089 61.240718 32.843709 61.496969 Z M 32.843709 61.496969 " transform="matrix(1.249998,0,0,1.249998,0.000113621,0)"/>
<path style=" stroke:none;fill-rule:nonzero;fill:rgb(100%,100%,100%);fill-opacity:1;" d="M 33.070312 84.109375 C 33.496094 84.640625 34.027344 84.855469 35.410156 84.429688 C 36.796875 84.003906 37.222656 83.257812 39.777344 83.152344 C 42.332031 83.042969 43.5 83.042969 44.671875 83.257812 C 45.84375 83.46875 46.589844 82.726562 46.800781 83.257812 C 47.015625 83.789062 48.71875 84.214844 46.164062 84.746094 C 43.609375 85.28125 43.183594 86.558594 41.265625 86.558594 C 39.351562 86.558594 39.242188 87.410156 37.328125 87.195312 C 35.410156 86.984375 33.496094 88.046875 33.390625 88.578125 C 33.28125 89.113281 31.117188 88.222656 31.117188 87.371094 C 31.117188 86.519531 32.644531 83.578125 33.070312 84.109375 Z M 33.070312 84.109375 "/>
<path style=" stroke:none;fill-rule:nonzero;fill:rgb(19.607843%,18.823529%,14.901961%);fill-opacity:1;" d="M 21.75 86.449219 C 20.121094 88.507812 18.914062 89.289062 17.777344 90.707031 C 16.289062 92.054688 14.441406 92.835938 15.082031 94.539062 C 15.71875 96.242188 16.359375 96.882812 19.550781 97.734375 C 22.746094 98.585938 25.300781 97.09375 26.152344 96.882812 C 27.003906 96.667969 27.640625 95.179688 27.429688 93.476562 C 27.214844 91.773438 25.441406 89.785156 25.085938 88.367188 C 24.730469 87.445312 25.441406 86.664062 25.085938 84.960938 C 24.945312 83.398438 23.878906 84.464844 21.75 86.449219 Z M 21.75 86.449219 "/>
<path style="fill:none;stroke-width:0.800001;stroke-linecap:round;stroke-linejoin:miter;stroke:rgb(50.196078%,50.196078%,76.470588%);stroke-opacity:1;stroke-miterlimit:4;" d="M 17.962437 78.353245 C 19.390564 78.193869 20.46244 77.618868 20.921816 77.506368 C 21.603067 77.334493 22.112443 76.143866 21.943693 74.781364 C 21.771817 73.418862 20.353065 71.828235 20.06869 70.693858 C 19.784314 69.956357 20.353065 69.331356 20.06869 67.968854 C 19.95619 66.718852 19.103063 67.571978 17.399936 69.159481 C 16.096809 70.806358 15.131182 71.431359 14.221806 72.565736 " transform="matrix(1.249998,0,0,1.249998,0.000113621,0)"/>
</g>
</svg>
