<?xml version="1.0" encoding="UTF-8"?>
<!-- Created by grConvert v0.1-0 -->
<svg xmlns="http://www.w3.org/2000/svg" xmlns:xlink="http://www.w3.org/1999/xlink" width="358pt" height="200pt" viewBox="0 0 358 200" version="1.1">
<g id="surface137">
<path style=" stroke:none;fill-rule:nonzero;fill:rgb(91.372549%,77.647059%,68.627451%);fill-opacity:1;" d="M 92.128906 67.0625 C 92.128906 67.0625 94.574219 67.382812 95.960938 67.808594 C 97.34375 68.234375 100.535156 70.148438 102.238281 72.382812 C 103.941406 74.617188 107.132812 76.425781 108.730469 77.171875 C 110.328125 77.917969 110.328125 80.898438 110.21875 82.707031 C 110.113281 84.515625 107.878906 89.625 106.921875 90.902344 C 105.964844 92.179688 102.027344 102.925781 99.898438 105.800781 C 97.769531 108.675781 90 123.253906 88.085938 125.808594 C 86.167969 128.363281 80.632812 127.511719 77.015625 131.554688 C 73.398438 135.597656 68.925781 133.472656 63.394531 134.429688 C 59.007812 135.1875 54.558594 133.898438 54.558594 133.898438 M 4.304688 100.308594 C 2.613281 98.25 2.484375 95.664062 6.988281 91.894531 C 13.65625 85.722656 26.714844 74.300781 32.105469 69.898438 C 37.496094 65.503906 51.96875 55.425781 57.789062 52.304688 C 64.03125 47.480469 64.882812 46.203125 71.410156 42.441406 C 79.074219 36.980469 92.910156 30.59375 95.890625 30.097656 C 98.867188 29.601562 104.261719 28.464844 110.363281 29.742188 C 116.464844 31.019531 127.671875 31.160156 129.945312 31.234375 C 132.214844 31.304688 144.132812 35.703125 152.152344 36.695312 C 160.167969 37.6875 178.046875 45.921875 187.910156 46.484375 C 197.769531 47.054688 212.457031 57.128906 218.488281 59.117188 C 224.519531 61.101562 240.199219 72.878906 243.535156 74.726562 C 246.867188 76.570312 258.21875 81.039062 262.550781 81.75 C 266.875 82.457031 271.132812 83.238281 274.113281 83.238281 C 277.09375 83.238281 279.648438 83.808594 284.753906 82.03125 C 289.863281 80.257812 288.585938 80.828125 292.488281 80.046875 C 296.390625 79.265625 296.605469 81.039062 297.03125 82.457031 C 297.457031 83.878906 299.160156 87.140625 298.660156 89.199219 C 298.164062 91.257812 297.527344 93.738281 297.382812 95.511719 C 297.242188 97.285156 296.460938 98.207031 296.675781 100.550781 C 296.886719 102.890625 298.234375 108.140625 297.171875 109.773438 C 296.105469 111.40625 294.757812 113.890625 293.765625 114.671875 C 292.773438 115.449219 289.15625 117.71875 287.804688 118.214844 C 286.457031 118.714844 285.675781 119.421875 284.96875 119.421875 C 284.261719 119.421875 281.207031 119.066406 278.726562 119.210938 C 276.242188 119.351562 268.648438 120.488281 265.242188 121.835938 C 261.839844 123.183594 260.066406 123.894531 256.730469 124.957031 C 253.398438 126.019531 253.253906 126.730469 248.359375 128.503906 C 243.464844 130.277344 236.4375 129.144531 231.96875 130.703125 C 227.5 132.265625 218.773438 134.253906 215.4375 135.742188 C 212.105469 137.230469 202.453125 138.792969 200.398438 139.5 C 198.339844 140.210938 181.523438 143.757812 179.324219 144.324219 C 177.125 144.894531 178.046875 144.539062 171.238281 144.894531 C 164.425781 145.246094 163.148438 144.964844 160.734375 145.53125 C 158.324219 146.097656 154.066406 145.601562 152.007812 145.53125 C 149.953125 145.460938 131.71875 144.75 126.398438 143.617188 C 121.074219 142.480469 120.933594 142.128906 115.046875 142.269531 C 109.15625 142.410156 92.199219 142.625 89.644531 142.269531 C 87.089844 141.914062 73.609375 140.425781 67.15625 138.933594 C 60.695312 137.445312 62.398438 137.019531 61.691406 136.734375 C 60.980469 136.449219 57.789062 134.605469 53.957031 133.683594 C 50.125 132.761719 40.476562 130.347656 32.105469 125.238281 C 23.734375 120.132812 18.128906 117.4375 14.582031 115.234375 C 11.03125 113.039062 -0.460938 104.523438 0.175781 102.75 C 0.816406 100.976562 2.429688 98.972656 3.421875 99.042969 M 20.679688 85.011719 C 19.972656 85.507812 19.691406 86.148438 19.691406 86.148438 M 15.929688 88.628906 C 16.425781 89.625 16.636719 90.121094 16.636719 90.050781 "/>
<path style=" stroke:none;fill-rule:nonzero;fill:rgb(97.647059%,97.647059%,97.647059%);fill-opacity:1;" d="M 32.105469 125.238281 C 34.515625 126.375 35.792969 123.253906 37.070312 121.410156 C 38.347656 119.566406 40.902344 114.03125 38.347656 112.46875 C 35.792969 110.910156 30.542969 108.921875 27.847656 108.210938 C 25.1875 107.511719 26.070312 107.8125 20.222656 105.417969 C 20.277344 105.371094 20.335938 105.320312 20.398438 105.269531 C 20.492188 105.273438 20.585938 105.28125 20.683594 105.285156 C 41.851562 106.589844 37.019531 99.652344 45.515625 96.007812 C 61.007812 89.363281 64.050781 63.792969 96.277344 62.804688 C 120.160156 62.074219 161.730469 108.140625 231.34375 101.808594 C 279.859375 94.734375 291.554688 80.234375 292.488281 80.046875 C 296.390625 79.265625 296.605469 81.039062 297.03125 82.457031 C 297.457031 83.878906 299.160156 87.140625 298.660156 89.199219 C 298.164062 91.257812 297.527344 93.738281 297.382812 95.511719 C 297.242188 97.285156 296.460938 98.207031 296.675781 100.550781 C 296.886719 102.890625 298.234375 108.140625 297.171875 109.773438 C 296.105469 111.40625 294.757812 113.890625 293.765625 114.671875 C 292.773438 115.449219 289.15625 117.71875 287.804688 118.214844 C 286.457031 118.714844 285.675781 119.421875 284.96875 119.421875 C 284.261719 119.421875 281.207031 119.066406 278.726562 119.210938 C 276.242188 119.351562 268.648438 120.488281 265.242188 121.835938 C 261.839844 123.183594 260.066406 123.894531 256.730469 124.957031 C 253.398438 126.019531 253.253906 126.730469 248.359375 128.503906 C 243.464844 130.277344 236.4375 129.144531 231.96875 130.703125 C 227.5 132.265625 218.773438 134.253906 215.4375 135.742188 C 212.105469 137.230469 202.453125 138.792969 200.398438 139.5 C 198.339844 140.210938 181.523438 143.757812 179.324219 144.324219 C 177.125 144.894531 178.046875 144.539062 171.238281 144.894531 C 164.425781 145.246094 163.148438 144.964844 160.734375 145.53125 C 158.324219 146.097656 154.066406 145.601562 152.007812 145.53125 C 149.953125 145.460938 131.71875 144.75 126.398438 143.617188 C 121.074219 142.480469 120.933594 142.128906 115.046875 142.269531 C 109.15625 142.410156 92.199219 142.625 89.644531 142.269531 C 87.089844 141.914062 73.609375 140.425781 67.15625 138.933594 C 60.695312 137.445312 62.398438 137.019531 61.691406 136.734375 C 60.980469 136.449219 57.789062 134.605469 53.957031 133.683594 C 50.125 132.761719 40.476562 130.347656 32.105469 125.238281 M 54.558594 133.898438 "/>
<path style="fill-rule:nonzero;fill:rgb(95.294118%,87.45098%,82.352941%);fill-opacity:1;stroke-width:1.409455;stroke-linecap:butt;stroke-linejoin:miter;stroke:rgb(0%,0%,0%);stroke-opacity:1;stroke-miterlimit:4;" d="M 1421.328575 423.004486 C 1439.662502 419.33403 1440.671877 427.665964 1442.672275 434.327841 C 1444.672674 441.008071 1452.674267 456.332223 1450.325175 466.003874 C 1447.994436 475.675525 1445.003015 487.329222 1444.32398 495.661156 C 1443.663298 503.99309 1439.992843 508.324228 1441.002218 519.335595 C 1441.993241 530.32861 1448.324777 554.994072 1443.332957 562.665325 C 1438.322785 570.336577 1431.991249 582.008626 1427.32977 585.679082 C 1422.668292 589.331185 1405.674082 599.993859 1399.324194 602.324598 C 1392.992657 604.67369 1389.322202 607.995452 1386.000439 607.995452 C 1382.678677 607.995452 1424.66869 616.327387 1432.670283 619.997842 C 1440.671877 623.668298 1496.664678 647.324385 1512.337524 651.673875 C 1527.992018 656.005013 1600.006358 682.32218 1607.677611 683.001214 C 1615.330511 683.661896 1680.994963 703.005198 1686.665817 702.674857 C 1692.336671 702.326164 1711.331279 702.326164 1711.331279 702.326164 C 1711.331279 702.326164 1710.670597 639.322792 1710.670597 639.322792 C 1710.670597 639.322792 1701.329288 590.322208 1696.007127 580.338569 C 1690.666614 570.336577 1679.324906 536.678498 1675.324109 533.338384 C 1671.323312 529.998269 1666.661834 518.674913 1666.661834 518.674913 C 1666.661834 518.674913 1669.671607 511.664343 1673.672404 505.663148 C 1681.673997 495.330815 1686.005135 476.005866 1690.336273 464.994499 C 1700.668606 445.669549 1709.661222 417.00329 1711.991961 406.322264 C 1711.991961 406.322264 1727.004125 351.008497 1727.004125 350.678156 C 1727.004125 350.329463 1730.325888 321.002522 1727.995148 318.671783 C 1725.664409 316.322691 1723.664011 315.331668 1697.677184 321.663204 C 1671.672006 327.99474 1628.323924 344.328268 1604.667837 353.999919 C 1580.993398 363.671569 1562.329131 368.333048 1539.333726 378.004699 C 1520.008777 384.336235 1497.32536 394.338227 1476.679047 400.669763 C 1461.666883 408.671356 1402.994649 426.674941 1421.328575 423.004486 Z M 1421.328575 423.004486 " transform="matrix(0.212848,0,0,0.212848,-10.038991,-9.988881)"/>
<path style="fill-rule:nonzero;fill:rgb(66.666667%,66.666667%,100%);fill-opacity:1;stroke-width:1.409455;stroke-linecap:butt;stroke-linejoin:miter;stroke:rgb(0%,0%,0%);stroke-opacity:1;stroke-miterlimit:4;" d="M 587.676327 715.337929 C 577.417403 715.576509 560.001091 715.870145 541.557051 716.053668 C 560.001091 740.664073 547.007678 723.669863 556.660976 762.668455 C 556.660976 762.668455 569.672742 807.998583 572.333822 820.000973 C 574.994902 832.003363 595.67792 879.003548 599.678717 885.004743 C 603.661161 891.005938 617.66395 905.008727 621.664747 912.661627 C 625.665543 920.332879 631.997079 930.00453 638.677309 940.336863 C 645.320833 950.669195 645.320833 955.330674 656.332201 966.672382 C 667.325215 977.995738 672.665728 985.997331 675.675502 985.997331 C 678.666923 985.997331 676.996866 988.328071 682.337379 979.335454 C 687.677892 970.324486 694.321417 954.669992 699.001248 952.008912 C 703.662727 949.329479 710.324604 932.995951 710.324604 932.995951 C 710.324604 932.995951 714.674094 920.332879 714.674094 920.332879 C 714.674094 920.332879 719.996254 914.992366 722.675687 902.677987 C 725.336768 890.326904 726.327791 877.994173 730.328587 871.001955 C 734.329384 863.991384 738.678874 844.666435 738.678874 844.666435 C 738.678874 844.666435 742.661318 824.00177 738.990863 815.669835 C 735.338759 807.337901 724.327392 790.325339 723.997051 790.325339 C 723.66671 790.325339 712.673695 777.662267 692.321019 767.329934 C 672.005046 756.997601 655.671519 741.324755 647.669925 740.003391 C 639.668332 738.663675 623.995486 731.322763 623.995486 730.992422 C 623.995486 730.662081 613.993494 726.661285 603.661161 726.000603 C 598.999683 726.000603 593.328829 720.329749 593.328829 720.329749 C 589.272975 714.548781 615.33321 714.677247 587.676327 715.337929 Z M 587.676327 715.337929 " transform="matrix(0.212848,0,0,0.212848,-10.038991,-9.988881)"/>
<path style="fill-rule:nonzero;fill:rgb(95.294118%,87.45098%,82.352941%);fill-opacity:1;stroke-width:1.409455;stroke-linecap:butt;stroke-linejoin:miter;stroke:rgb(0%,0%,0%);stroke-opacity:1;stroke-miterlimit:4;" d="M 1260.324037 415.993915 C 1265.003868 413.663176 1283.668135 415.993915 1292.679103 416.324256 C 1301.67172 416.672949 1327.328205 413.002494 1336.669515 409.001697 C 1345.992472 405.0009 1341.991676 378.995722 1342.322017 371.324469 C 1342.505539 367.37873 1346.543041 351.247077 1344.322415 335.665992 C 1342.26696 321.112636 1333.97173 307.036438 1333.3294 303.329278 C 1332.668718 299.548708 1325.768261 284.408079 1316.665531 270.331881 C 1307.360926 255.90699 1295.854048 242.546532 1294.000467 239.004542 C 1290.330012 231.993971 1257.662956 202.336689 1251.661761 198.335893 C 1245.678918 194.335096 1206.661974 167.669236 1200.330438 164.677814 C 1193.998902 161.66804 1183.99691 153.005765 1162.32287 147.665252 C 1153.22014 145.426274 1144.319284 140.856557 1134.665986 138.672636 C 1121.378936 135.662862 1107.926716 135.424282 1102.329271 135.993203 C 1092.675973 137.002578 1090.326881 135.993203 1084.67438 135.332521 C 1079.003525 134.671839 1080.673583 133.662464 1073.332671 135.00218 C 1065.99176 136.323544 1063.000339 138.672636 1056.999144 141.003375 C 1050.997949 143.334114 1048.336868 142.324739 1042.005332 142.673432 C 1035.673796 143.003773 1034.994762 138.323942 1032.333681 136.672237 C 1029.672601 135.00218 1024.332088 136.323544 1012.678391 136.672237 C 1001.006342 137.002578 1004.676798 135.993203 1001.667024 130.671042 C 998.675603 125.330529 997.996568 120.66905 997.996568 120.66905 C 997.996568 120.66905 993.004749 119.678027 986.324519 120.008368 C 979.662642 120.338709 977.662244 118.00797 973.661447 114.667855 C 969.679003 111.327741 970.670026 110.9974 966.338888 102.665465 C 962.00775 94.333531 964.999172 98.334328 959.328318 97.673646 C 953.675816 96.994611 951.675418 98.003987 938.993993 98.003987 C 926.330921 98.003987 933.323139 95.673247 929.322342 90.993416 C 925.321546 86.331937 926.00058 84.66188 926.00058 84.66188 C 926.00058 84.66188 919.669044 86.662278 914.677224 87.671654 C 909.667052 88.662677 905.666256 91.67245 897.00398 90.332734 C 888.323352 88.993018 891.993808 84.331539 891.993808 84.331539 C 891.993808 84.331539 889.332728 75.999605 889.332728 75.999605 C 889.332728 75.999605 878.670054 80.000401 872.9992 82.0008 C 867.328346 84.001198 861.675844 84.992221 858.335729 84.001198 C 854.995615 82.991823 854.004592 77.669662 850.334136 65.997613 C 846.66368 54.325564 842.662884 57.335337 836.99203 58.675054 C 831.321176 59.996418 829.339129 61.336134 823.998616 63.997215 C 818.676456 66.676647 799.993836 73.338524 797.002415 73.008183 C 793.992641 72.677842 789.331162 72.677842 789.991844 63.997215 C 790.303833 60.033122 793.533834 50.50829 790.670879 48.324369 C 787.275707 45.75505 777.438886 51.040506 774.00701 52.673859 C 767.675474 55.66528 758.334164 60.326759 751.672287 63.666874 C 744.992058 67.006988 739.669897 69.007387 729.667905 75.999605 C 719.665913 82.991823 703.662727 97.324952 696.670509 99.674044 C 689.67829 102.004783 692.00903 102.004783 690.338973 98.003987 C 688.668915 94.00319 688.668915 91.323757 690.338973 77.00898 C 692.00903 62.675851 685.677494 73.008183 674.996468 78.991026 C 664.333794 84.992221 663.324419 88.332336 653.322427 97.673646 C 643.338787 106.996603 637.998274 108.336319 631.006056 110.336718 C 623.995486 112.337116 621.334406 108.336319 619.334007 98.99501 C 618.783439 96.425691 622.362133 86.203471 618.673325 87.671654 C 608.946618 91.525632 585.602519 116.172742 579.32604 123.678824 C 570.663765 133.992805 558.991716 137.002578 558.331034 135.332521 C 557.670352 133.662464 555.669953 132.671441 554.330237 132.671441 C 553.008873 132.671441 540.327448 143.334114 535.66597 147.00457 C 531.004491 150.675026 483.673965 190.66464 497.676753 188.333901 C 511.66119 186.003162 537.005686 180.662649 565.671945 186.663844 C 594.338204 192.665039 646.990891 193.325721 657.671917 193.674414 C 668.334591 194.004755 724.327392 214.669421 762.00462 219.330899 C 799.663495 223.992378 883.661874 262.678981 930.001377 265.321709 C 976.322528 268.001142 1045.327095 315.331668 1073.663012 324.672978 C 1101.99893 333.995935 1175.664976 389.328055 1191.337822 398.008682 C 1202.239075 404.02823 1231.345789 416.012267 1254.910114 423.885395 C 1265.224095 427.335623 1255.662558 418.324655 1260.324037 415.993915 Z M 1260.324037 415.993915 " transform="matrix(0.212848,0,0,0.212848,-10.038991,-9.988881)"/>
<path style="fill-rule:nonzero;fill:rgb(78.823529%,78.823529%,87.843137%);fill-opacity:1;stroke-width:1.409455;stroke-linecap:butt;stroke-linejoin:miter;stroke:rgb(0%,0%,0%);stroke-opacity:1;stroke-miterlimit:4;" d="M 1228.336015 656.005013 C 1228.336015 656.005013 1272.67512 655.325978 1277.997281 656.665695 C 1283.337794 658.005411 1300.662345 679.991441 1303.323425 688.672068 C 1306.002858 697.334344 1306.66354 716.677645 1309.32462 742.00379 C 1312.004053 767.329934 1304.002459 771.33073 1293.321433 794.674829 C 1282.677112 818.000575 1278.676315 814.678812 1267.334607 826.66285 C 1255.992899 838.66524 1224.66556 852.668029 1212.663169 858.669224 C 1200.679132 864.670419 1185.997309 862.67002 1167.993724 858.008542 C 1150.008491 853.328711 1140.667181 852.668029 1124.003312 840.665638 C 1107.321091 828.663248 1042.666014 818.661257 1015.321119 812.678414 C 987.994577 806.677219 937.323936 775.992209 915.998588 764.008171 C 894.673241 752.005781 881.331134 732.66248 881.331134 732.66248 C 881.331134 732.66248 879.330736 727.67066 889.663069 724.991227 C 899.995402 722.330147 979.00196 705.666278 988.673611 702.326164 C 998.326909 699.004401 1043.675389 691.66349 1059.329883 684.671272 C 1075.002729 677.679054 1116.001719 668.337744 1136.996725 660.996832 C 1157.991732 653.674273 1191.007481 658.996434 1214.002886 650.6645 C 1217.673341 654.665296 1216.663966 658.005411 1228.336015 656.005013 Z M 1228.336015 656.005013 " transform="matrix(0.212848,0,0,0.212848,-10.038991,-9.988881)"/>
<path style=" stroke:none;fill-rule:nonzero;fill:rgb(93.72549%,83.529412%,76.470588%);fill-opacity:1;" d="M 159.652344 57.890625 C 158.589844 57.894531 157.503906 57.996094 156.410156 58.230469 C 151.40625 59.292969 136.292969 65.039062 132.570312 67.699219 C 130.386719 69.257812 128.175781 71.691406 126.390625 73.976562 C 137.6875 79.941406 150.96875 87.195312 166.550781 92.890625 C 168.519531 89.132812 170.964844 84.242188 171.414062 82.066406 C 172.054688 78.980469 173.222656 71.636719 173.222656 70.574219 C 173.222656 69.511719 171.628906 60.996094 168.964844 59.933594 C 166.886719 59.101562 163.445312 57.878906 159.652344 57.890625 Z M 159.652344 57.890625 "/>
<path style=" stroke:none;fill-rule:nonzero;fill:rgb(94.117647%,94.117647%,94.117647%);fill-opacity:1;" d="M 126.390625 73.976562 C 125.128906 75.589844 124.078125 77.132812 123.417969 78.238281 C 121.820312 80.898438 116.820312 86.539062 114.582031 89.09375 C 112.347656 91.644531 107.242188 97.820312 105.75 99.734375 C 104.261719 101.648438 104.367188 104.417969 104.367188 105.695312 C 104.367188 106.972656 104.261719 108.140625 105.539062 111.652344 C 106.816406 115.164062 107.773438 118.570312 109.367188 118.785156 C 110.964844 118.996094 113.839844 119.210938 118.097656 118.785156 C 122.351562 118.359375 132.78125 117.292969 135.230469 116.976562 C 137.679688 116.65625 140.550781 117.292969 142.785156 115.804688 C 145.019531 114.3125 150.128906 111.652344 153.214844 108.566406 C 156.300781 105.480469 162.898438 99.734375 164.496094 96.753906 C 164.96875 95.871094 165.722656 94.472656 166.550781 92.890625 C 150.96875 87.195312 137.6875 79.941406 126.390625 73.976562 Z M 126.390625 73.976562 "/>
<path style="fill:none;stroke-width:1.409455;stroke-linecap:butt;stroke-linejoin:miter;stroke:rgb(0%,0%,0%);stroke-opacity:1;stroke-miterlimit:4;" d="M 543.006881 571.49277 C 549.008076 587.991469 553.504384 603.994656 560.992114 605.004031 C 568.498196 605.995054 582.005473 607.004429 601.991104 605.004031 C 621.995088 603.003633 670.995671 597.993461 682.50255 596.506926 C 693.991076 595.002039 707.498353 597.993461 717.995856 591.001242 C 728.493359 584.009024 752.49814 571.49277 766.99644 556.99447 C 781.49474 542.496171 812.491738 515.499969 819.99782 501.49718 C 827.503902 487.494392 849.508283 446.990913 852.499705 432.492614 C 855.491126 417.994314 860.99681 383.49203 860.99681 378.50021 C 860.99681 373.508391 853.50908 333.500424 840.992826 328.508604 C 828.494925 323.498432 805.49952 315.496838 782.008603 320.50701 C 758.499335 325.49883 687.494369 352.495032 670.004648 364.992933 C 652.496574 377.490835 634.492989 401.991127 627.00526 414.507381 C 619.499178 427.005282 596.008261 453.505972 585.492406 465.508362 C 574.994902 477.4924 551.008475 506.507352 543.997904 515.499969 C 537.005686 524.492585 537.501198 537.504351 537.501198 543.505546 C 537.501198 549.506741 537.005686 554.994072 543.006881 571.49277 Z M 543.006881 571.49277 " transform="matrix(0.212848,0,0,0.212848,-10.038991,-9.988881)"/>
<path style="fill-rule:nonzero;fill:rgb(88.235294%,78.431373%,71.764706%);fill-opacity:1;stroke-width:1.409455;stroke-linecap:butt;stroke-linejoin:miter;stroke:rgb(0%,0%,0%);stroke-opacity:1;stroke-miterlimit:4;" d="M 921.504272 243.996362 C 922.495295 235.994768 930.001377 225.497265 935.50706 217.495671 C 940.994392 209.494078 959.493488 196.500665 971.495878 187.508049 C 983.498268 178.49708 985.498667 174.991795 999.005944 161.50287 C 1012.494868 147.995593 1014.366801 154.235368 1017.633506 145.995195 C 1011.1368 149.004968 997.996568 158.493096 991.00435 163.007757 C 983.99378 167.504065 979.497472 170.495486 970.504855 177.506057 C 961.493887 184.498275 952.005759 188.499072 944.499677 196.500665 C 936.993595 204.502258 931.506264 206.007145 926.991603 208.998567 C 922.495295 212.00834 905.005574 227.497663 897.499492 233.498858 C 889.99341 239.500053 887.001988 239.995565 883.001192 235.003745 C 879.000395 229.993573 886.506477 224.506242 891.993808 216.504648 C 897.499492 208.503055 905.005574 202.006348 914.493701 192.004357 C 924.000182 182.002365 923.50467 183.507252 935.50706 172.000373 C 947.491098 160.493495 948.500473 163.503268 964.50366 148.491105 C 969.09173 143.279057 978.543153 136.360248 977.827414 134.35985 C 971.238946 137.49809 964.008149 143.003773 949.491496 151.500878 C 934.993197 159.997983 926.991603 165.999178 921.504272 168.495088 C 915.998588 170.990998 883.001192 192.499868 864.502095 212.503852 C 846.002998 232.507835 844.498111 216.009137 849.508283 204.502258 C 854.500103 192.99538 859.491923 193.490891 866.006982 184.002763 C 872.503688 174.496283 895.003582 155.997186 916.4941 137.993601 C 938.00297 120.008368 938.00297 119.494505 926.991603 125.000188 C 915.998588 130.505872 911.50228 133.001782 902.491311 139.002977 C 893.498695 145.004172 881.991816 151.005367 870.50329 161.998381 C 858.996411 172.991396 883.001192 151.500878 833.505097 192.499868 C 784.009002 233.498858 821.998218 195.49129 823.503105 186.994185 C 825.007992 178.49708 829.5043 170.495486 836.99203 160.493495 C 844.498111 150.491503 858.005388 143.994796 889.497898 118.503482 C 921.00876 92.993815 901.004777 104.500693 891.993808 108.005978 C 883.001192 111.492911 879.000395 116.998595 868.502892 122.99979 C 858.005388 129.000985 846.994021 139.002977 838.001405 145.499683 C 829.008788 151.99639 825.503503 159.502472 795.99304 178.992591 C 766.500928 198.501063 767.491951 188.994583 771.492748 179.506455 C 775.493545 169.999975 782.008603 165.999178 793.49713 151.500878 C 805.004008 137.002578 817.50191 129.496496 839.506292 112.502286 C 861.492321 95.508077 858.996411 88.497506 842.497713 103.491318 C 825.999015 118.503482 830.495323 110.9974 819.99782 118.503482 C 809.500316 125.991211 809.004805 128.505473 760.004222 161.007358 C 711.003638 193.490891 730.493758 168.495088 732.494156 155.006163 C 733.576941 147.701957 745.102171 135.093941 760.004222 122.908028 C 771.621214 113.383196 785.532241 100.077794 797.993438 92.736883 C 799.094575 92.076201 805.829861 88.791143 806.912645 88.185518 C 813.647931 82.918414 819.318785 80.14722 821.631173 73.265115 C 807.132873 83.267107 799.002813 86.497108 789.496333 93.507678 C 780.008205 100.499896 770.997236 105.491716 766.005417 106.996603 C 760.995245 108.50149 754.498538 115.493708 709.994263 151.99639 C 665.50834 188.499072 691.495166 152.491901 693.495564 140.507863 C 695.495963 128.505473 729.502735 100.995408 752.49814 77.504491 C 775.493545 53.995223 750.00223 73.008183 739.504726 80.495913 C 729.007223 88.001995 725.006427 88.993018 712.508525 99.508873 C 699.992271 110.006377 678.006241 127.99161 670.50016 133.001782 C 662.994078 137.993601 645.999868 154.4923 635.006853 169.504463 C 623.995486 184.498275 619.499178 177.506057 619.003666 177.506057 C 618.508155 177.506057 619.499178 167.008553 621.004065 161.50287 C 622.508951 155.997186 639.00765 131.001383 646.990891 122.99979 C 654.992484 114.998196 670.004648 90.993416 667.508738 94.498701 C 664.994476 98.003987 655.506348 106.00558 648.991289 112.997798 C 642.494583 120.008368 606.505765 152.491901 600.50457 158.493096 C 594.503374 164.494291 588.502179 176.00117 580.996098 179.506455 C 573.508368 182.993388 574.499391 176.496681 572.994504 172.991396 C 571.50797 169.504463 584.996894 137.49809 589.493202 129.496496 C 594.007863 121.494903 606.505765 102.995806 601.991104 107.492114 C 597.494796 112.006775 592.998488 118.503482 588.502179 122.504278 C 584.005871 126.505075 582.500984 125.991211 572.003481 145.499683 C 561.505978 165.008155 550.494611 176.992193 545.007279 177.506057 C 539.501596 178.001568 535.500799 175.505658 535.996311 173.50526 C 536.491822 171.504862 539.997107 162.493893 542.493017 157.502073 C 545.007279 152.491901 555.504783 137.49809 554.495407 135.497691 C 553.504384 133.497293 539.501596 151.500878 532.491026 161.998381 C 525.498807 172.495885 483.673965 190.66464 497.676753 188.333901 C 511.66119 186.003162 537.005686 180.662649 565.671945 186.663844 C 594.338204 192.665039 646.990891 193.325721 657.671917 193.674414 C 668.334591 194.004755 724.327392 214.669421 762.00462 219.330899 C 799.663495 223.992378 883.661874 262.678981 930.001377 265.321709 C 932.350468 265.468527 920.494897 251.997955 921.504272 243.996362 Z M 921.504272 243.996362 " transform="matrix(0.212848,0,0,0.212848,-10.038991,-9.988881)"/>
<path style="fill-rule:nonzero;fill:rgb(95.294118%,87.45098%,82.352941%);fill-opacity:1;stroke-width:1.409455;stroke-linecap:butt;stroke-linejoin:miter;stroke:rgb(0%,0%,0%);stroke-opacity:1;stroke-miterlimit:4;" d="M 86.493955 533.503554 C 81.006623 530.383667 67.627813 521.115766 63.241618 512.251616 C 58.580139 511.921275 51.000648 521.335993 47.990875 529.667928 C 44.999453 537.999862 98.991856 578.007829 115.674077 588.32181 C 132.337946 598.672495 158.673466 611.335567 198.002399 635.321995 C 209.325754 640.662508 215.326949 625.999037 221.328145 617.336762 C 227.32934 608.674487 239.33173 582.669308 227.32934 575.328397 C 215.326949 568.005838 190.661487 558.664528 177.998415 555.324413 C 165.335343 552.002651 142.670279 544.001057 124.006012 529.337587 C 106.663109 511.994684 77.99685 482.667743 68.453665 490.302291 C 59.534458 501.97434 61.314629 510.801786 67.389233 518.197754 C 73.225257 525.281733 82.970317 531.025996 91.008615 536.678498 C 94.495548 540.000261 96.752878 541.248216 100.661914 544.661739 C 101.561175 545.63441 124.373057 562.775438 136.008402 575.328397 C 176.383415 616.107159 163.334945 610.674885 200.002797 625.999037 " transform="matrix(0.212848,0,0,0.212848,-10.038991,-9.988881)"/>
<path style="fill-rule:nonzero;fill:rgb(100%,70.196078%,16.470588%);fill-opacity:1;stroke-width:1.409455;stroke-linecap:butt;stroke-linejoin:miter;stroke:rgb(0%,0%,0%);stroke-opacity:1;stroke-miterlimit:4;" d="M 181.5037 462.003077 C 187.504895 475.492002 198.002399 497.991895 216.005984 502.506556 C 233.991217 507.002864 235.496103 514.508946 262.492305 505.497977 C 289.506859 496.505361 288.001972 496.505361 300.004362 476.996889 C 312.006752 457.506769 310.501865 446.990913 308.996979 431.997102 C 307.492092 417.00329 289.506859 394.503397 274.494695 390.007089 C 259.500884 385.492428 237.00099 384.005894 216.005984 388.502202 C 194.992625 392.99851 192.001204 406.505787 187.504895 413.993517 C 183.008587 421.499599 175.502505 448.4958 181.5037 462.003077 Z M 181.5037 462.003077 " transform="matrix(0.212848,0,0,0.212848,-10.038991,-9.988881)"/>
<path style="fill-rule:nonzero;fill:rgb(13.72549%,7.843137%,3.921569%);fill-opacity:1;stroke-width:1.409455;stroke-linecap:butt;stroke-linejoin:miter;stroke:rgb(0%,0%,0%);stroke-opacity:1;stroke-miterlimit:4;" d="M 239.992412 407.992322 C 223.493713 409.497209 216.005984 407.992322 208.499902 418.508177 C 200.99382 429.005681 196.662682 467.325238 206.499504 480.502174 C 213.491722 484.998482 220.00678 488.999279 229.494908 488.999279 C 239.001389 488.999279 253.499689 488.008256 259.996395 484.998482 C 266.493102 482.007061 275.50407 482.998084 280.991402 475.492002 C 286.497085 468.004272 288.992995 464.003476 288.497484 452.496597 C 288.001972 441.008071 288.001972 433.006477 282.9918 425.995907 C 277.99998 419.003689 274.494695 409.497209 265.006567 407.001299 C 255.500087 404.505389 256.49111 406.505787 239.992412 407.992322 Z M 239.992412 407.992322 " transform="matrix(0.212848,0,0,0.212848,-10.038991,-9.988881)"/>
<path style=" stroke:none;fill-rule:nonzero;fill:rgb(100%,100%,100%);fill-opacity:1;" d="M 33.0625 84.089844 C 33.488281 84.621094 34.019531 84.835938 35.402344 84.410156 C 36.789062 83.984375 37.214844 83.238281 39.765625 83.132812 C 42.320312 83.027344 43.492188 83.027344 44.664062 83.238281 C 45.832031 83.453125 46.578125 82.707031 46.792969 83.238281 C 47.003906 83.769531 48.707031 84.195312 46.152344 84.730469 C 43.597656 85.261719 43.171875 86.539062 41.257812 86.539062 C 39.34375 86.539062 39.234375 87.390625 37.320312 87.175781 C 35.402344 86.964844 33.488281 88.027344 33.382812 88.558594 C 33.277344 89.09375 31.109375 88.203125 31.109375 87.351562 C 31.109375 86.5 32.636719 83.558594 33.0625 84.089844 Z M 33.0625 84.089844 "/>
<path style="fill:none;stroke-width:1.409455;stroke-linecap:butt;stroke-linejoin:miter;stroke:rgb(0%,0%,0%);stroke-opacity:1;stroke-miterlimit:4;" d="M 480.003509 362.001512 C 480.003509 362.001512 491.492036 363.506399 498.007094 365.506797 C 504.503801 367.507196 519.497612 376.499812 527.499206 386.997315 C 535.500799 397.494819 550.494611 405.991923 558.000693 409.497209 C 565.506775 413.002494 565.506775 427.005282 564.992911 435.502387 C 564.497399 443.999492 553.999896 468.004272 549.503588 474.005467 C 545.007279 480.006662 526.508183 530.49378 516.506191 544.001057 C 506.504199 557.508334 470.001517 625.999037 461.008901 638.001428 C 451.997932 650.003818 425.992754 646.003021 408.998544 664.997629 C 392.004334 683.992237 370.990975 674.008598 345.004149 678.504906 C 324.39454 682.065248 303.491295 676.008996 303.491295 676.008996 M 67.389233 518.197754 C 59.442696 508.526103 58.837071 496.376895 79.997248 478.666946 C 111.324587 449.670346 172.676254 396.008284 198.002399 375.325266 C 223.328543 354.678953 291.323735 307.330074 318.668629 292.666604 C 347.99557 270.00154 351.996367 264.000345 382.663024 246.327101 C 418.670195 220.670616 483.673965 190.66464 497.676753 188.333901 C 511.66119 186.003162 537.005686 180.662649 565.671945 186.663844 C 594.338204 192.665039 646.990891 193.325721 657.671917 193.674414 C 668.334591 194.004755 724.327392 214.669421 762.00462 219.330899 C 799.663495 223.992378 883.661874 262.678981 930.001377 265.321709 C 976.322528 268.001142 1045.327095 315.331668 1073.663012 324.672978 C 1101.99893 333.995935 1175.664976 389.328055 1191.337822 398.008682 C 1206.992315 406.670958 1260.324037 427.665964 1280.676713 431.006079 C 1300.992686 434.327841 1320.996669 437.998297 1334.999458 437.998297 C 1349.002246 437.998297 1361.004636 440.67773 1384.991064 432.327443 C 1408.995844 423.995509 1402.994649 426.674941 1421.328575 423.004486 C 1439.662502 419.33403 1440.671877 427.665964 1442.672275 434.327841 C 1444.672674 441.008071 1452.674267 456.332223 1450.325175 466.003874 C 1447.994436 475.675525 1445.003015 487.329222 1444.32398 495.661156 C 1443.663298 503.99309 1439.992843 508.324228 1441.002218 519.335595 C 1441.993241 530.32861 1448.324777 554.994072 1443.332957 562.665325 C 1438.322785 570.336577 1431.991249 582.008626 1427.32977 585.679082 C 1422.668292 589.331185 1405.674082 599.993859 1399.324194 602.324598 C 1392.992657 604.67369 1389.322202 607.995452 1386.000439 607.995452 C 1382.678677 607.995452 1368.327195 606.325395 1356.673498 607.004429 C 1345.001449 607.665111 1309.32462 613.005624 1293.321433 619.33716 C 1277.336599 625.668696 1269.004664 629.008811 1253.331818 634.000631 C 1237.677325 638.992451 1236.998291 642.332565 1214.002886 650.6645 C 1191.007481 658.996434 1157.991732 653.674273 1136.996725 660.996832 C 1116.001719 668.337744 1075.002729 677.679054 1059.329883 684.671272 C 1043.675389 691.66349 998.326909 699.004401 988.673611 702.326164 C 979.00196 705.666278 899.995402 722.330147 889.663069 724.991227 C 879.330736 727.67066 883.661874 726.000603 851.673852 727.67066 C 819.667479 729.322365 813.666284 728.001001 802.324576 730.662081 C 791.00122 733.323162 770.997236 730.992422 761.325586 730.662081 C 751.672287 730.33174 666.003851 726.991626 641.008048 721.669465 C 615.993893 716.328952 615.33321 714.677247 587.676327 715.337929 C 560.001091 715.998611 480.33385 717.007986 468.33146 715.337929 C 456.32907 713.667872 392.995357 706.675654 362.677393 699.665083 C 332.322725 692.672865 340.324318 690.672467 337.002556 689.33275 C 333.662441 687.993034 318.668629 679.330759 300.665044 674.999621 C 282.661459 670.668483 237.331331 659.326775 198.002399 635.321995 C 158.673466 611.335567 132.337946 598.672495 115.674077 588.32181 C 98.991856 578.007829 44.999453 537.999862 47.990875 529.667928 C 51.000648 521.335993 58.580139 511.921275 63.241618 512.251616 M 144.321984 446.330231 C 141.000222 448.660971 139.678858 451.670744 139.678858 451.670744 M 122.005614 463.324441 C 124.336353 468.004272 125.327376 470.335012 125.327376 470.004671 " transform="matrix(0.212848,0,0,0.212848,-10.038991,-9.988881)"/>
</g>
</svg>
