<?xml version="1.0" encoding="UTF-8"?>
<svg xmlns="http://www.w3.org/2000/svg" xmlns:xlink="http://www.w3.org/1999/xlink" width="448pt" height="250pt" viewBox="0 0 448 250" version="1.1">
<g id="surface86">
<path style=" stroke:none;fill-rule:nonzero;fill:rgb(90.980393%,77.254903%,68.235296%);fill-opacity:1;" d="M 328.4375 83.765625 C 328.4375 83.765625 325.5 84.167969 323.832031 84.703125 C 322.167969 85.234375 318.332031 87.628906 316.285156 90.425781 C 314.238281 93.222656 310.402344 95.488281 308.484375 96.421875 C 306.5625 97.355469 306.5625 101.085938 306.695312 103.351562 C 306.820312 105.617188 309.507812 112.011719 310.65625 113.609375 C 311.808594 115.210938 316.539062 128.664062 319.097656 132.261719 C 321.65625 135.859375 330.996094 154.109375 333.296875 157.308594 C 335.601562 160.507812 342.253906 159.441406 346.601562 164.5 C 350.949219 169.5625 356.324219 166.902344 362.972656 168.101562 C 368.246094 169.050781 373.59375 167.433594 373.59375 167.433594 M 433.996094 125.386719 C 436.027344 122.808594 436.183594 119.570312 430.769531 114.851562 C 422.753906 107.125 407.058594 92.828125 400.582031 87.316406 C 394.101562 81.816406 376.707031 69.199219 369.710938 65.292969 C 362.207031 59.253906 361.183594 57.65625 353.339844 52.945312 C 344.128906 46.109375 327.5 38.113281 323.917969 37.492188 C 320.339844 36.871094 313.855469 35.449219 306.519531 37.046875 C 299.1875 38.648438 285.71875 38.824219 282.984375 38.917969 C 280.257812 39.003906 265.933594 44.511719 256.292969 45.753906 C 246.660156 46.996094 225.171875 57.300781 213.316406 58.007812 C 201.46875 58.71875 183.8125 71.332031 176.566406 73.820312 C 169.316406 76.304688 150.46875 91.046875 146.460938 93.363281 C 142.457031 95.667969 128.8125 101.261719 123.605469 102.152344 C 118.410156 103.039062 113.292969 104.015625 109.707031 104.015625 C 106.125 104.015625 103.054688 104.730469 96.917969 102.503906 C 90.777344 100.285156 92.3125 101 87.625 100.023438 C 82.933594 99.042969 82.675781 101.261719 82.164062 103.039062 C 81.652344 104.820312 79.605469 108.902344 80.207031 111.480469 C 80.800781 114.054688 81.566406 117.160156 81.742188 119.382812 C 81.910156 121.601562 82.847656 122.753906 82.589844 125.6875 C 82.335938 128.617188 80.71875 135.191406 81.996094 137.234375 C 83.277344 139.277344 84.894531 142.386719 86.089844 143.367188 C 87.28125 144.339844 91.628906 147.179688 93.253906 147.800781 C 94.871094 148.429688 95.8125 149.3125 96.660156 149.3125 C 97.511719 149.3125 101.183594 148.867188 104.164062 149.046875 C 107.148438 149.226562 116.277344 150.648438 120.371094 152.335938 C 124.460938 154.023438 126.59375 154.910156 130.601562 156.242188 C 134.605469 157.570312 134.78125 158.460938 140.664062 160.683594 C 146.546875 162.902344 154.992188 161.484375 160.363281 163.433594 C 165.734375 165.390625 176.222656 167.878906 180.230469 169.742188 C 184.238281 171.605469 195.835938 173.5625 198.308594 174.449219 C 200.78125 175.335938 220.992188 179.777344 223.636719 180.488281 C 226.28125 181.199219 225.171875 180.753906 233.355469 181.199219 C 241.542969 181.640625 243.078125 181.289062 245.980469 181.996094 C 248.875 182.707031 253.996094 182.085938 256.46875 181.996094 C 258.9375 181.910156 280.855469 181.019531 287.25 179.601562 C 293.648438 178.179688 293.816406 177.738281 300.890625 177.914062 C 307.972656 178.089844 328.351562 178.359375 331.421875 177.914062 C 334.492188 177.46875 350.695312 175.605469 358.453125 173.738281 C 366.21875 171.875 364.171875 171.34375 365.019531 170.984375 C 365.875 170.628906 369.710938 168.320312 374.316406 167.167969 C 378.921875 166.011719 390.519531 162.988281 400.582031 156.59375 C 410.640625 150.203125 417.378906 146.828125 421.640625 144.070312 C 425.910156 141.324219 439.722656 130.664062 438.957031 128.441406 C 438.1875 126.222656 436.246094 123.714844 435.054688 123.800781 M 414.3125 106.238281 C 415.164062 106.859375 415.5 107.660156 415.5 107.660156 M 420.023438 110.765625 C 419.425781 112.011719 419.171875 112.632812 419.171875 112.542969 "/>
<path style=" stroke:none;fill-rule:nonzero;fill:rgb(97.254902%,97.254902%,97.254902%);fill-opacity:1;" d="M 400.582031 156.59375 C 397.683594 158.015625 396.148438 154.109375 394.613281 151.800781 C 393.078125 149.492188 390.007812 142.566406 393.078125 140.609375 C 396.148438 138.65625 402.457031 136.167969 405.699219 135.277344 C 408.894531 134.402344 407.832031 134.78125 414.863281 131.78125 C 414.796875 131.722656 414.726562 131.660156 414.652344 131.597656 C 414.539062 131.601562 414.425781 131.609375 414.308594 131.617188 C 388.867188 133.25 394.675781 124.566406 384.460938 120.003906 C 365.84375 111.683594 362.183594 79.675781 323.453125 78.4375 C 294.746094 77.523438 244.78125 135.191406 161.113281 127.265625 C 102.800781 118.40625 88.746094 100.257812 87.625 100.023438 C 82.933594 99.042969 82.675781 101.261719 82.164062 103.039062 C 81.652344 104.820312 79.605469 108.902344 80.207031 111.480469 C 80.800781 114.054688 81.566406 117.160156 81.742188 119.382812 C 81.910156 121.601562 82.847656 122.753906 82.589844 125.6875 C 82.335938 128.617188 80.71875 135.191406 81.996094 137.234375 C 83.277344 139.277344 84.894531 142.386719 86.089844 143.367188 C 87.28125 144.339844 91.628906 147.179688 93.253906 147.800781 C 94.871094 148.425781 95.8125 149.3125 96.660156 149.3125 C 97.511719 149.3125 101.183594 148.867188 104.164062 149.046875 C 107.148438 149.226562 116.277344 150.648438 120.371094 152.335938 C 124.460938 154.023438 126.59375 154.910156 130.601562 156.242188 C 134.605469 157.570312 134.78125 158.460938 140.664062 160.683594 C 146.546875 162.902344 154.992188 161.484375 160.363281 163.433594 C 165.734375 165.390625 176.222656 167.878906 180.230469 169.742188 C 184.238281 171.605469 195.835938 173.5625 198.308594 174.449219 C 200.78125 175.335938 220.992188 179.777344 223.636719 180.488281 C 226.28125 181.199219 225.171875 180.753906 233.355469 181.199219 C 241.542969 181.640625 243.078125 181.289062 245.980469 181.996094 C 248.875 182.707031 253.996094 182.085938 256.46875 181.996094 C 258.9375 181.910156 280.855469 181.019531 287.25 179.601562 C 293.648438 178.179688 293.816406 177.738281 300.890625 177.914062 C 307.972656 178.089844 328.351562 178.359375 331.421875 177.914062 C 334.492188 177.46875 350.695312 175.605469 358.453125 173.738281 C 366.21875 171.875 364.171875 171.34375 365.019531 170.984375 C 365.875 170.628906 369.710938 168.320312 374.316406 167.167969 C 378.921875 166.011719 390.519531 162.988281 400.582031 156.59375 M 373.59375 167.433594 "/>
<path style="fill-rule:nonzero;fill:rgb(95.294118%,87.058824%,81.960785%);fill-opacity:1;stroke-width:1.40945;stroke-linecap:butt;stroke-linejoin:miter;stroke:rgb(0%,0%,0%);stroke-opacity:1;stroke-miterlimit:4;" d="M 1421.325132 422.997265 C 1439.663552 419.332205 1440.671325 427.659222 1442.671603 434.329631 C 1444.67188 441.014701 1452.672989 456.334651 1450.321518 466.01041 C 1448.000585 475.671508 1445.007804 487.326399 1444.320686 495.668076 C 1443.664107 503.995092 1439.999476 508.319863 1441.00725 519.329703 C 1441.999754 530.324883 1448.321241 554.998068 1443.328182 562.665373 C 1438.319854 570.332679 1431.998367 582.00223 1427.325964 585.68195 C 1422.66883 589.33235 1405.674108 599.990345 1399.322082 602.321323 C 1392.985326 604.666961 1389.320696 607.994836 1386.00726 607.994836 C 1382.678554 607.994836 1424.669107 616.321852 1432.670216 620.001572 C 1440.671325 623.666632 1496.663819 647.32826 1512.330113 651.667691 C 1527.996407 656.007122 1600.006388 682.322253 1607.671573 682.996624 C 1615.336757 683.656335 1680.994713 703.007852 1686.659621 702.670667 C 1692.339797 702.333481 1711.334797 702.333481 1711.334797 702.333481 C 1711.334797 702.333481 1710.678217 639.323769 1710.678217 639.323769 C 1710.678217 639.323769 1701.33341 590.329246 1696.004427 580.345623 C 1690.660175 570.332679 1679.33036 536.672767 1675.329806 533.344893 C 1671.329251 530.002358 1666.656848 518.669993 1666.656848 518.669993 C 1666.656848 518.669993 1669.664899 511.662398 1673.665453 505.66636 C 1681.666562 495.33089 1686.003041 476.008694 1690.33952 464.998853 C 1700.661562 445.676657 1709.655175 417.001227 1711.991376 406.328572 C 1711.991376 406.328572 1727.00109 351.015486 1727.00109 350.678301 C 1727.00109 350.326455 1730.329796 321.005975 1727.993594 318.674997 C 1725.657393 316.329358 1723.657115 315.332462 1697.68405 321.665686 C 1671.665176 327.998909 1628.330925 344.330417 1604.663522 354.006175 C 1580.99612 363.667274 1562.321775 368.32923 1539.326221 378.004988 C 1520.010567 384.338212 1497.320399 394.336496 1476.676316 400.66972 C 1461.666602 408.674211 1403.001982 426.676986 1421.325132 422.997265 Z M 1421.325132 422.997265 " transform="matrix(-0.255824,0,0,0.266452,451.233952,-12.688927)"/>
<path style="fill-rule:nonzero;fill:rgb(65.882355%,65.882355%,100%);fill-opacity:1;stroke-width:1.40945;stroke-linecap:butt;stroke-linejoin:miter;stroke:rgb(0%,0%,0%);stroke-opacity:1;stroke-miterlimit:4;" d="M 587.682862 715.337114 C 577.421898 715.571678 559.999635 715.864883 541.554331 716.055466 C 559.999635 740.670009 547.005468 723.66413 556.65566 762.675029 C 556.65566 762.675029 569.680367 808.004492 572.337223 819.996568 C 574.99408 832.003305 595.683971 879.004035 599.684525 885.000073 C 603.654541 891.010772 617.656482 905.011301 621.672306 912.663946 C 625.672861 920.331252 631.994348 930.00701 638.682297 940.34248 C 645.32444 950.663289 645.32444 955.325245 656.333599 966.672271 C 667.327489 977.989976 672.671742 985.994467 675.679792 985.994467 C 678.672573 985.994467 676.992951 988.325446 682.337204 979.338718 C 687.681456 970.322671 694.323598 954.665534 698.996001 952.012031 C 703.668405 949.329207 710.325816 932.997699 710.325816 932.997699 C 710.325816 932.997699 714.677564 920.331252 714.677564 920.331252 C 714.677564 920.331252 719.991278 914.994924 722.678673 902.680323 C 725.33553 890.32174 726.328034 877.992478 730.328589 870.999544 C 734.329143 863.991949 738.680891 844.669753 738.680891 844.669753 C 738.680891 844.669753 742.666177 823.998814 738.986277 815.671798 C 735.336916 807.344781 724.327757 790.324242 723.991832 790.324242 C 723.671177 790.324242 712.677287 777.657795 692.323321 767.336986 C 671.999893 757.001516 655.67702 741.32972 647.67591 740.010298 C 639.674801 738.661556 623.993238 731.316776 623.993238 730.99425 C 623.993238 730.657065 613.991852 726.654819 603.654541 725.995109 C 598.997407 725.995109 593.3325 720.336256 593.3325 720.336256 C 589.270868 714.545461 615.33555 714.677403 587.682862 715.337114 Z M 587.682862 715.337114 " transform="matrix(-0.255824,0,0,0.266452,451.233952,-12.688927)"/>
<path style="fill-rule:nonzero;fill:rgb(95.294118%,87.058824%,81.960785%);fill-opacity:1;stroke-width:1.40945;stroke-linecap:butt;stroke-linejoin:miter;stroke:rgb(0%,0%,0%);stroke-opacity:1;stroke-miterlimit:4;" d="M 1260.325717 415.989671 C 1264.99812 413.658692 1283.672464 415.989671 1292.681346 416.326856 C 1301.67496 416.678702 1327.32737 412.998982 1336.672177 408.996736 C 1345.986445 404.994491 1341.985891 379.001885 1342.321815 371.319919 C 1342.505047 367.376314 1346.53614 351.25005 1344.322092 335.666215 C 1342.260738 321.108596 1333.969512 307.034766 1333.328202 303.325725 C 1332.671622 299.543383 1325.769902 284.414015 1316.669404 270.325525 C 1307.355136 255.899848 1295.857359 242.54437 1293.994506 239.011252 C 1290.329875 231.988997 1257.66886 202.331331 1251.668028 198.329085 C 1245.682465 194.3415 1206.669424 167.674523 1200.332668 164.683834 C 1193.995912 161.663825 1183.994525 152.999623 1162.3274 147.663295 C 1153.226902 145.420279 1144.324905 140.860944 1134.659443 138.676568 C 1121.375159 135.656559 1107.922912 135.421995 1102.334351 135.993744 C 1092.66889 137.005301 1090.332688 135.993744 1084.66778 135.334033 C 1079.002873 134.674323 1080.667226 133.662766 1073.337966 134.996848 C 1065.993436 136.31627 1063.000655 138.676568 1056.999823 141.007546 C 1050.998991 143.338525 1048.342135 142.326968 1042.005378 142.678814 C 1035.668622 143.001339 1034.996773 138.324722 1032.339917 136.668115 C 1029.66779 134.996848 1024.338807 136.31627 1012.673068 136.668115 C 1001.007329 137.005301 1004.671959 135.993744 1001.663909 130.672077 C 998.671127 125.33575 997.999279 120.673793 997.999279 120.673793 C 997.999279 120.673793 993.00622 119.676897 986.31827 120.014082 C 979.660859 120.336608 977.660582 118.00563 973.660027 114.663095 C 969.674742 111.32056 970.667246 110.998035 966.346036 102.671018 C 962.009557 94.329342 965.002338 98.331587 959.322162 97.671877 C 953.672524 96.997505 951.672246 98.009062 938.998734 98.009062 C 926.325222 98.009062 933.318557 95.678084 929.318003 90.986807 C 925.317448 86.324851 926.004566 84.668244 926.004566 84.668244 C 926.004566 84.668244 919.66781 86.662036 914.674752 87.673593 C 909.666424 88.655829 905.665869 91.675838 897.008181 90.327096 C 888.319954 88.993014 891.999853 84.331058 891.999853 84.331058 C 891.999853 84.331058 889.327727 76.004042 889.327727 76.004042 C 889.327727 76.004042 878.669761 80.006287 873.004854 82.00008 C 867.324677 83.993872 861.675039 84.990769 858.331064 83.993872 C 855.002358 82.996976 854.009854 77.675309 850.329955 65.991098 C 846.665325 54.321546 842.66477 57.341556 836.984594 58.675638 C 831.319686 59.995059 829.334678 61.329141 824.005695 63.997305 C 818.676712 66.680129 799.987099 73.335878 797.009587 73.013353 C 793.986267 72.676167 789.329133 72.676167 789.985713 63.997305 C 790.306368 60.03904 793.528188 50.509884 790.672831 48.325508 C 787.283048 45.759966 777.434355 51.037653 774.014033 52.6796 C 767.677277 55.670289 758.33247 60.332245 751.675059 63.660119 C 744.987109 67.002654 739.673395 69.011107 729.672009 76.004042 C 719.670623 82.996976 703.668405 97.320031 696.675069 99.680329 C 689.681733 102.011308 692.002665 102.011308 690.338313 98.009062 C 688.67396 94.006816 688.67396 91.323993 690.338313 77.015598 C 692.002665 62.677883 685.681178 73.013353 674.992674 78.994731 C 664.334708 84.990769 663.326935 88.333304 653.325549 97.671877 C 643.339432 106.995789 637.995179 108.329871 631.001844 110.338324 C 623.993238 112.332117 621.336382 108.329871 619.336104 98.991298 C 618.78641 96.425756 622.359424 86.207569 618.679525 87.673593 C 608.952986 91.529236 585.606238 116.1731 579.330559 123.679143 C 570.657601 133.999952 558.991862 137.005301 558.335283 135.334033 C 557.663434 133.662766 555.663156 132.66587 554.334728 132.66587 C 553.0063 132.66587 540.332787 143.338525 535.660384 147.003585 C 531.00325 150.668645 483.668444 190.66178 497.670385 188.330802 C 511.657057 185.999823 537.004082 180.663496 565.664543 186.659534 C 594.340273 192.670233 646.988792 193.329943 657.677297 193.667129 C 668.335263 194.004314 724.327757 214.675253 761.9971 219.337209 C 799.666444 223.999166 883.66282 262.672879 930.005121 265.326383 C 976.316884 267.994546 1045.334084 315.332462 1073.658621 324.671035 C 1101.998427 333.994948 1175.657492 389.322694 1191.339055 398.001556 C 1202.241329 404.026915 1231.3446 416.018991 1254.905118 423.89154 C 1265.227159 427.336696 1255.668582 418.320649 1260.325717 415.989671 Z M 1260.325717 415.989671 " transform="matrix(-0.255824,0,0,0.266452,451.233952,-12.688927)"/>
<path style="fill-rule:nonzero;fill:rgb(78.039217%,78.039217%,87.058824%);fill-opacity:1;stroke-width:1.40945;stroke-linecap:butt;stroke-linejoin:miter;stroke:rgb(0%,0%,0%);stroke-opacity:1;stroke-miterlimit:4;" d="M 1228.33655 656.007122 C 1228.33655 656.007122 1272.678574 655.332751 1277.992287 656.666833 C 1283.33654 658.000915 1300.667186 679.991275 1303.324043 688.670137 C 1305.996169 697.334339 1306.668018 716.671196 1309.324875 742.004091 C 1311.997001 767.336986 1303.995892 771.324571 1293.322657 794.678334 C 1282.67996 818.002776 1278.679406 814.674901 1267.334322 826.666978 C 1255.989238 838.659054 1224.67192 852.674244 1212.670256 858.670282 C 1200.683862 864.66632 1185.994803 862.672527 1167.992307 858.010571 C 1150.005081 853.333954 1140.660275 852.674244 1124.001477 840.667507 C 1107.32741 828.66077 1042.661958 818.662486 1015.314656 812.681109 C 987.997892 806.67041 937.319112 775.986527 916.00318 764.009111 C 894.671979 752.002375 881.326618 732.665518 881.326618 732.665518 C 881.326618 732.665518 879.326341 727.666376 889.663651 724.998212 C 900.000962 722.330049 979.004279 705.661356 988.669741 702.333481 C 998.319934 699.005606 1043.669731 691.660826 1059.336025 684.667892 C 1075.002319 677.674957 1116.000368 668.336384 1136.995644 660.991604 C 1157.990921 653.676144 1191.003131 658.997811 1213.998684 650.670795 C 1217.678584 654.65838 1216.670811 658.000915 1228.33655 656.007122 Z M 1228.33655 656.007122 " transform="matrix(-0.255824,0,0,0.266452,451.233952,-12.688927)"/>
<path style=" stroke:none;fill-rule:nonzero;fill:rgb(93.333334%,83.137256%,76.078433%);fill-opacity:1;" d="M 247.28125 72.285156 C 248.558594 72.289062 249.863281 72.417969 251.175781 72.710938 C 257.191406 74.039062 275.355469 81.234375 279.832031 84.5625 C 282.453125 86.515625 285.113281 89.5625 287.257812 92.421875 C 273.679688 99.890625 257.71875 108.96875 238.988281 116.101562 C 236.621094 111.394531 233.683594 105.273438 233.144531 102.550781 C 232.375 98.6875 230.96875 89.492188 230.96875 88.164062 C 230.96875 86.832031 232.886719 76.171875 236.085938 74.84375 C 238.585938 73.800781 242.722656 72.269531 247.28125 72.285156 Z M 247.28125 72.285156 "/>
<path style=" stroke:none;fill-rule:nonzero;fill:rgb(94.117647%,94.117647%,94.117647%);fill-opacity:1;" d="M 287.257812 92.421875 C 288.773438 94.441406 290.039062 96.375 290.832031 97.757812 C 292.75 101.085938 298.761719 108.148438 301.449219 111.347656 C 304.136719 114.539062 310.273438 122.269531 312.066406 124.667969 C 313.855469 127.0625 313.726562 130.53125 313.726562 132.128906 C 313.726562 133.726562 313.855469 135.191406 312.320312 139.585938 C 310.785156 143.984375 309.632812 148.246094 307.71875 148.515625 C 305.796875 148.78125 302.34375 149.046875 297.226562 148.515625 C 292.113281 147.984375 279.578125 146.648438 276.632812 146.25 C 273.691406 145.851562 270.238281 146.648438 267.554688 144.785156 C 264.867188 142.917969 258.726562 139.585938 255.019531 135.722656 C 251.308594 131.859375 243.378906 124.667969 241.457031 120.9375 C 240.890625 119.832031 239.984375 118.082031 238.988281 116.101562 C 257.71875 108.96875 273.679688 99.890625 287.257812 92.421875 Z M 287.257812 92.421875 "/>
<path style="fill:none;stroke-width:1.40945;stroke-linecap:butt;stroke-linejoin:miter;stroke:rgb(0%,0%,0%);stroke-opacity:1;stroke-miterlimit:4;" d="M 543.004913 571.490838 C 549.005745 587.998268 553.510186 603.99259 560.992139 605.004147 C 568.504631 606.001043 582.002685 606.997939 601.990189 605.004147 C 621.992961 603.010354 670.992119 597.996552 682.505166 596.501207 C 693.987673 595.005863 707.500997 597.996552 717.991001 591.003617 C 728.496273 584.010683 752.499601 571.490838 766.990159 556.99186 C 781.495986 542.492883 812.492649 515.503381 820.005141 501.502851 C 827.502363 487.487662 849.505413 446.996079 852.498194 432.497101 C 855.490976 417.998124 861.00319 383.487918 861.00319 378.503437 C 861.00319 373.504295 853.505968 333.496499 841.000417 328.512018 C 828.494867 323.498216 805.499313 315.493724 782.015142 320.507527 C 758.500432 325.492008 687.498224 352.496171 669.999616 364.986695 C 652.501007 377.49188 634.498511 401.989141 627.001289 414.508986 C 619.504067 426.999511 596.004626 453.505225 585.499353 465.511962 C 574.99408 477.489378 551.006022 506.501993 543.997417 515.503381 C 537.004082 524.490108 537.507968 537.508401 537.507968 543.504439 C 537.507968 549.500478 537.004082 554.998068 543.004913 571.490838 Z M 543.004913 571.490838 " transform="matrix(-0.255824,0,0,0.266452,451.233952,-12.688927)"/>
<path style="fill-rule:nonzero;fill:rgb(88.235295%,78.039217%,70.980394%);fill-opacity:1;stroke-width:1.40945;stroke-linecap:butt;stroke-linejoin:miter;stroke:rgb(0%,0%,0%);stroke-opacity:1;stroke-miterlimit:4;" d="M 921.500125 243.995733 C 922.492629 235.991242 930.005121 225.49451 935.502066 217.490019 C 940.999011 209.500188 959.490124 196.496555 971.491788 187.509828 C 983.493451 178.49378 985.493728 174.989983 999.007052 161.502562 C 1012.489837 148.000481 1014.36796 154.231083 1017.635588 145.992028 C 1011.13087 149.012037 997.999279 158.497213 991.005943 163.012567 C 983.997338 167.4986 979.492897 170.489289 970.499284 177.511544 C 961.490401 184.504479 952.008171 188.492064 944.495679 196.496555 C 936.998457 204.501046 931.501512 206.011051 926.99707 209.00174 C 922.492629 212.007089 905.00929 227.502963 897.496798 233.499001 C 889.999576 239.49504 887.006795 239.993488 883.00624 235.009006 C 879.005685 229.995204 886.502908 224.512274 891.999853 216.507783 C 897.496798 208.503292 905.00929 202.008806 914.49152 192.010522 C 924.004289 181.997578 923.500403 183.507583 935.502066 171.999294 C 947.48846 160.491006 948.496234 163.496355 964.498452 148.484269 C 969.094509 143.279884 978.546201 136.36025 977.828544 134.366458 C 971.23221 137.503749 964.009834 143.001339 949.488738 151.504278 C 934.99818 159.992557 926.99707 166.003256 921.500125 168.495497 C 916.00318 170.987737 883.00624 192.49431 864.499858 212.505538 C 846.008745 232.502105 844.497085 216.009335 849.505413 204.501046 C 854.498472 192.992758 859.49153 193.491206 866.011518 184.006031 C 872.500967 174.491535 895.007904 155.990312 916.491798 137.987537 C 938.00623 120.014082 938.00623 119.500974 926.99707 124.998564 C 916.00318 130.510814 911.498739 133.003055 902.489857 138.999093 C 893.496244 145.009792 881.998467 151.00583 870.50069 162.00101 C 859.002913 172.99619 883.00624 151.504278 833.503195 192.49431 C 784.015419 233.499001 822.005418 195.484999 823.501809 186.99672 C 825.013469 178.49378 829.502641 170.489289 836.984594 160.491006 C 844.497085 150.492722 858.010409 143.998235 889.495689 118.504078 C 921.011508 92.99526 901.008735 104.503548 891.999853 108.007346 C 883.00624 111.496483 879.005685 116.994073 868.500413 123.004771 C 858.010409 129.00081 847.001249 138.999093 838.007636 145.49358 C 829.014023 152.002726 825.502086 159.508769 795.986544 178.992229 C 766.501541 198.505008 767.494045 188.990512 771.4946 179.505337 C 775.495154 170.005501 782.015142 166.003256 793.49765 151.504278 C 805.010696 137.005301 817.500977 129.499258 839.504027 112.50804 C 861.491807 95.502161 859.002913 88.494566 842.496808 103.491992 C 826.005973 118.504078 830.495145 110.998035 820.005141 118.504078 C 809.499868 125.99546 809.011251 128.502362 759.996823 161.004114 C 710.997665 193.491206 730.496551 168.495497 732.496828 155.008076 C 733.580948 147.707276 745.109263 135.09947 759.996823 122.90215 C 771.616754 113.387654 785.527079 100.076156 797.986822 92.731376 C 799.10148 92.071665 805.835238 88.787771 806.919358 88.186701 C 813.653115 82.923675 819.318023 80.15289 821.623686 73.262577 C 807.133128 83.26086 799.009864 86.500774 789.497095 93.508368 C 780.014865 100.501303 770.990713 105.485785 766.012924 106.995789 C 760.989327 108.505794 754.499878 115.498729 709.989891 152.002726 C 665.510444 188.492064 691.498779 152.486514 693.499056 140.509098 C 695.499333 128.502362 729.504047 100.999751 752.499601 77.499386 C 775.495154 53.999021 749.995437 73.013353 739.505433 80.490075 C 729.00016 87.996118 724.999606 88.993014 712.509325 99.504407 C 699.988505 110.001138 678.000725 127.989253 670.503502 133.003055 C 662.99101 137.987537 645.996288 154.494967 635.002398 169.507053 C 623.993238 184.504479 619.504067 177.511544 619.00018 177.511544 C 618.511563 177.511544 619.504067 167.014812 621.000457 161.502562 C 622.512117 155.990312 639.002953 130.994602 646.988792 123.004771 C 654.989901 115.00028 669.999616 90.986807 667.510721 94.505265 C 664.991288 98.009062 655.509057 105.998893 648.98907 112.991827 C 642.49962 120.014082 606.509899 152.486514 600.509067 158.497213 C 594.508235 164.493251 588.507404 176.00154 580.994912 179.505337 C 573.512959 182.994474 574.505463 176.499988 572.993803 172.99619 C 571.512682 169.507053 584.995467 137.503749 589.499908 129.499258 C 594.004349 121.494767 606.509899 102.993544 601.990189 107.494237 C 597.501017 112.009591 592.996576 118.504078 588.507404 122.506323 C 584.002963 126.508569 582.506572 125.99546 572.001299 145.49358 C 561.511295 165.006359 550.502136 176.998436 545.005191 177.511544 C 539.508245 177.995332 535.507691 175.503091 535.996308 173.509299 C 536.484926 171.500846 539.996863 162.499458 542.485757 157.500317 C 545.005191 152.486514 555.510464 137.503749 554.50269 135.495296 C 553.510186 133.501503 539.508245 151.504278 532.484371 162.00101 C 525.506305 172.497742 483.668444 190.66178 497.670385 188.330802 C 511.657057 185.999823 537.004082 180.663496 565.664543 186.659534 C 594.340273 192.670233 646.988792 193.329943 657.677297 193.667129 C 668.335263 194.004314 724.327757 214.675253 761.9971 219.337209 C 799.666444 223.999166 883.66282 262.672879 930.005121 265.326383 C 932.356592 265.472985 920.492352 252.000224 921.500125 243.995733 Z M 921.500125 243.995733 " transform="matrix(-0.255824,0,0,0.266452,451.233952,-12.688927)"/>
<path style="fill-rule:nonzero;fill:rgb(95.294118%,87.058824%,81.960785%);fill-opacity:1;stroke-width:1.40945;stroke-linecap:butt;stroke-linejoin:miter;stroke:rgb(0%,0%,0%);stroke-opacity:1;stroke-miterlimit:4;" d="M 86.498888 533.506156 C 81.001943 530.383524 67.626043 521.118253 63.243756 512.248807 C 58.586622 511.926282 50.997784 521.338156 47.989733 529.665173 C 44.996952 538.006849 98.989169 578.014645 115.678505 588.320793 C 132.337303 598.670923 158.676832 611.33737 197.995259 635.321523 C 209.325073 640.657851 215.325905 625.997611 221.326737 617.333409 C 227.327569 608.669207 239.329232 582.676601 227.327569 575.331821 C 215.325905 568.001701 190.665999 558.663128 177.992486 555.320593 C 165.334243 552.007379 142.674614 544.002888 124.000269 529.342647 C 106.669623 511.999583 77.993892 482.664443 68.450585 490.302428 C 59.533318 501.971979 61.319825 510.797444 67.381734 518.200865 C 73.229873 525.281761 82.971682 531.028575 91.003329 536.672767 C 94.499997 540.000642 96.759852 541.246762 100.668791 544.662598 C 101.55441 545.630174 124.366732 562.782655 136.001933 575.331821 C 176.38921 616.101949 163.333966 610.67766 199.995536 625.997611 " transform="matrix(-0.255824,0,0,0.266452,451.233952,-12.688927)"/>
<path style="fill-rule:nonzero;fill:rgb(100%,70.19608%,15.686275%);fill-opacity:1;stroke-width:1.40945;stroke-linecap:butt;stroke-linejoin:miter;stroke:rgb(0%,0%,0%);stroke-opacity:1;stroke-miterlimit:4;" d="M 181.504423 462.008164 C 187.505255 475.495585 197.995259 497.999054 216.013023 502.499748 C 233.98498 507.000441 235.49664 514.506484 262.492749 505.505097 C 289.504126 496.503709 288.007736 496.503709 300.009399 476.99093 C 312.011063 457.507471 310.499403 446.996079 309.003012 431.998653 C 307.491352 417.001227 289.504126 394.497759 274.494412 390.011725 C 259.499967 385.496371 237.0083 384.001027 216.013023 388.50172 C 194.987208 393.002414 191.994427 406.504495 187.505255 413.995878 C 183.016083 421.501921 175.503592 448.491423 181.504423 462.008164 Z M 181.504423 462.008164 " transform="matrix(-0.255824,0,0,0.266452,451.233952,-12.688927)"/>
<path style="fill-rule:nonzero;fill:rgb(12.941177%,6.666667%,2.745098%);fill-opacity:1;stroke-width:1.40945;stroke-linecap:butt;stroke-linejoin:miter;stroke:rgb(0%,0%,0%);stroke-opacity:1;stroke-miterlimit:4;" d="M 239.985812 407.98518 C 223.494977 409.495184 216.013023 407.98518 208.500532 418.511232 C 200.98804 429.007964 196.66683 467.329832 206.500254 480.509387 C 213.49359 484.995421 220.013578 488.997667 229.495808 488.997667 C 239.008577 488.997667 253.499135 488.01543 260.003854 484.995421 C 266.493303 482.004732 275.502185 483.001628 280.983861 475.495585 C 286.496076 468.004203 289.00024 464.001957 288.496353 452.493669 C 288.007736 441.014701 288.007736 433.010209 282.999408 426.002615 C 278.006349 419.00968 274.494412 409.495184 265.012182 407.002943 C 255.499413 404.510703 256.491917 406.504495 239.985812 407.98518 Z M 239.985812 407.98518 " transform="matrix(-0.255824,0,0,0.266452,451.233952,-12.688927)"/>
<path style=" stroke:none;fill-rule:nonzero;fill:rgb(100%,100%,100%);fill-opacity:1;" d="M 399.429688 105.082031 C 398.917969 105.746094 398.28125 106.015625 396.617188 105.484375 C 394.949219 104.949219 394.4375 104.015625 391.375 103.882812 C 388.304688 103.753906 386.894531 103.753906 385.484375 104.015625 C 384.082031 104.285156 383.183594 103.351562 382.925781 104.015625 C 382.671875 104.683594 380.625 105.214844 383.695312 105.882812 C 386.769531 106.550781 387.28125 108.148438 389.578125 108.148438 C 391.878906 108.148438 392.011719 109.214844 394.3125 108.945312 C 396.617188 108.683594 398.917969 110.011719 399.042969 110.675781 C 399.171875 111.347656 401.777344 110.230469 401.777344 109.164062 C 401.777344 108.101562 399.941406 104.417969 399.429688 105.082031 Z M 399.429688 105.082031 "/>
<path style="fill:none;stroke-width:1.40945;stroke-linecap:butt;stroke-linejoin:miter;stroke:rgb(0%,0%,0%);stroke-opacity:1;stroke-miterlimit:4;" d="M 480.003814 361.996006 C 480.003814 361.996006 491.486322 363.506011 498.00631 365.499804 C 504.511028 367.508256 519.490203 376.494984 527.506582 386.991716 C 535.507691 397.488448 550.502136 405.991387 557.999358 409.495184 C 565.51185 412.998982 565.51185 426.999511 564.992694 435.50245 C 564.504077 444.00539 553.998804 468.004203 549.509632 474.000241 C 545.005191 480.010939 526.514078 530.500806 516.512692 544.002888 C 506.511305 557.504969 470.002428 625.997611 461.008815 638.004347 C 451.999933 650.011084 425.996328 646.008838 409.001606 664.993849 C 392.006884 683.993521 370.996338 674.009897 345.008003 678.510591 C 324.394459 682.058369 303.490798 676.00369 303.490798 676.00369 M 67.381734 518.200865 C 59.441702 508.525106 58.830931 496.371767 79.99417 478.662197 C 111.326757 449.664242 172.678773 396.007763 197.995259 375.322164 C 223.327014 354.680546 291.321172 307.327971 318.668474 292.667731 C 348.000784 270.002999 352.001339 264.006961 382.662077 246.326712 C 418.667068 220.671291 483.668444 190.66178 497.670385 188.330802 C 511.657057 185.999823 537.004082 180.663496 565.664543 186.659534 C 594.340273 192.670233 646.988792 193.329943 657.677297 193.667129 C 668.335263 194.004314 724.327757 214.675253 761.9971 219.337209 C 799.666444 223.999166 883.66282 262.672879 930.005121 265.326383 C 976.316884 267.994546 1045.334084 315.332462 1073.658621 324.671035 C 1101.998427 333.994948 1175.657492 389.322694 1191.339055 398.001556 C 1206.990079 406.665758 1260.325717 427.659222 1280.679683 431.001757 C 1300.987841 434.329631 1320.990614 437.994691 1334.992555 437.994691 C 1349.009765 437.994691 1361.011429 440.677515 1384.984217 432.321178 C 1409.002814 423.994162 1403.001982 426.676986 1421.325132 422.997265 C 1439.663552 419.332205 1440.671325 427.659222 1442.671603 434.329631 C 1444.67188 441.014701 1452.672989 456.334651 1450.321518 466.01041 C 1448.000585 475.671508 1445.007804 487.326399 1444.320686 495.668076 C 1443.664107 503.995092 1439.999476 508.319863 1441.00725 519.329703 C 1441.999754 530.324883 1448.321241 554.998068 1443.328182 562.665373 C 1438.319854 570.332679 1431.998367 582.00223 1427.325964 585.68195 C 1422.66883 589.33235 1405.674108 599.990345 1399.322082 602.321323 C 1392.985326 604.666961 1389.320696 607.994836 1386.00726 607.994836 C 1382.678554 607.994836 1368.325419 606.323568 1356.67495 606.997939 C 1344.993941 607.67231 1309.324875 613.008638 1293.322657 619.341862 C 1277.335708 625.675085 1268.998674 629.00296 1253.332381 634.002102 C 1237.681356 638.986583 1236.994238 642.329118 1213.998684 650.670795 C 1191.003131 658.997811 1157.990921 653.676144 1136.995644 660.991604 C 1116.000368 668.336384 1075.002319 677.674957 1059.336025 684.667892 C 1043.669731 691.660826 998.319934 699.005606 988.669741 702.333481 C 979.004279 705.661356 900.000962 722.330049 889.663651 724.998212 C 879.326341 727.666376 883.66282 725.995109 851.673653 727.666376 C 819.669216 729.322983 813.668385 728.003561 802.323301 730.657065 C 791.008755 733.325229 770.990713 730.99425 761.325251 730.657065 C 751.675059 730.33454 665.999061 726.992005 641.00323 721.670338 C 615.992129 716.33401 615.33555 714.677403 587.682862 715.337114 C 559.999635 715.996825 480.339739 717.008381 468.338075 715.337114 C 456.336411 713.665847 392.999388 706.672912 362.674574 699.665317 C 332.319221 692.672383 340.32033 690.67859 337.006894 689.329848 C 333.662919 687.995766 318.668474 679.331564 300.665979 675.006793 C 282.663483 670.667362 237.328955 659.320336 197.995259 635.321523 C 158.676832 611.33737 132.337303 598.670923 115.678505 588.320793 C 98.989169 578.014645 44.996952 538.006849 47.989733 529.665173 C 50.997784 521.338156 58.586622 511.926282 63.243756 512.248807 M 144.323697 446.336368 C 140.994991 448.667346 139.681832 451.672695 139.681832 451.672695 M 121.999992 463.327586 C 124.336194 468.004203 125.328698 470.335181 125.328698 469.997995 " transform="matrix(-0.255824,0,0,0.266452,451.233952,-12.688927)"/>
</g>
</svg>
