<?xml version="1.0" encoding="UTF-8"?>
<svg xmlns="http://www.w3.org/2000/svg" xmlns:xlink="http://www.w3.org/1999/xlink" width="446pt" height="249pt" viewBox="0 0 446 249" version="1.1">
<g id="surface91">
<path style=" stroke:none;fill-rule:nonzero;fill:rgb(95.294118%,93.333334%,84.313726%);fill-opacity:1;" d="M 331.550781 83.648438 C 331.550781 83.648438 328.503906 84.042969 326.78125 84.574219 C 325.050781 85.101562 321.074219 87.488281 318.953125 90.265625 C 316.828125 93.046875 312.847656 95.300781 310.855469 96.230469 C 308.863281 97.15625 308.863281 100.859375 309 103.117188 C 309.132812 105.363281 311.917969 111.722656 313.109375 113.308594 C 314.304688 114.902344 319.214844 128.277344 321.871094 131.855469 C 324.519531 135.425781 334.207031 153.570312 336.59375 156.746094 C 338.984375 159.929688 345.886719 158.871094 350.394531 163.902344 C 354.902344 168.933594 360.476562 166.285156 367.375 167.472656 C 372.84375 168.421875 378.386719 166.816406 378.386719 166.816406 M 441.035156 125.015625 C 443.144531 122.457031 443.3125 119.234375 437.695312 114.550781 C 429.378906 106.867188 413.101562 92.652344 406.382812 87.175781 C 399.660156 81.707031 381.617188 69.164062 374.359375 65.285156 C 366.582031 59.277344 365.515625 57.691406 357.378906 53.011719 C 347.828125 46.214844 330.582031 38.269531 326.867188 37.648438 C 323.148438 37.03125 316.429688 35.621094 308.820312 37.210938 C 301.21875 38.796875 287.242188 38.972656 284.410156 39.066406 C 281.582031 39.148438 266.71875 44.621094 256.726562 45.859375 C 246.730469 47.097656 224.445312 57.335938 212.152344 58.042969 C 199.855469 58.75 181.546875 71.289062 174.027344 73.757812 C 166.507812 76.230469 146.964844 90.886719 142.804688 93.179688 C 138.648438 95.476562 124.496094 101.042969 119.101562 101.917969 C 113.707031 102.804688 108.402344 103.773438 104.683594 103.773438 C 100.96875 103.773438 97.785156 104.480469 91.417969 102.277344 C 85.050781 100.070312 86.640625 100.773438 81.773438 99.800781 C 76.910156 98.832031 76.644531 101.042969 76.113281 102.804688 C 75.582031 104.570312 73.460938 108.628906 74.085938 111.191406 C 74.699219 113.753906 75.496094 116.84375 75.675781 119.050781 C 75.851562 121.257812 76.820312 122.40625 76.558594 125.320312 C 76.292969 128.234375 74.609375 134.769531 75.9375 136.796875 C 77.265625 138.828125 78.945312 141.917969 80.183594 142.886719 C 81.421875 143.859375 85.933594 146.683594 87.617188 147.300781 C 89.296875 147.917969 90.265625 148.804688 91.148438 148.804688 C 92.03125 148.804688 95.839844 148.359375 98.933594 148.539062 C 102.03125 148.714844 111.496094 150.125 115.742188 151.804688 C 119.984375 153.484375 122.195312 154.367188 126.355469 155.6875 C 130.511719 157.015625 130.6875 157.894531 136.792969 160.105469 C 142.894531 162.3125 151.648438 160.902344 157.222656 162.84375 C 162.792969 164.78125 173.671875 167.253906 177.828125 169.109375 C 181.988281 170.964844 194.015625 172.90625 196.578125 173.789062 C 199.144531 174.671875 220.109375 179.082031 222.847656 179.792969 C 225.597656 180.5 224.445312 180.054688 232.9375 180.5 C 241.421875 180.9375 243.019531 180.585938 246.023438 181.292969 C 249.03125 181.996094 254.339844 181.382812 256.90625 181.292969 C 259.46875 181.203125 282.199219 180.324219 288.832031 178.90625 C 295.46875 177.496094 295.644531 177.058594 302.984375 177.230469 C 310.328125 177.410156 331.464844 177.671875 334.652344 177.230469 C 337.832031 176.789062 354.640625 174.9375 362.6875 173.082031 C 370.738281 171.226562 368.617188 170.699219 369.5 170.34375 C 370.382812 169.992188 374.359375 167.695312 379.136719 166.546875 C 383.914062 165.398438 395.945312 162.398438 406.382812 156.039062 C 416.816406 149.6875 423.804688 146.332031 428.226562 143.589844 C 432.648438 140.859375 446.980469 130.261719 446.183594 128.058594 C 445.386719 125.847656 443.375 123.351562 442.132812 123.441406 M 420.625 105.984375 C 421.507812 106.605469 421.859375 107.394531 421.859375 107.394531 M 426.546875 110.484375 C 425.929688 111.722656 425.664062 112.339844 425.664062 112.25 "/>
<path style=" stroke:none;fill-rule:nonzero;fill:rgb(100%,98.039216%,92.156863%);fill-opacity:1;" d="M 406.382812 156.039062 C 403.378906 157.457031 401.78125 153.570312 400.191406 151.273438 C 398.597656 148.976562 395.414062 142.09375 398.597656 140.152344 C 401.78125 138.207031 408.324219 135.738281 411.6875 134.851562 C 415.007812 133.980469 413.910156 134.351562 421.195312 131.375 C 421.125 131.316406 421.054688 131.253906 420.976562 131.191406 C 420.859375 131.195312 420.742188 131.207031 420.617188 131.210938 C 394.226562 132.835938 400.253906 124.203125 389.664062 119.667969 C 370.347656 111.398438 366.558594 79.578125 326.378906 78.347656 C 296.605469 77.4375 244.785156 134.769531 158.003906 126.886719 C 97.519531 118.078125 82.941406 100.035156 81.773438 99.800781 C 76.910156 98.832031 76.644531 101.042969 76.113281 102.804688 C 75.582031 104.570312 73.460938 108.628906 74.085938 111.191406 C 74.699219 113.753906 75.496094 116.84375 75.675781 119.050781 C 75.851562 121.257812 76.820312 122.40625 76.558594 125.320312 C 76.292969 128.234375 74.609375 134.769531 75.9375 136.796875 C 77.265625 138.828125 78.945312 141.917969 80.183594 142.886719 C 81.421875 143.859375 85.933594 146.683594 87.617188 147.300781 C 89.296875 147.917969 90.265625 148.804688 91.148438 148.804688 C 92.03125 148.804688 95.839844 148.359375 98.933594 148.539062 C 102.03125 148.714844 111.496094 150.125 115.742188 151.804688 C 119.984375 153.484375 122.195312 154.367188 126.355469 155.6875 C 130.511719 157.015625 130.6875 157.894531 136.792969 160.105469 C 142.894531 162.3125 151.648438 160.902344 157.222656 162.84375 C 162.792969 164.78125 173.671875 167.253906 177.828125 169.109375 C 181.988281 170.964844 194.015625 172.90625 196.578125 173.789062 C 199.144531 174.671875 220.109375 179.082031 222.847656 179.792969 C 225.597656 180.5 224.445312 180.054688 232.9375 180.5 C 241.421875 180.9375 243.019531 180.585938 246.023438 181.292969 C 249.03125 181.996094 254.339844 181.382812 256.90625 181.292969 C 259.46875 181.203125 282.199219 180.324219 288.832031 178.90625 C 295.46875 177.496094 295.644531 177.058594 302.984375 177.230469 C 310.328125 177.410156 331.464844 177.671875 334.652344 177.230469 C 337.832031 176.789062 354.640625 174.9375 362.6875 173.082031 C 370.738281 171.230469 368.617188 170.699219 369.5 170.34375 C 370.382812 169.992188 374.359375 167.695312 379.136719 166.546875 C 383.914062 165.398438 395.945312 162.398438 406.382812 156.039062 M 378.386719 166.816406 "/>
<path style="fill-rule:nonzero;fill:rgb(100%,93.333334%,65.882355%);fill-opacity:1;stroke-width:0.24;stroke-linecap:butt;stroke-linejoin:miter;stroke:rgb(0%,0%,0%);stroke-opacity:1;stroke-miterlimit:4;" d="M 54.443403 909.479737 C 53.507878 908.946937 51.2341 907.378556 50.493684 905.87271 C 49.698237 905.815178 48.410013 907.413576 47.899727 908.829371 C 47.38944 910.240164 56.567096 917.026477 59.398687 918.774959 C 62.230278 920.530946 66.705293 922.679653 73.386546 926.746938 C 75.310127 927.652447 76.333202 925.16605 77.351274 923.695223 C 78.371847 922.224397 80.410493 917.816921 78.371847 916.571221 C 76.333202 915.328022 72.143348 913.747134 69.989638 913.179315 C 67.835928 912.616499 63.986265 911.260737 60.814483 908.769337 C 57.870329 905.832687 52.997591 900.857392 51.37668 902.15312 C 49.858327 904.12923 50.163499 905.627572 51.196579 906.880776 C 52.187136 908.081451 53.843066 909.0595 55.208833 910.015037 C 55.801666 910.577854 56.18188 910.790473 56.849755 911.3733 C 57.002341 911.538393 60.877018 914.445026 62.850627 916.571221 C 69.714483 923.487607 67.495737 922.56709 73.726738 925.16605 " transform="matrix(-1.561622,0,0,1.561622,520.984867,-1291.189454)"/>
<path style="fill:none;stroke-width:1.44;stroke-linecap:round;stroke-linejoin:miter;stroke:rgb(61.176473%,81.960785%,94.117647%);stroke-opacity:1;stroke-miterlimit:4;" d="M 90.673759 875.528161 C 91.171539 875.730775 90.62123 875.630719 91.091494 875.81082 M 93.430308 876.581253 C 94.035648 876.818886 93.965609 876.781365 94.525923 877.059021 M 96.777188 878.382265 C 97.392534 878.769982 97.417548 878.757475 97.97286 879.325294 M 99.296104 880.70607 C 100.101556 881.68412 100.096553 882.196908 100.779437 883.890359 C 103.308358 890.131366 104.904254 898.228415 104.103805 902.075577 C 103.308358 905.925239 105.084356 910.185133 107.298099 913.624565 C 108.641354 915.71574 115.672805 923.31501 115.672805 923.31501 M 63.148294 906.455537 C 65.407063 906.855762 66.074938 907.11841 67.935984 906.590613 C 69.799531 906.060315 71.392926 903.668972 73.654197 905.795166 C 75.915467 907.916358 86.608975 912.391372 87.882191 922.119338 C 88.299925 924.165488 88.73517 925.488731 89.405547 926.419254 M 90.7463 927.659951 C 91.609285 928.195252 92.732416 928.572964 94.263276 929.023217 M 66.074938 892.785357 C 64.876765 893.713378 62.883145 897.032743 61.687473 897.82819 C 60.4893 898.626139 59.423701 900.484683 58.760829 900.349607 C 58.095455 900.219534 57.960379 900.219534 57.960379 900.219534 M 88.014765 886.016554 C 88.945288 886.546852 91.339133 887.474873 92.537306 891.324536 C 93.732978 895.174199 93.067604 897.963266 91.869431 900.219534 C 90.673759 902.475801 88.945288 905.394942 86.816592 906.325464 L 84.692899 907.253486 " transform="matrix(-1.561622,0,0,1.561622,520.984867,-1291.189454)"/>
<path style="fill-rule:nonzero;fill:rgb(78.039217%,70.980394%,70.980394%);fill-opacity:1;stroke-width:0.24;stroke-linecap:butt;stroke-linejoin:miter;stroke:rgb(0%,0%,0%);stroke-opacity:1;stroke-miterlimit:4;" d="M 70.582471 897.350422 C 71.605546 899.641709 73.386546 903.456352 76.445765 904.219281 C 79.504984 904.98221 79.757626 906.252924 84.345203 904.729568 C 88.935282 903.201209 88.680139 903.201209 90.716283 899.894351 C 92.75743 896.587493 92.502286 894.806492 92.249645 892.262563 C 91.992 889.718634 88.935282 885.901489 86.38635 885.138561 C 83.837418 884.375632 80.015271 884.12299 76.445765 884.885919 C 72.87626 885.646346 72.368474 887.937633 71.605546 889.210849 C 70.840116 890.481563 69.564399 895.059134 70.582471 897.350422 Z M 70.582471 897.350422 " transform="matrix(-1.561622,0,0,1.561622,520.984867,-1291.189454)"/>
<path style="fill-rule:nonzero;fill:rgb(9.019608%,4.705882%,1.960784%);fill-opacity:1;stroke-width:0.24;stroke-linecap:butt;stroke-linejoin:miter;stroke:rgb(0%,0%,0%);stroke-opacity:1;stroke-miterlimit:4;" d="M 80.523056 888.190275 C 77.721482 888.44792 76.445765 888.190275 75.170048 889.971276 C 73.899334 891.754778 73.16142 898.253429 74.832359 900.487184 C 76.020526 901.250113 77.126147 901.927994 78.739554 901.927994 C 80.355462 901.927994 82.816845 901.760399 83.924967 901.250113 C 85.028087 900.742327 86.553944 900.912423 87.48947 899.641709 C 88.424996 898.368494 88.847733 897.690613 88.765187 895.737015 C 88.680139 893.78842 88.680139 892.432659 87.829661 891.244491 C 86.979183 890.056324 86.38635 888.44792 84.770442 888.022681 C 83.157036 887.597442 83.327131 887.937633 80.523056 888.190275 Z M 80.523056 888.190275 " transform="matrix(-1.561622,0,0,1.561622,520.984867,-1291.189454)"/>
<path style="fill-rule:nonzero;fill:rgb(88.235295%,85.09804%,76.078433%);fill-opacity:1;stroke-width:0.24;stroke-linecap:butt;stroke-linejoin:miter;stroke:rgb(0%,0%,0%);stroke-opacity:1;stroke-miterlimit:4;" d="M 173.665387 827.073437 C 172.927473 827.065933 171.734303 827.70129 171.259036 827.926416 C 170.183431 828.434202 168.595039 829.224646 167.464404 829.789963 C 166.331267 830.357782 165.42826 830.692971 163.727304 831.881138 C 162.026348 833.069306 159.30732 835.500672 158.121654 835.898395 C 156.930985 836.291116 157.326207 836.291116 157.043549 835.613235 C 156.76089 834.935354 156.76089 834.4826 157.043549 832.051234 C 157.326207 829.622369 156.253105 831.373353 154.437084 832.391425 C 152.623565 833.409497 152.455971 833.972313 150.755015 835.555703 C 149.05406 837.141594 148.151052 837.36672 146.960383 837.70441 C 145.769714 838.044601 145.31696 837.36672 144.976769 835.780829 C 144.886718 835.348086 145.492058 833.612111 144.866707 833.85975 C 143.213278 834.515118 139.248551 838.697468 138.182952 839.96568 C 136.712126 841.719166 134.72601 842.229452 134.613446 841.944292 C 134.500883 841.661633 134.160692 841.494039 133.933064 841.494039 C 133.707938 841.494039 131.554228 843.300054 130.763783 843.925405 C 129.970838 844.548255 121.926318 851.332067 124.305155 850.934343 C 126.686493 850.539121 130.98891 849.633612 135.861648 850.654186 C 140.729383 851.669756 149.679411 851.78232 151.49293 851.839852 C 153.303948 851.894883 162.821795 855.399352 169.22039 856.189796 C 175.621487 856.985243 189.892004 863.541426 197.763927 863.994181 C 205.638351 864.446935 217.362438 872.476446 222.177644 874.057335 C 226.992849 875.640724 239.50738 885.025997 242.171377 886.494322 C 244.019916 887.519899 248.970197 889.55104 252.974947 890.88679 C 254.725931 891.469618 253.102519 889.94376 253.895464 889.548538 C 254.685908 889.153316 257.862693 889.548538 259.388551 889.603569 C 260.916909 889.663603 265.27936 889.040753 266.865251 888.360371 C 268.451142 887.68249 267.77076 883.272512 267.828292 881.971781 C 267.858309 881.301405 268.543694 878.564867 268.168484 875.923383 C 267.818287 873.454496 266.407494 871.068155 266.299934 870.437801 C 266.18737 869.797441 265.01171 867.228498 263.468343 864.842157 C 261.887455 862.398284 259.931356 860.129509 259.613677 859.529172 C 258.993329 858.341005 253.44271 853.310678 252.424638 852.627795 C 251.401563 851.949914 244.777842 847.427373 243.699736 846.922089 C 242.624132 846.411802 240.923176 844.940976 237.243609 844.037968 C 235.695239 843.657755 234.18439 842.882319 232.543468 842.50961 C 230.282197 841.999323 227.998414 841.959301 227.04788 842.059357 C 225.404457 842.229452 225.009235 842.059357 224.046194 841.944292 C 223.083153 841.831729 223.368313 841.661633 222.120112 841.88676 C 220.874412 842.111886 220.364125 842.50961 219.346053 842.907333 C 218.327981 843.300054 217.870224 843.13246 216.794619 843.189992 C 215.721516 843.245023 215.608953 842.454579 215.156199 842.17192 C 214.700943 841.88676 213.792933 842.111886 211.81182 842.17192 C 209.830707 842.229452 210.456058 842.059357 209.94327 841.153848 C 209.432983 840.248339 209.32042 839.460397 209.32042 839.460397 C 209.32042 839.460397 208.469942 839.2878 207.336806 839.345332 C 206.20617 839.400363 205.863478 839.007642 205.185597 838.439823 C 204.505215 837.874506 204.677812 837.819475 203.939897 836.406181 C 203.201982 834.990385 203.714771 835.668266 202.749228 835.555703 C 201.788688 835.44314 201.448497 835.613235 199.294787 835.613235 C 197.143579 835.613235 198.334248 835.218013 197.651364 834.425068 C 196.973483 833.634623 197.086046 833.354466 197.086046 833.354466 C 197.086046 833.354466 196.010442 833.692156 195.162466 833.85975 C 194.311988 834.032347 193.634107 834.540132 192.158278 834.312504 C 190.687451 834.087378 191.3078 833.294432 191.3078 833.294432 L 190.855045 831.881138 C 190.855045 831.881138 189.046529 832.559019 188.080987 832.89921 C 187.117946 833.2369 186.154905 833.409497 185.589587 833.2369 C 185.024269 833.069306 184.851672 832.166298 184.231324 830.185185 C 183.608474 828.206574 182.928092 828.71686 181.965051 828.944488 C 181.00201 829.169615 180.661818 829.394741 179.75631 829.847496 C 178.848299 830.30025 175.676517 831.428384 175.168732 831.373353 C 174.658445 831.315821 173.8655 831.315821 173.978063 829.847496 C 174.030593 829.172116 174.575899 827.556208 174.093128 827.188502 C 173.983066 827.105955 173.835483 827.070936 173.665387 827.070936 Z M 173.665387 827.073437 " transform="matrix(-1.561622,0,0,1.561622,520.984867,-1291.189454)"/>
<path style="fill-rule:nonzero;fill:rgb(84.313726%,81.176472%,69.01961%);fill-opacity:1;stroke-width:0.24;stroke-linecap:butt;stroke-linejoin:miter;stroke:rgb(0%,0%,0%);stroke-opacity:1;stroke-miterlimit:4;" d="M 196.320616 860.374647 C 196.493213 859.018885 197.763927 857.237885 198.701954 855.882123 C 199.63748 854.526361 202.779245 852.320122 204.81789 850.794264 C 206.854034 849.265906 207.196727 848.673073 209.490516 846.384287 C 211.784304 844.092999 212.099481 845.151094 212.657295 843.752808 C 211.551674 844.263095 209.32042 845.876501 208.129751 846.636929 C 206.941584 847.399857 206.176153 847.910144 204.647795 849.098312 C 203.116935 850.283978 201.50603 850.961859 200.230313 852.320122 C 198.954596 853.675883 198.021572 853.931027 197.256142 854.441314 C 196.493213 854.946597 193.516541 857.578076 192.243325 858.593646 C 190.97011 859.611718 190.457322 859.696766 189.779441 858.851291 C 189.099059 858.000813 190.374776 857.070291 191.3078 855.712027 C 192.243325 854.353764 193.516541 853.253146 195.132449 851.557193 C 196.745855 849.858739 196.660807 850.116384 198.701954 848.162786 C 200.7406 846.21169 200.908194 846.721976 203.627221 844.178047 C 204.40766 843.290048 206.013562 842.119391 205.893495 841.781701 C 204.770364 842.311999 203.542174 843.245023 201.080791 844.688334 C 198.614405 846.129143 197.256142 847.147215 196.320616 847.569953 C 195.387592 847.995192 189.779441 851.642241 186.635174 855.034147 C 183.493409 858.426052 183.240767 855.624478 184.086242 853.675883 C 184.93672 851.724787 185.787198 851.809835 186.892819 850.201431 C 187.995939 848.588025 191.818086 845.451263 195.470138 842.397047 C 199.124692 839.345332 199.124692 839.260284 197.256142 840.193308 C 195.387592 841.126333 194.624663 841.551571 193.093803 842.567142 C 191.565445 843.585214 189.611847 844.603286 187.655748 846.469335 C 185.70215 848.335383 189.779441 844.688334 181.367215 851.642241 C 172.95749 858.593646 179.413617 852.150026 179.671262 850.709217 C 179.923904 849.265906 180.689334 847.910144 181.965051 846.21169 C 183.240767 844.518238 185.532055 843.415119 190.882561 839.090189 C 196.235568 834.765259 192.83866 836.716355 191.3078 837.309188 C 189.779441 837.904522 189.099059 838.835045 187.318058 839.853117 C 185.532055 840.871189 183.663505 842.567142 182.132645 843.670262 C 180.604286 844.773382 180.011453 846.044096 174.998637 849.350954 C 169.98582 852.660313 170.155916 851.046906 170.833797 849.436001 C 171.514179 847.825096 172.617299 847.147215 174.573398 844.688334 C 176.526995 842.229452 178.65319 840.956237 182.39029 838.072117 C 186.127389 835.187996 185.70215 833.999829 182.898075 836.546259 C 180.096501 839.090189 180.859429 837.819475 179.073426 839.090189 C 177.292425 840.363404 177.204876 840.78364 168.880199 846.296738 C 160.555522 851.809835 163.867383 847.569953 164.207574 845.281167 C 164.392678 844.042971 166.348777 841.906771 168.880199 839.838109 C 170.856309 838.222201 173.217636 835.965933 175.336326 834.720233 C 175.523932 834.610172 176.667074 834.052358 176.852178 833.947299 C 177.99532 833.054297 178.958361 832.584033 179.356085 831.418378 C 176.889699 833.116832 175.508923 833.662139 173.893015 834.850306 C 172.279609 836.038474 170.748749 836.883949 169.898271 837.141594 C 169.047793 837.394236 167.944673 838.582403 160.382925 844.773382 C 152.823678 850.961859 157.243661 844.855928 157.581351 842.822285 C 157.921542 840.78364 163.699788 836.12102 167.604482 832.13378 C 171.514179 828.151543 167.179243 831.373353 165.395741 832.644067 C 163.614741 833.914781 162.934358 834.087378 160.808164 835.868378 C 158.686972 837.646878 154.944869 840.701094 153.674156 841.551571 C 152.398439 842.397047 149.511817 845.196119 147.638264 847.740048 C 145.769714 850.283978 145.009287 849.098312 144.921738 849.098312 C 144.83669 849.098312 145.009287 847.31481 145.261929 846.384287 C 145.517073 845.451263 148.321148 841.208879 149.679411 839.853117 C 151.040176 838.497356 153.589108 834.425068 153.163869 835.017901 C 152.73863 835.613235 151.122722 836.968997 150.019602 838.157164 C 148.913981 839.345332 142.798045 844.855928 141.779973 845.876501 C 140.759399 846.892072 139.738826 848.843168 138.465611 849.436001 C 137.192395 850.028834 137.362491 848.928216 137.104846 848.335383 C 136.852204 847.740048 139.145993 842.311999 139.908922 840.956237 C 140.674352 839.600475 142.798045 836.45871 142.032615 837.22414 C 141.267185 837.987069 140.504256 839.090189 139.738826 839.768069 C 138.973396 840.448452 138.720754 840.363404 136.937252 843.670262 C 135.151249 846.974618 133.282699 849.013264 132.349674 849.098312 C 131.414149 849.180858 130.733767 848.755619 130.821316 848.417929 C 130.903862 848.077738 131.499197 846.554382 131.924436 845.703904 C 132.349674 844.855928 134.133177 842.311999 133.96058 841.971808 C 133.792985 841.634118 131.414149 844.688334 130.22348 846.469335 C 129.035312 848.250335 121.926318 851.332067 124.305155 850.934343 C 126.686493 850.539121 130.98891 849.633612 135.861648 850.654186 C 140.729383 851.669756 149.679411 851.78232 151.49293 851.839852 C 153.303948 851.894883 162.821795 855.399352 169.22039 856.189796 C 175.621487 856.985243 189.892004 863.541426 197.763927 863.994181 C 198.164152 864.016693 196.153022 861.73291 196.320616 860.374647 Z M 196.320616 860.374647 " transform="matrix(-1.561622,0,0,1.561622,520.984867,-1291.189454)"/>
<path style="fill-rule:nonzero;fill:rgb(14.901961%,9.019608%,3.921569%);fill-opacity:1;stroke-width:0.24;stroke-linecap:butt;stroke-linejoin:miter;stroke:rgb(0%,0%,0%);stroke-opacity:1;stroke-miterlimit:4;" d="M 65.1169 895.824564 C 63.818671 897.462985 62.850627 898.085835 61.947619 899.21647 C 60.756951 900.292075 59.283623 900.912423 59.796411 902.268185 C 60.304196 903.626448 60.814483 904.134233 63.360914 904.812114 C 65.912347 905.489995 67.950992 904.304329 68.628873 904.134233 C 69.309256 903.966639 69.819542 902.778471 69.649447 901.42271 C 69.479351 900.061945 68.063556 898.481057 67.780897 897.350422 C 67.495737 896.615009 68.063556 895.99466 67.780897 894.638898 C 67.668334 893.393198 66.817856 894.241175 65.1169 895.824564 Z M 65.1169 895.824564 " transform="matrix(-1.561622,0,0,1.561622,520.984867,-1291.189454)"/>
<path style="fill-rule:nonzero;fill:rgb(14.901961%,9.019608%,3.921569%);fill-opacity:1;stroke-width:0.24;stroke-linecap:butt;stroke-linejoin:miter;stroke:rgb(0%,0%,0%);stroke-opacity:1;stroke-miterlimit:4;" d="M 257.349905 892.089966 C 260.804346 892.657785 264.201255 893.278134 266.582593 893.278134 C 268.961429 893.278134 271.000074 893.730888 275.077365 892.320096 C 279.154656 890.906801 278.136584 891.357054 281.253335 890.734204 C 284.367585 890.113856 284.53768 891.529651 284.877872 892.657785 C 285.218063 893.78842 286.576326 896.387381 286.176101 898.028303 C 285.78338 899.669225 285.273094 901.647836 285.158029 903.058629 C 285.045466 904.474424 284.425117 905.209838 284.592711 907.075886 C 284.762807 908.941934 281.140772 909.562283 279.212188 911.143171 C 277.286106 912.729062 276.608225 914.084824 274.792205 911.3733 C 271.848051 907.075886 268.676269 907.526139 268.451142 905.607561 C 268.223514 903.681479 264.03366 899.949382 263.468343 899.609191 C 262.898022 899.271501 256.329332 895.654469 257.349905 892.089966 Z M 257.349905 892.089966 " transform="matrix(-1.561622,0,0,1.561622,520.984867,-1291.189454)"/>
<path style="fill-rule:nonzero;fill:rgb(100%,93.333334%,65.882355%);fill-opacity:1;stroke-width:0.24;stroke-linecap:round;stroke-linejoin:round;stroke:rgb(0%,0%,0%);stroke-opacity:1;stroke-miterlimit:4;" d="M 141.63239 940.267034 C 141.377247 940.267034 140.774408 940.287045 139.598747 940.317062 C 137.855268 940.359586 134.896105 940.409614 131.761844 940.442133 C 134.896105 944.616978 132.689866 941.732858 134.330788 948.346574 C 134.330788 948.346574 136.539529 956.035894 136.992283 958.069536 C 137.445037 960.10568 140.95701 968.075158 141.637393 969.09323 C 142.317775 970.113803 144.696612 972.487637 145.376994 973.788368 C 146.054875 975.089099 147.130479 976.725018 148.263616 978.478503 C 149.396752 980.231988 149.396752 981.022432 151.265302 982.948515 C 153.133852 984.869594 154.041862 986.225356 154.552149 986.225356 C 155.062436 986.225356 154.777275 986.620578 155.682784 985.09472 C 156.588293 983.566362 157.721429 980.909869 158.514375 980.457115 C 159.30732 980.006862 160.440457 977.235305 160.440457 977.235305 L 161.17587 975.089099 C 161.17587 975.089099 162.08388 974.181089 162.536635 972.092415 C 162.989389 969.996237 163.159485 967.907564 163.839867 966.719396 C 164.517748 965.531229 165.255663 962.254388 165.255663 962.254388 C 165.255663 962.254388 165.936045 958.747417 165.310693 957.334123 C 164.690345 955.923331 162.821795 953.03921 162.764263 953.03921 C 162.709232 953.03921 160.840682 950.890503 157.38374 949.137018 C 153.926797 947.386034 151.152739 944.724539 149.791974 944.499412 C 148.433711 944.274286 145.769714 943.031087 145.769714 942.976056 C 145.769714 942.918524 144.073762 942.240643 142.317775 942.125578 C 141.52483 942.125578 140.561788 941.165039 140.561788 941.165039 C 140.041496 940.429626 142.405324 940.257029 141.63239 940.267034 Z M 141.63239 940.267034 " transform="matrix(-1.561622,0,0,1.561622,520.984867,-1291.189454)"/>
<path style="fill-rule:nonzero;fill:rgb(100%,93.333334%,65.882355%);fill-opacity:1;stroke-width:0.24;stroke-linecap:round;stroke-linejoin:round;stroke:rgb(0%,0%,0%);stroke-opacity:1;stroke-miterlimit:4;" d="M 246.02104 929.350901 C 242.113845 930.764195 236.508195 929.858686 232.93869 931.104386 C 229.371686 932.345083 222.405272 933.928473 219.743776 935.116641 C 217.07978 936.304808 209.377952 937.548007 207.73703 938.113324 C 206.093607 938.678642 192.668564 941.502728 190.915079 941.957984 C 189.15409 942.410739 189.496782 943.256214 189.496782 943.256214 C 189.496782 943.256214 191.760554 946.538058 195.387592 948.5717 C 199.012128 950.607844 207.621966 955.810767 212.264574 956.826338 C 216.912185 957.84441 227.895857 959.540363 230.729949 961.576507 C 233.56154 963.610149 235.149932 963.722713 238.204148 964.515658 C 241.265868 965.306102 243.757268 965.646293 245.795914 964.628221 C 247.83706 963.610149 253.15755 961.238817 255.083632 959.200172 C 257.012215 957.166529 257.690096 957.731847 259.501114 953.772122 C 261.314633 949.8174 262.672896 949.137018 262.220141 944.842105 C 261.767387 940.54469 261.654824 937.262846 261.202069 935.794521 C 260.749315 934.326196 257.80266 930.5941 256.894649 930.368973 C 255.989141 930.141345 248.457409 930.253908 248.457409 930.253908 C 246.476296 930.5941 246.646391 930.028782 246.02104 929.350901 Z M 246.02104 929.350901 " transform="matrix(-1.561622,0,0,1.561622,520.984867,-1291.189454)"/>
<path style=" stroke:none;fill-rule:nonzero;fill:rgb(97.254902%,96.078432%,90.196079%);fill-opacity:1;" d="M 247.375 72.234375 C 248.699219 72.238281 250.054688 72.367188 251.421875 72.652344 C 257.652344 73.980469 276.496094 81.128906 281.136719 84.4375 C 285.78125 87.753906 290.558594 94.242188 292.550781 97.550781 C 294.535156 100.859375 300.773438 107.882812 303.558594 111.058594 C 306.347656 114.238281 312.714844 121.917969 314.570312 124.304688 C 316.429688 126.6875 316.296875 130.132812 316.296875 131.71875 C 316.296875 133.308594 316.429688 134.761719 314.839844 139.136719 C 313.246094 143.507812 312.050781 147.742188 310.058594 148.007812 C 308.070312 148.269531 304.488281 148.539062 299.183594 148.007812 C 293.875 147.480469 280.871094 146.152344 277.824219 145.757812 C 274.773438 145.359375 271.1875 146.152344 268.402344 144.296875 C 265.617188 142.445312 259.25 139.136719 255.398438 135.292969 C 251.554688 131.453125 243.324219 124.304688 241.339844 120.597656 C 239.347656 116.886719 233.507812 106.160156 232.710938 102.320312 C 231.914062 98.480469 230.457031 89.339844 230.457031 88.015625 C 230.457031 86.695312 232.449219 76.097656 235.765625 74.773438 C 238.355469 73.738281 242.648438 72.21875 247.375 72.234375 Z M 247.375 72.234375 "/>
<path style=" stroke:none;fill-rule:nonzero;fill:rgb(100%,99.215686%,95.294118%);fill-opacity:1;" d="M 288.839844 92.246094 C 290.417969 94.257812 291.726562 96.179688 292.550781 97.550781 C 294.535156 100.859375 300.773438 107.882812 303.558594 111.058594 C 306.347656 114.238281 312.714844 121.917969 314.570312 124.304688 C 316.429688 126.6875 316.296875 130.132812 316.296875 131.71875 C 316.296875 133.308594 316.429688 134.761719 314.839844 139.136719 C 313.246094 143.507812 312.050781 147.742188 310.058594 148.007812 C 308.070312 148.269531 304.488281 148.539062 299.183594 148.007812 C 293.875 147.480469 280.871094 146.152344 277.824219 145.757812 C 274.773438 145.359375 271.1875 146.152344 268.402344 144.296875 C 265.617188 142.445312 259.25 139.136719 255.398438 135.292969 C 251.554688 131.453125 243.324219 124.304688 241.339844 120.597656 C 240.75 119.496094 239.8125 117.753906 238.777344 115.789062 C 258.203125 108.703125 274.757812 99.671875 288.839844 92.246094 Z M 288.839844 92.246094 "/>
<path style="fill-rule:nonzero;fill:rgb(88.235295%,85.09804%,76.078433%);fill-opacity:1;stroke-width:0.24;stroke-linecap:round;stroke-linejoin:round;stroke:rgb(0%,0%,0%);stroke-opacity:1;stroke-miterlimit:4;" d="M 332.524642 872.734091 C 331.886783 872.734091 330.68861 872.944209 328.204715 873.549549 C 323.787233 874.622652 316.423095 877.394209 312.403337 879.03263 C 308.381077 880.671051 305.209295 881.463996 301.302099 883.102417 C 298.017754 884.178021 294.16559 885.871472 290.656118 886.947077 C 288.104685 888.307841 278.136584 891.359556 281.253335 890.734204 C 284.367585 890.113856 284.53768 891.529651 284.877872 892.657785 C 285.218063 893.78842 286.576326 896.387381 286.176101 898.028303 C 285.78338 899.669225 285.273094 901.647836 285.158029 903.058629 C 285.045466 904.474424 284.425117 905.209838 284.592711 907.075886 C 284.762807 908.941934 285.840913 913.124284 284.990435 914.425015 C 284.139957 915.725746 283.064353 917.704358 282.271407 918.324706 C 281.47596 918.947556 278.589338 920.756072 277.511233 921.151294 C 276.435628 921.546516 275.81528 922.111834 275.249962 922.111834 C 274.684645 922.111834 281.818653 923.525128 283.176916 924.147978 C 284.53768 924.773329 294.053027 928.785583 296.714522 929.518495 C 299.376017 930.253908 311.60789 934.718917 312.911122 934.833982 C 314.214354 934.946545 325.373124 938.225887 326.336165 938.168355 C 327.299206 938.113324 330.526019 938.113324 330.526019 938.113324 L 330.415957 927.429822 C 330.415957 927.429822 328.827565 919.11515 327.922056 917.419197 C 327.014046 915.725746 325.090465 910.015037 324.407581 909.447218 C 323.7297 908.884402 322.939256 906.963323 322.939256 906.963323 C 322.939256 906.963323 323.449543 905.775155 324.127424 904.757083 C 325.485687 903.003598 326.223601 899.724255 326.959015 897.860708 C 328.715001 894.581366 330.245861 889.718634 330.638582 887.910118 C 330.638582 887.910118 333.190016 878.524845 333.190016 878.469814 C 333.190016 878.40978 333.755333 873.434485 333.35761 873.041764 C 333.187514 872.866666 333.024923 872.739094 332.524642 872.734091 Z M 332.524642 872.734091 " transform="matrix(-1.561622,0,0,1.561622,520.984867,-1291.189454)"/>
<path style=" stroke:none;fill-rule:nonzero;fill:rgb(100%,100%,100%);fill-opacity:1;" d="M 405.1875 104.839844 C 404.65625 105.496094 403.992188 105.761719 402.269531 105.234375 C 400.542969 104.703125 400.015625 103.773438 396.828125 103.640625 C 393.644531 103.511719 392.1875 103.511719 390.726562 103.773438 C 389.269531 104.042969 388.335938 103.117188 388.074219 103.773438 C 387.804688 104.4375 385.683594 104.96875 388.867188 105.628906 C 392.050781 106.292969 392.582031 107.882812 394.972656 107.882812 C 397.359375 107.882812 397.492188 108.941406 399.878906 108.675781 C 402.269531 108.410156 404.65625 109.738281 404.789062 110.398438 C 404.925781 111.058594 407.617188 109.957031 407.617188 108.898438 C 407.617188 107.835938 405.71875 104.175781 405.1875 104.839844 Z M 405.1875 104.839844 "/>
<path style="fill:none;stroke-width:0.24;stroke-linecap:butt;stroke-linejoin:miter;stroke:rgb(0%,0%,0%);stroke-opacity:1;stroke-miterlimit:4;" d="M 121.30597 880.390893 C 121.30597 880.390893 123.257066 880.643535 124.360186 880.983726 C 125.468308 881.321416 128.014739 882.849775 129.373002 884.628274 C 130.733767 886.409275 133.282699 887.852585 134.558415 888.44792 C 135.834132 889.040753 135.834132 891.412085 135.746583 892.857898 C 135.661535 894.296206 133.878033 898.368494 133.115105 899.384064 C 132.349674 900.404638 129.205408 908.96945 127.504452 911.260737 C 125.808499 913.547022 119.605014 925.16605 118.076655 927.199692 C 116.545795 929.238338 112.125812 928.560457 109.23919 931.782267 C 106.352568 935.004077 102.783063 933.305623 98.365581 934.068552 C 94.863613 934.676393 91.314119 933.648316 91.314119 933.648316 M 51.196579 906.880776 C 49.84582 905.239854 49.73826 903.178696 53.335281 900.179511 C 58.660773 895.259247 69.084129 886.156633 73.386546 882.649662 C 77.691465 879.147695 89.245457 871.115682 93.893068 868.631786 C 98.873366 864.784625 99.55625 863.769054 104.766677 860.772371 C 110.882613 856.419925 121.926318 851.332067 124.305155 850.934343 C 126.686493 850.539121 130.98891 849.633612 135.861648 850.654186 C 140.729383 851.669756 149.679411 851.78232 151.49293 851.839852 C 153.303948 851.894883 162.821795 855.399352 169.22039 856.189796 C 175.621487 856.985243 189.892004 863.541426 197.763927 863.994181 C 205.638351 864.446935 217.362438 872.476446 222.177644 874.057335 C 226.992849 875.640724 239.50738 885.025997 242.171377 886.494322 C 244.832873 887.965149 253.895464 891.529651 257.349905 892.089966 C 260.804346 892.657785 264.201255 893.278134 266.582593 893.278134 C 268.961429 893.278134 271.000074 893.730888 275.077365 892.320096 C 279.154656 890.906801 278.136584 891.357054 281.253335 890.734204 C 284.367585 890.113856 284.53768 891.529651 284.877872 892.657785 C 285.218063 893.78842 286.576326 896.387381 286.176101 898.028303 C 285.78338 899.669225 285.273094 901.647836 285.158029 903.058629 C 285.045466 904.474424 284.425117 905.209838 284.592711 907.075886 C 284.762807 908.941934 285.840913 913.124284 284.990435 914.425015 C 284.139957 915.725746 283.064353 917.704358 282.271407 918.324706 C 281.47596 918.947556 278.589338 920.756072 277.511233 921.151294 C 276.435628 921.546516 275.81528 922.111834 275.249962 922.111834 C 274.684645 922.111834 272.245774 921.829175 270.264661 921.94424 C 268.281047 922.056803 262.220141 922.95981 259.501114 924.035415 C 256.784588 925.111019 255.368792 925.676337 252.704795 926.521812 C 250.0433 927.372289 249.930737 927.935106 246.02104 929.350901 C 242.113845 930.764195 236.508195 929.858686 232.93869 931.104386 C 229.371686 932.345083 222.405272 933.928473 219.743776 935.116641 C 217.07978 936.304808 209.377952 937.548007 207.73703 938.113324 C 206.093607 938.678642 192.668564 941.502728 190.915079 941.957984 C 189.15409 942.410739 189.892004 942.125578 184.453949 942.410739 C 179.020896 942.690896 177.997822 942.46577 176.074241 942.918524 C 174.148159 943.368777 170.748749 942.976056 169.105325 942.918524 C 167.464404 942.860992 152.908725 942.298175 148.661339 941.390165 C 144.411451 940.487158 144.298888 940.207001 139.598747 940.317062 C 134.896105 940.432127 121.361001 940.599721 119.319854 940.317062 C 117.28371 940.034404 106.520162 938.846236 101.367267 937.66057 C 96.211871 936.472402 97.570134 936.134713 97.004816 935.907085 C 96.439499 935.681958 93.893068 934.20863 90.833849 933.475719 C 87.77463 932.740305 80.070302 930.819226 73.386546 926.746938 C 66.705293 922.679653 62.230278 920.530946 59.398687 918.774959 C 56.567096 917.026477 47.38944 910.240164 47.899727 908.829371 C 48.410013 907.413576 49.698237 905.815178 50.493684 905.87271 M 64.266422 894.693929 C 63.701105 895.091653 63.475978 895.596937 63.475978 895.596937 M 60.474292 897.575548 C 60.869514 898.368494 61.039609 898.763716 61.039609 898.706183 " transform="matrix(-1.561622,0,0,1.561622,520.984867,-1291.189454)"/>
<path style="fill:none;stroke-width:0.24;stroke-linecap:round;stroke-linejoin:round;stroke:rgb(0%,0%,0%);stroke-opacity:1;stroke-miterlimit:4;" d="M 175.208755 873.081787 C 174.360778 873.084288 173.492791 873.166834 172.617299 873.349437 C 168.627557 874.199915 156.560777 878.777487 153.589108 880.896177 C 150.614937 883.01987 147.555718 887.174705 146.280001 889.293395 C 145.009287 891.412085 141.014543 895.909612 139.231041 897.943255 C 137.445037 899.979399 133.367746 904.897162 132.179579 906.425521 C 130.98891 907.951378 131.073958 910.157617 131.073958 911.173188 C 131.073958 912.19126 130.98891 913.121783 132.006982 915.923357 C 133.027555 918.72243 133.792985 921.433953 135.068702 921.604049 C 136.341918 921.771643 138.635706 921.94424 142.032615 921.604049 C 145.432025 921.266359 153.759203 920.415881 155.7103 920.163239 C 157.663897 919.905594 159.960187 920.415881 161.743689 919.227713 C 163.527191 918.042047 167.604482 915.923357 170.070868 913.461974 C 172.532251 911.003092 177.802712 906.425521 179.073426 904.051687 C 180.349143 901.675352 184.088744 894.806492 184.599031 892.347611 C 185.109317 889.888729 186.042341 884.035441 186.042341 883.187464 C 186.042341 882.341989 184.766625 875.555677 182.642931 874.7077 C 180.9845 874.044828 178.235455 873.071781 175.208755 873.081787 Z M 175.208755 873.081787 " transform="matrix(-1.561622,0,0,1.561622,520.984867,-1291.189454)"/>
</g>
</svg>
