<?xml version="1.0" encoding="UTF-8"?>
<!-- Created by grConvert v0.1-0 -->
<svg xmlns="http://www.w3.org/2000/svg" xmlns:xlink="http://www.w3.org/1999/xlink" width="357pt" height="199pt" viewBox="0 0 357 199" version="1.1">
<g id="surface145">
<path style=" stroke:none;fill-rule:nonzero;fill:rgb(95.686275%,93.333333%,84.313725%);fill-opacity:1;" d="M 91.933594 66.800781 C 91.933594 66.800781 94.375 67.117188 95.753906 67.542969 C 97.136719 67.964844 100.320312 69.875 102.019531 72.097656 C 103.71875 74.324219 106.90625 76.128906 108.5 76.871094 C 110.09375 77.613281 110.09375 80.578125 109.984375 82.382812 C 109.878906 84.183594 107.648438 89.273438 106.695312 90.542969 C 105.738281 91.816406 101.808594 102.523438 99.683594 105.386719 C 97.5625 108.246094 89.808594 122.769531 87.898438 125.3125 C 85.984375 127.859375 80.460938 127.011719 76.851562 131.039062 C 73.242188 135.066406 68.78125 132.945312 63.257812 133.898438 C 58.882812 134.65625 54.445312 133.371094 54.445312 133.371094 M 4.296875 99.914062 C 2.609375 97.863281 2.476562 95.285156 6.972656 91.535156 C 13.628906 85.386719 26.65625 74.007812 32.035156 69.625 C 37.417969 65.246094 51.859375 55.207031 57.667969 52.101562 C 63.894531 47.292969 64.746094 46.023438 71.261719 42.277344 C 78.90625 36.835938 92.710938 30.476562 95.683594 29.980469 C 98.660156 29.484375 104.039062 28.355469 110.128906 29.628906 C 116.214844 30.898438 127.402344 31.039062 129.667969 31.113281 C 131.933594 31.179688 143.828125 35.5625 151.828125 36.550781 C 159.828125 37.542969 177.667969 45.738281 187.507812 46.304688 C 197.351562 46.871094 212.003906 56.90625 218.023438 58.882812 C 224.042969 60.863281 239.6875 72.59375 243.015625 74.429688 C 246.34375 76.269531 257.671875 80.722656 261.988281 81.425781 C 266.308594 82.132812 270.554688 82.910156 273.53125 82.910156 C 276.503906 82.910156 279.050781 83.476562 284.148438 81.710938 C 289.246094 79.945312 287.972656 80.507812 291.867188 79.730469 C 295.761719 78.953125 295.972656 80.722656 296.398438 82.132812 C 296.824219 83.546875 298.523438 86.796875 298.023438 88.847656 C 297.53125 90.898438 296.894531 93.371094 296.75 95.136719 C 296.609375 96.90625 295.832031 97.824219 296.042969 100.15625 C 296.253906 102.488281 297.601562 107.71875 296.539062 109.34375 C 295.476562 110.96875 294.132812 113.441406 293.140625 114.21875 C 292.148438 114.996094 288.539062 117.257812 287.191406 117.75 C 285.847656 118.246094 285.070312 118.953125 284.363281 118.953125 C 283.65625 118.953125 280.609375 118.597656 278.132812 118.742188 C 275.652344 118.882812 268.078125 120.011719 264.679688 121.355469 C 261.28125 122.699219 259.511719 123.40625 256.183594 124.464844 C 252.855469 125.527344 252.714844 126.230469 247.828125 128 C 242.945312 129.765625 235.9375 128.636719 231.476562 130.191406 C 227.015625 131.742188 218.308594 133.722656 214.980469 135.207031 C 211.652344 136.691406 202.023438 138.246094 199.972656 138.953125 C 197.917969 139.660156 181.136719 143.191406 178.945312 143.757812 C 176.746094 144.324219 177.667969 143.96875 170.871094 144.324219 C 164.078125 144.675781 162.800781 144.394531 160.394531 144.960938 C 157.988281 145.523438 153.738281 145.03125 151.683594 144.960938 C 149.632812 144.886719 131.4375 144.183594 126.128906 143.050781 C 120.816406 141.921875 120.675781 141.570312 114.800781 141.707031 C 108.921875 141.851562 92.003906 142.0625 89.453125 141.707031 C 86.90625 141.355469 73.453125 139.871094 67.011719 138.386719 C 60.566406 136.902344 62.265625 136.480469 61.558594 136.195312 C 60.851562 135.914062 57.667969 134.074219 53.84375 133.15625 C 50.019531 132.238281 40.390625 129.835938 32.035156 124.746094 C 23.683594 119.660156 18.089844 116.976562 14.550781 114.78125 C 11.011719 112.59375 -0.460938 104.113281 0.175781 102.347656 C 0.816406 100.578125 2.425781 98.582031 3.417969 98.652344 M 20.636719 84.679688 C 19.929688 85.175781 19.648438 85.808594 19.648438 85.808594 M 15.894531 88.28125 C 16.390625 89.273438 16.601562 89.765625 16.601562 89.695312 "/>
<path style=" stroke:none;fill-rule:nonzero;fill:rgb(100%,98.431373%,92.156863%);fill-opacity:1;" d="M 32.035156 124.746094 C 34.441406 125.878906 35.71875 122.769531 36.992188 120.929688 C 38.265625 119.09375 40.816406 113.582031 38.265625 112.027344 C 35.71875 110.472656 30.480469 108.496094 27.789062 107.785156 C 25.132812 107.089844 26.011719 107.386719 20.179688 105.003906 C 20.234375 104.957031 20.292969 104.90625 20.355469 104.855469 C 20.449219 104.859375 20.542969 104.867188 20.640625 104.871094 C 41.765625 106.171875 36.941406 99.261719 45.417969 95.632812 C 60.878906 89.011719 63.914062 63.542969 96.074219 62.558594 C 119.90625 61.828125 161.386719 107.71875 230.851562 101.410156 C 279.265625 94.359375 290.933594 79.917969 291.867188 79.730469 C 295.761719 78.953125 295.972656 80.722656 296.398438 82.132812 C 296.824219 83.546875 298.523438 86.796875 298.023438 88.847656 C 297.53125 90.898438 296.894531 93.371094 296.75 95.136719 C 296.609375 96.90625 295.832031 97.824219 296.042969 100.15625 C 296.253906 102.488281 297.601562 107.71875 296.539062 109.34375 C 295.476562 110.96875 294.132812 113.441406 293.140625 114.21875 C 292.148438 114.996094 288.539062 117.257812 287.191406 117.75 C 285.847656 118.246094 285.070312 118.953125 284.363281 118.953125 C 283.65625 118.953125 280.609375 118.597656 278.132812 118.742188 C 275.652344 118.882812 268.078125 120.011719 264.679688 121.355469 C 261.28125 122.699219 259.511719 123.40625 256.183594 124.464844 C 252.855469 125.527344 252.714844 126.230469 247.828125 128 C 242.945312 129.765625 235.9375 128.636719 231.476562 130.191406 C 227.015625 131.742188 218.308594 133.722656 214.980469 135.207031 C 211.652344 136.691406 202.023438 138.246094 199.972656 138.953125 C 197.917969 139.660156 181.136719 143.191406 178.945312 143.757812 C 176.746094 144.324219 177.667969 143.96875 170.871094 144.324219 C 164.078125 144.675781 162.800781 144.394531 160.394531 144.960938 C 157.988281 145.523438 153.738281 145.03125 151.683594 144.960938 C 149.632812 144.886719 131.4375 144.183594 126.128906 143.050781 C 120.816406 141.921875 120.675781 141.570312 114.800781 141.707031 C 108.921875 141.851562 92.003906 142.0625 89.453125 141.707031 C 86.90625 141.355469 73.453125 139.871094 67.011719 138.386719 C 60.566406 136.90625 62.265625 136.480469 61.558594 136.195312 C 60.851562 135.914062 57.667969 134.074219 53.84375 133.15625 C 50.019531 132.238281 40.390625 129.835938 32.035156 124.746094 M 54.445312 133.371094 "/>
<path style="fill-rule:nonzero;fill:rgb(100%,93.333333%,66.666667%);fill-opacity:1;stroke-width:0.24;stroke-linecap:butt;stroke-linejoin:miter;stroke:rgb(0%,0%,0%);stroke-opacity:1;stroke-miterlimit:4;" d="M 54.442468 909.47859 C 53.508091 908.947339 51.233088 907.378586 50.492462 905.872334 C 49.69871 905.816084 48.411209 907.412962 47.898708 908.828589 C 47.389332 910.241091 56.567471 917.025476 59.398725 918.775479 C 62.229979 920.531731 66.704986 922.67861 73.386246 926.747366 C 75.311249 927.653617 76.333126 925.166113 77.351877 923.694236 C 78.370629 922.225484 80.411257 917.816102 78.370629 916.57235 C 76.333126 915.328598 72.142494 913.747346 69.989366 913.178595 C 67.836238 912.616094 63.986232 911.259842 60.814352 908.769214 C 57.870598 905.831709 52.998715 900.856702 51.376838 902.153579 C 49.858086 904.128582 50.164336 905.628584 51.195588 906.881711 C 52.186214 908.081713 53.842467 909.059839 55.208094 910.01609 C 55.801845 910.578591 56.183095 910.791092 56.848721 911.372343 C 57.001846 911.537968 60.876852 914.444222 62.851855 916.57235 C 69.714366 923.487986 67.495612 922.566109 73.726872 925.166113 " transform="matrix(1.249998,0,0,1.249998,-59.697513,-1033.686364)"/>
<path style="fill:none;stroke-width:1.440002;stroke-linecap:round;stroke-linejoin:miter;stroke:rgb(61.960784%,82.745098%,94.901961%);stroke-opacity:1;stroke-miterlimit:4;" d="M 90.673772 875.528538 C 91.170648 875.731664 90.620647 875.631664 91.092523 875.809789 M 93.430027 876.581665 C 94.036277 876.819165 93.964402 876.781665 94.526903 877.059791 M 96.776907 878.381668 C 97.392532 878.769168 97.417533 878.756668 97.973783 879.325419 M 99.29566 880.706671 C 100.101912 881.684798 100.095662 882.197298 100.780038 883.891051 C 103.308166 890.131685 104.905044 898.228573 104.105043 902.075453 C 103.308166 905.925459 105.083169 910.184841 107.298797 913.625471 C 108.642549 915.716099 115.67381 923.316111 115.67381 923.316111 M 63.148731 906.45671 C 65.408109 906.856711 66.073735 907.119211 67.936238 906.591085 C 69.798741 906.059834 71.392493 903.669206 73.654997 905.794209 C 75.914375 907.916087 86.608141 912.391094 87.883143 922.119234 C 88.298769 924.166112 88.736269 925.487989 89.40502 926.41924 M 90.745647 927.659867 C 91.608149 928.194243 92.73315 928.572368 94.264403 929.022369 M 66.073735 892.784814 C 64.876858 893.712941 62.883105 897.031696 61.686229 897.828572 C 60.489352 898.625448 59.423725 900.484826 58.761224 900.350451 C 58.095598 900.219201 57.961223 900.219201 57.961223 900.219201 M 88.014393 886.016054 C 88.945645 886.547305 91.339398 887.475431 92.536275 891.325437 C 93.733152 895.175443 93.067526 897.962947 91.870649 900.219201 C 90.673772 902.475454 88.945645 905.394208 86.817517 906.32546 L 84.692513 907.253586 " transform="matrix(1.249998,0,0,1.249998,-59.697513,-1033.686364)"/>
<path style="fill-rule:nonzero;fill:rgb(78.431373%,71.764706%,71.764706%);fill-opacity:1;stroke-width:0.24;stroke-linecap:butt;stroke-linejoin:miter;stroke:rgb(0%,0%,0%);stroke-opacity:1;stroke-miterlimit:4;" d="M 70.583117 897.350446 C 71.604994 899.641075 73.386246 903.456706 76.445626 904.219207 C 79.505005 904.981708 79.758131 906.253585 84.345638 904.728582 C 88.93627 903.200455 88.680019 903.200455 90.717522 899.8942 C 92.75815 896.587945 92.5019 894.806692 92.248775 892.262939 C 91.992524 889.719185 88.93627 885.900429 86.386266 885.137928 C 83.836262 884.375427 80.014381 884.122301 76.445626 884.884802 C 72.87687 885.647304 72.367495 887.937932 71.604994 889.209809 C 70.839367 890.481686 69.564365 895.059818 70.583117 897.350446 Z M 70.583117 897.350446 " transform="matrix(1.249998,0,0,1.249998,-59.697513,-1033.686364)"/>
<path style="fill-rule:nonzero;fill:rgb(9.803922%,5.490196%,2.745098%);fill-opacity:1;stroke-width:0.24;stroke-linecap:butt;stroke-linejoin:miter;stroke:rgb(0%,0%,0%);stroke-opacity:1;stroke-miterlimit:4;" d="M 80.523757 888.191057 C 77.720628 888.447308 76.445626 888.191057 75.170624 889.97231 C 73.898747 891.753563 73.161246 898.253573 74.833123 900.487951 C 76.020625 901.250452 77.126877 901.928578 78.739379 901.928578 C 80.355007 901.928578 82.81751 901.759828 83.923762 901.250452 C 85.026889 900.741076 86.555016 900.912952 87.489393 899.641075 C 88.423769 898.369198 88.84877 897.691072 88.764394 895.737944 C 88.680019 893.787941 88.680019 892.431689 87.830018 891.244187 C 86.980017 890.056685 86.386266 888.447308 84.770638 888.022307 C 83.158136 887.597307 83.326886 887.937932 80.523757 888.191057 Z M 80.523757 888.191057 " transform="matrix(1.249998,0,0,1.249998,-59.697513,-1033.686364)"/>
<path style="fill-rule:nonzero;fill:rgb(88.235294%,85.882353%,76.862745%);fill-opacity:1;stroke-width:0.24;stroke-linecap:butt;stroke-linejoin:miter;stroke:rgb(0%,0%,0%);stroke-opacity:1;stroke-miterlimit:4;" d="M 173.664523 827.072215 C 172.927022 827.065965 171.73327 827.700341 171.258269 827.925341 C 170.183267 828.434717 168.595765 829.225343 167.464513 829.790969 C 166.330137 830.356595 165.42701 830.694096 163.727008 831.881597 C 162.027005 833.069099 159.308251 835.500353 158.120749 835.897229 C 156.930122 836.290979 157.326998 836.290979 157.042623 835.612853 C 156.761372 834.934727 156.761372 834.481601 157.042623 832.050348 C 157.326998 829.622219 156.251996 831.372222 154.436369 832.390973 C 152.623866 833.409725 152.455116 833.972226 150.755113 835.556603 C 149.055111 837.14098 148.151984 837.365981 146.961357 837.703481 C 145.770731 838.044107 145.317605 837.365981 144.976979 835.781603 C 144.886354 835.347228 145.492605 833.61285 144.867604 833.859725 C 143.214477 834.515976 139.248846 838.697233 138.183219 839.965985 C 136.711342 841.719112 134.726964 842.228488 134.614464 841.944113 C 134.501964 841.662862 134.161338 841.494112 133.933213 841.494112 C 133.708212 841.494112 131.555084 843.300365 130.764458 843.925366 C 129.970707 844.547242 121.926945 851.331627 124.305073 850.934751 C 126.686327 850.537876 130.989458 849.634749 135.861341 850.653501 C 140.730098 851.669127 149.680111 851.781628 151.492614 851.841003 C 153.305117 851.894128 162.820756 855.400383 169.220766 856.191009 C 175.620776 856.98476 189.892672 863.54102 197.764559 863.994146 C 205.639571 864.447272 217.361464 872.475409 222.177096 874.056661 C 226.992728 875.641039 239.508372 885.025428 242.170876 886.49418 C 244.020879 887.519181 248.970886 889.550435 252.974017 890.887937 C 254.727145 891.469187 253.102143 889.944185 253.895894 889.54731 C 254.68652 889.153559 257.861525 889.54731 259.389652 889.60356 C 260.917779 889.662935 265.280286 889.041059 266.864663 888.359808 C 268.452166 887.681682 267.770915 883.2723 267.827165 881.972298 C 267.858415 881.300422 268.542791 878.566043 268.16779 875.922289 C 267.81779 873.453535 266.408413 871.069157 266.299038 870.437906 C 266.186537 869.79728 265.011536 867.228526 263.467783 864.841022 C 261.886531 862.397269 259.930278 860.128515 259.614652 859.528514 C 258.992777 858.341012 253.442768 853.309755 252.424017 852.628504 C 251.40214 851.950378 244.77713 847.428496 243.699003 846.922245 C 242.624002 846.412869 240.923999 844.940992 237.242744 844.037866 C 235.695866 843.656615 234.183364 842.881614 232.542737 842.509738 C 230.283358 842.000363 227.99898 841.959738 227.048978 842.059738 C 225.405226 842.228488 225.00835 842.059738 224.045849 841.944113 C 223.083347 841.831612 223.367723 841.662862 222.120846 841.887863 C 220.873969 842.112863 220.364593 842.509738 219.345842 842.906614 C 218.32709 843.300365 217.870839 843.131614 216.795838 843.19099 C 215.720836 843.244115 215.608336 842.453488 215.15521 842.172238 C 214.702085 841.887863 213.792708 842.112863 211.811455 842.172238 C 209.830202 842.228488 210.455203 842.059738 209.942702 841.153486 C 209.433327 840.247235 209.320827 839.459734 209.320827 839.459734 C 209.320827 839.459734 208.470825 839.287859 207.336449 839.344109 C 206.205197 839.400359 205.864571 839.006608 205.186445 838.440982 C 204.505194 837.875356 204.67707 837.819106 203.939568 836.406604 C 203.202067 834.990977 203.714568 835.669103 202.748942 835.556603 C 201.789565 835.444103 201.44894 835.612853 199.295811 835.612853 C 197.142683 835.612853 198.33331 835.219102 197.652059 834.425351 C 196.973933 833.634725 197.086433 833.353475 197.086433 833.353475 C 197.086433 833.353475 196.011431 833.690975 195.16143 833.859725 C 194.311429 834.031601 193.633303 834.540976 192.158301 834.312851 C 190.686423 834.087851 191.308299 833.2941 191.308299 833.2941 L 190.855174 831.881597 C 190.855174 831.881597 189.045796 832.559723 188.080169 832.900349 C 187.117668 833.237849 186.155167 833.409725 185.589541 833.237849 C 185.023915 833.069099 184.85204 832.165973 184.230164 830.18472 C 183.608288 828.206592 182.927037 828.715968 181.964535 828.944093 C 181.002034 829.169093 180.661408 829.394094 179.755157 829.847219 C 178.848906 830.300345 175.677026 831.428472 175.16765 831.372222 C 174.658274 831.315972 173.864523 831.315972 173.977023 829.847219 C 174.030148 829.172218 174.577024 827.556591 174.092648 827.18784 C 173.983273 827.10659 173.836398 827.072215 173.664523 827.072215 Z M 173.664523 827.072215 " transform="matrix(1.249998,0,0,1.249998,-59.697513,-1033.686364)"/>
<path style="fill-rule:nonzero;fill:rgb(84.705882%,81.568627%,69.803922%);fill-opacity:1;stroke-width:0.24;stroke-linecap:butt;stroke-linejoin:miter;stroke:rgb(0%,0%,0%);stroke-opacity:1;stroke-miterlimit:4;" d="M 196.320807 860.37539 C 196.492682 859.019138 197.764559 857.237886 198.702061 855.881634 C 199.636437 854.525382 202.780192 852.319128 204.817695 850.794126 C 206.855198 849.265999 207.195823 848.672248 209.489577 846.384744 C 211.78333 844.094116 212.098956 845.150367 212.658332 843.75349 C 211.55208 844.262866 209.320827 845.875369 208.1302 846.63787 C 206.942698 847.400371 206.177072 847.909747 204.648944 849.097248 C 203.117692 850.28475 201.50519 850.962876 200.230188 852.319128 C 198.955186 853.67538 198.020809 853.931631 197.255183 854.441007 C 196.492682 854.947257 193.517678 857.578511 192.242676 858.594138 C 190.970799 859.612889 190.458298 859.697264 189.780172 858.850388 C 189.098921 858.000387 190.373923 857.069135 191.308299 855.712883 C 192.242676 854.353506 193.517678 853.253505 195.133305 851.556627 C 196.745808 849.85975 196.661432 850.116 198.702061 848.162872 C 200.739564 846.212869 200.908314 846.722245 203.627068 844.178491 C 204.408319 843.29099 206.014572 842.119113 205.892696 841.781612 C 204.77082 842.312863 203.542693 843.244115 201.080189 844.687867 C 198.61456 846.128494 197.255183 847.147246 196.320807 847.569121 C 195.38643 847.994122 189.780172 851.641002 186.636417 855.034757 C 183.492663 858.425388 183.239537 855.625383 184.086413 853.67538 C 184.936415 851.725377 185.786416 851.809753 186.892668 850.200375 C 187.995794 848.587873 191.817675 845.450368 195.470806 842.397238 C 199.123936 839.344109 199.123936 839.259734 197.255183 840.19411 C 195.38643 841.125361 194.623929 841.550362 193.092677 842.565989 C 191.56455 843.58474 189.611422 844.603492 187.655169 846.469119 C 185.702041 848.334747 189.780172 844.687867 181.367659 851.641002 C 172.958272 858.594138 179.414531 852.150378 179.670782 850.709751 C 179.923907 849.265999 180.689533 847.909747 181.964535 846.212869 C 183.239537 844.519117 185.533291 843.41599 190.883299 839.090983 C 196.236432 834.765977 192.839552 836.71598 191.308299 837.309731 C 189.780172 837.903482 189.098921 838.834733 187.317668 839.853484 C 185.533291 840.872236 183.664538 842.565989 182.133285 843.669115 C 180.605158 844.772242 180.011407 846.044119 174.9989 849.350374 C 169.986392 852.659754 170.155142 851.047251 170.833268 849.434749 C 171.514519 847.825372 172.617646 847.147246 174.573899 844.687867 C 176.527027 842.228488 178.65203 840.956611 182.389536 838.072232 C 186.127042 835.187852 185.702041 834.000351 182.898912 836.547229 C 180.095782 839.090983 180.858284 837.819106 179.073906 839.090983 C 177.292653 840.36286 177.205153 840.784736 168.88014 846.297244 C 160.555128 851.809753 163.867633 847.569121 164.208258 845.281618 C 164.392634 844.044116 166.348887 841.906613 168.88014 839.837859 C 170.855143 838.222232 173.217647 835.965979 175.3364 834.719102 C 175.5239 834.609727 176.667652 834.053476 176.852028 833.947226 C 177.995779 833.053474 178.958281 832.584724 179.355156 831.419097 C 176.889528 833.115974 175.508275 833.66285 173.892648 834.850352 C 172.280146 836.037854 170.748893 836.88473 169.898892 837.14098 C 169.048891 837.394106 167.945764 838.581608 160.383253 844.772242 C 152.823866 850.962876 157.242623 844.856617 157.580123 842.822239 C 157.920749 840.784736 163.698883 836.122229 167.605139 832.134723 C 171.514519 828.150342 167.180138 831.372222 165.39576 832.644099 C 163.614508 833.915976 162.933256 834.087851 160.808253 835.869103 C 158.686375 837.647231 154.945744 840.700361 153.673867 841.550362 C 152.398866 842.397238 149.511361 845.197243 147.639483 847.740996 C 145.770731 850.28475 145.008229 849.097248 144.920729 849.097248 C 144.836354 849.097248 145.008229 847.315996 145.261355 846.384744 C 145.517605 845.450368 148.320734 841.209737 149.680111 839.853484 C 151.039489 838.497232 153.589492 834.425351 153.164492 835.019102 C 152.739491 835.612853 151.123864 836.969105 150.020737 838.156607 C 148.914485 839.344109 142.798851 844.856617 141.7801 845.875369 C 140.758223 846.890995 139.739471 848.844123 138.46447 849.434749 C 137.192593 850.0285 137.361343 848.928498 137.105092 848.334747 C 136.851967 847.740996 139.145721 842.312863 139.908222 840.956611 C 140.673848 839.600359 142.798851 836.459729 142.033225 837.225356 C 141.267599 837.987857 140.505098 839.090983 139.739471 839.769109 C 138.973845 840.447235 138.72072 840.36286 136.936342 843.669115 C 135.151965 846.97537 133.283212 849.012873 132.348835 849.097248 C 131.414459 849.181624 130.733208 848.756623 130.820708 848.419122 C 130.905083 848.078497 131.498834 846.553495 131.923835 845.703493 C 132.348835 844.856617 134.133213 842.312863 133.961338 841.972238 C 133.792587 841.634737 131.414459 844.687867 130.223832 846.469119 C 129.03633 848.250372 121.926945 851.331627 124.305073 850.934751 C 126.686327 850.537876 130.989458 849.634749 135.861341 850.653501 C 140.730098 851.669127 149.680111 851.781628 151.492614 851.841003 C 153.305117 851.894128 162.820756 855.400383 169.220766 856.191009 C 175.620776 856.98476 189.892672 863.54102 197.764559 863.994146 C 198.16456 864.016021 196.152057 861.731643 196.320807 860.37539 Z M 196.320807 860.37539 " transform="matrix(1.249998,0,0,1.249998,-59.697513,-1033.686364)"/>
<path style="fill-rule:nonzero;fill:rgb(15.686275%,9.019608%,4.313725%);fill-opacity:1;stroke-width:0.24;stroke-linecap:butt;stroke-linejoin:miter;stroke:rgb(0%,0%,0%);stroke-opacity:1;stroke-miterlimit:4;" d="M 65.117484 895.825444 C 63.817482 897.462946 62.851855 898.084822 61.948729 899.216074 C 60.758102 900.291076 59.2831 900.912952 59.795601 902.269204 C 60.304976 903.625456 60.814352 904.134832 63.361231 904.812958 C 65.911235 905.491084 67.951863 904.303582 68.629989 904.134832 C 69.308115 903.966081 69.820616 902.77858 69.648741 901.422327 C 69.47999 900.06295 68.064363 898.481698 67.779988 897.350446 C 67.495612 896.61607 68.064363 895.994194 67.779988 894.637942 C 67.667488 893.39419 66.817486 894.241067 65.117484 895.825444 Z M 65.117484 895.825444 " transform="matrix(1.249998,0,0,1.249998,-59.697513,-1033.686364)"/>
<path style="fill-rule:nonzero;fill:rgb(15.686275%,9.019608%,4.313725%);fill-opacity:1;stroke-width:0.24;stroke-linecap:butt;stroke-linejoin:miter;stroke:rgb(0%,0%,0%);stroke-opacity:1;stroke-miterlimit:4;" d="M 257.349024 892.091063 C 260.805279 892.656689 264.202159 893.278565 266.583413 893.278565 C 268.961542 893.278565 270.999045 893.731691 275.077176 892.319189 C 279.155307 890.906687 278.136555 891.356687 281.252185 890.734811 C 284.367815 890.112935 284.536565 891.528563 284.877191 892.656689 C 285.217816 893.787941 286.577193 896.387945 286.177193 898.028572 C 285.783442 899.6692 285.274066 901.647328 285.158441 903.05983 C 285.045941 904.475457 284.424065 905.209833 284.592815 907.075461 C 284.761565 908.941089 281.139685 909.562965 279.211557 911.144217 C 277.286554 912.728595 276.608428 914.084847 274.7928 911.372343 C 271.849046 907.075461 268.677166 907.525462 268.452166 905.606709 C 268.22404 903.681706 264.033409 899.95045 263.467783 899.609825 C 262.899032 899.272324 256.330273 895.653569 257.349024 892.091063 Z M 257.349024 892.091063 " transform="matrix(1.249998,0,0,1.249998,-59.697513,-1033.686364)"/>
<path style="fill-rule:nonzero;fill:rgb(100%,93.333333%,66.666667%);fill-opacity:1;stroke-width:0.24;stroke-linecap:round;stroke-linejoin:round;stroke:rgb(0%,0%,0%);stroke-opacity:1;stroke-miterlimit:4;" d="M 141.633224 940.266136 C 141.376974 940.266136 140.773848 940.288011 139.598846 940.316136 C 137.855094 940.359886 134.895714 940.409886 131.761334 940.441136 C 134.895714 944.616143 132.689461 941.731763 134.330088 948.347398 C 134.330088 948.347398 136.539467 956.03491 136.992592 958.069288 C 137.445718 960.106791 140.958223 968.075553 141.636349 969.094305 C 142.3176 970.113056 144.695729 972.48806 145.37698 973.788062 C 146.055106 975.088064 147.130108 976.725566 148.264484 978.478694 C 149.395736 980.231821 149.395736 981.022448 151.264489 982.947451 C 153.133242 984.869329 154.042618 986.225581 154.551994 986.225581 C 155.06137 986.225581 154.776994 986.619331 155.683246 985.094329 C 156.589497 983.566202 157.720749 980.909948 158.5145 980.456822 C 159.308251 980.006821 160.439503 977.234942 160.439503 977.234942 L 161.177004 975.088064 C 161.177004 975.088064 162.083255 974.181812 162.536381 972.091184 C 162.989507 969.997431 163.158257 967.906803 163.839508 966.719301 C 164.517634 965.531799 165.255135 962.253669 165.255135 962.253669 C 165.255135 962.253669 165.936386 958.747414 165.311385 957.334912 C 164.689509 955.92241 162.820756 953.03803 162.764506 953.03803 C 162.708256 953.03803 160.839503 950.891152 157.383248 949.138025 C 153.926993 947.384897 151.151989 944.725518 149.792612 944.500518 C 148.433235 944.275517 145.770731 943.031765 145.770731 942.975515 C 145.770731 942.919265 144.073853 942.241139 142.3176 942.125514 C 141.523849 942.125514 140.561348 941.166137 140.561348 941.166137 C 140.042597 940.428636 142.4051 940.256761 141.633224 940.266136 Z M 141.633224 940.266136 " transform="matrix(1.249998,0,0,1.249998,-59.697513,-1033.686364)"/>
<path style="fill-rule:nonzero;fill:rgb(100%,93.333333%,66.666667%);fill-opacity:1;stroke-width:0.24;stroke-linecap:round;stroke-linejoin:round;stroke:rgb(0%,0%,0%);stroke-opacity:1;stroke-miterlimit:4;" d="M 246.020882 929.350495 C 242.114626 930.762997 236.508368 929.85987 232.939612 931.103622 C 229.370857 932.344249 222.405221 933.928627 219.742717 935.116128 C 217.080213 936.30363 209.377077 937.547382 207.736449 938.113008 C 206.092697 938.678634 192.667676 941.503638 190.914549 941.956764 C 189.155171 942.409889 189.495797 943.256766 189.495797 943.256766 C 189.495797 943.256766 191.761425 946.538021 195.38643 948.572399 C 199.011436 950.606777 207.620824 955.80991 212.264581 956.825536 C 216.911463 957.844288 227.895855 959.541165 230.730234 961.575543 C 233.561488 963.609921 235.148991 963.722422 238.205245 964.516173 C 241.264625 965.306799 243.758379 965.647424 245.795882 964.628673 C 247.83651 963.609921 253.158393 961.238043 255.083396 959.20054 C 257.011524 957.166162 257.68965 957.731788 259.502152 953.772407 C 261.314655 949.816151 262.674032 949.138025 262.220906 944.841143 C 261.767781 940.544262 261.655281 937.263007 261.202155 935.794254 C 260.749029 934.325502 257.80215 930.594247 256.895898 930.369246 C 255.989647 930.141121 248.458386 930.253621 248.458386 930.253621 C 246.477133 930.594247 246.645883 930.028621 246.020882 929.350495 Z M 246.020882 929.350495 " transform="matrix(1.249998,0,0,1.249998,-59.697513,-1033.686364)"/>
<path style=" stroke:none;fill-rule:nonzero;fill:rgb(97.647059%,96.078431%,90.980392%);fill-opacity:1;" d="M 159.3125 57.664062 C 158.253906 57.667969 157.167969 57.769531 156.074219 58 C 151.085938 59.0625 136.003906 64.785156 132.289062 67.433594 C 128.570312 70.085938 124.746094 75.28125 123.152344 77.929688 C 121.5625 80.578125 116.570312 86.199219 114.339844 88.742188 C 112.109375 91.285156 107.011719 97.433594 105.527344 99.34375 C 104.039062 101.25 104.144531 104.007812 104.144531 105.277344 C 104.144531 106.550781 104.039062 107.714844 105.3125 111.214844 C 106.585938 114.714844 107.542969 118.105469 109.136719 118.316406 C 110.730469 118.527344 113.597656 118.742188 117.84375 118.316406 C 122.09375 117.894531 132.5 116.832031 134.941406 116.515625 C 137.382812 116.195312 140.253906 116.832031 142.480469 115.347656 C 144.710938 113.863281 149.808594 111.214844 152.890625 108.140625 C 155.96875 105.066406 162.554688 99.34375 164.144531 96.375 C 165.738281 93.40625 170.414062 84.820312 171.050781 81.746094 C 171.6875 78.671875 172.855469 71.355469 172.855469 70.296875 C 172.855469 69.238281 171.261719 60.757812 168.605469 59.695312 C 166.53125 58.867188 163.097656 57.652344 159.3125 57.664062 Z M 159.3125 57.664062 "/>
<path style=" stroke:none;fill-rule:nonzero;fill:rgb(100%,99.215686%,95.686275%);fill-opacity:1;" d="M 126.121094 73.683594 C 124.859375 75.292969 123.8125 76.832031 123.152344 77.929688 C 121.5625 80.578125 116.570312 86.199219 114.339844 88.742188 C 112.109375 91.285156 107.011719 97.433594 105.527344 99.34375 C 104.039062 101.25 104.144531 104.007812 104.144531 105.277344 C 104.144531 106.550781 104.039062 107.714844 105.3125 111.214844 C 106.585938 114.714844 107.542969 118.105469 109.136719 118.316406 C 110.730469 118.527344 113.597656 118.742188 117.84375 118.316406 C 122.09375 117.894531 132.5 116.832031 134.941406 116.515625 C 137.382812 116.195312 140.253906 116.832031 142.480469 115.347656 C 144.710938 113.863281 149.808594 111.214844 152.890625 108.140625 C 155.96875 105.066406 162.554688 99.34375 164.144531 96.375 C 164.617188 95.496094 165.367188 94.101562 166.195312 92.527344 C 150.644531 86.855469 137.394531 79.625 126.121094 73.683594 Z M 126.121094 73.683594 "/>
<path style="fill-rule:nonzero;fill:rgb(88.235294%,85.882353%,76.862745%);fill-opacity:1;stroke-width:0.24;stroke-linecap:round;stroke-linejoin:round;stroke:rgb(0%,0%,0%);stroke-opacity:1;stroke-miterlimit:4;" d="M 332.524138 872.734784 C 331.886637 872.734784 330.68976 872.944159 328.205381 873.55041 C 323.786624 874.622287 316.424113 877.394166 312.402232 879.031669 C 308.380351 880.672296 305.208471 881.462922 301.302215 883.10355 C 298.017835 884.178551 294.164705 885.872304 290.655324 886.947306 C 288.105321 888.306683 278.136555 891.359812 281.252185 890.734811 C 284.367815 890.112935 284.536565 891.528563 284.877191 892.656689 C 285.217816 893.787941 286.577193 896.387945 286.177193 898.028572 C 285.783442 899.6692 285.274066 901.647328 285.158441 903.05983 C 285.045941 904.475457 284.424065 905.209833 284.592815 907.075461 C 284.761565 908.941089 285.839692 913.12547 284.989691 914.425472 C 284.13969 915.725474 283.064688 917.703602 282.270937 918.325478 C 281.477186 918.947354 278.589681 920.756732 277.511555 921.150482 C 276.436553 921.547358 275.814677 922.112984 275.249051 922.112984 C 274.683425 922.112984 281.817811 923.525486 283.177188 924.147362 C 284.536565 924.772363 294.052205 928.784869 296.714709 929.519245 C 299.377213 930.253621 311.608481 934.719253 312.911608 934.834878 C 314.214735 934.947378 325.374127 938.225508 326.336628 938.169258 C 327.29913 938.113008 330.52726 938.113008 330.52726 938.113008 L 330.414759 927.428617 C 330.414759 927.428617 328.827257 919.116104 327.921006 917.419227 C 327.014754 915.725474 325.089751 910.01609 324.4085 909.44734 C 323.730374 908.884839 322.939748 906.962961 322.939748 906.962961 C 322.939748 906.962961 323.449124 905.775459 324.12725 904.756708 C 325.486627 903.00358 326.224128 899.72545 326.958504 897.859822 C 328.714757 894.581692 330.246009 889.719185 330.63976 887.909807 C 330.63976 887.909807 333.189764 878.525418 333.189764 878.469168 C 333.189764 878.409793 333.755389 873.434785 333.358514 873.041035 C 333.186639 872.866034 333.024138 872.737909 332.524138 872.734784 Z M 332.524138 872.734784 " transform="matrix(1.249998,0,0,1.249998,-59.697513,-1033.686364)"/>
<path style=" stroke:none;fill-rule:nonzero;fill:rgb(100%,100%,100%);fill-opacity:1;" d="M 32.992188 83.761719 C 33.417969 84.289062 33.949219 84.5 35.328125 84.078125 C 36.710938 83.652344 37.132812 82.910156 39.683594 82.804688 C 42.230469 82.699219 43.398438 82.699219 44.566406 82.910156 C 45.734375 83.125 46.480469 82.382812 46.691406 82.910156 C 46.90625 83.441406 48.605469 83.867188 46.054688 84.394531 C 43.507812 84.925781 43.082031 86.199219 41.167969 86.199219 C 39.257812 86.199219 39.152344 87.046875 37.242188 86.832031 C 35.328125 86.621094 33.417969 87.683594 33.3125 88.210938 C 33.203125 88.742188 31.046875 87.859375 31.046875 87.011719 C 31.046875 86.160156 32.566406 83.230469 32.992188 83.761719 Z M 32.992188 83.761719 "/>
<path style="fill:none;stroke-width:0.24;stroke-linecap:butt;stroke-linejoin:miter;stroke:rgb(0%,0%,0%);stroke-opacity:1;stroke-miterlimit:4;" d="M 121.305069 880.391046 C 121.305069 880.391046 123.258197 880.644171 124.361323 880.984797 C 125.467575 881.322297 128.014454 882.850424 129.373831 884.628552 C 130.733208 886.409805 133.283212 887.853557 134.558214 888.447308 C 135.833216 889.041059 135.833216 891.412937 135.745715 892.85669 C 135.66134 894.297317 133.876963 898.369198 133.114461 899.384824 C 132.348835 900.403576 129.205081 908.969214 127.505078 911.259842 C 125.8082 913.547346 119.605066 925.166113 118.076939 927.200491 C 116.545686 929.237994 112.12693 928.559868 109.239425 931.781748 C 106.351921 935.003628 102.783166 933.306751 98.364409 934.069252 C 94.864404 934.675503 91.314398 933.647376 91.314398 933.647376 M 51.195588 906.881711 C 49.845586 905.241083 49.739336 903.17858 53.336216 900.178576 C 58.661224 895.259818 69.083115 886.156679 73.386246 882.650424 C 77.692503 879.147294 89.245645 871.116032 93.892527 868.631653 C 98.873785 864.784772 99.555036 863.769146 104.767544 860.772266 C 110.883178 856.419135 121.926945 851.331627 124.305073 850.934751 C 126.686327 850.537876 130.989458 849.634749 135.861341 850.653501 C 140.730098 851.669127 149.680111 851.781628 151.492614 851.841003 C 153.305117 851.894128 162.820756 855.400383 169.220766 856.191009 C 175.620776 856.98476 189.892672 863.54102 197.764559 863.994146 C 205.639571 864.447272 217.361464 872.475409 222.177096 874.056661 C 226.992728 875.641039 239.508372 885.025428 242.170876 886.49418 C 244.83338 887.966057 253.895894 891.528563 257.349024 892.091063 C 260.805279 892.656689 264.202159 893.278565 266.583413 893.278565 C 268.961542 893.278565 270.999045 893.731691 275.077176 892.319189 C 279.155307 890.906687 278.136555 891.356687 281.252185 890.734811 C 284.367815 890.112935 284.536565 891.528563 284.877191 892.656689 C 285.217816 893.787941 286.577193 896.387945 286.177193 898.028572 C 285.783442 899.6692 285.274066 901.647328 285.158441 903.05983 C 285.045941 904.475457 284.424065 905.209833 284.592815 907.075461 C 284.761565 908.941089 285.839692 913.12547 284.989691 914.425472 C 284.13969 915.725474 283.064688 917.703602 282.270937 918.325478 C 281.477186 918.947354 278.589681 920.756732 277.511555 921.150482 C 276.436553 921.547358 275.814677 922.112984 275.249051 922.112984 C 274.683425 922.112984 272.245922 921.828608 270.264669 921.944233 C 268.280291 922.056734 262.220906 922.95986 259.502152 924.034862 C 256.783398 925.109863 255.367771 925.675489 252.705267 926.522365 C 250.042763 927.372367 249.930263 927.934868 246.020882 929.350495 C 242.114626 930.762997 236.508368 929.85987 232.939612 931.103622 C 229.370857 932.344249 222.405221 933.928627 219.742717 935.116128 C 217.080213 936.30363 209.377077 937.547382 207.736449 938.113008 C 206.092697 938.678634 192.667676 941.503638 190.914549 941.956764 C 189.155171 942.409889 189.892672 942.125514 184.455164 942.409889 C 179.020781 942.69114 177.998904 942.466139 176.073901 942.919265 C 174.148898 943.369266 170.748893 942.975515 169.105141 942.919265 C 167.464513 942.85989 152.908241 942.297389 148.66136 941.391138 C 144.411354 940.488011 144.298853 940.206761 139.598846 940.316136 C 134.895714 940.431761 121.361319 940.600512 119.320691 940.316136 C 117.283188 940.034886 106.520671 938.847384 101.367538 937.659882 C 96.211281 936.47238 97.570658 936.13488 97.005032 935.906755 C 96.439406 935.681754 93.892527 934.209877 90.833148 933.475501 C 87.773768 932.741125 80.070631 930.819247 73.386246 926.747366 C 66.704986 922.67861 62.229979 920.531731 59.398725 918.775479 C 56.567471 917.025476 47.389332 910.241091 47.898708 908.828589 C 48.411209 907.412962 49.69871 905.816084 50.492462 905.872334 M 64.267482 894.694192 C 63.701857 895.091068 63.476856 895.597319 63.476856 895.597319 M 60.473727 897.575447 C 60.870602 898.369198 61.039353 898.762948 61.039353 898.706698 " transform="matrix(1.249998,0,0,1.249998,-59.697513,-1033.686364)"/>
<path style="fill:none;stroke-width:0.24;stroke-linecap:round;stroke-linejoin:round;stroke:rgb(0%,0%,0%);stroke-opacity:1;stroke-miterlimit:4;" d="M 175.208275 873.08166 C 174.361399 873.084785 173.492647 873.166035 172.617646 873.35041 C 168.627015 874.200411 156.561372 878.778543 153.589492 880.897296 C 150.614488 883.019175 147.555108 887.175431 146.280106 889.294184 C 145.008229 891.412937 141.014473 895.909819 139.230096 897.944197 C 137.445718 899.978575 133.367587 904.897333 132.180085 906.42546 C 130.989458 907.950462 131.073833 910.156716 131.073833 911.172342 C 131.073833 912.191094 130.989458 913.122345 132.00821 915.922349 C 133.026961 918.722354 133.792587 921.434858 135.067589 921.603608 C 136.342591 921.772358 138.636345 921.944233 142.033225 921.603608 C 145.43323 921.266107 153.758243 920.416106 155.711371 920.162981 C 157.664499 919.90673 159.961377 920.416106 161.74263 919.228604 C 163.527007 918.041103 167.605139 915.922349 170.070767 913.462971 C 172.533271 911.003592 177.802029 906.42546 179.073906 904.050456 C 180.348908 901.675453 184.089538 894.806692 184.598914 892.347314 C 185.10829 889.887935 186.042666 884.034801 186.042666 883.187925 C 186.042666 882.341049 184.767664 875.556663 182.642661 874.706662 C 180.983284 874.044161 178.236405 873.072285 175.208275 873.08166 Z M 175.208275 873.08166 " transform="matrix(1.249998,0,0,1.249998,-59.697513,-1033.686364)"/>
</g>
</svg>
