<?xml version="1.0" encoding="UTF-8"?>
<!-- Created by grConvert v0.1-0 -->
<svg xmlns="http://www.w3.org/2000/svg" xmlns:xlink="http://www.w3.org/1999/xlink" width="452pt" height="249pt" viewBox="0 0 452 249" version="1.1">
<g id="surface9">
<path style="fill:none;stroke-width:0.818605;stroke-linecap:butt;stroke-linejoin:miter;stroke:rgb(0%,0%,0%);stroke-opacity:1;stroke-miterlimit:4;" d="M 415.498977 143.2724 C 415.498977 143.2724 422.499402 137.522817 428.749293 132.523475 C 434.999185 127.520724 438.748438 121.273252 447.249928 114.023184 C 455.751418 106.773116 467.251628 103.523203 471.00088 100.771178 C 474.750133 98.022564 474.999174 96.273135 479.249919 96.522079 C 483.500664 96.771023 486.250343 102.022719 486.250343 102.022719 C 486.250343 102.022719 486.001303 102.772961 486.748424 106.520762 C 487.498957 110.271973 486.499384 125.273407 486.499384 127.022836 C 486.499384 128.772264 482.248638 143.773699 482.248638 145.523127 C 482.248638 147.272556 475.749706 153.523437 476.74928 155.770754 C 477.748853 158.021481 474.248641 161.523748 474.999174 163.020822 C 475.749706 164.521306 474.999174 168.770406 476.74928 171.273486 C 478.499386 173.773157 485.25077 181.023225 487.249916 187.270697 C 489.249063 193.521579 486.748424 202.521075 487.751409 204.771802 C 488.750982 207.022528 489.501515 218.521696 487.000876 219.022994 C 484.500237 219.520882 482.999171 222.770795 479.498959 222.020553 C 475.998747 221.273721 472.249494 222.020553 468.998322 220.271124 C 465.750562 218.521696 457.249072 215.271783 449.501526 212.270814 C 441.750569 209.273255 432.498546 203.772616 432.498546 203.772616 C 434.664857 203.585055 435.684899 198.69825 437.411124 196.045121 C 439.150996 193.36471 442.333938 190.912782 442.569332 187.192262 C 442.886603 182.186101 444.408137 175.662403 442.153127 169.721849 C 439.898117 163.767654 437.342894 156.268642 432.757821 150.089374 C 430.942896 147.644266 424.86358 144.701271 421.359956 143.548626 C 418.77403 142.699488 418.507932 143.940798 415.498977 143.2724 Z M 415.498977 143.2724 " transform="matrix(1.14502,0,0,1.145463,-109.125672,-109.167976)"/>
<path style="fill-rule:nonzero;fill:rgb(99.215686%,96.470588%,96.078431%);fill-opacity:1;stroke-width:0.818605;stroke-linecap:butt;stroke-linejoin:miter;stroke:rgb(0%,0%,0%);stroke-opacity:1;stroke-miterlimit:4;" d="M 207.154473 303.316118 C 206.710976 303.52755 205.639761 304.008387 202.99925 305.021214 C 196.500318 307.520885 192.498614 308.271127 190.250427 309.021369 C 187.998828 309.771611 189.250853 311.52104 177.501603 311.52104 C 165.748941 311.52104 162.750221 310.521854 159.250009 311.272096 C 155.749797 312.022338 147.749799 311.773394 143.751506 311.023152 C 139.749801 310.27291 139.500761 309.021369 135.000975 308.772425 C 130.50119 308.523481 130.999271 307.520885 126.001404 307.773239 C 121.000126 308.022183 117.499914 306.770643 113.501621 306.0204 C 109.499916 305.273568 105.750664 306.272754 103.499065 304.022028 C 101.250878 301.771301 98.99928 300.523171 97.999706 299.022686 C 97.000133 297.522202 97.000133 294.521233 96.751093 293.020749 C 96.498641 291.523674 98.501199 290.773432 98.501199 290.773432 C 98.501199 290.773432 96.498641 289.020594 96.498641 287.022221 C 98.501199 280.021097 97.000133 279.021911 100.500345 271.522899 C 104.000558 264.020476 105.999704 264.020476 107.50077 259.522433 C 108.998424 255.02098 113.000129 247.521968 116.500341 244.520999 C 120.000553 241.52344 122.999273 239.521658 123.998846 239.521658 C 124.998419 239.521658 127.000978 237.021987 129.501616 235.023614 C 131.998844 233.021832 139.998842 226.522006 142.0014 225.021521 C 144.000546 223.521037 154.501183 214.023652 155.998837 211.520572 C 157.499903 209.020901 173.499898 195.022063 177.999684 193.521579 C 182.499469 192.021094 191.49904 186.022567 194.999253 183.021598 C 198.499465 180.020629 201.999677 177.520958 203.500743 176.521772 C 204.998397 175.522586 206.001382 157.022294 207.000955 155.52181 C 208.000528 154.021325 209.750634 151.770599 209.750634 151.770599 L 210.999248 157.271238 C 210.999248 157.271238 212.998395 156.023108 212.998395 150.273524 C 214.001379 147.770444 216.249566 144.022643 216.498607 142.522158 C 216.751059 141.021674 217.999673 138.770947 219.248286 137.522817 C 220.500311 136.271276 221.499885 135.023146 222.001377 138.522003 C 222.499458 142.02086 223.751483 144.772885 224.249564 144.520531 C 224.751057 144.271587 238.499454 122.521382 242.750199 120.270656 C 245.748918 119.022526 245.250838 121.020898 244.998386 123.022681 C 244.749345 125.021053 245.250838 130.272749 245.250838 130.272749 C 245.250838 130.272749 252.749343 119.022526 255.751474 116.771799 C 258.750194 114.521072 260.25126 114.521072 260.25126 114.521072 L 260.749341 127.27178 C 260.749341 127.27178 262.748487 127.520724 264.751045 124.772109 C 266.750192 122.023494 272.249551 119.022526 272.751043 119.022526 C 273.249124 119.022526 273.750616 121.273252 273.750616 121.273252 L 272.249551 129.771451 C 272.249551 129.771451 275.749763 127.773078 277.250829 125.771295 C 278.748483 123.772923 280.751041 122.272438 281.999654 122.023494 C 283.248268 121.77114 283.998801 123.520569 283.998801 123.520569 L 283.248268 130.272749 C 283.248268 130.272749 286.001359 127.773078 287.000932 127.022836 C 288.000506 126.272594 292.251251 123.772923 292.998372 123.772923 C 293.748905 123.772923 292.251251 131.022991 292.251251 131.022991 C 292.251251 131.022991 297.000077 126.521538 298.501142 126.272594 L 301.499862 125.771295 L 300.99837 130.020395 C 300.99837 130.020395 304.249542 126.02365 306.248688 125.273407 C 308.251246 124.523165 310.001352 123.772923 310.001352 123.772923 L 309.7489 127.773078 C 309.7489 127.773078 316.251244 122.023494 318.00135 121.273252 C 319.751456 120.52301 322.501136 120.771954 322.501136 120.771954 C 322.501136 120.771954 327.499002 115.523669 328.249535 114.521072 C 329.000068 113.521886 330.999214 110.023029 332.74932 109.770675 C 334.499426 109.521731 339.500704 111.271159 340.749318 109.770675 C 342.001343 108.273601 343.000917 109.272787 345.249104 109.521731 C 347.500702 109.770675 348.749316 110.773271 351.249955 111.523514 C 353.750594 112.273756 360.000485 117.273097 361.249099 117.273097 C 362.501124 117.273097 363.500698 120.021712 366.748458 121.77114 C 369.99963 123.520569 373.499842 130.521693 376.249521 131.271935 C 378.999201 132.022177 382.499413 138.273059 384.498559 139.023301 C 386.501118 139.773543 389.499837 145.021829 390.499411 145.270773 C 391.498984 145.523127 392.751009 146.021015 392.751009 148.022798 L 392.751009 153.271083 C 392.751009 153.271083 392.751009 155.020512 396.998343 154.27368 C 401.249088 154.021325 403.248234 151.770599 403.248234 151.770599 C 403.248234 151.770599 410.248659 148.271742 415.498977 143.2724 C 420.749295 138.273059 422.499402 137.522817 428.749293 132.523475 C 434.999185 127.520724 438.748438 121.273252 447.249928 114.023184 C 455.751418 106.773116 467.251628 103.523203 471.00088 100.771178 C 474.750133 98.022564 474.999174 96.273135 479.249919 96.522079 C 483.500664 96.771023 486.250343 102.022719 486.250343 102.022719 C 486.250343 102.022719 486.001303 102.772961 486.748424 106.520762 C 487.498957 110.271973 486.499384 125.273407 486.499384 127.022836 C 486.499384 128.772264 482.248638 143.773699 482.248638 145.523127 C 482.248638 147.272556 475.749706 153.523437 476.74928 155.770754 C 477.748853 158.021481 474.248641 161.523748 474.999174 163.020822 C 475.749706 164.521306 474.999174 168.770406 476.74928 171.273486 C 478.499386 173.773157 485.25077 181.023225 487.249916 187.270697 C 489.249063 193.521579 486.748424 202.521075 487.751409 204.771802 C 488.750982 207.022528 489.501515 218.521696 487.000876 219.022994 C 484.500237 219.520882 482.999171 222.770795 479.498959 222.020553 C 475.998747 221.273721 472.249494 222.020553 468.998322 220.271124 C 465.750562 218.521696 457.249072 215.271783 449.501526 212.270814 C 441.750569 209.273255 437.748864 204.522858 432.498546 203.772616 C 427.248228 203.022373 428.998334 201.272945 424.498548 201.770833 C 419.998763 202.272131 408.000472 207.022528 405.250792 208.270659 C 402.501113 209.522199 398.250368 211.520572 398.250368 211.520572 C 398.250368 211.520572 399.000901 215.520727 400.498555 217.771453 C 401.999621 220.02218 406.001325 222.770795 405.250792 225.771764 C 404.50026 228.772733 404.50026 234.77126 403.248234 239.521658 C 401.999621 244.272055 401.000047 249.022452 400.751007 251.273179 C 400.498555 253.520495 401.999621 253.271551 398.499408 258.021949 C 394.999196 262.772346 391.000903 269.272172 386.248666 269.77347 C 381.49984 270.271358 382.499413 270.271358 377.999627 269.521116 C 373.499842 268.770874 371.248243 268.770874 369.501549 269.77347 C 367.751443 270.772656 364.998352 271.771843 363.248246 271.270544 C 361.501551 270.772656 358.49942 268.52193 354.999207 268.770874 C 351.498995 269.023228 353.249101 271.0216 348.500275 268.020632 C 343.751449 265.023073 343.000917 262.523402 338.999212 261.022918 C 335.000919 259.522433 337.501558 255.522278 333.748894 257.022763 C 329.999641 258.523247 328.498575 256.770408 327.000921 258.772191 C 325.499855 260.770564 317.250817 260.023731 314.750178 261.77316 C 312.249539 263.522588 291.998799 268.272986 290.501145 270.271358 C 289.000079 272.273141 294.748478 269.77347 302.001355 270.772656 C 309.250819 271.771843 316.749325 272.522085 318.250391 274.271513 C 319.751456 276.020942 324.749323 276.52224 325.250815 279.270855 C 325.748896 282.02288 323.749749 289.272948 318.748471 290.02319 C 313.750605 290.773432 310.499433 291.022376 305.750607 292.021562 C 300.99837 293.020749 301.250822 291.022376 298.501142 293.273103 C 295.751463 295.520419 285.250826 301.522357 275.749763 300.523171 C 266.248699 299.520574 263.000939 297.522202 256.000515 298.521388 C 249.00009 299.520574 243.248279 297.522202 239.751479 298.272444 C 236.251267 299.022686 236.251267 297.522202 236.251267 297.522202 C 236.251267 297.522202 233.999668 297.771146 230.001375 299.27163 C 225.99967 300.772115 227.749776 300.523171 222.001377 301.273413 C 216.249566 302.023655 209.501594 303.271786 208.000528 303.271786 C 207.649142 303.186531 207.297757 303.104686 207.154473 303.316118 Z M 207.154473 303.316118 " transform="matrix(1.14502,0,0,1.145463,-109.125672,-109.167976)"/>
<path style="fill-rule:nonzero;fill:rgb(96.862745%,95.686275%,95.686275%);fill-opacity:1;stroke-width:0.818605;stroke-linecap:butt;stroke-linejoin:miter;stroke:rgb(0%,0%,0%);stroke-opacity:1;stroke-miterlimit:4;" d="M 415.498977 143.2724 C 415.498977 143.2724 422.499402 137.522817 428.749293 132.523475 C 434.999185 127.520724 438.748438 121.273252 447.249928 114.023184 C 455.751418 106.773116 467.251628 103.523203 471.00088 100.771178 C 474.750133 98.022564 474.999174 96.273135 479.249919 96.522079 C 483.500664 96.771023 486.250343 102.022719 486.250343 102.022719 C 486.250343 102.022719 486.001303 102.772961 486.748424 106.520762 C 487.498957 110.271973 486.499384 125.273407 486.499384 127.022836 C 486.499384 128.772264 482.248638 143.773699 482.248638 145.523127 C 482.248638 147.272556 475.749706 153.523437 476.74928 155.770754 C 477.748853 158.021481 474.248641 161.523748 474.999174 163.020822 C 475.749706 164.521306 474.999174 168.770406 476.74928 171.273486 C 478.499386 173.773157 485.25077 181.023225 487.249916 187.270697 C 489.249063 193.521579 486.748424 202.521075 487.751409 204.771802 C 488.750982 207.022528 489.501515 218.521696 487.000876 219.022994 C 484.500237 219.520882 482.999171 222.770795 479.498959 222.020553 C 475.998747 221.273721 472.249494 222.020553 468.998322 220.271124 C 465.750562 218.521696 457.249072 215.271783 449.501526 212.270814 C 441.750569 209.273255 432.498546 203.772616 432.498546 203.772616 C 434.664857 203.585055 435.684899 198.69825 437.411124 196.045121 C 439.150996 193.36471 442.333938 190.912782 442.569332 187.192262 C 442.886603 182.186101 444.408137 175.662403 442.153127 169.721849 C 439.898117 163.767654 437.342894 156.268642 432.757821 150.089374 C 430.942896 147.644266 424.86358 144.701271 421.359956 143.548626 C 418.77403 142.699488 418.507932 143.940798 415.498977 143.2724 Z M 415.498977 143.2724 " transform="matrix(1.14502,0,0,1.145463,-109.125672,-109.167976)"/>
<path style=" stroke:none;fill-rule:nonzero;fill:rgb(96.078431%,53.333333%,24.705882%);fill-opacity:1;" d="M 428.359375 23.707031 C 425 28.519531 397.9375 49.011719 395.621094 49.011719 C 393.300781 49.011719 388.546875 58.019531 388.546875 53.449219 C 388.546875 48.878906 398.339844 42.777344 400.65625 42.777344 C 402.976562 42.777344 430.976562 19.960938 428.359375 23.707031 Z M 437.953125 141.832031 C 439.097656 144.074219 417.507812 125.761719 411.808594 125.761719 C 406.113281 125.761719 397.179688 116.046875 397.179688 113.53125 C 397.179688 111.011719 409.925781 119.921875 414.929688 122.644531 C 417.4375 124.007812 436.898438 139.765625 437.953125 141.832031 Z M 380.78125 57.21875 C 373.625 62.945312 377.390625 64.820312 371.378906 70.546875 C 365.367188 76.273438 363.796875 83.335938 363.796875 83.335938 C 363.796875 83.335938 350.3125 67.257812 345.449219 67.542969 C 340.582031 68.402344 340.578125 66.402344 340.578125 66.402344 C 311.425781 67.390625 312.808594 101.0625 269.960938 95.886719 C 263.367188 98.082031 251.492188 106 244.59375 104.167969 C 227.035156 99.503906 214.117188 77.660156 198.761719 77.109375 C 189.921875 76.792969 174.203125 78.261719 164.871094 84.1875 C 156.902344 89.253906 155.15625 98.667969 149.179688 100.890625 C 137.773438 105.136719 133.285156 94.84375 123.886719 93.03125 C 122.167969 94.175781 118.160156 97.039062 114.152344 100.476562 C 110.144531 103.914062 94.6875 112.503906 94.6875 112.503906 C 104.496094 112.179688 100.050781 121.074219 102.488281 125.449219 C 106.570312 132.765625 110.984375 137.800781 95.21875 141.726562 C 87.019531 143.769531 85.90625 132.730469 69.496094 133.121094 C 69.496094 133.121094 55.757812 146.867188 53.464844 148.585938 C 60.648438 152.359375 108.792969 158.199219 43.941406 177.707031 C 41.28125 179.988281 18.699219 177.75 16.539062 182.058594 C 15.445312 184.246094 14.542969 186.371094 13.964844 188.105469 C 12.246094 193.261719 16.792969 189.675781 25.136719 194.175781 C 38.398438 201.328125 89.53125 189.28125 87.238281 197.300781 C 85.0625 205.429688 63.007812 214.9375 69.109375 218.328125 C 76.234375 227.828125 1.367188 224.761719 1.65625 226.476562 C 1.941406 228.195312 1.941406 231.632812 3.085938 233.351562 C 4.230469 235.070312 6.808594 236.5 9.382812 239.078125 C 11.960938 241.65625 16.253906 240.511719 20.832031 241.367188 C 25.414062 242.226562 29.421875 243.660156 35.148438 243.371094 C 40.871094 243.085938 40.296875 244.234375 45.453125 244.519531 C 65.6875 245.851562 81.269531 246.742188 101.578125 230.707031 C 115.03125 230.707031 119.703125 221.921875 122.28125 221.0625 C 129.425781 222.847656 149.003906 221.140625 197.972656 177.378906 C 216.523438 168.699219 248.1875 167.589844 271.152344 154.207031 C 280.851562 148.554688 279.113281 141.976562 290.410156 134.925781 C 294.964844 132.085938 300.9375 113.335938 305.484375 111.460938 C 314.335938 107.808594 334.453125 119.691406 341.761719 114.535156 C 346.929688 110.890625 355.941406 98.453125 368.597656 99.523438 C 377.535156 100.28125 391.351562 115.089844 393.460938 112.355469 C 397.09375 107.65625 400.117188 107.863281 396.417969 99.113281 C 395.222656 96.289062 387.984375 84.582031 386.410156 81.164062 C 384.550781 77.125 387.28125 70.96875 386.371094 66.519531 C 384.21875 56.007812 379.371094 61.855469 380.785156 57.21875 Z M 89.160156 154.152344 C 91.605469 154.0625 95.957031 155.5 99.054688 155.5 C 103.558594 155.503906 106.96875 153.894531 106.96875 156.941406 C 106.96875 159.988281 102.023438 169.683594 99.054688 166.292969 C 93.492188 159.945312 87.226562 158.097656 87.304688 155.5 C 87.332031 154.550781 88.046875 154.191406 89.160156 154.152344 Z M 89.160156 154.152344 "/>
<path style=" stroke:none;fill-rule:nonzero;fill:rgb(89.803922%,85.882353%,85.882353%);fill-opacity:1;" d="M 395.078125 42.496094 C 402.953125 38.8125 418.796875 25.234375 425.953125 19.507812 C 428.167969 16.574219 437.945312 11.210938 437.527344 12.738281 C 436.523438 16.429688 418.183594 30.472656 390.953125 55.308594 C 389.230469 56.878906 443.539062 22.515625 441.164062 27.527344 C 440.128906 29.710938 397.269531 58.765625 396.828125 60.667969 C 396.320312 62.871094 442.371094 35.941406 441.296875 38.570312 C 440.289062 41.035156 401.492188 63.925781 400.820312 66.277344 C 400.328125 67.992188 437.097656 51.078125 436.457031 52.875 C 435.339844 56.003906 403.84375 69.199219 403.078125 72.242188 C 415.089844 72.765625 434.414062 62.761719 432.519531 67.171875 C 431.75 69.558594 404.367188 75.503906 403.734375 77.875 C 403.285156 79.546875 430.375 77.367188 429.886719 79.03125 C 429.464844 80.464844 405.0625 82.484375 404.683594 83.902344 C 404.324219 85.257812 430.621094 85.714844 430.238281 87.050781 C 429.691406 88.957031 406.058594 88.777344 405.578125 90.648438 C 405.210938 92.070312 432.390625 92.59375 431.996094 93.992188 C 431.449219 95.941406 405.445312 94.3125 404.957031 96.207031 C 404.570312 97.707031 443.570312 105.109375 443.132812 106.550781 C 442.28125 109.34375 404.148438 101.976562 403.429688 104.582031 C 403.429688 104.582031 445.316406 117.445312 444.5 119.527344 C 443.53125 122 401.988281 109.503906 401.082031 111.652344 C 399.144531 116.21875 450.257812 135.183594 440.402344 137.824219 C 436.515625 138.863281 433.839844 135.332031 429.265625 133.390625 C 412.453125 124.972656 410.300781 124.496094 391.71875 115.394531 C 393.710938 112.324219 397.355469 109.515625 397.625 105.253906 C 397.988281 99.519531 399.730469 92.046875 397.148438 85.242188 C 394.566406 78.421875 391.640625 69.832031 386.390625 62.753906 C 384.3125 59.953125 377.351562 56.582031 373.339844 55.261719 C 370.378906 54.289062 388.527344 45.554688 395.078125 42.496094 Z M 395.078125 42.496094 "/>
<path style="fill:none;stroke-width:0.818605;stroke-linecap:butt;stroke-linejoin:miter;stroke:rgb(0%,0%,0%);stroke-opacity:1;stroke-miterlimit:4;" d="M 203.500743 176.521772 C 204.998397 175.522586 206.001382 157.022294 207.000955 155.52181 C 208.000528 154.021325 209.750634 151.770599 209.750634 151.770599 L 210.999248 157.271238 C 210.999248 157.271238 212.998395 156.023108 212.998395 150.273524 C 214.001379 147.770444 216.249566 144.022643 216.498607 142.522158 C 216.751059 141.021674 217.999673 138.770947 219.248286 137.522817 C 220.500311 136.271276 221.499885 135.023146 222.001377 138.522003 C 222.499458 142.02086 223.751483 144.772885 224.249564 144.520531 C 224.751057 144.271587 238.499454 122.521382 242.750199 120.270656 C 245.748918 119.022526 245.250838 121.020898 244.998386 123.022681 C 244.749345 125.021053 245.250838 130.272749 245.250838 130.272749 C 245.250838 130.272749 252.749343 119.022526 255.751474 116.771799 C 258.750194 114.521072 260.25126 114.521072 260.25126 114.521072 L 260.749341 127.27178 C 260.749341 127.27178 262.748487 127.520724 264.751045 124.772109 C 266.750192 122.023494 272.249551 119.022526 272.751043 119.022526 C 273.249124 119.022526 273.750616 121.273252 273.750616 121.273252 L 272.249551 129.771451 C 272.249551 129.771451 275.749763 127.773078 277.250829 125.771295 C 278.748483 123.772923 280.751041 122.272438 281.999654 122.023494 C 283.248268 121.77114 283.998801 123.520569 283.998801 123.520569 L 283.248268 130.272749 C 283.248268 130.272749 286.001359 127.773078 287.000932 127.022836 C 288.000506 126.272594 292.251251 123.772923 292.998372 123.772923 C 293.748905 123.772923 292.251251 131.022991 292.251251 131.022991 C 292.251251 131.022991 297.000077 126.521538 298.501142 126.272594 L 301.499862 125.771295 L 300.99837 130.020395 C 300.99837 130.020395 304.249542 126.02365 306.248688 125.273407 C 308.251246 124.523165 310.001352 123.772923 310.001352 123.772923 L 309.7489 127.773078 C 309.7489 127.773078 316.251244 122.023494 318.00135 121.273252 C 319.751456 120.52301 322.501136 120.771954 322.501136 120.771954 C 322.501136 120.771954 327.499002 115.523669 328.249535 114.521072 C 329.000068 113.521886 330.999214 110.023029 332.74932 109.770675 C 334.499426 109.521731 339.500704 111.271159 340.749318 109.770675 C 342.001343 108.273601 343.000917 109.272787 345.249104 109.521731 C 347.500702 109.770675 348.749316 110.773271 351.249955 111.523514 C 353.750594 112.273756 360.000485 117.273097 361.249099 117.273097 C 362.501124 117.273097 363.500698 120.021712 366.748458 121.77114 C 369.99963 123.520569 373.499842 130.521693 376.249521 131.271935 C 378.999201 132.022177 382.499413 138.273059 384.498559 139.023301 C 386.501118 139.773543 389.499837 145.021829 390.499411 145.270773 C 391.498984 145.523127 392.751009 146.021015 392.751009 148.022798 L 392.751009 153.271083 C 372.125002 156.316385 339.292602 151.279531 311.795808 156.104953 C 297.620972 158.590983 282.279399 159.9687 267.729296 161.769281 C 246.700731 164.371258 224.839756 170.772188 203.500743 176.521772 Z M 203.500743 176.521772 " transform="matrix(1.14502,0,0,1.145463,-109.125672,-109.167976)"/>
<path style="fill-rule:nonzero;fill:rgb(96.862745%,95.686275%,95.686275%);fill-opacity:1;stroke-width:0.818605;stroke-linecap:butt;stroke-linejoin:miter;stroke:rgb(0%,0%,0%);stroke-opacity:1;stroke-miterlimit:4;" d="M 398.250368 211.520572 C 398.250368 211.520572 399.000901 215.520727 400.498555 217.771453 C 401.999621 220.02218 406.001325 222.770795 405.250792 225.771764 C 404.50026 228.772733 404.50026 234.77126 403.248234 239.521658 C 401.999621 244.272055 401.000047 249.022452 400.751007 251.273179 C 400.498555 253.520495 401.999621 253.271551 398.499408 258.021949 C 394.999196 262.772346 391.000903 269.272172 386.248666 269.77347 C 381.49984 270.271358 382.499413 270.271358 377.999627 269.521116 C 373.499842 268.770874 371.248243 268.770874 369.501549 269.77347 C 367.751443 270.772656 364.998352 271.771843 363.248246 271.270544 C 361.501551 270.772656 358.49942 268.52193 354.999207 268.770874 C 351.498995 269.023228 353.249101 271.0216 348.500275 268.020632 C 343.751449 265.023073 343.000917 262.523402 338.999212 261.022918 C 335.000919 259.522433 337.501558 255.522278 333.748894 257.022763 C 344.716908 249.990947 355.05038 242.369168 365.721592 233.540181 C 375.509223 225.444385 386.521587 218.610361 398.250368 211.520572 Z M 398.250368 211.520572 " transform="matrix(1.14502,0,0,1.145463,-109.125672,-109.167976)"/>
<path style="fill-rule:nonzero;fill:rgb(96.862745%,95.686275%,95.686275%);fill-opacity:1;stroke-width:0.818605;stroke-linecap:butt;stroke-linejoin:miter;stroke:rgb(0%,0%,0%);stroke-opacity:1;stroke-miterlimit:4;" d="M 290.501145 270.271358 C 289.000079 272.273141 294.748478 269.77347 302.001355 270.772656 C 309.250819 271.771843 316.749325 272.522085 318.250391 274.271513 C 319.751456 276.020942 324.749323 276.52224 325.250815 279.270855 C 325.748896 282.02288 323.749749 289.272948 318.748471 290.02319 C 313.750605 290.773432 310.499433 291.022376 305.750607 292.021562 C 300.99837 293.020749 301.250822 291.022376 298.501142 293.273103 C 295.751463 295.520419 285.250826 301.522357 275.749763 300.523171 C 266.248699 299.520574 263.000939 297.522202 256.000515 298.521388 C 249.00009 299.520574 243.248279 297.522202 239.751479 298.272444 C 236.251267 299.022686 236.251267 297.522202 236.251267 297.522202 C 250.432926 293.307205 263.028231 287.434854 274.610318 279.581182 C 279.638888 276.17099 285.656796 273.702011 290.501145 270.271358 Z M 290.501145 270.271358 " transform="matrix(1.14502,0,0,1.145463,-109.125672,-109.167976)"/>
<path style=" stroke:none;fill-rule:nonzero;fill:rgb(92.941176%,80.392157%,77.647059%);fill-opacity:1;" d="M 4.496094 223.492188 C 4.496094 223.492188 1.367188 220.21875 1.367188 219.605469 C 2.167969 216.808594 1.335938 214.191406 2.714844 213.117188 C 7.136719 209.671875 17.398438 215.28125 23.128906 217.570312 C 32.585938 221.347656 36.699219 220.300781 44.554688 222.480469 C 65.59375 228.316406 68.546875 224.273438 76.785156 224.804688 C 80.578125 225.050781 72.097656 237.96875 74.902344 244.929688 C 75.207031 245.691406 73.019531 246.566406 73.21875 247.382812 C 69.210938 248.242188 60.050781 247.957031 55.472656 247.097656 C 50.890625 246.238281 50.605469 244.804688 45.453125 244.519531 C 40.300781 244.234375 40.871094 243.085938 35.148438 243.375 C 29.421875 243.660156 25.414062 242.226562 20.835938 241.367188 C 16.253906 240.511719 11.960938 241.65625 9.382812 239.078125 C 6.808594 236.5 4.230469 235.070312 3.085938 233.351562 C 1.941406 231.632812 1.941406 228.195312 1.65625 226.476562 C 1.589844 226.09375 3.773438 224.101562 3.773438 224.101562 Z M 4.496094 223.492188 "/>
<path style=" stroke:none;fill-rule:nonzero;fill:rgb(76.078431%,33.72549%,5.098039%);fill-opacity:1;" d="M 52.796875 224.457031 C 32.621094 226.25 14.359375 227.066406 14.542969 228.175781 C 9.179688 229.242188 6.351562 234.085938 5.699219 235.890625 C 6.253906 236.339844 6.851562 236.8125 7.472656 237.335938 C 7.785156 237.601562 8.101562 237.871094 8.417969 238.160156 C 8.738281 238.453125 9.0625 238.753906 9.382812 239.078125 C 9.707031 239.398438 10.054688 239.664062 10.425781 239.878906 C 10.613281 239.988281 10.804688 240.085938 11.003906 240.171875 C 11.003906 240.175781 11.003906 240.171875 11.007812 240.171875 C 11.203125 240.261719 11.40625 240.335938 11.617188 240.402344 C 11.824219 240.46875 12.039062 240.527344 12.257812 240.578125 C 14.671875 241.136719 17.683594 240.777344 20.835938 241.367188 C 23.125 241.796875 25.269531 242.371094 27.5625 242.800781 C 28.132812 242.90625 28.714844 243.007812 29.3125 243.089844 C 30.5 243.261719 31.742188 243.378906 33.078125 243.402344 C 33.742188 243.417969 34.429688 243.410156 35.148438 243.375 C 39.441406 243.160156 40.191406 243.75 42.472656 244.179688 C 43.234375 244.324219 48.0625 243.9375 49.351562 244.011719 C 59.882812 244.703125 65.253906 245.78125 74.589844 243.914062 C 72.871094 236.785156 80.402344 225.039062 76.789062 224.804688 C 69.777344 224.351562 66.550781 227.191406 52.800781 224.460938 Z M 52.796875 224.457031 "/>
<path style="fill:none;stroke-width:0.818605;stroke-linecap:butt;stroke-linejoin:miter;stroke:rgb(0%,0%,0%);stroke-opacity:1;stroke-miterlimit:4;" d="M 11.968222 205.120482 C 30.663313 210.344896 22.769072 211.855611 28.844977 213.386787 C 35.872693 215.156677 51.405311 215.405621 50.566079 214.212053 " transform="matrix(1.14502,0,0,1.145463,-8.364008,-11.778314)"/>
<path style="fill:none;stroke-width:0.818605;stroke-linecap:butt;stroke-linejoin:miter;stroke:rgb(0%,0%,0%);stroke-opacity:1;stroke-miterlimit:4;" d="M 57.955416 213.741447 C 59.139211 213.758498 60.756268 217.772294 60.070554 218.294053 C 60.070554 218.294053 59.118742 219.971868 56.014265 223.286574 " transform="matrix(1.14502,0,0,1.145463,-8.364008,-11.778314)"/>
<path style="fill:none;stroke-width:0.818605;stroke-linecap:butt;stroke-linejoin:miter;stroke:rgb(0%,0%,0%);stroke-opacity:1;stroke-miterlimit:4;" d="M 11.231336 205.393297 C 11.231336 205.393297 8.498714 202.535556 8.498714 202.000156 C 9.198074 199.558459 8.471422 197.27363 9.675686 196.335827 C 13.537518 193.328038 22.499563 198.225074 27.504252 200.223446 C 35.763525 203.521102 39.355848 202.60717 46.2164 204.510057 C 64.590809 209.604884 67.169913 206.075335 74.364793 206.539121 C 77.677372 206.753964 70.270978 218.031468 72.720444 224.10843 C 72.986542 224.773418 71.076095 225.537301 71.250082 226.250031 C 67.74987 227.000273 59.749872 226.751329 55.751579 226.001087 C 51.749874 225.250845 51.500834 223.999304 47.001048 223.75036 C 42.501263 223.501416 42.999344 222.49882 38.001477 222.751174 C 33.000199 223.000118 29.499987 221.748578 25.501694 220.998335 C 21.499989 220.251503 17.750737 221.250689 15.499138 218.999963 C 13.250951 216.749236 10.999353 215.501106 9.999779 214.000621 C 9.000206 212.500137 9.000206 209.499168 8.751166 207.998684 C 8.69317 207.664485 10.600206 205.925287 10.600206 205.925287 Z M 11.231336 205.393297 " transform="matrix(1.14502,0,0,1.145463,-8.364008,-11.778314)"/>
<path style=" stroke:none;fill-rule:nonzero;fill:rgb(96.078431%,58.431373%,24.705882%);fill-opacity:1;" d="M 162.132812 196.996094 C 167.734375 211.019531 129.109375 219.804688 112.726562 220.980469 C 104.996094 221.535156 96.164062 222.34375 98.179688 209.292969 C 100.550781 193.957031 114.792969 163.132812 117.523438 144.230469 C 119.679688 129.285156 112.609375 127.921875 129.035156 127.921875 C 140.644531 127.921875 153.507812 129.445312 160.179688 153.488281 C 162.484375 161.785156 143.796875 151.070312 162.132812 196.996094 Z M 162.132812 196.996094 "/>
<path style="fill:none;stroke-width:0.818605;stroke-linecap:butt;stroke-linejoin:miter;stroke:rgb(0%,0%,0%);stroke-opacity:1;stroke-miterlimit:4;" d="M 135.178374 274.472715 C 136.089248 275.202496 138.818458 277.572579 140.090953 277.841984 C 141.360035 278.11139 142.820163 279.202651 145.00012 279.202651 C 147.180076 279.202651 151.35918 278.47287 154.818454 278.11139 C 158.270905 277.753319 160.358751 277.112203 161.818878 276.113017 C 163.268771 275.110421 168.270049 273.200713 169.269622 272.020787 C 170.269196 270.84086 173.179216 268.573083 173.551071 266.663375 C 173.90928 264.753668 174.639344 263.471436 174.731454 262.932625 " transform="matrix(1.14502,0,0,1.145463,-109.125672,-109.167976)"/>
<path style="fill-rule:nonzero;fill:rgb(89.803922%,85.882353%,85.882353%);fill-opacity:1;stroke-width:0.818605;stroke-linecap:butt;stroke-linejoin:miter;stroke:rgb(0%,0%,0%);stroke-opacity:1;stroke-miterlimit:4;" d="M 128.549804 263.382771 C 128.730615 264.753668 129.641489 269.292633 130.641062 270.291819 C 131.640635 271.291006 136.181359 272.750568 138.818458 272.842643 C 141.448735 272.931308 143.638926 272.382267 146.729757 272.573238 C 149.820587 272.750568 149.448732 274.022569 152.358753 273.200713 C 155.268773 272.382267 157.820585 272.382267 162.180499 270.47256 C 166.550647 268.573083 167.089666 268.470777 168.270049 266.202999 C 169.450433 263.931811 170.818449 262.84055 171.640624 260.661437 C 172.449152 258.472094 173.72847 257.203503 173.551071 255.662096 C 173.360026 254.110459 174.001391 250.291044 172.909707 248.572307 C 171.821434 246.84334 167.819729 241.202882 166.090092 240.841402 C 164.360455 240.473101 158.731459 239.470505 156.551502 239.57281 C 154.361311 239.661475 151.638924 239.293175 149.639777 240.022956 C 147.640631 240.752737 145.358328 241.932663 143.451293 243.572966 C 141.55108 245.203037 139.180079 250.113714 137.910996 250.843495 C 136.638501 251.573276 131.910145 258.021949 130.910571 258.383429 C 129.910998 258.75173 129.088823 260.112396 128.911425 260.381802 C 128.730615 260.661437 128.35876 262.022104 128.549804 263.382771 Z M 128.549804 263.382771 " transform="matrix(1.14502,0,0,1.145463,-109.125672,-109.167976)"/>
<path style="fill:none;stroke-width:0.873178;stroke-linecap:butt;stroke-linejoin:miter;stroke:rgb(0%,0%,0%);stroke-opacity:1;stroke-miterlimit:4;" d="M 222.055961 215.987923 C 224.12675 209.774553 226.197538 202.531306 236.029518 196.836285 C 245.86491 191.141265 258.804778 187.519641 262.427805 185.449654 C 266.050832 183.379668 271.226097 180.791332 280.024389 178.721346 C 288.82268 176.651359 310.564252 173.026325 325.571497 173.544674 C 340.582154 174.063023 357.663599 171.993037 368.532679 173.544674 C 379.401759 175.096312 394.930966 176.13301 401.139919 175.614661 C 407.352284 175.096312 423.915179 172.507976 428.056756 169.92305 " transform="matrix(1.14502,0,0,1.145463,-109.125672,-109.167976)"/>
<path style="fill-rule:nonzero;fill:rgb(89.803922%,85.882353%,85.882353%);fill-opacity:1;stroke-width:0.818605;stroke-linecap:butt;stroke-linejoin:miter;stroke:rgb(0%,0%,0%);stroke-opacity:1;stroke-miterlimit:4;" d="M 203.500743 176.521772 C 204.998397 175.522586 206.51652 167.631401 207.516093 166.130917 C 208.519078 164.633843 208.914814 156.122004 210.009909 158.243143 C 210.009909 158.243143 207.833364 171.600865 211.517798 171.246205 C 211.517798 171.246205 213.783043 166.840237 214.554045 161.141806 C 215.236347 156.077671 217.72334 145.690227 218.074726 146.692823 C 219.101591 149.639229 215.911827 159.545836 216.225686 167.174436 C 216.375792 168.258877 217.116091 167.027797 217.351485 166.952773 C 218.071314 166.727701 219.180056 161.874997 220.715237 157.66 C 222.045727 153.997454 222.884959 146.945177 225.215022 145.519717 C 226.310118 145.519717 221.905855 164.889607 223.512677 167.280152 C 224.106281 168.166802 229.96726 156.23113 237.346362 143.886235 C 241.262779 137.335256 245.533993 132.670114 245.533993 132.670114 C 248.010751 130.688792 243.995401 137.021519 241.099026 143.217837 C 237.496469 150.921461 234.623975 159.215048 236.421842 160.398384 C 236.421842 160.398384 259.384735 132.697395 261.387294 129.948781 C 263.867463 128.826827 245.673865 155.70596 245.957021 161.046321 C 246.85766 163.126538 271.829935 130.702433 273.832493 131.752772 C 273.832493 131.752772 257.624395 157.465619 260.418424 158.972924 C 262.700726 160.255156 280.423536 133.352152 281.924601 133.103208 C 284.616285 131.432214 268.868741 154.8159 271.754881 156.677865 C 273.852962 157.758896 289.399226 134.296775 291.398373 133.546533 C 291.575771 135.067479 288.181316 140.42148 286.042297 146.501852 C 284.394537 151.180636 283.640592 157.107549 284.906263 157.015474 C 285.892191 155.999237 299.657645 131.282166 300.401355 133.693171 C 300.530993 134.112625 290.620548 156.302744 292.998372 155.70937 C 296.730567 152.582224 303.215853 140.462402 309.561267 131.54134 C 311.850392 128.322119 302.025235 147.235043 306.767238 153.475695 L 311.795808 156.104953 C 307.555298 156.848375 303.20903 157.492901 298.81159 158.079454 C 297.740375 158.222682 296.662337 158.3625 295.580887 158.498907 C 286.308395 159.675424 276.861916 160.640508 267.729296 161.769281 C 248.791988 164.112083 229.1792 169.537699 209.880272 174.792804 C 207.748076 175.372537 205.622704 175.94886 203.500743 176.521772 Z M 203.500743 176.521772 " transform="matrix(1.14502,0,0,1.145463,-109.125672,-109.167976)"/>
<path style=" stroke:none;fill-rule:nonzero;fill:rgb(76.078431%,33.72549%,5.098039%);fill-opacity:1;" d="M 73.71875 165.515625 C 69.90625 168.332031 62.757812 171.625 50.957031 175.496094 C 50.113281 176.773438 49.351562 177.835938 48.78125 178.160156 C 47.328125 179 41.914062 186.386719 40.769531 186.796875 C 39.625 187.222656 38.683594 188.78125 38.476562 189.089844 C 38.273438 189.410156 37.847656 190.96875 38.066406 192.527344 C 38.273438 194.097656 39.3125 199.296875 40.457031 200.441406 C 40.507812 200.488281 38.820312 196.554688 38.878906 196.605469 C 55.921875 194.039062 76.09375 195.019531 83.679688 195.519531 C 85 193.085938 86.496094 191.828125 87.40625 189.410156 C 88.332031 186.902344 89.796875 185.449219 89.589844 183.683594 C 89.375 181.90625 90.109375 177.53125 88.859375 175.5625 C 87.609375 173.582031 83.03125 167.121094 81.050781 166.707031 C 79.738281 166.425781 76.503906 165.855469 73.71875 165.515625 Z M 73.71875 165.515625 "/>
<path style="fill:none;stroke-width:0.818605;stroke-linecap:butt;stroke-linejoin:miter;stroke:rgb(0%,0%,0%);stroke-opacity:1;stroke-miterlimit:4;" d="M 207.389867 302.893254 C 208.351914 302.374905 209.160443 301.75425 209.931445 301.072212 C 211.582617 299.599009 213.34978 296.014897 215.966411 294.65082 C 220.974512 292.042024 225.982613 286.234467 228.295618 280.467832 C 231.911822 271.458105 229.926322 258.339097 230.185597 251.948397 C 231.195404 249.094066 233.699455 245.584979 232.658943 245.445161 C 231.615021 245.305343 229.892206 244.340259 229.308838 243.422917 C 232.027814 238.553163 235.139113 237.383467 233.8905 237.359596 C 232.191566 237.322084 229.677281 236.356999 226.828668 235.559015 C 230.953187 230.395984 233.904146 225.195441 233.174082 225.318208 C 232.174509 225.117007 224.235918 226.985792 222.281121 226.201448 C 220.27174 224.339483 221.305429 222.15014 218.221421 220.472325 M 202.893493 297.644969 C 207.55362 293.897168 210.729739 290.439233 210.821849 284.311118 C 210.900314 279.253804 208.372383 269.388119 205.281552 264.177345 C 200.399678 255.945142 198.233367 249.724952 194.576225 241.850819 M 207.154473 303.316118 C 206.710976 303.52755 205.639761 304.008387 202.99925 305.021214 C 196.500318 307.520885 192.498614 308.271127 190.250427 309.021369 C 187.998828 309.771611 189.250853 311.52104 177.501603 311.52104 C 165.748941 311.52104 162.750221 310.521854 159.250009 311.272096 C 155.749797 312.022338 147.749799 311.773394 143.751506 311.023152 C 139.749801 310.27291 139.500761 309.021369 135.000975 308.772425 C 130.50119 308.523481 130.999271 307.520885 126.001404 307.773239 C 121.000126 308.022183 117.499914 306.770643 113.501621 306.0204 C 109.499916 305.273568 105.750664 306.272754 103.499065 304.022028 C 101.250878 301.771301 98.99928 300.523171 97.999706 299.022686 C 97.000133 297.522202 97.000133 294.521233 96.751093 293.020749 C 96.498641 291.523674 98.501199 290.773432 98.501199 290.773432 C 98.501199 290.773432 96.498641 289.020594 96.498641 287.022221 C 98.501199 280.021097 97.000133 279.021911 100.500345 271.522899 C 104.000558 264.020476 105.999704 264.020476 107.50077 259.522433 C 108.125077 257.646828 109.182646 255.249463 110.461963 252.875969 C 112.246184 249.551032 114.456845 246.270427 116.500341 244.520999 C 120.000553 241.52344 122.999273 239.521658 123.998846 239.521658 C 124.998419 239.521658 127.000978 237.021987 129.501616 235.023614 C 131.998844 233.021832 139.998842 226.522006 142.0014 225.021521 C 144.000546 223.521037 154.501183 214.023652 155.998837 211.520572 C 157.499903 209.020901 173.499898 195.022063 177.999684 193.521579 C 182.499469 192.021094 191.49904 186.022567 194.999253 183.021598 C 198.499465 180.020629 201.999677 177.520958 203.500743 176.521772 C 204.998397 175.522586 206.001382 157.022294 207.000955 155.52181 C 208.000528 154.021325 209.750634 151.770599 209.750634 151.770599 L 210.999248 157.271238 C 210.999248 157.271238 212.998395 156.023108 212.998395 150.273524 C 214.001379 147.770444 216.249566 144.022643 216.498607 142.522158 C 216.751059 141.021674 217.999673 138.770947 219.248286 137.522817 C 220.500311 136.271276 221.499885 135.023146 222.001377 138.522003 C 222.499458 142.02086 223.751483 144.772885 224.249564 144.520531 C 224.751057 144.271587 238.499454 122.521382 242.750199 120.270656 C 245.748918 119.022526 245.250838 121.020898 244.998386 123.022681 C 244.749345 125.021053 245.250838 130.272749 245.250838 130.272749 C 245.250838 130.272749 252.749343 119.022526 255.751474 116.771799 C 258.750194 114.521072 260.25126 114.521072 260.25126 114.521072 L 260.749341 127.27178 C 260.749341 127.27178 262.748487 127.520724 264.751045 124.772109 C 266.750192 122.023494 272.249551 119.022526 272.751043 119.022526 C 273.249124 119.022526 273.750616 121.273252 273.750616 121.273252 L 272.249551 129.771451 C 272.249551 129.771451 275.749763 127.773078 277.250829 125.771295 C 278.748483 123.772923 280.751041 122.272438 281.999654 122.023494 C 283.248268 121.77114 283.998801 123.520569 283.998801 123.520569 L 283.248268 130.272749 C 283.248268 130.272749 286.001359 127.773078 287.000932 127.022836 C 288.000506 126.272594 292.251251 123.772923 292.998372 123.772923 C 293.748905 123.772923 292.251251 131.022991 292.251251 131.022991 C 292.251251 131.022991 297.000077 126.521538 298.501142 126.272594 L 301.499862 125.771295 L 300.99837 130.020395 C 300.99837 130.020395 304.249542 126.02365 306.248688 125.273407 C 308.251246 124.523165 310.001352 123.772923 310.001352 123.772923 L 309.7489 127.773078 C 309.7489 127.773078 316.251244 122.023494 318.00135 121.273252 C 319.751456 120.52301 322.501136 120.771954 322.501136 120.771954 C 322.501136 120.771954 327.499002 115.523669 328.249535 114.521072 C 329.000068 113.521886 330.999214 110.023029 332.74932 109.770675 C 334.499426 109.521731 339.500704 111.271159 340.749318 109.770675 C 342.001343 108.273601 343.000917 109.272787 345.249104 109.521731 C 347.500702 109.770675 348.749316 110.773271 351.249955 111.523514 C 353.750594 112.273756 360.000485 117.273097 361.249099 117.273097 C 362.501124 117.273097 363.500698 120.021712 366.748458 121.77114 C 369.99963 123.520569 373.499842 130.521693 376.249521 131.271935 C 378.999201 132.022177 382.499413 138.273059 384.498559 139.023301 C 386.501118 139.773543 389.499837 145.021829 390.499411 145.270773 C 391.498984 145.523127 392.751009 146.021015 392.751009 148.022798 L 392.751009 153.271083 C 392.751009 153.271083 392.751009 155.020512 396.998343 154.27368 C 401.249088 154.021325 403.248234 151.770599 403.248234 151.770599 C 403.248234 151.770599 410.248659 148.271742 415.498977 143.2724 C 420.749295 138.273059 422.499402 137.522817 428.749293 132.523475 C 434.999185 127.520724 438.748438 121.273252 447.249928 114.023184 C 455.751418 106.773116 467.251628 103.523203 471.00088 100.771178 C 474.750133 98.022564 474.999174 96.273135 479.249919 96.522079 C 483.500664 96.771023 486.250343 102.022719 486.250343 102.022719 C 486.250343 102.022719 486.001303 102.772961 486.748424 106.520762 C 487.498957 110.271973 486.499384 125.273407 486.499384 127.022836 C 486.499384 128.772264 482.248638 143.773699 482.248638 145.523127 C 482.248638 147.272556 475.749706 153.523437 476.74928 155.770754 C 477.748853 158.021481 474.248641 161.523748 474.999174 163.020822 C 475.749706 164.521306 474.999174 168.770406 476.74928 171.273486 C 478.499386 173.773157 485.25077 181.023225 487.249916 187.270697 C 489.249063 193.521579 486.748424 202.521075 487.751409 204.771802 C 488.750982 207.022528 489.501515 218.521696 487.000876 219.022994 C 484.500237 219.520882 482.999171 222.770795 479.498959 222.020553 C 475.998747 221.273721 472.249494 222.020553 468.998322 220.271124 C 465.750562 218.521696 457.249072 215.271783 449.501526 212.270814 C 441.750569 209.273255 437.748864 204.522858 432.498546 203.772616 C 427.248228 203.022373 428.998334 201.272945 424.498548 201.770833 C 419.998763 202.272131 408.000472 207.022528 405.250792 208.270659 C 402.501113 209.522199 398.250368 211.520572 398.250368 211.520572 C 398.250368 211.520572 399.000901 215.520727 400.498555 217.771453 C 401.999621 220.02218 406.001325 222.770795 405.250792 225.771764 C 404.50026 228.772733 404.50026 234.77126 403.248234 239.521658 C 401.999621 244.272055 401.000047 249.022452 400.751007 251.273179 C 400.498555 253.520495 401.999621 253.271551 398.499408 258.021949 C 394.999196 262.772346 391.000903 269.272172 386.248666 269.77347 C 381.49984 270.271358 382.499413 270.271358 377.999627 269.521116 C 373.499842 268.770874 371.248243 268.770874 369.501549 269.77347 C 367.751443 270.772656 364.998352 271.771843 363.248246 271.270544 C 361.501551 270.772656 358.49942 268.52193 354.999207 268.770874 C 351.498995 269.023228 353.249101 271.0216 348.500275 268.020632 C 343.751449 265.023073 343.000917 262.523402 338.999212 261.022918 C 335.000919 259.522433 337.501558 255.522278 333.748894 257.022763 C 329.999641 258.523247 328.498575 256.770408 327.000921 258.772191 C 325.499855 260.770564 317.250817 260.023731 314.750178 261.77316 C 312.249539 263.522588 291.998799 268.272986 290.501145 270.271358 C 289.000079 272.273141 294.748478 269.77347 302.001355 270.772656 C 309.250819 271.771843 316.749325 272.522085 318.250391 274.271513 C 319.751456 276.020942 324.749323 276.52224 325.250815 279.270855 C 325.748896 282.02288 323.749749 289.272948 318.748471 290.02319 C 313.750605 290.773432 310.499433 291.022376 305.750607 292.021562 C 300.99837 293.020749 301.250822 291.022376 298.501142 293.273103 C 295.751463 295.520419 285.250826 301.522357 275.749763 300.523171 C 266.248699 299.520574 263.000939 297.522202 256.000515 298.521388 C 249.00009 299.520574 243.248279 297.522202 239.751479 298.272444 C 236.251267 299.022686 236.251267 297.522202 236.251267 297.522202 C 236.251267 297.522202 233.999668 297.771146 230.001375 299.27163 C 225.99967 300.772115 227.749776 300.523171 222.001377 301.273413 C 216.249566 302.023655 209.501594 303.271786 208.000528 303.271786 C 207.649142 303.186531 207.297757 303.104686 207.154473 303.316118 Z M 207.154473 303.316118 " transform="matrix(1.14502,0,0,1.145463,-109.125672,-109.167976)"/>
<path style=" stroke:none;fill-rule:nonzero;fill:rgb(76.078431%,33.72549%,5.098039%);fill-opacity:1;" d="M 423.910156 26.234375 C 416.457031 31.632812 402.289062 42.777344 400.65625 42.777344 C 398.339844 42.777344 388.542969 48.878906 388.542969 53.449219 C 388.542969 58.019531 393.304688 49.011719 395.621094 49.011719 C 396.308594 49.011719 399.289062 47.101562 403.074219 44.433594 C 411.28125 37.164062 418.382812 31.054688 423.910156 26.234375 Z M 380.78125 57.214844 C 380.421875 57.503906 380.109375 57.777344 379.800781 58.046875 C 380.046875 58.175781 380.296875 58.292969 380.539062 58.425781 C 380.550781 58.128906 380.621094 57.746094 380.78125 57.214844 Z M 397.804688 103.105469 C 397.734375 103.84375 397.667969 104.5625 397.625 105.25 C 397.535156 106.644531 397.070312 107.871094 396.4375 109.011719 C 397.796875 107.492188 398.539062 106.121094 397.804688 103.105469 Z M 397.734375 113.085938 C 397.378906 113.078125 397.179688 113.214844 397.179688 113.527344 C 397.179688 114.769531 399.351562 117.75 402.226562 120.460938 C 411.539062 124.875 416.101562 126.832031 427.820312 132.671875 C 422.257812 128.070312 416.25 123.363281 414.925781 122.644531 C 410.550781 120.261719 400.246094 113.144531 397.734375 113.085938 Z M 397.734375 113.085938 "/>
<path style="fill:none;stroke-width:0.818605;stroke-linecap:butt;stroke-linejoin:miter;stroke:rgb(0%,0%,0%);stroke-opacity:1;stroke-miterlimit:4;" d="M 415.498977 143.2724 C 415.498977 143.2724 422.499402 137.522817 428.749293 132.523475 C 434.999185 127.520724 438.748438 121.273252 447.249928 114.023184 C 455.751418 106.773116 467.251628 103.523203 471.00088 100.771178 C 474.750133 98.022564 474.999174 96.273135 479.249919 96.522079 C 483.500664 96.771023 486.250343 102.022719 486.250343 102.022719 C 486.250343 102.022719 486.001303 102.772961 486.748424 106.520762 C 487.498957 110.271973 486.499384 125.273407 486.499384 127.022836 C 486.499384 128.772264 482.248638 143.773699 482.248638 145.523127 C 482.248638 147.272556 475.749706 153.523437 476.74928 155.770754 C 477.748853 158.021481 474.248641 161.523748 474.999174 163.020822 C 475.749706 164.521306 474.999174 168.770406 476.74928 171.273486 C 478.499386 173.773157 485.25077 181.023225 487.249916 187.270697 C 489.249063 193.521579 486.748424 202.521075 487.751409 204.771802 C 488.750982 207.022528 489.501515 218.521696 487.000876 219.022994 C 484.500237 219.520882 482.999171 222.770795 479.498959 222.020553 C 475.998747 221.273721 472.249494 222.020553 468.998322 220.271124 C 465.750562 218.521696 457.249072 215.271783 449.501526 212.270814 C 441.750569 209.273255 432.498546 203.772616 432.498546 203.772616 C 434.664857 203.585055 435.684899 198.69825 437.411124 196.045121 C 439.150996 193.36471 442.333938 190.912782 442.569332 187.192262 C 442.886603 182.186101 444.408137 175.662403 442.153127 169.721849 C 439.898117 163.767654 437.342894 156.268642 432.757821 150.089374 C 430.942896 147.644266 424.86358 144.701271 421.359956 143.548626 C 418.77403 142.699488 418.507932 143.940798 415.498977 143.2724 Z M 415.498977 143.2724 " transform="matrix(1.14502,0,0,1.145463,-109.125672,-109.167976)"/>
<path style="fill-rule:nonzero;fill:rgb(9.019608%,3.529412%,3.529412%);fill-opacity:1;stroke-width:0.818605;stroke-linecap:butt;stroke-linejoin:miter;stroke:rgb(0%,0%,0%);stroke-opacity:1;stroke-miterlimit:4;" d="M 141.448735 256.753357 C 140.449161 257.660468 139.640633 259.021135 139.091379 259.47128 C 138.548949 259.931656 137.818885 260.381802 137.549375 261.292323 C 137.269631 262.202844 137.000122 263.931811 137.818885 264.572928 C 138.64106 265.200403 138.999268 265.933594 141.728479 265.933594 C 144.450866 265.933594 146.910567 265.200403 147.640631 265.292478 C 148.36046 265.381143 150.178796 265.473218 151.731035 264.842333 C 153.269627 264.201217 156.821012 263.20203 157.271331 262.472249 C 157.728474 261.752699 159.908431 259.47128 159.908431 258.202689 C 159.908431 256.930687 160.358751 256.200906 159.731032 254.66291 C 159.089668 253.111272 158.550649 250.93216 157.179221 250.291044 C 155.821438 249.663568 155.268773 248.381336 153.358326 248.473411 C 151.45129 248.572307 150.090097 248.473411 148.640204 249.291857 C 147.180076 250.113714 146.180503 250.291044 145.818883 251.47097 C 145.450439 252.661127 144.819309 254.383274 144.358755 254.751575 C 143.908435 255.113055 142.448308 255.842836 141.448735 256.753357 Z M 141.448735 256.753357 " transform="matrix(1.14502,0,0,1.145463,-109.125672,-109.167976)"/>
<path style=" stroke:none;fill-rule:evenodd;fill:rgb(100%,100%,100%);fill-opacity:1;" d="M 51.640625 177.070312 C 51.640625 177.070312 51.050781 176.03125 52.828125 178.847656 C 54.605469 181.664062 54.160156 180.183594 54.457031 182.554688 C 54.753906 184.925781 53.863281 185.222656 55.34375 185.519531 C 56.828125 185.816406 58.011719 186.113281 58.902344 185.519531 C 59.789062 184.925781 60.828125 183.59375 59.496094 183.445312 C 58.160156 183.296875 59.640625 184.183594 58.160156 182.554688 C 56.679688 180.925781 57.125 181.664062 56.679688 179.738281 C 56.234375 177.8125 57.421875 176.921875 55.640625 176.476562 C 53.863281 176.03125 51.640625 177.070312 51.640625 177.070312 Z M 51.640625 177.070312 "/>
<path style=" stroke:none;fill-rule:evenodd;fill:rgb(96.862745%,95.686275%,95.686275%);fill-opacity:1;" d="M 168.246094 164.621094 C 170.617188 164.027344 172.097656 164.917969 175.0625 166.398438 C 178.023438 167.882812 182.171875 170.550781 185.433594 170.550781 C 188.691406 170.550781 198.46875 169.957031 201.433594 168.769531 C 204.398438 167.585938 224.546875 159.582031 227.214844 158.097656 C 229.878906 156.617188 246.769531 147.425781 247.957031 147.425781 C 249.140625 147.425781 267.808594 138.238281 270.476562 138.238281 C 273.144531 138.238281 274.921875 137.941406 274.921875 137.941406 C 274.921875 137.941406 274.328125 142.386719 271.957031 144.460938 C 269.589844 146.539062 266.328125 148.019531 263.957031 150.390625 C 261.585938 152.761719 258.921875 154.542969 256.847656 157.503906 C 254.773438 160.46875 249.734375 164.621094 248.253906 166.695312 C 246.769531 168.769531 243.808594 168.769531 241.734375 169.957031 C 239.660156 171.140625 237.289062 170.550781 236.101562 173.21875 C 234.917969 175.886719 230.472656 176.773438 220.992188 176.476562 C 211.507812 176.179688 211.210938 174.996094 207.0625 176.179688 C 202.914062 177.367188 206.472656 176.476562 200.839844 180.332031 C 195.210938 184.183594 193.730469 185.964844 191.65625 185.964844 C 189.582031 185.964844 187.800781 188.039062 188.394531 184.480469 C 188.988281 180.925781 188.394531 182.40625 184.246094 179.738281 C 180.097656 177.070312 181.578125 178.257812 176.839844 176.773438 C 172.097656 175.292969 167.949219 175.292969 167.058594 173.21875 C 166.171875 171.140625 164.097656 169.066406 164.6875 168.175781 C 165.28125 167.289062 168.246094 164.621094 168.246094 164.621094 Z M 168.246094 164.621094 "/>
<path style=" stroke:none;fill-rule:nonzero;fill:rgb(76.078431%,33.72549%,5.098039%);fill-opacity:1;" d="M 274.921875 137.941406 C 274.921875 137.941406 273.144531 138.234375 270.476562 138.234375 C 267.808594 138.234375 249.140625 147.425781 247.957031 147.425781 C 246.773438 147.425781 229.878906 156.617188 227.210938 158.097656 C 224.546875 159.578125 204.398438 167.582031 201.433594 168.769531 C 198.46875 169.957031 188.691406 170.546875 185.429688 170.546875 C 182.171875 170.546875 178.023438 167.878906 175.0625 166.398438 C 172.097656 164.917969 170.617188 164.027344 168.246094 164.621094 C 168.246094 164.621094 165.28125 167.289062 164.6875 168.175781 C 164.097656 169.066406 166.171875 171.140625 167.0625 173.214844 C 167.949219 175.292969 172.097656 175.292969 176.835938 176.773438 C 181.578125 178.253906 180.097656 177.070312 184.246094 179.738281 C 188.394531 182.40625 188.988281 180.925781 188.394531 184.480469 C 188.296875 185.070312 188.269531 185.492188 188.292969 185.804688 C 191.386719 183.179688 194.605469 180.390625 197.972656 177.378906 C 211.839844 170.890625 233.035156 168.628906 252.449219 162.3125 C 254.113281 160.679688 255.832031 158.953125 256.84375 157.503906 C 258.921875 154.542969 261.585938 152.761719 263.957031 150.390625 C 266.328125 148.019531 269.589844 146.539062 271.957031 144.460938 C 274.328125 142.386719 274.921875 137.941406 274.921875 137.941406 Z M 274.921875 137.941406 "/>
<path style="fill:none;stroke-width:0.873178;stroke-linecap:butt;stroke-linejoin:miter;stroke:rgb(0%,0%,0%);stroke-opacity:1;stroke-miterlimit:4;" d="M 242.241883 239.020359 C 244.312672 238.50201 245.605635 239.279534 248.194973 240.571997 C 250.7809 241.86787 254.403927 244.197031 257.25254 244.197031 C 260.097742 244.197031 268.636758 243.678682 271.226097 242.641983 C 273.815435 241.608695 291.412019 234.621212 293.742082 233.325339 C 296.068734 232.032876 310.820115 224.008694 311.857215 224.008694 C 312.890904 224.008694 329.194524 215.987923 331.524587 215.987923 C 333.85465 215.987923 335.406889 215.728748 335.406889 215.728748 C 335.406889 215.728748 334.888339 219.609547 332.817551 221.420359 C 330.750174 223.234581 327.90156 224.527044 325.830772 226.59703 C 323.759984 228.667017 321.433332 230.222064 319.621819 232.80699 C 317.810305 235.395325 313.409454 239.020359 312.11649 240.831171 C 310.820115 242.641983 308.234189 242.641983 306.422675 243.678682 C 304.611162 244.71197 302.540374 244.197031 301.503274 246.526192 C 300.469585 248.855353 296.587284 249.629466 288.307542 249.370292 C 280.024389 249.111117 279.765114 248.077829 276.142087 249.111117 C 272.51906 250.147816 275.626948 249.370292 270.707547 252.736151 C 265.791557 256.098601 264.498593 257.653648 262.68708 257.653648 C 260.875567 257.653648 259.319917 259.46446 259.838467 256.357775 C 260.357017 253.2545 259.838467 254.546963 256.21544 252.217802 C 252.592413 249.888641 253.885377 250.925339 249.747212 249.629466 C 245.605635 248.337004 241.982608 248.337004 241.204783 246.526192 C 240.43037 244.71197 238.618856 242.901158 239.133995 242.123634 C 239.652545 241.34952 242.241883 239.020359 242.241883 239.020359 Z M 242.241883 239.020359 " transform="matrix(1.14502,0,0,1.145463,-109.125672,-109.167976)"/>
<path style="fill:none;stroke-width:0.818605;stroke-linecap:butt;stroke-linejoin:miter;stroke:rgb(0%,0%,0%);stroke-opacity:1;stroke-miterlimit:4;" d="M 128.549804 263.382771 C 128.730615 264.753668 129.641489 269.292633 130.641062 270.291819 C 131.640635 271.291006 136.181359 272.750568 138.818458 272.842643 C 141.448735 272.931308 143.638926 272.382267 146.729757 272.573238 C 149.820587 272.750568 149.448732 274.022569 152.358753 273.200713 C 155.268773 272.382267 157.820585 272.382267 162.180499 270.47256 C 166.550647 268.573083 167.089666 268.470777 168.270049 266.202999 C 169.450433 263.931811 170.818449 262.84055 171.640624 260.661437 C 172.449152 258.472094 173.72847 257.203503 173.551071 255.662096 C 173.360026 254.110459 174.001391 250.291044 172.909707 248.572307 C 171.821434 246.84334 167.819729 241.202882 166.090092 240.841402 C 164.360455 240.473101 158.731459 239.470505 156.551502 239.57281 C 154.361311 239.661475 151.638924 239.293175 149.639777 240.022956 C 147.640631 240.752737 145.358328 241.932663 143.451293 243.572966 C 141.55108 245.203037 139.180079 250.113714 137.910996 250.843495 C 136.638501 251.573276 131.910145 258.021949 130.910571 258.383429 C 129.910998 258.75173 129.088823 260.112396 128.911425 260.381802 C 128.730615 260.661437 128.35876 262.022104 128.549804 263.382771 Z M 128.549804 263.382771 " transform="matrix(1.14502,0,0,1.145463,-109.125672,-109.167976)"/>
</g>
</svg>
