<?xml version="1.0" encoding="UTF-8"?>
<svg xmlns="http://www.w3.org/2000/svg" xmlns:xlink="http://www.w3.org/1999/xlink" width="565pt" height="311pt" viewBox="0 0 565 311" version="1.1">
<g id="surface96">
<path style="fill:none;stroke-width:0.818605;stroke-linecap:butt;stroke-linejoin:miter;stroke:rgb(0%,0%,0%);stroke-opacity:1;stroke-miterlimit:4;" d="M 415.498659 143.271419 C 415.498659 143.271419 422.499247 137.524038 428.748699 132.524771 C 434.998151 127.520044 438.748368 121.273009 447.251228 114.023936 C 455.751357 106.772133 467.250567 103.52302 471.000785 100.770829 C 474.751002 98.021369 474.99956 96.273947 479.249625 96.522409 C 483.499689 96.77087 486.250213 102.024059 486.250213 102.024059 C 486.250213 102.024059 486.001655 102.772174 486.747328 106.520941 C 487.498464 110.272439 486.49877 125.272968 486.49877 127.023121 C 486.49877 128.773274 482.248706 143.773803 482.248706 145.523956 C 482.248706 147.271378 475.750696 153.523874 476.75039 155.77095 C 477.750084 158.020757 474.248424 161.523793 474.99956 163.020023 C 475.750696 164.521714 474.99956 168.770135 476.75039 171.273864 C 478.498489 173.772132 485.250519 181.023935 487.249906 187.27097 C 489.249294 193.520735 486.747328 202.519961 487.752485 204.772498 C 488.752179 207.022304 489.500583 218.522528 487.001349 219.022181 C 484.499383 219.521835 482.999842 222.770949 479.498182 222.020103 C 475.999254 221.274718 472.249036 222.020103 468.998666 220.26995 C 465.751027 218.522528 457.248167 215.270684 449.501905 212.270032 C 441.750181 209.27211 432.498916 203.77319 432.498916 203.77319 C 434.66492 203.584796 435.683733 198.697474 437.40998 196.046307 C 439.149885 193.365106 442.334702 190.913253 442.569602 187.19179 C 442.886445 182.187063 444.407837 175.661532 442.154429 169.723026 C 439.898289 163.768138 437.341695 156.267874 432.7584 150.089097 C 430.942016 147.645436 424.864643 144.702121 421.360251 143.549915 C 418.773612 142.700777 418.508666 143.940354 415.498659 143.271419 Z M 415.498659 143.271419 " transform="matrix(-1.430125,0,0,1.430679,700.820651,-136.350364)"/>
<path style="fill-rule:nonzero;fill:rgb(99.215686%,96.078432%,96.078432%);fill-opacity:1;stroke-width:0.818605;stroke-linecap:butt;stroke-linejoin:miter;stroke:rgb(0%,0%,0%);stroke-opacity:1;stroke-miterlimit:4;" d="M 207.155367 303.316201 C 206.710148 303.526438 205.639438 304.009709 202.998171 305.019938 C 196.500161 307.520936 192.498654 308.271782 190.250709 309.022627 C 188.000032 309.770743 189.251015 311.520895 177.500516 311.520895 C 165.750016 311.520895 162.750935 310.521588 159.249275 311.272434 C 155.750347 312.023279 147.750065 311.772087 143.75129 311.023972 C 139.749783 310.273127 139.501225 309.022627 134.999872 308.771435 C 130.50125 308.522974 130.998365 307.520936 126.002628 307.772128 C 121.001427 308.02332 117.499767 306.770091 113.500992 306.019245 C 109.499485 305.27386 105.751999 306.273167 103.498591 304.023361 C 101.250646 301.770824 98.999969 300.523056 98.000275 299.021364 C 97.000581 297.522404 97.000581 294.521752 96.752024 293.02006 C 96.498003 291.52383 98.500122 290.772984 98.500122 290.772984 C 98.500122 290.772984 96.498003 289.020101 96.498003 287.021487 C 98.500122 280.020876 97.000581 279.021569 100.49951 271.524034 C 104.00117 264.021039 106.000557 264.021039 107.500098 259.521426 C 108.999639 255.021814 113.001145 247.521549 116.500074 244.520897 C 120.001733 241.522975 122.998083 239.521631 123.997777 239.521631 C 124.997471 239.521631 127.002321 237.020632 129.501556 235.024748 C 131.998059 233.020673 139.998341 226.522446 142.00046 225.020755 C 143.999847 223.521794 154.502095 214.022915 155.998905 211.521917 C 157.501177 209.020918 173.499009 195.022427 178.000363 193.520735 C 182.498985 192.021775 191.49896 186.023201 194.997889 183.022549 C 198.499548 180.021897 201.998477 177.520899 203.500749 176.521592 C 204.997558 175.522284 206.002715 157.021449 206.999677 155.522489 C 207.999371 154.020797 209.750201 151.770991 209.750201 151.770991 L 210.998453 157.269911 C 210.998453 157.269911 212.99784 156.022142 212.99784 150.274761 C 214.000265 147.771032 216.248211 144.022265 216.4995 142.523304 C 216.750789 141.021613 217.999041 138.771806 219.247292 137.524038 C 220.501006 136.270808 221.5007 135.023039 222.000547 138.523345 C 222.500394 142.02092 223.751377 144.77311 224.248493 144.519188 C 224.751071 144.270726 238.498226 122.520778 242.751022 120.270972 C 245.750104 119.023203 245.250257 121.021817 244.998968 123.023162 C 244.75041 125.021776 245.250257 130.272235 245.250257 130.272235 C 245.250257 130.272235 252.750692 119.023203 255.752505 116.770666 C 258.748855 114.52086 260.251127 114.52086 260.251127 114.52086 L 260.748242 127.271583 C 260.748242 127.271583 262.74763 127.520044 264.749749 124.773315 C 266.749136 122.023855 272.250184 119.023203 272.750031 119.023203 C 273.249878 119.023203 273.749725 121.273009 273.749725 121.273009 L 272.250184 129.772581 C 272.250184 129.772581 275.749112 127.773967 277.251384 125.772622 C 278.748194 123.774007 280.750313 122.272316 281.998564 122.023855 C 283.249547 121.769932 283.997952 123.520085 283.997952 123.520085 L 283.249547 130.272235 C 283.249547 130.272235 286.000071 127.773967 286.999765 127.023121 C 287.999458 126.272275 292.252254 123.774007 292.997927 123.774007 C 293.749064 123.774007 292.252254 131.02308 292.252254 131.02308 C 292.252254 131.02308 296.999434 126.520737 298.501706 126.272275 L 301.500788 125.772622 L 300.998209 130.021043 C 300.998209 130.021043 304.24858 126.023814 306.247968 125.272968 C 308.250087 124.522123 310.000916 123.774007 310.000916 123.774007 L 309.749627 127.773967 C 309.749627 127.773967 316.250368 122.023855 318.001198 121.273009 C 319.752028 120.522164 322.49982 120.770625 322.49982 120.770625 C 322.49982 120.770625 327.498289 115.522897 328.249426 114.52086 C 329.000562 113.521552 330.999949 110.023977 332.748048 109.770055 C 334.498878 109.521593 339.500078 111.271746 340.74833 109.770055 C 342.002044 108.273824 343.001738 109.273132 345.249683 109.521593 C 347.50036 109.770055 348.748611 110.772092 351.250577 111.522938 C 353.749812 112.273784 359.999264 117.27305 361.250247 117.27305 C 362.50123 117.27305 363.500924 120.02251 366.748563 121.769932 C 369.998933 123.520085 373.500593 130.520696 376.248385 131.271542 C 378.998909 132.022387 382.500569 138.272153 384.497225 139.022998 C 386.502075 139.773844 389.501157 145.021572 390.498119 145.270034 C 391.497813 145.523956 392.751527 146.020879 392.751527 148.022224 L 392.751527 153.269952 C 392.751527 153.269952 392.751527 155.020105 396.99886 154.27472 C 401.248925 154.020797 403.248312 151.770991 403.248312 151.770991 C 403.248312 151.770991 410.248901 148.270686 415.498659 143.271419 C 420.748417 138.272153 422.499247 137.524038 428.748699 132.524771 C 434.998151 127.520044 438.748368 121.273009 447.251228 114.023936 C 455.751357 106.772133 467.250567 103.52302 471.000785 100.770829 C 474.751002 98.021369 474.99956 96.273947 479.249625 96.522409 C 483.499689 96.77087 486.250213 102.024059 486.250213 102.024059 C 486.250213 102.024059 486.001655 102.772174 486.747328 106.520941 C 487.498464 110.272439 486.49877 125.272968 486.49877 127.023121 C 486.49877 128.773274 482.248706 143.773803 482.248706 145.523956 C 482.248706 147.271378 475.750696 153.523874 476.75039 155.77095 C 477.750084 158.020757 474.248424 161.523793 474.99956 163.020023 C 475.750696 164.521714 474.99956 168.770135 476.75039 171.273864 C 478.498489 173.772132 485.250519 181.023935 487.249906 187.27097 C 489.249294 193.520735 486.747328 202.519961 487.752485 204.772498 C 488.752179 207.022304 489.500583 218.522528 487.001349 219.022181 C 484.499383 219.521835 482.999842 222.770949 479.498182 222.020103 C 475.999254 221.274718 472.249036 222.020103 468.998666 220.26995 C 465.751027 218.522528 457.248167 215.270684 449.501905 212.270032 C 441.750181 209.27211 437.748674 204.524036 432.498916 203.77319 C 427.249158 203.022345 428.997257 201.272192 424.498634 201.771846 C 420.000012 202.271499 408.000955 207.022304 405.250431 208.270073 C 402.499908 209.523302 398.249843 211.521917 398.249843 211.521917 C 398.249843 211.521917 399.000979 215.521876 400.497789 217.771682 C 402.000061 220.021489 406.001568 222.770949 405.250431 225.771601 C 404.499295 228.772252 404.499295 234.770826 403.248312 239.521631 C 402.000061 244.272435 401.000367 249.02324 400.751809 251.273047 C 400.497789 253.520123 402.000061 253.271661 398.498401 258.022466 C 394.999473 262.77327 391.000698 269.271498 386.248055 269.773882 C 381.500875 270.270805 382.500569 270.270805 377.999215 269.519959 C 373.500593 268.771844 371.247185 268.771844 369.501818 269.773882 C 367.750988 270.773189 364.997733 271.772496 363.246903 271.270112 C 361.501536 270.773189 358.499723 268.520652 354.998063 268.771844 C 351.499135 269.023036 353.249965 271.02165 348.500054 268.020998 C 343.750142 265.023077 343.001738 262.522078 339.000231 261.023118 C 335.001456 259.521426 337.50069 255.521467 333.747741 257.023158 C 330.000255 258.522119 328.497983 256.769236 327.001174 258.773311 C 325.498902 260.769195 317.250062 260.02381 314.750828 261.773963 C 312.248862 263.521386 291.998234 268.27219 290.501424 270.270805 C 288.999152 272.27215 294.748757 269.773882 302.000635 270.773189 C 309.24978 271.772496 316.750215 272.523341 318.249756 274.270764 C 319.752028 276.020917 324.750497 276.523301 325.250344 279.27003 C 325.750191 282.022221 323.750803 289.274024 318.749603 290.022139 C 313.751134 290.772984 310.500763 291.021446 305.750852 292.020753 C 300.998209 293.02006 301.249498 291.021446 298.501706 293.273983 C 295.751183 295.521059 285.251666 301.522363 275.749112 300.523056 C 266.24929 299.521018 263.00165 297.522404 256.001062 298.521711 C 249.000474 299.521018 243.248138 297.522404 239.751941 298.273249 C 236.250281 299.021364 236.250281 297.522404 236.250281 297.522404 C 236.250281 297.522404 233.999604 297.770865 230.000829 299.272556 C 225.999322 300.771517 227.750152 300.523056 222.000547 301.273901 C 216.248211 302.024747 209.501643 303.272515 207.999371 303.272515 C 207.649751 303.185144 207.2974 303.105964 207.155367 303.316201 Z M 207.155367 303.316201 " transform="matrix(-1.430125,0,0,1.430679,700.820651,-136.350364)"/>
<path style="fill-rule:nonzero;fill:rgb(96.078432%,95.294118%,95.294118%);fill-opacity:1;stroke-width:0.818605;stroke-linecap:butt;stroke-linejoin:miter;stroke:rgb(0%,0%,0%);stroke-opacity:1;stroke-miterlimit:4;" d="M 415.498659 143.271419 C 415.498659 143.271419 422.499247 137.524038 428.748699 132.524771 C 434.998151 127.520044 438.748368 121.273009 447.251228 114.023936 C 455.751357 106.772133 467.250567 103.52302 471.000785 100.770829 C 474.751002 98.021369 474.99956 96.273947 479.249625 96.522409 C 483.499689 96.77087 486.250213 102.024059 486.250213 102.024059 C 486.250213 102.024059 486.001655 102.772174 486.747328 106.520941 C 487.498464 110.272439 486.49877 125.272968 486.49877 127.023121 C 486.49877 128.773274 482.248706 143.773803 482.248706 145.523956 C 482.248706 147.271378 475.750696 153.523874 476.75039 155.77095 C 477.750084 158.020757 474.248424 161.523793 474.99956 163.020023 C 475.750696 164.521714 474.99956 168.770135 476.75039 171.273864 C 478.498489 173.772132 485.250519 181.023935 487.249906 187.27097 C 489.249294 193.520735 486.747328 202.519961 487.752485 204.772498 C 488.752179 207.022304 489.500583 218.522528 487.001349 219.022181 C 484.499383 219.521835 482.999842 222.770949 479.498182 222.020103 C 475.999254 221.274718 472.249036 222.020103 468.998666 220.26995 C 465.751027 218.522528 457.248167 215.270684 449.501905 212.270032 C 441.750181 209.27211 432.498916 203.77319 432.498916 203.77319 C 434.66492 203.584796 435.683733 198.697474 437.40998 196.046307 C 439.149885 193.365106 442.334702 190.913253 442.569602 187.19179 C 442.886445 182.187063 444.407837 175.661532 442.154429 169.723026 C 439.898289 163.768138 437.341695 156.267874 432.7584 150.089097 C 430.942016 147.645436 424.864643 144.702121 421.360251 143.549915 C 418.773612 142.700777 418.508666 143.940354 415.498659 143.271419 Z M 415.498659 143.271419 " transform="matrix(-1.430125,0,0,1.430679,700.820651,-136.350364)"/>
<path style=" stroke:none;fill-rule:nonzero;fill:rgb(96.078432%,52.941179%,23.921569%);fill-opacity:1;" d="M 29.503906 29.609375 C 33.699219 35.621094 67.5 61.214844 70.394531 61.214844 C 73.292969 61.214844 79.230469 72.464844 79.230469 66.757812 C 79.230469 61.050781 67 53.429688 64.105469 53.429688 C 61.207031 53.429688 26.234375 24.929688 29.503906 29.609375 Z M 17.519531 177.148438 C 16.09375 179.949219 43.058594 157.074219 50.175781 157.074219 C 57.289062 157.074219 68.449219 144.941406 68.449219 141.800781 C 68.449219 138.652344 52.527344 149.78125 46.277344 153.183594 C 43.144531 154.886719 18.839844 174.566406 17.519531 177.148438 Z M 88.929688 71.464844 C 97.867188 78.617188 93.164062 80.960938 100.671875 88.113281 C 108.179688 95.265625 110.140625 104.085938 110.140625 104.085938 C 110.140625 104.085938 126.984375 84.003906 133.058594 84.359375 C 139.136719 85.433594 139.140625 82.9375 139.140625 82.9375 C 175.554688 84.171875 173.828125 126.226562 227.34375 119.761719 C 235.578125 122.503906 250.410156 132.394531 259.027344 130.105469 C 280.957031 124.28125 297.089844 96.996094 316.269531 96.308594 C 327.3125 95.914062 346.945312 97.75 358.601562 105.148438 C 368.550781 111.476562 370.734375 123.234375 378.199219 126.011719 C 392.445312 131.316406 398.050781 118.460938 409.789062 116.195312 C 411.9375 117.625 416.941406 121.203125 421.949219 125.496094 C 426.953125 129.789062 446.257812 140.515625 446.257812 140.515625 C 434.007812 140.113281 439.558594 151.222656 436.515625 156.6875 C 431.417969 165.824219 425.902344 172.113281 445.59375 177.015625 C 455.835938 179.566406 457.226562 165.78125 477.722656 166.269531 C 477.722656 166.269531 494.882812 183.4375 497.746094 185.582031 C 488.773438 190.296875 428.640625 197.589844 509.640625 221.957031 C 512.964844 224.804688 541.167969 222.007812 543.867188 227.390625 C 545.230469 230.121094 546.359375 232.777344 547.082031 234.941406 C 549.226562 241.382812 543.546875 236.902344 533.128906 242.523438 C 516.5625 251.457031 452.699219 236.410156 455.5625 246.429688 C 458.28125 256.582031 485.828125 268.457031 478.207031 272.691406 C 469.308594 284.554688 562.816406 280.726562 562.453125 282.867188 C 562.097656 285.015625 562.097656 289.308594 560.667969 291.457031 C 559.238281 293.601562 556.019531 295.386719 552.804688 298.609375 C 549.582031 301.828125 544.222656 300.398438 538.503906 301.464844 C 532.78125 302.539062 527.773438 304.332031 520.621094 303.96875 C 513.476562 303.613281 514.191406 305.046875 507.753906 305.402344 C 482.480469 307.066406 463.019531 308.179688 437.652344 288.152344 C 420.847656 288.152344 415.015625 277.179688 411.792969 276.105469 C 402.871094 278.335938 378.417969 276.203125 317.257812 221.546875 C 294.085938 210.703125 254.539062 209.320312 225.855469 192.605469 C 213.742188 185.542969 215.910156 177.328125 201.800781 168.523438 C 196.113281 164.976562 188.652344 141.554688 182.972656 139.214844 C 171.917969 134.652344 146.792969 149.492188 137.664062 143.054688 C 131.210938 138.5 119.953125 122.96875 104.144531 124.304688 C 92.984375 125.25 75.726562 143.746094 73.09375 140.332031 C 68.554688 134.460938 64.777344 134.722656 69.398438 123.792969 C 70.890625 120.265625 79.933594 105.644531 81.898438 101.375 C 84.222656 96.328125 80.808594 88.640625 81.945312 83.082031 C 84.636719 69.953125 90.691406 77.257812 88.925781 71.464844 Z M 453.164062 192.535156 C 450.109375 192.421875 444.671875 194.21875 440.804688 194.21875 C 435.179688 194.222656 430.917969 192.214844 430.917969 196.019531 C 430.917969 199.824219 437.097656 211.933594 440.804688 207.699219 C 447.75 199.769531 455.578125 197.464844 455.480469 194.21875 C 455.445312 193.035156 454.554688 192.585938 453.164062 192.535156 Z M 453.164062 192.535156 "/>
<path style=" stroke:none;fill-rule:nonzero;fill:rgb(89.019608%,85.09804%,85.09804%);fill-opacity:1;" d="M 71.070312 53.078125 C 61.234375 48.476562 41.449219 31.519531 32.507812 24.363281 C 29.742188 20.699219 17.53125 14.003906 18.054688 15.910156 C 19.308594 20.519531 42.214844 38.058594 76.222656 69.082031 C 78.375 71.042969 10.542969 28.121094 13.511719 34.382812 C 14.804688 37.109375 68.335938 73.398438 68.886719 75.773438 C 69.519531 78.527344 12.003906 44.890625 13.34375 48.175781 C 14.605469 51.253906 63.0625 79.84375 63.898438 82.78125 C 64.515625 84.921875 18.589844 63.796875 19.390625 66.039062 C 20.785156 69.949219 60.125 86.429688 61.082031 90.230469 C 46.078125 90.882812 21.941406 78.390625 24.308594 83.898438 C 25.269531 86.878906 59.46875 94.304688 60.261719 97.265625 C 60.820312 99.355469 26.988281 96.632812 27.597656 98.710938 C 28.125 100.5 58.601562 103.023438 59.074219 104.792969 C 59.523438 106.488281 26.679688 107.058594 27.15625 108.726562 C 27.839844 111.105469 57.359375 110.882812 57.957031 113.21875 C 58.417969 114.996094 24.46875 115.648438 24.960938 117.394531 C 25.644531 119.832031 58.125 117.796875 58.734375 120.164062 C 59.214844 122.035156 10.503906 131.28125 11.050781 133.082031 C 12.117188 136.570312 59.742188 127.367188 60.640625 130.621094 C 60.640625 130.621094 8.324219 146.6875 9.34375 149.289062 C 10.554688 152.378906 62.441406 136.769531 63.574219 139.453125 C 65.992188 145.15625 2.152344 168.84375 14.460938 172.140625 C 19.316406 173.441406 22.660156 169.027344 28.371094 166.605469 C 49.371094 156.089844 52.058594 155.496094 75.269531 144.128906 C 72.78125 140.292969 68.226562 136.785156 67.890625 131.460938 C 67.4375 124.300781 65.261719 114.964844 68.484375 106.46875 C 71.710938 97.949219 75.367188 87.21875 81.921875 78.378906 C 84.519531 74.882812 93.210938 70.671875 98.222656 69.023438 C 101.921875 67.808594 79.253906 56.898438 71.070312 53.078125 Z M 71.070312 53.078125 "/>
<path style="fill:none;stroke-width:0.818605;stroke-linecap:butt;stroke-linejoin:miter;stroke:rgb(0%,0%,0%);stroke-opacity:1;stroke-miterlimit:4;" d="M 203.500749 176.521592 C 204.997558 175.522284 206.002715 157.021449 206.999677 155.522489 C 207.999371 154.020797 209.750201 151.770991 209.750201 151.770991 L 210.998453 157.269911 C 210.998453 157.269911 212.99784 156.022142 212.99784 150.274761 C 214.000265 147.771032 216.248211 144.022265 216.4995 142.523304 C 216.750789 141.021613 217.999041 138.771806 219.247292 137.524038 C 220.501006 136.270808 221.5007 135.023039 222.000547 138.523345 C 222.500394 142.02092 223.751377 144.77311 224.248493 144.519188 C 224.751071 144.270726 238.498226 122.520778 242.751022 120.270972 C 245.750104 119.023203 245.250257 121.021817 244.998968 123.023162 C 244.75041 125.021776 245.250257 130.272235 245.250257 130.272235 C 245.250257 130.272235 252.750692 119.023203 255.752505 116.770666 C 258.748855 114.52086 260.251127 114.52086 260.251127 114.52086 L 260.748242 127.271583 C 260.748242 127.271583 262.74763 127.520044 264.749749 124.773315 C 266.749136 122.023855 272.250184 119.023203 272.750031 119.023203 C 273.249878 119.023203 273.749725 121.273009 273.749725 121.273009 L 272.250184 129.772581 C 272.250184 129.772581 275.749112 127.773967 277.251384 125.772622 C 278.748194 123.774007 280.750313 122.272316 281.998564 122.023855 C 283.249547 121.769932 283.997952 123.520085 283.997952 123.520085 L 283.249547 130.272235 C 283.249547 130.272235 286.000071 127.773967 286.999765 127.023121 C 287.999458 126.272275 292.252254 123.774007 292.997927 123.774007 C 293.749064 123.774007 292.252254 131.02308 292.252254 131.02308 C 292.252254 131.02308 296.999434 126.520737 298.501706 126.272275 L 301.500788 125.772622 L 300.998209 130.021043 C 300.998209 130.021043 304.24858 126.023814 306.247968 125.272968 C 308.250087 124.522123 310.000916 123.774007 310.000916 123.774007 L 309.749627 127.773967 C 309.749627 127.773967 316.250368 122.023855 318.001198 121.273009 C 319.752028 120.522164 322.49982 120.770625 322.49982 120.770625 C 322.49982 120.770625 327.498289 115.522897 328.249426 114.52086 C 329.000562 113.521552 330.999949 110.023977 332.748048 109.770055 C 334.498878 109.521593 339.500078 111.271746 340.74833 109.770055 C 342.002044 108.273824 343.001738 109.273132 345.249683 109.521593 C 347.50036 109.770055 348.748611 110.772092 351.250577 111.522938 C 353.749812 112.273784 359.999264 117.27305 361.250247 117.27305 C 362.50123 117.27305 363.500924 120.02251 366.748563 121.769932 C 369.998933 123.520085 373.500593 130.520696 376.248385 131.271542 C 378.998909 132.022387 382.500569 138.272153 384.497225 139.022998 C 386.502075 139.773844 389.501157 145.021572 390.498119 145.270034 C 391.497813 145.523956 392.751527 146.020879 392.751527 148.022224 L 392.751527 153.269952 C 372.123966 156.31702 339.292491 151.279529 311.795449 156.104053 C 297.622194 158.591399 282.279899 159.967494 267.72971 161.769524 C 246.700632 164.371545 224.838476 170.77148 203.500749 176.521592 Z M 203.500749 176.521592 " transform="matrix(-1.430125,0,0,1.430679,700.820651,-136.350364)"/>
<path style="fill-rule:nonzero;fill:rgb(96.078432%,95.294118%,95.294118%);fill-opacity:1;stroke-width:0.818605;stroke-linecap:butt;stroke-linejoin:miter;stroke:rgb(0%,0%,0%);stroke-opacity:1;stroke-miterlimit:4;" d="M 398.249843 211.521917 C 398.249843 211.521917 399.000979 215.521876 400.497789 217.771682 C 402.000061 220.021489 406.001568 222.770949 405.250431 225.771601 C 404.499295 228.772252 404.499295 234.770826 403.248312 239.521631 C 402.000061 244.272435 401.000367 249.02324 400.751809 251.273047 C 400.497789 253.520123 402.000061 253.271661 398.498401 258.022466 C 394.999473 262.77327 391.000698 269.271498 386.248055 269.773882 C 381.500875 270.270805 382.500569 270.270805 377.999215 269.519959 C 373.500593 268.771844 371.247185 268.771844 369.501818 269.773882 C 367.750988 270.773189 364.997733 271.772496 363.246903 271.270112 C 361.501536 270.773189 358.499723 268.520652 354.998063 268.771844 C 351.499135 269.023036 353.249965 271.02165 348.500054 268.020998 C 343.750142 265.023077 343.001738 262.522078 339.000231 261.023118 C 335.001456 259.521426 337.50069 255.521467 333.747741 257.023158 C 344.717059 249.989783 355.04996 242.369383 365.721555 233.539439 C 375.508175 225.443959 386.521195 218.609899 398.249843 211.521917 Z M 398.249843 211.521917 " transform="matrix(-1.430125,0,0,1.430679,700.820651,-136.350364)"/>
<path style="fill-rule:nonzero;fill:rgb(96.078432%,95.294118%,95.294118%);fill-opacity:1;stroke-width:0.818605;stroke-linecap:butt;stroke-linejoin:miter;stroke:rgb(0%,0%,0%);stroke-opacity:1;stroke-miterlimit:4;" d="M 290.501424 270.270805 C 288.999152 272.27215 294.748757 269.773882 302.000635 270.773189 C 309.24978 271.772496 316.750215 272.523341 318.249756 274.270764 C 319.752028 276.020917 324.750497 276.523301 325.250344 279.27003 C 325.750191 282.022221 323.750803 289.274024 318.749603 290.022139 C 313.751134 290.772984 310.500763 291.021446 305.750852 292.020753 C 300.998209 293.02006 301.249498 291.021446 298.501706 293.273983 C 295.751183 295.521059 285.251666 301.522363 275.749112 300.523056 C 266.24929 299.521018 263.00165 297.522404 256.001062 298.521711 C 249.000474 299.521018 243.248138 297.522404 239.751941 298.273249 C 236.250281 299.021364 236.250281 297.522404 236.250281 297.522404 C 250.43173 293.306747 263.028964 287.433769 274.610117 279.58129 C 279.638631 276.171086 285.655914 273.702852 290.501424 270.270805 Z M 290.501424 270.270805 " transform="matrix(-1.430125,0,0,1.430679,700.820651,-136.350364)"/>
<path style=" stroke:none;fill-rule:nonzero;fill:rgb(92.156863%,80.000001%,77.254903%);fill-opacity:1;" d="M 558.90625 279.140625 C 558.90625 279.140625 562.816406 275.050781 562.816406 274.285156 C 561.816406 270.792969 562.855469 267.523438 561.132812 266.183594 C 555.609375 261.878906 542.792969 268.886719 535.636719 271.746094 C 523.824219 276.460938 518.6875 275.15625 508.875 277.878906 C 482.597656 285.167969 478.910156 280.117188 468.617188 280.78125 C 463.882812 281.085938 474.472656 297.222656 470.96875 305.917969 C 470.589844 306.867188 473.320312 307.960938 473.074219 308.980469 C 478.078125 310.054688 489.519531 309.699219 495.238281 308.625 C 500.960938 307.550781 501.316406 305.761719 507.753906 305.402344 C 514.1875 305.046875 513.476562 303.613281 520.621094 303.972656 C 527.773438 304.332031 532.78125 302.539062 538.5 301.464844 C 544.222656 300.398438 549.582031 301.828125 552.804688 298.609375 C 556.019531 295.386719 559.238281 293.601562 560.667969 291.457031 C 562.097656 289.308594 562.097656 285.015625 562.453125 282.867188 C 562.539062 282.390625 559.808594 279.902344 559.808594 279.902344 Z M 558.90625 279.140625 "/>
<path style=" stroke:none;fill-rule:nonzero;fill:rgb(76.078433%,32.941177%,4.705882%);fill-opacity:1;" d="M 498.578125 280.347656 C 523.78125 282.585938 546.589844 283.605469 546.359375 284.992188 C 553.058594 286.324219 556.589844 292.371094 557.40625 294.625 C 556.710938 295.1875 555.964844 295.777344 555.191406 296.429688 C 554.800781 296.761719 554.40625 297.101562 554.007812 297.460938 C 553.609375 297.828125 553.203125 298.203125 552.804688 298.609375 C 552.398438 299.007812 551.964844 299.339844 551.5 299.609375 C 551.265625 299.746094 551.027344 299.867188 550.777344 299.972656 C 550.777344 299.980469 550.777344 299.972656 550.773438 299.972656 C 550.53125 300.085938 550.277344 300.179688 550.011719 300.261719 C 549.753906 300.34375 549.488281 300.417969 549.214844 300.480469 C 546.199219 301.179688 542.4375 300.730469 538.5 301.464844 C 535.640625 302.003906 532.960938 302.71875 530.097656 303.257812 C 529.386719 303.390625 528.660156 303.515625 527.910156 303.617188 C 526.429688 303.832031 524.878906 303.980469 523.207031 304.007812 C 522.378906 304.027344 521.519531 304.019531 520.621094 303.972656 C 515.261719 303.707031 514.324219 304.441406 511.476562 304.980469 C 510.523438 305.160156 504.492188 304.675781 502.882812 304.769531 C 489.730469 305.632812 483.019531 306.980469 471.359375 304.648438 C 473.507812 295.742188 464.101562 281.074219 468.613281 280.78125 C 477.371094 280.214844 481.402344 283.761719 498.574219 280.351562 Z M 498.578125 280.347656 "/>
<path style="fill:none;stroke-width:0.818605;stroke-linecap:butt;stroke-linejoin:miter;stroke:rgb(0%,0%,0%);stroke-opacity:1;stroke-miterlimit:4;" d="M 11.966971 205.12018 C 30.66343 210.346065 22.769673 211.855947 28.844315 213.387672 C 35.872217 215.156937 51.405711 215.405399 50.56717 214.212237 " transform="matrix(-1.430125,0,0,1.430679,574.969738,-14.711066)"/>
<path style="fill:none;stroke-width:0.818605;stroke-linecap:butt;stroke-linejoin:miter;stroke:rgb(0%,0%,0%);stroke-opacity:1;stroke-miterlimit:4;" d="M 57.955618 213.742617 C 59.138315 213.758999 60.755307 217.77261 60.069724 218.294106 C 60.069724 218.294106 59.119196 219.97054 56.013589 223.287912 " transform="matrix(-1.430125,0,0,1.430679,574.969738,-14.711066)"/>
<path style="fill:none;stroke-width:0.818605;stroke-linecap:butt;stroke-linejoin:miter;stroke:rgb(0%,0%,0%);stroke-opacity:1;stroke-miterlimit:4;" d="M 11.232223 205.393214 C 11.232223 205.393214 8.498088 202.53454 8.498088 201.999392 C 9.197327 199.558462 8.470774 197.273161 9.675323 196.336651 C 13.537528 193.327808 22.499264 198.226052 27.503196 200.224666 C 35.762961 203.520196 39.354757 202.60826 46.216044 204.511312 C 64.590198 209.606141 67.168643 206.075801 74.365892 206.53996 C 77.676353 206.752927 70.271518 218.031993 72.721587 224.109747 C 72.986533 224.773221 71.077282 225.537718 71.24936 226.250339 C 67.750432 227.001185 59.75015 226.749993 55.751375 226.001878 C 51.749868 225.251032 51.50131 224.000533 46.999957 223.749341 C 42.501335 223.500879 42.99845 222.498842 38.002712 222.750034 C 33.001512 223.001226 29.499852 221.747996 25.501077 220.99715 C 21.49957 220.251766 17.752084 221.251073 15.498676 219.001266 C 13.250731 216.74873 11.000054 215.500961 10.00036 213.99927 C 9.000666 212.500309 9.000666 209.499657 8.752109 207.997966 C 8.692018 207.664863 10.601269 205.925632 10.601269 205.925632 Z M 11.232223 205.393214 " transform="matrix(-1.430125,0,0,1.430679,574.969738,-14.711066)"/>
<path style=" stroke:none;fill-rule:nonzero;fill:rgb(96.078432%,58.039218%,23.921569%);fill-opacity:1;" d="M 362.019531 246.046875 C 355.023438 263.5625 403.265625 274.535156 423.726562 276.003906 C 433.382812 276.695312 444.414062 277.707031 441.898438 261.40625 C 438.9375 242.25 421.148438 203.753906 417.738281 180.144531 C 415.042969 161.476562 423.875 159.773438 403.359375 159.773438 C 388.859375 159.773438 372.792969 161.675781 364.460938 191.707031 C 361.582031 202.070312 384.921875 188.6875 362.019531 246.046875 Z M 362.019531 246.046875 "/>
<path style="fill:none;stroke-width:0.818605;stroke-linecap:butt;stroke-linejoin:miter;stroke:rgb(0%,0%,0%);stroke-opacity:1;stroke-miterlimit:4;" d="M 135.177413 274.47281 C 136.089702 275.201812 138.818374 277.571754 140.091209 277.842058 C 141.361311 278.112363 142.819881 279.201772 144.999541 279.201772 C 147.179202 279.201772 151.358249 278.472769 154.818938 278.112363 C 158.271433 277.751957 160.358225 277.113056 161.819526 276.113748 C 163.269902 275.111711 168.271102 273.200468 169.270796 272.020958 C 170.27049 270.841447 173.179435 268.572529 173.550906 266.664016 C 173.90872 264.752772 174.638004 263.472239 174.730872 262.931631 " transform="matrix(-1.430125,0,0,1.430679,700.820651,-136.350364)"/>
<path style="fill-rule:nonzero;fill:rgb(89.019608%,85.09804%,85.09804%);fill-opacity:1;stroke-width:0.818605;stroke-linecap:butt;stroke-linejoin:miter;stroke:rgb(0%,0%,0%);stroke-opacity:1;stroke-miterlimit:4;" d="M 128.551027 263.382138 C 128.7313 264.752772 129.640857 269.29334 130.640551 270.292648 C 131.640245 271.291955 136.18257 272.74996 138.818374 272.842792 C 141.448716 272.930163 143.639302 272.381363 146.72852 272.572488 C 149.820469 272.74996 149.448998 274.022302 152.357943 273.200468 C 155.26962 272.381363 157.820751 272.381363 162.180071 270.47285 C 166.550318 268.572529 167.088404 268.471506 168.271102 266.202587 C 169.451069 263.930938 170.819502 262.841529 171.641654 260.662712 C 172.45015 258.472973 173.728447 257.203361 173.550906 255.663445 C 173.359707 254.109878 174.001587 250.290121 172.909026 248.572733 C 171.821927 246.844423 167.82042 241.203525 166.091442 240.840389 C 164.359732 240.471792 158.730308 239.469754 156.550648 239.573507 C 154.360062 239.660878 151.639584 239.292282 149.640196 240.024015 C 147.640809 240.753017 145.357355 241.932528 143.450835 243.573466 C 141.549778 245.203484 139.17892 250.112649 137.911548 250.844382 C 136.638714 251.573385 131.910654 258.022466 130.91096 258.382872 C 129.911266 258.751468 129.089114 260.111182 128.911573 260.381486 C 128.7313 260.662712 128.359829 262.022425 128.551027 263.382138 Z M 128.551027 263.382138 " transform="matrix(-1.430125,0,0,1.430679,700.820651,-136.350364)"/>
<path style="fill:none;stroke-width:0.873178;stroke-linecap:butt;stroke-linejoin:miter;stroke:rgb(0%,0%,0%);stroke-opacity:1;stroke-miterlimit:4;" d="M 222.055175 215.988765 C 224.125579 209.774494 226.198715 202.530882 236.029037 196.835377 C 245.864823 191.142603 258.803483 187.519431 262.428056 185.449828 C 266.049897 183.380225 271.225907 180.791855 280.023759 178.722252 C 288.821611 176.652648 310.563586 173.026747 325.57265 173.545513 C 340.581714 174.064279 357.663914 171.991945 368.53217 173.545513 C 379.400425 175.09635 394.931188 176.133882 401.139669 175.615116 C 407.353612 175.09635 423.914114 172.507981 428.057654 169.922342 " transform="matrix(-1.430125,0,0,1.430679,700.820651,-136.350364)"/>
<path style="fill-rule:nonzero;fill:rgb(89.019608%,85.09804%,85.09804%);fill-opacity:1;stroke-width:0.818605;stroke-linecap:butt;stroke-linejoin:miter;stroke:rgb(0%,0%,0%);stroke-opacity:1;stroke-miterlimit:4;" d="M 203.500749 176.521592 C 204.997558 175.522284 206.516219 167.63158 207.515913 166.129889 C 208.518338 164.633658 208.914391 156.123165 210.009684 158.241915 C 210.009684 158.241915 207.832755 171.601505 211.517419 171.24656 C 211.517419 171.24656 213.781753 166.839779 214.55474 161.141544 C 215.237591 156.076749 217.723169 145.690507 218.07552 146.692545 C 219.102528 149.63859 215.912248 159.547021 216.226359 167.175612 C 216.376587 168.25956 217.116797 167.028173 217.351698 166.951723 C 218.070057 166.727835 219.179007 161.876007 220.714056 157.660351 C 222.046981 153.996224 222.885522 146.946467 225.21541 145.518495 C 226.310702 145.518495 221.904948 164.890311 223.513745 167.279365 C 224.10646 168.166728 229.968052 156.232379 237.345574 143.885747 C 241.262407 137.335644 245.534323 132.66948 245.534323 132.66948 C 248.011706 130.689978 243.996542 137.021654 241.098523 143.216812 C 237.495801 150.921853 234.625096 159.213919 236.42236 160.398889 C 236.42236 160.398889 259.385272 132.696783 261.387391 129.950054 C 263.867505 128.827881 245.673624 155.705422 245.95769 161.045982 C 246.856322 163.126507 271.829548 130.703629 273.831667 131.752083 C 273.831667 131.752083 257.623516 157.466496 260.417742 158.973648 C 262.701196 160.254181 280.422544 133.352067 281.924816 133.103605 C 284.615249 131.432632 268.868706 154.815329 271.7558 156.677426 C 273.853518 157.758643 289.397937 134.296767 291.397325 133.545921 C 291.574866 135.066725 288.182462 140.420936 286.041042 146.50142 C 284.394005 151.181236 283.640138 157.108821 284.907509 157.015989 C 285.893546 156.000299 299.65709 131.282463 300.400032 133.69336 C 300.531139 134.113834 290.621606 156.303368 292.997927 155.708152 C 296.731757 152.581904 303.216109 140.461892 309.56116 131.541846 C 311.850077 128.322766 302.025217 147.235884 306.766934 153.474728 L 311.795449 156.104053 C 307.55631 156.849438 303.207915 157.4938 298.810355 158.078094 C 297.739645 158.222802 296.663471 158.36205 295.581836 158.498567 C 286.308719 159.675347 276.860794 160.63916 267.72971 161.769524 C 248.792888 164.112162 229.178677 169.537363 209.881308 174.793282 C 207.748082 175.372115 205.62305 175.948219 203.500749 176.521592 Z M 203.500749 176.521592 " transform="matrix(-1.430125,0,0,1.430679,700.820651,-136.350364)"/>
<path style=" stroke:none;fill-rule:nonzero;fill:rgb(76.078433%,32.941177%,4.705882%);fill-opacity:1;" d="M 472.449219 206.726562 C 477.210938 210.246094 486.140625 214.359375 500.878906 219.195312 C 501.933594 220.789062 502.882812 222.117188 503.59375 222.519531 C 505.410156 223.570312 512.171875 232.796875 513.601562 233.308594 C 515.03125 233.839844 516.207031 235.785156 516.464844 236.171875 C 516.71875 236.574219 517.25 238.519531 516.976562 240.464844 C 516.71875 242.425781 515.421875 248.921875 513.992188 250.351562 C 513.929688 250.410156 516.035156 245.496094 515.964844 245.558594 C 494.675781 242.355469 469.480469 243.578125 460.007812 244.203125 C 458.359375 241.164062 456.488281 239.59375 455.351562 236.574219 C 454.195312 233.441406 452.367188 231.625 452.625 229.421875 C 452.894531 227.199219 451.976562 221.734375 453.539062 219.277344 C 455.097656 216.804688 460.816406 208.734375 463.292969 208.214844 C 464.929688 207.863281 468.96875 207.152344 472.449219 206.726562 Z M 472.449219 206.726562 "/>
<path style="fill:none;stroke-width:0.818605;stroke-linecap:butt;stroke-linejoin:miter;stroke:rgb(0%,0%,0%);stroke-opacity:1;stroke-miterlimit:4;" d="M 207.390268 302.892997 C 208.351722 302.374231 209.160218 301.754442 209.930474 301.071855 C 211.582973 299.600198 213.350191 296.015252 215.966876 294.650078 C 220.973539 292.042596 225.982934 286.235147 228.296433 280.468653 C 231.912812 271.458506 229.927081 258.339186 230.186565 251.947442 C 231.194453 249.094229 233.69915 245.585733 232.658485 245.446485 C 231.615089 245.304507 229.891573 244.340694 229.309784 243.423297 C 232.027531 238.552357 235.1386 237.383769 233.890348 237.359195 C 232.191415 237.320971 229.678523 236.357158 226.829669 235.559896 C 230.954089 230.396809 233.904005 225.195497 233.17472 225.318363 C 232.175027 225.116317 224.234836 226.986605 222.281882 226.200265 C 220.271569 224.338168 221.306771 222.15116 218.220284 220.471996 M 202.894377 297.645269 C 207.554152 293.896502 210.730775 290.439882 210.820911 284.310252 C 210.900122 279.253648 208.373573 269.388902 205.281624 264.176669 C 200.400606 255.944671 198.234602 249.72494 194.577253 241.850617 M 207.155367 303.316201 C 206.710148 303.526438 205.639438 304.009709 202.998171 305.019938 C 196.500161 307.520936 192.498654 308.271782 190.250709 309.022627 C 188.000032 309.770743 189.251015 311.520895 177.500516 311.520895 C 165.750016 311.520895 162.750935 310.521588 159.249275 311.272434 C 155.750347 312.023279 147.750065 311.772087 143.75129 311.023972 C 139.749783 310.273127 139.501225 309.022627 134.999872 308.771435 C 130.50125 308.522974 130.998365 307.520936 126.002628 307.772128 C 121.001427 308.02332 117.499767 306.770091 113.500992 306.019245 C 109.499485 305.27386 105.751999 306.273167 103.498591 304.023361 C 101.250646 301.770824 98.999969 300.523056 98.000275 299.021364 C 97.000581 297.522404 97.000581 294.521752 96.752024 293.02006 C 96.498003 291.52383 98.500122 290.772984 98.500122 290.772984 C 98.500122 290.772984 96.498003 289.020101 96.498003 287.021487 C 98.500122 280.020876 97.000581 279.021569 100.49951 271.524034 C 104.00117 264.021039 106.000557 264.021039 107.500098 259.521426 C 108.125589 257.645678 109.182643 255.248433 110.46094 252.875761 C 112.247278 249.550197 114.456983 246.27105 116.500074 244.520897 C 120.001733 241.522975 122.998083 239.521631 123.997777 239.521631 C 124.997471 239.521631 127.002321 237.020632 129.501556 235.024748 C 131.998059 233.020673 139.998341 226.522446 142.00046 225.020755 C 143.999847 223.521794 154.502095 214.022915 155.998905 211.521917 C 157.501177 209.020918 173.499009 195.022427 178.000363 193.520735 C 182.498985 192.021775 191.49896 186.023201 194.997889 183.022549 C 198.499548 180.021897 201.998477 177.520899 203.500749 176.521592 C 204.997558 175.522284 206.002715 157.021449 206.999677 155.522489 C 207.999371 154.020797 209.750201 151.770991 209.750201 151.770991 L 210.998453 157.269911 C 210.998453 157.269911 212.99784 156.022142 212.99784 150.274761 C 214.000265 147.771032 216.248211 144.022265 216.4995 142.523304 C 216.750789 141.021613 217.999041 138.771806 219.247292 137.524038 C 220.501006 136.270808 221.5007 135.023039 222.000547 138.523345 C 222.500394 142.02092 223.751377 144.77311 224.248493 144.519188 C 224.751071 144.270726 238.498226 122.520778 242.751022 120.270972 C 245.750104 119.023203 245.250257 121.021817 244.998968 123.023162 C 244.75041 125.021776 245.250257 130.272235 245.250257 130.272235 C 245.250257 130.272235 252.750692 119.023203 255.752505 116.770666 C 258.748855 114.52086 260.251127 114.52086 260.251127 114.52086 L 260.748242 127.271583 C 260.748242 127.271583 262.74763 127.520044 264.749749 124.773315 C 266.749136 122.023855 272.250184 119.023203 272.750031 119.023203 C 273.249878 119.023203 273.749725 121.273009 273.749725 121.273009 L 272.250184 129.772581 C 272.250184 129.772581 275.749112 127.773967 277.251384 125.772622 C 278.748194 123.774007 280.750313 122.272316 281.998564 122.023855 C 283.249547 121.769932 283.997952 123.520085 283.997952 123.520085 L 283.249547 130.272235 C 283.249547 130.272235 286.000071 127.773967 286.999765 127.023121 C 287.999458 126.272275 292.252254 123.774007 292.997927 123.774007 C 293.749064 123.774007 292.252254 131.02308 292.252254 131.02308 C 292.252254 131.02308 296.999434 126.520737 298.501706 126.272275 L 301.500788 125.772622 L 300.998209 130.021043 C 300.998209 130.021043 304.24858 126.023814 306.247968 125.272968 C 308.250087 124.522123 310.000916 123.774007 310.000916 123.774007 L 309.749627 127.773967 C 309.749627 127.773967 316.250368 122.023855 318.001198 121.273009 C 319.752028 120.522164 322.49982 120.770625 322.49982 120.770625 C 322.49982 120.770625 327.498289 115.522897 328.249426 114.52086 C 329.000562 113.521552 330.999949 110.023977 332.748048 109.770055 C 334.498878 109.521593 339.500078 111.271746 340.74833 109.770055 C 342.002044 108.273824 343.001738 109.273132 345.249683 109.521593 C 347.50036 109.770055 348.748611 110.772092 351.250577 111.522938 C 353.749812 112.273784 359.999264 117.27305 361.250247 117.27305 C 362.50123 117.27305 363.500924 120.02251 366.748563 121.769932 C 369.998933 123.520085 373.500593 130.520696 376.248385 131.271542 C 378.998909 132.022387 382.500569 138.272153 384.497225 139.022998 C 386.502075 139.773844 389.501157 145.021572 390.498119 145.270034 C 391.497813 145.523956 392.751527 146.020879 392.751527 148.022224 L 392.751527 153.269952 C 392.751527 153.269952 392.751527 155.020105 396.99886 154.27472 C 401.248925 154.020797 403.248312 151.770991 403.248312 151.770991 C 403.248312 151.770991 410.248901 148.270686 415.498659 143.271419 C 420.748417 138.272153 422.499247 137.524038 428.748699 132.524771 C 434.998151 127.520044 438.748368 121.273009 447.251228 114.023936 C 455.751357 106.772133 467.250567 103.52302 471.000785 100.770829 C 474.751002 98.021369 474.99956 96.273947 479.249625 96.522409 C 483.499689 96.77087 486.250213 102.024059 486.250213 102.024059 C 486.250213 102.024059 486.001655 102.772174 486.747328 106.520941 C 487.498464 110.272439 486.49877 125.272968 486.49877 127.023121 C 486.49877 128.773274 482.248706 143.773803 482.248706 145.523956 C 482.248706 147.271378 475.750696 153.523874 476.75039 155.77095 C 477.750084 158.020757 474.248424 161.523793 474.99956 163.020023 C 475.750696 164.521714 474.99956 168.770135 476.75039 171.273864 C 478.498489 173.772132 485.250519 181.023935 487.249906 187.27097 C 489.249294 193.520735 486.747328 202.519961 487.752485 204.772498 C 488.752179 207.022304 489.500583 218.522528 487.001349 219.022181 C 484.499383 219.521835 482.999842 222.770949 479.498182 222.020103 C 475.999254 221.274718 472.249036 222.020103 468.998666 220.26995 C 465.751027 218.522528 457.248167 215.270684 449.501905 212.270032 C 441.750181 209.27211 437.748674 204.524036 432.498916 203.77319 C 427.249158 203.022345 428.997257 201.272192 424.498634 201.771846 C 420.000012 202.271499 408.000955 207.022304 405.250431 208.270073 C 402.499908 209.523302 398.249843 211.521917 398.249843 211.521917 C 398.249843 211.521917 399.000979 215.521876 400.497789 217.771682 C 402.000061 220.021489 406.001568 222.770949 405.250431 225.771601 C 404.499295 228.772252 404.499295 234.770826 403.248312 239.521631 C 402.000061 244.272435 401.000367 249.02324 400.751809 251.273047 C 400.497789 253.520123 402.000061 253.271661 398.498401 258.022466 C 394.999473 262.77327 391.000698 269.271498 386.248055 269.773882 C 381.500875 270.270805 382.500569 270.270805 377.999215 269.519959 C 373.500593 268.771844 371.247185 268.771844 369.501818 269.773882 C 367.750988 270.773189 364.997733 271.772496 363.246903 271.270112 C 361.501536 270.773189 358.499723 268.520652 354.998063 268.771844 C 351.499135 269.023036 353.249965 271.02165 348.500054 268.020998 C 343.750142 265.023077 343.001738 262.522078 339.000231 261.023118 C 335.001456 259.521426 337.50069 255.521467 333.747741 257.023158 C 330.000255 258.522119 328.497983 256.769236 327.001174 258.773311 C 325.498902 260.769195 317.250062 260.02381 314.750828 261.773963 C 312.248862 263.521386 291.998234 268.27219 290.501424 270.270805 C 288.999152 272.27215 294.748757 269.773882 302.000635 270.773189 C 309.24978 271.772496 316.750215 272.523341 318.249756 274.270764 C 319.752028 276.020917 324.750497 276.523301 325.250344 279.27003 C 325.750191 282.022221 323.750803 289.274024 318.749603 290.022139 C 313.751134 290.772984 310.500763 291.021446 305.750852 292.020753 C 300.998209 293.02006 301.249498 291.021446 298.501706 293.273983 C 295.751183 295.521059 285.251666 301.522363 275.749112 300.523056 C 266.24929 299.521018 263.00165 297.522404 256.001062 298.521711 C 249.000474 299.521018 243.248138 297.522404 239.751941 298.273249 C 236.250281 299.021364 236.250281 297.522404 236.250281 297.522404 C 236.250281 297.522404 233.999604 297.770865 230.000829 299.272556 C 225.999322 300.771517 227.750152 300.523056 222.000547 301.273901 C 216.248211 302.024747 209.501643 303.272515 207.999371 303.272515 C 207.649751 303.185144 207.2974 303.105964 207.155367 303.316201 Z M 207.155367 303.316201 " transform="matrix(-1.430125,0,0,1.430679,700.820651,-136.350364)"/>
<path style=" stroke:none;fill-rule:nonzero;fill:rgb(76.078433%,32.941177%,4.705882%);fill-opacity:1;" d="M 35.0625 32.765625 C 44.371094 39.507812 62.066406 53.429688 64.105469 53.429688 C 67 53.429688 79.234375 61.050781 79.234375 66.757812 C 79.234375 72.464844 73.289062 61.214844 70.394531 61.214844 C 69.535156 61.214844 65.8125 58.828125 61.085938 55.496094 C 50.835938 46.417969 41.964844 38.789062 35.0625 32.765625 Z M 88.929688 71.460938 C 89.378906 71.820312 89.769531 72.164062 90.152344 72.5 C 89.847656 72.660156 89.535156 72.808594 89.230469 72.972656 C 89.214844 72.601562 89.128906 72.125 88.929688 71.460938 Z M 67.667969 128.777344 C 67.753906 129.699219 67.835938 130.597656 67.890625 131.457031 C 68.003906 133.199219 68.582031 134.730469 69.375 136.15625 C 67.675781 134.257812 66.75 132.542969 67.667969 128.777344 Z M 67.753906 141.242188 C 68.199219 141.234375 68.445312 141.40625 68.445312 141.796875 C 68.445312 143.347656 65.734375 147.070312 62.144531 150.457031 C 50.511719 155.96875 44.8125 158.414062 30.175781 165.707031 C 37.125 159.960938 44.628906 154.082031 46.28125 153.183594 C 51.746094 150.207031 64.617188 141.316406 67.753906 141.242188 Z M 67.753906 141.242188 "/>
<path style="fill:none;stroke-width:0.818605;stroke-linecap:butt;stroke-linejoin:miter;stroke:rgb(0%,0%,0%);stroke-opacity:1;stroke-miterlimit:4;" d="M 415.498659 143.271419 C 415.498659 143.271419 422.499247 137.524038 428.748699 132.524771 C 434.998151 127.520044 438.748368 121.273009 447.251228 114.023936 C 455.751357 106.772133 467.250567 103.52302 471.000785 100.770829 C 474.751002 98.021369 474.99956 96.273947 479.249625 96.522409 C 483.499689 96.77087 486.250213 102.024059 486.250213 102.024059 C 486.250213 102.024059 486.001655 102.772174 486.747328 106.520941 C 487.498464 110.272439 486.49877 125.272968 486.49877 127.023121 C 486.49877 128.773274 482.248706 143.773803 482.248706 145.523956 C 482.248706 147.271378 475.750696 153.523874 476.75039 155.77095 C 477.750084 158.020757 474.248424 161.523793 474.99956 163.020023 C 475.750696 164.521714 474.99956 168.770135 476.75039 171.273864 C 478.498489 173.772132 485.250519 181.023935 487.249906 187.27097 C 489.249294 193.520735 486.747328 202.519961 487.752485 204.772498 C 488.752179 207.022304 489.500583 218.522528 487.001349 219.022181 C 484.499383 219.521835 482.999842 222.770949 479.498182 222.020103 C 475.999254 221.274718 472.249036 222.020103 468.998666 220.26995 C 465.751027 218.522528 457.248167 215.270684 449.501905 212.270032 C 441.750181 209.27211 432.498916 203.77319 432.498916 203.77319 C 434.66492 203.584796 435.683733 198.697474 437.40998 196.046307 C 439.149885 193.365106 442.334702 190.913253 442.569602 187.19179 C 442.886445 182.187063 444.407837 175.661532 442.154429 169.723026 C 439.898289 163.768138 437.341695 156.267874 432.7584 150.089097 C 430.942016 147.645436 424.864643 144.702121 421.360251 143.549915 C 418.773612 142.700777 418.508666 143.940354 415.498659 143.271419 Z M 415.498659 143.271419 " transform="matrix(-1.430125,0,0,1.430679,700.820651,-136.350364)"/>
<path style="fill-rule:nonzero;fill:rgb(9.019608%,2.745098%,2.745098%);fill-opacity:1;stroke-width:0.818605;stroke-linecap:butt;stroke-linejoin:miter;stroke:rgb(0%,0%,0%);stroke-opacity:1;stroke-miterlimit:4;" d="M 141.448716 256.752854 C 140.449022 257.659329 139.640527 259.021773 139.091515 259.47228 C 138.547965 259.930979 137.818681 260.381486 137.548272 261.293422 C 137.269668 262.202628 136.999259 263.930938 137.818681 264.572569 C 138.640833 265.200549 138.998647 265.932283 141.727319 265.932283 C 144.450529 265.932283 146.911524 265.200549 147.640809 265.293381 C 148.359168 265.380752 150.178283 265.473584 151.72972 264.842874 C 153.270232 264.201242 156.821057 263.201935 157.271739 262.472932 C 157.727883 261.75212 159.907543 259.47228 159.907543 258.202669 C 159.907543 256.930327 160.358225 256.201324 159.730002 254.664138 C 159.090854 253.11057 158.550036 250.931753 157.178871 250.290121 C 155.821363 249.664872 155.26962 248.381609 153.357637 248.47444 C 151.451117 248.572733 150.090878 248.47444 148.640503 249.290814 C 147.179202 250.112649 146.179508 250.290121 145.818962 251.469632 C 145.450223 252.660063 144.819269 254.382912 144.357661 254.751509 C 143.909711 255.111915 142.44841 255.843648 141.448716 256.752854 Z M 141.448716 256.752854 " transform="matrix(-1.430125,0,0,1.430679,700.820651,-136.350364)"/>
<path style=" stroke:none;fill-rule:evenodd;fill:rgb(100%,100%,100%);fill-opacity:1;" d="M 500.023438 221.160156 C 500.023438 221.160156 500.761719 219.863281 498.539062 223.378906 C 496.320312 226.898438 496.878906 225.046875 496.507812 228.011719 C 496.136719 230.972656 497.25 231.34375 495.398438 231.714844 C 493.546875 232.082031 492.066406 232.453125 490.953125 231.714844 C 489.847656 230.972656 488.550781 229.308594 490.210938 229.121094 C 491.882812 228.9375 490.03125 230.042969 491.882812 228.011719 C 493.730469 225.976562 493.175781 226.898438 493.730469 224.492188 C 494.285156 222.085938 492.804688 220.976562 495.027344 220.417969 C 497.25 219.863281 500.023438 221.160156 500.023438 221.160156 Z M 500.023438 221.160156 "/>
<path style=" stroke:none;fill-rule:evenodd;fill:rgb(96.078432%,95.294118%,95.294118%);fill-opacity:1;" d="M 354.382812 205.609375 C 351.421875 204.871094 349.574219 205.980469 345.871094 207.832031 C 342.171875 209.683594 336.992188 213.015625 332.917969 213.015625 C 328.847656 213.015625 316.636719 212.277344 312.933594 210.792969 C 309.230469 209.3125 284.066406 199.316406 280.734375 197.464844 C 277.40625 195.613281 256.308594 184.132812 254.824219 184.132812 C 253.347656 184.132812 230.03125 172.660156 226.699219 172.660156 C 223.367188 172.660156 221.148438 172.289062 221.148438 172.289062 C 221.148438 172.289062 221.886719 177.839844 224.851562 180.429688 C 227.804688 183.027344 231.878906 184.875 234.84375 187.835938 C 237.804688 190.796875 241.128906 193.023438 243.722656 196.722656 C 246.3125 200.425781 252.605469 205.609375 254.453125 208.203125 C 256.308594 210.792969 260.007812 210.792969 262.597656 212.277344 C 265.1875 213.753906 268.148438 213.015625 269.632812 216.347656 C 271.113281 219.683594 276.664062 220.789062 288.503906 220.417969 C 300.351562 220.046875 300.722656 218.570312 305.902344 220.046875 C 311.085938 221.53125 306.640625 220.417969 313.675781 225.234375 C 320.707031 230.042969 322.554688 232.269531 325.144531 232.269531 C 327.734375 232.269531 329.960938 234.859375 329.21875 230.414062 C 328.476562 225.976562 329.21875 227.824219 334.402344 224.492188 C 339.582031 221.160156 337.734375 222.644531 343.652344 220.789062 C 349.574219 218.941406 354.753906 218.941406 355.867188 216.347656 C 356.976562 213.753906 359.566406 211.164062 358.828125 210.050781 C 358.085938 208.945312 354.382812 205.609375 354.382812 205.609375 Z M 354.382812 205.609375 "/>
<path style=" stroke:none;fill-rule:nonzero;fill:rgb(76.078433%,32.941177%,4.705882%);fill-opacity:1;" d="M 221.148438 172.289062 C 221.148438 172.289062 223.367188 172.652344 226.699219 172.652344 C 230.03125 172.652344 253.347656 184.132812 254.824219 184.132812 C 256.304688 184.132812 277.40625 195.613281 280.738281 197.464844 C 284.066406 199.3125 309.230469 209.308594 312.933594 210.792969 C 316.636719 212.277344 328.847656 213.011719 332.921875 213.011719 C 336.992188 213.011719 342.171875 209.679688 345.871094 207.832031 C 349.574219 205.980469 351.421875 204.871094 354.382812 205.609375 C 354.382812 205.609375 358.085938 208.945312 358.828125 210.050781 C 359.566406 211.164062 356.976562 213.753906 355.863281 216.34375 C 354.753906 218.941406 349.574219 218.941406 343.65625 220.789062 C 337.734375 222.636719 339.582031 221.160156 334.402344 224.492188 C 329.21875 227.824219 328.476562 225.976562 329.21875 230.414062 C 329.339844 231.152344 329.375 231.679688 329.347656 232.070312 C 325.480469 228.789062 321.460938 225.308594 317.257812 221.546875 C 299.9375 213.441406 273.464844 210.617188 249.214844 202.726562 C 247.136719 200.6875 244.988281 198.53125 243.726562 196.722656 C 241.128906 193.023438 237.804688 190.796875 234.84375 187.835938 C 231.878906 184.875 227.804688 183.027344 224.851562 180.429688 C 221.886719 177.839844 221.148438 172.289062 221.148438 172.289062 Z M 221.148438 172.289062 "/>
<path style="fill:none;stroke-width:0.873178;stroke-linecap:butt;stroke-linejoin:miter;stroke:rgb(0%,0%,0%);stroke-opacity:1;stroke-miterlimit:4;" d="M 242.242981 239.019247 C 244.313385 238.503211 245.605339 239.27863 248.19471 240.572815 C 250.78135 241.866999 254.403191 244.195986 257.252045 244.195986 C 260.098168 244.195986 268.636537 243.67995 271.225907 242.642418 C 273.815278 241.607616 291.410982 234.620657 293.740869 233.326472 C 296.068025 232.032287 310.820338 224.007796 311.858271 224.007796 C 312.890742 224.007796 329.194491 215.988765 331.524379 215.988765 C 333.854266 215.988765 335.405704 215.729382 335.405704 215.729382 C 335.405704 215.729382 334.889468 219.609206 332.816333 221.419427 C 330.751391 223.235108 327.902537 224.526562 325.832133 226.596165 C 323.758998 228.665769 321.434573 230.222067 319.620921 232.807706 C 317.81 235.396076 313.409708 239.019247 312.117754 240.832198 C 310.820338 242.642418 308.233698 242.642418 306.422777 243.67995 C 304.611857 244.712021 302.541453 244.195986 301.503519 246.524972 C 300.468317 248.856689 296.586992 249.629377 288.308107 249.369994 C 280.023759 249.110611 279.764276 248.07854 276.142434 249.110611 C 272.517861 250.148143 275.626199 249.369994 270.706941 252.736513 C 265.790414 256.097571 264.49846 257.653869 262.687539 257.653869 C 260.876618 257.653869 259.319718 259.464089 259.838685 256.356954 C 260.357651 253.255279 259.838685 254.546733 256.214112 252.217747 C 252.59227 249.88876 253.884224 250.926292 249.746148 249.629377 C 245.605339 248.337923 241.983498 248.337923 241.205048 246.524972 C 240.429329 244.712021 238.618408 242.901801 239.134644 242.123652 C 239.65361 241.348233 242.242981 239.019247 242.242981 239.019247 Z M 242.242981 239.019247 " transform="matrix(-1.430125,0,0,1.430679,700.820651,-136.350364)"/>
<path style="fill:none;stroke-width:0.818605;stroke-linecap:butt;stroke-linejoin:miter;stroke:rgb(0%,0%,0%);stroke-opacity:1;stroke-miterlimit:4;" d="M 128.551027 263.382138 C 128.7313 264.752772 129.640857 269.29334 130.640551 270.292648 C 131.640245 271.291955 136.18257 272.74996 138.818374 272.842792 C 141.448716 272.930163 143.639302 272.381363 146.72852 272.572488 C 149.820469 272.74996 149.448998 274.022302 152.357943 273.200468 C 155.26962 272.381363 157.820751 272.381363 162.180071 270.47285 C 166.550318 268.572529 167.088404 268.471506 168.271102 266.202587 C 169.451069 263.930938 170.819502 262.841529 171.641654 260.662712 C 172.45015 258.472973 173.728447 257.203361 173.550906 255.663445 C 173.359707 254.109878 174.001587 250.290121 172.909026 248.572733 C 171.821927 246.844423 167.82042 241.203525 166.091442 240.840389 C 164.359732 240.471792 158.730308 239.469754 156.550648 239.573507 C 154.360062 239.660878 151.639584 239.292282 149.640196 240.024015 C 147.640809 240.753017 145.357355 241.932528 143.450835 243.573466 C 141.549778 245.203484 139.17892 250.112649 137.911548 250.844382 C 136.638714 251.573385 131.910654 258.022466 130.91096 258.382872 C 129.911266 258.751468 129.089114 260.111182 128.911573 260.381486 C 128.7313 260.662712 128.359829 262.022425 128.551027 263.382138 Z M 128.551027 263.382138 " transform="matrix(-1.430125,0,0,1.430679,700.820651,-136.350364)"/>
</g>
</svg>
