<?xml version="1.0" encoding="UTF-8"?>
<svg xmlns="http://www.w3.org/2000/svg" xmlns:xlink="http://www.w3.org/1999/xlink" width="565pt" height="311pt" viewBox="0 0 565 311" version="1.1">
<g id="surface106">
<path style="fill-rule:nonzero;fill:rgb(99.215686%,96.078432%,96.078432%);fill-opacity:1;stroke-width:0.818605;stroke-linecap:butt;stroke-linejoin:miter;stroke:rgb(0%,0%,0%);stroke-opacity:1;stroke-miterlimit:4;" d="M 207.155367 303.316201 C 206.710148 303.526438 205.639438 304.009709 202.998171 305.019938 C 196.500161 307.520936 192.498654 308.271782 190.250709 309.022627 C 188.000032 309.770743 189.251015 311.520895 177.500516 311.520895 C 165.750016 311.520895 162.750935 310.521588 159.249275 311.272434 C 155.750347 312.023279 147.750065 311.772087 143.75129 311.023972 C 139.749783 310.273127 139.501225 309.022627 134.999872 308.771435 C 130.50125 308.522974 130.998365 307.520936 126.002628 307.772128 C 121.001427 308.02332 117.499767 306.770091 113.500992 306.019245 C 109.499485 305.27386 105.751999 306.273167 103.498591 304.023361 C 101.250646 301.770824 98.999969 300.523056 98.000275 299.021364 C 97.000581 297.522404 97.000581 294.521752 96.752024 293.02006 C 96.498003 291.52383 98.500122 290.772984 98.500122 290.772984 C 98.500122 290.772984 96.498003 289.020101 96.498003 287.021487 C 98.500122 280.020876 97.000581 279.021569 100.49951 271.524034 C 104.00117 264.021039 106.000557 264.021039 107.500098 259.521426 C 108.999639 255.021814 113.001145 247.521549 116.500074 244.520897 C 120.001733 241.522975 122.998083 239.521631 123.997777 239.521631 C 124.997471 239.521631 127.002321 237.020632 129.501556 235.024748 C 131.998059 233.020673 139.998341 226.522446 142.00046 225.020755 C 143.999847 223.521794 154.502095 214.022915 155.998905 211.521917 C 157.501177 209.020918 173.499009 195.022427 178.000363 193.520735 C 182.498985 192.021775 191.49896 186.023201 194.997889 183.022549 C 198.499548 180.021897 201.998477 177.520899 203.500749 176.521592 C 204.997558 175.522284 206.002715 157.021449 206.999677 155.522489 C 207.999371 154.020797 209.750201 151.770991 209.750201 151.770991 L 210.998453 157.269911 C 210.998453 157.269911 212.99784 156.022142 212.99784 150.274761 C 214.000265 147.771032 216.248211 144.022265 216.4995 142.523304 C 216.750789 141.021613 217.999041 138.771806 219.247292 137.524038 C 220.501006 136.270808 221.5007 135.023039 222.000547 138.523345 C 222.500394 142.02092 223.751377 144.77311 224.248493 144.519188 C 224.751071 144.270726 238.498226 122.520778 242.751022 120.270972 C 245.750104 119.023203 245.250257 121.021817 244.998968 123.023162 C 244.75041 125.021776 245.250257 130.272235 245.250257 130.272235 C 245.250257 130.272235 252.750692 119.023203 255.752505 116.770666 C 258.748855 114.52086 260.251127 114.52086 260.251127 114.52086 L 260.748242 127.271583 C 260.748242 127.271583 262.74763 127.520044 264.749749 124.773315 C 266.749136 122.023855 272.250184 119.023203 272.750031 119.023203 C 273.249878 119.023203 273.749725 121.273009 273.749725 121.273009 L 272.250184 129.772581 C 272.250184 129.772581 275.749112 127.773967 277.251384 125.772622 C 278.748194 123.774007 280.750313 122.272316 281.998564 122.023855 C 283.249547 121.769932 283.997952 123.520085 283.997952 123.520085 L 283.249547 130.272235 C 283.249547 130.272235 286.000071 127.773967 286.999765 127.023121 C 287.999458 126.272275 292.252254 123.774007 292.997927 123.774007 C 293.749064 123.774007 292.252254 131.02308 292.252254 131.02308 C 292.252254 131.02308 296.999434 126.520737 298.501706 126.272275 L 301.500788 125.772622 L 300.998209 130.021043 C 300.998209 130.021043 304.24858 126.023814 306.247968 125.272968 C 308.250087 124.522123 310.000916 123.774007 310.000916 123.774007 L 309.749627 127.773967 C 309.749627 127.773967 316.250368 122.023855 318.001198 121.273009 C 319.752028 120.522164 322.49982 120.770625 322.49982 120.770625 C 322.49982 120.770625 327.498289 115.522897 328.249426 114.52086 C 329.000562 113.521552 330.999949 110.023977 332.748048 109.770055 C 334.498878 109.521593 339.500078 111.271746 340.74833 109.770055 C 342.002044 108.273824 343.001738 109.273132 345.249683 109.521593 C 347.50036 109.770055 348.748611 110.772092 351.250577 111.522938 C 353.749812 112.273784 359.999264 117.27305 361.250247 117.27305 C 362.50123 117.27305 363.500924 120.02251 366.748563 121.769932 C 369.998933 123.520085 373.500593 130.520696 376.248385 131.271542 C 378.998909 132.022387 382.500569 138.272153 384.497225 139.022998 C 386.502075 139.773844 389.501157 145.021572 390.498119 145.270034 C 391.497813 145.523956 392.751527 146.020879 392.751527 148.022224 L 392.751527 153.269952 C 392.751527 153.269952 392.751527 155.020105 396.99886 154.27472 C 401.248925 154.020797 403.248312 151.770991 403.248312 151.770991 C 403.248312 151.770991 410.248901 148.270686 415.498659 143.271419 C 420.748417 138.272153 422.499247 137.524038 428.748699 132.524771 C 434.998151 127.520044 438.748368 121.273009 447.251228 114.023936 C 455.751357 106.772133 467.250567 103.52302 471.000785 100.770829 C 474.751002 98.021369 474.99956 96.273947 479.249625 96.522409 C 483.499689 96.77087 486.250213 102.024059 486.250213 102.024059 C 486.250213 102.024059 486.001655 102.772174 486.747328 106.520941 C 487.498464 110.272439 486.49877 125.272968 486.49877 127.023121 C 486.49877 128.773274 482.248706 143.773803 482.248706 145.523956 C 482.248706 147.271378 475.750696 153.523874 476.75039 155.77095 C 477.750084 158.020757 474.248424 161.523793 474.99956 163.020023 C 475.750696 164.521714 474.99956 168.770135 476.75039 171.273864 C 478.498489 173.772132 485.250519 181.023935 487.249906 187.27097 C 489.249294 193.520735 486.747328 202.519961 487.752485 204.772498 C 488.752179 207.022304 489.500583 218.522528 487.001349 219.022181 C 484.499383 219.521835 482.999842 222.770949 479.498182 222.020103 C 475.999254 221.274718 472.249036 222.020103 468.998666 220.26995 C 465.751027 218.522528 457.248167 215.270684 449.501905 212.270032 C 441.750181 209.27211 437.748674 204.524036 432.498916 203.77319 C 427.249158 203.022345 428.997257 201.272192 424.498634 201.771846 C 420.000012 202.271499 408.000955 207.022304 405.250431 208.270073 C 402.499908 209.523302 398.249843 211.521917 398.249843 211.521917 C 398.249843 211.521917 399.000979 215.521876 400.497789 217.771682 C 402.000061 220.021489 406.001568 222.770949 405.250431 225.771601 C 404.499295 228.772252 404.499295 234.770826 403.248312 239.521631 C 402.000061 244.272435 401.000367 249.02324 400.751809 251.273047 C 400.497789 253.520123 402.000061 253.271661 398.498401 258.022466 C 394.999473 262.77327 391.000698 269.271498 386.248055 269.773882 C 381.500875 270.270805 382.500569 270.270805 377.999215 269.519959 C 373.500593 268.771844 371.247185 268.771844 369.501818 269.773882 C 367.750988 270.773189 364.997733 271.772496 363.246903 271.270112 C 361.501536 270.773189 358.499723 268.520652 354.998063 268.771844 C 351.499135 269.023036 353.249965 271.02165 348.500054 268.020998 C 343.750142 265.023077 343.001738 262.522078 339.000231 261.023118 C 335.001456 259.521426 337.50069 255.521467 333.747741 257.023158 C 330.000255 258.522119 328.497983 256.769236 327.001174 258.773311 C 325.498902 260.769195 317.250062 260.02381 314.750828 261.773963 C 312.248862 263.521386 291.998234 268.27219 290.501424 270.270805 C 288.999152 272.27215 294.748757 269.773882 302.000635 270.773189 C 309.24978 271.772496 316.750215 272.523341 318.249756 274.270764 C 319.752028 276.020917 324.750497 276.523301 325.250344 279.27003 C 325.750191 282.022221 323.750803 289.274024 318.749603 290.022139 C 313.751134 290.772984 310.500763 291.021446 305.750852 292.020753 C 300.998209 293.02006 301.249498 291.021446 298.501706 293.273983 C 295.751183 295.521059 285.251666 301.522363 275.749112 300.523056 C 266.24929 299.521018 263.00165 297.522404 256.001062 298.521711 C 249.000474 299.521018 243.248138 297.522404 239.751941 298.273249 C 236.250281 299.021364 236.250281 297.522404 236.250281 297.522404 C 236.250281 297.522404 233.999604 297.770865 230.000829 299.272556 C 225.999322 300.771517 227.750152 300.523056 222.000547 301.273901 C 216.248211 302.024747 209.501643 303.272515 207.999371 303.272515 C 207.649751 303.185144 207.2974 303.105964 207.155367 303.316201 Z M 207.155367 303.316201 " transform="matrix(-1.430125,0,0,1.430679,700.820651,-136.350364)"/>
<path style=" stroke:none;fill-rule:nonzero;fill:rgb(92.156863%,69.01961%,63.137257%);fill-opacity:1;" d="M 404.5625 297.597656 C 405.199219 297.898438 406.730469 298.589844 410.507812 300.039062 C 419.800781 303.613281 425.523438 304.6875 428.738281 305.761719 C 431.957031 306.832031 430.167969 309.335938 446.972656 309.335938 C 463.777344 309.335938 468.066406 307.90625 473.074219 308.980469 C 478.078125 310.054688 489.519531 309.699219 495.238281 308.625 C 500.960938 307.550781 501.316406 305.761719 507.753906 305.402344 C 514.1875 305.046875 513.476562 303.613281 520.621094 303.972656 C 527.773438 304.332031 532.78125 302.539062 538.5 301.464844 C 544.222656 300.398438 549.582031 301.828125 552.804688 298.609375 C 556.019531 295.386719 559.238281 293.601562 560.667969 291.457031 C 562.097656 289.308594 562.097656 285.015625 562.453125 282.867188 C 562.816406 280.726562 559.953125 279.652344 559.953125 279.652344 C 559.953125 279.652344 562.816406 277.144531 562.816406 274.285156 C 559.953125 264.269531 562.097656 262.839844 557.09375 252.113281 C 552.085938 241.378906 549.226562 241.378906 547.082031 234.941406 C 544.9375 228.503906 539.214844 217.773438 534.210938 213.480469 C 529.203125 209.191406 524.917969 206.328125 523.488281 206.328125 C 522.058594 206.328125 519.191406 202.753906 515.617188 199.894531 C 512.046875 197.027344 500.605469 187.730469 497.742188 185.582031 C 494.882812 183.4375 479.863281 169.847656 477.722656 166.269531 C 475.574219 162.691406 452.695312 142.664062 446.257812 140.515625 C 439.824219 138.371094 426.953125 129.789062 421.949219 125.496094 C 416.941406 121.203125 411.9375 117.625 409.789062 116.195312 C 407.648438 114.765625 406.210938 88.296875 404.785156 86.152344 C 403.355469 84.003906 400.851562 80.785156 400.851562 80.785156 L 399.066406 88.65625 C 399.066406 88.65625 396.207031 86.867188 396.207031 78.644531 C 394.773438 75.0625 391.558594 69.699219 391.199219 67.554688 C 390.839844 65.40625 389.054688 62.1875 387.269531 60.402344 C 385.476562 58.609375 384.046875 56.824219 383.332031 61.832031 C 382.617188 66.835938 380.828125 70.773438 380.117188 70.414062 C 379.398438 70.054688 359.738281 38.9375 353.65625 35.71875 C 349.367188 33.933594 350.082031 36.792969 350.441406 39.65625 C 350.796875 42.515625 350.082031 50.027344 350.082031 50.027344 C 350.082031 50.027344 339.359375 33.933594 335.0625 30.710938 C 330.777344 27.492188 328.628906 27.492188 328.628906 27.492188 L 327.917969 45.734375 C 327.917969 45.734375 325.058594 46.089844 322.195312 42.160156 C 319.335938 38.226562 311.46875 33.933594 310.753906 33.933594 C 310.039062 33.933594 309.324219 37.152344 309.324219 37.152344 L 311.46875 49.3125 C 311.46875 49.3125 306.464844 46.453125 304.316406 43.589844 C 302.175781 40.730469 299.3125 38.582031 297.527344 38.226562 C 295.738281 37.863281 294.667969 40.367188 294.667969 40.367188 L 295.738281 50.027344 C 295.738281 50.027344 291.804688 46.453125 290.375 45.378906 C 288.945312 44.304688 282.863281 40.730469 281.796875 40.730469 C 280.722656 40.730469 282.863281 51.101562 282.863281 51.101562 C 282.863281 51.101562 276.074219 44.660156 273.925781 44.304688 L 269.636719 43.589844 L 270.355469 49.667969 C 270.355469 49.667969 265.707031 43.949219 262.847656 42.875 C 259.984375 41.800781 257.480469 40.730469 257.480469 40.730469 L 257.839844 46.453125 C 257.839844 46.453125 248.542969 38.226562 246.039062 37.152344 C 243.535156 36.078125 239.605469 36.4375 239.605469 36.4375 C 239.605469 36.4375 232.457031 28.925781 231.382812 27.492188 C 230.308594 26.0625 227.449219 21.058594 224.949219 20.695312 C 222.445312 20.339844 215.292969 22.84375 213.507812 20.695312 C 211.714844 18.554688 210.285156 19.984375 207.070312 20.339844 C 203.851562 20.695312 202.066406 22.128906 198.488281 23.203125 C 194.914062 24.277344 185.976562 31.429688 184.1875 31.429688 C 182.398438 31.429688 180.96875 35.363281 176.324219 37.863281 C 171.675781 40.367188 166.667969 50.382812 162.738281 51.457031 C 158.804688 52.53125 153.796875 61.472656 150.941406 62.546875 C 148.074219 63.621094 143.789062 71.128906 142.359375 71.484375 C 140.929688 71.847656 139.136719 72.558594 139.136719 75.421875 L 139.136719 82.929688 C 139.136719 82.929688 139.136719 85.433594 133.0625 84.367188 C 126.984375 84.003906 124.125 80.785156 124.125 80.785156 C 124.125 80.785156 114.113281 75.777344 106.605469 68.625 C 99.097656 61.472656 96.59375 60.402344 87.65625 53.25 C 92.746094 69.976562 81.171875 100.460938 92.996094 115.761719 C 99.375 124.007812 126.652344 135.285156 137.660156 143.054688 C 151.480469 152.800781 186.3125 182.636719 203.070312 193.09375 C 217.183594 201.898438 233.652344 213.082031 245.765625 220.140625 C 274.449219 236.855469 300.445312 251.375 323.609375 262.214844 C 350.578125 274.832031 367.019531 285.691406 403.355469 297.535156 C 403.855469 297.414062 404.359375 297.296875 404.5625 297.597656 Z M 404.5625 297.597656 "/>
<path style="fill-rule:nonzero;fill:rgb(54.11765%,16.862746%,16.862746%);fill-opacity:1;stroke-width:0.818605;stroke-linecap:butt;stroke-linejoin:miter;stroke:rgb(0%,0%,0%);stroke-opacity:1;stroke-miterlimit:4;" d="M 155.998905 211.521917 C 157.501177 209.020918 173.499009 195.022427 178.000363 193.520735 C 182.498985 192.021775 191.49896 186.023201 194.997889 183.022549 C 198.499548 180.021897 201.998477 177.520899 203.500749 176.521592 C 204.997558 175.522284 206.002715 157.021449 206.999677 155.522489 C 207.999371 154.020797 209.750201 151.770991 209.750201 151.770991 L 210.998453 157.269911 C 210.998453 157.269911 212.99784 156.022142 212.99784 150.274761 C 214.000265 147.771032 216.248211 144.022265 216.4995 142.523304 C 216.750789 141.021613 217.999041 138.771806 219.247292 137.524038 C 220.501006 136.270808 221.5007 135.023039 222.000547 138.523345 C 222.500394 142.02092 223.751377 144.77311 224.248493 144.519188 C 224.751071 144.270726 238.498226 122.520778 242.751022 120.270972 C 245.750104 119.023203 245.250257 121.021817 244.998968 123.023162 C 244.75041 125.021776 245.250257 130.272235 245.250257 130.272235 C 245.250257 130.272235 252.750692 119.023203 255.752505 116.770666 C 258.748855 114.52086 260.251127 114.52086 260.251127 114.52086 L 260.748242 127.271583 C 260.748242 127.271583 262.74763 127.520044 264.749749 124.773315 C 266.749136 122.023855 272.250184 119.023203 272.750031 119.023203 C 273.249878 119.023203 273.749725 121.273009 273.749725 121.273009 L 272.250184 129.772581 C 272.250184 129.772581 275.749112 127.773967 277.251384 125.772622 C 278.748194 123.774007 280.750313 122.272316 281.998564 122.023855 C 283.249547 121.769932 283.997952 123.520085 283.997952 123.520085 L 283.249547 130.272235 C 283.249547 130.272235 286.000071 127.773967 286.999765 127.023121 C 287.999458 126.272275 292.252254 123.774007 292.997927 123.774007 C 293.749064 123.774007 292.252254 131.02308 292.252254 131.02308 C 292.252254 131.02308 296.999434 126.520737 298.501706 126.272275 L 301.500788 125.772622 L 300.998209 130.021043 C 300.998209 130.021043 304.24858 126.023814 306.247968 125.272968 C 308.250087 124.522123 310.000916 123.774007 310.000916 123.774007 L 309.749627 127.773967 C 309.749627 127.773967 316.250368 122.023855 318.001198 121.273009 C 319.752028 120.522164 322.49982 120.770625 322.49982 120.770625 C 322.49982 120.770625 327.498289 115.522897 328.249426 114.52086 C 329.000562 113.521552 330.999949 110.023977 332.748048 109.770055 C 334.498878 109.521593 339.500078 111.271746 340.74833 109.770055 C 342.002044 108.273824 343.001738 109.273132 345.249683 109.521593 C 347.50036 109.770055 348.748611 110.772092 351.250577 111.522938 C 353.749812 112.273784 359.999264 117.27305 361.250247 117.27305 C 362.50123 117.27305 363.500924 120.02251 366.748563 121.769932 C 369.998933 123.520085 373.500593 130.520696 376.248385 131.271542 C 378.998909 132.022387 382.500569 138.272153 384.497225 139.022998 C 386.502075 139.773844 389.501157 145.021572 390.498119 145.270034 C 391.497813 145.523956 392.751527 146.020879 392.751527 148.022224 L 392.751527 153.269952 C 392.751527 153.269952 392.751527 155.020105 396.99886 154.27472 C 401.248925 154.020797 403.248312 151.770991 403.248312 151.770991 C 399.394302 155.416005 350.717954 154.140933 330.136826 165.400886 C 311.672536 175.505902 310.339611 177.283359 291.716899 183.803428 C 263.209237 193.780118 257.732772 202.716546 237.932826 224.108819 C 219.793573 243.707254 147.763722 233.143539 155.998905 211.521917 Z M 155.998905 211.521917 " transform="matrix(-1.430125,0,0,1.430679,700.820651,-136.350364)"/>
<path style="fill:none;stroke-width:0.818605;stroke-linecap:butt;stroke-linejoin:miter;stroke:rgb(0%,0%,0%);stroke-opacity:1;stroke-miterlimit:4;" d="M 207.390268 302.892997 C 208.351722 302.374231 209.160218 301.754442 209.930474 301.071855 C 211.582973 299.600198 213.350191 296.015252 215.966876 294.650078 C 220.973539 292.042596 225.982934 286.235147 228.296433 280.468653 C 231.912812 271.458506 229.927081 258.339186 230.186565 251.947442 C 231.194453 249.094229 233.69915 245.585733 232.658485 245.446485 C 231.615089 245.304507 229.891573 244.340694 229.309784 243.423297 C 232.027531 238.552357 235.1386 237.383769 233.890348 237.359195 C 232.191415 237.320971 229.678523 236.357158 226.829669 235.559896 C 230.954089 230.396809 233.904005 225.195497 233.17472 225.318363 C 232.175027 225.116317 224.234836 226.986605 222.281882 226.200265 C 220.271569 224.338168 221.306771 222.15116 218.220284 220.471996 M 202.894377 297.645269 C 207.554152 293.896502 210.730775 290.439882 210.820911 284.310252 C 210.900122 279.253648 208.373573 269.388902 205.281624 264.176669 C 200.400606 255.944671 198.234602 249.72494 194.577253 241.850617 M 207.155367 303.316201 C 206.710148 303.526438 205.639438 304.009709 202.998171 305.019938 C 196.500161 307.520936 192.498654 308.271782 190.250709 309.022627 C 188.000032 309.770743 189.251015 311.520895 177.500516 311.520895 C 165.750016 311.520895 162.750935 310.521588 159.249275 311.272434 C 155.750347 312.023279 147.750065 311.772087 143.75129 311.023972 C 139.749783 310.273127 139.501225 309.022627 134.999872 308.771435 C 130.50125 308.522974 130.998365 307.520936 126.002628 307.772128 C 121.001427 308.02332 117.499767 306.770091 113.500992 306.019245 C 109.499485 305.27386 105.751999 306.273167 103.498591 304.023361 C 101.250646 301.770824 98.999969 300.523056 98.000275 299.021364 C 97.000581 297.522404 97.000581 294.521752 96.752024 293.02006 C 96.498003 291.52383 98.500122 290.772984 98.500122 290.772984 C 98.500122 290.772984 96.498003 289.020101 96.498003 287.021487 C 98.500122 280.020876 97.000581 279.021569 100.49951 271.524034 C 104.00117 264.021039 106.000557 264.021039 107.500098 259.521426 C 108.999639 255.021814 113.001145 247.521549 116.500074 244.520897 C 120.001733 241.522975 122.998083 239.521631 123.997777 239.521631 C 124.997471 239.521631 127.002321 237.020632 129.501556 235.024748 C 131.998059 233.020673 139.998341 226.522446 142.00046 225.020755 C 143.999847 223.521794 154.502095 214.022915 155.998905 211.521917 C 157.501177 209.020918 173.499009 195.022427 178.000363 193.520735 C 182.498985 192.021775 191.49896 186.023201 194.997889 183.022549 C 198.499548 180.021897 201.998477 177.520899 203.500749 176.521592 C 204.997558 175.522284 206.002715 157.021449 206.999677 155.522489 C 207.999371 154.020797 209.750201 151.770991 209.750201 151.770991 L 210.998453 157.269911 C 210.998453 157.269911 212.99784 156.022142 212.99784 150.274761 C 214.000265 147.771032 216.248211 144.022265 216.4995 142.523304 C 216.750789 141.021613 217.999041 138.771806 219.247292 137.524038 C 220.501006 136.270808 221.5007 135.023039 222.000547 138.523345 C 222.500394 142.02092 223.751377 144.77311 224.248493 144.519188 C 224.751071 144.270726 238.498226 122.520778 242.751022 120.270972 C 245.750104 119.023203 245.250257 121.021817 244.998968 123.023162 C 244.75041 125.021776 245.250257 130.272235 245.250257 130.272235 C 245.250257 130.272235 252.750692 119.023203 255.752505 116.770666 C 258.748855 114.52086 260.251127 114.52086 260.251127 114.52086 L 260.748242 127.271583 C 260.748242 127.271583 262.74763 127.520044 264.749749 124.773315 C 266.749136 122.023855 272.250184 119.023203 272.750031 119.023203 C 273.249878 119.023203 273.749725 121.273009 273.749725 121.273009 L 272.250184 129.772581 C 272.250184 129.772581 275.749112 127.773967 277.251384 125.772622 C 278.748194 123.774007 280.750313 122.272316 281.998564 122.023855 C 283.249547 121.769932 283.997952 123.520085 283.997952 123.520085 L 283.249547 130.272235 C 283.249547 130.272235 286.000071 127.773967 286.999765 127.023121 C 287.999458 126.272275 292.252254 123.774007 292.997927 123.774007 C 293.749064 123.774007 292.252254 131.02308 292.252254 131.02308 C 292.252254 131.02308 296.999434 126.520737 298.501706 126.272275 L 301.500788 125.772622 L 300.998209 130.021043 C 300.998209 130.021043 304.24858 126.023814 306.247968 125.272968 C 308.250087 124.522123 310.000916 123.774007 310.000916 123.774007 L 309.749627 127.773967 C 309.749627 127.773967 316.250368 122.023855 318.001198 121.273009 C 319.752028 120.522164 322.49982 120.770625 322.49982 120.770625 C 322.49982 120.770625 327.498289 115.522897 328.249426 114.52086 C 329.000562 113.521552 330.999949 110.023977 332.748048 109.770055 C 334.498878 109.521593 339.500078 111.271746 340.74833 109.770055 C 342.002044 108.273824 343.001738 109.273132 345.249683 109.521593 C 347.50036 109.770055 348.748611 110.772092 351.250577 111.522938 C 353.749812 112.273784 359.999264 117.27305 361.250247 117.27305 C 362.50123 117.27305 363.500924 120.02251 366.748563 121.769932 C 369.998933 123.520085 373.500593 130.520696 376.248385 131.271542 C 378.998909 132.022387 382.500569 138.272153 384.497225 139.022998 C 386.502075 139.773844 389.501157 145.021572 390.498119 145.270034 C 391.497813 145.523956 392.751527 146.020879 392.751527 148.022224 L 392.751527 153.269952 C 392.751527 153.269952 392.751527 155.020105 396.99886 154.27472 C 401.248925 154.020797 403.248312 151.770991 403.248312 151.770991 C 403.248312 151.770991 410.248901 148.270686 415.498659 143.271419 C 420.748417 138.272153 422.499247 137.524038 428.748699 132.524771 C 434.998151 127.520044 438.748368 121.273009 447.251228 114.023936 C 455.751357 106.772133 467.250567 103.52302 471.000785 100.770829 C 474.751002 98.021369 474.99956 96.273947 479.249625 96.522409 C 483.499689 96.77087 486.250213 102.024059 486.250213 102.024059 C 486.250213 102.024059 486.001655 102.772174 486.747328 106.520941 C 487.498464 110.272439 486.49877 125.272968 486.49877 127.023121 C 486.49877 128.773274 482.248706 143.773803 482.248706 145.523956 C 482.248706 147.271378 475.750696 153.523874 476.75039 155.77095 C 477.750084 158.020757 474.248424 161.523793 474.99956 163.020023 C 475.750696 164.521714 474.99956 168.770135 476.75039 171.273864 C 478.498489 173.772132 485.250519 181.023935 487.249906 187.27097 C 489.249294 193.520735 486.747328 202.519961 487.752485 204.772498 C 488.752179 207.022304 489.500583 218.522528 487.001349 219.022181 C 484.499383 219.521835 482.999842 222.770949 479.498182 222.020103 C 475.999254 221.274718 472.249036 222.020103 468.998666 220.26995 C 465.751027 218.522528 457.248167 215.270684 449.501905 212.270032 C 441.750181 209.27211 437.748674 204.524036 432.498916 203.77319 C 427.249158 203.022345 428.997257 201.272192 424.498634 201.771846 C 420.000012 202.271499 408.000955 207.022304 405.250431 208.270073 C 402.499908 209.523302 398.249843 211.521917 398.249843 211.521917 C 398.249843 211.521917 399.000979 215.521876 400.497789 217.771682 C 402.000061 220.021489 406.001568 222.770949 405.250431 225.771601 C 404.499295 228.772252 404.499295 234.770826 403.248312 239.521631 C 402.000061 244.272435 401.000367 249.02324 400.751809 251.273047 C 400.497789 253.520123 402.000061 253.271661 398.498401 258.022466 C 394.999473 262.77327 391.000698 269.271498 386.248055 269.773882 C 381.500875 270.270805 382.500569 270.270805 377.999215 269.519959 C 373.500593 268.771844 371.247185 268.771844 369.501818 269.773882 C 367.750988 270.773189 364.997733 271.772496 363.246903 271.270112 C 361.501536 270.773189 358.499723 268.520652 354.998063 268.771844 C 351.499135 269.023036 353.249965 271.02165 348.500054 268.020998 C 343.750142 265.023077 343.001738 262.522078 339.000231 261.023118 C 335.001456 259.521426 337.50069 255.521467 333.747741 257.023158 C 330.000255 258.522119 328.497983 256.769236 327.001174 258.773311 C 325.498902 260.769195 317.250062 260.02381 314.750828 261.773963 C 312.248862 263.521386 291.998234 268.27219 290.501424 270.270805 C 288.999152 272.27215 294.748757 269.773882 302.000635 270.773189 C 309.24978 271.772496 316.750215 272.523341 318.249756 274.270764 C 319.752028 276.020917 324.750497 276.523301 325.250344 279.27003 C 325.750191 282.022221 323.750803 289.274024 318.749603 290.022139 C 313.751134 290.772984 310.500763 291.021446 305.750852 292.020753 C 300.998209 293.02006 301.249498 291.021446 298.501706 293.273983 C 295.751183 295.521059 285.251666 301.522363 275.749112 300.523056 C 266.24929 299.521018 263.00165 297.522404 256.001062 298.521711 C 249.000474 299.521018 243.248138 297.522404 239.751941 298.273249 C 236.250281 299.021364 236.250281 297.522404 236.250281 297.522404 C 236.250281 297.522404 233.999604 297.770865 230.000829 299.272556 C 225.999322 300.771517 227.750152 300.523056 222.000547 301.273901 C 216.248211 302.024747 209.501643 303.272515 207.999371 303.272515 C 207.649751 303.185144 207.2974 303.105964 207.155367 303.316201 Z M 207.155367 303.316201 " transform="matrix(-1.430125,0,0,1.430679,700.820651,-136.350364)"/>
<path style="fill:none;stroke-width:0.818605;stroke-linecap:butt;stroke-linejoin:miter;stroke:rgb(0%,0%,0%);stroke-opacity:1;stroke-miterlimit:4;" d="M 203.500749 176.521592 C 204.997558 175.522284 206.002715 157.021449 206.999677 155.522489 C 207.999371 154.020797 209.750201 151.770991 209.750201 151.770991 L 210.998453 157.269911 C 210.998453 157.269911 212.99784 156.022142 212.99784 150.274761 C 214.000265 147.771032 216.248211 144.022265 216.4995 142.523304 C 216.750789 141.021613 217.999041 138.771806 219.247292 137.524038 C 220.501006 136.270808 221.5007 135.023039 222.000547 138.523345 C 222.500394 142.02092 223.751377 144.77311 224.248493 144.519188 C 224.751071 144.270726 238.498226 122.520778 242.751022 120.270972 C 245.750104 119.023203 245.250257 121.021817 244.998968 123.023162 C 244.75041 125.021776 245.250257 130.272235 245.250257 130.272235 C 245.250257 130.272235 252.750692 119.023203 255.752505 116.770666 C 258.748855 114.52086 260.251127 114.52086 260.251127 114.52086 L 260.748242 127.271583 C 260.748242 127.271583 262.74763 127.520044 264.749749 124.773315 C 266.749136 122.023855 272.250184 119.023203 272.750031 119.023203 C 273.249878 119.023203 273.749725 121.273009 273.749725 121.273009 L 272.250184 129.772581 C 272.250184 129.772581 275.749112 127.773967 277.251384 125.772622 C 278.748194 123.774007 280.750313 122.272316 281.998564 122.023855 C 283.249547 121.769932 283.997952 123.520085 283.997952 123.520085 L 283.249547 130.272235 C 283.249547 130.272235 286.000071 127.773967 286.999765 127.023121 C 287.999458 126.272275 292.252254 123.774007 292.997927 123.774007 C 293.749064 123.774007 292.252254 131.02308 292.252254 131.02308 C 292.252254 131.02308 296.999434 126.520737 298.501706 126.272275 L 301.500788 125.772622 L 300.998209 130.021043 C 300.998209 130.021043 304.24858 126.023814 306.247968 125.272968 C 308.250087 124.522123 310.000916 123.774007 310.000916 123.774007 L 309.749627 127.773967 C 309.749627 127.773967 316.250368 122.023855 318.001198 121.273009 C 319.752028 120.522164 322.49982 120.770625 322.49982 120.770625 C 322.49982 120.770625 327.498289 115.522897 328.249426 114.52086 C 329.000562 113.521552 330.999949 110.023977 332.748048 109.770055 C 334.498878 109.521593 339.500078 111.271746 340.74833 109.770055 C 342.002044 108.273824 343.001738 109.273132 345.249683 109.521593 C 347.50036 109.770055 348.748611 110.772092 351.250577 111.522938 C 353.749812 112.273784 359.999264 117.27305 361.250247 117.27305 C 362.50123 117.27305 363.500924 120.02251 366.748563 121.769932 C 369.998933 123.520085 373.500593 130.520696 376.248385 131.271542 C 378.998909 132.022387 382.500569 138.272153 384.497225 139.022998 C 386.502075 139.773844 389.501157 145.021572 390.498119 145.270034 C 391.497813 145.523956 392.751527 146.020879 392.751527 148.022224 L 392.751527 153.269952 C 372.123966 156.31702 339.292491 151.279529 311.795449 156.104053 C 297.622194 158.591399 282.279899 159.967494 267.72971 161.769524 C 246.700632 164.371545 224.838476 170.77148 203.500749 176.521592 Z M 203.500749 176.521592 " transform="matrix(-1.430125,0,0,1.430679,700.820651,-136.350364)"/>
<path style="fill-rule:nonzero;fill:rgb(96.078432%,95.294118%,95.294118%);fill-opacity:1;stroke-width:0.818605;stroke-linecap:butt;stroke-linejoin:miter;stroke:rgb(0%,0%,0%);stroke-opacity:1;stroke-miterlimit:4;" d="M 415.498659 143.271419 C 415.498659 143.271419 422.499247 137.524038 428.748699 132.524771 C 434.998151 127.520044 438.748368 121.273009 447.251228 114.023936 C 455.751357 106.772133 467.250567 103.52302 471.000785 100.770829 C 474.751002 98.021369 474.99956 96.273947 479.249625 96.522409 C 483.499689 96.77087 486.250213 102.024059 486.250213 102.024059 C 486.250213 102.024059 486.001655 102.772174 486.747328 106.520941 C 487.498464 110.272439 486.49877 125.272968 486.49877 127.023121 C 486.49877 128.773274 482.248706 143.773803 482.248706 145.523956 C 482.248706 147.271378 475.750696 153.523874 476.75039 155.77095 C 477.750084 158.020757 474.248424 161.523793 474.99956 163.020023 C 475.750696 164.521714 474.99956 168.770135 476.75039 171.273864 C 478.498489 173.772132 485.250519 181.023935 487.249906 187.27097 C 489.249294 193.520735 486.747328 202.519961 487.752485 204.772498 C 488.752179 207.022304 489.500583 218.522528 487.001349 219.022181 C 484.499383 219.521835 482.999842 222.770949 479.498182 222.020103 C 475.999254 221.274718 472.249036 222.020103 468.998666 220.26995 C 465.751027 218.522528 457.248167 215.270684 449.501905 212.270032 C 441.750181 209.27211 432.498916 203.77319 432.498916 203.77319 C 434.66492 203.584796 435.683733 198.697474 437.40998 196.046307 C 439.149885 193.365106 442.334702 190.913253 442.569602 187.19179 C 442.886445 182.187063 444.407837 175.661532 442.154429 169.723026 C 439.898289 163.768138 437.341695 156.267874 432.7584 150.089097 C 430.942016 147.645436 424.864643 144.702121 421.360251 143.549915 C 418.773612 142.700777 418.508666 143.940354 415.498659 143.271419 Z M 415.498659 143.271419 " transform="matrix(-1.430125,0,0,1.430679,700.820651,-136.350364)"/>
<path style="fill-rule:nonzero;fill:rgb(96.078432%,95.294118%,95.294118%);fill-opacity:1;stroke-width:0.818605;stroke-linecap:butt;stroke-linejoin:miter;stroke:rgb(0%,0%,0%);stroke-opacity:1;stroke-miterlimit:4;" d="M 398.249843 211.521917 C 398.249843 211.521917 399.000979 215.521876 400.497789 217.771682 C 402.000061 220.021489 406.001568 222.770949 405.250431 225.771601 C 404.499295 228.772252 404.499295 234.770826 403.248312 239.521631 C 402.000061 244.272435 401.000367 249.02324 400.751809 251.273047 C 400.497789 253.520123 402.000061 253.271661 398.498401 258.022466 C 394.999473 262.77327 391.000698 269.271498 386.248055 269.773882 C 381.500875 270.270805 382.500569 270.270805 377.999215 269.519959 C 373.500593 268.771844 371.247185 268.771844 369.501818 269.773882 C 367.750988 270.773189 364.997733 271.772496 363.246903 271.270112 C 361.501536 270.773189 358.499723 268.520652 354.998063 268.771844 C 351.499135 269.023036 353.249965 271.02165 348.500054 268.020998 C 343.750142 265.023077 343.001738 262.522078 339.000231 261.023118 C 335.001456 259.521426 337.50069 255.521467 333.747741 257.023158 C 344.717059 249.989783 355.04996 242.369383 365.721555 233.539439 C 375.508175 225.443959 386.521195 218.609899 398.249843 211.521917 Z M 398.249843 211.521917 " transform="matrix(-1.430125,0,0,1.430679,700.820651,-136.350364)"/>
<path style="fill-rule:nonzero;fill:rgb(96.078432%,95.294118%,95.294118%);fill-opacity:1;stroke-width:0.818605;stroke-linecap:butt;stroke-linejoin:miter;stroke:rgb(0%,0%,0%);stroke-opacity:1;stroke-miterlimit:4;" d="M 290.501424 270.270805 C 288.999152 272.27215 294.748757 269.773882 302.000635 270.773189 C 309.24978 271.772496 316.750215 272.523341 318.249756 274.270764 C 319.752028 276.020917 324.750497 276.523301 325.250344 279.27003 C 325.750191 282.022221 323.750803 289.274024 318.749603 290.022139 C 313.751134 290.772984 310.500763 291.021446 305.750852 292.020753 C 300.998209 293.02006 301.249498 291.021446 298.501706 293.273983 C 295.751183 295.521059 285.251666 301.522363 275.749112 300.523056 C 266.24929 299.521018 263.00165 297.522404 256.001062 298.521711 C 249.000474 299.521018 243.248138 297.522404 239.751941 298.273249 C 236.250281 299.021364 236.250281 297.522404 236.250281 297.522404 C 250.43173 293.306747 263.028964 287.433769 274.610117 279.58129 C 279.638631 276.171086 285.655914 273.702852 290.501424 270.270805 Z M 290.501424 270.270805 " transform="matrix(-1.430125,0,0,1.430679,700.820651,-136.350364)"/>
<path style="fill-rule:evenodd;fill:rgb(95.294118%,81.176472%,78.039217%);fill-opacity:1;stroke-width:0.873178;stroke-linecap:butt;stroke-linejoin:miter;stroke:rgb(0%,0%,0%);stroke-opacity:1;stroke-miterlimit:4;" d="M 242.242981 239.019247 C 244.313385 238.503211 245.605339 239.27863 248.19471 240.572815 C 250.78135 241.866999 254.403191 244.195986 257.252045 244.195986 C 260.098168 244.195986 268.636537 243.67995 271.225907 242.642418 C 273.815278 241.607616 291.410982 234.620657 293.740869 233.326472 C 296.068025 232.032287 310.820338 224.007796 311.858271 224.007796 C 312.890742 224.007796 329.194491 215.988765 331.524379 215.988765 C 333.854266 215.988765 335.405704 215.729382 335.405704 215.729382 C 335.405704 215.729382 334.889468 219.609206 332.816333 221.419427 C 330.751391 223.235108 327.902537 224.526562 325.832133 226.596165 C 323.758998 228.665769 321.434573 230.222067 319.620921 232.807706 C 317.81 235.396076 313.409708 239.019247 312.117754 240.832198 C 310.820338 242.642418 308.233698 242.642418 306.422777 243.67995 C 304.611857 244.712021 302.541453 244.195986 301.503519 246.524972 C 300.468317 248.856689 296.586992 249.629377 288.308107 249.369994 C 280.023759 249.110611 279.764276 248.07854 276.142434 249.110611 C 272.517861 250.148143 275.626199 249.369994 270.706941 252.736513 C 265.790414 256.097571 264.49846 257.653869 262.687539 257.653869 C 260.876618 257.653869 259.319718 259.464089 259.838685 256.356954 C 260.357651 253.255279 259.838685 254.546733 256.214112 252.217747 C 252.59227 249.88876 253.884224 250.926292 249.746148 249.629377 C 245.605339 248.337923 241.983498 248.337923 241.205048 246.524972 C 240.429329 244.712021 238.618408 242.901801 239.134644 242.123652 C 239.65361 241.348233 242.242981 239.019247 242.242981 239.019247 Z M 242.242981 239.019247 " transform="matrix(-1.430125,0,0,1.430679,700.820651,-136.350364)"/>
<path style="fill-rule:nonzero;fill:rgb(92.156863%,80.000001%,77.254903%);fill-opacity:1;stroke-width:0.818605;stroke-linecap:butt;stroke-linejoin:miter;stroke:rgb(0%,0%,0%);stroke-opacity:1;stroke-miterlimit:4;" d="M 11.232223 205.393214 C 11.232223 205.393214 8.498088 202.53454 8.498088 201.999392 C 9.197327 199.558462 8.470774 197.273161 9.675323 196.336651 C 13.537528 193.327808 22.499264 198.226052 27.503196 200.224666 C 35.762961 203.520196 39.354757 202.60826 46.216044 204.511312 C 64.590198 209.606141 67.168643 206.075801 74.365892 206.53996 C 77.676353 206.752927 70.271518 218.031993 72.721587 224.109747 C 72.986533 224.773221 71.077282 225.537718 71.24936 226.250339 C 67.750432 227.001185 59.75015 226.749993 55.751375 226.001878 C 51.749868 225.251032 51.50131 224.000533 46.999957 223.749341 C 42.501335 223.500879 42.99845 222.498842 38.002712 222.750034 C 33.001512 223.001226 29.499852 221.747996 25.501077 220.99715 C 21.49957 220.251766 17.752084 221.251073 15.498676 219.001266 C 13.250731 216.74873 11.000054 215.500961 10.00036 213.99927 C 9.000666 212.500309 9.000666 209.499657 8.752109 207.997966 C 8.692018 207.664863 10.601269 205.925632 10.601269 205.925632 Z M 11.232223 205.393214 " transform="matrix(-1.430125,0,0,1.430679,574.969738,-14.711066)"/>
<path style="fill-rule:nonzero;fill:rgb(92.156863%,80.000001%,77.254903%);fill-opacity:1;stroke-width:0.818605;stroke-linecap:butt;stroke-linejoin:miter;stroke:rgb(0%,0%,0%);stroke-opacity:1;stroke-miterlimit:4;" d="M 11.966971 205.12018 C 30.66343 210.346065 22.769673 211.855947 28.844315 213.387672 C 35.872217 215.156937 51.405711 215.405399 50.56717 214.212237 " transform="matrix(-1.430125,0,0,1.430679,574.969738,-14.711066)"/>
<path style="fill-rule:nonzero;fill:rgb(92.156863%,80.000001%,77.254903%);fill-opacity:1;stroke-width:0.818605;stroke-linecap:butt;stroke-linejoin:miter;stroke:rgb(0%,0%,0%);stroke-opacity:1;stroke-miterlimit:4;" d="M 57.955618 213.742617 C 59.138315 213.758999 60.755307 217.77261 60.069724 218.294106 C 60.069724 218.294106 59.119196 219.97054 56.013589 223.287912 " transform="matrix(-1.430125,0,0,1.430679,574.969738,-14.711066)"/>
<path style="fill-rule:nonzero;fill:rgb(98.039216%,94.117647%,94.117647%);fill-opacity:1;stroke-width:0.818605;stroke-linecap:butt;stroke-linejoin:miter;stroke:rgb(0%,0%,0%);stroke-opacity:1;stroke-miterlimit:4;" d="M 119.791415 246.765243 C 118.507655 247.879225 113.22512 248.971364 116.322532 247.865573 C 116.923441 247.652606 123.161968 241.135266 125.032979 241.880651 C 125.912491 242.232866 129.419614 239.155764 131.208683 239.461563 C 131.907923 239.578968 131.490018 241.880651 132.145555 242.129113 C 133.538571 242.666991 136.74797 240.703871 137.19592 241.189873 C 137.917011 241.981674 135.22931 245.181641 134.614744 245.87788 C 134.073926 246.489478 133.18622 248.411642 130.452084 247.933832 C 129.378643 247.748168 126.860288 244.632841 125.71583 244.77755 C 122.402637 245.192563 120.782915 245.907914 119.791415 246.765243 Z M 171.057134 224.993451 C 171.45865 221.383932 168.795532 218.46246 166.626797 217.605131 C 161.133944 215.420853 147.7009 223.213265 142.00046 225.020755 C 143.999847 223.521794 154.502095 214.022915 155.998905 211.521917 C 156.364913 210.91578 157.583119 209.632516 159.282052 208.01615 C 160.246238 209.283032 162.570662 208.349253 163.90905 208.332871 C 163.780674 208.870749 171.644386 206.429819 172.980042 205.799108 C 173.703864 205.457815 172.851666 208.043454 173.564563 208.846176 C 174.274728 209.640707 175.260765 212.103481 176.500822 212.895282 C 179.275928 214.659086 182.870456 215.278875 185.850417 216.947117 C 188.939635 218.680888 189.169073 221.075403 189.311106 221.883586 C 189.988494 225.774331 193.796071 231.232296 192.310187 233.54763 C 190.62218 236.179685 185.702921 236.725755 182.933278 236.933261 C 180.223725 237.138037 177.746342 237.547589 176.301429 236.428147 C 170.472614 231.931265 175.479277 229.389311 171.82739 227.868507 C 170.275953 227.221415 170.99158 225.577746 171.057134 224.993451 Z M 192.105332 187.82523 C 196.909871 186.468248 201.026097 191.735088 205.016678 195.631294 C 207.999371 198.552766 211.476448 200.133637 212.006341 200.696089 C 213.473104 202.271499 211.774171 205.643478 208.392693 205.078297 C 205.319864 204.55953 206.458859 203.37729 202.222452 200.382099 C 197.25676 196.873602 192.99577 192.37945 183.220075 193.354184 C 181.704146 194.307075 179.852254 193.916636 178.000363 193.520735 C 180.988518 192.526889 185.959673 189.545349 189.988494 186.776777 C 189.988494 186.776777 190.813378 188.21567 192.105332 187.82523 Z M 312.278907 180.644416 C 318.711363 183.118111 316.957802 190.432712 319.806656 194.727549 C 329.374764 209.168357 323.603308 219.186002 317.728058 215.603786 C 314.936563 213.897319 314.32746 210.724655 311.230048 200.518616 C 310.462524 197.984854 309.400008 197.053805 305.939319 193.171251 C 303.437353 190.364454 300.774234 188.491435 299.285619 184.589769 C 296.794579 178.039665 308.916549 179.347501 312.278907 180.644416 Z M 348.134046 182.118804 C 351.813247 185.236861 355.732811 196.059959 354.618398 204.564991 C 353.700647 211.54649 349.374103 211.674816 345.733142 200.267424 C 344.064254 195.038809 338.850004 186.694867 338.445756 184.28943 C 336.95441 175.342081 345.836935 180.166606 348.134046 182.118804 Z M 325.422423 171.380347 C 321.710445 171.552359 321.270689 165.892349 319.626384 165.733988 C 317.372975 165.521021 317.06979 160.966802 315.111373 160.614587 C 312.795143 160.196844 310.702887 160.707419 308.878309 160.071248 C 307.507145 159.593437 307.326872 157.242608 304.85222 156.904044 C 302.295626 156.55183 300.479243 157.319057 299.274694 156.213267 C 298.234029 155.254915 299.517788 153.127974 299.588805 151.893857 C 299.687135 150.105479 295.655583 153.316368 295.734794 151.923891 C 295.849513 149.881591 296.253761 148.330753 295.928724 147.04476 C 294.609456 141.791571 287.335727 142.949238 285.156067 145.614057 C 283.907815 147.134861 281.419507 152.767568 279.649557 153.635818 C 278.920272 153.993494 277.803128 152.93958 277.084769 153.316368 C 275.02529 154.389394 273.910877 159.028255 271.922415 160.24872 C 271.624692 160.428923 276.48386 160.587283 277.581884 162.430268 C 278.087194 163.276676 280.048342 163.331283 281.403118 164.289635 C 282.249853 164.88485 281.81556 165.253447 282.506605 165.496448 C 283.588241 165.878697 283.047423 167.3995 283.047423 167.3995 C 283.724811 168.791978 287.455909 169.905959 287.338459 173.277939 C 287.278368 175.071777 289.706586 176.813739 290.348466 177.176875 C 290.719937 177.387112 285.789753 177.68745 281.108127 178.1598 C 277.702066 178.503824 274.252303 179.109961 273.924534 178.989826 C 273.146084 178.7086 274.637431 173.204219 270.980081 172.685453 C 268.467189 172.327778 269.551557 169.712105 267.003157 166.645925 C 265.498154 164.835704 261.985568 164.513523 259.931552 164.314208 C 259.046578 164.226837 253.687563 166.665037 253.89515 165.698494 C 254.097274 164.770176 257.986793 159.869202 256.154021 158.602321 C 255.378302 158.061712 253.780431 158.921771 253.149477 158.44123 C 252.343713 157.829632 253.479977 154.722497 252.682407 154.637856 C 251.865717 154.547755 250.923383 155.787332 250.12035 156.360705 C 249.216255 157.007798 249.866329 153.813291 249.410185 153.64401 C 247.670281 152.991456 248.514284 154.561406 247.929764 154.416698 C 247.244182 154.247416 244.10853 159.836438 243.439336 159.809134 C 242.22113 159.757258 242.88213 157.411889 242.480613 157.428271 C 241.805957 157.455575 241.396246 159.508796 240.735246 159.724494 C 239.476069 160.125855 237.976528 155.402353 237.148913 155.92658 C 235.105823 157.223495 233.19384 161.370893 231.46213 165.414538 C 230.762891 167.047286 229.834213 168.423381 229.200528 170.604928 C 229.287933 170.842469 230.847564 170.69776 232.030262 171.964642 C 233.863034 173.930492 233.688224 176.068354 236.217504 179.058084 C 237.697925 180.810968 243.963766 182.55839 245.676356 184.215711 C 248.33128 186.782238 250.508209 188.668908 251.581651 189.225899 C 253.261464 190.088689 259.07116 197.026502 262.042928 200.663325 C 263.228357 202.113139 266.50331 206.388863 268.043822 209.214773 C 269.603453 212.073447 273.555795 219.945039 273.804353 220.551176 C 277.448045 229.506716 270.059598 228.633005 267.571289 224.343629 C 266.959455 223.281524 265.741248 221.774372 263.648993 218.940271 C 261.838072 216.485689 260.363114 214.173084 259.355226 212.854326 C 255.110625 207.319912 251.95039 204.024382 250.08211 202.607332 C 246.279996 199.724085 242.22113 196.130948 238.754978 192.920059 C 236.479719 190.814961 233.109167 187.737859 229.948932 186.604765 C 227.930425 185.878493 223.972621 181.365228 220.651234 179.148186 C 217.013004 176.723637 211.088589 177.425337 208.346259 175.587813 C 206.841256 174.725023 205.202414 175.601464 203.500749 176.521592 C 204.997558 175.522284 206.002715 157.021449 206.999677 155.522489 C 207.999371 154.020797 209.750201 151.770991 209.750201 151.770991 L 210.998453 157.269911 C 210.998453 157.269911 212.99784 156.022142 212.99784 150.274761 C 214.000265 147.771032 216.248211 144.022265 216.4995 142.523304 C 216.750789 141.021613 217.999041 138.771806 219.247292 137.524038 C 220.501006 136.270808 221.5007 135.023039 222.000547 138.523345 C 222.500394 142.02092 223.751377 144.77311 224.248493 144.519188 C 224.751071 144.270726 238.498226 122.520778 242.751022 120.270972 C 245.750104 119.023203 245.250257 121.021817 244.998968 123.023162 C 244.75041 125.021776 245.250257 130.272235 245.250257 130.272235 C 245.250257 130.272235 252.750692 119.023203 255.752505 116.770666 C 258.748855 114.52086 260.251127 114.52086 260.251127 114.52086 L 260.748242 127.271583 C 260.748242 127.271583 262.74763 127.520044 264.749749 124.773315 C 266.749136 122.023855 272.250184 119.023203 272.750031 119.023203 C 273.249878 119.023203 273.749725 121.273009 273.749725 121.273009 L 272.250184 129.772581 C 272.250184 129.772581 275.749112 127.773967 277.251384 125.772622 C 278.748194 123.774007 280.750313 122.272316 281.998564 122.023855 C 283.249547 121.769932 283.997952 123.520085 283.997952 123.520085 L 283.249547 130.272235 C 283.249547 130.272235 286.000071 127.773967 286.999765 127.023121 C 287.999458 126.272275 292.252254 123.774007 292.997927 123.774007 C 293.749064 123.774007 292.252254 131.02308 292.252254 131.02308 C 292.252254 131.02308 296.999434 126.520737 298.501706 126.272275 L 301.500788 125.772622 L 300.998209 130.023773 C 300.998209 130.023773 304.24858 126.023814 306.247968 125.272968 C 308.250087 124.522123 310.000916 123.774007 310.000916 123.774007 L 309.749627 127.773967 C 309.749627 127.773967 316.250368 122.023855 318.001198 121.273009 C 319.752028 120.522164 322.49982 120.770625 322.49982 120.770625 C 322.49982 120.770625 327.498289 115.522897 328.249426 114.52086 C 329.303747 113.589811 317.594219 139.407977 319.844896 139.230505 C 320.934726 139.143134 328.088273 129.286579 329.112549 130.47428 C 329.112549 130.47428 329.964747 135.708357 330.909813 135.479007 C 332.38204 135.126793 335.501303 131.069496 335.501303 131.069496 C 335.501303 131.069496 336.006612 138.050995 336.989918 137.717892 C 338.418442 137.237351 338.582326 133.436707 340.232094 132.524771 C 341.330119 131.915904 341.095218 142.435933 342.198705 141.854369 C 344.506741 140.639364 342.966229 147.653627 346.268497 147.186738 C 348.229645 146.910972 350.761656 130.689978 352.649056 131.17871 C 353.681527 131.588262 352.804746 137.750656 354.806865 137.786151 C 355.527956 137.794342 354.364378 142.6489 356.623249 142.763575 C 358.024459 142.834564 360.45814 135.820301 361.389548 136.977968 C 363.225052 139.249617 361.171036 141.267344 362.654188 141.78611 C 363.459953 141.843447 364.803803 139.074875 366.491811 138.908324 C 368.502124 138.711739 368.04598 142.96562 368.04598 142.96562 C 369.184975 142.673473 370.583454 145.974463 372.418957 146.539645 C 373.500593 146.872748 375.10939 142.053684 376.193757 142.482349 C 376.816517 142.722619 376.690873 148.516417 377.630476 149.425623 C 378.695723 150.446773 380.837144 146.596983 381.615594 146.839983 C 383.139717 147.312334 381.353379 149.144397 381.954288 149.791489 C 382.656259 150.553256 380.845338 153.316368 381.577354 154.034449 C 382.298445 154.741609 385.573398 153.398278 385.614369 154.736149 C 385.753671 155.77095 389.460186 155.211229 390.667466 156.439885 C 393.027399 158.842591 393.5928 162.91627 393.5928 162.91627 C 394.739989 167.025443 397.452273 175.658802 397.028906 179.303816 C 396.113886 187.232745 391.986734 191.849763 388.867471 189.007471 C 386.797067 187.120801 385.174613 181.946792 385.22651 172.275901 C 385.231973 171.058166 382.077201 158.610512 379.728194 157.379125 C 378.86507 156.923157 377.526682 157.256259 376.764621 157.067865 C 374.956431 156.611897 373.850213 156.183233 371.689672 156.680156 C 370.924879 156.854898 375.106659 152.633781 370.239297 153.076097 C 369.075719 153.182581 367.608955 154.583249 366.502736 154.818059 C 365.339158 155.069251 367.114571 149.914355 365.981038 150.160086 C 363.678465 150.65974 361.95768 153.977112 359.81626 154.416698 C 358.813835 154.624204 358.352227 150.558717 357.393505 150.760763 C 355.53615 151.156663 353.889113 154.124551 352.217494 154.484957 C 351.531912 154.632395 358.215657 157.18254 358.983182 158.929962 C 360.135834 161.537444 365.464803 167.413152 366.486348 170.544861 C 367.182856 172.682723 369.684822 180.057392 368.663277 185.515356 C 368.272686 187.58496 365.503043 185.952212 364.489692 184.253936 C 362.624143 181.124958 362.146147 174.765978 361.195619 173.411726 C 358.868463 170.094353 353.252696 162.088974 348.581996 157.936116 C 346.126464 155.754568 341.870937 156.412582 340.721016 155.050139 C 340.191123 154.419428 337.24667 155.811905 336.812377 155.077442 C 335.752592 153.289064 336.413592 152.338903 335.998418 149.87886 C 335.771712 148.530069 333.523766 151.186697 332.38204 151.391473 C 331.532573 151.541642 332.551387 146.007227 331.822102 146.173779 C 331.016338 146.359442 329.511334 149.523915 328.869454 149.71777 C 327.938046 150.004456 326.381145 153.542987 325.545336 153.780527 C 324.7942 153.993494 326.154439 149.813332 325.498902 150.045411 C 324.698601 150.323907 323.972047 148.677507 323.324704 148.988767 C 321.251569 149.982613 320.385714 153.829673 320.142619 155.123858 C 320.006049 155.858321 323.797237 156.112244 324.928038 157.239877 C 326.54503 158.856243 330.778706 161.163387 329.453975 163.577014 C 329.453975 163.577014 339.306148 170.951683 336.031195 170.875233 C 332.081585 170.779671 325.422423 171.380347 325.422423 171.380347 Z M 396.99886 154.27472 L 403.248312 151.770991 C 403.248312 151.770991 408.24405 149.275453 412.958453 145.485731 C 415.52051 143.555375 416.151464 150.512301 416.151464 150.512301 C 416.296229 152.854939 415.659812 155.492455 416.047671 157.73134 C 417.839472 168.005638 409.880161 168.382426 405.332374 160.980453 Z M 396.99886 154.27472 " transform="matrix(-1.430125,0,0,1.430679,700.820651,-136.350364)"/>
<path style="fill-rule:nonzero;fill:rgb(24.705882%,9.019608%,9.019608%);fill-opacity:1;stroke-width:0.818605;stroke-linecap:butt;stroke-linejoin:miter;stroke:rgb(0%,0%,0%);stroke-opacity:1;stroke-miterlimit:4;" d="M 40.551112 178.360043 C 40.731385 179.730678 41.640942 184.271246 42.640636 185.270553 C 43.64033 186.26986 48.182655 187.727866 50.818459 187.820697 C 53.448801 187.908069 55.639387 187.359269 58.728605 187.550393 C 61.820554 187.727866 61.449083 189.000208 64.358028 188.178373 C 67.269705 187.359269 69.820836 187.359269 74.180156 185.450756 C 78.550403 183.550434 79.088489 183.449411 80.271187 181.180492 C 81.451154 178.908843 82.819587 177.819434 83.641739 175.640617 C 84.450235 173.450878 85.728532 172.181267 85.550991 170.641351 C 85.359792 169.087783 86.001672 165.268027 84.909111 163.550638 C 83.822012 161.822328 79.820505 156.18143 78.091527 155.818294 C 76.359817 155.449697 70.730393 154.447659 68.550733 154.551413 C 66.360147 154.638784 63.639669 154.270187 61.640281 155.00192 C 59.640894 155.730923 57.35744 156.910433 55.45092 158.551372 C 53.549863 160.181389 51.179005 165.090554 49.911633 165.822287 C 48.638799 166.55129 43.910739 173.000371 42.911045 173.360777 C 41.911351 173.729374 41.089199 175.089087 40.911658 175.359391 C 40.731385 175.640617 40.359914 177.00033 40.551112 178.360043 Z M 40.551112 178.360043 " transform="matrix(-1.430125,0,0,1.430679,574.969738,-14.711066)"/>
<path style="fill:none;stroke-width:0.818605;stroke-linecap:butt;stroke-linejoin:miter;stroke:rgb(0%,0%,0%);stroke-opacity:1;stroke-miterlimit:4;" d="M 47.177498 189.450715 C 48.089787 190.179718 50.818459 192.549659 52.091294 192.819964 C 53.361396 193.090268 54.819966 194.179677 56.999626 194.179677 C 59.179287 194.179677 63.358334 193.450674 66.819023 193.090268 C 70.271518 192.732593 72.35831 192.090961 73.819611 191.091654 C 75.269987 190.089616 80.271187 188.178373 81.270881 186.998863 C 82.270575 185.819353 85.17952 183.550434 85.550991 181.641921 C 85.908805 179.730678 86.638089 178.450145 86.730957 177.909536 " transform="matrix(-1.430125,0,0,1.430679,574.969738,-14.711066)"/>
<path style="fill-rule:nonzero;fill:rgb(9.019608%,2.745098%,2.745098%);fill-opacity:1;stroke-width:0.818605;stroke-linecap:butt;stroke-linejoin:miter;stroke:rgb(0%,0%,0%);stroke-opacity:1;stroke-miterlimit:4;" d="M 53.448801 171.730759 C 52.449107 172.637235 51.640612 173.999678 51.0916 174.450186 C 50.54805 174.908884 49.818766 175.359391 49.548357 176.271327 C 49.269753 177.180533 48.999344 178.908843 49.818766 179.550475 C 50.640918 180.178455 50.998732 180.910188 53.727404 180.910188 C 56.450614 180.910188 58.911609 180.178455 59.640894 180.271287 C 60.359253 180.358658 62.178368 180.451489 63.729805 179.820779 C 65.270317 179.179148 68.821142 178.17984 69.271824 177.450838 C 69.727968 176.730026 71.907628 174.450186 71.907628 173.180574 C 71.907628 171.908232 72.35831 171.179229 71.730087 169.642044 C 71.090939 168.088476 70.550121 165.909658 69.178956 165.268027 C 67.821448 164.642777 67.269705 163.359514 65.357722 163.452346 C 63.451202 163.550638 62.090963 163.452346 60.640588 164.26872 C 59.179287 165.090554 58.179593 165.268027 57.819047 166.447537 C 57.450308 167.637968 56.819354 169.360818 56.357746 169.729415 C 55.909796 170.089821 54.448495 170.821554 53.448801 171.730759 Z M 53.448801 171.730759 " transform="matrix(-1.430125,0,0,1.430679,574.969738,-14.711066)"/>
<path style=" stroke:none;fill-rule:evenodd;fill:rgb(100%,100%,100%);fill-opacity:1;" d="M 500.023438 221.160156 C 500.023438 221.160156 500.761719 219.863281 498.539062 223.378906 C 496.320312 226.898438 496.878906 225.046875 496.507812 228.011719 C 496.136719 230.972656 497.25 231.34375 495.394531 231.714844 C 493.546875 232.082031 492.066406 232.453125 490.953125 231.714844 C 489.847656 230.972656 488.550781 229.308594 490.210938 229.121094 C 491.882812 228.9375 490.03125 230.042969 491.882812 228.011719 C 493.730469 225.976562 493.175781 226.898438 493.730469 224.492188 C 494.285156 222.085938 492.804688 220.976562 495.027344 220.417969 C 497.25 219.863281 500.023438 221.160156 500.023438 221.160156 Z M 500.023438 221.160156 "/>
<path style="fill:none;stroke-width:0.873178;stroke-linecap:butt;stroke-linejoin:miter;stroke:rgb(0%,0%,0%);stroke-opacity:1;stroke-miterlimit:4;" d="M 222.055175 215.988765 C 224.125579 209.774494 226.198715 202.530882 236.029037 196.835377 C 245.864823 191.142603 258.803483 187.519431 262.428056 185.449828 C 266.049897 183.380225 271.225907 180.791855 280.023759 178.722252 C 288.821611 176.652648 310.563586 173.026747 325.57265 173.545513 C 340.581714 174.064279 357.663914 171.991945 368.53217 173.545513 C 379.400425 175.09635 394.931188 176.133882 401.139669 175.615116 C 407.353612 175.09635 423.914114 172.507981 428.057654 169.922342 " transform="matrix(-1.430125,0,0,1.430679,700.820651,-136.350364)"/>
<path style="fill-rule:nonzero;fill:rgb(27.843139%,14.901961%,14.901961%);fill-opacity:1;stroke-width:0.818605;stroke-linecap:butt;stroke-linejoin:miter;stroke:rgb(0%,0%,0%);stroke-opacity:1;stroke-miterlimit:4;" d="M 203.500749 176.521592 C 204.997558 175.522284 206.516219 167.63158 207.515913 166.129889 C 208.518338 164.633658 208.914391 156.123165 210.009684 158.241915 C 210.009684 158.241915 207.832755 171.601505 211.517419 171.24656 C 211.517419 171.24656 213.781753 166.839779 214.55474 161.141544 C 215.237591 156.076749 217.723169 145.690507 218.07552 146.692545 C 219.102528 149.63859 215.912248 159.547021 216.226359 167.175612 C 216.376587 168.25956 217.116797 167.028173 217.351698 166.951723 C 218.070057 166.727835 219.179007 161.876007 220.714056 157.660351 C 222.046981 153.996224 222.885522 146.946467 225.21541 145.518495 C 226.310702 145.518495 221.904948 164.890311 223.513745 167.279365 C 224.10646 168.166728 229.968052 156.232379 237.345574 143.885747 C 241.262407 137.335644 245.534323 132.66948 245.534323 132.66948 C 248.011706 130.689978 243.996542 137.021654 241.098523 143.216812 C 237.495801 150.921853 234.625096 159.213919 236.42236 160.398889 C 236.42236 160.398889 259.385272 132.696783 261.387391 129.950054 C 263.867505 128.827881 245.673624 155.705422 245.95769 161.045982 C 246.856322 163.126507 271.829548 130.703629 273.831667 131.752083 C 273.831667 131.752083 257.623516 157.466496 260.417742 158.973648 C 262.701196 160.254181 280.422544 133.352067 281.924816 133.103605 C 284.615249 131.432632 268.868706 154.815329 271.7558 156.677426 C 273.853518 157.758643 289.397937 134.296767 291.397325 133.545921 C 291.574866 135.066725 288.182462 140.420936 286.041042 146.50142 C 284.394005 151.181236 283.640138 157.108821 284.907509 157.015989 C 285.893546 156.000299 299.65709 131.282463 300.400032 133.69336 C 300.531139 134.113834 290.621606 156.303368 292.997927 155.708152 C 296.731757 152.581904 303.216109 140.461892 309.56116 131.541846 C 311.850077 128.322766 302.025217 147.235884 306.766934 153.474728 L 311.795449 156.104053 C 307.55631 156.849438 303.207915 157.4938 298.810355 158.078094 C 297.739645 158.222802 296.663471 158.36205 295.581836 158.498567 C 286.308719 159.675347 276.860794 160.63916 267.72971 161.769524 C 248.792888 164.112162 229.178677 169.537363 209.881308 174.793282 C 207.748082 175.372115 205.62305 175.948219 203.500749 176.521592 Z M 203.500749 176.521592 " transform="matrix(-1.430125,0,0,1.430679,700.820651,-136.350364)"/>
<path style="fill-rule:nonzero;fill:rgb(90.196079%,81.960785%,81.960785%);fill-opacity:1;stroke-width:0.818605;stroke-linecap:butt;stroke-linejoin:miter;stroke:rgb(0%,0%,0%);stroke-opacity:1;stroke-miterlimit:4;" d="M 261.556738 129.92548 C 261.52123 129.903638 261.461139 129.911829 261.384659 129.944593 C 259.579201 132.431939 242.352237 153.237188 238.70035 157.643969 C 239.358619 158.75249 240.079709 159.93473 240.735246 159.724494 C 241.393515 159.511526 241.805957 157.455575 242.480613 157.428271 C 242.88213 157.411889 242.22113 159.757258 243.439336 159.809134 C 244.10853 159.836438 247.244182 154.247416 247.929764 154.416698 C 248.413222 154.536833 247.937958 153.499301 248.740991 153.499301 C 253.458125 144.147861 262.430787 130.337763 261.556738 129.92548 Z M 309.853421 131.189631 C 309.798793 131.225126 309.703193 131.3398 309.56116 131.541846 C 304.671948 138.414131 299.706255 147.170356 295.972426 152.265184 C 296.81643 152.431735 299.673478 150.383975 299.588805 151.893857 C 299.517788 153.127974 298.234029 155.254915 299.274694 156.213267 C 300.479243 157.319057 302.295626 156.55183 304.85222 156.904044 C 305.147212 156.945 305.409427 157.015989 305.644327 157.10336 C 307.712 156.78937 309.766016 156.458998 311.795449 156.101322 L 306.766934 153.474728 C 302.32294 147.626324 310.681036 130.638101 309.853421 131.189631 Z M 273.580378 131.752083 C 271.370672 132.388254 260.128214 146.18743 252.676944 154.635126 C 252.676944 154.635126 252.679675 154.635126 252.679675 154.635126 C 253.482708 154.722497 252.343713 157.829632 253.146745 158.443961 C 253.780431 158.921771 255.378302 158.061712 256.154021 158.59686 C 257.388615 159.454189 256.031108 161.944266 254.949472 163.770869 C 259.235044 162.976337 263.498766 162.293751 267.72971 161.769524 C 270.127883 161.471916 272.583415 161.198881 275.019827 160.920386 C 273.413762 160.464418 271.744874 160.355204 271.922415 160.24872 C 273.908146 159.028255 275.02529 154.389394 277.082037 153.316368 C 277.803128 152.93958 278.917541 153.993494 279.649557 153.635818 C 281.419507 152.767568 283.905084 147.134861 285.156067 145.614057 C 285.57124 145.103482 286.174881 144.652975 286.885046 144.289839 C 288.969107 139.159516 291.555746 134.875601 291.397325 133.545921 C 289.397937 134.294037 273.853518 157.758643 271.7558 156.677426 C 268.865974 154.815329 284.615249 131.435363 281.924816 133.103605 C 280.422544 133.352067 262.701196 160.254181 260.417742 158.973648 C 257.623516 157.466496 273.831667 131.757544 273.831667 131.757544 C 273.771576 131.722049 273.684171 131.722049 273.580378 131.752083 Z M 246.17074 132.298152 C 246.05329 132.300883 245.845703 132.421018 245.534323 132.66948 C 245.534323 132.66948 241.262407 137.338374 237.345574 143.885747 C 229.968052 156.232379 224.10646 168.166728 223.508282 167.279365 C 221.902217 164.890311 226.313434 145.518495 225.21541 145.518495 C 222.885522 146.946467 222.046981 153.996224 220.714056 157.660351 C 219.18447 161.876007 218.067326 166.727835 217.351698 166.951723 C 217.116797 167.028173 216.376587 168.25956 216.226359 167.175612 C 215.912248 159.547021 219.097065 149.635859 218.070057 146.689814 C 217.723169 145.690507 215.237591 156.076749 214.549278 161.141544 C 213.781753 166.839779 211.517419 171.24656 211.517419 171.24656 C 207.832755 171.601505 210.006953 158.241915 210.006953 158.241915 C 208.914391 156.123165 208.515606 164.633658 207.515913 166.129889 C 206.516219 167.63158 204.997558 175.522284 203.500749 176.521592 C 205.003021 175.710678 206.450665 174.93526 207.805441 175.355733 C 208.499218 175.167339 209.187532 174.981676 209.881308 174.793282 C 216.420289 173.013095 222.99751 171.219257 229.57473 169.523711 C 230.167445 167.94557 230.888535 166.755138 231.46213 165.414538 C 232.890654 162.080783 234.442092 158.697883 236.086397 156.879471 C 236.725545 153.48838 238.754978 148.235191 241.098523 143.216812 C 243.633266 137.794342 247.025669 132.270849 246.17074 132.298152 Z M 300.296239 133.545921 C 299.591536 133.190976 296.308389 138.239389 292.951494 143.732848 C 294.027667 144.120557 294.953613 144.833178 295.521745 145.966272 C 297.764227 140.169744 300.468317 133.914518 300.400032 133.69336 C 300.378181 133.61691 300.342672 133.570494 300.296239 133.545921 Z M 300.296239 133.545921 " transform="matrix(-1.430125,0,0,1.430679,700.820651,-136.350364)"/>
<path style=" stroke:none;fill-rule:nonzero;fill:rgb(89.019608%,85.09804%,85.09804%);fill-opacity:1;" d="M 71.070312 53.078125 C 61.234375 48.476562 41.449219 31.519531 32.507812 24.363281 C 29.742188 20.699219 17.53125 14.003906 18.054688 15.910156 C 19.308594 20.519531 42.214844 38.058594 76.222656 69.082031 C 78.375 71.042969 10.542969 28.121094 13.511719 34.382812 C 14.804688 37.109375 68.335938 73.398438 68.886719 75.773438 C 69.519531 78.527344 12.003906 44.890625 13.34375 48.175781 C 14.605469 51.253906 63.0625 79.84375 63.898438 82.78125 C 64.515625 84.921875 18.589844 63.796875 19.390625 66.039062 C 20.785156 69.949219 60.125 86.429688 61.082031 90.230469 C 46.078125 90.882812 21.941406 78.390625 24.308594 83.898438 C 25.269531 86.878906 59.46875 94.304688 60.261719 97.265625 C 60.820312 99.355469 26.988281 96.632812 27.597656 98.710938 C 28.125 100.5 58.601562 103.023438 59.074219 104.792969 C 59.523438 106.488281 26.679688 107.058594 27.15625 108.726562 C 27.839844 111.105469 57.359375 110.882812 57.957031 113.21875 C 58.417969 114.996094 24.46875 115.648438 24.960938 117.394531 C 25.644531 119.832031 58.125 117.796875 58.734375 120.164062 C 59.214844 122.035156 10.503906 131.28125 11.050781 133.082031 C 12.117188 136.570312 59.742188 127.367188 60.640625 130.621094 C 60.640625 130.621094 8.324219 146.6875 9.34375 149.289062 C 10.554688 152.378906 62.441406 136.769531 63.574219 139.453125 C 65.992188 145.15625 2.152344 168.84375 14.460938 172.140625 C 19.316406 173.441406 22.660156 169.027344 28.371094 166.605469 C 49.371094 156.089844 52.058594 155.496094 75.269531 144.128906 C 72.78125 140.292969 68.226562 136.785156 67.890625 131.460938 C 67.4375 124.300781 65.261719 114.964844 68.484375 106.46875 C 71.710938 97.949219 75.367188 87.21875 81.921875 78.378906 C 84.519531 74.882812 93.210938 70.671875 98.222656 69.023438 C 101.921875 67.808594 79.253906 56.898438 71.070312 53.078125 Z M 71.070312 53.078125 "/>
<path style="fill:none;stroke-width:0.818605;stroke-linecap:butt;stroke-linejoin:miter;stroke:rgb(0%,0%,0%);stroke-opacity:1;stroke-miterlimit:4;" d="M 415.498659 143.271419 C 415.498659 143.271419 422.499247 137.524038 428.748699 132.524771 C 434.998151 127.520044 438.748368 121.273009 447.251228 114.023936 C 455.751357 106.772133 467.250567 103.52302 471.000785 100.770829 C 474.751002 98.021369 474.99956 96.273947 479.249625 96.522409 C 483.499689 96.77087 486.250213 102.024059 486.250213 102.024059 C 486.250213 102.024059 486.001655 102.772174 486.747328 106.520941 C 487.498464 110.272439 486.49877 125.272968 486.49877 127.023121 C 486.49877 128.773274 482.248706 143.773803 482.248706 145.523956 C 482.248706 147.271378 475.750696 153.523874 476.75039 155.77095 C 477.750084 158.020757 474.248424 161.523793 474.99956 163.020023 C 475.750696 164.521714 474.99956 168.770135 476.75039 171.273864 C 478.498489 173.772132 485.250519 181.023935 487.249906 187.27097 C 489.249294 193.520735 486.747328 202.519961 487.752485 204.772498 C 488.752179 207.022304 489.500583 218.522528 487.001349 219.022181 C 484.499383 219.521835 482.999842 222.770949 479.498182 222.020103 C 475.999254 221.274718 472.249036 222.020103 468.998666 220.26995 C 465.751027 218.522528 457.248167 215.270684 449.501905 212.270032 C 441.750181 209.27211 432.498916 203.77319 432.498916 203.77319 C 434.66492 203.584796 435.683733 198.697474 437.40998 196.046307 C 439.149885 193.365106 442.334702 190.913253 442.569602 187.19179 C 442.886445 182.187063 444.407837 175.661532 442.154429 169.723026 C 439.898289 163.768138 437.341695 156.267874 432.7584 150.089097 C 430.942016 147.645436 424.864643 144.702121 421.360251 143.549915 C 418.773612 142.700777 418.508666 143.940354 415.498659 143.271419 Z M 415.498659 143.271419 " transform="matrix(-1.430125,0,0,1.430679,700.820651,-136.350364)"/>
</g>
</svg>
