<?xml version="1.0" encoding="UTF-8"?>
<!-- Created by grConvert v0.1-0 -->
<svg xmlns="http://www.w3.org/2000/svg" xmlns:xlink="http://www.w3.org/1999/xlink" width="452pt" height="249pt" viewBox="0 0 452 249" version="1.1">
<g id="surface5">
<path style="fill-rule:nonzero;fill:rgb(99.215686%,96.470588%,96.078431%);fill-opacity:1;stroke-width:0.818605;stroke-linecap:butt;stroke-linejoin:miter;stroke:rgb(0%,0%,0%);stroke-opacity:1;stroke-miterlimit:4;" d="M 207.154473 303.316118 C 206.710976 303.52755 205.639761 304.008387 202.99925 305.021214 C 196.500318 307.520885 192.498614 308.271127 190.250427 309.021369 C 187.998828 309.771611 189.250853 311.52104 177.501603 311.52104 C 165.748941 311.52104 162.750221 310.521854 159.250009 311.272096 C 155.749797 312.022338 147.749799 311.773394 143.751506 311.023152 C 139.749801 310.27291 139.500761 309.021369 135.000975 308.772425 C 130.50119 308.523481 130.999271 307.520885 126.001404 307.773239 C 121.000126 308.022183 117.499914 306.770643 113.501621 306.0204 C 109.499916 305.273568 105.750664 306.272754 103.499065 304.022028 C 101.250878 301.771301 98.99928 300.523171 97.999706 299.022686 C 97.000133 297.522202 97.000133 294.521233 96.751093 293.020749 C 96.498641 291.523674 98.501199 290.773432 98.501199 290.773432 C 98.501199 290.773432 96.498641 289.020594 96.498641 287.022221 C 98.501199 280.021097 97.000133 279.021911 100.500345 271.522899 C 104.000558 264.020476 105.999704 264.020476 107.50077 259.522433 C 108.998424 255.02098 113.000129 247.521968 116.500341 244.520999 C 120.000553 241.52344 122.999273 239.521658 123.998846 239.521658 C 124.998419 239.521658 127.000978 237.021987 129.501616 235.023614 C 131.998844 233.021832 139.998842 226.522006 142.0014 225.021521 C 144.000546 223.521037 154.501183 214.023652 155.998837 211.520572 C 157.499903 209.020901 173.499898 195.022063 177.999684 193.521579 C 182.499469 192.021094 191.49904 186.022567 194.999253 183.021598 C 198.499465 180.020629 201.999677 177.520958 203.500743 176.521772 C 204.998397 175.522586 206.001382 157.022294 207.000955 155.52181 C 208.000528 154.021325 209.750634 151.770599 209.750634 151.770599 L 210.999248 157.271238 C 210.999248 157.271238 212.998395 156.023108 212.998395 150.273524 C 214.001379 147.770444 216.249566 144.022643 216.498607 142.522158 C 216.751059 141.021674 217.999673 138.770947 219.248286 137.522817 C 220.500311 136.271276 221.499885 135.023146 222.001377 138.522003 C 222.499458 142.02086 223.751483 144.772885 224.249564 144.520531 C 224.751057 144.271587 238.499454 122.521382 242.750199 120.270656 C 245.748918 119.022526 245.250838 121.020898 244.998386 123.022681 C 244.749345 125.021053 245.250838 130.272749 245.250838 130.272749 C 245.250838 130.272749 252.749343 119.022526 255.751474 116.771799 C 258.750194 114.521072 260.25126 114.521072 260.25126 114.521072 L 260.749341 127.27178 C 260.749341 127.27178 262.748487 127.520724 264.751045 124.772109 C 266.750192 122.023494 272.249551 119.022526 272.751043 119.022526 C 273.249124 119.022526 273.750616 121.273252 273.750616 121.273252 L 272.249551 129.771451 C 272.249551 129.771451 275.749763 127.773078 277.250829 125.771295 C 278.748483 123.772923 280.751041 122.272438 281.999654 122.023494 C 283.248268 121.77114 283.998801 123.520569 283.998801 123.520569 L 283.248268 130.272749 C 283.248268 130.272749 286.001359 127.773078 287.000932 127.022836 C 288.000506 126.272594 292.251251 123.772923 292.998372 123.772923 C 293.748905 123.772923 292.251251 131.022991 292.251251 131.022991 C 292.251251 131.022991 297.000077 126.521538 298.501142 126.272594 L 301.499862 125.771295 L 300.99837 130.020395 C 300.99837 130.020395 304.249542 126.02365 306.248688 125.273407 C 308.251246 124.523165 310.001352 123.772923 310.001352 123.772923 L 309.7489 127.773078 C 309.7489 127.773078 316.251244 122.023494 318.00135 121.273252 C 319.751456 120.52301 322.501136 120.771954 322.501136 120.771954 C 322.501136 120.771954 327.499002 115.523669 328.249535 114.521072 C 329.000068 113.521886 330.999214 110.023029 332.74932 109.770675 C 334.499426 109.521731 339.500704 111.271159 340.749318 109.770675 C 342.001343 108.273601 343.000917 109.272787 345.249104 109.521731 C 347.500702 109.770675 348.749316 110.773271 351.249955 111.523514 C 353.750594 112.273756 360.000485 117.273097 361.249099 117.273097 C 362.501124 117.273097 363.500698 120.021712 366.748458 121.77114 C 369.99963 123.520569 373.499842 130.521693 376.249521 131.271935 C 378.999201 132.022177 382.499413 138.273059 384.498559 139.023301 C 386.501118 139.773543 389.499837 145.021829 390.499411 145.270773 C 391.498984 145.523127 392.751009 146.021015 392.751009 148.022798 L 392.751009 153.271083 C 392.751009 153.271083 392.751009 155.020512 396.998343 154.27368 C 401.249088 154.021325 403.248234 151.770599 403.248234 151.770599 C 403.248234 151.770599 410.248659 148.271742 415.498977 143.2724 C 420.749295 138.273059 422.499402 137.522817 428.749293 132.523475 C 434.999185 127.520724 438.748438 121.273252 447.249928 114.023184 C 455.751418 106.773116 467.251628 103.523203 471.00088 100.771178 C 474.750133 98.022564 474.999174 96.273135 479.249919 96.522079 C 483.500664 96.771023 486.250343 102.022719 486.250343 102.022719 C 486.250343 102.022719 486.001303 102.772961 486.748424 106.520762 C 487.498957 110.271973 486.499384 125.273407 486.499384 127.022836 C 486.499384 128.772264 482.248638 143.773699 482.248638 145.523127 C 482.248638 147.272556 475.749706 153.523437 476.74928 155.770754 C 477.748853 158.021481 474.248641 161.523748 474.999174 163.020822 C 475.749706 164.521306 474.999174 168.770406 476.74928 171.273486 C 478.499386 173.773157 485.25077 181.023225 487.249916 187.270697 C 489.249063 193.521579 486.748424 202.521075 487.751409 204.771802 C 488.750982 207.022528 489.501515 218.521696 487.000876 219.022994 C 484.500237 219.520882 482.999171 222.770795 479.498959 222.020553 C 475.998747 221.273721 472.249494 222.020553 468.998322 220.271124 C 465.750562 218.521696 457.249072 215.271783 449.501526 212.270814 C 441.750569 209.273255 437.748864 204.522858 432.498546 203.772616 C 427.248228 203.022373 428.998334 201.272945 424.498548 201.770833 C 419.998763 202.272131 408.000472 207.022528 405.250792 208.270659 C 402.501113 209.522199 398.250368 211.520572 398.250368 211.520572 C 398.250368 211.520572 399.000901 215.520727 400.498555 217.771453 C 401.999621 220.02218 406.001325 222.770795 405.250792 225.771764 C 404.50026 228.772733 404.50026 234.77126 403.248234 239.521658 C 401.999621 244.272055 401.000047 249.022452 400.751007 251.273179 C 400.498555 253.520495 401.999621 253.271551 398.499408 258.021949 C 394.999196 262.772346 391.000903 269.272172 386.248666 269.77347 C 381.49984 270.271358 382.499413 270.271358 377.999627 269.521116 C 373.499842 268.770874 371.248243 268.770874 369.501549 269.77347 C 367.751443 270.772656 364.998352 271.771843 363.248246 271.270544 C 361.501551 270.772656 358.49942 268.52193 354.999207 268.770874 C 351.498995 269.023228 353.249101 271.0216 348.500275 268.020632 C 343.751449 265.023073 343.000917 262.523402 338.999212 261.022918 C 335.000919 259.522433 337.501558 255.522278 333.748894 257.022763 C 329.999641 258.523247 328.498575 256.770408 327.000921 258.772191 C 325.499855 260.770564 317.250817 260.023731 314.750178 261.77316 C 312.249539 263.522588 291.998799 268.272986 290.501145 270.271358 C 289.000079 272.273141 294.748478 269.77347 302.001355 270.772656 C 309.250819 271.771843 316.749325 272.522085 318.250391 274.271513 C 319.751456 276.020942 324.749323 276.52224 325.250815 279.270855 C 325.748896 282.02288 323.749749 289.272948 318.748471 290.02319 C 313.750605 290.773432 310.499433 291.022376 305.750607 292.021562 C 300.99837 293.020749 301.250822 291.022376 298.501142 293.273103 C 295.751463 295.520419 285.250826 301.522357 275.749763 300.523171 C 266.248699 299.520574 263.000939 297.522202 256.000515 298.521388 C 249.00009 299.520574 243.248279 297.522202 239.751479 298.272444 C 236.251267 299.022686 236.251267 297.522202 236.251267 297.522202 C 236.251267 297.522202 233.999668 297.771146 230.001375 299.27163 C 225.99967 300.772115 227.749776 300.523171 222.001377 301.273413 C 216.249566 302.023655 209.501594 303.271786 208.000528 303.271786 C 207.649142 303.186531 207.297757 303.104686 207.154473 303.316118 Z M 207.154473 303.316118 " transform="matrix(1.14502,0,0,1.145463,-109.125672,-109.167976)"/>
<path style=" stroke:none;fill-rule:nonzero;fill:rgb(92.941176%,69.019608%,63.921569%);fill-opacity:1;" d="M 128.070312 238.269531 C 127.5625 238.511719 126.335938 239.0625 123.3125 240.222656 C 115.871094 243.085938 111.289062 243.945312 108.714844 244.804688 C 106.136719 245.664062 107.570312 247.667969 94.117188 247.667969 C 80.660156 247.667969 77.226562 246.523438 73.21875 247.382812 C 69.210938 248.242188 60.050781 247.957031 55.472656 247.097656 C 50.890625 246.238281 50.605469 244.804688 45.453125 244.519531 C 40.300781 244.234375 40.871094 243.085938 35.148438 243.375 C 29.421875 243.660156 25.414062 242.226562 20.835938 241.367188 C 16.253906 240.511719 11.960938 241.65625 9.382812 239.078125 C 6.808594 236.5 4.230469 235.070312 3.085938 233.351562 C 1.941406 231.632812 1.941406 228.195312 1.65625 226.476562 C 1.367188 224.761719 3.660156 223.902344 3.660156 223.902344 C 3.660156 223.902344 1.367188 221.894531 1.367188 219.605469 C 3.660156 211.585938 1.941406 210.441406 5.949219 201.851562 C 9.957031 193.257812 12.246094 193.257812 13.964844 188.105469 C 15.679688 182.949219 20.261719 174.359375 24.269531 170.921875 C 28.277344 167.488281 31.710938 165.195312 32.855469 165.195312 C 34 165.195312 36.292969 162.332031 39.15625 160.042969 C 42.015625 157.75 51.175781 150.304688 53.46875 148.585938 C 55.757812 146.867188 67.78125 135.988281 69.496094 133.121094 C 71.214844 130.257812 89.535156 114.222656 94.6875 112.503906 C 99.839844 110.785156 110.144531 103.914062 114.152344 100.476562 C 118.160156 97.039062 122.167969 94.175781 123.886719 93.03125 C 125.601562 91.886719 126.75 70.695312 127.894531 68.976562 C 129.039062 67.257812 131.042969 64.679688 131.042969 64.679688 L 132.472656 70.980469 C 132.472656 70.980469 134.761719 69.550781 134.761719 62.964844 C 135.910156 60.097656 138.484375 55.804688 138.769531 54.085938 C 139.058594 52.367188 140.488281 49.789062 141.917969 48.359375 C 143.351562 46.925781 144.496094 45.496094 145.070312 49.503906 C 145.640625 53.511719 147.074219 56.664062 147.644531 56.375 C 148.21875 56.089844 163.960938 31.175781 168.828125 28.597656 C 172.261719 27.167969 171.691406 29.457031 171.402344 31.75 C 171.117188 34.039062 171.691406 40.054688 171.691406 40.054688 C 171.691406 40.054688 180.277344 27.167969 183.714844 24.589844 C 187.148438 22.011719 188.867188 22.011719 188.867188 22.011719 L 189.4375 36.617188 C 189.4375 36.617188 191.726562 36.902344 194.019531 33.753906 C 196.308594 30.605469 202.605469 27.167969 203.179688 27.167969 C 203.75 27.167969 204.324219 29.746094 204.324219 29.746094 L 202.605469 39.480469 C 202.605469 39.480469 206.613281 37.191406 208.332031 34.898438 C 210.046875 32.609375 212.339844 30.890625 213.769531 30.605469 C 215.199219 30.316406 216.058594 32.320312 216.058594 32.320312 L 215.199219 40.054688 C 215.199219 40.054688 218.351562 37.191406 219.496094 36.332031 C 220.640625 35.472656 225.507812 32.609375 226.363281 32.609375 C 227.222656 32.609375 225.507812 40.914062 225.507812 40.914062 C 225.507812 40.914062 230.945312 35.757812 232.664062 35.472656 L 236.097656 34.898438 L 235.523438 39.765625 C 235.523438 39.765625 239.246094 35.1875 241.535156 34.328125 C 243.828125 33.46875 245.832031 32.609375 245.832031 32.609375 L 245.542969 37.191406 C 245.542969 37.191406 252.988281 30.605469 254.992188 29.746094 C 256.996094 28.886719 260.144531 29.171875 260.144531 29.171875 C 260.144531 29.171875 265.867188 23.160156 266.726562 22.011719 C 267.585938 20.867188 269.875 16.859375 271.878906 16.570312 C 273.882812 16.285156 279.609375 18.289062 281.039062 16.570312 C 282.472656 14.855469 283.617188 16 286.191406 16.285156 C 288.769531 16.570312 290.199219 17.71875 293.0625 18.578125 C 295.925781 19.4375 303.082031 25.164062 304.511719 25.164062 C 305.945312 25.164062 307.089844 28.3125 310.808594 30.316406 C 314.53125 32.320312 318.539062 40.339844 321.6875 41.199219 C 324.835938 42.058594 328.84375 49.21875 331.132812 50.078125 C 333.425781 50.9375 336.859375 56.949219 338.003906 57.234375 C 339.148438 57.523438 340.582031 58.09375 340.582031 60.386719 L 340.582031 66.398438 C 340.582031 66.398438 340.582031 68.402344 345.445312 67.546875 C 350.3125 67.257812 352.601562 64.679688 352.601562 64.679688 C 352.601562 64.679688 360.617188 60.671875 366.628906 54.945312 C 372.640625 49.21875 374.644531 48.359375 381.800781 42.632812 C 377.726562 56.027344 386.992188 80.433594 377.523438 92.683594 C 372.417969 99.285156 350.578125 108.316406 341.765625 114.535156 C 330.699219 122.339844 302.8125 146.226562 289.394531 154.597656 C 278.09375 161.648438 264.910156 170.601562 255.210938 176.253906 C 232.246094 189.636719 211.433594 201.261719 192.886719 209.941406 C 171.292969 220.042969 158.128906 228.738281 129.039062 238.21875 C 128.636719 238.121094 128.234375 238.027344 128.070312 238.269531 Z M 128.070312 238.269531 "/>
<path style="fill-rule:nonzero;fill:rgb(54.117647%,17.647059%,17.254902%);fill-opacity:1;stroke-width:0.818605;stroke-linecap:butt;stroke-linejoin:miter;stroke:rgb(0%,0%,0%);stroke-opacity:1;stroke-miterlimit:4;" d="M 155.998837 211.520572 C 157.499903 209.020901 173.499898 195.022063 177.999684 193.521579 C 182.499469 192.021094 191.49904 186.022567 194.999253 183.021598 C 198.499465 180.020629 201.999677 177.520958 203.500743 176.521772 C 204.998397 175.522586 206.001382 157.022294 207.000955 155.52181 C 208.000528 154.021325 209.750634 151.770599 209.750634 151.770599 L 210.999248 157.271238 C 210.999248 157.271238 212.998395 156.023108 212.998395 150.273524 C 214.001379 147.770444 216.249566 144.022643 216.498607 142.522158 C 216.751059 141.021674 217.999673 138.770947 219.248286 137.522817 C 220.500311 136.271276 221.499885 135.023146 222.001377 138.522003 C 222.499458 142.02086 223.751483 144.772885 224.249564 144.520531 C 224.751057 144.271587 238.499454 122.521382 242.750199 120.270656 C 245.748918 119.022526 245.250838 121.020898 244.998386 123.022681 C 244.749345 125.021053 245.250838 130.272749 245.250838 130.272749 C 245.250838 130.272749 252.749343 119.022526 255.751474 116.771799 C 258.750194 114.521072 260.25126 114.521072 260.25126 114.521072 L 260.749341 127.27178 C 260.749341 127.27178 262.748487 127.520724 264.751045 124.772109 C 266.750192 122.023494 272.249551 119.022526 272.751043 119.022526 C 273.249124 119.022526 273.750616 121.273252 273.750616 121.273252 L 272.249551 129.771451 C 272.249551 129.771451 275.749763 127.773078 277.250829 125.771295 C 278.748483 123.772923 280.751041 122.272438 281.999654 122.023494 C 283.248268 121.77114 283.998801 123.520569 283.998801 123.520569 L 283.248268 130.272749 C 283.248268 130.272749 286.001359 127.773078 287.000932 127.022836 C 288.000506 126.272594 292.251251 123.772923 292.998372 123.772923 C 293.748905 123.772923 292.251251 131.022991 292.251251 131.022991 C 292.251251 131.022991 297.000077 126.521538 298.501142 126.272594 L 301.499862 125.771295 L 300.99837 130.020395 C 300.99837 130.020395 304.249542 126.02365 306.248688 125.273407 C 308.251246 124.523165 310.001352 123.772923 310.001352 123.772923 L 309.7489 127.773078 C 309.7489 127.773078 316.251244 122.023494 318.00135 121.273252 C 319.751456 120.52301 322.501136 120.771954 322.501136 120.771954 C 322.501136 120.771954 327.499002 115.523669 328.249535 114.521072 C 329.000068 113.521886 330.999214 110.023029 332.74932 109.770675 C 334.499426 109.521731 339.500704 111.271159 340.749318 109.770675 C 342.001343 108.273601 343.000917 109.272787 345.249104 109.521731 C 347.500702 109.770675 348.749316 110.773271 351.249955 111.523514 C 353.750594 112.273756 360.000485 117.273097 361.249099 117.273097 C 362.501124 117.273097 363.500698 120.021712 366.748458 121.77114 C 369.99963 123.520569 373.499842 130.521693 376.249521 131.271935 C 378.999201 132.022177 382.499413 138.273059 384.498559 139.023301 C 386.501118 139.773543 389.499837 145.021829 390.499411 145.270773 C 391.498984 145.523127 392.751009 146.021015 392.751009 148.022798 L 392.751009 153.271083 C 392.751009 153.271083 392.751009 155.020512 396.998343 154.27368 C 401.249088 154.021325 403.248234 151.770599 403.248234 151.770599 C 399.393225 155.416094 350.717759 154.140682 330.136101 165.401136 C 311.672994 175.505535 310.339092 177.282245 291.715643 183.802532 C 263.209041 193.780753 257.733563 202.715456 237.933142 224.10759 C 219.794128 243.705963 147.763445 233.144599 155.998837 211.520572 Z M 155.998837 211.520572 " transform="matrix(1.14502,0,0,1.145463,-109.125672,-109.167976)"/>
<path style="fill:none;stroke-width:0.818605;stroke-linecap:butt;stroke-linejoin:miter;stroke:rgb(0%,0%,0%);stroke-opacity:1;stroke-miterlimit:4;" d="M 207.389867 302.893254 C 208.351914 302.374905 209.160443 301.75425 209.931445 301.072212 C 211.582617 299.599009 213.34978 296.014897 215.966411 294.65082 C 220.974512 292.042024 225.982613 286.234467 228.295618 280.467832 C 231.911822 271.458105 229.926322 258.339097 230.185597 251.948397 C 231.195404 249.094066 233.699455 245.584979 232.658943 245.445161 C 231.615021 245.305343 229.892206 244.340259 229.308838 243.422917 C 232.027814 238.553163 235.139113 237.383467 233.8905 237.359596 C 232.191566 237.322084 229.677281 236.356999 226.828668 235.559015 C 230.953187 230.395984 233.904146 225.195441 233.174082 225.318208 C 232.174509 225.117007 224.235918 226.985792 222.281121 226.201448 C 220.27174 224.339483 221.305429 222.15014 218.221421 220.472325 M 202.893493 297.644969 C 207.55362 293.897168 210.729739 290.439233 210.821849 284.311118 C 210.900314 279.253804 208.372383 269.388119 205.281552 264.177345 C 200.399678 255.945142 198.233367 249.724952 194.576225 241.850819 M 207.154473 303.316118 C 206.710976 303.52755 205.639761 304.008387 202.99925 305.021214 C 196.500318 307.520885 192.498614 308.271127 190.250427 309.021369 C 187.998828 309.771611 189.250853 311.52104 177.501603 311.52104 C 165.748941 311.52104 162.750221 310.521854 159.250009 311.272096 C 155.749797 312.022338 147.749799 311.773394 143.751506 311.023152 C 139.749801 310.27291 139.500761 309.021369 135.000975 308.772425 C 130.50119 308.523481 130.999271 307.520885 126.001404 307.773239 C 121.000126 308.022183 117.499914 306.770643 113.501621 306.0204 C 109.499916 305.273568 105.750664 306.272754 103.499065 304.022028 C 101.250878 301.771301 98.99928 300.523171 97.999706 299.022686 C 97.000133 297.522202 97.000133 294.521233 96.751093 293.020749 C 96.498641 291.523674 98.501199 290.773432 98.501199 290.773432 C 98.501199 290.773432 96.498641 289.020594 96.498641 287.022221 C 98.501199 280.021097 97.000133 279.021911 100.500345 271.522899 C 104.000558 264.020476 105.999704 264.020476 107.50077 259.522433 C 108.998424 255.02098 113.000129 247.521968 116.500341 244.520999 C 120.000553 241.52344 122.999273 239.521658 123.998846 239.521658 C 124.998419 239.521658 127.000978 237.021987 129.501616 235.023614 C 131.998844 233.021832 139.998842 226.522006 142.0014 225.021521 C 144.000546 223.521037 154.501183 214.023652 155.998837 211.520572 C 157.499903 209.020901 173.499898 195.022063 177.999684 193.521579 C 182.499469 192.021094 191.49904 186.022567 194.999253 183.021598 C 198.499465 180.020629 201.999677 177.520958 203.500743 176.521772 C 204.998397 175.522586 206.001382 157.022294 207.000955 155.52181 C 208.000528 154.021325 209.750634 151.770599 209.750634 151.770599 L 210.999248 157.271238 C 210.999248 157.271238 212.998395 156.023108 212.998395 150.273524 C 214.001379 147.770444 216.249566 144.022643 216.498607 142.522158 C 216.751059 141.021674 217.999673 138.770947 219.248286 137.522817 C 220.500311 136.271276 221.499885 135.023146 222.001377 138.522003 C 222.499458 142.02086 223.751483 144.772885 224.249564 144.520531 C 224.751057 144.271587 238.499454 122.521382 242.750199 120.270656 C 245.748918 119.022526 245.250838 121.020898 244.998386 123.022681 C 244.749345 125.021053 245.250838 130.272749 245.250838 130.272749 C 245.250838 130.272749 252.749343 119.022526 255.751474 116.771799 C 258.750194 114.521072 260.25126 114.521072 260.25126 114.521072 L 260.749341 127.27178 C 260.749341 127.27178 262.748487 127.520724 264.751045 124.772109 C 266.750192 122.023494 272.249551 119.022526 272.751043 119.022526 C 273.249124 119.022526 273.750616 121.273252 273.750616 121.273252 L 272.249551 129.771451 C 272.249551 129.771451 275.749763 127.773078 277.250829 125.771295 C 278.748483 123.772923 280.751041 122.272438 281.999654 122.023494 C 283.248268 121.77114 283.998801 123.520569 283.998801 123.520569 L 283.248268 130.272749 C 283.248268 130.272749 286.001359 127.773078 287.000932 127.022836 C 288.000506 126.272594 292.251251 123.772923 292.998372 123.772923 C 293.748905 123.772923 292.251251 131.022991 292.251251 131.022991 C 292.251251 131.022991 297.000077 126.521538 298.501142 126.272594 L 301.499862 125.771295 L 300.99837 130.020395 C 300.99837 130.020395 304.249542 126.02365 306.248688 125.273407 C 308.251246 124.523165 310.001352 123.772923 310.001352 123.772923 L 309.7489 127.773078 C 309.7489 127.773078 316.251244 122.023494 318.00135 121.273252 C 319.751456 120.52301 322.501136 120.771954 322.501136 120.771954 C 322.501136 120.771954 327.499002 115.523669 328.249535 114.521072 C 329.000068 113.521886 330.999214 110.023029 332.74932 109.770675 C 334.499426 109.521731 339.500704 111.271159 340.749318 109.770675 C 342.001343 108.273601 343.000917 109.272787 345.249104 109.521731 C 347.500702 109.770675 348.749316 110.773271 351.249955 111.523514 C 353.750594 112.273756 360.000485 117.273097 361.249099 117.273097 C 362.501124 117.273097 363.500698 120.021712 366.748458 121.77114 C 369.99963 123.520569 373.499842 130.521693 376.249521 131.271935 C 378.999201 132.022177 382.499413 138.273059 384.498559 139.023301 C 386.501118 139.773543 389.499837 145.021829 390.499411 145.270773 C 391.498984 145.523127 392.751009 146.021015 392.751009 148.022798 L 392.751009 153.271083 C 392.751009 153.271083 392.751009 155.020512 396.998343 154.27368 C 401.249088 154.021325 403.248234 151.770599 403.248234 151.770599 C 403.248234 151.770599 410.248659 148.271742 415.498977 143.2724 C 420.749295 138.273059 422.499402 137.522817 428.749293 132.523475 C 434.999185 127.520724 438.748438 121.273252 447.249928 114.023184 C 455.751418 106.773116 467.251628 103.523203 471.00088 100.771178 C 474.750133 98.022564 474.999174 96.273135 479.249919 96.522079 C 483.500664 96.771023 486.250343 102.022719 486.250343 102.022719 C 486.250343 102.022719 486.001303 102.772961 486.748424 106.520762 C 487.498957 110.271973 486.499384 125.273407 486.499384 127.022836 C 486.499384 128.772264 482.248638 143.773699 482.248638 145.523127 C 482.248638 147.272556 475.749706 153.523437 476.74928 155.770754 C 477.748853 158.021481 474.248641 161.523748 474.999174 163.020822 C 475.749706 164.521306 474.999174 168.770406 476.74928 171.273486 C 478.499386 173.773157 485.25077 181.023225 487.249916 187.270697 C 489.249063 193.521579 486.748424 202.521075 487.751409 204.771802 C 488.750982 207.022528 489.501515 218.521696 487.000876 219.022994 C 484.500237 219.520882 482.999171 222.770795 479.498959 222.020553 C 475.998747 221.273721 472.249494 222.020553 468.998322 220.271124 C 465.750562 218.521696 457.249072 215.271783 449.501526 212.270814 C 441.750569 209.273255 437.748864 204.522858 432.498546 203.772616 C 427.248228 203.022373 428.998334 201.272945 424.498548 201.770833 C 419.998763 202.272131 408.000472 207.022528 405.250792 208.270659 C 402.501113 209.522199 398.250368 211.520572 398.250368 211.520572 C 398.250368 211.520572 399.000901 215.520727 400.498555 217.771453 C 401.999621 220.02218 406.001325 222.770795 405.250792 225.771764 C 404.50026 228.772733 404.50026 234.77126 403.248234 239.521658 C 401.999621 244.272055 401.000047 249.022452 400.751007 251.273179 C 400.498555 253.520495 401.999621 253.271551 398.499408 258.021949 C 394.999196 262.772346 391.000903 269.272172 386.248666 269.77347 C 381.49984 270.271358 382.499413 270.271358 377.999627 269.521116 C 373.499842 268.770874 371.248243 268.770874 369.501549 269.77347 C 367.751443 270.772656 364.998352 271.771843 363.248246 271.270544 C 361.501551 270.772656 358.49942 268.52193 354.999207 268.770874 C 351.498995 269.023228 353.249101 271.0216 348.500275 268.020632 C 343.751449 265.023073 343.000917 262.523402 338.999212 261.022918 C 335.000919 259.522433 337.501558 255.522278 333.748894 257.022763 C 329.999641 258.523247 328.498575 256.770408 327.000921 258.772191 C 325.499855 260.770564 317.250817 260.023731 314.750178 261.77316 C 312.249539 263.522588 291.998799 268.272986 290.501145 270.271358 C 289.000079 272.273141 294.748478 269.77347 302.001355 270.772656 C 309.250819 271.771843 316.749325 272.522085 318.250391 274.271513 C 319.751456 276.020942 324.749323 276.52224 325.250815 279.270855 C 325.748896 282.02288 323.749749 289.272948 318.748471 290.02319 C 313.750605 290.773432 310.499433 291.022376 305.750607 292.021562 C 300.99837 293.020749 301.250822 291.022376 298.501142 293.273103 C 295.751463 295.520419 285.250826 301.522357 275.749763 300.523171 C 266.248699 299.520574 263.000939 297.522202 256.000515 298.521388 C 249.00009 299.520574 243.248279 297.522202 239.751479 298.272444 C 236.251267 299.022686 236.251267 297.522202 236.251267 297.522202 C 236.251267 297.522202 233.999668 297.771146 230.001375 299.27163 C 225.99967 300.772115 227.749776 300.523171 222.001377 301.273413 C 216.249566 302.023655 209.501594 303.271786 208.000528 303.271786 C 207.649142 303.186531 207.297757 303.104686 207.154473 303.316118 Z M 207.154473 303.316118 " transform="matrix(1.14502,0,0,1.145463,-109.125672,-109.167976)"/>
<path style="fill:none;stroke-width:0.818605;stroke-linecap:butt;stroke-linejoin:miter;stroke:rgb(0%,0%,0%);stroke-opacity:1;stroke-miterlimit:4;" d="M 203.500743 176.521772 C 204.998397 175.522586 206.001382 157.022294 207.000955 155.52181 C 208.000528 154.021325 209.750634 151.770599 209.750634 151.770599 L 210.999248 157.271238 C 210.999248 157.271238 212.998395 156.023108 212.998395 150.273524 C 214.001379 147.770444 216.249566 144.022643 216.498607 142.522158 C 216.751059 141.021674 217.999673 138.770947 219.248286 137.522817 C 220.500311 136.271276 221.499885 135.023146 222.001377 138.522003 C 222.499458 142.02086 223.751483 144.772885 224.249564 144.520531 C 224.751057 144.271587 238.499454 122.521382 242.750199 120.270656 C 245.748918 119.022526 245.250838 121.020898 244.998386 123.022681 C 244.749345 125.021053 245.250838 130.272749 245.250838 130.272749 C 245.250838 130.272749 252.749343 119.022526 255.751474 116.771799 C 258.750194 114.521072 260.25126 114.521072 260.25126 114.521072 L 260.749341 127.27178 C 260.749341 127.27178 262.748487 127.520724 264.751045 124.772109 C 266.750192 122.023494 272.249551 119.022526 272.751043 119.022526 C 273.249124 119.022526 273.750616 121.273252 273.750616 121.273252 L 272.249551 129.771451 C 272.249551 129.771451 275.749763 127.773078 277.250829 125.771295 C 278.748483 123.772923 280.751041 122.272438 281.999654 122.023494 C 283.248268 121.77114 283.998801 123.520569 283.998801 123.520569 L 283.248268 130.272749 C 283.248268 130.272749 286.001359 127.773078 287.000932 127.022836 C 288.000506 126.272594 292.251251 123.772923 292.998372 123.772923 C 293.748905 123.772923 292.251251 131.022991 292.251251 131.022991 C 292.251251 131.022991 297.000077 126.521538 298.501142 126.272594 L 301.499862 125.771295 L 300.99837 130.020395 C 300.99837 130.020395 304.249542 126.02365 306.248688 125.273407 C 308.251246 124.523165 310.001352 123.772923 310.001352 123.772923 L 309.7489 127.773078 C 309.7489 127.773078 316.251244 122.023494 318.00135 121.273252 C 319.751456 120.52301 322.501136 120.771954 322.501136 120.771954 C 322.501136 120.771954 327.499002 115.523669 328.249535 114.521072 C 329.000068 113.521886 330.999214 110.023029 332.74932 109.770675 C 334.499426 109.521731 339.500704 111.271159 340.749318 109.770675 C 342.001343 108.273601 343.000917 109.272787 345.249104 109.521731 C 347.500702 109.770675 348.749316 110.773271 351.249955 111.523514 C 353.750594 112.273756 360.000485 117.273097 361.249099 117.273097 C 362.501124 117.273097 363.500698 120.021712 366.748458 121.77114 C 369.99963 123.520569 373.499842 130.521693 376.249521 131.271935 C 378.999201 132.022177 382.499413 138.273059 384.498559 139.023301 C 386.501118 139.773543 389.499837 145.021829 390.499411 145.270773 C 391.498984 145.523127 392.751009 146.021015 392.751009 148.022798 L 392.751009 153.271083 C 372.125002 156.316385 339.292602 151.279531 311.795808 156.104953 C 297.620972 158.590983 282.279399 159.9687 267.729296 161.769281 C 246.700731 164.371258 224.839756 170.772188 203.500743 176.521772 Z M 203.500743 176.521772 " transform="matrix(1.14502,0,0,1.145463,-109.125672,-109.167976)"/>
<path style="fill-rule:nonzero;fill:rgb(96.862745%,95.686275%,95.686275%);fill-opacity:1;stroke-width:0.818605;stroke-linecap:butt;stroke-linejoin:miter;stroke:rgb(0%,0%,0%);stroke-opacity:1;stroke-miterlimit:4;" d="M 415.498977 143.2724 C 415.498977 143.2724 422.499402 137.522817 428.749293 132.523475 C 434.999185 127.520724 438.748438 121.273252 447.249928 114.023184 C 455.751418 106.773116 467.251628 103.523203 471.00088 100.771178 C 474.750133 98.022564 474.999174 96.273135 479.249919 96.522079 C 483.500664 96.771023 486.250343 102.022719 486.250343 102.022719 C 486.250343 102.022719 486.001303 102.772961 486.748424 106.520762 C 487.498957 110.271973 486.499384 125.273407 486.499384 127.022836 C 486.499384 128.772264 482.248638 143.773699 482.248638 145.523127 C 482.248638 147.272556 475.749706 153.523437 476.74928 155.770754 C 477.748853 158.021481 474.248641 161.523748 474.999174 163.020822 C 475.749706 164.521306 474.999174 168.770406 476.74928 171.273486 C 478.499386 173.773157 485.25077 181.023225 487.249916 187.270697 C 489.249063 193.521579 486.748424 202.521075 487.751409 204.771802 C 488.750982 207.022528 489.501515 218.521696 487.000876 219.022994 C 484.500237 219.520882 482.999171 222.770795 479.498959 222.020553 C 475.998747 221.273721 472.249494 222.020553 468.998322 220.271124 C 465.750562 218.521696 457.249072 215.271783 449.501526 212.270814 C 441.750569 209.273255 432.498546 203.772616 432.498546 203.772616 C 434.664857 203.585055 435.684899 198.69825 437.411124 196.045121 C 439.150996 193.36471 442.333938 190.912782 442.569332 187.192262 C 442.886603 182.186101 444.408137 175.662403 442.153127 169.721849 C 439.898117 163.767654 437.342894 156.268642 432.757821 150.089374 C 430.942896 147.644266 424.86358 144.701271 421.359956 143.548626 C 418.77403 142.699488 418.507932 143.940798 415.498977 143.2724 Z M 415.498977 143.2724 " transform="matrix(1.14502,0,0,1.145463,-109.125672,-109.167976)"/>
<path style="fill-rule:nonzero;fill:rgb(96.862745%,95.686275%,95.686275%);fill-opacity:1;stroke-width:0.818605;stroke-linecap:butt;stroke-linejoin:miter;stroke:rgb(0%,0%,0%);stroke-opacity:1;stroke-miterlimit:4;" d="M 398.250368 211.520572 C 398.250368 211.520572 399.000901 215.520727 400.498555 217.771453 C 401.999621 220.02218 406.001325 222.770795 405.250792 225.771764 C 404.50026 228.772733 404.50026 234.77126 403.248234 239.521658 C 401.999621 244.272055 401.000047 249.022452 400.751007 251.273179 C 400.498555 253.520495 401.999621 253.271551 398.499408 258.021949 C 394.999196 262.772346 391.000903 269.272172 386.248666 269.77347 C 381.49984 270.271358 382.499413 270.271358 377.999627 269.521116 C 373.499842 268.770874 371.248243 268.770874 369.501549 269.77347 C 367.751443 270.772656 364.998352 271.771843 363.248246 271.270544 C 361.501551 270.772656 358.49942 268.52193 354.999207 268.770874 C 351.498995 269.023228 353.249101 271.0216 348.500275 268.020632 C 343.751449 265.023073 343.000917 262.523402 338.999212 261.022918 C 335.000919 259.522433 337.501558 255.522278 333.748894 257.022763 C 344.716908 249.990947 355.05038 242.369168 365.721592 233.540181 C 375.509223 225.444385 386.521587 218.610361 398.250368 211.520572 Z M 398.250368 211.520572 " transform="matrix(1.14502,0,0,1.145463,-109.125672,-109.167976)"/>
<path style="fill-rule:nonzero;fill:rgb(96.862745%,95.686275%,95.686275%);fill-opacity:1;stroke-width:0.818605;stroke-linecap:butt;stroke-linejoin:miter;stroke:rgb(0%,0%,0%);stroke-opacity:1;stroke-miterlimit:4;" d="M 290.501145 270.271358 C 289.000079 272.273141 294.748478 269.77347 302.001355 270.772656 C 309.250819 271.771843 316.749325 272.522085 318.250391 274.271513 C 319.751456 276.020942 324.749323 276.52224 325.250815 279.270855 C 325.748896 282.02288 323.749749 289.272948 318.748471 290.02319 C 313.750605 290.773432 310.499433 291.022376 305.750607 292.021562 C 300.99837 293.020749 301.250822 291.022376 298.501142 293.273103 C 295.751463 295.520419 285.250826 301.522357 275.749763 300.523171 C 266.248699 299.520574 263.000939 297.522202 256.000515 298.521388 C 249.00009 299.520574 243.248279 297.522202 239.751479 298.272444 C 236.251267 299.022686 236.251267 297.522202 236.251267 297.522202 C 250.432926 293.307205 263.028231 287.434854 274.610318 279.581182 C 279.638888 276.17099 285.656796 273.702011 290.501145 270.271358 Z M 290.501145 270.271358 " transform="matrix(1.14502,0,0,1.145463,-109.125672,-109.167976)"/>
<path style="fill-rule:evenodd;fill:rgb(95.294118%,81.568627%,78.431373%);fill-opacity:1;stroke-width:0.873178;stroke-linecap:butt;stroke-linejoin:miter;stroke:rgb(0%,0%,0%);stroke-opacity:1;stroke-miterlimit:4;" d="M 242.241883 239.020359 C 244.312672 238.50201 245.605635 239.279534 248.194973 240.571997 C 250.7809 241.86787 254.403927 244.197031 257.25254 244.197031 C 260.097742 244.197031 268.636758 243.678682 271.226097 242.641983 C 273.815435 241.608695 291.412019 234.621212 293.742082 233.325339 C 296.068734 232.032876 310.820115 224.008694 311.857215 224.008694 C 312.890904 224.008694 329.194524 215.987923 331.524587 215.987923 C 333.85465 215.987923 335.406889 215.728748 335.406889 215.728748 C 335.406889 215.728748 334.888339 219.609547 332.817551 221.420359 C 330.750174 223.234581 327.90156 224.527044 325.830772 226.59703 C 323.759984 228.667017 321.433332 230.222064 319.621819 232.80699 C 317.810305 235.395325 313.409454 239.020359 312.11649 240.831171 C 310.820115 242.641983 308.234189 242.641983 306.422675 243.678682 C 304.611162 244.71197 302.540374 244.197031 301.503274 246.526192 C 300.469585 248.855353 296.587284 249.629466 288.307542 249.370292 C 280.024389 249.111117 279.765114 248.077829 276.142087 249.111117 C 272.51906 250.147816 275.626948 249.370292 270.707547 252.736151 C 265.791557 256.098601 264.498593 257.653648 262.68708 257.653648 C 260.875567 257.653648 259.319917 259.46446 259.838467 256.357775 C 260.357017 253.2545 259.838467 254.546963 256.21544 252.217802 C 252.592413 249.888641 253.885377 250.925339 249.747212 249.629466 C 245.605635 248.337004 241.982608 248.337004 241.204783 246.526192 C 240.43037 244.71197 238.618856 242.901158 239.133995 242.123634 C 239.652545 241.34952 242.241883 239.020359 242.241883 239.020359 Z M 242.241883 239.020359 " transform="matrix(1.14502,0,0,1.145463,-109.125672,-109.167976)"/>
<path style="fill-rule:nonzero;fill:rgb(92.941176%,80.392157%,77.647059%);fill-opacity:1;stroke-width:0.818605;stroke-linecap:butt;stroke-linejoin:miter;stroke:rgb(0%,0%,0%);stroke-opacity:1;stroke-miterlimit:4;" d="M 11.231336 205.393297 C 11.231336 205.393297 8.498714 202.535556 8.498714 202.000156 C 9.198074 199.558459 8.471422 197.27363 9.675686 196.335827 C 13.537518 193.328038 22.499563 198.225074 27.504252 200.223446 C 35.763525 203.521102 39.355848 202.60717 46.2164 204.510057 C 64.590809 209.604884 67.169913 206.075335 74.364793 206.539121 C 77.677372 206.753964 70.270978 218.031468 72.720444 224.10843 C 72.986542 224.773418 71.076095 225.537301 71.250082 226.250031 C 67.74987 227.000273 59.749872 226.751329 55.751579 226.001087 C 51.749874 225.250845 51.500834 223.999304 47.001048 223.75036 C 42.501263 223.501416 42.999344 222.49882 38.001477 222.751174 C 33.000199 223.000118 29.499987 221.748578 25.501694 220.998335 C 21.499989 220.251503 17.750737 221.250689 15.499138 218.999963 C 13.250951 216.749236 10.999353 215.501106 9.999779 214.000621 C 9.000206 212.500137 9.000206 209.499168 8.751166 207.998684 C 8.69317 207.664485 10.600206 205.925287 10.600206 205.925287 Z M 11.231336 205.393297 " transform="matrix(1.14502,0,0,1.145463,-8.364008,-11.778314)"/>
<path style="fill-rule:nonzero;fill:rgb(92.941176%,80.392157%,77.647059%);fill-opacity:1;stroke-width:0.818605;stroke-linecap:butt;stroke-linejoin:miter;stroke:rgb(0%,0%,0%);stroke-opacity:1;stroke-miterlimit:4;" d="M 11.968222 205.120482 C 30.663313 210.344896 22.769072 211.855611 28.844977 213.386787 C 35.872693 215.156677 51.405311 215.405621 50.566079 214.212053 " transform="matrix(1.14502,0,0,1.145463,-8.364008,-11.778314)"/>
<path style="fill-rule:nonzero;fill:rgb(92.941176%,80.392157%,77.647059%);fill-opacity:1;stroke-width:0.818605;stroke-linecap:butt;stroke-linejoin:miter;stroke:rgb(0%,0%,0%);stroke-opacity:1;stroke-miterlimit:4;" d="M 57.955416 213.741447 C 59.139211 213.758498 60.756268 217.772294 60.070554 218.294053 C 60.070554 218.294053 59.118742 219.971868 56.014265 223.286574 " transform="matrix(1.14502,0,0,1.145463,-8.364008,-11.778314)"/>
<path style="fill-rule:nonzero;fill:rgb(98.431373%,94.509804%,94.509804%);fill-opacity:1;stroke-width:0.818605;stroke-linecap:butt;stroke-linejoin:miter;stroke:rgb(0%,0%,0%);stroke-opacity:1;stroke-miterlimit:4;" d="M 119.792451 246.764905 C 118.50631 247.880038 113.225288 248.971299 116.322942 247.866397 C 116.923368 247.651555 123.163026 241.134678 125.032535 241.88151 C 125.912705 242.23276 129.41974 239.156767 131.207373 239.460274 C 131.906733 239.579631 131.490529 241.88151 132.145539 242.130454 C 133.537436 242.665855 136.74767 240.704994 137.194578 241.189241 C 137.917819 241.980406 135.229547 245.182576 134.615474 245.878255 C 134.073044 246.48868 133.18605 248.412028 130.453429 247.934601 C 129.378802 247.747041 126.861106 244.633535 125.714837 244.776763 C 122.402258 245.192807 120.78179 245.908947 119.792451 246.764905 Z M 171.057255 224.99424 C 171.459814 221.382847 168.795422 218.463722 166.6257 217.604354 C 161.133164 215.421831 147.702038 223.21412 142.0014 225.021521 C 144.000546 223.521037 154.501183 214.023652 155.998837 211.520572 C 156.363869 210.916968 157.581779 209.631325 159.280713 208.014894 C 160.246171 209.283486 162.569411 208.349093 163.910136 208.332042 C 163.780498 208.870852 171.644035 206.429155 172.981348 205.79827 C 173.704589 205.45725 172.851711 208.042176 173.564717 208.846981 C 174.274312 209.641556 175.260239 212.103714 176.50203 212.894879 C 179.27559 214.657948 182.871324 215.278603 185.849575 216.946187 C 188.940406 218.681975 189.168977 221.075929 189.312261 221.884145 C 189.98774 225.775174 193.794989 231.231481 192.31098 233.547001 C 190.622282 236.179669 185.70288 236.7253 182.932731 236.933322 C 180.22399 237.137933 177.747232 237.547156 176.30075 236.428613 C 170.473886 231.93057 175.478576 229.389977 171.828257 227.869032 C 170.276019 227.221095 170.992436 225.577383 171.057255 224.99424 Z M 192.10629 187.826558 C 196.9097 186.469302 201.027396 191.734638 205.015454 195.632487 C 208.000528 198.551612 211.47686 200.133941 212.005644 200.696622 C 213.472595 202.272131 211.773661 205.644811 208.392852 205.078719 C 205.319079 204.56037 206.458524 203.377033 202.221425 200.382885 C 197.257674 196.873797 192.996695 192.379164 183.219299 193.354479 C 181.704587 194.305923 179.852135 193.917161 177.999684 193.521579 C 180.988169 192.525803 185.958743 189.545295 189.98774 186.776219 C 189.98774 186.776219 190.813326 188.21532 192.10629 187.826558 Z M 312.280243 180.644694 C 318.710945 183.117083 316.957427 190.431945 319.80604 194.728787 C 329.375334 209.167539 323.603054 219.186683 317.728429 215.602571 C 314.937811 213.897475 314.327151 210.725997 311.229497 200.519292 C 310.461907 197.98552 309.400926 197.054537 305.93824 193.170329 C 303.437602 190.363741 300.77321 188.491545 299.28579 184.590286 C 296.795386 178.039307 308.916491 179.348821 312.280243 180.644694 Z M 348.135243 182.117897 C 351.812854 185.238222 355.732683 196.058761 354.617118 204.56378 C 353.699421 211.547853 349.373623 211.67403 345.733538 200.266938 C 344.065309 195.039114 338.849105 186.694374 338.446547 184.290189 C 336.955716 175.341845 345.835884 180.167267 348.135243 182.117897 Z M 325.421391 171.379202 C 321.709665 171.553122 321.269579 165.892204 319.62523 165.735335 C 317.373632 165.520493 317.070007 160.967886 315.111799 160.613226 C 312.795381 160.197183 310.704124 160.708712 308.878965 160.071006 C 307.507536 159.593579 307.326726 157.243957 304.853379 156.902938 C 302.294745 156.551688 300.47982 157.318981 299.275556 156.214079 C 298.235044 155.255815 299.517773 153.127855 299.589415 151.893366 C 299.688349 150.106425 295.655941 153.315416 295.734405 151.924057 C 295.850397 149.881352 296.252955 148.329715 295.928862 147.044073 C 294.608606 141.792377 287.335261 142.948432 285.155304 145.615202 C 283.90669 147.136148 281.419697 152.766375 279.649122 153.635974 C 278.919058 153.994044 277.803494 152.940295 277.083664 153.315416 C 275.026522 154.389626 273.910957 159.027487 271.922045 160.248336 C 271.625244 160.429076 276.483238 160.585945 277.581745 162.430859 C 278.086649 163.276586 280.048269 163.331149 281.40264 164.289413 C 282.248695 164.886197 281.815433 165.254498 282.50797 165.496621 C 283.589419 165.878563 283.046989 167.399508 283.046989 167.399508 C 283.72588 168.790867 287.454664 169.905999 287.338672 173.278679 C 287.277265 175.07244 289.706262 176.815048 290.347627 177.176529 C 290.719481 177.387961 285.789845 177.688057 281.10925 178.158664 C 277.701148 178.503093 274.252109 179.110107 273.924603 178.990751 C 273.146779 178.707705 274.63761 173.203655 270.980468 172.685306 C 268.466183 172.327236 269.551044 169.711618 267.002644 166.645856 C 265.498167 164.835044 261.984308 164.514486 259.930578 164.313285 C 259.046996 164.22803 253.687509 166.666317 253.895611 165.697823 C 254.09689 164.77025 257.986015 159.869805 256.154033 158.601213 C 255.379619 158.062403 253.77962 158.921771 253.14849 158.440934 C 252.343373 157.83051 253.479407 154.723825 252.681113 154.63857 C 251.865761 154.546495 250.924183 155.787805 250.119066 156.360717 C 249.215016 157.008654 249.866615 153.813304 249.409472 153.642794 C 247.6696 152.991447 248.515655 154.560136 247.928875 154.416908 C 247.243161 154.246398 244.107981 159.835703 243.439324 159.808421 C 242.221414 159.757268 242.883248 157.411056 242.480689 157.428107 C 241.80521 157.455389 241.395828 159.508324 240.733994 159.723166 C 239.475146 160.125569 237.977492 155.402453 237.148494 155.927623 C 235.104998 157.223496 233.194551 161.370289 231.461502 165.414777 C 230.762142 167.048259 229.834211 168.422566 229.199669 170.605089 C 229.288369 170.843802 230.84743 170.697164 232.031225 171.965755 C 233.863208 173.930026 233.68922 176.068216 236.217151 179.058955 C 237.697748 180.811793 243.964697 182.557812 245.677277 184.215165 C 248.331434 186.783039 250.507979 188.668875 251.582605 189.224737 C 253.26107 190.087515 259.070876 197.027256 262.042304 200.66252 C 263.229511 202.111852 266.504563 206.388233 268.043155 209.215282 C 269.602217 212.073023 273.55616 219.943746 273.8052 220.55076 C 277.448696 229.505924 270.059359 228.632915 267.572366 224.342893 C 266.958294 223.282324 265.740384 221.775019 263.649127 218.941149 C 261.837613 216.485811 260.36384 214.173701 259.354032 212.853957 C 255.11011 207.319215 251.951049 204.02497 250.08154 202.60633 C 246.281114 199.724718 242.221414 196.130375 238.755317 192.921385 C 236.479838 190.813886 233.109263 187.737893 229.950202 186.605709 C 227.930587 185.879338 223.973232 181.364244 220.650418 179.14762 C 217.013745 176.722973 211.087947 177.425473 208.345091 175.587379 C 206.840614 174.724601 205.203088 175.60102 203.500743 176.521772 C 204.998397 175.522586 206.001382 157.022294 207.000955 155.52181 C 208.000528 154.021325 209.750634 151.770599 209.750634 151.770599 L 210.999248 157.271238 C 210.999248 157.271238 212.998395 156.023108 212.998395 150.273524 C 214.001379 147.770444 216.249566 144.022643 216.498607 142.522158 C 216.751059 141.021674 217.999673 138.770947 219.248286 137.522817 C 220.500311 136.271276 221.499885 135.023146 222.001377 138.522003 C 222.499458 142.02086 223.751483 144.772885 224.249564 144.520531 C 224.751057 144.271587 238.499454 122.521382 242.750199 120.270656 C 245.748918 119.022526 245.250838 121.020898 244.998386 123.022681 C 244.749345 125.021053 245.250838 130.272749 245.250838 130.272749 C 245.250838 130.272749 252.749343 119.022526 255.751474 116.771799 C 258.750194 114.521072 260.25126 114.521072 260.25126 114.521072 L 260.749341 127.27178 C 260.749341 127.27178 262.748487 127.520724 264.751045 124.772109 C 266.750192 122.023494 272.249551 119.022526 272.751043 119.022526 C 273.249124 119.022526 273.750616 121.273252 273.750616 121.273252 L 272.249551 129.771451 C 272.249551 129.771451 275.749763 127.773078 277.250829 125.771295 C 278.748483 123.772923 280.751041 122.272438 281.999654 122.023494 C 283.248268 121.77114 283.998801 123.520569 283.998801 123.520569 L 283.248268 130.272749 C 283.248268 130.272749 286.001359 127.773078 287.000932 127.022836 C 288.000506 126.272594 292.251251 123.772923 292.998372 123.772923 C 293.748905 123.772923 292.251251 131.022991 292.251251 131.022991 C 292.251251 131.022991 297.000077 126.521538 298.501142 126.272594 L 301.499862 125.771295 L 300.99837 130.023805 C 300.99837 130.023805 304.249542 126.02365 306.248688 125.273407 C 308.251246 124.523165 310.001352 123.772923 310.001352 123.772923 L 309.7489 127.773078 C 309.7489 127.773078 316.251244 122.023494 318.00135 121.273252 C 319.751456 120.52301 322.501136 120.771954 322.501136 120.771954 C 322.501136 120.771954 327.499002 115.523669 328.249535 114.521072 C 329.303692 113.59009 317.59538 139.408653 319.843567 139.231323 C 320.935251 139.142658 328.089194 129.287203 329.112648 130.47395 C 329.112648 130.47395 329.965526 135.708595 330.910515 135.480112 C 332.380877 135.125452 335.502411 131.070734 335.502411 131.070734 C 335.502411 131.070734 336.007315 138.051397 336.989831 137.717198 C 338.419255 137.236361 338.583007 133.437407 340.230768 132.523475 C 341.329275 131.916461 341.093881 142.436903 342.199211 141.853761 C 344.505394 140.639732 342.966801 147.654497 346.269146 147.187301 C 348.230766 146.911075 350.762108 130.688792 352.648675 131.17986 C 353.682363 131.589083 352.805605 137.7513 354.808163 137.785402 C 355.527992 137.795632 354.364666 142.648335 356.623088 142.764282 C 358.025219 142.835896 360.457628 135.821131 361.388971 136.977186 C 363.224365 139.248374 361.170634 141.267208 362.654642 141.785557 C 363.459759 141.84353 364.803895 139.074454 366.492594 138.907355 C 368.501975 138.712974 368.044833 142.965483 368.044833 142.965483 C 369.184278 142.672207 370.582998 145.973272 372.418392 146.539364 C 373.499842 146.873563 375.110076 142.054962 376.194937 142.481236 C 376.815832 142.72336 376.689606 148.517276 377.631184 149.424387 C 378.695576 150.447444 380.838006 146.597338 381.615831 146.839461 C 383.140777 147.313478 381.353145 149.144751 381.953571 149.792687 C 382.656342 150.55316 380.844829 153.315416 381.578304 154.034966 C 382.298134 154.740876 385.573186 153.39726 385.614124 154.737466 C 385.753996 155.770754 389.458899 155.211482 390.666575 156.439151 C 393.027342 158.843337 393.593653 162.915106 393.593653 162.915106 C 394.739921 167.024387 397.452074 175.658993 397.029046 179.304488 C 396.114761 187.233185 391.98683 191.850585 388.868707 189.006484 C 386.797919 187.120648 385.174039 181.947387 385.225212 172.276083 C 385.232035 171.058644 382.076385 158.611444 379.729264 157.380364 C 378.866152 156.923399 377.525427 157.257598 376.76466 157.066627 C 374.956558 156.613071 373.851228 156.183387 371.688329 156.681275 C 370.92415 156.855195 375.106664 152.633377 370.238436 153.076702 C 369.07511 153.182418 367.608159 154.584007 366.502829 154.81931 C 365.339503 155.068254 367.11349 149.915454 365.980867 150.160988 C 363.678096 150.658876 361.958694 153.976993 359.816264 154.416908 C 358.813279 154.624929 358.352725 150.559981 357.394089 150.761182 C 355.534815 151.156764 353.890466 154.123631 352.218824 154.485111 C 351.53311 154.63175 358.216264 157.182573 358.983854 158.928592 C 360.136946 161.537388 365.465729 167.413149 366.485771 170.543705 C 367.18172 172.681896 369.68577 180.058141 368.662317 185.514448 C 368.273404 187.584434 365.503256 185.950952 364.490036 184.252677 C 362.623939 181.125531 362.146327 174.765523 361.194515 173.411677 C 358.867863 170.09356 353.252513 162.08984 348.582152 157.936226 C 346.125862 155.753703 341.871706 156.41187 340.722026 155.051203 C 340.18983 154.420318 337.245694 155.811676 336.812432 155.078485 C 335.751452 153.288134 336.413285 152.340101 335.997081 149.877942 C 335.771921 148.530916 333.523734 151.187456 332.380877 151.392067 C 331.53141 151.542116 332.551453 146.007374 331.821389 146.174474 C 331.016272 146.358624 329.511795 149.523282 328.87043 149.717663 C 327.939087 150.004119 326.380026 153.543899 325.544205 153.779202 C 324.793672 153.994044 326.154866 149.813149 325.499855 150.045042 C 324.69815 150.324677 323.971498 148.677555 323.32331 148.987882 C 321.252522 149.983658 320.385998 153.830355 320.14378 155.122817 C 320.00732 155.859419 323.79751 156.111773 324.926721 157.240547 C 326.543778 158.856978 330.777466 161.162267 329.453799 163.576683 C 329.453799 163.576683 339.306248 170.952928 336.031196 170.874494 C 332.080664 170.779009 325.421391 171.379202 325.421391 171.379202 Z M 396.998343 154.27368 L 403.248234 151.770599 C 403.248234 151.770599 408.242689 149.274338 412.9574 145.485615 C 415.519446 143.555446 416.150576 150.512238 416.150576 150.512238 C 416.297271 152.85504 415.659318 155.491118 416.048231 157.731614 C 417.839275 168.006523 409.880215 168.381644 405.332669 160.981527 Z M 396.998343 154.27368 " transform="matrix(1.14502,0,0,1.145463,-109.125672,-109.167976)"/>
<path style="fill-rule:nonzero;fill:rgb(25.882353%,9.803922%,9.411765%);fill-opacity:1;stroke-width:0.818605;stroke-linecap:butt;stroke-linejoin:miter;stroke:rgb(0%,0%,0%);stroke-opacity:1;stroke-miterlimit:4;" d="M 40.549877 178.360706 C 40.730688 179.731603 41.641562 184.270568 42.641135 185.269754 C 43.640708 186.268941 48.181432 187.728503 50.818531 187.820578 C 53.448808 187.909243 55.638999 187.360202 58.72983 187.551173 C 61.82066 187.728503 61.448805 189.000504 64.358826 188.178648 C 67.268846 187.360202 69.820658 187.360202 74.180572 185.450495 C 78.55072 183.551018 79.089739 183.448712 80.270122 181.180934 C 81.450506 178.909746 82.818522 177.818485 83.640697 175.639372 C 84.449225 173.450029 85.728543 172.181438 85.551144 170.640031 C 85.360099 169.088394 86.001464 165.268979 84.90978 163.550242 C 83.821507 161.821275 79.819802 156.180817 78.090165 155.819337 C 76.360528 155.451036 70.731532 154.44844 68.551575 154.550745 C 66.361384 154.63941 63.638997 154.27111 61.63985 155.000891 C 59.640704 155.730672 57.358401 156.910598 55.451366 158.550901 C 53.551153 160.180972 51.180152 165.091649 49.911069 165.82143 C 48.638574 166.551211 43.910218 172.999884 42.910644 173.361364 C 41.911071 173.729665 41.088896 175.090331 40.911498 175.359737 C 40.730688 175.639372 40.358833 177.000039 40.549877 178.360706 Z M 40.549877 178.360706 " transform="matrix(1.14502,0,0,1.145463,-8.364008,-11.778314)"/>
<path style="fill:none;stroke-width:0.818605;stroke-linecap:butt;stroke-linejoin:miter;stroke:rgb(0%,0%,0%);stroke-opacity:1;stroke-miterlimit:4;" d="M 47.178447 189.45065 C 48.089321 190.180431 50.818531 192.550514 52.091026 192.819919 C 53.360108 193.089325 54.820236 194.180586 57.000193 194.180586 C 59.180149 194.180586 63.359253 193.450805 66.818527 193.089325 C 70.270978 192.731254 72.358824 192.090138 73.818951 191.090952 C 75.268844 190.088356 80.270122 188.178648 81.269695 186.998722 C 82.269269 185.818795 85.179289 183.551018 85.551144 181.64131 C 85.909353 179.731603 86.639417 178.449371 86.731527 177.91056 " transform="matrix(1.14502,0,0,1.145463,-8.364008,-11.778314)"/>
<path style="fill-rule:nonzero;fill:rgb(9.019608%,3.529412%,3.529412%);fill-opacity:1;stroke-width:0.818605;stroke-linecap:butt;stroke-linejoin:miter;stroke:rgb(0%,0%,0%);stroke-opacity:1;stroke-miterlimit:4;" d="M 53.448808 171.731292 C 52.449234 172.638403 51.640706 173.99907 51.091452 174.449215 C 50.549022 174.909591 49.818958 175.359737 49.549448 176.270258 C 49.269704 177.180779 49.000195 178.909746 49.818958 179.550863 C 50.641133 180.178338 50.999341 180.911529 53.728552 180.911529 C 56.450939 180.911529 58.91064 180.178338 59.640704 180.270413 C 60.360533 180.359078 62.178869 180.451153 63.731108 179.820268 C 65.2697 179.179152 68.821085 178.179965 69.271404 177.450184 C 69.728547 176.730634 71.908504 174.449215 71.908504 173.180624 C 71.908504 171.908622 72.358824 171.178841 71.731105 169.640845 C 71.089741 168.089207 70.550722 165.910095 69.179294 165.268979 C 67.821511 164.641503 67.268846 163.359271 65.358399 163.451346 C 63.451363 163.550242 62.09017 163.451346 60.640277 164.269792 C 59.180149 165.091649 58.180576 165.268979 57.818956 166.448905 C 57.450512 167.639062 56.819382 169.361209 56.358828 169.72951 C 55.908508 170.09099 54.448381 170.820771 53.448808 171.731292 Z M 53.448808 171.731292 " transform="matrix(1.14502,0,0,1.145463,-8.364008,-11.778314)"/>
<path style=" stroke:none;fill-rule:evenodd;fill:rgb(100%,100%,100%);fill-opacity:1;" d="M 51.640625 177.070312 C 51.640625 177.070312 51.050781 176.03125 52.828125 178.847656 C 54.605469 181.664062 54.160156 180.183594 54.457031 182.554688 C 54.753906 184.925781 53.863281 185.222656 55.347656 185.519531 C 56.828125 185.816406 58.011719 186.113281 58.902344 185.519531 C 59.789062 184.925781 60.828125 183.59375 59.496094 183.445312 C 58.160156 183.296875 59.640625 184.183594 58.160156 182.554688 C 56.679688 180.925781 57.125 181.664062 56.679688 179.738281 C 56.234375 177.8125 57.421875 176.921875 55.640625 176.476562 C 53.863281 176.03125 51.640625 177.070312 51.640625 177.070312 Z M 51.640625 177.070312 "/>
<path style="fill:none;stroke-width:0.873178;stroke-linecap:butt;stroke-linejoin:miter;stroke:rgb(0%,0%,0%);stroke-opacity:1;stroke-miterlimit:4;" d="M 222.055961 215.987923 C 224.12675 209.774553 226.197538 202.531306 236.029518 196.836285 C 245.86491 191.141265 258.804778 187.519641 262.427805 185.449654 C 266.050832 183.379668 271.226097 180.791332 280.024389 178.721346 C 288.82268 176.651359 310.564252 173.026325 325.571497 173.544674 C 340.582154 174.063023 357.663599 171.993037 368.532679 173.544674 C 379.401759 175.096312 394.930966 176.13301 401.139919 175.614661 C 407.352284 175.096312 423.915179 172.507976 428.056756 169.92305 " transform="matrix(1.14502,0,0,1.145463,-109.125672,-109.167976)"/>
<path style="fill-rule:nonzero;fill:rgb(28.235294%,15.294118%,15.294118%);fill-opacity:1;stroke-width:0.818605;stroke-linecap:butt;stroke-linejoin:miter;stroke:rgb(0%,0%,0%);stroke-opacity:1;stroke-miterlimit:4;" d="M 203.500743 176.521772 C 204.998397 175.522586 206.51652 167.631401 207.516093 166.130917 C 208.519078 164.633843 208.914814 156.122004 210.009909 158.243143 C 210.009909 158.243143 207.833364 171.600865 211.517798 171.246205 C 211.517798 171.246205 213.783043 166.840237 214.554045 161.141806 C 215.236347 156.077671 217.72334 145.690227 218.074726 146.692823 C 219.101591 149.639229 215.911827 159.545836 216.225686 167.174436 C 216.375792 168.258877 217.116091 167.027797 217.351485 166.952773 C 218.071314 166.727701 219.180056 161.874997 220.715237 157.66 C 222.045727 153.997454 222.884959 146.945177 225.215022 145.519717 C 226.310118 145.519717 221.905855 164.889607 223.512677 167.280152 C 224.106281 168.166802 229.96726 156.23113 237.346362 143.886235 C 241.262779 137.335256 245.533993 132.670114 245.533993 132.670114 C 248.010751 130.688792 243.995401 137.021519 241.099026 143.217837 C 237.496469 150.921461 234.623975 159.215048 236.421842 160.398384 C 236.421842 160.398384 259.384735 132.697395 261.387294 129.948781 C 263.867463 128.826827 245.673865 155.70596 245.957021 161.046321 C 246.85766 163.126538 271.829935 130.702433 273.832493 131.752772 C 273.832493 131.752772 257.624395 157.465619 260.418424 158.972924 C 262.700726 160.255156 280.423536 133.352152 281.924601 133.103208 C 284.616285 131.432214 268.868741 154.8159 271.754881 156.677865 C 273.852962 157.758896 289.399226 134.296775 291.398373 133.546533 C 291.575771 135.067479 288.181316 140.42148 286.042297 146.501852 C 284.394537 151.180636 283.640592 157.107549 284.906263 157.015474 C 285.892191 155.999237 299.657645 131.282166 300.401355 133.693171 C 300.530993 134.112625 290.620548 156.302744 292.998372 155.70937 C 296.730567 152.582224 303.215853 140.462402 309.561267 131.54134 C 311.850392 128.322119 302.025235 147.235043 306.767238 153.475695 L 311.795808 156.104953 C 307.555298 156.848375 303.20903 157.492901 298.81159 158.079454 C 297.740375 158.222682 296.662337 158.3625 295.580887 158.498907 C 286.308395 159.675424 276.861916 160.640508 267.729296 161.769281 C 248.791988 164.112083 229.1792 169.537699 209.880272 174.792804 C 207.748076 175.372537 205.622704 175.94886 203.500743 176.521772 Z M 203.500743 176.521772 " transform="matrix(1.14502,0,0,1.145463,-109.125672,-109.167976)"/>
<path style="fill-rule:nonzero;fill:rgb(90.588235%,82.352941%,82.352941%);fill-opacity:1;stroke-width:0.818605;stroke-linecap:butt;stroke-linejoin:miter;stroke:rgb(0%,0%,0%);stroke-opacity:1;stroke-miterlimit:4;" d="M 261.557869 129.924909 C 261.520343 129.904448 261.462347 129.911268 261.383882 129.94537 C 259.579192 132.4314 242.351052 153.236981 238.700733 157.642949 C 239.359155 158.751262 240.078984 159.934598 240.733994 159.723166 C 241.392416 159.511734 241.80521 157.455389 242.480689 157.428107 C 242.883248 157.411056 242.221414 159.757268 243.439324 159.808421 C 244.107981 159.835703 247.243161 154.246398 247.928875 154.416908 C 248.41331 154.536264 247.93911 153.499566 248.740815 153.499566 C 253.458938 144.14882 262.431216 130.337542 261.557869 129.924909 Z M 309.854657 131.19009 C 309.800073 131.224192 309.704551 131.340139 309.561267 131.54134 C 304.672569 138.412877 299.705406 147.17025 295.973211 152.265077 C 296.815855 152.432176 299.674703 150.382651 299.589415 151.893366 C 299.517773 153.127855 298.235044 155.255815 299.275556 156.214079 C 300.47982 157.318981 302.294745 156.551688 304.853379 156.902938 C 305.146769 156.94386 305.409456 157.015474 305.64485 157.104139 C 307.712227 156.790401 309.765958 156.459613 311.795808 156.101542 L 306.767238 153.475695 C 302.322037 147.627216 310.680243 130.637639 309.854657 131.19009 Z M 273.580041 131.752772 C 271.36938 132.387068 260.128445 146.188115 252.677701 154.63516 C 252.677701 154.63516 252.681113 154.63516 252.681113 154.63516 C 253.482818 154.723825 252.343373 157.83051 253.14849 158.444344 C 253.77962 158.921771 255.379619 158.062403 256.154033 158.597803 C 257.389 159.453761 256.031218 161.943201 254.949769 163.771064 C 259.234629 162.976489 263.49902 162.294451 267.729296 161.769281 C 270.12759 161.472595 272.583879 161.199779 275.019699 160.920144 C 273.412877 160.463178 271.744647 160.354052 271.922045 160.248336 C 273.907546 159.027487 275.026522 154.389626 277.083664 153.315416 C 277.803494 152.940295 278.919058 153.994044 279.649122 153.635974 C 281.419697 152.766375 283.90669 147.136148 285.155304 145.615202 C 285.571508 145.103673 286.175346 144.653528 286.884941 144.288638 C 288.969375 139.159709 291.555302 134.876508 291.398373 133.546533 C 289.399226 134.293365 273.852962 157.758896 271.754881 156.677865 C 268.86533 154.8159 284.616285 131.435624 281.924601 133.103208 C 280.423536 133.352152 262.700726 160.255156 260.418424 158.972924 C 257.624395 157.465619 273.832493 131.756182 273.832493 131.756182 C 273.771085 131.72208 273.685798 131.72208 273.580041 131.752772 Z M 246.171946 132.298403 C 246.052543 132.301813 245.844441 132.42117 245.533993 132.670114 C 245.533993 132.670114 241.262779 137.338666 237.346362 143.886235 C 229.96726 156.23113 224.106281 168.166802 223.509266 167.280152 C 221.902443 164.889607 226.313529 145.519717 225.215022 145.519717 C 222.884959 146.945177 222.045727 153.997454 220.715237 157.66 C 219.183468 161.874997 218.067903 166.727701 217.351485 166.952773 C 217.116091 167.027797 216.375792 168.258877 216.225686 167.174436 C 215.911827 159.545836 219.09818 149.635819 218.071314 146.689413 C 217.72334 145.690227 215.236347 156.077671 214.550633 161.141806 C 213.783043 166.840237 211.517798 171.246205 211.517798 171.246205 C 207.833364 171.600865 210.006498 158.243143 210.006498 158.243143 C 208.914814 156.122004 208.515667 164.633843 207.516093 166.130917 C 206.51652 167.631401 204.998397 175.522586 203.500743 176.521772 C 205.001808 175.710146 206.451701 174.936033 207.806072 175.355486 C 208.498609 175.167926 209.187735 174.980365 209.880272 174.792804 C 216.420142 173.012684 222.997539 171.218923 229.574936 169.524058 C 230.168539 167.945139 230.888368 166.754982 231.461502 165.414777 C 232.890926 162.079609 234.443165 158.696699 236.087514 156.879066 C 236.725467 153.489335 238.755317 148.23423 241.099026 143.217837 C 243.63378 137.795632 247.024824 132.271121 246.171946 132.298403 Z M 300.295598 133.546533 C 299.592826 133.191873 296.30754 138.238957 292.950611 143.732776 C 294.028649 144.121538 294.953169 144.834268 295.522892 145.966452 C 297.764256 140.169126 300.469585 133.914834 300.401355 133.693171 C 300.377474 133.618147 300.343359 133.570404 300.295598 133.546533 Z M 300.295598 133.546533 " transform="matrix(1.14502,0,0,1.145463,-109.125672,-109.167976)"/>
<path style=" stroke:none;fill-rule:nonzero;fill:rgb(89.803922%,85.882353%,85.882353%);fill-opacity:1;" d="M 395.078125 42.496094 C 402.953125 38.8125 418.796875 25.234375 425.953125 19.507812 C 428.167969 16.574219 437.945312 11.210938 437.527344 12.738281 C 436.523438 16.429688 418.183594 30.472656 390.953125 55.308594 C 389.230469 56.878906 443.539062 22.515625 441.164062 27.527344 C 440.128906 29.710938 397.269531 58.765625 396.828125 60.667969 C 396.320312 62.871094 442.371094 35.941406 441.296875 38.570312 C 440.289062 41.035156 401.492188 63.925781 400.820312 66.277344 C 400.328125 67.992188 437.097656 51.078125 436.457031 52.875 C 435.339844 56.003906 403.84375 69.199219 403.078125 72.242188 C 415.089844 72.765625 434.414062 62.761719 432.519531 67.171875 C 431.75 69.558594 404.367188 75.503906 403.734375 77.875 C 403.285156 79.546875 430.375 77.367188 429.886719 79.03125 C 429.464844 80.464844 405.0625 82.484375 404.683594 83.902344 C 404.324219 85.257812 430.621094 85.714844 430.238281 87.050781 C 429.691406 88.957031 406.058594 88.777344 405.578125 90.648438 C 405.210938 92.070312 432.390625 92.59375 431.996094 93.992188 C 431.449219 95.941406 405.445312 94.3125 404.957031 96.207031 C 404.570312 97.707031 443.570312 105.109375 443.132812 106.550781 C 442.28125 109.34375 404.148438 101.976562 403.429688 104.582031 C 403.429688 104.582031 445.316406 117.445312 444.5 119.527344 C 443.53125 122 401.988281 109.503906 401.082031 111.652344 C 399.144531 116.21875 450.257812 135.183594 440.402344 137.824219 C 436.515625 138.863281 433.839844 135.332031 429.265625 133.390625 C 412.453125 124.972656 410.300781 124.496094 391.71875 115.394531 C 393.710938 112.324219 397.355469 109.515625 397.625 105.253906 C 397.988281 99.519531 399.730469 92.046875 397.148438 85.242188 C 394.566406 78.421875 391.640625 69.832031 386.390625 62.753906 C 384.3125 59.953125 377.351562 56.582031 373.339844 55.261719 C 370.378906 54.289062 388.527344 45.554688 395.078125 42.496094 Z M 395.078125 42.496094 "/>
<path style="fill:none;stroke-width:0.818605;stroke-linecap:butt;stroke-linejoin:miter;stroke:rgb(0%,0%,0%);stroke-opacity:1;stroke-miterlimit:4;" d="M 415.498977 143.2724 C 415.498977 143.2724 422.499402 137.522817 428.749293 132.523475 C 434.999185 127.520724 438.748438 121.273252 447.249928 114.023184 C 455.751418 106.773116 467.251628 103.523203 471.00088 100.771178 C 474.750133 98.022564 474.999174 96.273135 479.249919 96.522079 C 483.500664 96.771023 486.250343 102.022719 486.250343 102.022719 C 486.250343 102.022719 486.001303 102.772961 486.748424 106.520762 C 487.498957 110.271973 486.499384 125.273407 486.499384 127.022836 C 486.499384 128.772264 482.248638 143.773699 482.248638 145.523127 C 482.248638 147.272556 475.749706 153.523437 476.74928 155.770754 C 477.748853 158.021481 474.248641 161.523748 474.999174 163.020822 C 475.749706 164.521306 474.999174 168.770406 476.74928 171.273486 C 478.499386 173.773157 485.25077 181.023225 487.249916 187.270697 C 489.249063 193.521579 486.748424 202.521075 487.751409 204.771802 C 488.750982 207.022528 489.501515 218.521696 487.000876 219.022994 C 484.500237 219.520882 482.999171 222.770795 479.498959 222.020553 C 475.998747 221.273721 472.249494 222.020553 468.998322 220.271124 C 465.750562 218.521696 457.249072 215.271783 449.501526 212.270814 C 441.750569 209.273255 432.498546 203.772616 432.498546 203.772616 C 434.664857 203.585055 435.684899 198.69825 437.411124 196.045121 C 439.150996 193.36471 442.333938 190.912782 442.569332 187.192262 C 442.886603 182.186101 444.408137 175.662403 442.153127 169.721849 C 439.898117 163.767654 437.342894 156.268642 432.757821 150.089374 C 430.942896 147.644266 424.86358 144.701271 421.359956 143.548626 C 418.77403 142.699488 418.507932 143.940798 415.498977 143.2724 Z M 415.498977 143.2724 " transform="matrix(1.14502,0,0,1.145463,-109.125672,-109.167976)"/>
</g>
</svg>
