<?xml version="1.0" encoding="UTF-8"?>
<!-- Created by grConvert v0.1-0 -->
<svg xmlns="http://www.w3.org/2000/svg" xmlns:xlink="http://www.w3.org/1999/xlink" width="449pt" height="250pt" viewBox="0 0 449 250" version="1.1">
<g id="surface1">
<path style="fill-rule:nonzero;fill:rgb(97.647059%,97.647059%,97.647059%);fill-opacity:1;stroke-width:2.62916;stroke-linecap:butt;stroke-linejoin:miter;stroke:rgb(0%,0%,0%);stroke-opacity:1;stroke-miterlimit:4;" d="M 480.001708 361.997663 C 480.001708 361.997663 491.494617 363.49543 498.003357 365.507137 C 504.497438 367.504159 519.493926 376.505443 527.497917 387.004495 C 535.501907 397.503546 550.498396 406.005575 558.003969 409.500364 C 565.494884 412.995153 565.494884 427.003677 564.996467 435.505706 C 564.49805 443.993051 554.001974 468.001371 549.501562 474.007122 C 545.001149 479.998189 526.501083 530.496423 516.503424 544.005692 C 506.505765 557.500276 470.004049 626.001079 461.003224 637.997897 C 452.002399 649.994715 425.996759 646.000671 409.006603 665.001751 C 392.001787 684.002831 370.994976 674.003035 345.003995 678.496335 C 324.392986 682.064544 303.503449 676.000057 303.503449 676.000057 M 67.385721 518.205925 C 59.440368 508.514493 58.824676 496.370835 79.99274 478.67663 C 111.334374 449.675754 172.668985 396.005779 198.000296 375.330724 C 223.331608 354.670354 291.336211 307.329177 318.675849 292.674557 C 347.994497 270.00248 351.996492 263.996729 382.663798 246.331892 C 418.667097 220.664281 483.666539 190.664894 497.666193 188.33014 C 511.665847 185.995386 536.997158 180.665099 565.670796 186.67085 C 594.329774 192.676601 647.000724 193.322696 657.672712 193.675112 C 668.33004 193.99816 724.328657 214.673214 762.003119 219.328038 C 799.662922 223.997547 883.675506 262.67517 929.99897 265.332972 C 976.337092 268.005458 1045.32387 315.33195 1073.675002 324.670967 C 1101.996815 333.995299 1175.674577 389.324565 1191.330735 398.002801 C 1207.001552 406.666354 1260.332172 427.664457 1280.664654 430.997722 C 1300.997136 434.330987 1321.007113 438.001984 1335.006767 438.001984 C 1349.006421 438.001984 1360.997748 440.67447 1384.995061 432.333965 C 1409.007033 423.99346 1402.996711 426.665945 1421.335525 422.994949 C 1439.674339 419.323952 1440.671173 427.664457 1442.664841 434.330987 C 1444.673168 440.997518 1452.677159 456.327601 1450.331667 466.004349 C 1448.000835 475.666413 1444.995673 487.325499 1444.336004 495.666004 C 1443.676334 504.006509 1439.996844 508.323601 1440.993678 519.336592 C 1442.005171 530.334899 1448.32334 555.003998 1443.32451 562.66904 C 1438.325681 570.334082 1431.992853 581.993168 1427.331188 585.664165 C 1422.669523 589.335162 1405.664707 599.995737 1399.33188 602.330491 C 1392.999052 604.665245 1389.334221 607.99851 1386.006554 607.99851 C 1382.664228 607.99851 1368.32741 606.324536 1356.673247 606.999999 C 1345.004426 607.675462 1309.323632 613.00575 1293.330309 619.334549 C 1277.336987 625.663347 1268.995832 628.996613 1253.325015 634.003853 C 1237.668857 638.996408 1236.994528 642.329674 1213.994049 650.670179 C 1190.99357 658.996 1157.995432 653.665712 1137.003281 660.993022 C 1115.99647 668.335016 1074.994341 677.674032 1059.323524 684.66361 C 1043.667366 691.667872 998.326078 698.995182 988.665583 702.328448 C 979.005089 705.676397 900.005993 722.328039 889.67117 725.000525 C 879.336347 727.67301 883.675506 725.999036 851.674203 727.67301 C 819.672899 729.332301 813.677235 727.996058 802.330919 730.668544 C 790.999262 733.326346 771.003944 731.006276 761.32879 730.668544 C 751.668296 730.330812 665.999208 726.997547 641.005061 721.667259 C 615.996254 716.336972 615.336585 714.662997 587.674441 715.323777 C 559.997637 715.99924 480.324213 716.997751 468.332886 715.323777 C 456.3269 713.664486 392.998621 706.674908 362.66848 699.670646 C 332.32368 692.666384 340.327671 690.669361 337.000004 689.333118 C 333.672338 687.996875 318.675849 679.333323 300.6742 675.001546 C 282.67255 670.66977 237.331262 659.333731 198.000296 635.325411 C 158.66933 611.331775 132.326526 598.674178 115.673534 588.336651 C 99.005883 577.999123 45.000934 537.999941 48.006095 529.67412 C 50.996597 521.333615 58.575468 511.921178 63.251792 512.244226 M 144.332512 446.327805 C 141.004845 448.677243 139.670847 451.672777 139.670847 451.672777 M 122.006362 463.331863 C 124.337194 468.001371 125.334028 470.336125 125.334028 469.998393 " transform="matrix(0.266469,0,0,0.266021,-12.401494,-12.32244)"/>
<path style="fill-rule:nonzero;fill:rgb(92.54902%,92.54902%,92.54902%);fill-opacity:1;stroke-width:3.286445;stroke-linecap:round;stroke-linejoin:round;stroke:rgb(0%,0%,0%);stroke-opacity:1;stroke-miterlimit:4;" d="M 2153.869578 396.091607 C 2149.160278 396.073252 2140.364697 397.633424 2122.077218 402.093678 C 2089.588542 410.004665 2035.404099 430.415376 2005.828958 442.492938 C 1976.253818 454.588854 1952.90888 460.407376 1924.158325 472.503292 C 1899.988802 480.414278 1871.659702 492.914004 1845.841007 500.843345 C 1827.077101 510.828442 1753.743946 533.331619 1776.667429 528.742879 C 1799.590911 524.15414 1800.836952 534.579756 1803.329033 542.912906 C 1805.839439 551.246056 1815.826088 570.408631 1812.912551 582.504548 C 1809.999015 594.582109 1806.242569 609.155945 1805.417984 619.58156 C 1804.593398 630.007175 1799.994042 635.403533 1801.240083 649.16975 C 1802.504447 662.917613 1810.402146 693.75394 1804.153619 703.335227 C 1797.905092 712.916515 1789.989069 727.49035 1784.161997 732.07909 C 1778.334924 736.667829 1757.078937 749.993527 1749.162914 752.911965 C 1741.246892 755.830404 1736.66586 759.996979 1732.506283 759.996979 C 1728.328382 759.996979 1780.827006 770.404239 1790.831979 774.992978 C 1800.836952 779.581718 1870.835116 809.169908 1890.405284 814.58462 C 1909.993775 819.999332 2000.001886 852.90977 2009.585404 853.754098 C 2019.168922 854.580071 2101.242686 878.753549 2108.334123 878.331385 C 2115.407236 877.909221 2139.155305 877.909221 2139.155305 877.909221 L 2138.330719 799.166456 C 2138.330719 799.166456 2126.65825 737.915966 2120.006592 725.41624 C 2113.33661 712.916515 2099.153736 670.828599 2094.151249 666.662024 C 2089.167087 662.495449 2083.340014 648.343777 2083.340014 648.343777 C 2083.340014 648.343777 2087.078136 639.588463 2092.080623 632.081286 C 2102.085596 619.159396 2107.491214 595.004273 2112.915155 581.25641 C 2125.833664 557.082933 2137.084678 521.254057 2139.998214 507.910004 C 2139.998214 507.910004 2158.743796 438.748527 2158.743796 438.344718 C 2158.743796 437.904199 2162.903373 401.24935 2159.989837 398.330912 C 2158.725472 397.06442 2157.534404 396.091607 2153.869578 396.091607 Z M 1517.49098 813.336483 C 1488.740425 823.743743 1447.492815 817.080894 1421.252666 826.240017 C 1394.994192 835.417496 1343.74161 847.091248 1324.153118 855.828208 C 1304.582951 864.583522 1247.906426 873.742645 1235.830827 877.909221 C 1223.755227 882.094151 1125.006508 902.908672 1112.087999 906.249274 C 1099.169489 909.589876 1101.661571 915.830561 1101.661571 915.830561 C 1101.661571 915.830561 1118.336526 940.004039 1144.998131 955.000039 C 1171.659735 969.996038 1235.006241 1008.339543 1269.162414 1015.828365 C 1303.33691 1023.335542 1384.164633 1035.835268 1404.999165 1050.831268 C 1425.833697 1065.827267 1437.506166 1066.65324 1459.98987 1072.490117 C 1482.491897 1078.326993 1500.834348 1080.841622 1515.841808 1073.334445 C 1530.830944 1065.827267 1569.989603 1048.334994 1584.154153 1033.338994 C 1598.337027 1018.342994 1603.339514 1022.491214 1616.661154 993.343543 C 1630.001118 964.159162 1640.006091 959.166614 1636.652776 927.504314 C 1633.336109 895.842013 1632.493199 871.668535 1629.158208 860.839111 C 1625.841541 849.991331 1604.164099 822.495606 1597.494117 820.84366 C 1590.842459 819.155004 1535.411976 819.999332 1535.411976 819.999332 C 1520.844295 822.495606 1522.090335 818.329031 1517.49098 813.336483 Z M 749.563475 893.767903 C 747.67609 893.786258 743.223327 893.951453 734.592663 894.153357 C 721.765774 894.483746 699.996712 894.832491 676.94496 895.071105 C 699.996712 925.834013 683.743211 904.578973 695.837135 953.329738 C 695.837135 953.329738 712.090635 1009.991489 715.407302 1025.005844 C 718.742293 1040.001843 744.579312 1098.75606 749.581799 1106.244882 C 754.584285 1113.752059 772.083826 1131.244333 777.086313 1140.843975 C 782.0888 1150.406908 790.004822 1162.502824 798.3423 1175.406359 C 806.661454 1188.328248 806.661454 1194.165124 820.404549 1208.335151 C 834.165968 1222.505178 840.83595 1232.490274 844.592396 1232.490274 C 848.330518 1232.490274 846.241568 1235.408712 852.91155 1224.157124 C 859.581532 1212.905535 867.91901 1193.339151 873.746082 1189.998549 C 879.591478 1186.657947 887.910632 1166.247235 887.910632 1166.247235 L 893.334573 1150.406908 C 893.334573 1150.406908 900.004556 1143.744058 903.339547 1128.34425 C 906.656214 1112.907731 907.920578 1097.489568 912.904741 1088.752608 C 917.907227 1079.997294 923.331169 1055.842171 923.331169 1055.842171 C 923.331169 1055.842171 928.333656 1029.998392 923.752624 1019.591131 C 919.171592 1009.165516 905.410173 987.910476 905.007042 987.910476 C 904.585587 987.910476 890.842492 972.088503 865.408604 959.166614 C 839.99304 946.244724 819.579963 926.659986 809.593314 924.989685 C 799.588341 923.337738 779.999849 914.16026 779.999849 913.756451 C 779.999849 913.334287 767.502795 908.341739 754.584285 907.497411 C 748.757213 907.497411 741.665776 900.412397 741.665776 900.412397 C 737.854358 894.997685 755.22563 893.712838 749.563475 893.767903 Z M 985.211745 59.553476 C 979.751155 59.516766 970.992223 64.178925 967.492314 65.830872 C 959.594616 69.593638 947.903823 75.412159 939.584669 79.578734 C 931.247192 83.745309 924.57721 86.241583 912.080155 94.996898 C 899.583101 103.752212 879.591478 121.66665 870.832546 124.585088 C 862.091937 127.503526 865.005473 127.503526 862.916523 122.492623 C 860.845897 117.500075 860.845897 114.159472 862.916523 96.245035 C 865.005473 78.330597 857.089451 91.252487 843.749486 98.741309 C 830.409522 106.248486 829.163481 110.415061 816.666427 122.088814 C 804.169372 133.744211 797.49939 135.414512 788.758782 137.910786 C 779.999849 140.407061 776.664858 135.414512 774.154453 123.759115 C 773.47646 120.528642 777.947547 107.753593 773.329867 109.589088 C 761.180971 114.416442 732.008961 145.234414 724.166235 154.595442 C 713.336676 167.498977 698.750671 171.243388 697.907761 169.169278 C 697.083176 167.095168 694.591094 165.847031 692.905275 165.847031 C 691.256103 165.847031 675.405734 179.154374 669.596985 183.743113 C 663.751589 188.331852 604.582984 238.330755 622.082525 235.412316 C 639.582066 232.493878 671.246157 225.831029 707.088149 233.338206 C 742.911817 240.845384 808.750404 241.671357 822.090368 242.093521 C 835.412009 242.49733 905.410173 268.341109 952.503179 274.15963 C 999.596185 279.996506 1104.593431 328.343462 1162.497672 331.665709 C 1220.401912 335.006311 1306.653577 394.164337 1342.092438 405.838089 C 1377.494651 417.493487 1469.591712 486.654964 1489.16188 497.502743 C 1502.776706 505.04663 1539.186746 520.024275 1568.633617 529.862532 C 1581.533803 534.157592 1569.586472 522.906003 1575.413544 520.00592 C 1581.240617 517.087482 1604.585554 520.00592 1615.836568 520.409729 C 1627.087582 520.831893 1659.154804 516.243154 1670.827272 511.250606 C 1682.499741 506.258057 1677.497255 473.751429 1677.91871 464.170142 C 1678.138599 459.214303 1683.177734 439.060561 1680.410791 419.585952 C 1677.827089 401.377835 1667.473957 383.793786 1666.667696 379.168337 C 1665.84311 374.432758 1657.194122 355.508798 1645.833164 337.906395 C 1634.197343 319.881827 1619.831228 303.178817 1617.504064 298.755272 C 1612.904708 289.999958 1572.078553 252.90459 1564.583985 247.912042 C 1557.089418 242.919494 1508.328916 209.586892 1500.412893 205.842481 C 1492.496871 202.079715 1479.999816 191.250291 1452.916757 184.587441 C 1441.51915 181.779133 1430.396405 176.070741 1418.33913 173.335853 C 1401.719147 169.573087 1384.915922 169.279407 1377.916106 169.995251 C 1365.840506 171.243388 1362.908646 169.995251 1355.835533 169.169278 C 1348.744096 168.343305 1350.833047 167.095168 1341.670983 168.747114 C 1332.490596 170.417415 1328.752474 173.335853 1321.239582 176.254291 C 1313.745014 179.154374 1310.410023 177.906237 1302.494 178.346756 C 1294.577977 178.750565 1293.753392 172.913689 1290.418401 170.839579 C 1287.08341 168.747114 1280.413427 170.417415 1265.827422 170.839579 C 1251.241418 171.243388 1255.840773 169.995251 1252.084327 163.332401 C 1248.327881 156.669552 1247.503296 150.832676 1247.503296 150.832676 C 1247.503296 150.832676 1241.254768 149.584539 1232.917291 150.006703 C 1224.579813 150.410512 1222.087732 147.492074 1217.085245 143.343854 C 1212.082759 139.158924 1213.328799 138.755114 1207.904858 128.329499 C 1202.49924 117.903884 1206.255686 122.914787 1199.164249 122.088814 C 1192.091136 121.244486 1189.580731 122.492623 1173.748685 122.492623 C 1157.91664 122.492623 1166.657248 119.59254 1161.654762 113.755663 C 1156.670599 107.918787 1157.495185 105.844677 1157.495185 105.844677 C 1157.495185 105.844677 1149.579162 108.340951 1143.330635 109.589088 C 1137.082108 110.837225 1132.079621 114.581636 1121.250062 112.911335 C 1110.402179 111.241034 1115.001535 105.404158 1115.001535 105.404158 L 1111.666544 94.996898 C 1111.666544 94.996898 1098.344904 100.007801 1091.253467 102.504075 C 1084.16203 105.000349 1077.088917 106.248486 1072.911016 105.000349 C 1068.751439 103.752212 1067.505398 97.089363 1062.906043 82.497172 C 1058.343335 67.904982 1053.340848 71.667748 1046.249411 73.338049 C 1039.157974 75.00835 1036.665893 76.660296 1029.995911 80.000898 C 1023.344253 83.3415 999.999315 91.656296 996.242869 91.252487 C 992.504747 90.830323 986.659351 90.830323 987.502261 80.000898 C 987.887068 75.04506 991.918375 63.132693 988.326847 60.416159 C 987.538909 59.810446 986.457786 59.553476 985.211745 59.553476 Z M 985.211745 59.553476 " transform="matrix(0.213175,0,0,0.212817,-12.40165,-12.32244)"/>
<path style="fill-rule:nonzero;fill:rgb(92.54902%,92.54902%,92.54902%);fill-opacity:1;stroke-width:2.62916;stroke-linecap:butt;stroke-linejoin:miter;stroke:rgb(0%,0%,0%);stroke-opacity:1;stroke-miterlimit:4;" d="M 86.501479 533.50664 C 81.004233 530.378951 67.62027 521.113355 63.251792 512.244226 C 58.575468 511.921178 50.996597 521.333615 48.006095 529.67412 C 45.000934 537.999941 99.005883 577.999123 115.673534 588.336651 C 132.326526 598.674178 158.66933 611.331775 198.000296 635.325411 C 209.331953 640.670383 215.327617 626.001079 221.32328 617.322842 C 227.333603 608.673974 239.32493 582.668631 227.333603 575.326637 C 215.327617 567.999328 190.670634 558.674995 178.004979 555.327046 C 165.324663 551.993781 142.676008 544.005692 124.00003 529.336388 C 106.672709 511.994598 77.999072 482.670675 68.455852 490.306348 C 59.528324 501.965435 61.316761 510.805195 67.385721 518.205925 C 73.220132 525.283607 82.968582 531.025046 91.001892 536.663698 C 94.50547 539.996963 96.748347 541.245102 100.677046 544.666471 C 101.571264 545.635614 124.381172 562.786512 136.006016 575.326637 C 176.377794 616.104071 163.330995 610.670996 199.993964 626.001079 " transform="matrix(0.266469,0,0,0.266021,-12.401494,-12.32244)"/>
<path style="fill-rule:nonzero;fill:rgb(92.54902%,92.54902%,92.54902%);fill-opacity:1;stroke-width:2.62916;stroke-linecap:butt;stroke-linejoin:miter;stroke:rgb(0%,0%,0%);stroke-opacity:1;stroke-miterlimit:4;" d="M 181.493898 461.99562 C 187.50422 475.504889 198.000296 498.000758 216.001946 502.494058 C 234.003595 507.002042 235.498846 514.50556 262.501321 505.504276 C 289.503795 496.502991 287.993885 496.502991 299.999871 477.002656 C 312.005857 457.50232 310.495947 447.003269 309.000696 431.996233 C 307.505445 417.003882 289.503795 394.493328 274.507307 390.000028 C 259.496159 385.506728 236.994097 383.994277 216.001946 388.502261 C 194.995135 392.995562 192.004633 406.50483 187.50422 413.993664 C 183.003808 421.497182 175.498234 448.501035 181.493898 461.99562 Z M 181.493898 461.99562 " transform="matrix(0.266469,0,0,0.266021,-12.401494,-12.32244)"/>
<path style="fill-rule:nonzero;fill:rgb(20%,20%,20%);fill-opacity:1;stroke-width:2.62916;stroke-linecap:butt;stroke-linejoin:miter;stroke:rgb(0%,0%,0%);stroke-opacity:1;stroke-miterlimit:4;" d="M 239.999259 408.002597 C 223.49286 409.500364 216.001946 408.002597 208.496372 418.501648 C 201.005458 429.0007 196.666298 467.325908 206.502704 480.497445 C 213.495201 485.005429 220.003941 488.999473 229.503183 488.999473 C 239.002425 488.999473 253.500496 488.000962 259.994576 485.005429 C 266.503316 481.995211 275.504141 482.993723 281.001387 475.504889 C 286.498634 468.001371 289.005378 464.007326 288.506961 452.49508 C 287.993885 440.997518 287.993885 432.994744 282.995055 426.005166 C 277.996226 419.000904 274.507307 409.500364 264.993406 407.004086 C 255.494164 404.493124 256.505657 406.50483 239.999259 408.002597 Z M 239.999259 408.002597 " transform="matrix(0.266469,0,0,0.266021,-12.401494,-12.32244)"/>
<path style=" stroke:none;fill-rule:nonzero;fill:rgb(100%,100%,100%);fill-opacity:1;" d="M 41.558594 105.257812 C 42.089844 105.925781 42.757812 106.191406 44.488281 105.65625 C 46.222656 105.125 46.753906 104.195312 49.953125 104.0625 C 53.148438 103.929688 54.617188 103.929688 56.082031 104.195312 C 57.546875 104.460938 58.480469 103.53125 58.746094 104.195312 C 59.011719 104.859375 61.144531 105.390625 57.945312 106.058594 C 54.75 106.722656 54.214844 108.316406 51.816406 108.316406 C 49.417969 108.316406 49.285156 109.382812 46.886719 109.117188 C 44.488281 108.851562 42.089844 110.179688 41.957031 110.84375 C 41.824219 111.511719 39.113281 110.402344 39.113281 109.335938 C 39.113281 108.273438 41.027344 104.59375 41.558594 105.257812 Z M 41.558594 105.257812 "/>
<path style="fill-rule:nonzero;fill:rgb(20%,20%,20%);fill-opacity:1;stroke-width:2.62916;stroke-linecap:butt;stroke-linejoin:miter;stroke:rgb(0%,0%,0%);stroke-opacity:1;stroke-miterlimit:4;" d="M 505.992689 202.999444 C 505.992689 212.000729 483.006869 234.995853 489.002532 271.999503 C 494.998196 309.003152 503.999021 300.001867 517.998675 320.99997 C 531.998329 341.998072 532.995163 370.000437 527.996334 384.992788 C 522.997504 399.999824 508.99785 408.002597 495.99503 408.002597 C 483.006869 408.002597 449.994072 399.999824 437.005911 391.99705 C 424.003091 383.994277 401.002612 338.004027 401.002612 338.004027 C 401.002612 338.004027 351.996492 263.996729 382.663798 246.331892 C 418.667097 220.664281 483.666539 190.664894 497.666193 188.33014 C 511.665847 185.995386 505.992689 193.99816 505.992689 202.999444 Z M 911.498903 315.99273 C 920.499728 331.998276 927.506885 364.993197 941.506539 409.001108 C 955.506193 452.994336 924.501723 510.996087 911.99732 558.498788 C 899.492917 606.001488 909.505235 609.496277 907.995325 628.996613 C 906.500074 648.496948 886.006339 662.505473 867.506272 665.001751 C 849.006206 667.498029 783.962786 702.930491 754.101744 697.409312 C 734.67814 693.811735 729.312827 674.472923 698.821434 651.463114 C 683.399825 639.84808 662.114487 535.033775 638.131833 513.272105 C 614.632937 491.980323 623.003411 417.003882 608.006923 395.007268 C 604.004927 384.493533 605.500178 364.993197 584.493367 334.494554 C 563.501216 303.995912 579.494538 253.497678 579.494538 253.497678 C 579.494538 253.497678 598.75689 191.193518 616.3041 192.177345 C 635.243946 193.234592 652.131487 193.48422 657.672712 193.675112 C 668.33004 193.99816 724.328657 214.673214 762.003119 219.328038 C 792.75838 223.145875 854.415496 249.635789 901.222717 260.663464 C 911.733452 263.145058 902.498078 300.001867 911.498903 315.99273 Z M 1229.005197 430.997722 C 1229.005197 436.004962 1235.00086 456.004553 1231.995699 467.00286 C 1229.005197 478.001167 1239.002855 510.996087 1243.004851 531.99419 C 1247.006846 553.006976 1247.006846 576.002101 1241.993358 589.995941 C 1236.994528 604.004466 1230.002031 606.999999 1213.994049 612.007239 C 1198.000727 616.999795 1187.006234 635.002364 1171.995086 635.002364 C 1156.998598 635.002364 1155.00493 629.995124 1150.006101 607.99851 C 1145.007271 586.001897 1152.996603 543.00718 1156.998598 525.004611 C 1161.000594 507.002042 1151.002935 467.00286 1151.002935 467.00286 C 1151.002935 467.00286 1137.076577 361.336884 1165.926126 381.174951 C 1177.55097 389.163041 1186.830322 395.506523 1191.330735 398.002801 C 1195.904444 400.528447 1203.673885 404.096656 1212.87994 407.973229 C 1235.294047 417.415033 1229.005197 426.005166 1229.005197 430.997722 Z M 1365.996577 472.993927 C 1365.996577 488.999473 1379.996232 498.999269 1379.996232 518.000349 C 1379.996232 537.001429 1374.000568 545.004203 1360.997748 565.003794 C 1347.994928 585.003385 1354.00525 573.006567 1331.004771 579.996146 C 1308.004292 587.000408 1300.997136 574.005079 1304.002297 565.003794 C 1306.992799 556.00251 1327.002776 550.99527 1328.996444 538.998452 C 1331.004771 527.001634 1313.999956 511.994598 1319.995619 492.993518 C 1326.005942 474.007122 1304.925834 435.123922 1315.656459 436.489533 C 1322.824869 437.414625 1329.406905 438.001984 1335.006767 438.001984 C 1345.107041 438.001984 1354.166503 439.396963 1367.433191 437.032841 C 1372.563954 436.122434 1365.996577 457.003064 1365.996577 472.993927 Z M 1061.493104 346.506056 C 1058.502602 357.504363 1058.502602 366.006392 1064.996682 383.994277 C 1071.505422 401.996846 1081.503081 456.503809 1082.499915 478.001167 C 1083.496749 499.498525 1088.993995 547.500481 1082.998332 575.00359 C 1077.002668 602.506699 1071.007005 624.004057 1064.498265 636.999386 C 1058.004185 649.994715 1053.005355 655.001955 1041.996203 646.999182 C 1031.00171 638.996408 1040.500952 606.999999 1041.497786 588.498174 C 1042.49462 569.99635 1028.494966 549.497503 1026.999715 521.495138 C 1025.504464 484.506173 1022.000886 452.49508 1021.502469 433.494 C 1026.501298 367.004903 994.499994 311.998685 995.394213 286.066763 C 1026.941078 300.956326 1057.183263 319.237891 1073.675002 324.670967 C 1063.999848 331.499021 1063.003014 336.007005 1061.493104 346.506056 Z M 1061.493104 346.506056 " transform="matrix(0.266469,0,0,0.266021,-12.401494,-12.32244)"/>
<path style="fill-rule:nonzero;fill:rgb(40%,40%,40%);fill-opacity:1;stroke-width:2.62916;stroke-linecap:butt;stroke-linejoin:miter;stroke:rgb(0%,0%,0%);stroke-opacity:1;stroke-miterlimit:4;" d="M 921.496562 243.997138 C 922.493396 235.994365 929.99897 225.495313 935.496216 217.507224 C 940.993462 209.504451 959.493529 196.494438 971.499515 187.493153 C 983.505501 178.506553 985.499169 174.997079 999.000407 161.502495 C 1012.501644 147.993226 1014.363378 154.233921 1017.647066 145.996204 C 1011.138327 149.006421 998.003573 158.506961 990.996416 163.000261 C 984.003918 167.493562 979.503506 170.503779 970.502681 177.493357 C 961.501856 184.49762 952.002615 188.506348 944.497041 196.494438 C 937.006126 204.497211 931.494221 205.994978 926.993808 209.005195 C 922.493396 212.000729 905.004823 227.50702 897.499249 233.498087 C 889.993675 239.503838 887.003173 240.003093 883.001178 234.995853 C 878.999182 230.003298 886.504756 224.496802 892.002002 216.494029 C 897.499249 208.50594 905.004823 202.000933 914.504064 192.001137 C 924.003306 182.001342 923.504889 183.499108 935.496216 172.001546 C 947.502202 160.503984 948.499036 163.499517 964.507018 148.507166 C 969.095386 143.264982 978.55065 136.363508 977.817684 134.366485 C 971.235647 137.494175 963.993941 143.00067 949.49587 151.502699 C 934.997799 160.004728 926.993808 165.995795 921.496562 168.506757 C 915.999315 171.003035 883.001178 192.500393 864.501111 212.499984 C 846.001044 232.499575 844.505793 215.994773 849.504623 204.497211 C 854.503452 192.999648 859.502282 193.498904 865.996362 183.998364 C 872.505102 174.497824 895.007164 155.995999 916.497732 137.99343 C 938.00296 120.005545 938.00296 119.50629 926.993808 124.998101 C 915.999315 130.504597 911.498903 133.000875 902.498078 139.006625 C 893.497253 144.997692 882.004344 151.003443 870.496774 162.00175 C 859.003865 173.000057 883.001178 151.502699 833.496641 192.500393 C 784.006764 233.498087 822.003731 195.495926 823.498982 186.993897 C 824.994233 178.506553 829.494646 170.503779 837.00022 160.503984 C 844.505793 150.504188 858.007031 143.999181 889.495258 118.493095 C 920.998145 93.001692 901.002827 104.499254 892.002002 107.994043 C 883.001178 111.503516 878.999182 116.995328 868.503106 123.001079 C 858.007031 129.00683 846.997878 139.006625 837.997054 145.496948 C 828.996229 152.001955 825.50731 159.505472 795.998091 179.005808 C 766.503532 198.506144 767.500366 189.005604 771.502361 179.505064 C 775.504356 170.004524 781.998437 165.995795 793.506006 151.502699 C 804.998916 136.994919 817.503319 129.506085 839.506964 112.502028 C 861.49595 95.49797 859.003865 88.493708 842.497466 103.500743 C 826.005727 118.493095 830.506139 111.004261 819.995404 118.493095 C 809.499328 125.996612 809.000911 128.49289 759.994792 161.003239 C 711.003332 193.498904 730.500232 168.506757 732.4939 154.997488 C 733.57869 147.699546 745.115578 135.100685 759.994792 122.912975 C 771.619635 113.383067 785.531334 100.079374 798.006418 92.722696 C 799.105868 92.076601 805.834497 88.802071 806.904628 88.185344 C 813.633257 82.913792 819.321075 80.138519 821.637248 73.266412 C 807.139177 83.266208 799.003252 86.496685 789.504011 93.500947 C 780.004769 100.50521 771.003944 105.497765 766.005114 106.995532 C 761.006285 108.493299 754.497545 115.497561 710.006498 152.001955 C 665.500791 188.506348 691.506431 152.50121 693.500099 140.504392 C 695.493767 128.49289 729.503398 101.004465 752.503877 77.495401 C 775.504356 54.00102 749.997133 73.002101 739.501057 80.505618 C 729.004981 87.994452 725.002986 88.992963 712.498583 99.506698 C 699.99418 110.00575 678.005194 127.993635 670.49962 133.000875 C 662.994046 137.99343 646.00389 154.498233 634.994738 169.505268 C 624.000245 184.49762 619.499833 177.493357 619.001416 177.493357 C 618.502999 177.493357 619.499833 166.994306 620.995084 161.502495 C 622.504994 155.995999 638.996733 131.003852 647.000724 123.001079 C 655.004715 114.998306 670.001203 91.00467 667.494459 94.499459 C 665.002374 97.994248 655.503132 105.997021 648.994392 113.001283 C 642.500312 120.005545 606.497012 152.50121 600.501349 158.506961 C 594.505686 164.498028 588.495363 175.995591 581.004448 179.505064 C 573.498875 182.999853 574.495709 176.494846 573.000458 173.000057 C 571.505207 169.505268 585.006444 137.494175 589.506856 129.506085 C 594.007269 121.503312 606.497012 103.001488 601.9966 107.494788 C 597.496188 112.002772 592.995775 118.493095 588.495363 122.501823 C 583.99495 126.495868 582.499699 125.996612 572.003624 145.496948 C 561.492888 164.997284 550.498396 176.994102 545.001149 177.493357 C 539.503903 178.007297 535.501907 175.496335 536.000324 173.499313 C 536.498741 171.50229 540.00232 162.501006 542.494405 157.493766 C 545.001149 152.50121 555.497225 137.494175 554.500391 135.497152 C 553.503557 133.50013 539.503903 151.502699 532.496746 162.00175 C 525.504249 172.500802 483.666539 190.664894 497.666193 188.33014 C 511.665847 185.995386 536.997158 180.665099 565.670796 186.67085 C 594.329774 192.676601 647.000724 193.322696 657.672712 193.675112 C 668.33004 193.99816 724.328657 214.673214 762.003119 219.328038 C 799.662922 223.997547 883.675506 262.67517 929.99897 265.332972 C 932.344461 265.465128 920.499728 251.999911 921.496562 243.997138 Z M 921.496562 243.997138 " transform="matrix(0.266469,0,0,0.266021,-12.401494,-12.32244)"/>
<path style="fill:none;stroke-width:3.286445;stroke-linecap:round;stroke-linejoin:round;stroke:rgb(0%,0%,0%);stroke-opacity:1;stroke-miterlimit:4;" d="M 996.55438 398.642946 C 990.324176 398.661301 983.929056 399.24866 977.497288 400.625282 C 948.123712 406.865967 859.379966 440.620732 837.500959 456.259155 C 815.621952 471.879224 793.119924 502.495291 783.756295 518.133714 C 774.374342 533.753783 745.000767 566.866124 731.880692 581.880479 C 718.742293 596.876479 688.745698 633.127518 680.005089 644.379107 C 671.246157 655.630695 671.869177 671.874832 671.869177 679.382009 C 671.869177 686.870831 671.246157 693.75394 678.759049 714.366556 C 686.253617 734.997528 691.879124 755.004431 701.242752 756.252568 C 710.624705 757.500705 727.501226 758.748842 752.495335 756.252568 C 777.507768 753.756293 838.747 747.497253 853.131439 745.625048 C 867.497555 743.752842 884.374075 747.497253 897.49415 738.741939 C 910.632549 730.00498 940.629145 714.366556 958.751706 696.250214 C 976.874267 678.115517 1015.629795 644.379107 1024.993424 626.868478 C 1034.375377 609.376204 1061.879891 558.753234 1065.618013 540.618536 C 1069.374459 522.502194 1076.246007 479.368046 1076.246007 473.127361 C 1076.246007 466.86832 1066.882378 416.869418 1051.251898 410.628733 C 1039.048029 405.746315 1018.818194 398.569526 996.55438 398.642946 Z M 996.55438 398.642946 " transform="matrix(0.213175,0,0,0.212817,-12.40165,-12.32244)"/>
<path style="fill-rule:nonzero;fill:rgb(40%,40%,40%);fill-opacity:1;stroke-width:0.7;stroke-linecap:butt;stroke-linejoin:miter;stroke:rgb(0%,0%,0%);stroke-opacity:1;stroke-miterlimit:4;" d="M 200.039044 72.51563 C 198.710919 72.519536 197.347638 72.648443 195.976545 72.937505 C 189.714826 74.269536 170.796858 81.449224 166.132795 84.773443 C 161.468733 88.101569 156.671858 94.617194 154.675765 97.941413 C 154.089827 98.914069 153.121077 100.222663 151.999983 101.640632 C 153.046858 109.796883 153.359358 120.343758 157.640608 124.218759 C 161.238264 127.476571 164.589827 137.671885 167.582014 146.56251 C 168.039045 146.511729 169.171858 146.398448 169.464827 146.359385 C 172.527327 145.960948 176.124983 146.757823 178.925764 144.894541 C 181.722639 143.035166 188.11717 139.707041 191.980451 135.851572 C 195.843732 131.996103 204.105451 124.812509 206.105451 121.085946 C 208.101544 117.363289 213.964825 106.589851 214.765606 102.730476 C 215.562481 98.875007 217.027325 89.699225 217.027325 88.367194 C 217.027325 87.035162 215.031231 76.398443 211.6992 75.066411 C 209.097638 74.027349 204.785138 72.500005 200.039044 72.51563 Z M 200.039044 72.51563 " transform="matrix(1,0,0,1,0.0000120215,0.0000000488262)"/>
</g>
</svg>
