<?xml version="1.0" encoding="UTF-8"?>
<!-- Created by grConvert v0.1-0 -->
<svg xmlns="http://www.w3.org/2000/svg" xmlns:xlink="http://www.w3.org/1999/xlink" width="289pt" height="252pt" viewBox="0 0 289 252" version="1.1">
<g id="surface1">
<path style="fill-rule:nonzero;fill:rgb(100%,100%,100%);fill-opacity:1;stroke-width:2.62916;stroke-linecap:round;stroke-linejoin:round;stroke:rgb(0%,0%,0%);stroke-opacity:1;stroke-miterlimit:4;" d="M 1285.561689 478.377576 C 1285.561689 737.168159 1076.123944 946.943594 817.782698 946.943594 C 559.426792 946.943594 349.989047 737.168159 349.989047 478.377576 C 349.989047 219.601677 559.426792 9.811557 817.782698 9.811557 C 1076.123944 9.811557 1285.561689 219.601677 1285.561689 478.377576 Z M 1285.561689 478.377576 " transform="matrix(0.266469,0,0,0.266021,-54.097047,-1.258519)"/>
<path style="fill-rule:nonzero;fill:rgb(97.647059%,97.647059%,97.647059%);fill-opacity:1;stroke-width:0.7;stroke-linecap:butt;stroke-linejoin:miter;stroke:rgb(0%,0%,0%);stroke-opacity:1;stroke-miterlimit:4;" d="M 130.222872 36.611859 C 126.054904 36.689984 122.543185 37.389203 120.211154 37.775922 C 117.816623 38.178265 109.808812 41.627484 101.840062 45.846234 C 88.183814 66.303266 80.883033 90.342328 80.859596 114.936078 C 80.914283 136.334516 86.472876 157.357953 97.004125 175.982954 C 103.816625 176.943891 110.504124 177.709516 112.394749 177.971235 C 115.593967 178.416547 136.820528 178.147016 144.191621 177.971235 C 151.562714 177.795454 151.742401 178.23686 158.402557 179.654829 C 165.066619 181.072797 187.894742 181.959516 190.46896 182.04936 C 193.047085 182.139204 198.375209 182.760297 201.39474 182.04936 C 204.418178 181.342329 206.015834 181.693891 214.53927 181.252485 C 223.066613 180.811079 221.91427 181.252485 224.668176 180.541547 C 227.422082 179.834516 248.472861 175.400922 251.047079 174.510297 C 253.621298 173.627485 265.703328 171.678266 269.875203 169.814985 C 274.050983 167.951703 284.976764 165.467328 290.574419 163.51811 C 296.168169 161.568891 304.961137 162.98686 311.090042 160.76811 C 317.218948 158.54936 317.398635 157.662641 321.57051 156.334516 C 322.140822 156.150922 322.605666 155.990766 323.113479 155.822797 C 327.730666 142.686078 330.113478 128.865766 330.160353 114.936078 C 330.117384 110.756391 329.863478 106.576703 329.398634 102.420453 C 329.215041 102.393109 329.039259 102.361859 328.855666 102.330609 C 323.437697 101.447797 309.226761 95.861859 305.05098 93.553266 C 300.879106 91.248578 281.246295 76.529828 273.695515 74.045453 C 266.144734 71.561078 247.758017 58.971234 235.414268 58.260297 C 223.07052 57.553265 200.687709 47.264203 190.648648 46.022015 C 180.609586 44.783734 165.687713 39.283734 162.847869 39.197797 C 160.004119 39.107953 145.968964 38.932172 138.332246 37.334515 C 135.468965 36.736859 132.726778 36.564984 130.222872 36.611859 Z M 130.222872 36.611859 " transform="matrix(1,0,0,1,-41.695541,11.063922)"/>
<path style="fill-rule:nonzero;fill:rgb(92.54902%,92.54902%,92.54902%);fill-opacity:1;stroke-width:0.7;stroke-linecap:round;stroke-linejoin:round;stroke:rgb(0%,0%,0%);stroke-opacity:1;stroke-miterlimit:4;" d="M 197.617397 0.35014 C 196.457241 0.342328 194.590053 1.338421 193.84396 1.689984 C 192.160366 2.486859 189.668179 3.72514 187.894742 4.615765 C 186.117398 5.502484 184.699429 6.033734 182.031461 7.893109 C 179.367399 9.75639 175.101774 13.56889 173.238493 14.189984 C 171.371306 14.811078 171.996306 14.811078 171.550993 13.748578 C 171.109587 12.682172 171.109587 11.97514 171.550993 8.16264 C 171.996306 4.35014 170.308806 7.096234 167.465056 8.69389 C 164.621306 10.28764 164.355681 11.174359 161.691619 13.658734 C 159.027557 16.143109 157.605682 16.494672 155.738495 17.025922 C 153.875214 17.561078 153.164276 16.494672 152.62912 14.014203 C 152.484589 13.330609 153.437714 10.607953 152.453339 10.998578 C 149.863495 12.025922 143.644746 18.584515 141.972871 20.576703 C 139.664278 23.322797 136.554903 24.123578 136.375215 23.678265 C 136.199434 23.236859 135.668184 22.971234 135.308809 22.971234 C 134.957247 22.971234 131.578341 25.807172 130.336153 26.783734 C 129.093966 27.760297 116.480686 38.400922 120.211154 37.775922 C 123.941623 37.158734 130.691622 35.740765 138.332246 37.334515 C 145.968964 38.932172 160.004119 39.107953 162.847869 39.197797 C 165.687713 39.283734 180.609586 44.783734 190.648648 46.022015 C 200.687709 47.264203 223.07052 57.553265 235.414268 58.260297 C 247.758017 58.971234 266.144734 71.561078 273.695515 74.045453 C 281.246295 76.529828 300.879106 91.248578 305.05098 93.553266 C 307.953324 95.158734 315.715042 98.346234 321.992385 100.439984 C 324.742385 101.357953 322.19551 98.963422 323.437697 98.342328 C 324.250197 97.936078 326.648635 98.068891 328.886916 98.225141 C 325.097853 70.326703 311.972855 44.529828 291.652544 25.041547 C 291.09395 24.861859 290.527544 24.697797 289.953326 24.564984 C 286.410357 23.764203 282.82442 23.701703 281.332233 23.857953 C 278.758014 24.123578 278.13692 23.854047 276.629108 23.678265 C 275.11739 23.502484 275.562702 23.236859 273.605671 23.588422 C 271.652546 23.94389 270.855671 24.56889 269.254109 25.186078 C 267.656453 25.807172 266.945515 25.541547 265.258015 25.63139 C 263.570516 25.717328 263.394734 24.47514 262.679891 24.033734 C 261.97286 23.592328 260.550985 23.94389 257.44161 24.033734 C 254.332235 24.123578 255.312704 23.857953 254.511923 22.439984 C 253.711142 21.018109 253.531454 19.779828 253.531454 19.779828 C 253.531454 19.779828 252.199423 19.510297 250.422079 19.60014 C 248.648642 19.686078 248.117392 19.06889 247.050986 18.182172 C 245.98458 17.291547 246.254111 17.205609 245.093955 14.990765 C 243.941611 12.772015 244.742392 13.834515 243.230674 13.658734 C 241.722861 13.482953 241.187705 13.748578 237.812706 13.748578 C 234.437706 13.748578 236.300987 13.127484 235.234581 11.885297 C 234.172081 10.643109 234.347862 10.201703 234.347862 10.201703 C 234.347862 10.201703 232.664269 10.732953 231.328331 10.998578 C 229.9963 11.264203 228.929894 12.064984 226.6213 11.705609 C 224.312707 11.354047 225.289269 10.111859 225.289269 10.111859 L 224.578332 7.893109 C 224.578332 7.893109 221.738488 8.959515 220.22677 9.490765 C 218.715051 10.025922 217.207239 10.28764 216.316614 10.022015 C 215.429895 9.75639 215.16427 8.338422 214.183802 5.232953 C 213.211145 2.13139 212.144739 2.928265 210.633021 3.283734 C 209.121302 3.639203 208.590052 3.994671 207.168177 4.701703 C 205.746302 5.41264 200.773647 7.186078 199.972865 7.096234 C 199.175991 7.010297 197.929897 7.010297 198.109584 4.701703 C 198.191616 3.647015 199.050991 1.111859 198.285366 0.533734 C 198.117397 0.408734 197.886928 0.35014 197.617397 0.35014 Z M 311.090042 160.76811 C 304.961137 162.98686 296.168169 161.568891 290.570513 163.51811 C 284.976764 165.467328 274.050983 167.951703 269.875203 169.814985 C 265.703328 171.678266 253.621298 173.627485 251.047079 174.510297 C 248.472861 175.400922 227.422082 179.834516 224.668176 180.541547 C 221.91427 181.252485 222.44552 182.584516 222.44552 182.584516 C 222.44552 182.584516 226.000207 187.725141 231.6838 190.916547 C 237.367393 194.11186 250.871298 202.26811 258.152547 203.865766 C 264.738484 205.307172 279.414264 207.623579 285.461139 210.408735 C 300.988481 197.428266 313.117386 180.86186 320.804885 162.14311 C 317.785354 162.147016 314.910354 162.186078 314.910354 162.186078 C 311.804886 162.721235 312.070511 161.834516 311.090042 160.76811 Z M 147.386933 177.889204 C 146.984589 177.89311 146.035371 177.928266 144.191621 177.971235 C 141.461152 178.037641 136.820528 178.11186 131.90256 178.162641 C 136.820528 184.709516 133.355684 180.189985 135.933809 190.564985 C 135.933809 190.564985 139.398653 202.623579 140.105684 205.814985 C 140.820527 209.006391 146.328339 221.510297 147.390839 223.104047 C 147.906464 223.873579 149.043183 225.14311 150.195526 226.475141 C 158.668182 230.678266 167.58615 233.904829 176.785368 236.088423 C 176.804899 236.041548 176.879118 235.873579 176.879118 235.873579 L 178.035368 232.502485 C 178.035368 232.502485 179.457242 231.088423 180.16818 227.807172 C 180.875211 224.522016 181.144742 221.244672 182.207242 219.381391 C 183.273648 217.522016 184.429898 212.377485 184.429898 212.377485 C 184.429898 212.377485 185.496304 206.877485 184.519742 204.662641 C 183.54318 202.443891 180.609586 197.920454 180.519742 197.920454 C 180.433805 197.920454 177.500211 194.553266 172.082243 191.803266 C 166.664275 189.053266 162.312713 184.885297 160.179901 184.533735 C 158.050994 184.178266 153.875214 182.225141 153.875214 182.139204 C 153.875214 182.04936 151.211151 180.98686 148.457245 180.807172 C 147.211152 180.807172 145.703339 179.29936 145.703339 179.29936 C 144.89084 178.147016 148.593964 177.877485 147.386933 177.889204 Z M 147.386933 177.889204 " transform="matrix(1,0,0,1,-41.695541,11.063922)"/>
<path style="fill-rule:nonzero;fill:rgb(20%,20%,20%);fill-opacity:1;stroke-width:0.7;stroke-linecap:butt;stroke-linejoin:miter;stroke:rgb(0%,0%,0%);stroke-opacity:1;stroke-miterlimit:4;" d="M 121.379123 37.666547 C 121.062717 37.66264 120.679904 37.701703 120.211154 37.775922 C 117.816623 38.178265 109.808812 41.627484 101.840062 45.846234 C 97.011938 53.123578 92.957251 60.885297 89.746314 69.010297 C 91.890845 73.725141 94.453344 77.592328 94.453344 77.592328 C 94.453344 77.592328 100.58225 89.830609 104.043187 91.955609 C 107.508031 94.084516 116.304905 96.213422 119.765842 96.213422 C 123.230685 96.213422 126.961154 94.084516 128.293185 90.096234 C 129.625216 86.104047 129.359591 78.654828 125.629123 73.068891 C 121.898654 67.482953 119.500217 69.877484 117.902561 60.033734 C 116.304905 50.19389 122.429904 44.072797 122.429904 41.678265 C 122.429904 39.584515 123.59006 37.69389 121.379123 37.666547 Z M 151.820526 38.799359 C 147.148652 38.541547 142.01584 55.111859 142.01584 55.111859 C 142.01584 55.111859 137.754121 68.549359 143.347871 76.662641 C 148.945527 84.775922 148.547089 89.963422 149.609589 92.756391 C 153.609589 98.607953 151.383026 118.553266 157.640838 124.217328 C 164.031463 130.006391 169.703337 157.89311 173.808805 160.982953 C 181.937711 167.100141 183.363492 172.244672 188.539273 173.201703 C 196.50021 174.67436 213.828333 165.248578 218.75802 164.58061 C 223.687707 163.916547 229.15255 160.189985 229.550988 155.002485 C 229.953331 149.814985 227.285363 148.885297 230.617394 136.248578 C 233.949425 123.615766 242.207236 108.186078 238.476768 96.479047 C 234.7463 84.775922 232.883019 75.994672 230.484581 71.740766 C 228.086144 67.482953 230.547081 57.678265 227.7463 57.022015 C 215.273645 54.084515 198.843959 47.03764 190.648648 46.022015 C 180.609586 44.783734 165.687713 39.283734 162.847869 39.197797 C 161.371307 39.150922 156.871307 39.080609 151.820526 38.799359 Z M 252.840048 63.775922 C 252.601767 70.674359 261.12911 85.307172 259.797078 102.998578 C 259.929891 108.053266 260.863485 116.564984 261.261922 126.408735 C 261.66036 133.857953 265.390828 139.307172 265.125203 144.229047 C 264.859578 149.150922 262.328328 157.666547 265.258015 159.791547 C 268.191609 161.920453 269.52364 160.592328 271.254109 157.131391 C 272.984577 153.67436 274.58614 147.95561 276.183796 140.639203 C 277.781452 133.326703 276.316608 120.557172 276.050983 114.834516 C 275.785358 109.115766 273.11739 94.619672 271.386921 89.830609 C 269.656453 85.041547 269.656453 82.779828 270.453327 79.854047 C 270.855671 77.061078 271.121296 75.861859 273.695515 74.045453 C 269.30489 72.604047 261.246297 67.736859 252.840048 63.775922 Z M 296.40645 88.420453 C 291.258013 88.822797 294.304888 111.908734 294.304888 111.908734 C 294.304888 111.908734 296.96895 122.54936 295.902544 127.338422 C 294.836138 132.127485 292.703325 143.564985 294.035356 149.416547 C 295.371294 155.272016 295.902544 156.600141 299.898637 156.600141 C 303.898637 156.600141 306.828324 151.811078 311.090042 150.482953 C 315.355667 149.150922 317.218948 148.354047 318.550979 144.631391 C 319.886916 140.904828 319.88301 134.787641 318.816604 129.201703 C 317.754104 123.615766 315.090042 114.834516 315.886917 111.908734 C 316.687698 108.982953 315.086136 103.662641 315.086136 102.330609 C 315.086136 101.002484 316.765823 98.717328 310.793167 96.209516 C 308.340043 95.178266 306.26973 94.229047 305.05098 93.553266 C 303.851762 92.893109 301.379106 91.205609 298.277544 89.076703 C 297.558794 88.580609 296.9377 88.381391 296.40645 88.420453 Z M 296.40645 88.420453 " transform="matrix(1,0,0,1,-41.695541,11.063922)"/>
<path style="fill-rule:nonzero;fill:rgb(40%,40%,40%);fill-opacity:1;stroke-width:2.62916;stroke-linecap:butt;stroke-linejoin:miter;stroke:rgb(0%,0%,0%);stroke-opacity:1;stroke-miterlimit:4;" d="M 921.497407 244.006463 C 922.49424 236.00369 929.999814 225.504639 935.49706 217.501866 C 940.994306 209.499094 959.494371 196.503765 971.500357 187.502481 C 983.506342 178.501198 985.50001 175.006409 999.001246 161.497141 C 1012.502483 148.002557 1014.364217 154.228567 1017.633246 146.005535 C 1011.139166 149.001068 998.004412 158.501608 990.997256 162.994908 C 984.004759 167.502891 979.504347 170.498425 970.503523 177.502686 C 961.502698 184.506948 952.003457 188.500993 944.497884 196.503765 C 937.00697 204.506538 931.495065 206.004305 926.994653 208.999838 C 922.49424 211.995371 905.005668 227.501661 897.500095 233.492728 C 889.994522 239.498479 887.00402 239.997734 883.002025 235.005179 C 879.00003 229.997939 886.505603 224.506128 892.002849 216.503355 C 897.500095 208.500583 905.005668 201.995576 914.50491 191.995781 C 924.004151 181.995986 923.505734 183.493753 935.49706 171.996191 C 947.503045 160.49863 948.499879 163.494163 964.4932 148.501813 C 969.096228 143.274313 978.551491 136.358155 977.818525 134.361133 C 971.236489 137.503506 963.994783 142.995318 949.496713 151.497346 C 934.998643 159.999374 926.994653 166.005125 921.497407 168.501403 C 916.00016 170.99768 883.002025 192.495037 864.501959 212.494627 C 846.001894 232.494217 844.506643 216.0041 849.505472 204.506538 C 854.504301 192.994293 859.50313 193.493548 865.99721 183.993009 C 872.50595 174.507153 894.993351 156.00533 916.498577 138.002762 C 938.003804 120.000194 938.003804 119.500939 926.994653 124.99275 C 916.00016 130.499245 911.499748 132.995523 902.498924 139.001273 C 893.4981 145.007024 882.005191 150.99809 870.497622 161.996396 C 859.004713 172.994703 883.002025 151.497346 833.497492 192.495037 C 783.992959 233.492728 822.004583 195.505254 823.499834 187.003226 C 824.995084 178.501198 829.495497 170.498425 837.00107 160.49863 C 844.506643 150.498835 857.99322 143.993829 889.496105 118.502428 C 920.99899 92.996343 901.003673 104.493904 892.002849 108.003377 C 883.002025 111.498166 879.00003 117.004661 868.503955 122.995728 C 857.99322 129.001478 846.998728 139.001273 837.997904 145.506279 C 828.99708 151.996601 825.493501 159.500119 795.998944 179.000453 C 766.504386 198.500788 767.50122 189.000248 771.503216 179.499709 C 775.505211 169.999169 781.999291 166.005125 793.506859 151.497346 C 804.999768 137.004251 817.504171 129.500734 839.493155 112.496677 C 861.496798 95.507304 859.004713 88.503043 842.498316 103.495393 C 826.006578 118.502428 830.50699 110.99891 819.996255 118.502428 C 809.50018 126.005945 809.001763 128.502223 759.995647 160.997885 C 711.00419 193.493548 730.50109 168.501403 732.494758 155.006819 C 733.579547 147.694193 745.116434 135.095333 759.995647 122.907624 C 771.62049 113.3924 785.532187 100.074024 798.007271 92.732031 C 799.10672 92.085935 805.83535 88.796722 806.90548 88.179995 C 813.634109 82.908444 819.321927 80.13317 821.6381 73.275748 C 807.140029 83.275543 799.004105 86.50602 789.504864 93.495598 C 780.005623 100.49986 771.004799 105.507099 766.005969 107.004866 C 761.00714 108.502633 754.498401 115.506894 709.992697 151.996601 C 665.501652 188.500993 691.507291 152.495857 693.500959 140.49904 C 695.494627 128.502223 729.504256 100.999115 752.504733 77.504736 C 775.505211 53.995674 749.997989 72.996753 739.501914 80.50027 C 729.005839 88.003787 725.003844 89.002298 712.499441 99.501349 C 699.995039 110.000399 678.006055 128.002967 670.500481 132.995523 C 662.994908 138.002762 646.004753 154.492879 634.995601 169.499914 C 624.001109 184.506948 619.500697 177.502686 619.00228 177.502686 C 618.503863 177.502686 619.500697 167.003636 620.995948 161.497141 C 622.505858 156.00533 638.997597 130.9985 647.001587 122.995728 C 655.005577 114.992955 670.002064 90.99932 667.49532 94.494109 C 665.003235 98.003582 655.503994 106.006355 648.995255 112.995933 C 642.501175 120.000194 606.497878 152.495857 600.502215 158.501608 C 594.506552 164.492674 588.49623 176.00492 581.005316 179.499709 C 573.499742 182.994498 574.496576 176.504175 573.001325 172.994703 C 571.506074 169.499914 585.007311 137.503506 589.493063 129.500734 C 593.993476 121.497961 606.497878 102.996138 601.997466 107.504121 C 597.497054 111.997421 592.996642 118.502428 588.49623 122.496472 C 583.995817 126.5052 582.500566 126.005945 572.004491 145.506279 C 561.493757 165.006614 550.499265 177.003431 545.002019 177.502686 C 539.504773 178.001942 535.502778 175.505664 536.001195 173.493958 C 536.499612 171.496936 540.00319 162.495652 542.495275 157.503096 C 545.002019 152.495857 555.498094 137.503506 554.50126 135.506484 C 553.504426 133.494778 539.504773 151.497346 532.497616 161.996396 C 525.505119 172.495447 483.667412 190.674223 497.667065 188.324785 C 511.666719 186.004715 536.998028 180.674428 565.671664 186.665494 C 594.33064 192.671245 647.001587 193.332024 657.673574 193.669756 C 668.330902 193.992804 724.329515 214.667857 762.003974 219.322681 C 799.663775 224.006873 883.676354 262.66981 929.999814 265.327611 C 932.345305 265.474451 920.500573 251.994551 921.497407 244.006463 Z M 921.497407 244.006463 " transform="matrix(0.266469,0,0,0.266021,-54.097047,-1.258519)"/>
<path style="fill:none;stroke-width:3.286445;stroke-linecap:round;stroke-linejoin:round;stroke:rgb(0%,0%,0%);stroke-opacity:1;stroke-miterlimit:4;" d="M 996.555446 398.654596 C 990.325243 398.672951 983.930123 399.26031 977.498355 400.618576 C 948.124782 406.877616 859.381042 440.632379 837.502036 456.252446 C 815.62303 471.872513 793.121004 502.506934 783.757375 518.127001 C 774.375423 533.747068 745.00185 566.877763 731.881776 581.873762 C 718.743378 596.86976 688.746784 633.120797 680.006176 644.372385 C 671.247244 655.623973 671.870265 671.868108 671.870265 679.375285 C 671.870265 686.864107 671.247244 693.747215 678.741812 714.378185 C 686.254703 734.9908 691.88021 754.997702 701.243838 756.245839 C 710.62579 757.493976 727.50231 758.742113 752.496417 756.245839 C 777.508849 753.749565 838.748076 747.490525 853.132515 745.61832 C 867.498629 743.746114 884.375149 747.490525 897.495223 738.753566 C 910.633621 729.998252 940.630214 714.378185 958.752775 696.243489 C 976.875335 678.127148 1015.63086 644.372385 1024.994489 626.880113 C 1034.376441 609.369485 1061.880953 558.746518 1065.619075 540.630177 C 1069.375521 522.495481 1076.247068 479.37969 1076.247068 473.12065 C 1076.247068 466.879966 1066.88344 416.881067 1051.25296 410.622027 C 1039.049093 405.739609 1018.819258 398.562821 996.555446 398.654596 Z M 996.555446 398.654596 " transform="matrix(0.213175,0,0,0.212817,-54.097204,-1.258519)"/>
<path style="fill-rule:nonzero;fill:rgb(40%,40%,40%);fill-opacity:1;stroke-width:0.7;stroke-linecap:butt;stroke-linejoin:miter;stroke:rgb(0%,0%,0%);stroke-opacity:1;stroke-miterlimit:4;" d="M 200.039272 72.514203 C 198.711147 72.522016 197.347866 72.647016 195.976772 72.936078 C 189.715054 74.268109 170.797087 81.451703 166.133025 84.775922 C 161.468963 88.100141 156.672088 94.619672 154.672089 97.943891 C 154.090057 98.916547 153.121307 100.221234 152.000214 101.639203 C 153.047089 109.795453 153.359589 120.342328 157.640838 124.217328 C 161.234588 127.475141 164.590056 137.670453 167.578337 146.564985 C 168.039275 146.510297 169.172087 146.397016 169.46115 146.357953 C 172.527556 145.959516 176.125212 146.760297 178.922086 144.897016 C 181.722867 143.033735 188.117398 139.709516 191.980679 135.850141 C 195.84396 131.994672 204.105678 124.811078 206.101771 121.088422 C 208.101771 117.361859 213.965052 106.588422 214.761927 102.732953 C 215.562708 98.873578 217.027551 89.697797 217.027551 88.365766 C 217.027551 87.037641 215.031458 76.397016 211.699427 75.064984 C 209.097865 74.025922 204.785365 72.498578 200.039272 72.514203 Z M 200.039272 72.514203 " transform="matrix(1,0,0,1,-41.695541,11.063922)"/>
<path style="fill:none;stroke-width:0.7;stroke-linecap:butt;stroke-linejoin:miter;stroke:rgb(0%,0%,0%);stroke-opacity:1;stroke-miterlimit:4;" d="M 115.504124 83.979047 C 115.504124 83.979047 118.566623 84.377484 120.300998 84.908734 C 122.031467 85.439984 126.02756 87.834516 128.160372 90.627484 C 130.293185 93.420453 134.289278 95.682172 136.289278 96.611859 C 138.285371 97.545453 138.285371 101.268109 138.152559 103.529828 C 138.019746 105.791547 135.222872 112.174359 134.023653 113.772016 C 132.824434 115.365766 127.894747 128.803266 125.230685 132.39311 C 122.566623 135.982953 112.840061 154.20561 110.441624 157.400922 C 108.043187 160.592328 101.1135 159.525922 96.58225 164.58061 C 95.316626 165.994672 93.965063 166.807172 92.527563 167.264203 " transform="matrix(1,0,0,1,-41.695541,11.063922)"/>
</g>
</svg>
