<?xml version="1.0" encoding="UTF-8"?>
<!-- Created by grConvert v0.1-0 -->
<svg xmlns="http://www.w3.org/2000/svg" xmlns:xlink="http://www.w3.org/1999/xlink" width="449pt" height="250pt" viewBox="0 0 449 250" version="1.1">
<g id="surface5">
<path style=" stroke:none;fill-rule:nonzero;fill:rgb(97.647059%,97.647059%,97.647059%);fill-opacity:1;" d="M 115.503906 83.976562 C 115.503906 83.976562 118.566406 84.375 120.300781 84.910156 C 122.03125 85.441406 126.027344 87.835938 128.160156 90.628906 C 130.292969 93.421875 134.289062 95.683594 136.289062 96.613281 C 138.285156 97.542969 138.285156 101.269531 138.152344 103.53125 C 138.019531 105.789062 135.222656 112.175781 134.023438 113.773438 C 132.824219 115.367188 127.894531 128.800781 125.230469 132.394531 C 122.566406 135.984375 112.839844 154.207031 110.441406 157.398438 C 108.042969 160.589844 101.113281 159.527344 96.585938 164.582031 C 92.054688 169.636719 86.457031 166.976562 79.53125 168.171875 C 74.039062 169.121094 68.472656 167.507812 68.472656 167.507812 M 5.554688 125.53125 C 3.4375 122.953125 3.273438 119.722656 8.914062 115.015625 C 17.265625 107.300781 33.609375 93.023438 40.359375 87.523438 C 47.109375 82.027344 65.230469 69.433594 72.515625 65.535156 C 80.328125 59.503906 81.394531 57.90625 89.566406 53.207031 C 99.160156 46.378906 116.480469 38.398438 120.210938 37.777344 C 123.941406 37.15625 130.691406 35.738281 138.332031 37.335938 C 145.96875 38.933594 160.003906 39.105469 162.847656 39.199219 C 165.6875 39.285156 180.609375 44.785156 190.648438 46.023438 C 200.683594 47.265625 223.070312 57.554688 235.414062 58.261719 C 247.761719 58.972656 266.144531 71.5625 273.699219 74.046875 C 281.246094 76.527344 300.878906 91.246094 305.050781 93.554688 C 309.226562 95.859375 323.4375 101.445312 328.855469 102.332031 C 334.273438 103.21875 339.605469 104.195312 343.335938 104.195312 C 347.066406 104.195312 350.261719 104.90625 356.65625 102.6875 C 363.054688 100.46875 361.453125 101.179688 366.339844 100.203125 C 371.226562 99.226562 371.492188 101.445312 372.023438 103.21875 C 372.558594 104.992188 374.691406 109.070312 374.066406 111.644531 C 373.445312 114.214844 372.644531 117.316406 372.46875 119.535156 C 372.292969 121.753906 371.3125 122.902344 371.578125 125.832031 C 371.847656 128.757812 373.53125 135.320312 372.199219 137.359375 C 370.867188 139.398438 369.179688 142.5 367.9375 143.476562 C 366.695312 144.453125 362.164062 147.289062 360.476562 147.910156 C 358.789062 148.53125 357.8125 149.417969 356.925781 149.417969 C 356.035156 149.417969 352.214844 148.972656 349.109375 149.152344 C 346 149.332031 336.492188 150.75 332.230469 152.433594 C 327.96875 154.117188 325.746094 155.003906 321.570312 156.335938 C 317.398438 157.664062 317.21875 158.550781 311.089844 160.769531 C 304.960938 162.984375 296.167969 161.566406 290.574219 163.515625 C 284.976562 165.46875 274.050781 167.953125 269.875 169.8125 C 265.703125 171.675781 253.621094 173.625 251.046875 174.511719 C 248.472656 175.402344 227.421875 179.832031 224.667969 180.542969 C 221.914062 181.253906 223.070312 180.808594 214.542969 181.253906 C 206.015625 181.695312 204.417969 181.339844 201.394531 182.050781 C 198.375 182.757812 193.046875 182.140625 190.46875 182.050781 C 187.894531 181.960938 165.066406 181.074219 158.40625 179.65625 C 151.742188 178.238281 151.566406 177.792969 144.195312 177.96875 C 136.820312 178.148438 115.589844 178.414062 112.394531 177.96875 C 109.195312 177.527344 92.320312 175.667969 84.238281 173.804688 C 76.152344 171.941406 78.285156 171.410156 77.398438 171.054688 C 76.511719 170.699219 72.515625 168.394531 67.71875 167.242188 C 62.921875 166.089844 50.839844 163.074219 40.359375 156.6875 C 29.878906 150.304688 22.859375 146.9375 18.421875 144.1875 C 13.980469 141.4375 -0.410156 130.796875 0.390625 128.582031 C 1.1875 126.363281 3.207031 123.859375 4.453125 123.945312 M 26.058594 106.410156 C 25.171875 107.035156 24.816406 107.832031 24.816406 107.832031 M 20.109375 110.933594 C 20.730469 112.175781 20.996094 112.796875 20.996094 112.707031 "/>
<path style=" stroke:none;fill-rule:nonzero;fill:rgb(47.45098%,56.078431%,90.196078%);fill-opacity:1;" d="M 130.226562 36.609375 C 126.054688 36.691406 122.542969 37.390625 120.214844 37.777344 C 116.480469 38.398438 99.160156 46.382812 89.570312 53.207031 C 81.394531 57.90625 80.328125 59.503906 72.515625 65.53125 C 65.226562 69.433594 47.109375 82.027344 40.359375 87.523438 C 33.609375 93.023438 17.265625 107.300781 8.917969 115.011719 C 3.980469 119.132812 3.488281 122.125 4.863281 124.53125 L 4.453125 123.945312 C 4.429688 123.945312 4.402344 123.953125 4.378906 123.953125 C 4.460938 124.148438 4.554688 124.34375 4.664062 124.535156 L 4.261719 123.960938 C 3.011719 124.113281 1.148438 126.472656 0.390625 128.582031 C -0.410156 130.796875 13.980469 141.4375 18.421875 144.1875 C 22.859375 146.9375 29.878906 150.304688 40.359375 156.691406 C 50.839844 163.074219 62.921875 166.089844 67.71875 167.242188 C 67.984375 167.304688 68.238281 167.386719 68.503906 167.457031 L 68.472656 167.507812 C 68.472656 167.507812 68.957031 167.640625 69.730469 167.808594 C 73.59375 169.023438 79.511719 167.878906 80.273438 168.179688 C 81.894531 167.558594 90.582031 168.277344 93.347656 166.957031 C 96.757812 165.042969 97.96875 162.660156 100.550781 161.71875 C 105.183594 159.742188 101.820312 161.515625 109.085938 158.664062 C 109.316406 158.574219 110.449219 157.855469 111.039062 156.792969 C 116.140625 147.582031 129.015625 129.078125 146.914062 107.605469 C 154.769531 98.179688 171.34375 104.949219 190.332031 92.019531 C 202.476562 83.753906 223.371094 62.851562 227.820312 57.03125 C 215.335938 54.105469 198.863281 47.039062 190.648438 46.023438 C 180.609375 44.785156 165.6875 39.285156 162.847656 39.199219 C 160.003906 39.105469 145.96875 38.933594 138.332031 37.335938 C 135.46875 36.738281 132.726562 36.5625 130.226562 36.613281 Z M 25.878906 106.394531 L 24.636719 107.816406 C 24.636719 107.816406 24.988281 107.019531 25.878906 106.394531 Z M 26.058594 106.410156 L 24.816406 107.832031 C 24.816406 107.832031 25.171875 107.03125 26.058594 106.410156 Z M 19.921875 110.917969 L 20.808594 112.695312 C 20.808594 112.785156 20.542969 112.164062 19.921875 110.917969 Z M 20.109375 110.933594 L 20.996094 112.707031 C 20.996094 112.792969 20.726562 112.175781 20.109375 110.933594 Z M 20.109375 110.933594 "/>
<path style="fill-rule:nonzero;fill:rgb(92.54902%,92.54902%,92.54902%);fill-opacity:1;stroke-width:0.560001;stroke-linecap:round;stroke-linejoin:round;stroke:rgb(0%,0%,0%);stroke-opacity:1;stroke-miterlimit:4;" d="M 357.400441 57.578217 C 356.597315 57.575092 355.097313 57.840718 351.978558 58.600094 C 346.437924 59.946971 337.197284 63.421977 332.153526 65.47823 C 327.109768 67.537608 323.128511 68.528235 318.225379 70.587613 C 314.103497 71.93449 309.272239 74.062619 304.869107 75.412621 C 301.669102 77.112624 289.162832 80.94388 293.072213 80.162629 C 296.981594 79.381377 297.194095 81.15638 297.619095 82.575132 C 298.047221 83.993885 299.750349 87.25639 299.253473 89.315768 C 298.756597 91.372022 298.115971 93.853275 297.975346 95.628278 C 297.834721 97.403281 297.050345 98.322033 297.262845 100.665786 C 297.47847 103.006415 298.825347 108.256424 297.759721 109.887676 C 296.694094 111.518929 295.344092 114.000183 294.35034 114.781434 C 293.356589 115.562685 289.731583 117.831439 288.381581 118.328315 C 287.031579 118.825191 286.250327 119.534567 285.540951 119.534567 C 284.82845 119.534567 293.781589 121.306445 295.487842 122.087696 C 297.194095 122.868947 309.131614 127.906455 312.469119 128.828332 C 315.80975 129.750208 331.159774 135.353342 332.794152 135.497092 C 334.428529 135.637717 348.425427 139.753349 349.634804 139.681474 C 350.841056 139.609599 354.891062 139.609599 354.891062 139.609599 L 354.750437 126.203327 C 354.750437 126.203327 352.759809 115.775186 351.625432 113.647057 C 350.48793 111.518929 348.069176 104.353292 347.21605 103.643916 C 346.366049 102.93454 345.372297 100.525161 345.372297 100.525161 C 345.372297 100.525161 346.009798 99.034534 346.862924 97.756407 C 348.569177 95.556403 349.491054 91.443897 350.416055 89.103268 C 352.619184 84.987636 354.537937 78.887626 355.034813 76.615748 C 355.034813 76.615748 358.231693 64.840729 358.231693 64.771979 C 358.231693 64.696979 358.941069 58.456344 358.444193 57.959468 C 358.228568 57.743843 358.025442 57.578217 357.400441 57.578217 Z M 248.872142 128.615831 C 243.969009 130.387709 236.934623 129.253332 232.459616 130.81271 C 227.981484 132.375212 219.240845 134.362715 215.900214 135.850218 C 212.562709 137.340845 202.897069 138.900223 200.83769 139.609599 C 198.778312 140.3221 181.93766 143.865856 179.734531 144.434607 C 177.531403 145.003358 177.956404 146.065859 177.956404 146.065859 C 177.956404 146.065859 180.800158 150.181491 185.34704 152.73462 C 189.893923 155.287749 200.697065 161.815884 206.522074 163.090887 C 212.350209 164.369014 226.134606 166.497142 229.687737 169.050271 C 233.240867 171.6034 235.231495 171.744025 239.065877 172.737777 C 242.903383 173.731529 246.031513 174.159654 248.590892 172.881527 C 251.147146 171.6034 257.825282 168.62527 260.240911 166.072141 C 262.659664 163.519012 263.512791 164.225263 265.784669 159.262755 C 268.059673 154.293997 269.765926 153.443996 269.19405 148.053362 C 268.628424 142.662729 268.484674 138.547097 267.915923 136.703344 C 267.350297 134.856466 263.653416 130.175209 262.515914 129.893958 C 261.381537 129.606458 251.928397 129.750208 251.928397 129.750208 C 249.444018 130.175209 249.656519 129.465833 248.872142 128.615831 Z M 117.909432 142.309603 C 117.587557 142.312728 116.828181 142.340853 115.356303 142.375228 C 113.1688 142.431478 109.456294 142.490853 105.525037 142.531479 C 109.456294 147.768987 106.684414 144.150231 108.746918 152.450244 C 108.746918 152.450244 111.518797 162.097135 112.084423 164.653389 C 112.653174 167.206518 117.059431 177.209659 117.912557 178.484661 C 118.765684 179.762788 121.750063 182.740918 122.60319 184.375296 C 123.456316 186.003423 124.806318 188.062802 126.228196 190.25968 C 127.646948 192.459684 127.646948 193.453435 129.990702 195.865939 C 132.33758 198.278443 133.475082 199.978446 134.115708 199.978446 C 134.753209 199.978446 134.396959 200.475321 135.534461 198.559693 C 136.671962 196.644065 138.09384 193.31281 139.087591 192.744059 C 140.084468 192.175308 141.50322 188.700303 141.50322 188.700303 L 142.428222 186.003423 C 142.428222 186.003423 143.565723 184.869046 144.134474 182.247167 C 144.7001 179.619038 144.915726 176.994034 145.765727 175.506531 C 146.618853 174.015904 147.543855 169.903397 147.543855 169.903397 C 147.543855 169.903397 148.396981 165.50339 147.61573 163.731513 C 146.834479 161.95651 144.4876 158.337754 144.41885 158.337754 C 144.346975 158.337754 142.003221 155.644 137.665714 153.443996 C 133.331332 151.243993 129.850076 147.909612 128.146949 147.625237 C 126.440696 147.343986 123.100066 145.781484 123.100066 145.712734 C 123.100066 145.640859 120.968812 144.790857 118.765684 144.647107 C 117.771932 144.647107 116.562555 143.440855 116.562555 143.440855 C 115.912554 142.518979 118.875059 142.300228 117.909432 142.309603 Z M 158.096997 0.28125 C 157.165745 0.275 155.671993 1.068752 155.075117 1.350002 C 153.72824 1.990628 151.734487 2.981255 150.315734 3.690631 C 148.893857 4.400007 147.756355 4.825008 145.625102 6.315635 C 143.493848 7.806263 140.084468 10.856267 138.590715 11.353143 C 137.100088 11.850019 137.596964 11.850019 137.240713 10.996893 C 136.887588 10.146891 136.887588 9.57814 137.240713 6.528135 C 137.596964 3.478131 136.246962 5.678134 133.971958 6.953136 C 131.696954 8.231263 131.484454 8.940639 129.353201 10.928143 C 127.221947 12.912521 126.084445 13.196896 124.593818 13.621897 C 123.100066 14.046898 122.531315 13.196896 122.103189 11.212518 C 121.987564 10.662517 122.750065 8.487514 121.962564 8.800014 C 119.890685 9.62189 114.915678 14.868774 113.578175 16.462526 C 111.731297 18.659405 109.243793 19.296906 109.100043 18.94378 C 108.959418 18.590655 108.534417 18.378154 108.246917 18.378154 C 107.965666 18.378154 105.262537 20.643783 104.27191 21.425034 C 103.275034 22.206286 93.184393 30.718799 96.168772 30.221923 C 99.153152 29.725048 104.553161 28.590671 110.665671 29.868798 C 116.775056 31.146925 128.003199 31.28755 130.278202 31.359425 C 132.550081 31.428175 144.4876 35.828182 152.518863 36.818809 C 160.550126 37.812561 178.456404 46.043824 188.33142 46.60945 C 198.206436 47.178201 212.915835 57.250092 218.959594 59.237595 C 224.997104 61.221973 240.703379 72.996992 244.040885 74.84387 C 246.362763 76.128247 252.572148 78.678251 257.594031 80.353254 C 259.794035 81.084505 257.756532 79.168877 258.750283 78.675126 C 259.744035 78.17825 263.725291 78.675126 265.644044 78.743876 C 267.562797 78.815751 273.031556 78.0345 275.022184 77.184499 C 277.012812 76.334497 276.159686 70.800114 276.231561 69.168861 C 276.269061 68.32511 277.128438 64.893854 276.656562 61.578224 C 276.215936 58.478219 274.450308 55.484464 274.312808 54.696963 C 274.172183 53.890711 272.697181 50.668831 270.759677 47.671951 C 268.775299 44.603197 266.325295 41.759442 265.92842 41.006316 C 265.144043 39.515688 258.181532 33.200053 256.903405 32.350052 C 255.625278 31.500051 247.30964 25.825041 245.959638 25.18754 C 244.609635 24.546914 242.478382 22.703161 237.859625 21.568785 C 235.915872 21.090659 234.018993 20.118782 231.96274 19.653157 C 229.128361 19.01253 226.262731 18.96253 225.068979 19.084406 C 223.009601 19.296906 222.5096 19.084406 221.303348 18.94378 C 220.093971 18.803155 220.450222 18.590655 218.887719 18.871905 C 217.322092 19.156281 216.684591 19.653157 215.403339 20.150032 C 214.125212 20.643783 213.556461 20.431283 212.206459 20.506283 C 210.856456 20.575033 210.715831 19.581281 210.14708 19.228156 C 209.578329 18.871905 208.440827 19.156281 205.953323 19.228156 C 203.46582 19.296906 204.250196 19.084406 203.60957 17.950029 C 202.968944 16.815652 202.828318 15.8219 202.828318 15.8219 C 202.828318 15.8219 201.762692 15.6094 200.340814 15.681275 C 198.918937 15.750025 198.493937 15.253149 197.64081 14.546898 C 196.787684 13.834397 197.000184 13.765647 196.075183 11.990644 C 195.153306 10.215641 195.793932 11.068768 194.584555 10.928143 C 193.378303 10.784392 192.950178 10.996893 190.250173 10.996893 C 187.550169 10.996893 189.040796 10.503142 188.18767 9.50939 C 187.337669 8.515639 187.478294 8.162513 187.478294 8.162513 C 187.478294 8.162513 186.128292 8.587514 185.062665 8.800014 C 183.997038 9.012514 183.143912 9.650015 181.297034 9.36564 C 179.447031 9.081265 180.231407 8.087513 180.231407 8.087513 L 179.662656 6.315635 C 179.662656 6.315635 177.390778 7.168761 176.181401 7.593762 C 174.972024 8.018763 173.765772 8.231263 173.053271 8.018763 C 172.343895 7.806263 172.131394 6.671886 171.347018 4.187507 C 170.568892 1.703128 169.715765 2.343754 168.506388 2.628129 C 167.297012 2.912505 166.872011 3.193755 165.734509 3.762506 C 164.600132 4.331257 160.618876 5.746884 159.97825 5.678134 C 159.340749 5.606259 158.343872 5.606259 158.487622 3.762506 C 158.553247 2.918755 159.240749 0.890626 158.628248 0.428126 C 158.493872 0.325001 158.309497 0.28125 158.096997 0.28125 Z M 158.096997 0.28125 " transform="matrix(1.249998,0,0,1.249998,0.000164677,0)"/>
<path style="fill:none;stroke-width:0.560001;stroke-linecap:butt;stroke-linejoin:miter;stroke:rgb(0%,0%,0%);stroke-opacity:1;stroke-miterlimit:4;" d="M 92.403141 67.181358 C 92.403141 67.181358 94.853145 67.500108 96.240648 67.928234 C 97.625025 68.353235 100.821905 70.268863 102.528158 72.503241 C 104.23441 74.73762 107.431291 76.546998 109.031293 77.290749 C 110.628171 78.0345 110.628171 81.015755 110.52192 82.825133 C 110.41567 84.631386 108.178167 89.740769 107.21879 91.018896 C 106.259414 92.293898 102.315657 103.04079 100.184404 105.915795 C 98.05315 108.787674 90.271888 123.365823 88.353135 125.918952 C 86.434382 128.472081 80.890623 127.62208 77.268742 131.665836 C 73.643736 135.709593 69.165604 133.581464 63.62497 134.537716 C 59.231213 135.297092 54.778081 134.006465 54.778081 134.006465 M 4.443625 100.425161 C 2.749873 98.362658 2.618622 95.778279 7.13113 92.012648 C 13.81239 85.840763 26.887411 74.418869 32.28742 70.018862 C 37.687429 65.62198 52.184327 55.546964 58.012461 52.428209 C 64.262471 47.603201 65.115598 46.325074 71.653108 42.565693 C 79.32812 37.103184 93.184393 30.718799 96.168772 30.221923 C 99.153152 29.725048 104.553161 28.590671 110.665671 29.868798 C 116.775056 31.146925 128.003199 31.284425 130.278202 31.359425 C 132.550081 31.428175 144.4876 35.828182 152.518863 36.818809 C 160.547001 37.812561 178.456404 46.043824 188.33142 46.60945 C 198.209561 47.178201 212.915835 57.250092 218.959594 59.237595 C 224.997104 61.221973 240.703379 72.996992 244.040885 74.84387 C 247.381515 76.687623 258.750283 81.15638 263.084665 81.865756 C 267.419047 82.575132 271.684679 83.356384 274.669059 83.356384 C 277.653438 83.356384 280.209693 83.925135 285.325326 82.150132 C 290.444084 80.375129 289.162832 80.94388 293.072213 80.162629 C 296.981594 79.381377 297.194095 81.15638 297.619095 82.575132 C 298.047221 83.993885 299.753474 87.25639 299.253473 89.315768 C 298.756597 91.372022 298.115971 93.853275 297.975346 95.628278 C 297.834721 97.403281 297.050345 98.322033 297.262845 100.665786 C 297.47847 103.006415 298.825347 108.256424 297.759721 109.887676 C 296.694094 111.518929 295.344092 114.000183 294.35034 114.781434 C 293.356589 115.562685 289.731583 117.831439 288.381581 118.328315 C 287.031579 118.825191 286.250327 119.534567 285.540951 119.534567 C 284.82845 119.534567 281.772195 119.178316 279.287816 119.322066 C 276.800312 119.465817 269.19405 120.600193 265.784669 121.947071 C 262.375289 123.293948 260.597161 124.003324 257.256531 125.068951 C 253.919025 126.131452 253.775275 126.840828 248.872142 128.615831 C 243.969009 130.387709 236.934623 129.253332 232.459616 130.81271 C 227.981484 132.375212 219.240845 134.362715 215.900214 135.850218 C 212.562709 137.340845 202.897069 138.900223 200.83769 139.609599 C 198.778312 140.3221 181.93766 143.865856 179.734531 144.434607 C 177.531403 145.003358 178.456404 144.647107 171.634518 145.003358 C 164.812633 145.356483 163.534505 145.072108 161.115752 145.640859 C 158.700123 146.206484 154.437616 145.712734 152.375113 145.640859 C 150.315734 145.568983 132.053205 144.859607 126.725071 143.72523 C 121.393813 142.590854 121.253188 142.234603 115.356303 142.375228 C 109.456294 142.518979 92.471892 142.731479 89.915637 142.375228 C 87.356258 142.022103 73.856237 140.5346 67.390601 139.043973 C 60.921841 137.553346 62.628094 137.128345 61.918718 136.843969 C 61.209341 136.559594 58.012461 134.715841 54.174955 133.793965 C 50.337449 132.872088 40.671808 130.459584 32.28742 125.350201 C 23.903032 120.243943 18.287398 117.550188 14.737392 115.350185 C 11.184261 113.150181 -0.328257 104.637668 0.312369 102.86579 C 0.94987 101.090787 2.565497 99.087659 3.562374 99.156409 M 20.846777 85.128261 C 20.137401 85.628262 19.853025 86.265763 19.853025 86.265763 M 16.087394 88.747017 C 16.58427 89.740769 16.79677 90.237645 16.79677 90.16577 " transform="matrix(1.249998,0,0,1.249998,0.000164677,0)"/>
<path style="fill-rule:nonzero;fill:rgb(92.54902%,92.54902%,92.54902%);fill-opacity:1;stroke-width:0.560001;stroke-linecap:butt;stroke-linejoin:miter;stroke:rgb(0%,0%,0%);stroke-opacity:1;stroke-miterlimit:4;" d="M 8.518632 103.681416 C 7.346755 103.01579 4.493625 101.043912 3.562374 99.156409 C 2.565497 99.087659 0.94987 101.090787 0.312369 102.86579 C -0.328257 104.637668 11.184261 113.150181 14.737392 115.350185 C 18.287398 117.550188 23.903032 120.243943 32.28742 125.350201 C 34.703049 126.487703 35.981176 123.365823 37.259303 121.518945 C 38.540555 119.678317 41.096809 114.143933 38.540555 112.581431 C 35.981176 111.022053 30.724918 109.037675 28.024913 108.325174 C 25.321784 107.615798 20.493651 105.915795 16.512395 102.793915 C 12.818639 99.103284 6.706129 92.862649 4.671751 94.487652 C 2.768623 96.968905 3.149873 98.850159 4.443625 100.425161 C 5.687377 101.931413 7.765506 103.15329 9.478008 104.353292 C 10.224885 105.062668 10.70301 105.328294 11.540512 106.05642 C 11.731137 106.26267 16.593645 109.912676 19.071774 112.581431 C 27.678038 121.259569 24.896783 120.103318 32.712421 123.365823 " transform="matrix(1.249998,0,0,1.249998,0.000164677,0)"/>
<path style="fill-rule:nonzero;fill:rgb(92.54902%,92.54902%,92.54902%);fill-opacity:1;stroke-width:0.560001;stroke-linecap:butt;stroke-linejoin:miter;stroke:rgb(0%,0%,0%);stroke-opacity:1;stroke-miterlimit:4;" d="M 28.768664 88.462642 C 30.049916 91.337646 32.28742 96.125154 36.124926 97.081406 C 39.962432 98.040782 40.281183 99.63766 46.037442 97.722032 C 51.793701 95.806404 51.471826 95.806404 54.031205 91.656397 C 56.590584 87.50639 56.268708 85.272012 55.949958 82.078257 C 55.631207 78.887626 51.793701 74.096994 48.596821 73.140742 C 45.396816 72.184491 40.599933 71.862615 36.124926 72.821992 C 31.646794 73.778243 31.009293 76.653248 30.049916 78.247 C 29.09054 79.843878 27.490537 85.590762 28.768664 88.462642 Z M 28.768664 88.462642 " transform="matrix(1.249998,0,0,1.249998,0.000164677,0)"/>
<path style="fill-rule:nonzero;fill:rgb(20%,20%,20%);fill-opacity:1;stroke-width:0.560001;stroke-linecap:butt;stroke-linejoin:miter;stroke:rgb(0%,0%,0%);stroke-opacity:1;stroke-miterlimit:4;" d="M 41.240559 76.971998 C 37.721804 77.290749 36.124926 76.971998 34.524924 79.206377 C 32.928046 81.440756 32.003045 89.597019 34.099923 92.400148 C 35.59055 93.359525 36.978053 94.209526 39.003056 94.209526 C 41.028059 94.209526 44.118689 93.997026 45.503066 93.359525 C 46.890568 92.718899 48.809322 92.931399 49.981198 91.337646 C 51.153075 89.740769 51.687451 88.890768 51.581201 86.440764 C 51.471826 83.993885 51.471826 82.290757 50.406199 80.803255 C 49.340572 79.312627 48.596821 77.290749 46.568693 76.759498 C 44.54369 76.225122 44.759315 76.653248 41.240559 76.971998 Z M 41.240559 76.971998 " transform="matrix(1.249998,0,0,1.249998,0.000164677,0)"/>
<path style=" stroke:none;fill-rule:nonzero;fill:rgb(100%,100%,100%);fill-opacity:1;" d="M 41.558594 105.257812 C 42.089844 105.925781 42.757812 106.191406 44.488281 105.65625 C 46.222656 105.125 46.753906 104.195312 49.953125 104.0625 C 53.148438 103.929688 54.617188 103.929688 56.082031 104.195312 C 57.546875 104.460938 58.480469 103.53125 58.746094 104.195312 C 59.011719 104.859375 61.144531 105.390625 57.945312 106.058594 C 54.75 106.722656 54.214844 108.316406 51.816406 108.316406 C 49.417969 108.316406 49.285156 109.382812 46.886719 109.117188 C 44.488281 108.851562 42.089844 110.179688 41.957031 110.84375 C 41.824219 111.511719 39.113281 110.402344 39.113281 109.335938 C 39.113281 108.273438 41.027344 104.59375 41.558594 105.257812 Z M 41.558594 105.257812 "/>
<path style="fill-rule:nonzero;fill:rgb(40%,40%,40%);fill-opacity:1;stroke-width:0.560001;stroke-linecap:butt;stroke-linejoin:miter;stroke:rgb(0%,0%,0%);stroke-opacity:1;stroke-miterlimit:4;" d="M 186.518917 42.068817 C 186.731418 40.36569 188.33142 38.131311 189.503297 36.431308 C 190.675174 34.728181 194.61893 31.959426 197.178309 30.043798 C 199.737689 28.131295 200.162689 27.384419 203.040819 24.512539 C 205.918948 21.637535 206.315824 22.965662 207.015825 21.212534 C 205.628323 21.85316 202.828318 23.875038 201.334566 24.83129 C 199.843939 25.787541 198.884562 26.428167 196.965809 27.91567 C 195.047056 29.406297 193.022053 30.259424 191.42205 31.959426 C 189.825173 33.662554 188.650171 33.981304 187.690794 34.621931 C 186.731418 35.259432 183.003287 38.559437 181.403284 39.834439 C 179.803282 41.112566 179.165781 41.218816 178.312654 40.153189 C 177.459528 39.090688 179.05953 37.918811 180.231407 36.215683 C 181.403284 34.51568 183.003287 33.131303 185.02829 31.003175 C 187.053293 28.875046 186.947043 29.193797 189.503297 26.746918 C 192.062676 24.300039 192.275177 24.93754 195.687682 21.74691 C 196.665809 20.631283 198.681437 19.162531 198.525187 18.73753 C 197.122059 19.403156 195.578307 20.575033 192.487677 22.384411 C 189.397047 24.193789 187.690794 25.468791 186.518917 26.003167 C 185.34704 26.534418 178.312654 31.109425 174.368898 35.365682 C 170.425142 39.621939 170.106391 36.109433 171.172018 33.662554 C 172.237644 31.215675 173.303271 31.321925 174.687648 29.300047 C 176.075151 27.278169 180.872033 23.340662 185.453291 19.509406 C 190.037673 15.681275 190.037673 15.575025 187.690794 16.743777 C 185.34704 17.915654 184.387664 18.446905 182.468911 19.725032 C 180.550158 21.000034 178.100154 22.278161 175.647025 24.618789 C 173.197021 26.959418 178.312654 22.384411 167.759512 31.109425 C 157.209495 39.834439 165.309508 31.746926 165.628259 29.937548 C 165.947009 28.131295 166.906386 26.428167 168.506388 24.300039 C 170.106391 22.171911 172.984521 20.787533 179.697031 15.3594 C 186.412667 9.934391 182.15016 12.38127 180.231407 13.125021 C 178.312654 13.871897 177.459528 15.040649 175.222024 16.318776 C 172.984521 17.596903 170.637642 19.725032 168.718889 21.106284 C 166.800136 22.490661 166.056385 24.087539 159.765749 28.237545 C 153.478239 32.387552 153.69074 30.365674 154.543866 28.343795 C 155.396992 26.321917 156.78137 25.468791 159.234499 22.384411 C 161.684503 19.296906 164.350132 17.703153 169.040764 14.084398 C 173.728272 10.465642 173.197021 8.975014 169.678265 12.16877 C 166.162635 15.3594 167.122011 13.765647 164.881383 15.3594 C 162.643879 16.956277 162.537629 17.487528 152.090737 24.406289 C 141.64697 31.321925 145.803227 26.003167 146.228228 23.128162 C 146.459478 21.575035 148.918857 18.89378 152.090737 16.300026 C 154.568866 14.271898 157.534496 11.440643 160.193875 9.875016 C 160.42825 9.737516 161.862628 9.040639 162.090753 8.909389 C 163.52513 7.787512 164.737632 7.196887 165.231383 5.734384 C 162.140753 7.862513 160.406375 8.550014 158.381372 10.040641 C 156.356369 11.531268 154.437616 12.59377 153.371989 12.912521 C 152.306362 13.231271 150.91886 14.721899 141.43447 22.490661 C 131.946955 30.259424 137.490714 22.596911 137.915714 20.043782 C 138.340715 17.487528 145.590727 11.637519 150.49386 6.634386 C 155.396992 1.634378 149.959484 5.678134 147.72198 7.275012 C 145.484477 8.868764 144.63135 9.081265 141.965721 11.318768 C 139.300092 13.553147 134.612584 17.381278 133.012582 18.446905 C 131.412579 19.509406 127.790698 23.021912 125.443819 26.215667 C 123.100066 29.406297 122.140689 27.91567 122.034439 27.91567 C 121.928189 27.91567 122.140689 25.681291 122.45944 24.512539 C 122.781315 23.340662 126.296946 18.021904 128.003199 16.318776 C 129.709451 14.615648 132.906331 9.50939 132.371956 10.253141 C 131.840705 10.996893 129.815701 12.70002 128.428199 14.190648 C 127.043822 15.681275 119.36881 22.596911 118.090683 23.875038 C 116.812556 25.15004 115.531304 27.596919 113.934426 28.343795 C 112.334423 29.087547 112.546924 27.703169 112.228173 26.959418 C 111.909423 26.215667 114.787552 19.403156 115.746929 17.703153 C 116.706305 16.000026 119.36881 12.062519 118.409433 13.018771 C 117.450057 13.978147 116.49068 15.3594 115.531304 16.212526 C 114.571927 17.062527 114.253176 16.956277 112.015673 21.106284 C 109.775044 25.25629 107.431291 27.80942 106.259414 27.91567 C 105.087537 28.025045 104.23441 27.490669 104.340661 27.065668 C 104.446911 26.640668 105.193787 24.72504 105.725038 23.659413 C 106.259414 22.596911 108.496917 19.403156 108.284417 18.978155 C 108.071917 18.553155 105.087537 22.384411 103.593784 24.618789 C 102.103157 26.853168 93.184393 30.718799 96.168772 30.221923 C 99.153152 29.725048 104.553161 28.590671 110.665671 29.868798 C 116.775056 31.146925 128.003199 31.284425 130.278202 31.359425 C 132.550081 31.428175 144.4876 35.828182 152.518863 36.818809 C 160.547001 37.812561 178.456404 46.043824 188.33142 46.60945 C 188.831421 46.637575 186.306417 43.771945 186.518917 42.068817 Z M 186.518917 42.068817 " transform="matrix(1.249998,0,0,1.249998,0.000164677,0)"/>
<path style=" stroke:none;fill-rule:nonzero;fill:rgb(66.666667%,72.156863%,93.72549%);fill-opacity:1;" d="M 200.039062 72.515625 C 198.710938 72.519531 197.347656 72.648438 195.976562 72.9375 C 189.714844 74.269531 170.796875 81.449219 166.132812 84.773438 C 161.46875 88.101562 156.671875 94.617188 154.675781 97.941406 C 153.445312 99.984375 150.636719 103.386719 147.984375 106.480469 C 156.210938 98.734375 172.164062 104.390625 190.335938 92.019531 C 196.085938 88.105469 203.773438 81.359375 210.773438 74.71875 C 208.136719 73.71875 204.296875 72.5 200.039062 72.515625 Z M 145.132812 109.78125 C 144.605469 110.378906 144.019531 111.050781 143.617188 111.507812 C 140.816406 114.703125 134.421875 122.417969 132.558594 124.808594 C 132.019531 125.5 131.660156 126.285156 131.40625 127.082031 C 135.523438 121.667969 140.109375 115.871094 145.132812 109.78125 Z M 145.132812 109.78125 "/>
<path style="fill:none;stroke-width:0.560001;stroke-linecap:round;stroke-linejoin:round;stroke:rgb(0%,0%,0%);stroke-opacity:1;stroke-miterlimit:4;" d="M 160.031375 58.012593 C 158.968873 58.015718 157.878246 58.115718 156.78137 58.350094 C 151.771987 59.412595 136.637587 65.159479 132.906331 67.821984 C 129.175075 70.481363 125.337569 75.693871 123.740692 78.356376 C 122.140689 81.015755 117.131306 86.653264 114.893802 89.209518 C 112.653174 91.762647 107.537541 97.934532 106.046913 99.85016 C 104.553161 101.765788 104.659411 104.531418 104.659411 105.809545 C 104.659411 107.084547 104.553161 108.256424 105.834413 111.765804 C 107.11254 115.27831 108.071917 118.684565 109.668794 118.897066 C 111.268797 119.109566 114.146926 119.322066 118.409433 118.897066 C 122.675065 118.472065 133.118832 117.406438 135.571961 117.087688 C 138.021965 116.768937 140.900094 117.406438 143.137598 115.915811 C 145.378226 114.428308 150.49386 111.765804 153.58449 108.681424 C 156.675119 105.593919 163.284505 99.85016 164.881383 96.868905 C 166.481385 93.890776 171.172018 85.272012 171.809519 82.184507 C 172.450145 79.100127 173.622022 71.756365 173.622022 70.693863 C 173.622022 69.628237 172.025144 61.115723 169.359515 60.053221 C 167.278261 59.22197 163.828256 58.000093 160.031375 58.012593 Z M 160.031375 58.012593 " transform="matrix(1.249998,0,0,1.249998,0.000164677,0)"/>
</g>
</svg>
