<?xml version="1.0" encoding="UTF-8"?>
<!-- Created by grConvert v0.1-0 -->
<svg xmlns="http://www.w3.org/2000/svg" xmlns:xlink="http://www.w3.org/1999/xlink" width="289pt" height="252pt" viewBox="0 0 289 252" version="1.1">
<g id="surface5">
<path style="fill-rule:nonzero;fill:rgb(100%,100%,100%);fill-opacity:1;stroke-width:0.560001;stroke-linecap:round;stroke-linejoin:round;stroke:rgb(0%,0%,0%);stroke-opacity:1;stroke-miterlimit:4;" d="M 211.9613 100.000154 C 211.9613 155.07524 167.314352 199.719059 112.239262 199.719059 C 57.167296 199.719059 12.520348 155.07524 12.520348 100.000154 C 12.520348 44.925069 57.167296 0.28125 112.239262 0.28125 C 167.314352 0.28125 211.9613 44.925069 211.9613 100.000154 Z M 211.9613 100.000154 " transform="matrix(1.249998,0,0,1.249998,23.513653,1)"/>
<path style=" stroke:none;fill-rule:nonzero;fill:rgb(97.647059%,97.647059%,97.647059%);fill-opacity:1;" d="M 203.410156 24.824219 C 196.941406 24.742188 191.472656 25.84375 187.960938 26.425781 C 182.855469 27.277344 159.144531 38.210938 146.007812 47.558594 C 134.820312 53.996094 133.359375 56.183594 122.660156 64.441406 C 112.6875 69.78125 87.878906 87.03125 78.636719 94.558594 C 70.289062 101.359375 51.300781 117.910156 39.265625 128.847656 C 39.585938 143.515625 42.496094 158.015625 47.859375 171.671875 C 48.085938 171.816406 48.402344 172.035156 48.601562 172.160156 C 54.679688 175.925781 64.289062 180.539062 78.636719 189.285156 C 92.984375 198.027344 109.527344 202.160156 116.09375 203.738281 C 116.460938 203.824219 116.808594 203.933594 117.164062 204.03125 L 117.125 204.101562 C 117.125 204.101562 117.792969 204.285156 118.847656 204.511719 C 124.140625 206.175781 128.308594 208.542969 129.347656 208.957031 C 130.5625 209.445312 127.644531 210.171875 138.710938 212.722656 C 149.777344 215.273438 172.882812 217.824219 177.257812 218.429688 C 181.636719 219.039062 210.703125 218.675781 220.796875 218.429688 C 230.886719 218.1875 231.132812 218.792969 240.253906 220.738281 C 241.230469 220.945312 242.5 221.144531 243.921875 221.335938 C 272.113281 197.6875 288.414062 162.792969 288.464844 126 C 288.410156 87.851562 270.890625 51.824219 240.914062 28.230469 C 233.375 28.007812 220.613281 27.460938 212.769531 25.824219 C 209.503906 25.140625 206.355469 24.859375 203.410156 24.824219 Z M 59.054688 120.425781 L 57.355469 122.371094 C 57.355469 122.371094 57.839844 121.277344 59.054688 120.425781 Z M 50.910156 126.617188 L 52.125 129.046875 C 52.125 129.167969 51.761719 128.320312 50.910156 126.617188 Z M 50.910156 126.617188 "/>
<path style=" stroke:none;fill-rule:nonzero;fill:rgb(47.45098%,56.078431%,90.196078%);fill-opacity:1;" d="M 201.671875 24.832031 C 195.960938 24.941406 191.15625 25.894531 187.964844 26.425781 C 182.855469 27.277344 159.144531 38.210938 146.007812 47.558594 C 134.820312 53.996094 133.359375 56.179688 122.660156 64.441406 C 112.6875 69.78125 87.878906 87.03125 78.636719 94.558594 C 69.398438 102.085938 47.015625 121.640625 35.585938 132.207031 C 28.828125 137.851562 28.15625 141.941406 30.035156 145.242188 L 29.476562 144.441406 C 29.445312 144.4375 29.410156 144.445312 29.375 144.445312 C 29.488281 144.714844 29.617188 144.984375 29.765625 145.246094 L 29.214844 144.457031 C 27.503906 144.667969 24.953125 147.898438 23.914062 150.785156 C 22.820312 153.820312 42.523438 168.394531 48.601562 172.160156 C 54.679688 175.925781 64.289062 180.539062 78.636719 189.285156 C 92.988281 198.027344 109.523438 202.160156 116.089844 203.738281 C 116.457031 203.824219 116.808594 203.933594 117.167969 204.03125 L 117.125 204.101562 C 117.125 204.101562 117.792969 204.285156 118.847656 204.511719 C 124.140625 206.175781 132.242188 204.605469 133.28125 205.023438 C 135.5 204.167969 147.398438 205.152344 151.183594 203.347656 C 155.855469 200.722656 157.507812 197.460938 161.046875 196.171875 C 167.386719 193.460938 162.785156 195.894531 172.730469 191.992188 C 173.046875 191.867188 174.597656 190.882812 175.402344 189.429688 C 182.390625 176.808594 200.015625 151.46875 224.519531 122.058594 C 235.277344 109.148438 257.96875 118.421875 283.964844 100.71875 C 284.5 100.351562 285.078125 99.925781 285.636719 99.527344 C 279.433594 70.839844 263.359375 45.832031 241.140625 28.234375 C 233.648438 28.019531 220.71875 27.484375 212.769531 25.824219 C 208.847656 25.003906 205.097656 24.765625 201.671875 24.832031 Z M 58.808594 120.402344 L 57.109375 122.351562 C 57.109375 122.351562 57.59375 121.257812 58.808594 120.402344 Z M 59.058594 120.425781 L 57.355469 122.371094 C 57.355469 122.371094 57.84375 121.277344 59.058594 120.425781 Z M 50.65625 126.601562 L 51.871094 129.035156 C 51.871094 129.152344 51.507812 128.304688 50.65625 126.601562 Z M 50.910156 126.621094 L 52.125 129.046875 C 52.125 129.167969 51.761719 128.320312 50.910156 126.621094 Z M 50.910156 126.621094 "/>
<path style="fill-rule:nonzero;fill:rgb(92.54902%,92.54902%,92.54902%);fill-opacity:1;stroke-width:0.560001;stroke-linecap:round;stroke-linejoin:round;stroke:rgb(0%,0%,0%);stroke-opacity:1;stroke-miterlimit:4;" d="M 145.395566 6.081259 C 144.364314 6.909385 143.254938 7.818762 142.648687 8.296888 C 141.286184 9.365639 127.473662 21.021907 131.558043 20.340656 C 135.64555 19.66253 143.039312 18.109403 151.404951 19.859405 C 157.676836 21.168782 167.889353 21.606283 173.920613 21.784408 C 165.336224 15.021898 155.701833 9.71564 145.395566 6.081259 Z M 161.323717 173.853394 C 160.883092 173.856519 159.84559 173.897144 157.826837 173.944019 C 154.833082 174.015894 149.751823 174.100269 144.36744 174.156519 C 149.751823 181.328405 145.958067 176.375273 148.779947 187.740915 C 148.779947 187.740915 149.495573 190.278419 150.039324 192.197172 C 157.720586 189.034667 164.976848 184.925286 171.636234 179.965903 C 169.926856 179.284652 168.429979 178.565901 168.429979 178.512776 C 168.429979 178.415901 165.511224 177.250274 162.495594 177.053399 C 161.133092 177.053399 159.479964 175.400271 159.479964 175.400271 C 158.592463 174.137769 162.645595 173.840894 161.323717 173.853394 Z M 161.323717 173.853394 " transform="matrix(1.249998,0,0,1.249998,23.513653,1)"/>
<path style="fill:none;stroke-width:0.560001;stroke-linecap:butt;stroke-linejoin:miter;stroke:rgb(0%,0%,0%);stroke-opacity:1;stroke-miterlimit:4;" d="M 143.917439 19.059404 C 138.74243 18.993779 134.367423 19.87503 131.558043 20.340656 C 127.473662 21.021907 108.504881 29.768796 97.995488 37.246932 C 89.045474 42.39694 87.876722 44.146943 79.317333 50.753203 C 71.339195 55.025085 51.492287 68.825106 44.098525 74.846991 C 36.704763 80.868875 18.801608 96.512649 9.657843 104.965787 C 4.251585 109.481419 3.714084 112.756424 5.217211 115.393928 L 4.770335 114.753302 C 3.407833 114.656427 1.195329 117.400181 0.320328 119.831435 C -0.554673 122.256439 15.204727 133.915832 20.07036 136.928337 C 24.932868 139.940841 32.620381 143.631472 44.098525 150.628358 C 55.576669 157.622119 68.811065 160.928374 74.064199 162.190876 C 74.35795 162.259626 74.636075 162.347126 74.920451 162.425251 L 74.8892 162.481501 C 74.8892 162.481501 75.423576 162.628376 76.267328 162.809627 C 80.50171 164.140879 83.83609 166.034632 84.667342 166.365882 C 85.639218 166.756508 83.304839 167.337759 92.157979 169.378387 C 101.011118 171.419015 119.495524 173.459643 122.995529 173.944019 C 126.49866 174.43152 149.751823 174.140894 157.826837 173.944019 C 165.898725 173.750269 166.0956 174.234644 173.392487 175.790897 C 174.204988 175.962772 175.26124 176.128397 176.454992 176.287772 C 198.164403 157.993994 211.9613 130.609577 211.9613 100.000154 C 211.9613 68.29698 197.164401 40.053187 174.101863 21.787533 C 168.108103 21.615658 157.767461 21.187532 151.404951 19.859405 C 148.792447 19.31253 146.273693 19.087529 143.917439 19.059404 Z M 28.432874 95.540773 L 27.073497 97.097025 C 27.073497 97.097025 27.460998 96.222024 28.432874 95.540773 Z M 21.917239 100.493905 L 22.889115 102.437658 C 22.889115 102.534533 22.59849 101.856407 21.917239 100.493905 Z M 21.917239 100.493905 " transform="matrix(1.249998,0,0,1.249998,23.513653,1)"/>
<path style="fill-rule:nonzero;fill:rgb(92.54902%,92.54902%,92.54902%);fill-opacity:1;stroke-width:0.560001;stroke-linecap:butt;stroke-linejoin:miter;stroke:rgb(0%,0%,0%);stroke-opacity:1;stroke-miterlimit:4;" d="M 11.557847 120.947062 C 9.951594 120.037685 6.045337 117.337681 4.770335 114.753302 C 3.407833 114.656427 1.195329 117.400181 0.320328 119.831435 C -0.554673 122.259564 15.204727 133.915832 20.07036 136.928337 C 24.932868 139.940841 32.620381 143.631472 44.098525 150.625233 C 47.40478 152.181485 49.157908 147.906479 50.907911 145.381475 C 52.657914 142.856471 56.161045 135.278334 52.657914 133.137706 C 49.157908 131.003327 41.961021 128.281448 38.261015 127.309572 C 34.564134 126.337695 27.951623 124.006442 22.501614 119.731435 C 17.442231 114.681427 9.076592 106.131414 6.292213 108.359542 C 3.685959 111.756423 4.207834 114.334552 5.979712 116.48768 C 7.679715 118.550183 10.526595 120.225186 12.870349 121.872063 C 13.892225 122.840815 14.548476 123.20644 15.692228 124.203317 C 15.954729 124.484567 22.61099 129.48145 26.004745 133.137706 C 37.78914 145.025224 33.979758 143.437722 44.682901 147.906479 " transform="matrix(1.249998,0,0,1.249998,23.513653,1)"/>
<path style="fill-rule:nonzero;fill:rgb(92.54902%,92.54902%,92.54902%);fill-opacity:1;stroke-width:0.560001;stroke-linecap:butt;stroke-linejoin:miter;stroke:rgb(0%,0%,0%);stroke-opacity:1;stroke-miterlimit:4;" d="M 39.282892 100.106405 C 41.03602 104.040786 44.098525 110.600171 49.351659 111.912673 C 54.604792 113.22205 55.042293 115.409553 62.923556 112.784549 C 70.804819 110.16267 70.367318 110.16267 73.867324 104.478286 C 77.370455 98.793903 76.932954 95.734523 76.495453 91.362641 C 76.057952 86.990759 70.804819 80.431374 66.426687 79.121997 C 62.048554 77.809495 55.482919 77.371994 49.351659 78.684496 C 43.223523 79.996998 42.348522 83.93138 41.03602 86.115758 C 39.720393 88.303261 37.532889 96.172024 39.282892 100.106405 Z M 39.282892 100.106405 " transform="matrix(1.249998,0,0,1.249998,23.513653,1)"/>
<path style="fill-rule:nonzero;fill:rgb(20%,20%,20%);fill-opacity:1;stroke-width:0.560001;stroke-linecap:butt;stroke-linejoin:miter;stroke:rgb(0%,0%,0%);stroke-opacity:1;stroke-miterlimit:4;" d="M 56.35792 84.36888 C 51.542287 84.806381 49.351659 84.36888 47.164155 87.42826 C 44.973526 90.48764 43.711024 101.659532 46.579779 105.500163 C 48.623532 106.80954 50.52041 107.975167 53.29229 107.975167 C 56.06417 107.975167 60.298552 107.684541 62.19543 106.80954 C 64.092308 105.937664 66.717312 106.228289 68.323565 104.040786 C 69.929817 101.856407 70.657944 100.690781 70.511068 97.33765 C 70.367318 93.98452 70.367318 91.653267 68.907941 89.612638 C 67.448563 87.575135 66.426687 84.806381 63.654807 84.07513 C 60.879802 83.347004 61.173553 83.93138 56.35792 84.36888 Z M 56.35792 84.36888 " transform="matrix(1.249998,0,0,1.249998,23.513653,1)"/>
<path style=" stroke:none;fill-rule:nonzero;fill:rgb(100%,100%,100%);fill-opacity:1;" d="M 80.277344 118.847656 C 81.007812 119.757812 81.921875 120.121094 84.292969 119.394531 C 86.664062 118.664062 87.394531 117.390625 91.769531 117.207031 C 96.148438 117.023438 98.15625 117.023438 100.160156 117.390625 C 102.167969 117.753906 103.445312 116.480469 103.808594 117.390625 C 104.175781 118.300781 107.09375 119.027344 102.714844 119.941406 C 98.335938 120.851562 97.609375 123.035156 94.324219 123.035156 C 91.042969 123.035156 90.859375 124.492188 87.574219 124.128906 C 84.292969 123.765625 81.007812 125.585938 80.828125 126.496094 C 80.644531 127.410156 76.933594 125.890625 76.933594 124.433594 C 76.933594 122.972656 79.550781 117.9375 80.277344 118.847656 Z M 80.277344 118.847656 "/>
<path style="fill-rule:nonzero;fill:rgb(40%,40%,40%);fill-opacity:1;stroke-width:0.560001;stroke-linecap:butt;stroke-linejoin:miter;stroke:rgb(0%,0%,0%);stroke-opacity:1;stroke-miterlimit:4;" d="M 146.417443 6.453135 C 144.976816 8.128137 142.973687 10.800016 141.723685 12.668769 C 139.683057 15.728149 127.473662 21.021907 131.558043 20.340656 C 135.64555 19.66253 143.039312 18.109403 151.404951 19.859405 C 157.679961 21.168782 167.889353 21.606283 173.920613 21.784408 C 172.136235 20.334406 170.301857 18.943779 168.423729 17.621902 C 167.495602 17.812527 167.051852 17.184401 166.970602 17.184401 C 166.936227 17.184401 166.926852 17.000026 166.939352 16.712526 C 164.864348 15.331273 162.739345 14.028146 160.564341 12.80627 C 159.136214 14.600022 157.651836 16.940651 155.879958 17.768777 C 153.68933 18.787529 153.98308 16.893776 153.54558 15.875024 C 153.329954 15.371898 154.176831 12.86252 155.242457 10.16564 C 154.386206 9.737515 153.523705 9.318764 152.651828 8.915638 C 149.776823 13.956271 146.873694 17.046901 145.373691 17.184401 C 143.767439 17.331277 142.601812 16.60315 142.745562 16.018774 C 142.892437 15.437524 143.914314 12.81252 144.64244 11.356267 C 145.104941 10.437516 146.492443 8.362513 147.379944 6.80626 C 147.061194 6.68751 146.739318 6.56876 146.417443 6.453135 Z M 146.417443 6.453135 " transform="matrix(1.249998,0,0,1.249998,23.513653,1)"/>
<path style=" stroke:none;fill-rule:nonzero;fill:rgb(66.666667%,72.156863%,93.72549%);fill-opacity:1;" d="M 278.953125 78.515625 C 268.207031 82.3125 255.132812 87.726562 250.832031 90.792969 C 244.449219 95.347656 237.878906 104.273438 235.144531 108.828125 C 233.464844 111.625 229.617188 116.28125 225.984375 120.519531 C 237.246094 109.910156 259.089844 117.65625 283.964844 100.71875 C 284.453125 100.386719 284.980469 99.996094 285.488281 99.636719 C 283.941406 92.414062 281.753906 85.347656 278.953125 78.515625 Z M 222.078125 125.042969 C 221.363281 125.859375 220.558594 126.777344 220.003906 127.410156 C 216.175781 131.78125 207.417969 142.34375 204.863281 145.625 C 204.128906 146.570312 203.636719 147.640625 203.285156 148.734375 C 208.925781 141.316406 215.203125 133.378906 222.078125 125.042969 Z M 222.078125 125.042969 "/>
<path style="fill:none;stroke-width:0.560001;stroke-linecap:round;stroke-linejoin:round;stroke:rgb(0%,0%,0%);stroke-opacity:1;stroke-miterlimit:4;" d="M 204.351913 62.012596 C 195.755024 65.0501 185.295632 69.381357 181.855001 71.834486 C 176.748743 75.478241 171.495609 82.618878 169.30498 86.262633 C 167.117477 89.906389 160.258091 97.628276 157.192461 101.128281 C 154.129956 104.625162 147.123694 113.0783 145.079941 115.700179 C 143.039312 118.322058 143.183063 122.112689 143.183063 123.862691 C 143.183063 125.609569 143.039312 127.212697 144.789315 132.022079 C 146.542443 136.831461 147.854945 141.493969 150.042449 141.787719 C 152.233077 142.078345 156.173709 142.36897 162.008093 141.787719 C 167.845603 141.203343 182.148752 139.743966 185.505007 139.30959 C 188.861263 138.87209 192.801894 139.743966 195.864399 137.706463 C 198.286278 136.09396 203.151911 133.475206 207.180043 130.365826 C 210.333173 120.550186 211.945675 110.309545 211.9613 100.000154 C 211.933175 86.962634 209.348796 74.056364 204.351913 62.012596 Z M 204.351913 62.012596 " transform="matrix(1.249998,0,0,1.249998,23.513653,1)"/>
</g>
</svg>
