<?xml version="1.0" encoding="UTF-8"?>
<!-- Created by grConvert v0.1-0 -->
<svg xmlns="http://www.w3.org/2000/svg" xmlns:xlink="http://www.w3.org/1999/xlink" width="289pt" height="252pt" viewBox="0 0 289 252" version="1.1">
<g id="surface9">
<path style="fill-rule:nonzero;fill:rgb(100%,100%,100%);fill-opacity:1;stroke-width:2.62916;stroke-linecap:round;stroke-linejoin:round;stroke:rgb(0%,0%,0%);stroke-opacity:1;stroke-miterlimit:4;" d="M 493.072869 1104.593976 C 493.072869 1363.384559 283.635124 1573.159994 25.293878 1573.159994 C -233.062028 1573.159994 -442.499773 1363.384559 -442.499773 1104.593976 C -442.499773 845.818077 -233.062028 636.027957 25.293878 636.027957 C 283.635124 636.027957 493.072869 845.818077 493.072869 1104.593976 Z M 493.072869 1104.593976 " transform="matrix(0.266469,0,0,0.266021,157.076381,-167.845281)"/>
<path style=" stroke:none;fill-rule:nonzero;fill:rgb(97.647059%,97.647059%,97.647059%);fill-opacity:1;" d="M 177.414062 2.105469 C 172.699219 4.847656 168.234375 7.640625 164.441406 10.339844 C 149.410156 18.988281 147.449219 21.925781 133.074219 33.027344 C 119.675781 40.203125 86.347656 63.378906 73.933594 73.496094 C 61.519531 83.613281 31.453125 109.890625 16.097656 124.085938 C 7.019531 131.667969 6.113281 137.171875 8.640625 141.601562 L 7.890625 140.527344 C 5.601562 140.363281 1.886719 144.96875 0.414062 149.054688 C -1.054688 153.132812 25.410156 172.714844 33.582031 177.773438 C 41.746094 182.835938 54.65625 189.03125 73.933594 200.78125 C 93.210938 212.53125 115.429688 218.082031 124.253906 220.203125 C 124.742188 220.320312 125.226562 220.445312 125.707031 220.578125 L 125.640625 220.695312 C 125.640625 220.695312 126.535156 220.9375 127.953125 221.242188 C 135.066406 223.480469 140.664062 226.664062 142.058594 227.21875 C 143.691406 227.875 139.769531 228.855469 154.640625 232.28125 C 169.503906 235.707031 200.546875 239.136719 206.425781 239.949219 C 207.585938 240.109375 210.289062 240.207031 213.578125 240.277344 C 227.757812 234.101562 240.804688 225.289062 251.953125 214.140625 C 275.332031 190.765625 288.464844 159.058594 288.464844 126 C 288.464844 92.941406 275.332031 61.234375 251.953125 37.859375 C 231.808594 17.710938 205.472656 5.183594 177.414062 2.105469 Z M 47.628906 108.253906 L 45.34375 110.867188 C 45.34375 110.867188 45.996094 109.398438 47.628906 108.253906 Z M 36.683594 116.578125 L 38.316406 119.84375 C 38.316406 120.003906 37.828125 118.863281 36.683594 116.578125 Z M 36.683594 116.578125 "/>
<path style="fill:none;stroke-width:6.760697;stroke-linecap:round;stroke-linejoin:miter;stroke:rgb(20%,20%,20%);stroke-opacity:1;stroke-miterlimit:4;" d="M -125.873059 829.651007 C -120.493088 831.824237 -126.459432 830.76699 -121.357988 832.675908 M -96.026678 841.089833 C -89.444642 843.644847 -90.236245 843.233695 -84.137967 846.27328 M -59.759513 860.634219 C -53.089521 864.819155 -52.840313 864.687 -46.786013 870.868958 M -32.478514 885.890677 C -23.741557 896.492515 -23.814854 902.057746 -16.382577 920.471465 C 11.001038 988.22338 28.284379 1076.151093 19.635379 1117.956404 C 11.001038 1159.761714 30.21941 1206.001588 54.216722 1243.387019 C 68.802748 1266.088462 144.987248 1348.612468 144.987248 1348.612468 M -424.116982 1165.532521 C -399.621253 1169.864297 -392.423526 1172.742358 -372.252298 1166.971552 C -352.08107 1161.215429 -334.783069 1135.25414 -310.28734 1158.322683 C -285.806271 1181.391227 -169.953643 1229.980539 -156.129901 1335.646508 C -151.61483 1357.86338 -146.894528 1372.209635 -139.638163 1382.341586 M -125.096115 1395.821486 C -115.772786 1401.592292 -103.576229 1405.718493 -86.981876 1410.60826 M -392.423526 1017.048046 C -405.382367 1027.135945 -426.990209 1063.185133 -439.96371 1071.834001 C -452.922551 1080.482869 -464.459438 1100.658667 -471.657166 1099.219636 C -478.869553 1097.780606 -480.306166 1097.780606 -480.306166 1097.780606 M -154.693288 943.525325 C -144.607674 949.296131 -118.675332 959.38403 -105.701831 1001.189341 C -92.74299 1042.994651 -99.940717 1073.273032 -112.914218 1097.780606 C -125.873059 1122.28818 -144.607674 1154.005591 -167.652129 1164.09349 L -190.711244 1174.181389 " transform="matrix(0.266469,0,0,0.266021,157.076381,-167.845281)"/>
<path style="fill-rule:nonzero;fill:rgb(92.54902%,92.54902%,92.54902%);fill-opacity:1;stroke-width:2.629159;stroke-linecap:butt;stroke-linejoin:miter;stroke:rgb(0%,0%,0%);stroke-opacity:1;stroke-miterlimit:4;" d="M -517.101066 1198.307179 C -527.215999 1192.56574 -551.829002 1175.517632 -559.862311 1159.203723 C -568.452674 1158.586995 -582.39369 1175.914099 -587.905596 1191.258866 C -593.43216 1206.588948 -494.115248 1280.199774 -463.447945 1299.215536 C -432.80996 1318.245983 -384.360898 1341.534786 -312.01714 1385.704219 C -291.171583 1395.54249 -280.147772 1368.538638 -269.109302 1352.577144 C -258.070832 1336.645019 -235.993892 1288.789906 -258.070832 1275.280638 C -280.147772 1261.800738 -325.503717 1244.620474 -348.797381 1238.482567 C -372.105704 1232.359345 -413.782159 1217.631306 -448.128953 1190.627454 C -479.99832 1158.733835 -532.727905 1104.7555 -550.275114 1118.822759 C -566.708215 1140.276064 -563.409867 1156.545921 -552.254123 1170.143293 C -541.523498 1183.182673 -523.595146 1193.755143 -508.818549 1204.136722 C -502.383106 1210.274629 -498.249177 1212.56533 -491.03679 1218.864761 C -489.380287 1220.641523 -447.425305 1252.197411 -426.052012 1275.280638 C -351.787883 1350.330494 -375.785195 1340.330699 -308.33765 1368.538638 " transform="matrix(0.266469,0,0,0.266021,157.076381,-167.845281)"/>
<path style="fill-rule:nonzero;fill:rgb(92.54902%,92.54902%,92.54902%);fill-opacity:1;stroke-width:2.629159;stroke-linecap:butt;stroke-linejoin:miter;stroke:rgb(0%,0%,0%);stroke-opacity:1;stroke-miterlimit:4;" d="M -342.361938 1066.723974 C -331.323468 1091.569279 -312.01714 1132.978122 -278.916389 1141.259891 C -245.800979 1149.541659 -243.045026 1163.344607 -193.379241 1146.78107 C -143.728114 1130.217533 -146.484067 1130.217533 -124.407127 1094.329869 C -102.330187 1058.442205 -105.100799 1039.118079 -107.856751 1011.512183 C -110.612704 983.906288 -143.728114 942.497446 -171.31696 934.215677 C -198.905805 925.933908 -240.289074 923.173319 -278.916389 931.455087 C -317.529046 939.736856 -323.05561 964.582162 -331.323468 978.385109 C -339.605986 992.188057 -353.400409 1041.878668 -342.361938 1066.723974 Z M -342.361938 1066.723974 " transform="matrix(0.266469,0,0,0.266021,157.076381,-167.845281)"/>
<path style="fill-rule:nonzero;fill:rgb(20%,20%,20%);fill-opacity:1;stroke-width:2.629159;stroke-linecap:butt;stroke-linejoin:miter;stroke:rgb(0%,0%,0%);stroke-opacity:1;stroke-miterlimit:4;" d="M -234.762509 967.342751 C -265.121967 970.103341 -278.916389 967.342751 -292.710812 986.666878 C -306.505235 1005.991004 -314.465247 1076.532877 -296.390302 1100.761455 C -283.504757 1109.043224 -271.557409 1116.414585 -254.083497 1116.414585 C -236.609584 1116.414585 -209.929616 1114.564403 -197.982268 1109.043224 C -186.020261 1103.522045 -169.469885 1105.372227 -159.354953 1091.569279 C -149.24002 1077.766332 -144.636992 1070.39497 -145.56053 1049.235345 C -146.484067 1028.075721 -146.484067 1013.347682 -155.675462 1000.469825 C -164.866858 987.591969 -171.31696 970.103341 -188.790873 965.507253 C -206.264786 960.896481 -204.417711 964.582162 -234.762509 967.342751 Z M -234.762509 967.342751 " transform="matrix(0.266469,0,0,0.266021,157.076381,-167.845281)"/>
<path style=" stroke:none;fill-rule:nonzero;fill:rgb(100%,100%,100%);fill-opacity:1;" d="M 76.140625 106.132812 C 77.121094 107.359375 78.34375 107.847656 81.53125 106.867188 C 84.714844 105.890625 85.695312 104.175781 91.578125 103.929688 C 97.460938 103.6875 100.15625 103.6875 102.851562 104.175781 C 105.546875 104.664062 107.261719 102.953125 107.75 104.175781 C 108.242188 105.398438 112.164062 106.378906 106.28125 107.601562 C 100.398438 108.828125 99.417969 111.765625 95.007812 111.765625 C 90.597656 111.765625 90.351562 113.722656 85.941406 113.230469 C 81.53125 112.742188 77.121094 115.191406 76.875 116.414062 C 76.628906 117.636719 71.644531 115.597656 71.644531 113.640625 C 71.644531 111.679688 75.160156 104.910156 76.140625 106.132812 Z M 76.140625 106.132812 "/>
<path style="fill:none;stroke-width:0.7;stroke-linecap:round;stroke-linejoin:round;stroke:rgb(0%,0%,0%);stroke-opacity:1;stroke-miterlimit:4;" d="M 114.514289 248.507216 C 110.654915 254.741591 99.440072 267.382216 94.373666 273.163466 C 89.229135 279.038466 77.467418 293.233779 74.033824 297.640029 C 70.604137 302.046279 70.850231 308.40956 70.850231 311.34706 C 70.850231 314.28456 70.604137 316.975966 73.545543 325.054091 C 76.486949 333.132216 78.690074 340.968154 82.365855 341.456435 C 86.041636 341.944716 92.658823 342.436904 102.463509 341.456435 C 102.748665 341.429091 103.38929 341.362685 103.697884 341.331435 C 113.729133 322.991591 118.986945 302.425185 118.986945 281.522841 C 118.979133 270.366591 117.475226 259.261122 114.514289 248.507216 Z M 114.514289 248.507216 " transform="matrix(1,0,0,1,169.477887,-155.52284)"/>
<path style="fill:none;stroke-width:0.7;stroke-linecap:butt;stroke-linejoin:miter;stroke:rgb(0%,0%,0%);stroke-opacity:1;stroke-miterlimit:4;" d="M 7.936174 157.628309 C 3.221331 160.370497 -1.243512 163.163466 -5.036481 165.862684 C -20.067729 174.511122 -22.028666 177.448622 -36.403665 188.550184 C -49.802101 195.725966 -83.130223 218.901747 -95.544284 229.018935 C -107.958346 239.136122 -138.024749 265.413466 -153.380216 279.608779 C -162.45834 287.19081 -163.36459 292.694716 -160.837247 297.124404 L -161.587247 296.050185 C -163.876309 295.886122 -167.591152 300.491591 -169.063809 304.577529 C -170.532558 308.655654 -144.067717 328.237685 -135.895843 333.296279 C -127.731781 338.358779 -114.821626 344.554091 -95.544284 356.304091 C -76.266942 368.054091 -54.048195 373.604873 -45.223977 375.725966 C -44.735695 375.843154 -44.251321 375.968154 -43.770852 376.100966 L -43.837258 376.218154 C -43.837258 376.218154 -42.942727 376.460341 -41.524758 376.765029 C -34.411478 379.00331 -28.813822 382.186904 -27.419291 382.741591 C -25.786479 383.397841 -29.708353 384.37831 -14.837261 387.804092 C 0.026019 391.229873 31.068985 394.65956 36.94789 395.47206 C 38.108047 395.632217 40.811171 395.729873 44.100233 395.800185 C 58.27992 389.624404 71.326793 380.811904 82.47523 369.663466 C 105.854134 346.288466 118.986945 314.581435 118.986945 281.522841 C 118.986945 248.464247 105.854134 216.757216 82.47523 193.382216 C 62.3307 173.233778 35.994766 160.706434 7.936174 157.628309 Z M -121.848969 263.776747 L -124.134125 266.390028 C -124.134125 266.390028 -123.481782 264.921278 -121.848969 263.776747 Z M -132.794281 272.100966 L -131.161468 275.366591 C -131.161468 275.526747 -131.64975 274.386122 -132.794281 272.100966 Z M -132.794281 272.100966 " transform="matrix(1,0,0,1,169.477887,-155.52284)"/>
<path style="fill:none;stroke-width:0.7;stroke-linecap:butt;stroke-linejoin:miter;stroke:rgb(100%,60%,33.333333%);stroke-opacity:1;stroke-miterlimit:4;" d="M -132.794281 272.09706 C -131.64975 274.386122 -131.161468 275.526747 -131.161468 275.362685 " transform="matrix(1,0,0,1,169.477887,-155.52284)"/>
<path style="fill:none;stroke-width:0.7;stroke-linecap:butt;stroke-linejoin:miter;stroke:rgb(100%,60%,33.333333%);stroke-opacity:1;stroke-miterlimit:4;" d="M -121.848969 263.776747 C -123.481782 264.921278 -124.134125 266.390028 -124.134125 266.390028 " transform="matrix(1,0,0,1,169.477887,-155.52284)"/>
<path style="fill:none;stroke-width:0.7;stroke-linecap:butt;stroke-linejoin:miter;stroke:rgb(0%,0%,0%);stroke-opacity:1;stroke-miterlimit:4;" d="M 42.66664 222.491591 C 42.66664 222.491591 48.303358 223.225966 51.490858 224.202528 C 54.674451 225.182997 62.026013 229.589247 65.947888 234.729872 C 69.869762 239.870497 77.221324 244.030653 80.897105 245.745497 C 84.572886 247.460341 84.572886 254.311903 84.326792 258.475966 C 84.084605 262.636122 78.936168 274.386122 76.733043 277.323622 C 74.526012 280.261122 65.459606 304.983779 60.557263 311.593154 C 55.65492 318.202529 37.768203 351.737685 33.358047 357.612685 C 28.943985 363.487685 16.201799 361.530654 7.869768 370.831435 C -0.462262 380.132216 -10.75523 375.237685 -23.497416 377.44081 C -33.595072 379.186904 -43.837258 376.214248 -43.837258 376.214248 M -159.559903 298.960341 C -163.454434 294.22206 -163.755215 288.272841 -153.37631 279.608779 C -138.020843 265.40956 -107.958346 239.136122 -95.544284 229.015028 C -83.130223 218.901747 -49.802101 195.725966 -36.403665 188.550184 C -22.028666 177.448622 -20.067729 174.511122 -5.036481 165.862684 C -1.26695 163.179091 3.143206 160.401747 7.826799 157.67909 M 43.088515 395.796279 C 40.182265 395.725967 38.018203 395.620498 36.94789 395.47206 C 31.068985 394.65956 0.0299252 391.229873 -14.837261 387.804092 C -29.708353 384.37831 -25.786479 383.397841 -27.419291 382.741591 C -29.052103 382.089248 -36.403665 377.84706 -45.223977 375.725966 C -54.048195 373.604873 -76.266942 368.054091 -95.544284 356.304091 C -114.821626 344.554091 -127.731781 338.358779 -135.895843 333.296279 C -144.067717 328.237685 -170.532558 308.655654 -169.059902 304.577529 C -167.591152 300.495497 -163.876309 295.886122 -161.587247 296.050185 " transform="matrix(1,0,0,1,169.477887,-155.52284)"/>
</g>
</svg>
