<?xml version="1.0" encoding="UTF-8"?>
<!-- Created by grConvert v0.1-0 -->
<svg xmlns="http://www.w3.org/2000/svg" xmlns:xlink="http://www.w3.org/1999/xlink" width="449pt" height="250pt" viewBox="0 0 449 250" version="1.1">
<g id="surface9">
<path style=" stroke:none;fill-rule:nonzero;fill:rgb(97.647059%,97.647059%,97.647059%);fill-opacity:1;" d="M 115.503906 83.976562 C 115.503906 83.976562 118.566406 84.375 120.300781 84.910156 C 122.03125 85.441406 126.027344 87.835938 128.160156 90.628906 C 130.292969 93.421875 134.289062 95.683594 136.289062 96.613281 C 138.285156 97.542969 138.285156 101.269531 138.152344 103.53125 C 138.019531 105.789062 135.222656 112.175781 134.023438 113.773438 C 132.824219 115.367188 127.894531 128.800781 125.230469 132.394531 C 122.566406 135.984375 112.839844 154.207031 110.441406 157.398438 C 108.042969 160.589844 101.113281 159.527344 96.585938 164.582031 C 92.054688 169.636719 86.457031 166.976562 79.53125 168.171875 C 74.039062 169.121094 68.472656 167.507812 68.472656 167.507812 M 5.554688 125.53125 C 3.4375 122.953125 3.273438 119.722656 8.914062 115.015625 C 17.265625 107.300781 33.609375 93.023438 40.359375 87.523438 C 47.109375 82.027344 65.230469 69.433594 72.515625 65.535156 C 80.328125 59.503906 81.394531 57.90625 89.566406 53.207031 C 99.160156 46.378906 116.480469 38.398438 120.210938 37.777344 C 123.941406 37.15625 130.691406 35.738281 138.332031 37.335938 C 145.96875 38.933594 160.003906 39.105469 162.847656 39.199219 C 165.6875 39.285156 180.609375 44.785156 190.648438 46.023438 C 200.683594 47.265625 223.070312 57.554688 235.414062 58.261719 C 247.761719 58.972656 266.144531 71.5625 273.699219 74.046875 C 281.246094 76.527344 300.878906 91.246094 305.050781 93.554688 C 309.226562 95.859375 323.4375 101.445312 328.855469 102.332031 C 334.273438 103.21875 339.605469 104.195312 343.335938 104.195312 C 347.066406 104.195312 350.261719 104.90625 356.65625 102.6875 C 363.054688 100.46875 361.453125 101.179688 366.339844 100.203125 C 371.226562 99.226562 371.492188 101.445312 372.023438 103.21875 C 372.558594 104.992188 374.691406 109.070312 374.066406 111.644531 C 373.445312 114.214844 372.644531 117.316406 372.46875 119.535156 C 372.292969 121.753906 371.3125 122.902344 371.578125 125.832031 C 371.847656 128.757812 373.53125 135.320312 372.199219 137.359375 C 370.867188 139.398438 369.179688 142.5 367.9375 143.476562 C 366.695312 144.453125 362.164062 147.289062 360.476562 147.910156 C 358.789062 148.53125 357.8125 149.417969 356.925781 149.417969 C 356.035156 149.417969 352.214844 148.972656 349.109375 149.152344 C 346 149.332031 336.492188 150.75 332.230469 152.433594 C 327.96875 154.117188 325.746094 155.003906 321.570312 156.335938 C 317.398438 157.664062 317.21875 158.550781 311.089844 160.769531 C 304.960938 162.984375 296.167969 161.566406 290.574219 163.515625 C 284.976562 165.46875 274.050781 167.953125 269.875 169.8125 C 265.703125 171.675781 253.621094 173.625 251.046875 174.511719 C 248.472656 175.402344 227.421875 179.832031 224.667969 180.542969 C 221.914062 181.253906 223.070312 180.808594 214.542969 181.253906 C 206.015625 181.695312 204.417969 181.339844 201.394531 182.050781 C 198.375 182.757812 193.046875 182.140625 190.46875 182.050781 C 187.894531 181.960938 165.066406 181.074219 158.40625 179.65625 C 151.742188 178.238281 151.566406 177.792969 144.195312 177.96875 C 136.820312 178.148438 115.589844 178.414062 112.394531 177.96875 C 109.195312 177.527344 92.320312 175.667969 84.238281 173.804688 C 76.152344 171.941406 78.285156 171.410156 77.398438 171.054688 C 76.511719 170.699219 72.515625 168.394531 67.71875 167.242188 C 62.921875 166.089844 50.839844 163.074219 40.359375 156.6875 C 29.878906 150.304688 22.859375 146.9375 18.421875 144.1875 C 13.980469 141.4375 -0.410156 130.796875 0.390625 128.582031 C 1.1875 126.363281 3.207031 123.859375 4.453125 123.945312 M 26.058594 106.410156 C 25.171875 107.035156 24.816406 107.832031 24.816406 107.832031 M 20.109375 110.933594 C 20.730469 112.175781 20.996094 112.796875 20.996094 112.707031 "/>
<path style="fill-rule:nonzero;fill:rgb(92.54902%,92.54902%,92.54902%);fill-opacity:1;stroke-width:2.62916;stroke-linecap:round;stroke-linejoin:round;stroke:rgb(0%,0%,0%);stroke-opacity:1;stroke-miterlimit:4;" d="M 1723.097705 316.873769 C 1719.330258 316.859085 1712.293783 318.107224 1697.663778 321.675433 C 1671.672797 328.004232 1628.325176 344.332826 1604.665028 353.99489 C 1581.004879 363.671638 1562.328901 368.326462 1539.328422 378.00321 C 1519.992774 384.332009 1497.329459 394.331804 1476.674472 400.675287 C 1461.663324 408.663377 1402.996711 426.665945 1421.335525 422.994949 C 1439.674339 419.323952 1440.671173 427.664457 1442.664841 434.330987 C 1444.673168 440.997518 1452.662499 456.327601 1450.331667 466.004349 C 1448.000835 475.666413 1444.995673 487.325499 1444.336004 495.666004 C 1443.676334 504.006509 1439.996844 508.323601 1440.993678 519.336592 C 1442.005171 530.334899 1448.32334 555.003998 1443.32451 562.66904 C 1438.325681 570.334082 1431.992853 581.993168 1427.331188 585.664165 C 1422.669523 589.335162 1405.664707 599.995737 1399.33188 602.330491 C 1392.999052 604.665245 1389.334221 607.99851 1386.006554 607.99851 C 1382.664228 607.99851 1424.663191 616.324331 1432.667182 619.995328 C 1440.671173 623.666325 1496.669789 647.336913 1512.325947 651.66869 C 1527.996764 656.000466 1600.003363 682.328856 1607.670189 683.00432 C 1615.337015 683.665099 1680.996127 703.003911 1686.669285 702.666179 C 1692.327784 702.328448 1711.326268 702.328448 1711.326268 702.328448 L 1710.666598 639.33414 C 1710.666598 639.33414 1701.328609 590.333673 1696.007274 580.333877 C 1690.67128 570.334082 1679.324964 536.663698 1675.322968 533.330433 C 1671.335632 529.997167 1666.673967 518.675813 1666.673967 518.675813 C 1666.673967 518.675813 1669.664469 511.671551 1673.666465 505.6658 C 1681.670456 495.328272 1685.994956 476.004144 1690.334116 465.005838 C 1700.668939 445.667026 1709.669764 417.003882 1712.000596 406.328622 C 1712.000596 406.328622 1726.997085 350.999357 1726.997085 350.676309 C 1726.997085 350.323893 1730.324751 320.99997 1727.993919 318.665216 C 1726.982425 317.65202 1726.029569 316.873769 1723.097705 316.873769 Z M 1213.994049 650.670179 C 1190.99357 658.996 1157.995432 653.665712 1137.003281 660.993022 C 1115.99647 668.335016 1074.994341 677.674032 1059.323524 684.66361 C 1043.667366 691.667872 998.326078 698.995182 988.665583 702.328448 C 979.005089 705.676397 900.005993 722.328039 889.67117 725.000525 C 879.336347 727.67301 881.330015 732.665566 881.330015 732.665566 C 881.330015 732.665566 894.669999 752.004378 915.999315 764.001196 C 937.328631 775.998014 988.005914 806.672864 1015.330893 812.663931 C 1042.670532 818.669682 1107.332809 828.669478 1124.00046 840.666296 C 1140.668112 852.663114 1150.006101 853.323894 1167.993091 857.993402 C 1185.994741 862.66291 1200.668724 864.674616 1212.67471 858.668865 C 1224.666037 852.663114 1255.993012 838.669274 1267.324669 826.672456 C 1278.670986 814.675638 1282.672981 817.994219 1293.330309 794.676046 C 1304.002297 771.328506 1312.006288 767.334461 1309.323632 742.004582 C 1306.670294 716.674704 1305.995965 697.335892 1303.327968 688.672339 C 1300.674631 679.994102 1283.332651 657.997489 1277.996657 656.67593 C 1272.675322 655.325003 1228.330868 656.000466 1228.330868 656.000466 C 1216.676705 657.997489 1217.673539 654.664223 1213.994049 650.670179 Z M 599.651108 715.015413 C 598.141198 715.030097 594.578982 715.162253 587.674441 715.323777 C 577.412914 715.588088 559.997637 715.867084 541.556208 716.057976 C 559.997637 740.66834 546.994817 723.664282 556.669971 762.664953 C 556.669971 762.664953 569.672791 807.994423 572.326129 820.005925 C 574.994126 832.002743 595.663772 879.006188 599.665768 884.997255 C 603.667763 891.003006 617.667417 904.996846 621.669413 912.676572 C 625.671408 920.32693 632.004236 930.003678 638.674228 940.326521 C 645.329561 950.664048 645.329561 955.333556 656.324054 966.669595 C 667.333206 978.005634 672.6692 985.993723 675.674361 985.993723 C 678.664863 985.993723 676.993701 988.328477 682.329694 979.327192 C 687.665688 970.325908 694.335681 954.672777 698.997346 952.000291 C 703.67367 949.327805 710.329003 932.999211 710.329003 932.999211 L 714.668163 920.32693 C 714.668163 920.32693 720.004156 914.996642 722.672153 902.676776 C 725.325491 890.327543 726.336984 877.992993 730.32432 871.003415 C 734.326316 863.999153 738.665476 844.675025 738.665476 844.675025 C 738.665476 844.675025 742.667471 823.99997 739.00264 815.674149 C 735.337809 807.333644 724.328657 790.329586 724.006152 790.329586 C 723.668987 790.329586 712.674495 777.671989 692.327353 767.334461 C 671.994871 756.996934 655.664384 741.329119 647.675053 739.992876 C 639.671062 738.671317 624.000245 731.329323 624.000245 731.006276 C 624.000245 730.668544 614.002586 726.674499 603.667763 725.999036 C 599.006098 725.999036 593.33294 720.331016 593.33294 720.331016 C 590.2838 715.99924 604.180839 714.971361 599.651108 715.015413 Z M 788.170012 47.642854 C 783.801534 47.613486 776.794377 51.343219 773.994446 52.664778 C 767.676277 55.674995 758.323629 60.329819 751.668296 63.663084 C 744.998304 66.99635 739.66231 68.993372 729.664651 75.997634 C 719.666992 83.001896 703.67367 97.333468 696.666513 99.668222 C 689.674016 102.002976 692.004848 102.002976 690.333685 97.994248 C 688.677182 94.000203 688.677182 91.327717 690.333685 76.996145 C 692.004848 62.664573 685.67202 73.002101 675.000032 78.993168 C 664.328045 84.998919 663.331211 88.332184 653.333552 97.6712 C 643.335893 106.995532 637.999899 108.331775 631.007402 110.328797 C 624.000245 112.32582 621.332248 108.331775 619.323921 99.007443 C 618.781526 96.423061 622.358401 86.203006 618.664251 87.671404 C 608.94512 91.533293 585.607476 116.187709 579.333286 123.676542 C 570.669625 133.999386 559.000803 136.994919 558.326475 135.335629 C 557.666805 133.676338 555.673137 132.677827 554.324479 132.677827 C 553.00514 132.677827 540.324825 143.323718 535.677819 146.994715 C 531.001495 150.665712 483.666539 190.664894 497.666193 188.33014 C 511.665847 185.995386 536.997158 180.665099 565.670796 186.67085 C 594.329774 192.676601 647.000724 193.33738 657.672712 193.675112 C 668.33004 193.99816 724.328657 214.673214 762.003119 219.328038 C 799.677581 223.997547 883.675506 262.67517 929.99897 265.332972 C 976.322433 268.005458 1045.32387 315.33195 1073.675002 324.670967 C 1101.996815 333.995299 1175.674577 389.324565 1191.330735 398.002801 C 1202.222612 404.03792 1231.350688 416.020054 1254.908222 423.890672 C 1265.228386 427.326725 1255.670507 418.32544 1260.332172 416.00537 C 1264.993837 413.670616 1283.669815 416.00537 1292.67064 416.328418 C 1301.671465 416.66615 1327.325281 412.995153 1336.66327 409.001108 C 1346.00126 405.007064 1341.999264 379.001721 1342.336429 371.33668 C 1342.512341 367.372003 1346.543655 351.248984 1344.330097 335.669273 C 1342.263132 321.102758 1333.980614 307.035497 1333.335604 303.335132 C 1332.675934 299.546664 1325.756734 284.407472 1316.667953 270.325528 C 1307.359282 255.905852 1295.866372 242.543423 1294.004638 239.004582 C 1290.325148 232.00032 1257.664175 202.323981 1251.668511 198.329936 C 1245.672848 194.335891 1206.664387 167.66977 1200.331559 164.674236 C 1193.998731 161.664019 1184.001073 153.000466 1162.334592 147.670178 C 1153.216493 145.423528 1144.318283 140.856808 1134.672448 138.668894 C 1121.376441 135.658676 1107.933842 135.423732 1102.33398 135.996408 C 1092.673486 136.994919 1090.327994 135.996408 1084.669495 135.335629 C 1078.996336 134.674849 1080.667499 133.676338 1073.337837 134.997897 C 1065.993516 136.33414 1063.003014 138.668894 1056.992691 141.003648 C 1050.997028 143.323718 1048.329031 142.325207 1041.996203 142.677622 C 1035.663375 143.00067 1035.003706 138.331162 1032.335709 136.671871 C 1029.667712 134.997897 1024.331718 136.33414 1012.662896 136.671871 C 1000.994075 136.994919 1004.673565 135.996408 1001.668404 130.66612 C 998.663242 125.335833 998.003573 120.666325 998.003573 120.666325 C 998.003573 120.666325 993.004743 119.667814 986.334751 120.005545 C 979.664759 120.328593 977.67109 117.993839 973.669095 114.675258 C 969.6671 111.327309 970.663934 111.004261 966.324774 102.663756 C 962.000273 94.323251 965.005435 98.331979 959.332276 97.6712 C 953.673777 96.995737 951.66545 97.994248 938.999794 97.994248 C 926.334139 97.994248 933.326636 95.674178 929.324641 91.00467 C 925.337305 86.335161 925.996974 84.675871 925.996974 84.675871 C 925.996974 84.675871 919.664146 86.672893 914.665317 87.671404 C 909.666487 88.669915 905.664492 91.665449 897.000832 90.329206 C 888.322512 88.992963 892.002002 84.323455 892.002002 84.323455 L 889.334005 75.997634 C 889.334005 75.997634 878.676677 80.006363 873.003519 82.003385 C 867.33036 84.000407 861.671861 84.998919 858.329536 84.000407 C 855.001869 83.001896 854.005035 77.671609 850.325545 65.997838 C 846.675373 54.324068 842.673378 57.334286 837.00022 58.670529 C 831.327061 60.006771 829.333393 61.32833 823.997399 64.000816 C 818.676065 66.673302 800.000086 73.325148 796.994925 73.002101 C 794.004423 72.664369 789.328099 72.664369 790.002428 64.000816 C 790.310273 60.036139 793.535325 50.506231 790.662097 48.333001 C 790.031746 47.84843 789.166846 47.642854 788.170012 47.642854 Z M 788.170012 47.642854 " transform="matrix(0.266469,0,0,0.266021,-12.401494,-12.32244)"/>
<path style="fill:none;stroke-width:6.760696;stroke-linecap:round;stroke-linejoin:miter;stroke:rgb(20%,20%,20%);stroke-opacity:1;stroke-miterlimit:4;" d="M 299.208267 333.172995 C 302.125473 334.362399 298.885762 333.789723 301.656375 334.832286 M 315.436139 339.399006 C 319.013014 340.793985 318.573234 340.559041 321.900901 342.218332 M 335.152929 350.015529 C 338.773782 352.291548 338.905716 352.218128 342.204064 355.580761 M 349.988165 363.745058 C 354.737786 369.501181 354.693808 372.526083 358.739781 382.525878 C 373.618995 419.338636 383.015622 467.120332 378.324638 489.836461 C 373.618995 512.55259 384.071093 537.676893 397.117891 557.984848 C 405.048585 570.334082 446.461175 615.17898 446.461175 615.17898 M 137.061487 515.694963 C 150.372153 518.044401 154.286193 519.615588 165.251367 516.473215 C 176.216541 513.345525 185.627827 499.248897 198.938493 511.774338 C 212.249159 524.314464 275.240273 550.716274 282.745847 608.130666 C 285.208613 620.200904 287.773995 627.998102 291.717353 633.504597 M 299.618729 640.817223 C 304.690855 643.959596 311.316869 646.206246 320.347012 648.864048 M 154.286193 435.006451 C 147.235058 440.498262 135.49294 460.072018 128.441805 464.770894 C 121.39067 469.46977 115.11648 480.438709 111.20244 479.660457 C 107.288401 478.882206 106.511456 478.882206 106.511456 478.882206 M 283.53745 395.066004 C 289.020037 398.193693 303.122307 403.670821 310.173442 426.38695 C 317.224576 449.103079 313.295878 465.563829 306.259402 478.882206 C 299.208267 492.185899 289.020037 509.4249 276.486316 514.902028 L 263.952594 520.393839 " transform="matrix(0.266469,0,0,0.266021,-12.401494,-12.32244)"/>
<path style="fill-rule:nonzero;fill:rgb(92.54902%,92.54902%,92.54902%);fill-opacity:1;stroke-width:2.62916;stroke-linecap:butt;stroke-linejoin:miter;stroke:rgb(0%,0%,0%);stroke-opacity:1;stroke-miterlimit:4;" d="M 86.501479 533.50664 C 81.004233 530.378951 67.62027 521.113355 63.251792 512.244226 C 58.575468 511.921178 50.996597 521.333615 48.006095 529.67412 C 45.000934 537.999941 99.005883 577.999123 115.673534 588.336651 C 132.326526 598.674178 158.66933 611.331775 198.000296 635.325411 C 209.331953 640.670383 215.327617 626.001079 221.32328 617.322842 C 227.333603 608.673974 239.32493 582.668631 227.333603 575.326637 C 215.327617 567.999328 190.670634 558.674995 178.004979 555.327046 C 165.324663 551.993781 142.676008 544.005692 124.00003 529.336388 C 106.672709 511.994598 77.999072 482.670675 68.455852 490.306348 C 59.528324 501.965435 61.316761 510.805195 67.385721 518.205925 C 73.220132 525.283607 82.968582 531.025046 91.001892 536.663698 C 94.50547 539.996963 96.748347 541.245102 100.677046 544.666471 C 101.571264 545.635614 124.381172 562.786512 136.006016 575.326637 C 176.377794 616.104071 163.330995 610.670996 199.993964 626.001079 " transform="matrix(0.266469,0,0,0.266021,-12.401494,-12.32244)"/>
<path style="fill-rule:nonzero;fill:rgb(92.54902%,92.54902%,92.54902%);fill-opacity:1;stroke-width:2.62916;stroke-linecap:butt;stroke-linejoin:miter;stroke:rgb(0%,0%,0%);stroke-opacity:1;stroke-miterlimit:4;" d="M 181.493898 461.99562 C 187.50422 475.504889 198.000296 498.000758 216.001946 502.494058 C 234.003595 507.002042 235.498846 514.50556 262.501321 505.504276 C 289.503795 496.502991 287.993885 496.502991 299.999871 477.002656 C 312.005857 457.50232 310.495947 447.003269 309.000696 431.996233 C 307.505445 417.003882 289.503795 394.493328 274.507307 390.000028 C 259.496159 385.506728 236.994097 383.994277 216.001946 388.502261 C 194.995135 392.995562 192.004633 406.50483 187.50422 413.993664 C 183.003808 421.497182 175.498234 448.501035 181.493898 461.99562 Z M 181.493898 461.99562 " transform="matrix(0.266469,0,0,0.266021,-12.401494,-12.32244)"/>
<path style="fill-rule:nonzero;fill:rgb(20%,20%,20%);fill-opacity:1;stroke-width:2.62916;stroke-linecap:butt;stroke-linejoin:miter;stroke:rgb(0%,0%,0%);stroke-opacity:1;stroke-miterlimit:4;" d="M 239.999259 408.002597 C 223.49286 409.500364 216.001946 408.002597 208.496372 418.501648 C 201.005458 429.0007 196.666298 467.325908 206.502704 480.497445 C 213.495201 485.005429 220.003941 488.999473 229.503183 488.999473 C 239.002425 488.999473 253.500496 488.000962 259.994576 485.005429 C 266.503316 481.995211 275.504141 482.993723 281.001387 475.504889 C 286.498634 468.001371 289.005378 464.007326 288.506961 452.49508 C 287.993885 440.997518 287.993885 432.994744 282.995055 426.005166 C 277.996226 419.000904 274.507307 409.500364 264.993406 407.004086 C 255.494164 404.493124 256.505657 406.50483 239.999259 408.002597 Z M 239.999259 408.002597 " transform="matrix(0.266469,0,0,0.266021,-12.401494,-12.32244)"/>
<path style=" stroke:none;fill-rule:nonzero;fill:rgb(100%,100%,100%);fill-opacity:1;" d="M 41.558594 105.257812 C 42.089844 105.925781 42.757812 106.191406 44.488281 105.65625 C 46.222656 105.125 46.753906 104.195312 49.953125 104.0625 C 53.148438 103.929688 54.617188 103.929688 56.082031 104.195312 C 57.546875 104.460938 58.480469 103.53125 58.746094 104.195312 C 59.011719 104.859375 61.144531 105.390625 57.945312 106.058594 C 54.75 106.722656 54.214844 108.316406 51.816406 108.316406 C 49.417969 108.316406 49.285156 109.382812 46.886719 109.117188 C 44.488281 108.851562 42.089844 110.179688 41.957031 110.84375 C 41.824219 111.511719 39.113281 110.402344 39.113281 109.335938 C 39.113281 108.273438 41.027344 104.59375 41.558594 105.257812 Z M 41.558594 105.257812 "/>
<path style="fill-rule:nonzero;fill:rgb(40%,40%,40%);fill-opacity:1;stroke-width:2.62916;stroke-linecap:butt;stroke-linejoin:miter;stroke:rgb(0%,0%,0%);stroke-opacity:1;stroke-miterlimit:4;" d="M 921.496562 243.997138 C 922.493396 235.994365 929.99897 225.495313 935.496216 217.507224 C 940.993462 209.504451 959.493529 196.494438 971.499515 187.493153 C 983.505501 178.506553 985.499169 174.997079 999.000407 161.502495 C 1012.501644 147.993226 1014.363378 154.233921 1017.647066 145.996204 C 1011.138327 149.006421 998.003573 158.506961 990.996416 163.000261 C 984.003918 167.493562 979.503506 170.503779 970.502681 177.493357 C 961.501856 184.49762 952.002615 188.506348 944.497041 196.494438 C 937.006126 204.497211 931.494221 205.994978 926.993808 209.005195 C 922.493396 212.000729 905.004823 227.50702 897.499249 233.498087 C 889.993675 239.503838 887.003173 240.003093 883.001178 234.995853 C 878.999182 230.003298 886.504756 224.496802 892.002002 216.494029 C 897.499249 208.50594 905.004823 202.000933 914.504064 192.001137 C 924.003306 182.001342 923.504889 183.499108 935.496216 172.001546 C 947.502202 160.503984 948.499036 163.499517 964.507018 148.507166 C 969.095386 143.264982 978.55065 136.363508 977.817684 134.366485 C 971.235647 137.494175 963.993941 143.00067 949.49587 151.502699 C 934.997799 160.004728 926.993808 165.995795 921.496562 168.506757 C 915.999315 171.003035 883.001178 192.500393 864.501111 212.499984 C 846.001044 232.499575 844.505793 215.994773 849.504623 204.497211 C 854.503452 192.999648 859.502282 193.498904 865.996362 183.998364 C 872.505102 174.497824 895.007164 155.995999 916.497732 137.99343 C 938.00296 120.005545 938.00296 119.50629 926.993808 124.998101 C 915.999315 130.504597 911.498903 133.000875 902.498078 139.006625 C 893.497253 144.997692 882.004344 151.003443 870.496774 162.00175 C 859.003865 173.000057 883.001178 151.502699 833.496641 192.500393 C 784.006764 233.498087 822.003731 195.495926 823.498982 186.993897 C 824.994233 178.506553 829.494646 170.503779 837.00022 160.503984 C 844.505793 150.504188 858.007031 143.999181 889.495258 118.493095 C 920.998145 93.001692 901.002827 104.499254 892.002002 107.994043 C 883.001178 111.503516 878.999182 116.995328 868.503106 123.001079 C 858.007031 129.00683 846.997878 139.006625 837.997054 145.496948 C 828.996229 152.001955 825.50731 159.505472 795.998091 179.005808 C 766.503532 198.506144 767.500366 189.005604 771.502361 179.505064 C 775.504356 170.004524 781.998437 165.995795 793.506006 151.502699 C 804.998916 136.994919 817.503319 129.506085 839.506964 112.502028 C 861.49595 95.49797 859.003865 88.493708 842.497466 103.500743 C 826.005727 118.493095 830.506139 111.004261 819.995404 118.493095 C 809.499328 125.996612 809.000911 128.49289 759.994792 161.003239 C 711.003332 193.498904 730.500232 168.506757 732.4939 154.997488 C 733.57869 147.699546 745.115578 135.100685 759.994792 122.912975 C 771.619635 113.383067 785.531334 100.079374 798.006418 92.722696 C 799.105868 92.076601 805.834497 88.802071 806.904628 88.185344 C 813.633257 82.913792 819.321075 80.138519 821.637248 73.266412 C 807.139177 83.266208 799.003252 86.496685 789.504011 93.500947 C 780.004769 100.50521 771.003944 105.497765 766.005114 106.995532 C 761.006285 108.493299 754.497545 115.497561 710.006498 152.001955 C 665.500791 188.506348 691.506431 152.50121 693.500099 140.504392 C 695.493767 128.49289 729.503398 101.004465 752.503877 77.495401 C 775.504356 54.00102 749.997133 73.002101 739.501057 80.505618 C 729.004981 87.994452 725.002986 88.992963 712.498583 99.506698 C 699.99418 110.00575 678.005194 127.993635 670.49962 133.000875 C 662.994046 137.99343 646.00389 154.498233 634.994738 169.505268 C 624.000245 184.49762 619.499833 177.493357 619.001416 177.493357 C 618.502999 177.493357 619.499833 166.994306 620.995084 161.502495 C 622.504994 155.995999 638.996733 131.003852 647.000724 123.001079 C 655.004715 114.998306 670.001203 91.00467 667.494459 94.499459 C 665.002374 97.994248 655.503132 105.997021 648.994392 113.001283 C 642.500312 120.005545 606.497012 152.50121 600.501349 158.506961 C 594.505686 164.498028 588.495363 175.995591 581.004448 179.505064 C 573.498875 182.999853 574.495709 176.494846 573.000458 173.000057 C 571.505207 169.505268 585.006444 137.494175 589.506856 129.506085 C 594.007269 121.503312 606.497012 103.001488 601.9966 107.494788 C 597.496188 112.002772 592.995775 118.493095 588.495363 122.501823 C 583.99495 126.495868 582.499699 125.996612 572.003624 145.496948 C 561.492888 164.997284 550.498396 176.994102 545.001149 177.493357 C 539.503903 178.007297 535.501907 175.496335 536.000324 173.499313 C 536.498741 171.50229 540.00232 162.501006 542.494405 157.493766 C 545.001149 152.50121 555.497225 137.494175 554.500391 135.497152 C 553.503557 133.50013 539.503903 151.502699 532.496746 162.00175 C 525.504249 172.500802 483.666539 190.664894 497.666193 188.33014 C 511.665847 185.995386 536.997158 180.665099 565.670796 186.67085 C 594.329774 192.676601 647.000724 193.322696 657.672712 193.675112 C 668.33004 193.99816 724.328657 214.673214 762.003119 219.328038 C 799.662922 223.997547 883.675506 262.67517 929.99897 265.332972 C 932.344461 265.465128 920.499728 251.999911 921.496562 243.997138 Z M 921.496562 243.997138 " transform="matrix(0.266469,0,0,0.266021,-12.401494,-12.32244)"/>
<path style="fill:none;stroke-width:2.62916;stroke-linecap:round;stroke-linejoin:round;stroke:rgb(0%,0%,0%);stroke-opacity:1;stroke-miterlimit:4;" d="M 797.244133 318.914843 C 792.259963 318.929527 787.143859 319.399415 781.998437 320.500714 C 758.499541 325.49327 687.504436 352.497123 670.001203 365.007881 C 652.49797 377.503955 634.496321 401.996846 627.005406 414.507604 C 619.499833 427.003677 596.000937 453.493591 585.504861 465.505093 C 574.994126 477.501911 550.996813 506.502787 544.004315 515.504071 C 536.997158 524.505356 537.495575 537.500685 537.495575 543.506436 C 537.495575 549.497503 536.997158 555.003998 543.007481 571.494117 C 549.003145 587.998919 553.503557 604.004466 560.994471 605.002977 C 568.500045 606.001488 582.001282 606.999999 601.9966 605.002977 C 622.006577 603.005954 670.998037 597.998715 682.505606 596.500948 C 693.998516 595.003181 707.499753 597.998715 717.995829 590.994452 C 728.506564 584.004874 752.503877 571.494117 767.001949 557.001021 C 781.50002 542.493241 812.50449 515.504071 819.995404 501.495547 C 827.500978 487.501707 849.504623 447.003269 852.495125 432.495489 C 855.500286 418.002393 860.997533 383.495022 860.997533 378.502466 C 860.997533 373.495226 853.506618 333.496043 841.002215 328.503487 C 831.239105 324.597547 815.055212 318.856107 797.244133 318.914843 Z M 797.244133 318.914843 " transform="matrix(0.266469,0,0,0.266021,-12.401494,-12.32244)"/>
<path style="fill:none;stroke-width:2.62916;stroke-linecap:butt;stroke-linejoin:miter;stroke:rgb(0%,0%,0%);stroke-opacity:1;stroke-miterlimit:4;" d="M 480.001708 361.997663 C 480.001708 361.997663 491.494617 363.49543 498.003357 365.507137 C 504.497438 367.504159 519.493926 376.505443 527.497917 387.004495 C 535.501907 397.503546 550.498396 406.005575 558.003969 409.500364 C 565.494884 412.995153 565.494884 427.003677 564.996467 435.505706 C 564.49805 443.993051 554.001974 468.001371 549.501562 474.007122 C 545.001149 479.998189 526.501083 530.496423 516.503424 544.005692 C 506.505765 557.500276 470.004049 626.001079 461.003224 637.997897 C 452.002399 649.994715 425.996759 646.000671 409.006603 665.001751 C 392.001787 684.002831 370.994976 674.003035 345.003995 678.496335 C 324.392986 682.064544 303.503449 676.000057 303.503449 676.000057 M 67.385721 518.205925 C 59.440368 508.514493 58.824676 496.370835 79.99274 478.67663 C 111.334374 449.675754 172.668985 396.005779 198.000296 375.330724 C 223.331608 354.670354 291.336211 307.329177 318.675849 292.674557 C 347.994497 270.00248 351.996492 263.996729 382.663798 246.331892 C 418.667097 220.664281 483.666539 190.664894 497.666193 188.33014 C 511.665847 185.995386 536.997158 180.665099 565.670796 186.67085 C 594.329774 192.676601 647.000724 193.322696 657.672712 193.675112 C 668.33004 193.99816 724.328657 214.673214 762.003119 219.328038 C 799.662922 223.997547 883.675506 262.67517 929.99897 265.332972 C 976.337092 268.005458 1045.32387 315.33195 1073.675002 324.670967 C 1101.996815 333.995299 1175.674577 389.324565 1191.330735 398.002801 C 1207.001552 406.666354 1260.332172 427.664457 1280.664654 430.997722 C 1300.997136 434.330987 1321.007113 438.001984 1335.006767 438.001984 C 1349.006421 438.001984 1360.997748 440.67447 1384.995061 432.333965 C 1409.007033 423.99346 1402.996711 426.665945 1421.335525 422.994949 C 1439.674339 419.323952 1440.671173 427.664457 1442.664841 434.330987 C 1444.673168 440.997518 1452.677159 456.327601 1450.331667 466.004349 C 1448.000835 475.666413 1444.995673 487.325499 1444.336004 495.666004 C 1443.676334 504.006509 1439.996844 508.323601 1440.993678 519.336592 C 1442.005171 530.334899 1448.32334 555.003998 1443.32451 562.66904 C 1438.325681 570.334082 1431.992853 581.993168 1427.331188 585.664165 C 1422.669523 589.335162 1405.664707 599.995737 1399.33188 602.330491 C 1392.999052 604.665245 1389.334221 607.99851 1386.006554 607.99851 C 1382.664228 607.99851 1368.32741 606.324536 1356.673247 606.999999 C 1345.004426 607.675462 1309.323632 613.00575 1293.330309 619.334549 C 1277.336987 625.663347 1268.995832 628.996613 1253.325015 634.003853 C 1237.668857 638.996408 1236.994528 642.329674 1213.994049 650.670179 C 1190.99357 658.996 1157.995432 653.665712 1137.003281 660.993022 C 1115.99647 668.335016 1074.994341 677.674032 1059.323524 684.66361 C 1043.667366 691.667872 998.326078 698.995182 988.665583 702.328448 C 979.005089 705.676397 900.005993 722.328039 889.67117 725.000525 C 879.336347 727.67301 883.675506 725.999036 851.674203 727.67301 C 819.672899 729.332301 813.677235 727.996058 802.330919 730.668544 C 790.999262 733.326346 771.003944 731.006276 761.32879 730.668544 C 751.668296 730.330812 665.999208 726.997547 641.005061 721.667259 C 615.996254 716.336972 615.336585 714.662997 587.674441 715.323777 C 559.997637 715.99924 480.324213 716.997751 468.332886 715.323777 C 456.3269 713.664486 392.998621 706.674908 362.66848 699.670646 C 332.32368 692.666384 340.327671 690.669361 337.000004 689.333118 C 333.672338 687.996875 318.675849 679.333323 300.6742 675.001546 C 282.67255 670.66977 237.331262 659.333731 198.000296 635.325411 C 158.66933 611.331775 132.326526 598.674178 115.673534 588.336651 C 99.005883 577.999123 45.000934 537.999941 48.006095 529.67412 C 50.996597 521.333615 58.575468 511.921178 63.251792 512.244226 M 144.332512 446.327805 C 141.004845 448.677243 139.670847 451.672777 139.670847 451.672777 M 122.006362 463.331863 C 124.337194 468.001371 125.334028 470.336125 125.334028 469.998393 " transform="matrix(0.266469,0,0,0.266021,-12.401494,-12.32244)"/>
</g>
</svg>
