<?xml version="1.0" encoding="UTF-8"?>
<!-- Created by grConvert v0.1-0 -->
<svg xmlns="http://www.w3.org/2000/svg" xmlns:xlink="http://www.w3.org/1999/xlink" width="289pt" height="252pt" viewBox="0 0 289 252" version="1.1">
<g id="surface13">
<path style="fill-rule:nonzero;fill:rgb(100%,100%,100%);fill-opacity:1;stroke-width:2.62916;stroke-linecap:round;stroke-linejoin:round;stroke:rgb(0%,0%,0%);stroke-opacity:1;stroke-miterlimit:4;" d="M 1288.431489 480.008976 C 1288.431489 738.799559 1078.993744 948.574994 820.652498 948.574994 C 562.296592 948.574994 352.858847 738.799559 352.858847 480.008976 C 352.858847 221.233077 562.296592 11.442957 820.652498 11.442957 C 1078.993744 11.442957 1288.431489 221.233077 1288.431489 480.008976 Z M 1288.431489 480.008976 " transform="matrix(0.266469,0,0,0.266021,-54.861759,-1.692505)"/>
<path style=" stroke:none;fill-rule:nonzero;fill:rgb(100%,82.745098%,13.333333%);fill-opacity:1;" d="M 87.765625 47.242188 C 83.59375 47.320312 80.085938 48.019531 77.753906 48.40625 C 75.507812 48.78125 68.335938 51.835938 60.898438 55.683594 C 46.742188 76.402344 39.167969 100.910156 39.164062 126 C 39.214844 147.261719 44.703125 168.152344 55.105469 186.691406 C 61.71875 187.617188 68.09375 188.347656 69.933594 188.601562 C 73.132812 189.042969 94.359375 188.777344 101.734375 188.601562 C 109.105469 188.425781 109.28125 188.867188 115.945312 190.285156 C 122.605469 191.703125 145.433594 192.589844 148.007812 192.679688 C 150.585938 192.769531 155.914062 193.386719 158.933594 192.679688 C 161.957031 191.96875 163.554688 192.324219 172.082031 191.882812 C 180.609375 191.441406 179.453125 191.882812 182.207031 191.171875 C 184.960938 190.460938 206.011719 186.03125 208.589844 185.140625 C 211.164062 184.253906 223.242188 182.304688 227.417969 180.445312 C 231.59375 178.582031 242.519531 176.097656 248.113281 174.148438 C 253.710938 172.199219 262.503906 173.617188 268.632812 171.398438 C 274.761719 169.179688 274.9375 168.292969 279.113281 166.964844 C 280.070312 166.660156 280.902344 166.382812 281.703125 166.109375 C 286.136719 153.199219 288.421875 139.648438 288.464844 126 C 288.417969 121.714844 288.152344 117.433594 287.667969 113.171875 C 287.242188 113.101562 286.824219 113.03125 286.398438 112.960938 C 280.976562 112.074219 266.765625 106.492188 262.589844 104.183594 C 258.417969 101.878906 238.785156 87.160156 231.238281 84.675781 C 223.683594 82.191406 205.300781 69.601562 192.953125 68.890625 C 180.609375 68.183594 158.226562 57.894531 148.1875 56.652344 C 138.148438 55.414062 123.226562 49.914062 120.386719 49.828125 C 117.542969 49.738281 103.507812 49.5625 95.871094 47.964844 C 93.007812 47.367188 90.265625 47.191406 87.765625 47.242188 Z M 87.765625 47.242188 "/>
<path style="fill-rule:nonzero;fill:rgb(92.54902%,92.54902%,92.54902%);fill-opacity:1;stroke-width:0.7;stroke-linecap:round;stroke-linejoin:round;stroke:rgb(0%,0%,0%);stroke-opacity:1;stroke-miterlimit:4;" d="M 197.62039 0.350533 C 196.460234 0.342721 194.58914 1.338815 193.846953 1.690377 C 192.159453 2.487252 189.667266 3.725533 187.893828 4.616158 C 186.116485 5.502877 184.698516 6.034127 182.034454 7.893502 C 179.370392 9.756783 175.104767 13.569283 173.23758 14.190377 C 171.374299 14.811471 171.995392 14.811471 171.55008 13.748971 C 171.108674 12.682565 171.108674 11.975533 171.55008 8.163033 C 171.995392 4.350533 170.307893 7.096627 167.464143 8.694283 C 164.620393 10.288033 164.354768 11.174752 161.690706 13.659127 C 159.026644 16.143502 157.604769 16.495065 155.741488 17.026315 C 153.8743 17.557565 153.163363 16.495065 152.632113 14.014596 C 152.483676 13.331002 153.4368 10.608346 152.456332 10.998971 C 149.866488 12.026315 143.647739 18.584908 141.971958 20.577096 C 139.663364 23.32319 136.55399 24.120065 136.374302 23.678658 C 136.198521 23.237252 135.667271 22.971627 135.311802 22.971627 C 134.956333 22.971627 131.581334 25.807565 130.339146 26.784127 C 129.093053 27.76069 116.483679 38.401315 120.214147 37.776315 C 123.944616 37.159127 130.690709 35.741158 138.331333 37.334908 C 145.968051 38.932565 160.003206 39.108346 162.846956 39.19819 C 165.686799 39.284127 180.608673 44.784127 190.647734 46.022408 C 200.686796 47.264596 223.069606 57.553659 235.413355 58.26069 C 247.76101 58.971627 266.143821 71.561471 273.698508 74.045846 C 281.245382 76.530221 300.878193 91.248971 305.050067 93.553659 C 307.956317 95.159127 315.714129 98.346627 321.991472 100.440377 C 324.741471 101.358346 322.194597 98.959909 323.436784 98.342721 C 324.339128 97.893502 327.186784 98.096627 329.608659 98.276315 C 325.725846 70.381784 312.51491 44.623971 292.120381 25.19819 C 291.409443 24.956002 290.690694 24.733346 289.952412 24.565377 C 286.409444 23.764596 282.827413 23.702096 281.335226 23.858346 C 278.761007 24.123971 278.136007 23.85444 276.628195 23.678658 C 275.116476 23.502877 275.561789 23.237252 273.608664 23.588815 C 271.655539 23.944283 270.854758 24.569283 269.257102 25.186471 C 267.655539 25.807565 266.944602 25.54194 265.257102 25.631783 C 263.569602 25.717721 263.393821 24.475533 262.682884 24.034127 C 261.971946 23.592721 260.550071 23.944283 257.444603 24.034127 C 254.335228 24.123971 255.311791 23.858346 254.511009 22.440377 C 253.714135 21.018502 253.534447 19.780221 253.534447 19.780221 C 253.534447 19.780221 252.202416 19.51069 250.425072 19.600533 C 248.647729 19.686471 248.116479 19.069283 247.050073 18.182565 C 245.983667 17.29194 246.253198 17.206002 245.096948 14.991158 C 243.940698 12.772408 244.741479 13.834908 243.229761 13.659127 C 241.721948 13.483346 241.186792 13.748971 237.811792 13.748971 C 234.436793 13.748971 236.30398 13.127877 235.237574 11.88569 C 234.171168 10.643502 234.346949 10.202096 234.346949 10.202096 C 234.346949 10.202096 232.663355 10.733346 231.331324 10.998971 C 229.999293 11.264596 228.932887 12.065377 226.620387 11.706002 C 224.311794 11.35444 225.288356 10.112252 225.288356 10.112252 L 224.577419 7.893502 C 224.577419 7.893502 221.737575 8.959908 220.225857 9.491158 C 218.714138 10.022408 217.206326 10.288033 216.315701 10.022408 C 215.428982 9.756783 215.163357 8.338815 214.186795 5.233346 C 213.210232 2.131783 212.143826 2.928658 210.632107 3.284127 C 209.120389 3.639596 208.589139 3.991158 207.167264 4.702096 C 205.749295 5.413033 200.772733 7.186471 199.975858 7.096627 C 199.175077 7.01069 197.928984 7.01069 198.108671 4.702096 C 198.190702 3.647408 199.050077 1.112252 198.288359 0.534127 C 198.116484 0.405221 197.886015 0.350533 197.62039 0.350533 Z M 311.093035 160.768503 C 304.96413 162.987253 296.167255 161.569284 290.573506 163.518503 C 284.97585 165.467721 274.053976 167.952097 269.878196 169.815378 C 265.702415 171.674753 253.624291 173.623972 251.050072 174.51069 C 248.471948 175.401315 227.421168 179.831003 224.667262 180.54194 C 221.913356 181.252878 222.444606 182.584909 222.444606 182.584909 C 222.444606 182.584909 225.999293 187.725534 231.682887 190.91694 C 237.36648 194.108347 250.870385 202.268503 258.151634 203.866159 C 265.046165 205.373972 280.831319 207.838815 286.272725 210.803659 C 301.886005 197.725534 314.061785 181.022409 321.725847 162.151315 C 318.32741 162.139596 314.909441 162.186471 314.909441 162.186471 C 311.803973 162.717721 312.069598 161.834909 311.093035 160.768503 Z M 147.38602 177.889597 C 146.983676 177.893503 146.034457 177.928659 144.194614 177.971628 C 141.460239 178.038034 136.819615 178.112253 131.905552 178.163034 C 136.819615 184.709909 133.358677 180.190378 135.932896 190.565378 C 135.932896 190.565378 139.397739 202.623972 140.108677 205.815378 C 140.819614 209.006784 146.327426 221.51069 147.393832 223.104441 C 147.921176 223.897409 149.10477 225.213816 150.296176 226.588816 C 158.698519 230.811472 167.553987 234.073191 176.694611 236.303659 C 176.772736 236.123972 176.878204 235.873972 176.878204 235.873972 L 178.034454 232.502878 C 178.034454 232.502878 179.456329 231.084909 180.167267 227.807566 C 180.878204 224.522409 181.143829 221.245065 182.210235 219.381784 C 183.276641 217.522409 184.432891 212.377878 184.432891 212.377878 C 184.432891 212.377878 185.499297 206.877878 184.518829 204.663034 C 183.542266 202.444284 180.608673 197.920847 180.522735 197.920847 C 180.432892 197.920847 177.503204 194.553659 172.08133 191.803659 C 166.663362 189.053659 162.3118 184.88569 160.182894 184.534128 C 158.050081 184.178659 153.8743 182.225534 153.8743 182.139597 C 153.8743 182.049753 151.210238 180.987253 148.456332 180.807565 C 147.214145 180.807565 145.702426 179.299753 145.702426 179.299753 C 144.889926 178.147409 148.593051 177.877878 147.38602 177.889597 Z M 147.38602 177.889597 " transform="matrix(1,0,0,1,-42.460253,10.629935)"/>
<path style="fill:none;stroke-width:0.7;stroke-linecap:butt;stroke-linejoin:miter;stroke:rgb(0%,0%,0%);stroke-opacity:1;stroke-miterlimit:4;" d="M 130.225865 36.612252 C 126.053991 36.690377 122.546178 37.389596 120.214147 37.776315 C 117.968054 38.151315 110.79618 41.206002 103.35868 45.053658 C 89.202432 65.772409 81.628214 90.280221 81.624307 115.370065 C 81.675089 136.631784 87.163369 157.522409 97.565712 176.061472 C 104.178993 176.987253 110.553992 177.717722 112.393836 177.971628 C 115.593054 178.413034 136.819615 178.147409 144.194614 177.971628 C 151.565707 177.795847 151.741488 178.237253 158.40555 179.655222 C 165.065706 181.07319 187.893828 181.959909 190.468047 182.049753 C 193.046172 182.139597 198.374296 182.756784 201.393827 182.049753 C 204.417264 181.338815 206.01492 181.694284 214.542263 181.252878 C 223.069606 180.811472 221.913356 181.252878 224.667262 180.54194 C 227.421168 179.831003 248.471948 175.401315 251.050072 174.51069 C 253.624291 173.623972 265.702415 171.674753 269.878196 169.815378 C 274.053976 167.952097 284.979757 165.467721 290.573506 163.518503 C 296.171162 161.569284 304.96413 162.987253 311.093035 160.768503 C 317.221941 158.549753 317.397722 157.663034 321.573503 156.334909 C 322.530534 156.030221 323.362565 155.752878 324.163347 155.47944 C 328.59694 142.569284 330.882096 129.018503 330.925065 115.370065 C 330.87819 111.084909 330.612565 106.803659 330.12819 102.54194 C 329.702409 102.471627 329.28444 102.401315 328.858659 102.331002 C 323.436784 101.444284 309.225848 95.862252 305.050067 93.553659 C 300.878193 91.248971 281.245382 76.530221 273.698508 74.045846 C 266.143821 71.561471 247.76101 58.971627 235.413355 58.26069 C 223.069606 57.553659 200.686796 47.264596 190.647734 46.022408 C 180.608673 44.784127 165.686799 39.284127 162.846956 39.19819 C 160.003206 39.108346 145.968051 38.932565 138.331333 37.334908 C 135.468052 36.737252 132.725865 36.561471 130.225865 36.612252 Z M 130.225865 36.612252 " transform="matrix(1,0,0,1,-42.460253,10.629935)"/>
<path style="fill-rule:nonzero;fill:rgb(40%,40%,40%);fill-opacity:1;stroke-width:2.62916;stroke-linecap:butt;stroke-linejoin:miter;stroke:rgb(0%,0%,0%);stroke-opacity:1;stroke-miterlimit:4;" d="M 921.493979 243.993256 C 922.505473 236.005167 929.996386 225.506117 935.493633 217.503344 C 941.005538 209.500571 959.505603 196.505243 971.496929 187.503959 C 983.502915 178.502675 985.496583 174.993202 998.997819 161.498618 C 1012.499055 148.004034 1014.360789 154.230045 1017.644478 146.007012 C 1011.135738 149.002546 998.000985 158.503085 990.993829 162.996385 C 984.001332 167.504369 979.50092 170.499902 970.500095 177.504164 C 961.499271 184.493742 952.00003 188.50247 944.494457 196.505243 C 937.003543 204.493332 931.506297 206.005782 927.005885 209.001316 C 922.505473 211.996849 905.002241 227.503139 897.496668 233.494206 C 890.005754 239.499956 887.000593 239.999212 882.998598 235.006656 C 878.996602 229.999417 886.502176 224.492922 891.999422 216.504833 C 897.496668 208.50206 905.002241 201.997054 914.501482 191.997259 C 924.000723 181.997464 923.502306 183.495231 935.493633 171.997669 C 947.499618 160.500107 948.496452 163.495641 964.504432 148.50329 C 969.0928 143.275791 978.548064 136.359633 977.815098 134.362611 C 971.233062 137.504984 964.006015 142.996795 949.493286 151.498823 C 934.995216 160.000852 927.005885 166.006602 921.493979 168.50288 C 915.996733 170.999158 882.998598 192.496514 864.498532 212.496104 C 845.998467 232.495694 844.503216 216.005577 849.502045 204.493332 C 854.500874 192.99577 859.499703 193.495026 865.993783 183.994486 C 872.502522 174.493947 895.004583 156.006807 916.49515 138.004239 C 938.000377 120.001672 938.000377 119.502416 927.005885 124.994227 C 915.996733 130.500722 911.496321 132.997 902.495497 139.002751 C 893.494673 144.993817 882.001764 150.999568 870.494195 161.997874 C 859.001286 172.99618 882.998598 151.498823 833.494064 192.496514 C 784.004191 233.494206 822.001155 195.506732 823.496406 187.004703 C 825.006317 178.502675 829.506729 170.499902 836.997643 160.500107 C 844.503216 150.500312 858.004452 143.995306 889.492678 118.503905 C 920.995562 92.99782 901.000246 104.495382 891.999422 108.004854 C 882.998598 111.499643 878.996602 117.006138 868.500527 122.997205 C 858.004452 129.002956 846.995301 139.002751 837.994477 145.493073 C 828.993652 151.998079 825.504733 159.501596 795.995517 179.001931 C 766.500959 198.502265 767.497793 189.001726 771.499788 179.501186 C 775.501783 170.000647 781.995863 166.006602 793.503432 151.498823 C 804.996341 137.005728 817.500743 129.502211 839.504387 112.498154 C 861.493371 95.494098 859.001286 88.50452 842.494889 103.496871 C 826.00315 118.503905 830.503563 111.000388 819.992828 118.503905 C 809.496753 125.992738 808.998336 128.5037 760.006879 160.999363 C 711.000763 193.495026 730.497662 168.50288 732.50599 154.993612 C 733.57612 147.695671 745.113007 135.09681 760.006879 122.909101 C 771.617063 113.393878 785.52876 100.075502 798.003844 92.733508 C 799.103293 92.072729 805.831922 88.7982 806.916712 88.181472 C 813.645341 82.909921 819.318499 80.134648 821.634672 73.277226 C 807.136602 83.277021 799.000678 86.492814 789.501437 93.497076 C 780.002195 100.501337 771.001371 105.493893 766.002542 107.006343 C 761.003713 108.50411 754.494974 115.493688 710.003929 151.998079 C 665.498225 188.50247 691.503864 152.497334 693.497532 140.500517 C 695.505859 128.5037 729.500828 101.000593 752.501306 77.506214 C 775.501783 53.997151 749.994562 72.99823 739.498487 80.501747 C 729.002411 88.005264 725.000416 89.003776 712.496014 99.502826 C 700.006271 110.001877 678.002627 128.004444 670.497054 132.997 C 663.00614 138.004239 646.001326 154.494357 635.006834 169.501391 C 623.997682 184.493742 619.49727 177.504164 618.998853 177.504164 C 618.500436 177.504164 619.49727 167.005113 621.00718 161.498618 C 622.502431 156.006807 638.994169 130.999978 646.99816 122.997205 C 655.00215 114.994432 669.998637 91.000798 667.506552 94.495587 C 664.999808 98.005059 655.500567 105.993148 649.006487 112.99741 C 642.497747 120.001672 606.494451 152.497334 600.498788 158.503085 C 594.503125 164.494152 588.492802 176.006397 581.001888 179.501186 C 573.496315 182.995975 574.493149 176.505653 572.997898 172.99618 C 571.502647 169.501391 585.003883 137.504984 589.504296 129.502211 C 594.004708 121.499438 606.494451 102.997615 601.994039 107.505599 C 597.493626 111.998899 592.993214 118.503905 588.492802 122.497949 C 584.007049 126.506678 582.497139 125.992738 572.001064 145.493073 C 561.504989 164.993407 550.495838 177.004908 544.998591 177.504164 C 539.501345 178.003419 535.49935 175.507142 535.997767 173.495436 C 536.496184 171.498413 539.999762 162.497129 542.506507 157.504574 C 544.998591 152.497334 555.494667 137.504984 554.497833 135.493278 C 553.500999 133.496256 539.501345 151.498823 532.494189 161.997874 C 525.501692 172.496924 483.663985 190.6757 497.663638 188.326262 C 511.663291 186.006192 536.994601 180.675905 565.668237 186.666972 C 594.327213 192.672722 646.99816 193.333502 657.670147 193.671233 C 668.327474 193.994281 724.326087 214.669334 762.000547 219.324158 C 799.675007 223.993666 883.672926 262.671287 929.996386 265.329089 C 932.356537 265.475929 920.497145 251.996029 921.493979 243.993256 Z M 921.493979 243.993256 " transform="matrix(0.266469,0,0,0.266021,-54.861759,-1.692505)"/>
<path style="fill-rule:nonzero;fill:rgb(100%,87.45098%,37.647059%);fill-opacity:1;stroke-width:3.286445;stroke-linecap:round;stroke-linejoin:round;stroke:rgb(0%,0%,0%);stroke-opacity:1;stroke-miterlimit:4;" d="M 996.551162 398.638088 C 990.320959 398.674798 983.925839 399.262156 977.494071 400.620423 C 948.120498 406.879463 859.376758 440.615871 837.497752 456.254293 C 815.618746 471.87436 793.116719 502.508781 783.753091 518.128848 C 774.371139 533.748915 744.997566 566.87961 731.877492 581.875609 C 718.757418 596.871607 688.7425 633.122644 680.001892 644.374232 C 671.24296 655.62582 671.865981 671.869955 671.865981 679.377132 C 671.865981 686.865954 671.24296 693.749062 678.755852 714.380032 C 686.250419 734.992647 691.875926 754.999549 701.257878 756.247686 C 710.621506 757.495823 727.498026 758.74396 752.492133 756.247686 C 777.504564 753.751412 838.743792 747.492372 853.128231 745.620166 C 867.494345 743.747961 884.370865 747.492372 897.490939 738.755413 C 910.629337 730.000099 940.62593 714.380032 958.748491 696.245336 C 976.871051 678.128995 1015.626576 644.374232 1025.008529 626.881959 C 1034.372157 609.371332 1061.876669 558.748365 1065.633115 540.632024 C 1069.371237 522.497328 1076.242784 479.381537 1076.242784 473.122497 C 1076.242784 466.881812 1066.879156 416.882914 1051.248676 410.623874 C 1039.044809 405.741456 1018.833298 398.564668 996.551162 398.638088 Z M 996.551162 398.638088 " transform="matrix(0.213175,0,0,0.212817,-54.861915,-1.692505)"/>
</g>
</svg>
