<?xml version="1.0" encoding="UTF-8"?>
<!-- Created by grConvert v0.1-0 -->
<svg xmlns="http://www.w3.org/2000/svg" xmlns:xlink="http://www.w3.org/1999/xlink" width="289pt" height="252pt" viewBox="0 0 289 252" version="1.1">
<g id="surface1">
<path style="fill-rule:nonzero;fill:rgb(100%,100%,100%);fill-opacity:1;stroke-width:2.629159;stroke-linecap:round;stroke-linejoin:round;stroke:rgb(0%,0%,0%);stroke-opacity:1;stroke-miterlimit:4;" d="M -15.240811 4561.871976 C -15.240811 4820.662559 -224.678556 5030.437994 -483.019802 5030.437994 C -741.375708 5030.437994 -950.813453 4820.662559 -950.813453 4561.871976 C -950.813453 4303.096077 -741.375708 4093.305957 -483.019802 4093.305957 C -224.678556 4093.305957 -15.240811 4303.096077 -15.240811 4561.871976 Z M -15.240811 4561.871976 " transform="matrix(0.266469,0,0,0.266021,292.526042,-1087.554103)"/>
<path style=" stroke:none;fill-rule:nonzero;fill:rgb(0%,0%,0%);fill-opacity:1;" d="M 88.585938 81.859375 L 115.757812 81.859375 C 123.105469 81.859375 128.746094 82.4375 132.675781 83.589844 C 136.648438 84.746094 139.621094 86.410156 141.585938 88.589844 C 143.59375 90.769531 144.9375 93.417969 145.621094 96.535156 C 146.347656 99.613281 146.710938 104.398438 146.710938 110.890625 L 146.710938 119.929688 C 146.710938 126.550781 146.027344 131.378906 144.660156 134.410156 C 143.292969 137.445312 140.773438 139.773438 137.097656 141.398438 C 133.46875 143.019531 128.703125 143.832031 122.808594 143.832031 L 115.566406 143.832031 L 115.566406 185.617188 L 88.585938 185.617188 Z M 115.566406 99.613281 L 115.566406 126.015625 C 116.335938 126.058594 116.996094 126.082031 117.550781 126.082031 C 120.03125 126.082031 121.738281 125.480469 122.679688 124.285156 C 123.660156 123.046875 124.152344 120.503906 124.152344 116.660156 L 124.152344 108.136719 C 124.152344 104.589844 123.597656 102.28125 122.488281 101.214844 C 121.375 100.144531 119.070312 99.613281 115.566406 99.613281 Z M 115.566406 99.613281 "/>
<path style=" stroke:none;fill-rule:nonzero;fill:rgb(0%,0%,0%);fill-opacity:1;" d="M 218.464844 127.105469 L 191.484375 127.105469 L 191.484375 109.03125 C 191.484375 103.777344 191.183594 100.507812 190.585938 99.226562 C 190.03125 97.902344 188.769531 97.242188 186.804688 97.242188 C 184.582031 97.242188 183.171875 98.03125 182.574219 99.613281 C 181.976562 101.191406 181.679688 104.609375 181.679688 109.867188 L 181.679688 158.058594 C 181.679688 163.101562 181.976562 166.390625 182.574219 167.929688 C 183.171875 169.46875 184.519531 170.234375 186.613281 170.234375 C 188.621094 170.234375 189.925781 169.46875 190.523438 167.929688 C 191.164062 166.390625 191.484375 162.78125 191.484375 157.097656 L 191.484375 144.089844 L 218.464844 144.089844 L 218.464844 148.125 C 218.464844 158.851562 217.695312 166.453125 216.15625 170.941406 C 214.660156 175.425781 211.308594 179.359375 206.09375 182.734375 C 200.925781 186.109375 194.539062 187.796875 186.933594 187.796875 C 179.027344 187.796875 172.511719 186.363281 167.386719 183.503906 C 162.257812 180.640625 158.863281 176.6875 157.195312 171.644531 C 155.53125 166.5625 154.699219 158.933594 154.699219 148.765625 L 154.699219 118.453125 C 154.699219 110.976562 154.953125 105.378906 155.464844 101.664062 C 155.980469 97.902344 157.496094 94.292969 160.015625 90.832031 C 162.582031 87.371094 166.105469 84.660156 170.589844 82.695312 C 175.121094 80.683594 180.3125 79.679688 186.164062 79.679688 C 194.109375 79.679688 200.667969 81.21875 205.839844 84.296875 C 211.007812 87.371094 214.40625 91.21875 216.027344 95.832031 C 217.652344 100.402344 218.464844 107.539062 218.464844 117.234375 Z M 218.464844 127.105469 "/>
<path style=" stroke:none;fill-rule:nonzero;fill:rgb(0%,0%,0%);fill-opacity:1;" d="M 268.425781 81.859375 L 268.425781 185.617188 L 242.535156 185.617188 L 242.535156 129.988281 C 242.535156 121.957031 242.34375 117.128906 241.957031 115.507812 C 241.574219 113.882812 240.503906 112.664062 238.753906 111.851562 C 237.046875 111 233.199219 110.570312 227.21875 110.570312 L 224.65625 110.570312 L 224.65625 98.457031 C 237.171875 95.765625 246.679688 90.234375 253.171875 81.859375 Z M 268.425781 81.859375 "/>
<path style="fill:none;stroke-width:1;stroke-linecap:butt;stroke-linejoin:miter;stroke:rgb(100%,0%,0%);stroke-opacity:1;stroke-miterlimit:4;" d="M 260.851559 204.066407 L 66.683588 204.066407 " transform="matrix(1,0,0,1,0.0000061655,0.000000541133)"/>
<path style="fill:none;stroke-width:1;stroke-linecap:butt;stroke-linejoin:miter;stroke:rgb(0%,0%,0%);stroke-opacity:1;stroke-miterlimit:4;" d="M 75.816401 37.824218 L 75.816401 214.167969 " transform="matrix(1,0,0,1,0.0000061655,0.000000541133)"/>
</g>
</svg>
