<?xml version="1.0" encoding="UTF-8"?>
<!-- Created by grConvert v0.1-0 -->
<svg xmlns="http://www.w3.org/2000/svg" xmlns:xlink="http://www.w3.org/1999/xlink" width="289pt" height="252pt" viewBox="0 0 289 252" version="1.1">
<g id="surface9">
<path style="fill-rule:nonzero;fill:rgb(100%,100%,100%);fill-opacity:1;stroke-width:2.629159;stroke-linecap:round;stroke-linejoin:round;stroke:rgb(0%,0%,0%);stroke-opacity:1;stroke-miterlimit:4;" d="M -15.240811 4561.871976 C -15.240811 4820.662559 -224.678556 5030.437994 -483.019802 5030.437994 C -741.375708 5030.437994 -950.813453 4820.662559 -950.813453 4561.871976 C -950.813453 4303.096077 -741.375708 4093.305957 -483.019802 4093.305957 C -224.678556 4093.305957 -15.240811 4303.096077 -15.240811 4561.871976 Z M -15.240811 4561.871976 " transform="matrix(0.266469,0,0,0.266021,292.526042,-1087.554103)"/>
<path style=" stroke:none;fill-rule:nonzero;fill:rgb(0%,0%,0%);fill-opacity:1;" d="M 98.875 31.363281 L 126.046875 31.363281 C 133.398438 31.363281 139.035156 31.941406 142.96875 33.09375 C 146.941406 34.246094 149.910156 35.914062 151.875 38.09375 C 153.882812 40.269531 155.230469 42.921875 155.914062 46.039062 C 156.640625 49.117188 157.003906 53.902344 157.003906 60.394531 L 157.003906 69.429688 C 157.003906 76.054688 156.320312 80.882812 154.953125 83.914062 C 153.585938 86.949219 151.0625 89.277344 147.390625 90.898438 C 143.757812 92.523438 138.992188 93.335938 133.097656 93.335938 L 125.855469 93.335938 L 125.855469 135.121094 L 98.875 135.121094 Z M 125.855469 49.117188 L 125.855469 75.519531 C 126.625 75.5625 127.289062 75.582031 127.84375 75.582031 C 130.320312 75.582031 132.03125 74.984375 132.96875 73.789062 C 133.953125 72.550781 134.445312 70.007812 134.445312 66.164062 L 134.445312 57.640625 C 134.445312 54.09375 133.886719 51.785156 132.777344 50.71875 C 131.667969 49.648438 129.359375 49.117188 125.855469 49.117188 Z M 125.855469 49.117188 "/>
<path style=" stroke:none;fill-rule:nonzero;fill:rgb(0%,0%,0%);fill-opacity:1;" d="M 228.753906 76.609375 L 201.773438 76.609375 L 201.773438 58.535156 C 201.773438 53.28125 201.472656 50.011719 200.875 48.730469 C 200.320312 47.40625 199.058594 46.746094 197.09375 46.746094 C 194.875 46.746094 193.464844 47.535156 192.867188 49.117188 C 192.265625 50.695312 191.96875 54.113281 191.96875 59.371094 L 191.96875 107.5625 C 191.96875 112.605469 192.265625 115.894531 192.867188 117.433594 C 193.464844 118.96875 194.808594 119.738281 196.902344 119.738281 C 198.910156 119.738281 200.214844 118.96875 200.8125 117.433594 C 201.453125 115.894531 201.773438 112.285156 201.773438 106.601562 L 201.773438 93.589844 L 228.753906 93.589844 L 228.753906 97.628906 C 228.753906 108.351562 227.984375 115.957031 226.445312 120.445312 C 224.953125 124.929688 221.597656 128.859375 216.386719 132.234375 C 211.214844 135.613281 204.828125 137.300781 197.222656 137.300781 C 189.320312 137.300781 182.804688 135.867188 177.675781 133.003906 C 172.550781 130.144531 169.152344 126.191406 167.488281 121.148438 C 165.820312 116.066406 164.988281 108.4375 164.988281 98.269531 L 164.988281 67.957031 C 164.988281 60.480469 165.242188 54.882812 165.757812 51.167969 C 166.269531 47.40625 167.785156 43.796875 170.308594 40.335938 C 172.871094 36.875 176.394531 34.160156 180.882812 32.195312 C 185.410156 30.1875 190.601562 29.183594 196.453125 29.183594 C 204.402344 29.183594 210.960938 30.722656 216.128906 33.796875 C 221.296875 36.875 224.695312 40.71875 226.320312 45.335938 C 227.941406 49.90625 228.753906 57.039062 228.753906 66.738281 Z M 228.753906 76.609375 "/>
<path style="fill:none;stroke-width:3.755942;stroke-linecap:butt;stroke-linejoin:miter;stroke:rgb(100%,0%,0%);stroke-opacity:1;stroke-miterlimit:4;" d="M -118.691653 4855.331452 L -847.362612 4855.331452 " transform="matrix(0.266469,0,0,0.266021,292.526042,-1087.554103)"/>
<path style=" stroke:none;fill-rule:nonzero;fill:rgb(0%,0%,0%);fill-opacity:1;" d="M 133.03125 146.035156 L 133.03125 152.472656 C 131.34375 152.472656 130.246094 152.542969 129.738281 152.6875 C 129.25 152.828125 128.882812 153.164062 128.636719 153.695312 C 128.414062 154.203125 128.304688 155.667969 128.304688 158.089844 L 128.304688 183.386719 C 128.304688 185.644531 128.394531 187.058594 128.578125 187.628906 C 128.761719 188.179688 129.097656 188.546875 129.585938 188.726562 C 130.09375 188.910156 131.242188 189.003906 133.03125 189.003906 L 133.03125 195.441406 L 129.15625 195.441406 C 125.578125 195.441406 122.941406 195.117188 121.253906 194.464844 C 119.585938 193.792969 118.476562 192.816406 117.925781 191.535156 C 117.398438 190.253906 117.132812 187.527344 117.132812 183.355469 L 117.132812 158.121094 C 117.132812 153.96875 117.398438 151.242188 117.925781 149.941406 C 118.457031 148.636719 119.585938 147.660156 121.3125 147.011719 C 123.042969 146.359375 125.65625 146.035156 129.15625 146.035156 Z M 133.03125 146.035156 "/>
<path style=" stroke:none;fill-rule:nonzero;fill:rgb(0%,0%,0%);fill-opacity:1;" d="M 156.433594 146.035156 L 156.433594 195.441406 L 144.105469 195.441406 L 144.105469 168.953125 C 144.105469 165.128906 144.011719 162.828125 143.828125 162.054688 C 143.644531 161.28125 143.136719 160.703125 142.304688 160.316406 C 141.488281 159.910156 139.660156 159.707031 136.808594 159.707031 L 135.589844 159.707031 L 135.589844 153.9375 C 141.550781 152.65625 146.078125 150.023438 149.167969 146.035156 Z M 156.433594 146.035156 "/>
<path style=" stroke:none;fill-rule:nonzero;fill:rgb(0%,0%,0%);fill-opacity:1;" d="M 190.269531 146.035156 L 190.269531 195.441406 L 177.941406 195.441406 L 177.941406 192.511719 C 176.761719 193.734375 175.519531 194.648438 174.21875 195.257812 C 172.914062 195.871094 171.550781 196.175781 170.128906 196.175781 C 168.214844 196.175781 166.558594 195.675781 165.152344 194.679688 C 163.75 193.660156 162.84375 192.492188 162.4375 191.167969 C 162.050781 189.847656 161.859375 187.691406 161.859375 184.699219 L 161.859375 165.75 C 161.859375 162.636719 162.050781 160.429688 162.4375 159.125 C 162.84375 157.824219 163.761719 156.683594 165.183594 155.707031 C 166.609375 154.710938 168.308594 154.214844 170.28125 154.214844 C 171.808594 154.214844 173.199219 154.488281 174.460938 155.035156 C 175.742188 155.585938 176.902344 156.410156 177.941406 157.507812 L 177.941406 146.035156 Z M 177.941406 165.136719 C 177.941406 163.652344 177.808594 162.65625 177.542969 162.148438 C 177.300781 161.640625 176.800781 161.382812 176.046875 161.382812 C 175.316406 161.382812 174.816406 161.617188 174.554688 162.085938 C 174.308594 162.535156 174.1875 163.550781 174.1875 165.136719 L 174.1875 184.976562 C 174.1875 186.621094 174.308594 187.710938 174.554688 188.238281 C 174.796875 188.75 175.265625 189.003906 175.957031 189.003906 C 176.75 189.003906 177.28125 188.71875 177.542969 188.148438 C 177.808594 187.558594 177.941406 186.132812 177.941406 183.875 Z M 177.941406 165.136719 "/>
<path style=" stroke:none;fill-rule:nonzero;fill:rgb(0%,0%,0%);fill-opacity:1;" d="M 194.597656 146.035156 L 198.472656 146.035156 C 201.972656 146.035156 204.585938 146.359375 206.316406 147.011719 C 208.042969 147.660156 209.171875 148.636719 209.703125 149.941406 C 210.230469 151.242188 210.496094 153.96875 210.496094 158.121094 L 210.496094 183.355469 C 210.496094 187.527344 210.230469 190.253906 209.703125 191.535156 C 209.171875 192.816406 208.066406 193.792969 206.375 194.464844 C 204.6875 195.117188 202.054688 195.441406 198.472656 195.441406 L 194.597656 195.441406 L 194.597656 189.003906 C 196.40625 189.003906 197.554688 188.910156 198.042969 188.726562 C 198.53125 188.546875 198.867188 188.179688 199.050781 187.628906 C 199.253906 187.058594 199.355469 185.644531 199.355469 183.386719 L 199.355469 158.089844 C 199.355469 155.667969 199.234375 154.203125 198.992188 153.695312 C 198.746094 153.164062 198.371094 152.828125 197.863281 152.6875 C 197.375 152.542969 196.285156 152.472656 194.597656 152.472656 Z M 194.597656 146.035156 "/>
</g>
</svg>
