<?xml version="1.0" encoding="UTF-8"?>
<!-- Created by grConvert v0.1-0 -->
<svg xmlns="http://www.w3.org/2000/svg" xmlns:xlink="http://www.w3.org/1999/xlink" width="289pt" height="252pt" viewBox="0 0 289 252" version="1.1">
<g id="surface17">
<path style="fill-rule:nonzero;fill:rgb(100%,100%,100%);fill-opacity:1;stroke-width:2.62916;stroke-linecap:round;stroke-linejoin:round;stroke:rgb(0%,0%,0%);stroke-opacity:1;stroke-miterlimit:4;" d="M -152.323281 1005.273276 C -152.323281 1264.063859 -361.761026 1473.839294 -620.102272 1473.839294 C -878.458178 1473.839294 -1087.895923 1264.063859 -1087.895923 1005.273276 C -1087.895923 746.497377 -878.458178 536.707257 -620.102272 536.707257 C -361.761026 536.707257 -152.323281 746.497377 -152.323281 1005.273276 Z M -152.323281 1005.273276 " transform="matrix(0.266469,0,0,0.266021,329.054223,-141.423881)"/>
<path style="fill-rule:nonzero;fill:rgb(97.647059%,97.647059%,97.647059%);fill-opacity:1;stroke-width:0.7;stroke-linecap:butt;stroke-linejoin:miter;stroke:rgb(0%,0%,0%);stroke-opacity:1;stroke-miterlimit:4;" d="M -294.162733 211.249879 C -299.486951 225.257691 -302.240857 240.11316 -302.291638 255.101441 C -302.256482 278.152223 -295.834608 300.73816 -283.733046 320.355348 C -278.733047 318.171754 -277.244766 316.882691 -271.842423 315.160035 C -264.752579 312.898316 -260.983049 311.39441 -253.740862 308.527223 C -246.502581 305.667848 -230.365864 303.257691 -225.084615 302.95691 C -219.807271 302.652223 -213.318991 303.406129 -211.811178 303.406129 C -210.307272 303.406129 -208.647116 301.902223 -205.779929 300.843629 C -202.912742 299.788941 -195.221336 294.968629 -193.111961 293.316285 C -190.99868 291.656129 -188.135399 286.382691 -185.869775 282.921754 C -183.608056 279.453004 -186.475243 268.304566 -186.924462 263.33191 C -187.377587 258.359254 -185.717431 256.406129 -185.420556 252.640504 C -185.115868 248.870972 -183.7604 243.601441 -182.705712 239.230347 C -181.647119 234.859254 -185.264306 227.933472 -186.170556 224.917847 C -187.076806 221.906129 -187.526024 218.136597 -195.826805 219.796754 C -204.119773 221.45691 -201.404929 220.249879 -212.264303 224.015504 C -223.123677 227.781129 -228.553364 226.578004 -234.889301 226.578004 C -241.225238 226.578004 -250.272112 224.917847 -259.47133 223.413941 C -266.940079 222.191285 -284.119765 215.742066 -294.162733 211.249879 Z M -294.162733 211.249879 " transform="matrix(1,0,0,1,341.45573,-129.10144)"/>
<path style="fill-rule:nonzero;fill:rgb(20%,20%,20%);fill-opacity:1;stroke-width:2.62916;stroke-linecap:butt;stroke-linejoin:miter;stroke:rgb(0%,0%,0%);stroke-opacity:1;stroke-miterlimit:4;" d="M -927.200426 886.156775 C -892.677721 891.81011 -858.71207 898.050804 -834.949307 898.050804 C -811.171886 898.050804 -790.795427 902.573472 -750.04251 888.418109 C -709.289592 874.262746 -719.477822 878.800097 -688.356079 872.559403 C -657.205018 866.318709 -655.519196 880.488756 -652.118233 891.81011 C -648.71727 903.146148 -635.142738 929.180856 -639.115414 945.612237 C -643.073431 962.043619 -648.160216 981.852317 -649.303643 996.022364 C -650.417752 1010.177727 -656.647964 1017.534405 -654.947483 1036.212436 C -653.261661 1054.905151 -689.470188 1061.145845 -708.732538 1076.989867 C -727.96557 1092.863257 -734.767495 1106.445945 -752.886418 1079.265885 C -782.307679 1036.212436 -814.015795 1040.749788 -816.27333 1021.499081 C -818.530866 1002.23369 -860.412551 964.862944 -866.07105 961.470943 C -871.744208 958.064258 -937.388655 921.824179 -927.200426 886.156775 Z M -927.200426 886.156775 " transform="matrix(0.266469,0,0,0.266021,329.054223,-141.423881)"/>
<path style="fill-rule:nonzero;fill:rgb(92.54902%,92.54902%,92.54902%);fill-opacity:1;stroke-width:2.62916;stroke-linecap:round;stroke-linejoin:round;stroke:rgb(0%,0%,0%);stroke-opacity:1;stroke-miterlimit:4;" d="M -175.95411 692.254729 C -182.345575 692.240045 -194.278263 694.35454 -219.111156 700.404342 C -263.265036 711.167704 -336.854837 738.905755 -377.036041 755.337137 C -417.231904 771.768518 -448.92536 779.683187 -487.992455 796.114568 C -520.814679 806.863246 -559.310061 823.852619 -594.38982 834.615981 C -619.853064 848.213353 -719.477822 878.800097 -688.356079 872.559403 C -657.219678 866.333393 -655.519196 880.488756 -652.118233 891.81011 C -648.71727 903.146148 -635.142738 929.180856 -639.115414 945.612237 C -643.073431 962.043619 -648.160216 981.852317 -649.303643 996.022364 C -650.417752 1010.177727 -656.647964 1017.534405 -654.947483 1036.212436 C -653.261661 1054.905151 -642.501718 1096.813249 -651.004125 1109.85263 C -659.491873 1122.862642 -670.237156 1142.686024 -678.16785 1148.926718 C -686.083884 1155.138045 -714.948091 1173.272768 -725.708034 1177.222761 C -736.453318 1181.202121 -742.698189 1186.855456 -748.342028 1186.855456 C -754.000527 1186.855456 -682.682921 1201.010819 -669.093729 1207.23683 C -655.519196 1213.477524 -560.424169 1253.68228 -533.832158 1261.053641 C -507.225487 1268.410319 -384.966734 1313.137743 -371.934596 1314.26841 C -358.931777 1315.413761 -247.418309 1348.247155 -237.801793 1347.689163 C -228.185277 1347.116488 -195.920107 1347.116488 -195.920107 1347.116488 L -197.048875 1240.084908 C -197.048875 1240.084908 -212.910263 1156.841387 -221.955065 1139.852015 C -230.999867 1122.862642 -250.262217 1065.683197 -257.049484 1060.000494 C -263.851409 1054.347159 -271.752784 1035.096453 -271.752784 1035.096453 C -271.752784 1035.096453 -266.665999 1023.202424 -259.864074 1013.011737 C -246.289541 995.435005 -238.930561 962.60161 -231.58624 943.908895 C -214.024371 911.0755 -198.749357 862.368716 -194.79134 844.233993 C -194.79134 844.233993 -169.313437 750.241793 -169.313437 749.683802 C -169.313437 749.096442 -163.654938 699.273675 -167.612955 695.308999 C -169.342755 693.576288 -170.96994 692.269413 -175.95411 692.254729 Z M -977.291332 1268.116639 C -989.399933 1268.116639 -999.382931 1268.204743 -1006.697934 1268.292847 C -973.069447 1318.02751 -930.205587 1360.816648 -880.437186 1394.340189 C -883.427688 1361.492111 -884.952258 1336.162234 -888.719704 1323.915789 C -893.234775 1309.173066 -922.685355 1271.80232 -931.730157 1269.540986 C -936.259887 1268.410319 -957.339994 1268.116639 -977.291332 1268.116639 Z M -869.017574 608.790949 C -955.375644 663.356643 -1021.533168 744.720614 -1057.404531 840.474892 C -1033.861659 851.003311 -999.983964 864.365738 -970.943845 874.071854 C -953.411295 879.91608 -969.653825 864.63005 -961.737791 860.680058 C -953.807097 856.715381 -922.098982 860.665374 -906.823967 861.238049 C -891.534294 861.810725 -847.966786 855.57003 -832.105399 848.786029 C -816.27333 841.987343 -823.060597 797.803226 -822.503542 784.77853 C -822.195697 778.053264 -815.349793 750.667629 -819.10258 724.192401 C -822.591498 699.449883 -836.679108 675.559036 -837.778557 669.259606 C -838.907325 662.82802 -850.634783 637.116359 -866.07105 613.196145 C -867.023906 611.698378 -868.035399 610.259347 -869.017574 608.790949 Z M -869.017574 608.790949 " transform="matrix(0.266469,0,0,0.266021,329.054223,-141.423881)"/>
</g>
</svg>
