<?xml version="1.0" encoding="UTF-8"?>
<!-- Created by grConvert v0.1-0 -->
<svg xmlns="http://www.w3.org/2000/svg" xmlns:xlink="http://www.w3.org/1999/xlink" width="289pt" height="252pt" viewBox="0 0 289 252" version="1.1">
<g id="surface21">
<path style="fill-rule:nonzero;fill:rgb(100%,100%,100%);fill-opacity:1;stroke-width:0.560001;stroke-linecap:round;stroke-linejoin:round;stroke:rgb(0%,0%,0%);stroke-opacity:1;stroke-miterlimit:4;" d="M 207.260962 100.000154 C 207.260962 155.07524 162.614018 199.719059 107.542059 199.719059 C 52.466974 199.719059 7.820031 155.07524 7.820031 100.000154 C 7.820031 44.925069 52.466974 0.28125 107.542059 0.28125 C 162.614018 0.28125 207.260962 44.925069 207.260962 100.000154 Z M 207.260962 100.000154 " transform="matrix(1.249998,0,0,1.249998,29.389039,1)"/>
<path style="fill-rule:nonzero;fill:rgb(97.647059%,97.647059%,97.647059%);fill-opacity:1;stroke-width:0.560001;stroke-linecap:butt;stroke-linejoin:miter;stroke:rgb(0%,0%,0%);stroke-opacity:1;stroke-miterlimit:4;" d="M 119.423327 1.068751 C 105.110805 10.793766 90.179532 21.587533 82.470145 27.871918 C 68.601374 39.17506 35.023198 68.531356 17.870046 84.39388 C 7.729406 92.862643 6.716904 99.009528 9.535658 103.962661 L 8.698157 102.759534 C 8.454407 102.740784 8.191906 102.787659 7.920031 102.862659 C 8.141906 110.247045 9.179408 117.584557 11.020036 124.740818 C 19.982549 132.38458 32.110693 141.097093 37.398201 144.372098 C 46.52009 150.025232 60.938862 156.950243 82.470145 170.078388 C 104.001428 183.206533 128.823341 189.406543 138.676482 191.775296 C 139.223357 191.906547 139.763983 192.047172 140.298359 192.194047 L 140.226484 192.322172 C 140.226484 192.322172 141.251486 192.606548 142.870238 192.950298 C 143.004613 192.990923 143.135863 193.034673 143.267114 193.078423 C 181.807798 178.287776 207.251587 141.281468 207.260962 100.000154 C 207.220337 49.553201 169.514029 7.081261 119.423327 1.068751 Z M 53.085725 66.703228 L 50.535721 69.625107 C 50.535721 69.625107 51.263847 67.98448 53.085725 66.703228 Z M 40.860706 76.003242 L 42.685709 79.650123 C 42.685709 79.831373 42.138833 78.556371 40.860706 76.003242 Z M 40.860706 76.003242 " transform="matrix(1.249998,0,0,1.249998,29.389039,1)"/>
<path style="fill-rule:nonzero;fill:rgb(92.54902%,92.54902%,92.54902%);fill-opacity:1;stroke-width:0.560001;stroke-linecap:butt;stroke-linejoin:miter;stroke:rgb(0%,0%,0%);stroke-opacity:1;stroke-miterlimit:4;" d="M 21.429427 114.381427 C 18.416922 112.675174 11.091911 107.609541 8.698157 102.759534 C 6.141903 102.578283 1.991897 107.725166 0.351269 112.287673 C -1.292483 116.84393 28.270062 138.722089 37.398201 144.372098 C 46.516965 150.028357 60.938862 156.950243 82.470145 170.078388 C 88.67328 173.000267 91.95766 164.975255 95.24204 160.231498 C 98.52642 155.497115 105.09518 141.275218 98.52642 137.259587 C 91.95766 133.250206 78.457639 128.147073 71.520129 126.32207 C 64.585743 124.500192 52.179474 120.125186 41.957583 112.100173 C 32.470069 102.622033 16.773169 86.581384 11.551286 90.759515 C 6.663779 97.13765 7.641905 101.972032 10.966911 106.012664 C 14.15754 109.884545 19.495049 113.031425 23.89193 116.115804 C 25.807558 117.937682 27.03881 118.622058 29.185689 120.490811 C 29.679439 121.022062 42.166958 130.397076 48.526343 137.259587 C 70.632627 159.565872 63.488866 156.590867 83.563897 164.975255 " transform="matrix(1.249998,0,0,1.249998,29.389039,1)"/>
<path style="fill-rule:nonzero;fill:rgb(92.54902%,92.54902%,92.54902%);fill-opacity:1;stroke-width:0.560001;stroke-linecap:butt;stroke-linejoin:miter;stroke:rgb(0%,0%,0%);stroke-opacity:1;stroke-miterlimit:4;" d="M 73.435756 75.275116 C 76.720137 82.659503 82.470145 94.965772 92.323285 97.42515 C 102.179551 99.887654 102.998302 103.990786 117.779575 99.065778 C 132.560847 94.143895 131.742096 94.143895 138.310856 83.478254 C 144.879616 72.812612 144.05774 67.068853 143.238989 58.865716 C 142.417112 50.662578 132.560847 38.356309 124.35146 35.893805 C 116.138947 33.431301 103.820178 32.61255 92.323285 35.071929 C 80.826393 37.534433 79.185765 44.918819 76.720137 49.021951 C 74.257633 53.121957 70.151376 67.89073 73.435756 75.275116 Z M 73.435756 75.275116 " transform="matrix(1.249998,0,0,1.249998,29.389039,1)"/>
<path style="fill-rule:nonzero;fill:rgb(20%,20%,20%);fill-opacity:1;stroke-width:0.560001;stroke-linecap:butt;stroke-linejoin:miter;stroke:rgb(0%,0%,0%);stroke-opacity:1;stroke-miterlimit:4;" d="M 105.463931 45.73757 C 96.429542 46.559447 92.323285 45.73757 88.217029 51.481329 C 84.110773 57.225088 81.742019 78.190746 87.123277 85.393882 C 90.954533 87.853261 94.513914 90.040764 99.713922 90.040764 C 104.917055 90.040764 112.854567 89.493888 116.410822 87.853261 C 119.970203 86.212633 124.898335 86.759509 127.907715 82.659503 C 130.92022 78.556371 132.288972 76.368868 132.013971 70.078233 C 131.742096 63.787598 131.742096 59.412592 129.004592 55.584461 C 126.267088 51.75633 124.35146 46.559447 119.148327 45.190695 C 113.948319 43.825068 114.495194 44.918819 105.463931 45.73757 Z M 105.463931 45.73757 " transform="matrix(1.249998,0,0,1.249998,29.389039,1)"/>
<path style=" stroke:none;fill-rule:nonzero;fill:rgb(100%,100%,100%);fill-opacity:1;" d="M 135.554688 81.417969 C 136.925781 83.128906 138.636719 83.8125 143.082031 82.445312 C 147.53125 81.078125 148.898438 78.683594 157.113281 78.34375 C 165.324219 78 169.085938 78 172.851562 78.683594 C 176.613281 79.367188 179.011719 76.976562 179.695312 78.683594 C 180.378906 80.394531 185.851562 81.761719 177.640625 83.46875 C 169.429688 85.179688 168.0625 89.28125 161.902344 89.28125 C 155.742188 89.28125 155.402344 92.015625 149.242188 91.332031 C 143.082031 90.648438 136.925781 94.066406 136.582031 95.777344 C 136.238281 97.484375 129.28125 94.636719 129.28125 91.898438 C 129.28125 89.164062 134.1875 79.710938 135.554688 81.417969 Z M 135.554688 81.417969 "/>
<path style="fill-rule:nonzero;fill:rgb(20%,20%,20%);fill-opacity:1;stroke-width:0.560001;stroke-linecap:butt;stroke-linejoin:miter;stroke:rgb(0%,0%,0%);stroke-opacity:1;stroke-miterlimit:4;" d="M 55.826354 70.353234 C 51.632598 75.640742 48.526343 77.64387 45.610714 81.29075 C 41.776333 84.753256 37.029451 86.759509 38.673203 91.137641 C 40.313831 95.512647 41.957583 97.153275 50.170096 99.340778 C 58.382608 101.528282 64.951368 97.700151 67.141997 97.153275 C 69.3295 96.606399 70.973253 92.778268 70.426377 88.400136 C 69.879501 84.02513 65.316994 78.921997 64.404493 75.275116 C 63.488866 72.906363 65.316994 70.900109 64.404493 66.521978 C 64.035742 62.512596 61.298238 65.250101 55.826354 70.353234 Z M 55.826354 70.353234 " transform="matrix(1.249998,0,0,1.249998,29.389039,1)"/>
</g>
</svg>
