<?xml version="1.0" encoding="UTF-8"?>
<!-- Created by grConvert v0.1-0 -->
<svg xmlns="http://www.w3.org/2000/svg" xmlns:xlink="http://www.w3.org/1999/xlink" width="289pt" height="252pt" viewBox="0 0 289 252" version="1.1">
<g id="surface25">
<path style="fill-rule:nonzero;fill:rgb(92.54902%,92.54902%,92.54902%);fill-opacity:1;stroke-width:2.62916;stroke-linecap:round;stroke-linejoin:round;stroke:rgb(0%,0%,0%);stroke-opacity:1;stroke-miterlimit:4;" d="M 1023.498646 1320.288318 C 993.344419 1339.069137 965.183859 1361.330061 939.661978 1386.894882 C 892.502937 1434.133267 856.470321 1490.431673 833.220635 1551.70795 C 856.763508 1562.42726 892.488278 1576.582623 922.847735 1586.729258 C 940.336307 1592.558801 924.137756 1577.302138 932.024471 1573.352146 C 939.940506 1569.38747 971.589983 1573.352146 986.850339 1573.910138 C 1002.096034 1574.482813 1045.590245 1568.256803 1061.422314 1561.472801 C 1077.239723 1554.688799 1070.467116 1510.592787 1071.02417 1497.597458 C 1071.332016 1490.872192 1078.16326 1463.530609 1074.410474 1437.114117 C 1070.921555 1412.430335 1056.863264 1388.568856 1055.763815 1382.269426 C 1054.649707 1375.867208 1042.936908 1350.184915 1027.529959 1326.308752 C 1026.21062 1324.267678 1024.847303 1322.28534 1023.498646 1320.288318 Z M 1023.498646 1320.288318 " transform="matrix(0.266469,0,0,0.266021,-174.718586,-331.079991)"/>
<path style="fill-rule:nonzero;fill:rgb(92.54902%,92.54902%,92.54902%);fill-opacity:1;stroke-width:2.62916;stroke-linecap:round;stroke-linejoin:round;stroke:rgb(0%,0%,0%);stroke-opacity:1;stroke-miterlimit:4;" d="M 916.500248 1980.069212 C 900.697498 1980.069212 888.266393 1980.230736 882.69585 1980.304156 C 899.319522 2004.973254 918.347323 2028.188637 939.661978 2049.539153 C 962.339951 2072.255281 987.128866 2092.372343 1013.530306 2109.758183 C 1010.319914 2075.16271 1008.824663 2048.437854 1004.910624 2035.765574 C 1000.410212 2021.052219 971.01827 1983.754893 961.973468 1981.493559 C 957.458396 1980.362892 936.422268 1980.069212 916.500248 1980.069212 Z M 916.500248 1980.069212 " transform="matrix(0.266469,0,0,0.266021,-174.718586,-331.079991)"/>
<path style="fill-rule:nonzero;fill:rgb(100%,100%,100%);fill-opacity:1;stroke-width:2.629159;stroke-linecap:round;stroke-linejoin:round;stroke:rgb(0%,0%,0%);stroke-opacity:1;stroke-miterlimit:4;" d="M 1738.228589 1718.209676 C 1738.228589 1977.000259 1528.790844 2186.775694 1270.449598 2186.775694 C 1012.093692 2186.775694 802.655947 1977.000259 802.655947 1718.209676 C 802.655947 1459.433777 1012.093692 1249.643657 1270.449598 1249.643657 C 1528.790844 1249.643657 1738.228589 1459.433777 1738.228589 1718.209676 Z M 1738.228589 1718.209676 " transform="matrix(0.266469,0,0,0.266021,-174.718586,-331.079991)"/>
<path style=" stroke:none;fill-rule:nonzero;fill:rgb(0%,0%,0%);fill-opacity:1;" d="M 207.808594 9.53125 L 207.808594 242.570312 C 221.542969 237.351562 234.246094 229.746094 245.328125 220.101562 L 245.328125 31.796875 C 234.226562 22.226562 221.527344 14.6875 207.808594 9.53125 Z M 207.808594 9.53125 "/>
<path style="fill-rule:nonzero;fill:rgb(92.54902%,92.54902%,92.54902%);fill-opacity:1;stroke-width:2.62916;stroke-linecap:round;stroke-linejoin:round;stroke:rgb(0%,0%,0%);stroke-opacity:1;stroke-miterlimit:4;" d="M 1716.430176 1405.235181 C 1710.038711 1405.220497 1698.120681 1407.320307 1673.331766 1413.37011 C 1629.265842 1424.104104 1555.807975 1451.798103 1515.700068 1468.200117 C 1475.577502 1484.60213 1443.928024 1492.502115 1404.934225 1508.904128 C 1372.170639 1519.638122 1333.748554 1536.598127 1298.727431 1547.346805 C 1273.308166 1560.914809 1173.85932 1591.442818 1204.922425 1585.216807 C 1236.014848 1578.990797 1237.71533 1593.131476 1241.101633 1604.438146 C 1244.487937 1615.744816 1258.047811 1641.735472 1254.089793 1658.137486 C 1250.131776 1674.539499 1245.044991 1694.304145 1243.916223 1708.459508 C 1242.802115 1722.585504 1236.571903 1729.927497 1238.272384 1748.590844 C 1239.958206 1767.239508 1250.68883 1809.074186 1242.215742 1822.084198 C 1233.742653 1835.064842 1223.012029 1854.858857 1215.095995 1861.084867 C 1207.209279 1867.296193 1178.38905 1885.386865 1167.643767 1889.336858 C 1156.913142 1893.301534 1150.68293 1898.954869 1145.039091 1898.954869 C 1139.395252 1898.954869 1210.595583 1913.080864 1224.155456 1919.306875 C 1237.71533 1925.532885 1332.634445 1965.649537 1359.167819 1973.020898 C 1385.730512 1980.362892 1507.769375 2025.016896 1520.772194 2026.147563 C 1533.760354 2027.278229 1645.083251 2060.067572 1654.685108 2059.50958 C 1664.286964 2058.922221 1696.478837 2058.936905 1696.478837 2058.936905 L 1695.364729 1952.096217 C 1695.364729 1952.096217 1679.53266 1868.984852 1670.502517 1852.039531 C 1661.472374 1835.079526 1642.239343 1777.988186 1635.466736 1772.320167 C 1628.679469 1766.666832 1620.778094 1747.460177 1620.778094 1747.460177 C 1620.778094 1747.460177 1625.864879 1735.595516 1632.652146 1725.419513 C 1646.212019 1707.872149 1653.55634 1675.09749 1660.886001 1656.448827 C 1678.418551 1623.659485 1693.664247 1575.040805 1697.622264 1556.950133 C 1697.622264 1556.950133 1723.04153 1463.119457 1723.04153 1462.561466 C 1723.04153 1461.974106 1728.685369 1412.239443 1724.742012 1408.289451 C 1723.012211 1406.542056 1721.399686 1405.249865 1716.430176 1405.235181 Z M 1716.430176 1405.235181 " transform="matrix(0.266469,0,0,0.266021,-174.718586,-331.079991)"/>
<path style="fill-rule:nonzero;fill:rgb(97.647059%,97.647059%,97.647059%);fill-opacity:1;stroke-width:0.7;stroke-linecap:butt;stroke-linejoin:miter;stroke:rgb(0%,0%,0%);stroke-opacity:1;stroke-miterlimit:4;" d="M 209.75456 400.507552 C 204.336592 414.632552 201.531904 429.628646 201.481123 444.761458 C 201.516279 467.84349 207.957685 490.46849 220.094403 510.105209 C 225.731121 507.71849 227.129558 506.37474 232.79362 504.570052 C 239.871744 502.316146 243.633463 500.81224 250.860025 497.952865 C 258.086586 495.09349 274.19596 492.691146 279.469397 492.390365 C 284.735021 492.085677 291.211583 492.839583 292.715489 492.839583 C 294.219395 492.839583 295.879552 491.335677 298.738926 490.28099 C 301.602207 489.230208 309.281894 484.417708 311.383456 482.765365 C 313.492831 481.109115 316.352206 475.84349 318.610018 472.390365 C 320.86783 468.929427 318.008456 457.800521 317.559237 452.839583 C 317.106112 447.87474 318.766268 445.921615 319.063143 442.163802 C 319.363924 438.398177 320.719393 433.140364 321.77408 428.777083 C 322.828768 424.413802 319.215487 417.499739 318.313143 414.491927 C 317.410799 411.484114 316.957674 407.722396 308.672519 409.378646 C 300.395176 411.034896 303.106113 409.831771 292.266271 413.589583 C 281.426428 417.351302 276.004553 416.148177 269.680335 416.148177 C 263.360023 416.148177 254.324868 414.491927 245.141275 412.988021 C 237.496745 411.738021 219.64909 404.999739 209.75456 400.507552 Z M 209.75456 400.507552 " transform="matrix(1,0,0,1,-162.31708,-318.75755)"/>
<path style=" stroke:none;fill-rule:nonzero;fill:rgb(97.647059%,97.647059%,97.647059%);fill-opacity:1;" d="M 285.207031 47.921875 C 283.75 48.589844 282.210938 49.351562 280.503906 50.292969 C 231.167969 77.507812 169.117188 89.167969 169.117188 127.714844 C 169.117188 166.265625 208.488281 189.019531 262.914062 206.902344 C 267.085938 208.273438 272.039062 210.292969 277.300781 212.453125 L 277.046875 188.21875 C 277.046875 188.21875 272.824219 166.113281 270.417969 161.601562 C 268.011719 157.089844 262.886719 141.902344 261.082031 140.394531 C 259.273438 138.894531 257.171875 133.78125 257.171875 133.78125 C 257.171875 133.78125 258.527344 130.625 260.332031 127.917969 C 263.945312 123.253906 265.898438 114.53125 267.855469 109.566406 C 272.523438 100.847656 276.59375 87.914062 277.644531 83.101562 C 277.644531 83.101562 284.417969 58.136719 284.417969 57.988281 C 284.417969 57.886719 285.0625 52.152344 285.207031 47.921875 Z M 285.207031 47.921875 "/>
<path style=" stroke:none;fill-rule:nonzero;fill:rgb(35.294118%,35.294118%,35.294118%);fill-opacity:1;" d="M 245.328125 67.117188 C 232.082031 72.886719 219.160156 78.292969 207.808594 84.019531 L 207.808594 183.25 C 218.609375 189.691406 231.300781 195.429688 245.328125 200.707031 Z M 245.328125 67.117188 "/>
<path style="fill-rule:nonzero;fill:rgb(92.54902%,92.54902%,92.54902%);fill-opacity:1;stroke-width:2.62916;stroke-linecap:round;stroke-linejoin:round;stroke:rgb(0%,0%,0%);stroke-opacity:1;stroke-miterlimit:4;" d="M 1023.498646 1320.288318 C 993.344419 1339.069137 965.183859 1361.330061 939.661978 1386.894882 C 892.502937 1434.133267 856.470321 1490.431673 833.220635 1551.70795 C 856.763508 1562.42726 892.488278 1576.582623 922.847735 1586.729258 C 940.336307 1592.558801 924.137756 1577.302138 932.024471 1573.352146 C 939.940506 1569.38747 971.589983 1573.352146 986.850339 1573.910138 C 1002.096034 1574.482813 1045.590245 1568.256803 1061.422314 1561.472801 C 1077.239723 1554.688799 1070.467116 1510.592787 1071.02417 1497.597458 C 1071.332016 1490.872192 1078.16326 1463.530609 1074.410474 1437.114117 C 1070.921555 1412.430335 1056.863264 1388.568856 1055.763815 1382.269426 C 1054.649707 1375.867208 1042.936908 1350.184915 1027.529959 1326.308752 C 1026.21062 1324.267678 1024.847303 1322.28534 1023.498646 1320.288318 Z M 1023.498646 1320.288318 " transform="matrix(0.266469,0,0,0.266021,-174.718586,-331.079991)"/>
<path style="fill:none;stroke-width:2.62916;stroke-linecap:round;stroke-linejoin:round;stroke:rgb(0%,0%,0%);stroke-opacity:1;stroke-miterlimit:4;" d="M 1716.430176 1405.235181 C 1710.038711 1405.220497 1698.120681 1407.320307 1673.331766 1413.37011 C 1629.265842 1424.104104 1555.807975 1451.798103 1515.700068 1468.200117 C 1475.577502 1484.60213 1443.928024 1492.502115 1404.934225 1508.904128 C 1372.170639 1519.638122 1333.748554 1536.598127 1298.727431 1547.346805 C 1273.308166 1560.914809 1173.85932 1591.442818 1204.922425 1585.216807 C 1236.014848 1578.990797 1237.71533 1593.131476 1241.101633 1604.438146 C 1244.487937 1615.744816 1258.047811 1641.735472 1254.089793 1658.137486 C 1250.131776 1674.539499 1245.044991 1694.304145 1243.916223 1708.459508 C 1242.802115 1722.585504 1236.571903 1729.927497 1238.272384 1748.590844 C 1239.958206 1767.239508 1250.68883 1809.074186 1242.215742 1822.084198 C 1233.742653 1835.064842 1223.012029 1854.858857 1215.095995 1861.084867 C 1207.209279 1867.296193 1178.38905 1885.386865 1167.643767 1889.336858 C 1156.913142 1893.301534 1150.68293 1898.954869 1145.039091 1898.954869 C 1139.395252 1898.954869 1210.595583 1913.080864 1224.155456 1919.306875 C 1237.71533 1925.532885 1332.634445 1965.649537 1359.167819 1973.020898 C 1385.730512 1980.362892 1507.769375 2025.016896 1520.772194 2026.147563 C 1533.760354 2027.278229 1645.083251 2060.067572 1654.685108 2059.50958 C 1664.286964 2058.922221 1696.478837 2058.936905 1696.478837 2058.936905 L 1695.364729 1952.096217 C 1695.364729 1952.096217 1679.53266 1868.984852 1670.502517 1852.039531 C 1661.472374 1835.079526 1642.239343 1777.988186 1635.466736 1772.320167 C 1628.679469 1766.666832 1620.778094 1747.460177 1620.778094 1747.460177 C 1620.778094 1747.460177 1625.864879 1735.595516 1632.652146 1725.419513 C 1646.212019 1707.872149 1653.55634 1675.09749 1660.886001 1656.448827 C 1678.418551 1623.659485 1693.664247 1575.040805 1697.622264 1556.950133 C 1697.622264 1556.950133 1723.04153 1463.119457 1723.04153 1462.561466 C 1723.04153 1461.974106 1728.685369 1412.239443 1724.742012 1408.289451 C 1723.012211 1406.542056 1721.399686 1405.249865 1716.430176 1405.235181 Z M 1716.430176 1405.235181 " transform="matrix(0.266469,0,0,0.266021,-174.718586,-331.079991)"/>
<path style="fill-rule:nonzero;fill:rgb(92.54902%,92.54902%,92.54902%);fill-opacity:1;stroke-width:2.62916;stroke-linecap:round;stroke-linejoin:round;stroke:rgb(0%,0%,0%);stroke-opacity:1;stroke-miterlimit:4;" d="M 916.500248 1980.069212 C 900.697498 1980.069212 888.266393 1980.230736 882.69585 1980.304156 C 899.319522 2004.973254 918.347323 2028.188637 939.661978 2049.539153 C 962.339951 2072.255281 987.128866 2092.372343 1013.530306 2109.758183 C 1010.319914 2075.16271 1008.824663 2048.437854 1004.910624 2035.765574 C 1000.410212 2021.052219 971.01827 1983.754893 961.973468 1981.493559 C 957.458396 1980.362892 936.422268 1980.069212 916.500248 1980.069212 Z M 916.500248 1980.069212 " transform="matrix(0.266469,0,0,0.266021,-174.718586,-331.079991)"/>
</g>
</svg>
