<?xml version="1.0" encoding="UTF-8"?>
<!-- Created by grConvert v0.1-0 -->
<svg xmlns="http://www.w3.org/2000/svg" xmlns:xlink="http://www.w3.org/1999/xlink" width="289pt" height="252pt" viewBox="0 0 289 252" version="1.1">
<g id="surface29">
<path style="fill-rule:nonzero;fill:rgb(100%,100%,100%);fill-opacity:1;stroke-width:2.62916;stroke-linecap:round;stroke-linejoin:round;stroke:rgb(0%,0%,0%);stroke-opacity:1;stroke-miterlimit:4;" d="M -62.715066 288.879876 C -62.715066 547.670459 -272.152811 757.445894 -530.508717 757.445894 C -788.849963 757.445894 -998.287708 547.670459 -998.287708 288.879876 C -998.287708 30.103977 -788.849963 -179.686143 -530.508717 -179.686143 C -272.152811 -179.686143 -62.715066 30.103977 -62.715066 288.879876 Z M -62.715066 288.879876 " transform="matrix(0.266469,0,0,0.266021,305.176443,49.151864)"/>
<path style=" stroke:none;fill-rule:nonzero;fill:rgb(97.647059%,97.647059%,97.647059%);fill-opacity:1;" d="M 203.488281 25.367188 C 197.042969 25.289062 191.597656 26.382812 188.097656 26.964844 C 183.011719 27.8125 159.390625 38.699219 146.304688 48.011719 C 135.160156 54.425781 133.707031 56.605469 123.046875 64.832031 C 113.113281 70.152344 88.402344 87.332031 79.195312 94.832031 C 69.988281 102.332031 47.699219 121.8125 36.3125 132.335938 C 29.582031 137.957031 28.910156 142.035156 30.78125 145.320312 L 30.222656 144.523438 C 28.527344 144.402344 25.773438 147.820312 24.683594 150.84375 C 23.59375 153.867188 43.21875 168.386719 49.273438 172.132812 C 55.328125 175.886719 64.902344 180.480469 79.195312 189.191406 C 93.488281 197.902344 109.964844 202.019531 116.507812 203.589844 C 116.871094 203.675781 117.21875 203.785156 117.574219 203.878906 L 117.535156 203.949219 C 117.535156 203.949219 118.195312 204.132812 119.242188 204.355469 C 124.519531 206.015625 128.671875 208.375 129.707031 208.789062 C 130.917969 209.273438 128.011719 210.003906 139.039062 212.542969 C 150.0625 215.082031 173.078125 217.625 177.4375 218.226562 C 181.796875 218.832031 210.75 218.46875 220.804688 218.226562 C 230.859375 217.988281 231.101562 218.589844 240.1875 220.527344 C 241.265625 220.757812 242.671875 220.972656 244.285156 221.179688 C 246.929688 218.949219 249.492188 216.605469 251.953125 214.140625 C 275.332031 190.765625 288.464844 159.0625 288.464844 126 C 288.464844 92.941406 275.332031 61.238281 251.953125 37.859375 C 248.730469 34.636719 245.34375 31.613281 241.816406 28.785156 C 234.558594 28.589844 221.089844 28.089844 212.8125 26.359375 C 209.554688 25.679688 206.417969 25.402344 203.488281 25.367188 Z M 59.691406 120.597656 L 57.996094 122.535156 C 57.996094 122.535156 58.480469 121.449219 59.691406 120.597656 Z M 51.574219 126.769531 L 52.785156 129.1875 C 52.785156 129.308594 52.421875 128.464844 51.574219 126.769531 Z M 51.574219 126.769531 "/>
<path style=" stroke:none;fill-rule:nonzero;fill:rgb(95.294118%,92.156863%,83.137255%);fill-opacity:1;" d="M 188.765625 82.734375 C 133.738281 84.417969 128.546875 128.019531 102.089844 139.351562 C 87.585938 145.5625 95.839844 157.390625 59.695312 155.167969 C 59.53125 155.160156 59.371094 155.148438 59.207031 155.136719 C 59.101562 155.226562 59 155.3125 58.90625 155.394531 C 68.890625 159.476562 67.386719 158.964844 71.925781 160.15625 C 76.53125 161.371094 85.492188 164.753906 89.851562 167.414062 C 94.214844 170.078125 89.855469 179.515625 87.671875 182.65625 C 85.492188 185.804688 83.3125 191.128906 79.195312 189.191406 C 93.488281 197.902344 109.964844 202.019531 116.507812 203.589844 C 123.050781 205.160156 128.5 208.304688 129.707031 208.789062 C 130.917969 209.273438 128.011719 210.003906 139.039062 212.542969 C 150.0625 215.082031 173.078125 217.625 177.4375 218.226562 C 181.796875 218.832031 210.75 218.46875 220.804688 218.226562 C 230.859375 217.988281 231.101562 218.589844 240.1875 220.527344 C 241.226562 220.75 242.582031 220.957031 244.125 221.160156 C 272.191406 197.515625 288.414062 162.703125 288.464844 126 C 288.460938 125.953125 288.460938 125.902344 288.457031 125.855469 C 243.753906 106.234375 211.542969 82.035156 188.765625 82.734375 Z M 188.765625 82.734375 "/>
<path style="fill-rule:nonzero;fill:rgb(92.54902%,92.54902%,92.54902%);fill-opacity:1;stroke-width:2.62916;stroke-linecap:butt;stroke-linejoin:miter;stroke:rgb(0%,0%,0%);stroke-opacity:1;stroke-miterlimit:4;" d="M -1000.120123 387.497531 C -1007.625696 383.239175 -1025.876553 370.610946 -1031.828238 358.511341 C -1038.205044 358.056137 -1048.539866 370.889942 -1052.629817 382.270032 C -1056.719768 393.635437 -983.071331 448.215816 -960.34938 462.29776 C -937.62743 476.409071 -901.69743 493.677439 -848.058967 526.42273 C -832.608041 533.705987 -824.428139 513.691713 -816.248237 501.871104 C -808.053675 490.050495 -791.693871 454.573983 -808.053675 444.559504 C -824.428139 434.559709 -858.056626 421.843376 -875.339967 417.276656 C -892.608649 412.739304 -923.525161 401.829102 -948.988405 381.814828 C -972.619233 358.173609 -1011.715647 318.159745 -1024.733126 328.570692 C -1036.915023 344.488134 -1034.466916 356.543687 -1026.184399 366.631586 C -1018.239046 376.278965 -1004.94304 384.134898 -993.992526 391.829307 C -989.213587 396.366659 -986.149788 398.070001 -980.799136 402.739509 C -979.567752 404.061068 -948.460669 427.437975 -932.613941 444.559504 C -877.538866 500.197129 -895.349943 492.781716 -845.332333 513.691713 " transform="matrix(0.266469,0,0,0.266021,305.176443,49.151864)"/>
<path style="fill-rule:nonzero;fill:rgb(92.54902%,92.54902%,92.54902%);fill-opacity:1;stroke-width:2.62916;stroke-linecap:butt;stroke-linejoin:miter;stroke:rgb(0%,0%,0%);stroke-opacity:1;stroke-miterlimit:4;" d="M -870.561028 289.951807 C -862.381126 308.365526 -848.058967 339.069742 -823.504602 345.207649 C -798.964895 351.345555 -796.91259 361.580294 -760.088371 349.304481 C -723.264152 337.013984 -725.316458 337.013984 -708.956653 310.421284 C -692.58219 283.8139 -694.634495 269.497013 -696.672141 249.027536 C -698.724446 228.558058 -723.264152 197.868526 -743.728567 191.730619 C -764.178322 185.592713 -794.874944 183.536954 -823.504602 189.674861 C -852.148919 195.812767 -856.23887 214.241171 -862.381126 224.47591 C -868.523382 234.695964 -878.74093 271.538087 -870.561028 289.951807 Z M -870.561028 289.951807 " transform="matrix(0.266469,0,0,0.266021,305.176443,49.151864)"/>
<path style="fill-rule:nonzero;fill:rgb(92.54902%,92.54902%,92.54902%);fill-opacity:1;stroke-width:0.7;stroke-linecap:round;stroke-linejoin:round;stroke:rgb(0%,0%,0%);stroke-opacity:1;stroke-miterlimit:4;" d="M -111.749814 -52.665711 C -113.195126 -51.517274 -114.804501 -50.189149 -115.667782 -49.509461 C -117.367001 -48.17743 -134.566218 -33.661805 -129.480281 -34.509461 C -124.390438 -35.357117 -115.183407 -37.290711 -104.765439 -35.11493 C -96.574034 -33.400086 -83.253723 -32.89618 -75.941223 -32.693055 C -86.691222 -41.282899 -98.792784 -48.028993 -111.749814 -52.665711 Z M -92.417784 156.638977 C -92.964659 156.642883 -94.257628 156.693665 -96.773253 156.752258 C -100.499815 156.842102 -106.827939 156.947571 -113.531064 157.013977 C -106.827939 165.947571 -111.550595 159.775696 -108.038877 173.931946 C -108.038877 173.931946 -107.120908 177.162415 -106.398252 179.721009 C -96.76544 175.748352 -87.671691 170.580383 -79.327942 164.346008 C -81.562317 163.471008 -83.570129 162.510071 -83.570129 162.435852 C -83.570129 162.318665 -87.202941 160.86554 -90.956847 160.623352 C -92.656066 160.623352 -94.714659 158.564758 -94.714659 158.564758 C -95.820128 156.994446 -90.769347 156.623352 -92.417784 156.638977 Z M -92.417784 156.638977 " transform="matrix(1,0,0,1,317.57795,61.474305)"/>
<path style="fill-rule:nonzero;fill:rgb(20%,20%,20%);fill-opacity:1;stroke-width:2.62916;stroke-linecap:butt;stroke-linejoin:miter;stroke:rgb(0%,0%,0%);stroke-opacity:1;stroke-miterlimit:4;" d="M -790.784993 216.282245 C -813.287054 218.323319 -823.504602 216.282245 -833.736809 230.613816 C -843.969016 244.930703 -849.876723 297.22038 -836.463443 315.19358 C -826.920224 321.331486 -818.051334 326.79393 -805.092492 326.79393 C -792.14831 326.79393 -772.372884 325.428319 -763.503993 321.331486 C -754.635103 317.234654 -742.36525 318.600265 -734.859677 308.365526 C -727.368763 298.145471 -723.953141 292.683028 -724.627469 277.00053 C -725.316458 261.303348 -725.316458 250.393146 -732.133043 240.833871 C -738.949628 231.289279 -743.728567 218.323319 -756.687408 214.916634 C -769.64625 211.509949 -768.282933 214.241171 -790.784993 216.282245 Z M -790.784993 216.282245 " transform="matrix(0.266469,0,0,0.266021,305.176443,49.151864)"/>
<path style=" stroke:none;fill-rule:nonzero;fill:rgb(100%,100%,100%);fill-opacity:1;" d="M 80.832031 119.027344 C 81.558594 119.933594 82.464844 120.296875 84.828125 119.570312 C 87.191406 118.847656 87.917969 117.574219 92.277344 117.394531 C 96.640625 117.210938 98.636719 117.210938 100.636719 117.574219 C 102.636719 117.9375 103.90625 116.667969 104.269531 117.574219 C 104.632812 118.484375 107.542969 119.207031 103.179688 120.117188 C 98.820312 121.023438 98.09375 123.199219 94.820312 123.199219 C 91.550781 123.199219 91.371094 124.652344 88.097656 124.289062 C 84.828125 123.925781 81.558594 125.742188 81.375 126.648438 C 81.195312 127.554688 77.496094 126.042969 77.496094 124.589844 C 77.496094 123.140625 80.105469 118.121094 80.832031 119.027344 Z M 80.832031 119.027344 "/>
<path style="fill-rule:nonzero;fill:rgb(40%,40%,40%);fill-opacity:1;stroke-width:0.7;stroke-linecap:butt;stroke-linejoin:miter;stroke:rgb(0%,0%,0%);stroke-opacity:1;stroke-miterlimit:4;" d="M -110.589658 -52.243836 C -112.394345 -50.220399 -115.148251 -46.571961 -116.820126 -44.068055 C -119.363094 -40.255555 -134.566218 -33.661805 -129.480281 -34.509461 C -124.390438 -35.357117 -115.183407 -37.290711 -104.765439 -35.11493 C -96.574034 -33.400086 -83.253723 -32.89618 -75.941223 -32.693055 C -78.234192 -34.571961 -80.597473 -36.368836 -83.023254 -38.079774 C -84.55841 -37.415711 -85.269348 -38.443055 -85.386535 -38.443055 C -85.445129 -38.443055 -85.429504 -38.939149 -85.382629 -39.579774 C -87.882629 -41.236024 -90.441222 -42.806336 -93.054503 -44.278992 C -94.929503 -42.009461 -96.863096 -38.80243 -99.195128 -37.716492 C -101.92169 -36.443055 -101.554502 -38.80243 -102.101377 -40.075867 C -102.382627 -40.728211 -101.214659 -44.122742 -99.79669 -47.661805 C -100.843565 -48.185243 -101.898252 -48.696961 -102.960752 -49.189149 C -106.620908 -42.642274 -110.363095 -38.61493 -112.277158 -38.443055 C -114.277157 -38.259461 -115.730282 -39.165711 -115.550595 -39.892274 C -115.367001 -40.618836 -114.09747 -43.884461 -113.187314 -45.700867 C -112.562314 -46.946961 -110.585751 -49.884461 -109.515439 -51.853211 C -109.870908 -51.982118 -110.230283 -52.11493 -110.589658 -52.243836 Z M -110.589658 -52.243836 " transform="matrix(1,0,0,1,317.57795,61.474305)"/>
<path style="fill:none;stroke-width:0.7;stroke-linecap:round;stroke-linejoin:round;stroke:rgb(0%,0%,0%);stroke-opacity:1;stroke-miterlimit:4;" d="M -38.523258 17.263977 C -49.284976 21.053039 -62.527162 26.521789 -66.851381 29.607727 C -73.210755 34.142883 -79.753723 43.037414 -82.480285 47.57257 C -85.202941 52.107727 -93.745909 61.72882 -97.562315 66.080383 C -101.374815 70.435852 -110.09747 80.963196 -112.640439 84.228821 C -115.183407 87.494446 -115.00372 92.209289 -115.00372 94.388977 C -115.00372 96.564758 -115.183407 98.560852 -113.00372 104.549133 C -110.824033 110.537414 -109.187314 116.346008 -106.464658 116.709289 C -103.738096 117.072571 -98.831846 117.435852 -91.562316 116.709289 C -84.292785 115.982727 -66.488099 114.170227 -62.308412 113.623352 C -58.128725 113.080383 -53.222476 114.170227 -49.409976 111.627258 C -46.327945 109.580383 -40.077946 106.217102 -34.999821 102.236633 C -31.113103 90.045227 -29.128728 77.326477 -29.113103 64.525695 C -29.144353 48.310852 -32.339665 32.256164 -38.523258 17.263977 Z M -38.523258 17.263977 " transform="matrix(1,0,0,1,317.57795,61.474305)"/>
<path style="fill:none;stroke-width:0.7;stroke-linecap:butt;stroke-linejoin:miter;stroke:rgb(0%,0%,0%);stroke-opacity:1;stroke-miterlimit:4;" d="M -114.089657 -36.107117 C -120.534969 -36.185242 -125.980281 -35.091492 -129.480281 -34.509461 C -134.566218 -33.661805 -158.187309 -22.775086 -171.273246 -13.462586 C -182.417776 -7.048524 -183.870901 -4.868836 -194.531056 3.357726 C -204.464649 8.678039 -229.175584 25.857727 -238.382614 33.357727 C -247.589645 40.857727 -269.878705 60.338195 -281.265423 70.861633 C -287.995891 76.482727 -288.667766 80.560852 -286.796672 83.846008 L -287.355266 83.049133 C -289.050578 82.928039 -291.804484 86.346008 -292.894328 89.369446 C -293.984171 92.392883 -274.359173 106.912414 -268.304486 110.658508 C -262.249799 114.412414 -252.675582 119.006164 -238.382614 127.717102 C -224.089647 136.42804 -207.613086 140.545227 -201.070118 142.11554 C -200.706837 142.201477 -200.35918 142.310852 -200.003712 142.404602 L -200.042774 142.474915 C -200.042774 142.474915 -199.382618 142.658508 -198.335743 142.881165 C -193.0584 144.541321 -188.906056 146.900696 -187.8709 147.314758 C -186.659963 147.799133 -189.566213 148.529602 -178.53887 151.068665 C -167.515433 153.607727 -144.499811 156.150696 -140.140436 156.752258 C -135.781062 157.357727 -106.827939 156.994446 -96.773253 156.752258 C -86.718566 156.513977 -86.476379 157.11554 -77.390442 159.05304 C -76.312317 159.283508 -74.906067 159.498352 -73.292786 159.705383 C -70.648255 157.474915 -68.085756 155.131165 -65.624818 152.666321 C -42.245914 129.291321 -29.113103 97.588196 -29.113103 64.525695 C -29.113103 31.467102 -42.245914 -0.236024 -65.624818 -23.61493 C -68.847474 -26.837586 -72.234193 -29.861024 -75.761536 -32.689149 C -83.019348 -32.884461 -96.488097 -33.384461 -104.765439 -35.11493 C -108.023252 -35.794617 -111.15997 -36.071961 -114.089657 -36.107117 Z M -257.886519 59.123352 L -259.581831 61.060852 C -259.581831 61.060852 -259.097456 59.974914 -257.886519 59.123352 Z M -266.003705 65.295227 L -264.792768 67.713196 C -264.792768 67.834289 -265.156049 66.990539 -266.003705 65.295227 Z M -266.003705 65.295227 " transform="matrix(1,0,0,1,317.57795,61.474305)"/>
</g>
</svg>
