<?xml version="1.0" encoding="UTF-8"?>
<!-- Created by grConvert v0.1-0 -->
<svg xmlns="http://www.w3.org/2000/svg" xmlns:xlink="http://www.w3.org/1999/xlink" width="56pt" height="56pt" viewBox="0 0 56 56" version="1.1">
<g id="surface24">
<path style=" stroke:none;fill-rule:nonzero;fill:rgb(0%,14.117647%,49.019608%);fill-opacity:1;" d="M 28.125 0 C 12.59375 0 0 12.59375 0 28.125 C 0 43.664062 12.59375 56.25 28.125 56.25 C 43.65625 56.25 56.25 43.664062 56.25 28.125 C 56.25 12.59375 43.65625 0 28.125 0 Z M 28.125 0 "/>
<path style=" stroke:none;fill-rule:nonzero;fill:rgb(100%,100%,100%);fill-opacity:1;" d="M 21.742188 0.734375 C 9.609375 3.550781 0.492188 14.21875 0.0273438 27.097656 L 5.359375 27.097656 L 5.359375 18.210938 L 18.046875 27.097656 L 23.878906 27.097656 L 23.878906 25.945312 L 10.933594 16.882812 L 23.878906 16.882812 L 23.878906 8.300781 L 10.9375 8.300781 Z M 21.742188 0.734375 "/>
<path style=" stroke:none;fill-rule:nonzero;fill:rgb(81.176471%,7.843137%,16.862745%);fill-opacity:1;" d="M 19.320312 1.414062 C 8.414062 5.007812 0.460938 15.089844 0.0273438 27.097656 L 3.691406 27.097656 L 3.691406 16.027344 L 19.5 27.097656 L 23.878906 27.097656 L 23.878906 26.960938 L 7.097656 15.210938 L 23.878906 15.210938 L 23.878906 9.972656 L 7.101562 9.972656 Z M 19.320312 1.414062 "/>
<path style=" stroke:none;fill-rule:nonzero;fill:rgb(80%,80%,20%);fill-opacity:1;" d="M 29.8125 25.671875 C 29.8125 37.402344 30.75 41.566406 33.957031 44.78125 C 37.167969 47.996094 38.382812 48.503906 39.277344 48.996094 C 40.3125 48.425781 41.5 47.804688 44.410156 44.894531 C 47.289062 42.015625 48.679688 37.867188 48.679688 25.472656 C 46.585938 26.367188 45.542969 26.664062 43.714844 26.660156 C 42.359375 26.792969 40.265625 25.921875 39.015625 25.355469 C 38.199219 25.875 37.015625 26.496094 34.882812 26.566406 C 32.421875 26.667969 31.644531 26.269531 29.8125 25.671875 Z M 29.8125 25.671875 "/>
<path style=" stroke:none;fill-rule:nonzero;fill:rgb(100%,100%,100%);fill-opacity:1;" d="M 30.378906 26.414062 C 30.378906 30.042969 30.164062 34.988281 30.929688 37.847656 C 31.703125 40.722656 31.878906 41.140625 32.457031 42.144531 L 45.949219 42.042969 C 46.78125 40.601562 46.824219 39.707031 47.441406 37.402344 C 48.058594 35.101562 48.214844 29.980469 48.230469 26.164062 C 46.875 26.851562 45.097656 27.339844 43.375 27.125 C 41.992188 27.023438 40.714844 26.722656 39.226562 25.921875 C 37.9375 26.660156 37.488281 26.996094 35.355469 27.082031 C 33.695312 27.160156 32.351562 27.285156 30.378906 26.414062 Z M 30.378906 26.414062 "/>
<path style=" stroke:none;fill-rule:nonzero;fill:rgb(60%,80%,100%);fill-opacity:1;" d="M 32.484375 42.066406 C 33.445312 43.992188 37.972656 47.683594 39.296875 48.449219 C 40.808594 47.578125 44.800781 43.925781 45.914062 42.066406 Z M 32.484375 42.066406 "/>
<path style=" stroke:none;fill-rule:nonzero;fill:rgb(100%,60%,0%);fill-opacity:1;" d="M 39.554688 31.785156 C 39.980469 32.742188 41.351562 33.796875 41.726562 34.316406 C 41.246094 34.832031 41.152344 34.777344 41.214844 35.738281 C 42.046875 34.910156 42.0625 34.824219 42.597656 34.949219 C 43.769531 36.0625 42.808594 38.460938 41.835938 38.980469 C 40.867188 39.535156 41.042969 38.960938 39.59375 39.65625 C 40.257812 40.199219 41.03125 39.578125 41.660156 39.746094 C 42.003906 40.132812 41.496094 40.839844 41.761719 41.503906 C 42.320312 41.453125 42.253906 40.378906 42.382812 39.992188 C 42.789062 38.566406 45.238281 37.574219 45.363281 36.265625 C 45.878906 36.035156 46.394531 36.195312 47.019531 36.53125 C 46.707031 35.304688 45.675781 35.320312 45.398438 34.9375 C 44.738281 33.976562 44.152344 32.878906 42.746094 32.597656 C 41.675781 32.378906 41.757812 32.660156 41.070312 32.214844 C 40.644531 31.898438 39.347656 31.300781 39.554688 31.785156 Z M 39.554688 31.785156 "/>
<path style=" stroke:none;fill-rule:nonzero;fill:rgb(100%,60%,0%);fill-opacity:1;" d="M 36.136719 35.84375 C 36.824219 35.039062 37.164062 33.390625 37.46875 32.832031 C 38.171875 32.992188 38.167969 33.101562 39.027344 32.597656 C 37.871094 32.285156 37.78125 32.3125 37.648438 31.800781 C 38.136719 30.292969 40.808594 29.984375 41.742188 30.558594 C 42.710938 31.117188 42.097656 31.234375 43.421875 32.136719 C 43.613281 31.320312 42.675781 30.960938 42.535156 30.351562 C 42.734375 29.882812 43.625 29.976562 44.117188 29.441406 C 43.808594 28.996094 42.847656 29.554688 42.425781 29.625 C 40.914062 29.949219 38.851562 28.351562 37.582031 28.855469 C 37.125 28.53125 37.03125 28.019531 37.050781 27.335938 C 36.0625 28.171875 36.554688 29.035156 36.332031 29.445312 C 35.746094 30.453125 35.003906 31.457031 35.398438 32.777344 C 35.699219 33.777344 35.921875 33.578125 35.828125 34.367188 C 35.734375 34.875 35.785156 36.246094 36.136719 35.84375 Z M 36.136719 35.84375 "/>
<path style=" stroke:none;fill-rule:nonzero;fill:rgb(100%,60%,0%);fill-opacity:1;" d="M 41.726562 36.410156 C 40.644531 36.265625 38.992188 36.839844 38.332031 36.882812 C 38.113281 36.222656 38.214844 36.175781 37.316406 35.730469 C 37.632812 36.835938 37.703125 36.894531 37.316406 37.265625 C 35.710938 37.652344 34.050781 35.628906 34.082031 34.570312 C 34.082031 33.492188 34.507812 33.933594 34.628906 32.386719 C 33.796875 32.652344 33.960938 33.601562 33.488281 34.03125 C 32.960938 34.113281 32.585938 33.335938 31.851562 33.210938 C 31.609375 33.691406 32.609375 34.1875 32.890625 34.496094 C 33.964844 35.5625 33.597656 38.074219 34.707031 38.847656 C 34.648438 39.386719 34.242188 39.726562 33.617188 40.066406 C 34.878906 40.441406 35.398438 39.589844 35.882812 39.5625 C 37.085938 39.519531 38.375 39.605469 39.355469 38.601562 C 40.097656 37.835938 39.804688 37.757812 40.558594 37.429688 C 41.0625 37.242188 42.269531 36.492188 41.726562 36.410156 Z M 41.726562 36.410156 "/>
<path style=" stroke:none;fill-rule:nonzero;fill:rgb(100%,100%,100%);fill-opacity:1;" d="M 42.628906 32.875 C 42.628906 32.992188 42.53125 33.085938 42.40625 33.085938 C 42.285156 33.085938 42.183594 32.992188 42.183594 32.875 C 42.183594 32.757812 42.285156 32.660156 42.40625 32.660156 C 42.53125 32.660156 42.628906 32.757812 42.628906 32.875 Z M 42.628906 32.875 "/>
<path style=" stroke:none;fill-rule:nonzero;fill:rgb(100%,100%,100%);fill-opacity:1;" d="M 35.710938 32.742188 C 35.816406 32.6875 35.953125 32.726562 36.011719 32.832031 C 36.066406 32.9375 36.027344 33.0625 35.917969 33.117188 C 35.808594 33.171875 35.675781 33.132812 35.617188 33.03125 C 35.558594 32.925781 35.601562 32.796875 35.710938 32.742188 Z M 35.710938 32.742188 "/>
<path style=" stroke:none;fill-rule:nonzero;fill:rgb(100%,100%,100%);fill-opacity:1;" d="M 39.164062 38.363281 C 39.058594 38.304688 39.023438 38.171875 39.085938 38.070312 C 39.152344 37.972656 39.289062 37.9375 39.394531 38 C 39.5 38.058594 39.53125 38.191406 39.46875 38.289062 C 39.40625 38.390625 39.269531 38.425781 39.164062 38.363281 Z M 39.164062 38.363281 "/>
</g>
</svg>
