<?xml version="1.0" encoding="UTF-8"?>
<!-- Created by grConvert v0.1-0 -->
<svg xmlns="http://www.w3.org/2000/svg" xmlns:xlink="http://www.w3.org/1999/xlink" width="56pt" height="56pt" viewBox="0 0 56 56" version="1.1">
<g id="surface32">
<path style=" stroke:none;fill-rule:nonzero;fill:rgb(25.490196%,56.078431%,87.058824%);fill-opacity:1;" d="M 28.125 0.0351562 C 12.59375 0.0351562 0 12.628906 0 28.160156 C 0 43.695312 12.59375 56.285156 28.125 56.285156 C 43.65625 56.285156 56.25 43.695312 56.25 28.160156 C 56.25 12.628906 43.65625 0.0351562 28.125 0.0351562 Z M 28.125 0.0351562 "/>
<path style=" stroke:none;fill-rule:nonzero;fill:rgb(100%,81.960784%,0%);fill-opacity:1;" d="M 3.6875 42.078125 C 4.242188 43.050781 4.847656 43.988281 5.511719 44.878906 L 50.738281 44.878906 C 51.402344 43.988281 52.007812 43.050781 52.5625 42.078125 Z M 7.890625 47.683594 C 8.863281 48.691406 9.910156 49.628906 11.023438 50.484375 L 45.226562 50.484375 C 46.339844 49.628906 47.386719 48.691406 48.359375 47.683594 Z M 7.890625 47.683594 "/>
<path style="fill-rule:nonzero;fill:rgb(93.72549%,20%,25.098039%);fill-opacity:1;stroke-width:0.2;stroke-linecap:butt;stroke-linejoin:miter;stroke:rgb(100%,100%,100%);stroke-opacity:1;stroke-miterlimit:10;" d="M 3.375181 3.375584 L 1.349145 4.000267 L 3.375181 4.62495 L 3.999864 6.650986 L 4.624547 4.62495 L 6.650583 4.000267 L 4.624547 3.375584 L 3.999864 1.349548 Z M 3.375181 3.375584 " transform="matrix(2.801421,0,0,2.801421,4.435322,8.461536)"/>
</g>
</svg>
