<?xml version="1.0" encoding="UTF-8"?>
<!-- Created by grConvert v0.1-0 -->
<svg xmlns="http://www.w3.org/2000/svg" xmlns:xlink="http://www.w3.org/1999/xlink" width="56pt" height="56pt" viewBox="0 0 56 56" version="1.1">
<g id="surface36">
<path style=" stroke:none;fill-rule:nonzero;fill:rgb(0%,46.666667%,54.509804%);fill-opacity:1;" d="M 28.125 0.0351562 C 12.59375 0.0351562 0 12.628906 0 28.160156 C 0 43.695312 12.59375 56.285156 28.125 56.285156 C 43.65625 56.285156 56.25 43.695312 56.25 28.160156 C 56.25 12.628906 43.65625 0.0351562 28.125 0.0351562 Z M 28.125 0.0351562 "/>
<path style=" stroke:none;fill-rule:nonzero;fill:rgb(100%,78.039216%,17.254902%);fill-opacity:1;" d="M 1.648438 18.667969 C 0.582031 21.632812 0 24.828125 0 28.160156 C 0 31.492188 0.582031 34.683594 1.644531 37.652344 L 54.605469 37.652344 C 55.667969 34.683594 56.25 31.492188 56.25 28.160156 C 56.25 24.828125 55.667969 21.632812 54.605469 18.667969 Z M 1.648438 18.667969 "/>
<path style=" stroke:none;fill-rule:nonzero;fill:rgb(0%,0%,0%);fill-opacity:1;" d="M 6.378906 10.324219 C 2.394531 15.179688 0 21.390625 0 28.160156 C 0 34.933594 2.394531 41.144531 6.378906 45.996094 L 37.269531 28.160156 Z M 6.378906 10.324219 "/>
</g>
</svg>
