<?xml version="1.0" encoding="UTF-8"?>
<!-- Created by grConvert v0.1-0 -->
<svg xmlns="http://www.w3.org/2000/svg" xmlns:xlink="http://www.w3.org/1999/xlink" width="56pt" height="56pt" viewBox="0 0 56 56" version="1.1">
<g id="surface40">
<path style=" stroke:none;fill-rule:nonzero;fill:rgb(0%,14.901961%,49.803922%);fill-opacity:1;" d="M 28.125 0.0351562 C 12.59375 0.0351562 0 12.628906 0 28.160156 C 0 43.695312 12.59375 56.285156 28.125 56.285156 C 43.65625 56.285156 56.25 43.695312 56.25 28.160156 C 56.25 12.628906 43.65625 0.0351562 28.125 0.0351562 Z M 28.125 0.0351562 "/>
<path style=" stroke:none;fill-rule:nonzero;fill:rgb(100%,78.039216%,14.901961%);fill-opacity:1;" d="M 28.125 0.0351562 C 22.816406 0.0351562 17.847656 1.507812 13.609375 4.0625 L 13.609375 52.253906 C 17.847656 54.8125 22.816406 56.285156 28.125 56.285156 C 33.433594 56.285156 38.402344 54.8125 42.640625 52.253906 L 42.640625 4.0625 C 38.402344 1.507812 33.433594 0.0351562 28.125 0.0351562 Z M 28.125 0.0351562 "/>
<path style=" stroke:none;fill-rule:nonzero;fill:rgb(0%,0%,0%);fill-opacity:1;" d="M 28.125 14.097656 C 27.183594 16.667969 26.21875 19.347656 24.164062 21.394531 C 24.800781 21.1875 25.917969 20.996094 26.636719 21.015625 L 26.636719 31.835938 L 23.582031 32.289062 C 23.472656 32.277344 23.4375 32.105469 23.4375 31.875 C 23.144531 28.515625 22.347656 25.691406 21.433594 22.769531 C 21.371094 22.371094 20.210938 20.847656 21.105469 21.117188 C 21.214844 21.132812 22.40625 21.617188 22.21875 21.386719 C 20.59375 19.703125 18.214844 18.488281 15.910156 18.132812 C 15.707031 18.082031 15.585938 18.183594 15.765625 18.417969 C 18.828125 23.128906 21.390625 28.691406 21.371094 35.292969 C 22.558594 35.292969 25.445312 34.589844 26.636719 34.589844 C 26.636719 34.589844 26.636719 42.222656 26.636719 42.222656 L 28.144531 42.222656 L 28.488281 20.902344 Z M 28.125 14.097656 "/>
<path style=" stroke:none;fill-rule:nonzero;fill:rgb(0%,0%,0%);fill-opacity:1;" d="M 28.125 14.097656 C 29.066406 16.667969 30.03125 19.347656 32.085938 21.394531 C 31.449219 21.1875 30.332031 20.996094 29.613281 21.015625 L 29.613281 31.835938 L 32.667969 32.289062 C 32.777344 32.277344 32.8125 32.105469 32.8125 31.875 C 33.105469 28.515625 33.902344 25.691406 34.816406 22.769531 C 34.878906 22.371094 36.039062 20.847656 35.144531 21.117188 C 35.035156 21.132812 33.84375 21.617188 34.03125 21.386719 C 35.65625 19.703125 38.035156 18.488281 40.339844 18.132812 C 40.542969 18.082031 40.664062 18.183594 40.484375 18.417969 C 37.421875 23.128906 34.859375 28.691406 34.878906 35.292969 C 33.691406 35.292969 30.804688 34.589844 29.613281 34.589844 C 29.613281 34.589844 29.613281 42.222656 29.613281 42.222656 L 28.105469 42.222656 L 27.761719 20.902344 Z M 28.125 14.097656 "/>
</g>
</svg>
