<?xml version="1.0" encoding="UTF-8"?>
<!-- Created by grConvert v0.1-0 -->
<svg xmlns="http://www.w3.org/2000/svg" xmlns:xlink="http://www.w3.org/1999/xlink" width="56pt" height="56pt" viewBox="0 0 56 56" version="1.1">
<g id="surface48">
<path style=" stroke:none;fill-rule:nonzero;fill:rgb(81.176471%,7.843137%,16.862745%);fill-opacity:1;" d="M 24.722656 0.246094 C 10.796875 1.925781 0 13.78125 0 28.160156 C 0 41.519531 9.3125 52.6875 21.796875 55.5625 L 34.453125 55.5625 C 46.9375 52.6875 56.25 41.519531 56.25 28.160156 C 56.25 13.78125 45.453125 1.925781 31.527344 0.246094 Z M 24.722656 0.246094 "/>
<path style=" stroke:none;fill-rule:nonzero;fill:rgb(0%,14.117647%,49.019608%);fill-opacity:1;" d="M 24.96875 0.214844 C 12.199219 1.640625 2.015625 11.617188 0.273438 24.289062 L 24.96875 24.289062 Z M 24.96875 0.214844 "/>
<path style=" stroke:none;fill-rule:nonzero;fill:rgb(100%,100%,100%);fill-opacity:1;" d="M 15.664062 2.945312 C 7.488281 6.996094 1.566406 14.902344 0.269531 24.289062 L 6.449219 24.289062 L 6.449219 15.40625 L 19.136719 24.289062 L 24.96875 24.289062 L 24.96875 23.136719 L 12.023438 14.074219 L 24.96875 14.074219 L 24.96875 5.492188 L 12.027344 5.492188 Z M 15.664062 2.945312 "/>
<path style=" stroke:none;fill-rule:nonzero;fill:rgb(81.176471%,7.843137%,16.862745%);fill-opacity:1;" d="M 9.417969 7.164062 C 4.550781 11.503906 1.203125 17.511719 0.269531 24.289062 L 4.78125 24.289062 L 4.78125 13.21875 L 20.589844 24.289062 L 24.96875 24.289062 L 24.96875 24.15625 L 8.1875 12.40625 L 24.96875 12.40625 L 24.96875 7.164062 Z M 9.417969 7.164062 "/>
<path style="fill:none;stroke-width:0.177008;stroke-linecap:butt;stroke-linejoin:miter;stroke:rgb(0%,0%,0%);stroke-opacity:1;stroke-miterlimit:4;" d="M 35.094846 9.636713 C 35.090079 15.961955 35.104379 22.287197 35.085313 28.607672 C 34.904183 30.933759 32.716326 32.363731 30.790631 33.264613 C 28.979333 34.08923 27.048872 34.646919 25.08981 35.009179 C 22.096403 34.413357 19.007664 33.536308 16.643444 31.524814 C 15.551899 30.614399 14.95131 29.20826 15.080008 27.792588 C 15.080008 21.739041 15.080008 15.69026 15.080008 9.636713 C 21.753209 9.636713 28.421644 9.636713 35.094846 9.636713 Z M 35.094846 9.636713 " transform="matrix(0.819509,0,0,0.819509,19.794139,17.934656)"/>
<path style=" stroke:none;fill-rule:nonzero;fill:rgb(100%,100%,100%);fill-opacity:1;" d="M 48.527344 25.832031 C 48.523438 31.015625 48.535156 36.199219 48.523438 41.378906 C 48.371094 43.285156 46.578125 44.457031 45.003906 45.195312 C 43.515625 45.871094 41.933594 46.328125 40.328125 46.625 C 37.878906 46.136719 35.347656 45.417969 33.410156 43.769531 C 32.511719 43.023438 32.019531 41.871094 32.128906 40.710938 C 32.128906 35.75 32.128906 30.792969 32.128906 25.832031 C 37.59375 25.832031 43.0625 25.832031 48.527344 25.832031 Z M 48.527344 25.832031 "/>
<path style=" stroke:none;fill-rule:nonzero;fill:rgb(18.431373%,56.078431%,13.333333%);fill-opacity:1;" d="M 48.527344 41.1875 C 48.519531 43.023438 46.875 44.265625 45.382812 45.011719 C 43.789062 45.796875 42.070312 46.300781 40.328125 46.625 C 37.878906 46.136719 35.347656 45.417969 33.410156 43.769531 C 32.59375 43.027344 31.792969 41.777344 32.292969 40.671875 C 32.128906 41.175781 32.980469 42.441406 32.554688 41.308594 C 32.46875 40.859375 32.804688 40.011719 32.714844 40.953125 C 32.691406 41.378906 33.339844 42.324219 33.03125 41.394531 C 32.929688 40.902344 33.269531 39.773438 33.164062 40.867188 C 33.042969 41.496094 33.851562 42.4375 33.6875 41.265625 C 33.625 40.835938 33.507812 40.367188 33.84375 41.035156 C 33.992188 41.441406 33.9375 42.367188 34.089844 41.460938 C 34.15625 40.238281 34.109375 42.230469 34.507812 42.019531 C 34.351562 41.710938 34.460938 40.496094 34.578125 41.4375 C 35.019531 42.289062 34.636719 41.339844 34.925781 41.015625 C 34.785156 41.585938 35.6875 42.097656 35.261719 41.25 C 35.148438 40.484375 35.804688 42.347656 35.59375 41.210938 C 35.46875 40.546875 36.320312 42.324219 35.929688 41.289062 C 35.683594 40.644531 36.421875 40.945312 36.777344 40.910156 C 37.980469 40.945312 39.1875 41.074219 40.390625 41.046875 C 41.699219 40.953125 43.007812 40.859375 44.3125 40.769531 C 44.558594 40.558594 44.800781 40.347656 45.046875 40.140625 C 45.371094 40.589844 44.542969 41.65625 45.320312 40.804688 C 45.503906 39.976562 45.65625 40.882812 45.40625 41.210938 C 45.808594 40.96875 46.09375 39.5625 46 40.660156 C 45.953125 40.992188 45.46875 41.566406 46.035156 41.03125 C 46.28125 40.511719 46.425781 40.4375 46.253906 41.058594 C 45.769531 42.035156 47.035156 40.347656 46.832031 40.257812 C 47.140625 40.617188 46.492188 41.726562 47.019531 40.910156 C 47.136719 40.429688 47.269531 40.292969 47.253906 40.878906 C 46.945312 42.117188 48.003906 39.558594 47.671875 40.800781 C 47.492188 41.203125 47.28125 41.597656 47.746094 41.082031 C 48.097656 40.378906 47.867188 41.230469 47.816406 41.355469 C 48.121094 41.242188 48.277344 40.476562 48.203125 41.191406 C 48.195312 41.800781 48.507812 40.027344 48.527344 41.109375 Z M 48.527344 41.1875 "/>
<path style="fill-rule:nonzero;fill:rgb(83.137255%,0%,0%);fill-opacity:1;stroke-width:0.0735466;stroke-linecap:butt;stroke-linejoin:round;stroke:rgb(0%,0%,0%);stroke-opacity:1;stroke-miterlimit:4;" d="M 29.908815 17.544457 C 29.255795 17.339494 28.226215 17.768486 28.226215 16.934336 C 28.102284 16.70554 28.083218 17.859051 27.644693 17.129765 C 27.730491 17.0535 27.95452 15.909523 27.463563 16.143085 C 27.158503 16.55301 27.458797 15.53773 27.897321 15.561563 C 28.292947 15.18977 27.330099 14.274588 27.573195 15.113505 C 27.177569 15.094439 27.372998 14.284121 27.887788 14.450951 C 28.488376 14.03626 27.558895 12.963781 27.63516 13.907562 C 27.115604 13.821764 27.10607 13.283141 27.606561 13.178277 C 27.96882 12.65872 26.30052 13.149677 26.996439 12.401325 C 27.46833 11.896069 26.705678 11.576708 26.562681 11.686339 C 27.172802 11.30978 26.472116 11.014253 26.257621 11.214449 C 26.248087 10.232535 25.380571 11.347913 25.108877 10.456564 C 24.713251 10.780691 24.718018 11.071452 24.203228 10.690126 C 24.188928 11.257348 24.265193 11.362212 23.640772 11.085751 C 23.278513 11.328846 24.003032 11.996167 23.154582 11.719705 C 22.530161 12.043832 23.855268 13.144911 22.658858 12.944715 C 22.258466 12.682553 23.22608 14.303188 22.334731 13.716899 C 21.696011 13.578669 22.482495 15.089672 23.092616 14.303188 C 23.307112 14.85611 22.191734 15.351834 22.792322 14.698813 C 21.786575 14.70358 22.277532 15.675961 22.716057 15.971488 C 22.220334 16.352814 22.782789 17.37286 21.73891 16.996301 C 22.010604 17.90195 19.703583 17.0535 20.204073 18.106913 C 20.36137 18.526371 20.294638 19.045927 20.880927 18.626469 C 21.634045 18.345241 22.325198 17.88765 23.05925 17.592123 C 23.697971 17.577823 24.308092 17.739887 24.927747 17.825685 C 25.332905 17.91625 25.704698 17.844751 26.038358 17.592123 C 26.395851 17.520624 26.848676 17.477725 27.191869 17.630255 C 27.906855 17.921016 28.531276 18.41674 29.231962 18.712267 C 29.517956 18.7361 30.223409 18.993495 30.128077 18.507305 C 30.123311 18.149812 30.194809 17.820918 29.908815 17.544457 Z M 29.908815 17.544457 " transform="matrix(0.819509,0,0,0.819509,19.794139,17.934656)"/>
<path style="fill-rule:nonzero;fill:rgb(83.137255%,0%,0%);fill-opacity:1;stroke-width:0.0735466;stroke-linecap:butt;stroke-linejoin:round;stroke:rgb(0%,0%,0%);stroke-opacity:1;stroke-miterlimit:4;" d="M 19.803681 18.593103 C 20.566333 19.08406 20.742696 17.954382 20.22314 17.797085 C 20.571099 16.862837 19.102995 16.73414 18.674004 17.063033 C 17.696856 17.115466 18.502407 18.307109 19.079162 17.744653 C 19.689284 17.654088 19.379456 18.335708 19.803681 18.593103 Z M 19.803681 18.593103 " transform="matrix(0.819509,0,0,0.819509,19.794139,17.934656)"/>
<path style="fill-rule:nonzero;fill:rgb(39.215686%,70.588235%,81.960784%);fill-opacity:1;stroke-width:0.0551379;stroke-linecap:butt;stroke-linejoin:miter;stroke:rgb(0%,0%,0%);stroke-opacity:1;stroke-miterlimit:4;" d="M 30.638101 17.706521 C 31.824977 17.658855 31.443651 18.979195 31.129058 19.493985 C 31.686747 19.594083 32.3779 21.176585 31.391219 20.466366 C 30.199576 20.633196 29.670486 22.1442 29.956481 23.207145 C 29.603754 24.527486 32.00134 24.50842 31.267288 25.571365 C 30.6524 26.51038 30.766798 28.307378 29.479824 28.593372 C 28.860169 28.383643 27.987886 27.806888 28.297714 28.922266 C 27.501696 29.699217 26.281453 30.051943 25.394871 30.704964 C 24.184161 30.652532 23.173648 29.732583 22.048737 29.265459 C 21.734143 28.645805 21.834241 27.897453 20.976258 28.626738 C 19.670217 28.879367 19.493854 27.268265 19.088695 26.405515 C 18.931398 25.633331 18.102015 24.818247 19.284125 24.584685 C 20.5568 23.583704 20.466235 21.290983 19.017197 20.499732 C 18.531006 20.242337 17.897052 21.176585 18.187813 20.232804 C 18.51194 19.656049 19.37469 19.465386 18.592972 18.812365 C 18.102015 18.111679 19.70835 17.144065 19.279358 18.187944 C 19.798915 19.498752 21.414783 18.330942 22.267999 17.987748 C 23.102149 17.296595 24.031631 17.692221 24.903914 17.90195 C 25.75713 18.040181 26.557915 17.124999 27.372998 17.673155 C 28.31678 18.130745 29.284394 19.112659 30.409305 18.678901 C 30.857363 18.469172 30.814464 18.078313 30.638101 17.706521 Z M 30.638101 17.706521 " transform="matrix(0.819509,0,0,0.819509,19.794139,17.934656)"/>
<path style="fill-rule:nonzero;fill:rgb(100%,100%,100%);fill-opacity:1;stroke-width:0.0735201;stroke-linecap:butt;stroke-linejoin:miter;stroke:rgb(0%,14.117647%,49.019608%);stroke-opacity:1;stroke-miterlimit:10;" d="M 24.169862 24.074661 C 23.821902 23.264344 23.993499 22.382528 24.75615 21.910638 C 25.261407 21.820073 25.714231 21.243317 26.205188 21.78194 C 26.991673 20.981156 28.13565 21.667542 28.931668 21.958303 C 29.83255 21.824839 29.80395 22.959283 30.018446 23.564638 C 30.175743 23.984097 30.571369 24.284391 30.823997 24.656183 C 30.185276 24.861146 29.570388 25.194806 28.922135 25.323503 C 27.897321 25.218639 26.977373 25.84306 25.957326 25.804927 C 25.251874 25.85736 24.551188 25.909792 23.850501 25.966991 C 23.58834 25.657164 23.326178 25.347336 23.064017 25.042276 C 23.431043 24.718149 23.802836 24.394022 24.169862 24.074661 Z M 24.169862 24.074661 " transform="matrix(0.819509,0,0,0.819509,19.794139,17.934656)"/>
<path style="fill-rule:nonzero;fill:rgb(83.137255%,0%,0%);fill-opacity:1;stroke-width:0.0735466;stroke-linecap:butt;stroke-linejoin:round;stroke:rgb(0%,0%,0%);stroke-opacity:1;stroke-miterlimit:4;" d="M 21.786575 28.760202 C 20.914293 28.893666 20.266039 29.55622 19.341324 29.36079 C 18.979064 29.827915 17.85892 30.285505 18.69307 31.048157 C 19.083929 31.348451 19.479554 30.638232 19.260292 31.377051 C 19.794148 32.2684 20.585399 31.229287 20.380437 30.776462 C 20.885693 30.018577 19.989578 31.858474 21.07159 31.424716 C 21.600679 31.019558 21.491048 30.214007 22.296599 29.994745 C 23.021118 29.398923 21.676944 29.413223 21.786575 28.760202 Z M 21.786575 28.760202 " transform="matrix(0.819509,0,0,0.819509,19.794139,17.934656)"/>
<path style="fill-rule:nonzero;fill:rgb(83.137255%,0%,0%);fill-opacity:1;stroke-width:0.0735466;stroke-linecap:butt;stroke-linejoin:round;stroke:rgb(0%,0%,0%);stroke-opacity:1;stroke-miterlimit:4;" d="M 20.084909 22.106067 C 19.19356 21.924937 18.159214 21.858205 17.515726 22.697122 C 17.348896 23.431174 17.553859 24.598984 16.433714 24.50842 C 15.918925 24.522719 17.282164 24.861146 16.900839 25.023209 C 16.929438 25.490334 17.091501 26.32925 16.943738 26.553279 C 17.653957 26.305417 17.248798 24.260558 17.568159 25.695296 C 17.99715 26.081389 17.553859 27.258732 18.144914 26.310184 C 18.35941 25.905025 17.653957 24.460754 18.240245 25.414068 C 18.635871 25.757262 18.449975 26.653377 18.740736 25.742962 C 18.454741 25.032743 18.759802 24.746748 19.393756 24.489353 C 19.760782 24.303457 19.827514 23.822033 20.061076 23.507439 C 20.070609 23.040315 20.075376 22.573191 20.084909 22.106067 Z M 20.084909 22.106067 " transform="matrix(0.819509,0,0,0.819509,19.794139,17.934656)"/>
<path style="fill:none;stroke-width:0.0735201;stroke-linecap:butt;stroke-linejoin:miter;stroke:rgb(0%,0%,0%);stroke-opacity:1;stroke-miterlimit:10;" d="M 18.602505 24.584685 C 18.407076 24.570385 18.173513 24.460754 18.130614 24.246258 " transform="matrix(0.819509,0,0,0.819509,19.794139,17.934656)"/>
<path style="fill:none;stroke-width:0.0735201;stroke-linecap:butt;stroke-linejoin:miter;stroke:rgb(0%,0%,0%);stroke-opacity:1;stroke-miterlimit:10;" d="M 17.425162 24.041295 C 17.64919 24.022229 17.715922 24.303457 17.930418 24.293924 " transform="matrix(0.819509,0,0,0.819509,19.794139,17.934656)"/>
<path style=" stroke:none;fill-rule:nonzero;fill:rgb(0%,0%,0%);fill-opacity:1;" d="M 35.527344 37.113281 C 34.832031 36.804688 35.398438 37.390625 35.054688 37.609375 C 35.675781 37.484375 34.800781 36.933594 35.527344 37.113281 Z M 35.527344 37.113281 "/>
<path style="fill-rule:nonzero;fill:rgb(47.058824%,26.666667%,12.941176%);fill-opacity:1;stroke-width:0.0551379;stroke-linecap:butt;stroke-linejoin:miter;stroke:rgb(0%,0%,0%);stroke-opacity:1;stroke-miterlimit:4;" d="M 24.10313 18.912463 C 24.57502 20.790493 25.051678 22.668523 25.528335 24.546552 C 26.019292 24.470287 25.499735 23.860166 25.499735 23.526506 C 25.056444 21.982136 24.608386 20.437767 24.160329 18.898164 Z M 24.10313 18.912463 " transform="matrix(0.819509,0,0,0.819509,19.794139,17.934656)"/>
<path style=" stroke:none;fill-rule:nonzero;fill:rgb(0%,0%,0%);fill-opacity:1;" d="M 36.3125 43.101562 C 35.855469 42.9375 35.589844 43.28125 36.058594 42.820312 C 36.691406 42.484375 35.835938 42.984375 36.3125 43.101562 Z M 36.3125 43.101562 "/>
<path style="fill-rule:nonzero;fill:rgb(39.215686%,70.588235%,81.960784%);fill-opacity:1;stroke-width:0.0551379;stroke-linecap:butt;stroke-linejoin:miter;stroke:rgb(0%,14.117647%,49.019608%);stroke-opacity:1;stroke-miterlimit:2.613;" d="M 18.817001 31.596313 C 17.920885 31.296019 18.950465 29.727817 18.983831 30.895627 C 18.883733 31.110123 18.759802 31.348451 18.817001 31.596313 Z M 18.817001 31.596313 " transform="matrix(0.819509,0,0,0.819509,19.794139,17.934656)"/>
<path style="fill-rule:nonzero;fill:rgb(39.215686%,70.588235%,81.960784%);fill-opacity:1;stroke-width:0.0551379;stroke-linecap:butt;stroke-linejoin:miter;stroke:rgb(0%,14.117647%,49.019608%);stroke-opacity:1;stroke-miterlimit:2.613;" d="M 20.04201 32.196901 C 19.126828 32.173068 19.417589 30.266439 19.994344 31.23882 C 19.965745 31.562947 19.903779 31.89184 20.04201 32.196901 Z M 20.04201 32.196901 " transform="matrix(0.819509,0,0,0.819509,19.794139,17.934656)"/>
<path style=" stroke:none;fill-rule:nonzero;fill:rgb(0%,0%,0%);fill-opacity:1;" d="M 36.070312 42.277344 C 35.671875 42.726562 35.324219 42.34375 36.070312 42.277344 Z M 36.070312 42.277344 "/>
<path style="fill-rule:nonzero;fill:rgb(39.215686%,70.588235%,81.960784%);fill-opacity:1;stroke-width:0.0551379;stroke-linecap:butt;stroke-linejoin:miter;stroke:rgb(0%,14.117647%,49.019608%);stroke-opacity:1;stroke-miterlimit:2.613;" d="M 20.623532 32.030071 C 21.662645 32.015771 20.90476 30.161575 20.647365 31.281719 C 20.761762 31.510515 20.799895 31.810809 20.623532 32.030071 Z M 20.623532 32.030071 " transform="matrix(0.819509,0,0,0.819509,19.794139,17.934656)"/>
<path style="fill-rule:nonzero;fill:rgb(96.078431%,80.784314%,0%);fill-opacity:1;stroke-width:0.0735201;stroke-linecap:butt;stroke-linejoin:miter;stroke:rgb(0%,0%,0%);stroke-opacity:1;stroke-miterlimit:2.613;" d="M 23.669372 17.296595 C 24.393891 17.944849 26.047891 17.391927 26.27192 17.458659 C 26.028825 17.754186 25.761897 18.202244 26.128923 18.521604 C 25.96686 18.783766 24.74185 17.739887 24.260427 18.521604 C 23.340478 18.855265 24.632219 18.187944 24.08883 17.787552 C 23.950599 17.625489 23.812369 17.458659 23.669372 17.296595 Z M 23.669372 17.296595 " transform="matrix(0.819509,0,0,0.819509,19.794139,17.934656)"/>
<path style=" stroke:none;fill-rule:nonzero;fill:rgb(100%,100%,100%);fill-opacity:1;" d="M 36.910156 43.5 C 36.738281 43.515625 37.015625 44.261719 36.882812 43.5625 Z M 36.910156 43.5 "/>
<path style="fill-rule:nonzero;fill:rgb(83.137255%,0%,0%);fill-opacity:1;stroke-width:0.0735466;stroke-linecap:butt;stroke-linejoin:round;stroke:rgb(0%,0%,0%);stroke-opacity:1;stroke-miterlimit:4;" d="M 30.223409 18.593103 C 29.460757 19.08406 29.289161 17.954382 29.808717 17.797085 C 29.455991 16.862837 30.924095 16.73414 31.357853 17.063033 C 32.330234 17.120232 31.524683 18.307109 30.952694 17.744653 C 30.342573 17.654088 30.647634 18.335708 30.223409 18.593103 Z M 30.223409 18.593103 " transform="matrix(0.819509,0,0,0.819509,19.794139,17.934656)"/>
<path style="fill-rule:nonzero;fill:rgb(96.078431%,80.784314%,0%);fill-opacity:1;stroke-width:0.0735201;stroke-linecap:butt;stroke-linejoin:miter;stroke:rgb(0%,0%,0%);stroke-opacity:1;stroke-miterlimit:2.613;" d="M 26.381551 18.202244 C 25.6046 18.411973 26.743811 17.110699 27.225235 17.892417 C 28.250048 18.364308 29.370192 19.350988 30.557069 18.769466 C 31.434118 18.550204 30.671467 17.086866 30.337807 18.035414 C 31.310187 18.097379 29.66572 19.131726 29.103264 18.454872 C 28.30248 18.08308 27.597027 17.468192 26.734278 17.267996 C 25.208975 16.910503 25.866762 19.589317 26.681845 18.226077 C 26.562681 17.258463 25.609367 18.531138 26.381551 18.202244 Z M 26.381551 18.202244 " transform="matrix(0.819509,0,0,0.819509,19.794139,17.934656)"/>
<path style="fill-rule:nonzero;fill:rgb(89.411765%,79.607843%,36.862745%);fill-opacity:1;stroke-width:0.0551379;stroke-linecap:butt;stroke-linejoin:miter;stroke:rgb(0%,0%,0%);stroke-opacity:1;stroke-miterlimit:2.613;" d="M 19.779848 21.071721 C 19.851347 20.618896 19.593952 20.023075 19.999111 19.703714 C 20.428102 20.137473 20.5568 19.575017 21.090656 19.474919 C 21.386183 19.26519 22.010604 19.126959 22.048737 19.622683 C 22.916253 18.831432 23.159348 20.552164 23.669372 20.852458 C 24.441556 21.186118 24.212761 22.306263 24.279493 23.040315 C 24.250893 23.683803 24.336692 24.365422 24.236594 24.98031 C 23.693204 25.628564 23.149815 26.276818 22.606426 26.925072 C 21.352817 26.538979 20.05631 26.276818 18.8599 25.714362 C 18.793168 25.347336 18.402309 24.861146 18.950465 24.718149 C 19.303191 24.475054 19.760782 24.317757 19.813214 23.836333 C 19.970511 23.307243 20.351837 22.79722 20.132575 22.234764 C 20.094442 21.815306 19.956212 21.443513 19.779848 21.071721 Z M 19.779848 21.071721 " transform="matrix(0.819509,0,0,0.819509,19.794139,17.934656)"/>
<path style="fill-rule:nonzero;fill:rgb(47.058824%,26.666667%,12.941176%);fill-opacity:1;stroke-width:0.0551379;stroke-linecap:butt;stroke-linejoin:miter;stroke:rgb(0%,0%,0%);stroke-opacity:1;stroke-miterlimit:4;" d="M 27.163269 22.387295 C 27.720958 21.376781 27.940221 23.016482 28.078451 23.507439 C 28.097518 24.108027 29.31776 24.584685 28.741005 25.352103 C 28.516976 25.595198 28.450244 26.372149 28.035552 25.962224 C 27.716192 25.714362 27.044105 25.628564 27.163269 25.104241 C 27.163269 24.198592 27.163269 23.292944 27.163269 22.387295 Z M 27.163269 22.387295 " transform="matrix(0.819509,0,0,0.819509,19.794139,17.934656)"/>
<path style=" stroke:none;fill-rule:nonzero;fill:rgb(100%,100%,100%);fill-opacity:1;" d="M 35.078125 43.117188 C 34.898438 42.976562 35.101562 44 35.019531 43.25 Z M 35.078125 43.117188 "/>
<path style="fill:none;stroke-width:0.0735201;stroke-linecap:butt;stroke-linejoin:miter;stroke:rgb(0%,0%,0%);stroke-opacity:1;stroke-miterlimit:10;" d="M 21.36235 30.523834 C 21.395717 30.395137 21.257486 30.295039 21.295618 30.166341 " transform="matrix(0.819509,0,0,0.819509,19.794139,17.934656)"/>
<path style="fill:none;stroke-width:0.0551379;stroke-linecap:butt;stroke-linejoin:miter;stroke:rgb(0%,0%,0%);stroke-opacity:1;stroke-miterlimit:10;" d="M 21.953405 19.708481 C 21.915273 20.156539 22.263233 20.466366 22.372864 20.866758 " transform="matrix(0.819509,0,0,0.819509,19.794139,17.934656)"/>
<path style="fill-rule:nonzero;fill:rgb(83.137255%,0%,0%);fill-opacity:1;stroke-width:0.0735466;stroke-linecap:butt;stroke-linejoin:round;stroke:rgb(0%,0%,0%);stroke-opacity:1;stroke-miterlimit:4;" d="M 28.259581 28.760202 C 29.127097 28.893666 29.780118 29.55622 30.704833 29.36079 C 31.062326 29.827915 32.187237 30.285505 31.353087 31.048157 C 30.962228 31.348451 30.566602 30.638232 30.785864 31.377051 C 30.247242 32.2684 29.460757 31.229287 29.66572 30.776462 C 29.160463 30.018577 30.056579 31.858474 28.9698 31.424716 C 28.440711 31.019558 28.555108 30.214007 27.749558 29.994745 C 27.025039 29.398923 28.369212 29.413223 28.259581 28.760202 Z M 28.259581 28.760202 " transform="matrix(0.819509,0,0,0.819509,19.794139,17.934656)"/>
<path style="fill:none;stroke-width:0.0551379;stroke-linecap:butt;stroke-linejoin:miter;stroke:rgb(0%,0%,0%);stroke-opacity:1;stroke-miterlimit:10;" d="M 21.624512 20.866758 C 21.853307 22.716188 22.082103 24.570385 22.310898 26.419815 " transform="matrix(0.819509,0,0,0.819509,19.794139,17.934656)"/>
<path style="fill:none;stroke-width:0.0551379;stroke-linecap:butt;stroke-linejoin:miter;stroke:rgb(0%,0%,0%);stroke-opacity:1;stroke-miterlimit:10;" d="M 21.781809 20.852458 C 22.039204 22.577958 22.296599 24.308224 22.553994 26.033723 " transform="matrix(0.819509,0,0,0.819509,19.794139,17.934656)"/>
<path style="fill:none;stroke-width:0.0551379;stroke-linecap:butt;stroke-linejoin:miter;stroke:rgb(0%,0%,0%);stroke-opacity:1;stroke-miterlimit:10;" d="M 21.924806 20.828626 C 22.220334 22.539825 22.520628 24.255791 22.816155 25.966991 " transform="matrix(0.819509,0,0,0.819509,19.794139,17.934656)"/>
<path style="fill-rule:nonzero;fill:rgb(47.058824%,26.666667%,12.941176%);fill-opacity:1;stroke-width:0.0551379;stroke-linecap:butt;stroke-linejoin:miter;stroke:rgb(0%,0%,0%);stroke-opacity:1;stroke-miterlimit:4;" d="M 21.90574 19.889611 C 22.382397 21.76764 22.859054 23.64567 23.330945 25.5237 C 23.826669 25.447434 23.302346 24.837313 23.307112 24.503653 C 22.859054 22.959283 22.415763 21.414914 21.967705 19.870544 Z M 21.90574 19.889611 " transform="matrix(0.819509,0,0,0.819509,19.794139,17.934656)"/>
<path style="fill:none;stroke-width:0.0551379;stroke-linecap:butt;stroke-linejoin:miter;stroke:rgb(0%,0%,0%);stroke-opacity:1;stroke-miterlimit:10;" d="M 22.42053 20.623663 C 22.963919 21.996436 23.507308 23.369209 24.045931 24.741982 " transform="matrix(0.819509,0,0,0.819509,19.794139,17.934656)"/>
<path style="fill:none;stroke-width:0.0551379;stroke-linecap:butt;stroke-linejoin:miter;stroke:rgb(0%,0%,0%);stroke-opacity:1;stroke-miterlimit:10;" d="M 22.310898 20.690395 C 22.835221 22.125133 23.359544 23.555105 23.883867 24.989843 " transform="matrix(0.819509,0,0,0.819509,19.794139,17.934656)"/>
<path style=" stroke:none;fill-rule:nonzero;fill:rgb(100%,100%,100%);fill-opacity:1;" d="M 35.964844 43.996094 C 35.820312 43.707031 35.753906 43.234375 35.820312 43.871094 C 35.667969 43.789062 35.980469 44.105469 35.964844 43.996094 Z M 35.964844 43.996094 "/>
<path style="fill:none;stroke-width:0.0551379;stroke-linecap:butt;stroke-linejoin:miter;stroke:rgb(0%,0%,0%);stroke-opacity:1;stroke-miterlimit:10;" d="M 22.492028 20.571231 C 23.054484 21.820073 23.612173 23.073681 24.169862 24.322523 " transform="matrix(0.819509,0,0,0.819509,19.794139,17.934656)"/>
<path style="fill:none;stroke-width:0.0551379;stroke-linecap:butt;stroke-linejoin:miter;stroke:rgb(0%,0%,0%);stroke-opacity:1;stroke-miterlimit:10;" d="M 22.034437 20.804793 C 22.37763 22.487393 22.720824 24.174759 23.064017 25.85736 " transform="matrix(0.819509,0,0,0.819509,19.794139,17.934656)"/>
<path style="fill-rule:nonzero;fill:rgb(96.078431%,80.784314%,0%);fill-opacity:1;stroke-width:0.0735201;stroke-linecap:butt;stroke-linejoin:miter;stroke:rgb(0%,0%,0%);stroke-opacity:1;stroke-miterlimit:2.613;" d="M 30.456971 24.546552 C 28.936434 23.588471 29.327293 20.890591 31.033726 20.361501 C 30.061345 20.966856 29.703852 22.182332 29.989847 23.254811 C 30.056579 23.717169 30.275841 24.127094 30.456971 24.546552 Z M 30.456971 24.546552 " transform="matrix(0.819509,0,0,0.819509,19.794139,17.934656)"/>
<path style="fill-rule:nonzero;fill:rgb(47.058824%,26.666667%,12.941176%);fill-opacity:1;stroke-width:0.0336668;stroke-linecap:butt;stroke-linejoin:miter;stroke:rgb(0%,0%,0%);stroke-opacity:1;stroke-miterlimit:4;" d="M 27.291967 22.196632 C 26.257621 22.520759 25.228041 22.844886 24.198461 23.173779 C 24.141262 23.63137 24.08883 24.088961 24.031631 24.546552 C 23.717037 25.409302 22.077336 25.552299 21.939106 25.943158 C 22.310898 26.295884 22.625492 26.748709 23.030651 27.049003 C 23.750403 27.196766 24.474922 27.349297 25.194675 27.501827 C 25.981159 26.925072 26.724745 26.300651 27.420664 25.619031 C 27.3158 24.541786 27.434964 23.474073 27.282434 22.392061 Z M 27.291967 22.196632 " transform="matrix(0.819509,0,0,0.819509,19.794139,17.934656)"/>
<path style="fill:none;stroke-width:0.0551379;stroke-linecap:butt;stroke-linejoin:miter;stroke:rgb(0%,0%,0%);stroke-opacity:1;stroke-miterlimit:10;" d="M 24.07453 24.203359 C 25.166075 23.850633 26.257621 23.49314 27.320566 23.054615 " transform="matrix(0.819509,0,0,0.819509,19.794139,17.934656)"/>
<path style="fill:none;stroke-width:0.0551379;stroke-linecap:butt;stroke-linejoin:miter;stroke:rgb(0%,0%,0%);stroke-opacity:1;stroke-miterlimit:10;" d="M 23.097383 25.361636 C 24.832415 24.989843 26.624647 24.503653 28.078451 23.440707 " transform="matrix(0.819509,0,0,0.819509,19.794139,17.934656)"/>
<path style="fill:none;stroke-width:0.0551379;stroke-linecap:butt;stroke-linejoin:miter;stroke:rgb(0%,0%,0%);stroke-opacity:1;stroke-miterlimit:10;" d="M 28.078451 23.822033 C 26.996439 24.694316 25.585534 25.004143 24.279493 25.395002 C 23.650305 25.542766 23.016351 25.657164 22.372864 25.666697 " transform="matrix(0.819509,0,0,0.819509,19.794139,17.934656)"/>
<path style="fill:none;stroke-width:0.0551379;stroke-linecap:butt;stroke-linejoin:miter;stroke:rgb(0%,0%,0%);stroke-opacity:1;stroke-miterlimit:10;" d="M 27.372998 25.252005 C 26.28622 25.762028 25.151776 26.310184 23.9363 26.395982 " transform="matrix(0.819509,0,0,0.819509,19.794139,17.934656)"/>
<path style="fill-rule:nonzero;fill:rgb(83.137255%,0%,0%);fill-opacity:1;stroke-width:0.0735466;stroke-linecap:butt;stroke-linejoin:round;stroke:rgb(0%,0%,0%);stroke-opacity:1;stroke-miterlimit:4;" d="M 29.975547 22.106067 C 30.86213 21.924937 31.896476 21.858205 32.54473 22.697122 C 32.71156 23.431174 32.506597 24.598984 33.626742 24.50842 C 34.141532 24.522719 32.778292 24.861146 33.159618 25.023209 C 33.131018 25.490334 32.968955 26.32925 33.111952 26.553279 C 32.406499 26.305417 32.811658 24.260558 32.492297 25.695296 C 32.063306 26.081389 32.506597 27.258732 31.915542 26.310184 C 31.701046 25.905025 32.406499 24.460754 31.815444 25.414068 C 31.424585 25.757262 31.610481 26.653377 31.314954 25.742962 C 31.605715 25.032743 31.300654 24.746748 30.6667 24.489353 C 30.299674 24.303457 30.232942 23.822033 29.99938 23.507439 C 29.989847 23.040315 29.980314 22.573191 29.975547 22.106067 Z M 29.975547 22.106067 " transform="matrix(0.819509,0,0,0.819509,19.794139,17.934656)"/>
<path style="fill-rule:nonzero;fill:rgb(100%,100%,100%);fill-opacity:1;stroke-width:0.0735201;stroke-linecap:butt;stroke-linejoin:miter;stroke:rgb(0%,14.117647%,49.019608%);stroke-opacity:1;stroke-miterlimit:10;" d="M 18.921865 25.623798 C 19.422355 25.256771 20.242206 24.050829 20.995324 24.99461 C 20.947659 25.852593 21.977238 24.565618 22.139302 25.528466 C 21.929573 27.1777 22.825688 24.765814 23.707504 25.399769 C 24.760917 25.747728 23.550207 27.392196 25.08981 27.182467 C 26.13369 26.891706 26.362485 25.256771 27.701892 25.5237 C 28.474077 26.424582 28.521742 24.422621 29.589455 24.517953 C 30.275841 24.260558 30.86213 24.708616 31.457951 24.975544 C 31.090925 26.143354 30.547536 27.239666 30.061345 28.35981 C 29.689553 28.445608 29.293927 28.745903 28.9698 28.397943 C 28.659973 28.059516 28.097518 28.135781 28.235748 28.679171 C 28.321546 29.127228 27.735258 29.22256 27.487396 29.494254 C 26.991673 29.87558 26.348185 29.975678 25.881061 30.40467 C 25.509269 30.838428 25.45207 31.172088 24.74185 30.976659 C 24.393891 31.010025 24.303326 30.295039 23.874334 30.156808 C 23.292812 29.885113 22.711291 29.613419 22.134535 29.336958 C 21.962939 28.988998 21.991538 28.469441 21.686477 28.235879 C 21.300385 27.978484 21.200287 28.793568 20.72363 28.607672 C 20.36137 28.598139 20.018177 28.240646 19.751249 28.021384 C 19.474788 27.225366 19.198327 26.424582 18.921865 25.623798 Z M 18.921865 25.623798 " transform="matrix(0.819509,0,0,0.819509,19.794139,17.934656)"/>
<path style="fill:none;stroke-width:0.0735201;stroke-linecap:butt;stroke-linejoin:miter;stroke:rgb(0%,0%,0%);stroke-opacity:1;stroke-miterlimit:2.613;" d="M 26.753344 17.468192 C 26.372018 17.439592 26.043125 17.758953 26.095557 18.149812 " transform="matrix(0.819509,0,0,0.819509,19.794139,17.934656)"/>
<path style="fill-rule:nonzero;fill:rgb(96.078431%,80.784314%,0%);fill-opacity:1;stroke-width:0.0735201;stroke-linecap:butt;stroke-linejoin:miter;stroke:rgb(0%,0%,0%);stroke-opacity:1;stroke-miterlimit:2.613;" d="M 31.272055 25.027976 C 29.374959 24.441688 29.15093 21.586511 30.723899 20.518798 C 31.34832 19.679882 32.568563 21.10032 31.357853 21.090787 C 30.742965 20.61413 31.624781 20.637963 31.534216 20.699928 C 30.576135 20.351968 30.018446 21.93447 30.047046 22.740021 C 29.98508 23.783901 30.981294 24.613284 31.739179 24.889745 C 31.071859 26.057556 31.048026 27.573326 30.089945 28.569539 C 29.413092 29.384623 27.48263 28.135781 28.574175 27.477994 C 29.589455 27.52566 28.264348 28.507574 28.521742 27.792588 C 28.211915 27.940352 29.699086 28.988998 30.104245 27.959418 C 30.633334 27.044236 30.814464 25.976524 31.272055 25.027976 Z M 31.272055 25.027976 " transform="matrix(0.819509,0,0,0.819509,19.794139,17.934656)"/>
<path style="fill-rule:nonzero;fill:rgb(96.078431%,80.784314%,0%);fill-opacity:1;stroke-width:0.0735201;stroke-linecap:butt;stroke-linejoin:miter;stroke:rgb(0%,0%,0%);stroke-opacity:1;stroke-miterlimit:2.613;" d="M 27.902088 28.293078 C 28.66474 28.70777 26.991673 28.846001 27.611327 28.088116 C 28.907835 27.697257 28.431178 29.837448 27.353932 29.813615 C 26.80101 29.837448 25.070744 30.924226 26.109857 31.162555 C 26.047891 31.334151 25.466369 30.714497 26.238554 30.809828 C 26.886808 31.672578 24.970646 31.524814 25.485436 30.561967 C 26.009759 29.489488 27.854422 29.856514 28.13565 28.583839 C 28.188082 28.426542 28.068918 28.240646 27.902088 28.293078 Z M 27.902088 28.293078 " transform="matrix(0.819509,0,0,0.819509,19.794139,17.934656)"/>
<path style="fill:none;stroke-width:0.0735201;stroke-linecap:butt;stroke-linejoin:miter;stroke:rgb(0%,0%,0%);stroke-opacity:1;stroke-miterlimit:2.613;" d="M 27.916388 28.293078 C 28.226215 28.259712 28.373979 28.593372 28.426411 28.841234 " transform="matrix(0.819509,0,0,0.819509,19.794139,17.934656)"/>
<path style="fill:none;stroke-width:0.0735201;stroke-linecap:butt;stroke-linejoin:miter;stroke:rgb(0%,0%,0%);stroke-opacity:1;stroke-miterlimit:2.613;" d="M 28.507443 27.787821 C 28.111817 27.973718 28.540809 28.545707 28.793437 28.664871 " transform="matrix(0.819509,0,0,0.819509,19.794139,17.934656)"/>
<path style="fill-rule:nonzero;fill:rgb(96.078431%,80.784314%,0%);fill-opacity:1;stroke-width:0.0735201;stroke-linecap:butt;stroke-linejoin:miter;stroke:rgb(0%,0%,0%);stroke-opacity:1;stroke-miterlimit:2.613;" d="M 23.669372 18.202244 C 24.446323 18.411973 23.307112 17.110699 22.825688 17.892417 C 21.800875 18.364308 20.680731 19.350988 19.498621 18.769466 C 18.616805 18.550204 19.379456 17.086866 19.713116 18.035414 C 18.740736 18.097379 20.385203 19.131726 20.947659 18.454872 C 21.748443 18.08308 22.453896 17.468192 23.316645 17.267996 C 24.841948 16.910503 24.184161 19.589317 23.369078 18.226077 C 23.488242 17.258463 24.441556 18.531138 23.669372 18.202244 Z M 23.669372 18.202244 " transform="matrix(0.819509,0,0,0.819509,19.794139,17.934656)"/>
<path style="fill-rule:nonzero;fill:rgb(96.078431%,80.784314%,0%);fill-opacity:1;stroke-width:0.0735201;stroke-linecap:butt;stroke-linejoin:miter;stroke:rgb(0%,0%,0%);stroke-opacity:1;stroke-miterlimit:2.613;" d="M 19.593952 24.546552 C 21.114489 23.588471 20.72363 20.890591 19.017197 20.361501 C 19.989578 20.966856 20.347071 22.182332 20.061076 23.254811 C 19.999111 23.717169 19.775082 24.127094 19.593952 24.546552 Z M 19.593952 24.546552 " transform="matrix(0.819509,0,0,0.819509,19.794139,17.934656)"/>
<path style="fill:none;stroke-width:0.0735201;stroke-linecap:butt;stroke-linejoin:miter;stroke:rgb(0%,0%,0%);stroke-opacity:1;stroke-miterlimit:2.613;" d="M 23.297579 17.468192 C 23.678905 17.439592 24.007798 17.758953 23.960133 18.149812 " transform="matrix(0.819509,0,0,0.819509,19.794139,17.934656)"/>
<path style="fill-rule:nonzero;fill:rgb(96.078431%,80.784314%,0%);fill-opacity:1;stroke-width:0.0735201;stroke-linecap:butt;stroke-linejoin:miter;stroke:rgb(0%,0%,0%);stroke-opacity:1;stroke-miterlimit:2.613;" d="M 18.778868 25.027976 C 20.623532 24.455987 20.895226 21.743807 19.446188 20.59983 C 18.988597 19.813346 17.48236 20.695162 18.531006 21.119386 C 19.226926 21.181352 18.70737 20.185138 18.51194 20.79526 C 19.269825 20.142239 20.084909 21.910638 20.003877 22.663756 C 20.099209 23.736235 19.093462 24.613284 18.311744 24.889745 C 18.979064 26.057556 19.002897 27.573326 19.960978 28.569539 C 20.637831 29.384623 22.568293 28.135781 21.476748 27.477994 C 20.461468 27.52566 21.786575 28.507574 21.529181 27.792588 C 21.839008 27.940352 20.351837 28.988998 19.946678 27.959418 C 19.417589 27.044236 19.236459 25.976524 18.778868 25.027976 Z M 18.778868 25.027976 " transform="matrix(0.819509,0,0,0.819509,19.794139,17.934656)"/>
<path style="fill-rule:nonzero;fill:rgb(96.078431%,80.784314%,0%);fill-opacity:1;stroke-width:0.0735201;stroke-linecap:butt;stroke-linejoin:miter;stroke:rgb(0%,0%,0%);stroke-opacity:1;stroke-miterlimit:2.613;" d="M 22.153602 28.293078 C 21.386183 28.70777 23.05925 28.846001 22.439596 28.088116 C 21.143088 27.697257 21.619745 29.837448 22.696991 29.813615 C 23.249913 29.837448 24.980179 30.924226 23.941066 31.162555 C 24.003032 31.334151 24.584554 30.714497 23.817135 30.809828 C 23.164115 31.672578 25.080277 31.524814 24.565487 30.561967 C 24.041164 29.489488 22.196501 29.856514 21.915273 28.583839 C 21.862841 28.426542 21.982005 28.240646 22.153602 28.293078 Z M 22.153602 28.293078 " transform="matrix(0.819509,0,0,0.819509,19.794139,17.934656)"/>
<path style="fill:none;stroke-width:0.0735201;stroke-linecap:butt;stroke-linejoin:miter;stroke:rgb(0%,0%,0%);stroke-opacity:1;stroke-miterlimit:2.613;" d="M 22.134535 28.293078 C 21.824708 28.259712 21.676944 28.593372 21.624512 28.841234 " transform="matrix(0.819509,0,0,0.819509,19.794139,17.934656)"/>
<path style="fill:none;stroke-width:0.0735201;stroke-linecap:butt;stroke-linejoin:miter;stroke:rgb(0%,0%,0%);stroke-opacity:1;stroke-miterlimit:2.613;" d="M 21.54348 27.787821 C 21.939106 27.973718 21.510114 28.545707 21.257486 28.664871 " transform="matrix(0.819509,0,0,0.819509,19.794139,17.934656)"/>
<path style="fill:none;stroke-width:0.0735201;stroke-linecap:butt;stroke-linejoin:miter;stroke:rgb(0%,0%,0%);stroke-opacity:1;stroke-miterlimit:2.613;" d="M 24.427257 18.106913 C 24.794283 17.897183 25.28524 17.897183 25.637966 18.149812 " transform="matrix(0.819509,0,0,0.819509,19.794139,17.934656)"/>
<path style="fill:none;stroke-width:0.0551379;stroke-linecap:butt;stroke-linejoin:miter;stroke:rgb(0%,0%,0%);stroke-opacity:1;stroke-miterlimit:2.613;" d="M 21.02869 21.762874 C 21.04299 21.109853 20.513901 20.58553 20.351837 19.970642 " transform="matrix(0.819509,0,0,0.819509,19.794139,17.934656)"/>
<path style="fill:none;stroke-width:0.0551379;stroke-linecap:butt;stroke-linejoin:miter;stroke:rgb(0%,0%,0%);stroke-opacity:1;stroke-miterlimit:2.613;" d="M 21.20982 19.603616 C 21.419549 20.118406 21.600679 20.642729 21.824708 21.152752 " transform="matrix(0.819509,0,0,0.819509,19.794139,17.934656)"/>
<path style="fill:none;stroke-width:0.0551379;stroke-linecap:butt;stroke-linejoin:miter;stroke:rgb(0%,0%,0%);stroke-opacity:1;stroke-miterlimit:10;" d="M 21.319451 22.1299 C 21.467215 22.31103 21.533947 22.549358 21.519647 22.778154 " transform="matrix(0.819509,0,0,0.819509,19.794139,17.934656)"/>
<path style="fill:none;stroke-width:0.0551379;stroke-linecap:butt;stroke-linejoin:miter;stroke:rgb(0%,0%,0%);stroke-opacity:1;stroke-miterlimit:10;" d="M 20.575866 21.872505 C 21.014391 22.26813 20.575866 23.040315 21.152621 23.373975 " transform="matrix(0.819509,0,0,0.819509,19.794139,17.934656)"/>
<path style="fill:none;stroke-width:0.0551379;stroke-linecap:butt;stroke-linejoin:miter;stroke:rgb(0%,0%,0%);stroke-opacity:1;stroke-miterlimit:10;" d="M 20.5425 23.540805 C 21.495815 23.331076 21.286085 24.560852 22.07257 24.727682 L 22.115469 24.846846 " transform="matrix(0.819509,0,0,0.819509,19.794139,17.934656)"/>
<path style="fill:none;stroke-width:0.0551379;stroke-linecap:butt;stroke-linejoin:miter;stroke:rgb(0%,0%,0%);stroke-opacity:1;stroke-miterlimit:10;" d="M 20.785595 24.074661 C 20.814195 24.108027 20.990558 24.303457 21.052523 24.365422 " transform="matrix(0.819509,0,0,0.819509,19.794139,17.934656)"/>
<path style="fill:none;stroke-width:0.0551379;stroke-linecap:butt;stroke-linejoin:miter;stroke:rgb(0%,0%,0%);stroke-opacity:1;stroke-miterlimit:10;" d="M 21.781809 23.569405 C 21.872374 23.717169 21.972472 23.869699 22.015371 24.041295 " transform="matrix(0.819509,0,0,0.819509,19.794139,17.934656)"/>
<path style="fill:none;stroke-width:0.0551379;stroke-linecap:butt;stroke-linejoin:miter;stroke:rgb(0%,0%,0%);stroke-opacity:1;stroke-miterlimit:10;" d="M 22.635025 19.970642 C 22.73989 20.104107 22.854288 20.232804 22.992518 20.332902 " transform="matrix(0.819509,0,0,0.819509,19.794139,17.934656)"/>
<path style="fill:none;stroke-width:0.0551379;stroke-linecap:butt;stroke-linejoin:miter;stroke:rgb(0%,0%,0%);stroke-opacity:1;stroke-miterlimit:10;" d="M 23.364311 21.43398 C 23.960133 21.958303 23.488242 22.840119 23.793303 23.47884 " transform="matrix(0.819509,0,0,0.819509,19.794139,17.934656)"/>
<path style="fill-rule:nonzero;fill:rgb(47.058824%,26.666667%,12.941176%);fill-opacity:1;stroke-width:0.0551379;stroke-linecap:butt;stroke-linejoin:miter;stroke:rgb(0%,0%,0%);stroke-opacity:1;stroke-miterlimit:4;" d="M 21.54348 20.771427 C 21.886673 21.233784 23.321412 19.975409 22.07257 20.428233 C 21.87714 20.499732 21.691244 20.618896 21.54348 20.771427 Z M 21.54348 20.771427 " transform="matrix(0.819509,0,0,0.819509,19.794139,17.934656)"/>
<path style="fill:none;stroke-width:0.0551379;stroke-linecap:butt;stroke-linejoin:miter;stroke:rgb(0%,0%,0%);stroke-opacity:1;stroke-miterlimit:10;" d="M 24.036398 24.484587 C 25.151776 24.141393 26.276687 23.807733 27.353932 23.354909 " transform="matrix(0.819509,0,0,0.819509,19.794139,17.934656)"/>
<path style="fill-rule:nonzero;fill:rgb(47.058824%,26.666667%,12.941176%);fill-opacity:1;stroke-width:0.0336668;stroke-linecap:butt;stroke-linejoin:miter;stroke:rgb(0%,0%,0%);stroke-opacity:1;stroke-miterlimit:4;" d="M 24.965879 19.622683 C 24.570254 19.770446 24.174628 19.922977 23.783769 20.070741 C 23.902934 19.813346 24.489222 19.775213 24.789516 19.59885 C 24.861015 19.59885 24.965879 19.465386 24.965879 19.622683 Z M 24.965879 19.622683 " transform="matrix(0.819509,0,0,0.819509,19.794139,17.934656)"/>
<path style="fill:none;stroke-width:0.0551379;stroke-linecap:butt;stroke-linejoin:miter;stroke:rgb(0%,0%,0%);stroke-opacity:1;stroke-miterlimit:10;" d="M 23.883867 20.032608 C 24.146029 21.319583 24.40819 22.601791 24.670352 23.883999 " transform="matrix(0.819509,0,0,0.819509,19.794139,17.934656)"/>
<path style="fill:none;stroke-width:0.0551379;stroke-linecap:butt;stroke-linejoin:miter;stroke:rgb(0%,0%,0%);stroke-opacity:1;stroke-miterlimit:10;" d="M 24.017331 19.980176 C 24.317625 21.262384 24.61792 22.539825 24.918214 23.817267 " transform="matrix(0.819509,0,0,0.819509,19.794139,17.934656)"/>
<path style="fill:none;stroke-width:0.0551379;stroke-linecap:butt;stroke-linejoin:miter;stroke:rgb(0%,0%,0%);stroke-opacity:1;stroke-miterlimit:10;" d="M 24.169862 19.922977 C 24.498755 21.190885 24.827649 22.46356 25.156542 23.731468 " transform="matrix(0.819509,0,0,0.819509,19.794139,17.934656)"/>
<path style="fill:none;stroke-width:0.0551379;stroke-linecap:butt;stroke-linejoin:miter;stroke:rgb(0%,0%,0%);stroke-opacity:1;stroke-miterlimit:10;" d="M 24.555954 19.77998 C 25.004012 20.728528 25.45207 21.681842 25.900128 22.635157 " transform="matrix(0.819509,0,0,0.819509,19.794139,17.934656)"/>
<path style="fill:none;stroke-width:0.0551379;stroke-linecap:butt;stroke-linejoin:miter;stroke:rgb(0%,0%,0%);stroke-opacity:1;stroke-miterlimit:10;" d="M 24.737084 19.708481 C 25.213741 20.657029 25.690398 21.605577 26.167056 22.549358 " transform="matrix(0.819509,0,0,0.819509,19.794139,17.934656)"/>
<path style="fill:none;stroke-width:0.0551379;stroke-linecap:butt;stroke-linejoin:miter;stroke:rgb(0%,0%,0%);stroke-opacity:1;stroke-miterlimit:10;" d="M 24.865781 19.660815 C 25.380571 20.59983 25.900128 21.534078 26.414917 22.473093 " transform="matrix(0.819509,0,0,0.819509,19.794139,17.934656)"/>
<path style="fill:none;stroke-width:0.0551379;stroke-linecap:butt;stroke-linejoin:miter;stroke:rgb(0%,0%,0%);stroke-opacity:1;stroke-miterlimit:10;" d="M 24.613153 23.917365 C 24.818116 23.850633 25.018312 23.783901 25.223274 23.717169 " transform="matrix(0.819509,0,0,0.819509,19.794139,17.934656)"/>
<path style="fill:none;stroke-width:0.0551379;stroke-linecap:butt;stroke-linejoin:miter;stroke:rgb(0%,0%,0%);stroke-opacity:1;stroke-miterlimit:10;" d="M 24.155562 23.536039 C 25.208975 23.221445 26.257621 22.878252 27.282434 22.473093 " transform="matrix(0.819509,0,0,0.819509,19.794139,17.934656)"/>
<path style="fill:none;stroke-width:0.0551379;stroke-linecap:butt;stroke-linejoin:miter;stroke:rgb(0%,0%,0%);stroke-opacity:1;stroke-miterlimit:10;" d="M 24.131729 23.731468 C 25.194675 23.431174 26.27192 23.14518 27.282434 22.697122 " transform="matrix(0.819509,0,0,0.819509,19.794139,17.934656)"/>
<path style="fill:none;stroke-width:0.0551379;stroke-linecap:butt;stroke-linejoin:miter;stroke:rgb(0%,0%,0%);stroke-opacity:1;stroke-miterlimit:10;" d="M 24.818116 25.566599 C 24.822882 26.119521 25.480669 25.938391 25.151776 25.466501 " transform="matrix(0.819509,0,0,0.819509,19.794139,17.934656)"/>
<path style="fill:none;stroke-width:0.0551379;stroke-linecap:butt;stroke-linejoin:miter;stroke:rgb(0%,0%,0%);stroke-opacity:1;stroke-miterlimit:10;" d="M 25.728531 25.304437 C 25.733298 25.85736 26.391085 25.67623 26.062191 25.204339 " transform="matrix(0.819509,0,0,0.819509,19.794139,17.934656)"/>
<path style="fill:none;stroke-width:0.0551379;stroke-linecap:butt;stroke-linejoin:miter;stroke:rgb(0%,0%,0%);stroke-opacity:1;stroke-miterlimit:10;" d="M 24.198461 23.173779 C 23.993499 22.639923 24.446323 22.573191 24.856248 22.473093 C 25.614133 22.244298 26.372018 22.015502 27.129903 21.786707 C 27.182336 21.920171 27.234768 22.058401 27.291967 22.196632 " transform="matrix(0.819509,0,0,0.819509,19.794139,17.934656)"/>
<path style="fill:none;stroke-width:0.0551379;stroke-linecap:butt;stroke-linejoin:miter;stroke:rgb(0%,0%,0%);stroke-opacity:1;stroke-miterlimit:10;" d="M 25.428237 22.301496 C 25.480669 22.444494 25.533101 22.587491 25.585534 22.735255 " transform="matrix(0.819509,0,0,0.819509,19.794139,17.934656)"/>
<path style="fill:none;stroke-width:0.0551379;stroke-linecap:butt;stroke-linejoin:miter;stroke:rgb(0%,0%,0%);stroke-opacity:1;stroke-miterlimit:10;" d="M 26.462583 21.986903 C 26.524549 22.125133 26.586514 22.263364 26.648479 22.396828 " transform="matrix(0.819509,0,0,0.819509,19.794139,17.934656)"/>
<path style="fill:none;stroke-width:0.0551379;stroke-linecap:butt;stroke-linejoin:miter;stroke:rgb(0%,0%,0%);stroke-opacity:1;stroke-miterlimit:10;" d="M 26.705678 21.915404 C 26.762877 22.044102 26.824843 22.172799 26.882042 22.301496 " transform="matrix(0.819509,0,0,0.819509,19.794139,17.934656)"/>
<path style="fill:none;stroke-width:0.0551379;stroke-linecap:butt;stroke-linejoin:miter;stroke:rgb(0%,0%,0%);stroke-opacity:1;stroke-miterlimit:10;" d="M 26.93924 21.843906 C 27.001206 21.97737 27.063171 22.110834 27.125137 22.249064 " transform="matrix(0.819509,0,0,0.819509,19.794139,17.934656)"/>
<path style="fill:none;stroke-width:0.0551379;stroke-linecap:butt;stroke-linejoin:miter;stroke:rgb(0%,0%,0%);stroke-opacity:1;stroke-miterlimit:10;" d="M 27.129903 21.786707 C 27.463563 21.557911 27.46833 21.562678 27.592261 21.96307 " transform="matrix(0.819509,0,0,0.819509,19.794139,17.934656)"/>
<path style="fill:none;stroke-width:0.0551379;stroke-linecap:butt;stroke-linejoin:miter;stroke:rgb(0%,0%,0%);stroke-opacity:1;stroke-miterlimit:10;" d="M 27.291967 21.696142 C 27.344399 21.820073 27.401598 21.944004 27.45403 22.067934 " transform="matrix(0.819509,0,0,0.819509,19.794139,17.934656)"/>
<path style="fill:none;stroke-width:0.0735201;stroke-linecap:butt;stroke-linejoin:miter;stroke:rgb(0%,14.117647%,49.019608%);stroke-opacity:1;stroke-miterlimit:10;" d="M 19.951445 27.325464 C 19.327024 26.729642 20.328004 26.090922 19.465255 25.695296 L 19.417589 25.537999 L 19.422355 25.361636 " transform="matrix(0.819509,0,0,0.819509,19.794139,17.934656)"/>
<path style="fill:none;stroke-width:0.0735201;stroke-linecap:butt;stroke-linejoin:miter;stroke:rgb(0%,14.117647%,49.019608%);stroke-opacity:1;stroke-miterlimit:10;" d="M 20.985791 27.787821 C 20.199307 27.85932 20.809428 25.990824 20.318471 27.196766 C 19.841814 27.835487 20.852327 28.488508 21.276552 27.87362 " transform="matrix(0.819509,0,0,0.819509,19.794139,17.934656)"/>
<path style="fill:none;stroke-width:0.0735201;stroke-linecap:butt;stroke-linejoin:miter;stroke:rgb(0%,14.117647%,49.019608%);stroke-opacity:1;stroke-miterlimit:10;" d="M 20.318471 26.005123 C 20.156408 26.171953 20.156408 26.438881 20.246973 26.643844 " transform="matrix(0.819509,0,0,0.819509,19.794139,17.934656)"/>
<path style="fill:none;stroke-width:0.0735201;stroke-linecap:butt;stroke-linejoin:miter;stroke:rgb(0%,14.117647%,49.019608%);stroke-opacity:1;stroke-miterlimit:10;" d="M 20.571099 26.057556 C 20.594932 26.276818 20.652131 26.505613 20.795128 26.681977 " transform="matrix(0.819509,0,0,0.819509,19.794139,17.934656)"/>
<path style="fill:none;stroke-width:0.0735201;stroke-linecap:butt;stroke-linejoin:miter;stroke:rgb(0%,14.117647%,49.019608%);stroke-opacity:1;stroke-miterlimit:10;" d="M 20.742696 25.900259 C 20.752229 26.181487 20.86186 26.472247 21.076356 26.66291 " transform="matrix(0.819509,0,0,0.819509,19.794139,17.934656)"/>
<path style="fill:none;stroke-width:0.0735201;stroke-linecap:butt;stroke-linejoin:miter;stroke:rgb(0%,14.117647%,49.019608%);stroke-opacity:1;stroke-miterlimit:10;" d="M 20.909526 25.738195 C 20.923826 26.057556 21.052523 26.381683 21.305152 26.591412 " transform="matrix(0.819509,0,0,0.819509,19.794139,17.934656)"/>
<path style="fill:none;stroke-width:0.0735201;stroke-linecap:butt;stroke-linejoin:miter;stroke:rgb(0%,14.117647%,49.019608%);stroke-opacity:1;stroke-miterlimit:10;" d="M 22.859054 26.51038 C 23.25468 26.02419 23.512075 25.943158 23.311879 26.567579 C 23.43581 26.834507 23.855268 26.815441 24.045931 26.639077 " transform="matrix(0.819509,0,0,0.819509,19.794139,17.934656)"/>
<path style="fill:none;stroke-width:0.0735201;stroke-linecap:butt;stroke-linejoin:miter;stroke:rgb(0%,14.117647%,49.019608%);stroke-opacity:1;stroke-miterlimit:10;" d="M 23.850501 28.493274 C 23.116449 28.22158 22.449129 27.187233 23.383377 26.686743 " transform="matrix(0.819509,0,0,0.819509,19.794139,17.934656)"/>
<path style="fill:none;stroke-width:0.0735201;stroke-linecap:butt;stroke-linejoin:miter;stroke:rgb(0%,14.117647%,49.019608%);stroke-opacity:1;stroke-miterlimit:10;" d="M 23.168881 27.130034 C 23.121216 27.301631 23.145049 27.506594 23.278513 27.640058 " transform="matrix(0.819509,0,0,0.819509,19.794139,17.934656)"/>
<path style="fill:none;stroke-width:0.0735201;stroke-linecap:butt;stroke-linejoin:miter;stroke:rgb(0%,14.117647%,49.019608%);stroke-opacity:1;stroke-miterlimit:10;" d="M 23.397677 26.925072 C 23.335712 27.115735 23.345245 27.339764 23.483475 27.501827 " transform="matrix(0.819509,0,0,0.819509,19.794139,17.934656)"/>
<path style="fill:none;stroke-width:0.0735201;stroke-linecap:butt;stroke-linejoin:miter;stroke:rgb(0%,14.117647%,49.019608%);stroke-opacity:1;stroke-miterlimit:10;" d="M 23.645539 26.763008 C 23.564507 26.925072 23.564507 27.134801 23.674138 27.282565 " transform="matrix(0.819509,0,0,0.819509,19.794139,17.934656)"/>
<path style="fill:none;stroke-width:0.0735201;stroke-linecap:butt;stroke-linejoin:miter;stroke:rgb(0%,14.117647%,49.019608%);stroke-opacity:1;stroke-miterlimit:10;" d="M 22.706524 28.564773 C 22.997285 28.793568 23.326178 29.031897 23.707504 29.05573 " transform="matrix(0.819509,0,0,0.819509,19.794139,17.934656)"/>
<path style="fill:none;stroke-width:0.0735201;stroke-linecap:butt;stroke-linejoin:miter;stroke:rgb(0%,14.117647%,49.019608%);stroke-opacity:1;stroke-miterlimit:10;" d="M 22.530161 28.717303 C 22.792322 28.912733 23.064017 29.122462 23.383377 29.20826 " transform="matrix(0.819509,0,0,0.819509,19.794139,17.934656)"/>
<path style="fill:none;stroke-width:0.0735201;stroke-linecap:butt;stroke-linejoin:miter;stroke:rgb(0%,14.117647%,49.019608%);stroke-opacity:1;stroke-miterlimit:10;" d="M 22.329965 28.836467 C 22.644559 29.093862 22.978219 29.37509 23.383377 29.451355 " transform="matrix(0.819509,0,0,0.819509,19.794139,17.934656)"/>
<path style="fill:none;stroke-width:0.0735201;stroke-linecap:butt;stroke-linejoin:miter;stroke:rgb(0%,14.117647%,49.019608%);stroke-opacity:1;stroke-miterlimit:10;" d="M 24.975412 29.975678 C 24.689418 30.099609 24.484456 30.485702 24.832415 30.685898 " transform="matrix(0.819509,0,0,0.819509,19.794139,17.934656)"/>
<path style="fill:none;stroke-width:0.0735201;stroke-linecap:butt;stroke-linejoin:miter;stroke:rgb(0%,14.117647%,49.019608%);stroke-opacity:1;stroke-miterlimit:10;" d="M 24.570254 29.599119 C 24.913447 29.417989 25.25664 29.241626 25.6046 29.074796 " transform="matrix(0.819509,0,0,0.819509,19.794139,17.934656)"/>
<path style="fill:none;stroke-width:0.0735201;stroke-linecap:butt;stroke-linejoin:miter;stroke:rgb(0%,14.117647%,49.019608%);stroke-opacity:1;stroke-miterlimit:10;" d="M 24.827649 29.794549 C 25.275707 29.52762 25.718998 29.251159 26.186122 29.017597 " transform="matrix(0.819509,0,0,0.819509,19.794139,17.934656)"/>
<path style="fill:none;stroke-width:0.0735201;stroke-linecap:butt;stroke-linejoin:miter;stroke:rgb(0%,14.117647%,49.019608%);stroke-opacity:1;stroke-miterlimit:10;" d="M 25.366271 29.837448 C 25.819096 29.54192 26.267154 29.241626 26.739044 28.979465 " transform="matrix(0.819509,0,0,0.819509,19.794139,17.934656)"/>
<path style="fill:none;stroke-width:0.0735201;stroke-linecap:butt;stroke-linejoin:miter;stroke:rgb(0%,14.117647%,49.019608%);stroke-opacity:1;stroke-miterlimit:10;" d="M 25.957326 29.813615 C 26.348185 29.518087 26.748577 29.232093 27.168036 28.979465 " transform="matrix(0.819509,0,0,0.819509,19.794139,17.934656)"/>
<path style="fill:none;stroke-width:0.0735201;stroke-linecap:butt;stroke-linejoin:miter;stroke:rgb(0%,14.117647%,49.019608%);stroke-opacity:1;stroke-miterlimit:10;" d="M 27.382532 28.37411 C 26.896341 27.84502 25.43777 28.72207 26.696145 27.988018 C 26.848676 27.911752 27.010739 27.849787 27.168036 27.787821 " transform="matrix(0.819509,0,0,0.819509,19.794139,17.934656)"/>
<path style="fill:none;stroke-width:0.0735201;stroke-linecap:butt;stroke-linejoin:miter;stroke:rgb(0%,14.117647%,49.019608%);stroke-opacity:1;stroke-miterlimit:10;" d="M 28.173783 25.890726 C 28.207149 26.081389 28.230982 26.281585 28.16425 26.467481 " transform="matrix(0.819509,0,0,0.819509,19.794139,17.934656)"/>
<path style="fill:none;stroke-width:0.0735201;stroke-linecap:butt;stroke-linejoin:miter;stroke:rgb(0%,14.117647%,49.019608%);stroke-opacity:1;stroke-miterlimit:10;" d="M 26.562681 27.630525 C 27.020272 26.66291 28.111817 28.102415 28.307247 26.882173 C 28.326313 26.419815 27.868722 26.105221 27.444497 26.100455 " transform="matrix(0.819509,0,0,0.819509,19.794139,17.934656)"/>
<path style="fill:none;stroke-width:0.0735201;stroke-linecap:butt;stroke-linejoin:miter;stroke:rgb(0%,14.117647%,49.019608%);stroke-opacity:1;stroke-miterlimit:10;" d="M 29.537022 25.252005 C 30.633334 25.409302 30.328273 26.915539 29.374959 27.01087 " transform="matrix(0.819509,0,0,0.819509,19.794139,17.934656)"/>
<path style="fill:none;stroke-width:0.0735201;stroke-linecap:butt;stroke-linejoin:miter;stroke:rgb(0%,14.117647%,49.019608%);stroke-opacity:1;stroke-miterlimit:10;" d="M 30.137611 25.614264 C 30.271075 25.352103 30.495104 25.123307 30.771565 25.00891 " transform="matrix(0.819509,0,0,0.819509,19.794139,17.934656)"/>
<path style="fill:none;stroke-width:0.0735201;stroke-linecap:butt;stroke-linejoin:miter;stroke:rgb(0%,14.117647%,49.019608%);stroke-opacity:1;stroke-miterlimit:10;" d="M 30.237709 24.761048 C 30.33304 24.889745 30.418838 25.042276 30.566602 25.118541 " transform="matrix(0.819509,0,0,0.819509,19.794139,17.934656)"/>
<path style="fill:none;stroke-width:0.0735201;stroke-linecap:butt;stroke-linejoin:miter;stroke:rgb(0%,14.117647%,49.019608%);stroke-opacity:1;stroke-miterlimit:10;" d="M 30.137611 25.00891 C 30.170977 25.051809 30.33304 25.223405 30.385472 25.275838 " transform="matrix(0.819509,0,0,0.819509,19.794139,17.934656)"/>
<path style="fill:none;stroke-width:0.0735201;stroke-linecap:butt;stroke-linejoin:miter;stroke:rgb(0%,14.117647%,49.019608%);stroke-opacity:1;stroke-miterlimit:10;" d="M 30.075645 25.228172 C 30.094711 25.252005 30.218642 25.380702 30.261541 25.414068 " transform="matrix(0.819509,0,0,0.819509,19.794139,17.934656)"/>
<path style="fill:none;stroke-width:0.0735201;stroke-linecap:butt;stroke-linejoin:miter;stroke:rgb(0%,14.117647%,49.019608%);stroke-opacity:1;stroke-miterlimit:10;" d="M 26.395851 21.843906 C 26.500716 21.691375 26.715211 21.658009 26.882042 21.710441 " transform="matrix(0.819509,0,0,0.819509,19.794139,17.934656)"/>
<path style="fill:none;stroke-width:0.0735201;stroke-linecap:butt;stroke-linejoin:miter;stroke:rgb(0%,14.117647%,49.019608%);stroke-opacity:1;stroke-miterlimit:10;" d="M 28.292947 23.536039 C 28.388278 23.092748 28.822037 22.711422 29.279628 22.959283 " transform="matrix(0.819509,0,0,0.819509,19.794139,17.934656)"/>
<path style="fill:none;stroke-width:0.0735201;stroke-linecap:butt;stroke-linejoin:miter;stroke:rgb(0%,14.117647%,49.019608%);stroke-opacity:1;stroke-miterlimit:10;" d="M 28.9698 22.883018 C 28.9984 22.668523 29.003166 22.425427 28.855403 22.249064 " transform="matrix(0.819509,0,0,0.819509,19.794139,17.934656)"/>
<path style="fill:none;stroke-width:0.0735201;stroke-linecap:butt;stroke-linejoin:miter;stroke:rgb(0%,14.117647%,49.019608%);stroke-opacity:1;stroke-miterlimit:10;" d="M 28.445477 22.854419 C 28.49791 22.94975 28.516976 23.073681 28.459777 23.173779 " transform="matrix(0.819509,0,0,0.819509,19.794139,17.934656)"/>
<path style="fill-rule:nonzero;fill:rgb(39.215686%,70.588235%,81.960784%);fill-opacity:1;stroke-width:0.0551379;stroke-linecap:butt;stroke-linejoin:miter;stroke:rgb(0%,14.117647%,49.019608%);stroke-opacity:1;stroke-miterlimit:2.613;" d="M 30.004147 32.196901 C 30.919328 32.173068 30.628568 30.266439 30.051812 31.23882 C 30.075645 31.55818 30.142377 31.89184 30.004147 32.196901 Z M 30.004147 32.196901 " transform="matrix(0.819509,0,0,0.819509,19.794139,17.934656)"/>
<path style=" stroke:none;fill-rule:nonzero;fill:rgb(100%,100%,100%);fill-opacity:1;" d="M 44.636719 43.996094 C 44.78125 43.707031 44.847656 43.234375 44.78125 43.871094 C 44.929688 43.785156 44.617188 44.105469 44.636719 43.996094 Z M 44.636719 43.996094 "/>
<path style="fill-rule:nonzero;fill:rgb(39.215686%,70.588235%,81.960784%);fill-opacity:1;stroke-width:0.0551379;stroke-linecap:butt;stroke-linejoin:miter;stroke:rgb(0%,14.117647%,49.019608%);stroke-opacity:1;stroke-miterlimit:2.613;" d="M 31.229156 31.596313 C 32.125271 31.296019 31.095692 29.727817 31.062326 30.895627 C 31.162424 31.110123 31.281588 31.348451 31.229156 31.596313 Z M 31.229156 31.596313 " transform="matrix(0.819509,0,0,0.819509,19.794139,17.934656)"/>
<path style=" stroke:none;fill-rule:nonzero;fill:rgb(100%,100%,100%);fill-opacity:1;" d="M 45.507812 43.117188 C 45.691406 42.976562 45.484375 44 45.570312 43.25 Z M 45.507812 43.117188 "/>
<path style="fill-rule:nonzero;fill:rgb(39.215686%,70.588235%,81.960784%);fill-opacity:1;stroke-width:0.0551379;stroke-linecap:butt;stroke-linejoin:miter;stroke:rgb(0%,14.117647%,49.019608%);stroke-opacity:1;stroke-miterlimit:2.613;" d="M 29.417858 32.030071 C 28.383512 32.015771 29.141397 30.161575 29.398792 31.281719 C 29.284394 31.510515 29.246262 31.810809 29.417858 32.030071 Z M 29.417858 32.030071 " transform="matrix(0.819509,0,0,0.819509,19.794139,17.934656)"/>
<path style=" stroke:none;fill-rule:nonzero;fill:rgb(100%,100%,100%);fill-opacity:1;" d="M 43.691406 43.5 C 43.863281 43.515625 43.585938 44.261719 43.71875 43.5625 Z M 43.691406 43.5 "/>
<path style=" stroke:none;fill-rule:nonzero;fill:rgb(0%,0%,0%);fill-opacity:1;" d="M 44.300781 43.101562 C 44.757812 42.9375 45.023438 43.28125 44.554688 42.820312 C 43.925781 42.484375 44.777344 42.984375 44.300781 43.101562 Z M 44.300781 43.101562 "/>
<path style=" stroke:none;fill-rule:nonzero;fill:rgb(0%,0%,0%);fill-opacity:1;" d="M 44.53125 42.277344 C 44.925781 42.726562 45.277344 42.34375 44.53125 42.277344 Z M 44.53125 42.277344 "/>
<path style="fill:none;stroke-width:0.0735201;stroke-linecap:butt;stroke-linejoin:miter;stroke:rgb(0%,0%,0%);stroke-opacity:1;stroke-miterlimit:10;" d="M 28.683806 30.523834 C 28.645673 30.395137 28.788671 30.295039 28.750538 30.166341 " transform="matrix(0.819509,0,0,0.819509,19.794139,17.934656)"/>
<path style="fill:none;stroke-width:0.0735201;stroke-linecap:butt;stroke-linejoin:miter;stroke:rgb(0%,0%,0%);stroke-opacity:1;stroke-miterlimit:10;" d="M 31.457951 24.584685 C 31.653381 24.570385 31.886943 24.460754 31.925075 24.246258 " transform="matrix(0.819509,0,0,0.819509,19.794139,17.934656)"/>
<path style="fill:none;stroke-width:0.0735201;stroke-linecap:butt;stroke-linejoin:miter;stroke:rgb(0%,0%,0%);stroke-opacity:1;stroke-miterlimit:10;" d="M 32.635295 24.041295 C 32.411266 24.022229 32.339767 24.303457 32.130038 24.293924 " transform="matrix(0.819509,0,0,0.819509,19.794139,17.934656)"/>
<path style=" stroke:none;fill-rule:nonzero;fill:rgb(0%,0%,0%);fill-opacity:1;" d="M 45.085938 37.113281 C 45.78125 36.804688 45.214844 37.390625 45.554688 37.609375 C 44.9375 37.484375 45.8125 36.933594 45.085938 37.113281 Z M 45.085938 37.113281 "/>
<path style="fill-rule:nonzero;fill:rgb(39.215686%,70.588235%,81.960784%);fill-opacity:1;stroke-width:0.0551379;stroke-linecap:butt;stroke-linejoin:miter;stroke:rgb(0%,14.117647%,49.019608%);stroke-opacity:1;stroke-miterlimit:2.613;" d="M 31.148124 18.340475 C 30.909795 17.825685 31.729646 16.996301 31.639081 17.863817 C 31.543749 18.078313 31.357853 18.240377 31.148124 18.340475 Z M 31.148124 18.340475 " transform="matrix(0.819509,0,0,0.819509,19.794139,17.934656)"/>
<path style=" stroke:none;fill-rule:nonzero;fill:rgb(100%,100%,100%);fill-opacity:1;" d="M 45.421875 32.726562 C 45.484375 31.886719 45.625 32.710938 45.421875 32.726562 Z M 45.421875 32.726562 "/>
<path style="fill-rule:nonzero;fill:rgb(39.215686%,70.588235%,81.960784%);fill-opacity:1;stroke-width:0.0551379;stroke-linecap:butt;stroke-linejoin:miter;stroke:rgb(0%,14.117647%,49.019608%);stroke-opacity:1;stroke-miterlimit:2.613;" d="M 31.038493 18.197477 C 30.547536 17.963915 30.633334 16.829471 31.109991 17.534924 C 31.171957 17.754186 31.138591 17.992515 31.038493 18.197477 Z M 31.038493 18.197477 " transform="matrix(0.819509,0,0,0.819509,19.794139,17.934656)"/>
<path style=" stroke:none;fill-rule:nonzero;fill:rgb(100%,100%,100%);fill-opacity:1;" d="M 45.199219 32.570312 C 44.679688 31.851562 45.335938 32.421875 45.199219 32.570312 Z M 45.199219 32.570312 "/>
<path style="fill-rule:nonzero;fill:rgb(39.215686%,70.588235%,81.960784%);fill-opacity:1;stroke-width:0.0551379;stroke-linecap:butt;stroke-linejoin:miter;stroke:rgb(0%,14.117647%,49.019608%);stroke-opacity:1;stroke-miterlimit:2.613;" d="M 30.676233 18.08308 C 30.175743 18.044947 29.784884 17.091633 30.471271 17.496791 C 30.609501 17.658855 30.671467 17.873351 30.676233 18.08308 Z M 30.676233 18.08308 " transform="matrix(0.819509,0,0,0.819509,19.794139,17.934656)"/>
<path style=" stroke:none;fill-rule:nonzero;fill:rgb(100%,100%,100%);fill-opacity:1;" d="M 44.8125 32.5625 C 44.042969 32.132812 44.878906 32.367188 44.8125 32.5625 Z M 44.8125 32.5625 "/>
<path style="fill-rule:nonzero;fill:rgb(39.215686%,70.588235%,81.960784%);fill-opacity:1;stroke-width:0.0551379;stroke-linecap:butt;stroke-linejoin:miter;stroke:rgb(0%,14.117647%,49.019608%);stroke-opacity:1;stroke-miterlimit:2.613;" d="M 30.881196 18.207011 C 30.480804 17.806619 29.403558 18.283276 30.261541 18.502538 C 30.49987 18.488238 30.719132 18.373841 30.881196 18.207011 Z M 30.881196 18.207011 " transform="matrix(0.819509,0,0,0.819509,19.794139,17.934656)"/>
<path style=" stroke:none;fill-rule:nonzero;fill:rgb(100%,100%,100%);fill-opacity:1;" d="M 44.425781 32.949219 C 45.304688 32.855469 44.480469 33.148438 44.425781 32.949219 Z M 44.425781 32.949219 "/>
<path style="fill:none;stroke-width:0.0735201;stroke-linecap:butt;stroke-linejoin:miter;stroke:rgb(0%,0%,0%);stroke-opacity:1;stroke-miterlimit:2.613;" d="M 30.361639 17.0821 C 30.466504 17.139298 30.52847 17.263229 30.49987 17.377627 " transform="matrix(0.819509,0,0,0.819509,19.794139,17.934656)"/>
<path style="fill:none;stroke-width:0.0735201;stroke-linecap:butt;stroke-linejoin:miter;stroke:rgb(0%,0%,0%);stroke-opacity:1;stroke-miterlimit:10;" d="M 31.148124 17.110699 C 31.176723 17.22033 31.200556 17.344261 31.143357 17.449126 " transform="matrix(0.819509,0,0,0.819509,19.794139,17.934656)"/>
<path style="fill-rule:nonzero;fill:rgb(39.215686%,70.588235%,81.960784%);fill-opacity:1;stroke-width:0.0551379;stroke-linecap:butt;stroke-linejoin:miter;stroke:rgb(0%,14.117647%,49.019608%);stroke-opacity:1;stroke-miterlimit:2.613;" d="M 18.878966 18.340475 C 19.117295 17.825685 18.297444 16.996301 18.388009 17.863817 C 18.488107 18.078313 18.669237 18.240377 18.878966 18.340475 Z M 18.878966 18.340475 " transform="matrix(0.819509,0,0,0.819509,19.794139,17.934656)"/>
<path style=" stroke:none;fill-rule:nonzero;fill:rgb(100%,100%,100%);fill-opacity:1;" d="M 35.164062 32.726562 C 35.101562 31.886719 34.960938 32.710938 35.164062 32.726562 Z M 35.164062 32.726562 "/>
<path style="fill-rule:nonzero;fill:rgb(39.215686%,70.588235%,81.960784%);fill-opacity:1;stroke-width:0.0551379;stroke-linecap:butt;stroke-linejoin:miter;stroke:rgb(0%,14.117647%,49.019608%);stroke-opacity:1;stroke-miterlimit:2.613;" d="M 18.988597 18.197477 C 19.479554 17.963915 19.393756 16.829471 18.917099 17.534924 C 18.8599 17.754186 18.893266 17.992515 18.988597 18.197477 Z M 18.988597 18.197477 " transform="matrix(0.819509,0,0,0.819509,19.794139,17.934656)"/>
<path style=" stroke:none;fill-rule:nonzero;fill:rgb(100%,100%,100%);fill-opacity:1;" d="M 35.390625 32.570312 C 35.910156 31.851562 35.25 32.421875 35.390625 32.570312 Z M 35.390625 32.570312 "/>
<path style="fill-rule:nonzero;fill:rgb(39.215686%,70.588235%,81.960784%);fill-opacity:1;stroke-width:0.0551379;stroke-linecap:butt;stroke-linejoin:miter;stroke:rgb(0%,14.117647%,49.019608%);stroke-opacity:1;stroke-miterlimit:2.613;" d="M 19.355623 18.08308 C 19.851347 18.044947 20.242206 17.091633 19.560586 17.496791 C 19.417589 17.658855 19.355623 17.873351 19.355623 18.08308 Z M 19.355623 18.08308 " transform="matrix(0.819509,0,0,0.819509,19.794139,17.934656)"/>
<path style=" stroke:none;fill-rule:nonzero;fill:rgb(100%,100%,100%);fill-opacity:1;" d="M 35.773438 32.5625 C 36.546875 32.132812 35.710938 32.367188 35.773438 32.5625 Z M 35.773438 32.5625 "/>
<path style="fill-rule:nonzero;fill:rgb(39.215686%,70.588235%,81.960784%);fill-opacity:1;stroke-width:0.0551379;stroke-linecap:butt;stroke-linejoin:miter;stroke:rgb(0%,14.117647%,49.019608%);stroke-opacity:1;stroke-miterlimit:2.613;" d="M 19.145894 18.207011 C 19.551053 17.806619 20.628298 18.283276 19.765549 18.502538 C 19.531987 18.488238 19.312724 18.373841 19.145894 18.207011 Z M 19.145894 18.207011 " transform="matrix(0.819509,0,0,0.819509,19.794139,17.934656)"/>
<path style=" stroke:none;fill-rule:nonzero;fill:rgb(100%,100%,100%);fill-opacity:1;" d="M 36.164062 32.949219 C 35.28125 32.855469 36.105469 33.148438 36.164062 32.949219 Z M 36.164062 32.949219 "/>
<path style="fill:none;stroke-width:0.0735201;stroke-linecap:butt;stroke-linejoin:miter;stroke:rgb(0%,0%,0%);stroke-opacity:1;stroke-miterlimit:2.613;" d="M 19.665451 17.0821 C 19.560586 17.139298 19.498621 17.263229 19.531987 17.377627 " transform="matrix(0.819509,0,0,0.819509,19.794139,17.934656)"/>
<path style="fill:none;stroke-width:0.0735201;stroke-linecap:butt;stroke-linejoin:miter;stroke:rgb(0%,0%,0%);stroke-opacity:1;stroke-miterlimit:10;" d="M 18.878966 17.110699 C 18.850367 17.22033 18.826534 17.344261 18.888499 17.449126 " transform="matrix(0.819509,0,0,0.819509,19.794139,17.934656)"/>
<path style=" stroke:none;fill-rule:nonzero;fill:rgb(0%,0%,0%);fill-opacity:1;" d="M 41.59375 30.300781 C 41.585938 30.695312 41.671875 31.386719 42 30.980469 C 42.199219 31.84375 40.855469 31.621094 41.273438 30.835938 C 41.191406 29.816406 41.320312 32.269531 41.945312 31.234375 C 41.910156 31.191406 41.320312 31.117188 41.585938 30.648438 L 41.597656 30.476562 Z M 41.59375 30.300781 "/>
<path style=" stroke:none;fill-rule:nonzero;fill:rgb(0%,0%,0%);fill-opacity:1;" d="M 41.125 31.214844 C 40.960938 32.105469 40.5625 31.457031 40.539062 31.21875 C 40.570312 31.722656 40.65625 32.097656 41.089844 31.550781 L 41.136719 31.402344 Z M 41.125 31.214844 "/>
<path style=" stroke:none;fill-rule:nonzero;fill:rgb(0%,0%,0%);fill-opacity:1;" d="M 40.605469 30.777344 C 40.4375 30.300781 40.421875 29.804688 40.449219 30.589844 C 40.433594 31.007812 39.472656 29.546875 40.019531 30.421875 C 40.105469 30.6875 40.347656 30.789062 40.605469 30.777344 Z M 40.605469 30.777344 "/>
<path style=" stroke:none;fill-rule:nonzero;fill:rgb(0%,0%,0%);fill-opacity:1;" d="M 39.578125 30.117188 C 39.882812 30.671875 39.515625 30.550781 39.289062 30.246094 C 39.070312 30.582031 39.101562 30.863281 38.746094 30.378906 C 39.136719 30.832031 39.28125 29.703125 39.625 30.464844 C 39.613281 30.347656 39.597656 30.230469 39.578125 30.117188 Z M 39.578125 30.117188 "/>
<path style=" stroke:none;fill-rule:nonzero;fill:rgb(0%,0%,0%);fill-opacity:1;" d="M 40.0625 29.597656 C 40.332031 29.921875 41.046875 29.472656 40.371094 29.855469 C 40.222656 29.867188 40.046875 29.761719 40.0625 29.597656 Z M 40.0625 29.597656 "/>
<path style=" stroke:none;fill-rule:nonzero;fill:rgb(0%,0%,0%);fill-opacity:1;" d="M 38.78125 31.355469 C 39.023438 31.96875 39.695312 30.859375 39.1875 31.617188 C 38.996094 31.785156 38.839844 31.496094 38.78125 31.355469 Z M 38.78125 31.355469 "/>
<path style=" stroke:none;fill-rule:nonzero;fill:rgb(0%,0%,0%);fill-opacity:1;" d="M 40.371094 28.566406 C 40.078125 28.613281 40.511719 29.453125 39.816406 29.191406 C 39.640625 28.972656 39.773438 28.617188 39.648438 29.101562 C 39.910156 29.625 40.398438 28.855469 40.710938 29.296875 C 41.3125 29.464844 40.980469 28.367188 40.988281 29.140625 C 40.476562 29.480469 40.40625 28.800781 40.460938 28.574219 Z M 40.371094 28.566406 "/>
<path style=" stroke:none;fill-rule:nonzero;fill:rgb(0%,0%,0%);fill-opacity:1;" d="M 40.558594 28.15625 C 40.667969 28.410156 40.667969 28.839844 40.648438 28.304688 Z M 40.558594 28.15625 "/>
<path style=" stroke:none;fill-rule:nonzero;fill:rgb(0%,0%,0%);fill-opacity:1;" d="M 39.609375 28.589844 C 39.519531 28.308594 39.265625 28.339844 39.609375 28.589844 Z M 39.609375 28.589844 "/>
<path style=" stroke:none;fill-rule:nonzero;fill:rgb(0%,0%,0%);fill-opacity:1;" d="M 41.136719 28.589844 C 41.226562 28.308594 41.476562 28.339844 41.136719 28.589844 Z M 41.136719 28.589844 "/>
<path style=" stroke:none;fill-rule:nonzero;fill:rgb(0%,0%,0%);fill-opacity:1;" d="M 39.296875 28.894531 C 39.546875 28.929688 39.605469 28.75 39.296875 28.894531 Z M 39.296875 28.894531 "/>
<path style=" stroke:none;fill-rule:nonzero;fill:rgb(0%,0%,0%);fill-opacity:1;" d="M 38.792969 27.660156 C 39.378906 27.652344 38.867188 28.363281 38.980469 27.8125 L 38.910156 27.738281 Z M 38.792969 27.660156 "/>
<path style=" stroke:none;fill-rule:nonzero;fill:rgb(0%,0%,0%);fill-opacity:1;" d="M 41.828125 27.660156 C 41.246094 27.652344 41.757812 28.363281 41.644531 27.8125 L 41.710938 27.738281 Z M 41.828125 27.660156 "/>
<path style=" stroke:none;fill-rule:nonzero;fill:rgb(0%,0%,0%);fill-opacity:1;" d="M 40.429688 27.859375 C 40.769531 27.804688 41.570312 27.664062 40.800781 27.859375 C 40.695312 27.910156 40.515625 27.980469 40.429688 27.859375 Z M 40.429688 27.859375 "/>
<path style=" stroke:none;fill-rule:nonzero;fill:rgb(100%,100%,100%);fill-opacity:1;" d="M 40.597656 28.023438 C 41.183594 27.453125 41.410156 28.183594 40.597656 28.023438 Z M 40.597656 28.023438 "/>
<path style=" stroke:none;fill-rule:nonzero;fill:rgb(47.058824%,26.666667%,12.941176%);fill-opacity:1;" d="M 40.976562 27.949219 C 40.972656 28.15625 40.707031 27.992188 40.839844 27.867188 C 40.898438 27.804688 40.980469 27.878906 40.976562 27.949219 Z M 40.976562 27.949219 "/>
<path style=" stroke:none;fill-rule:nonzero;fill:rgb(0%,0%,0%);fill-opacity:1;" d="M 40.941406 27.949219 C 40.921875 28.113281 40.757812 27.90625 40.898438 27.882812 C 40.925781 27.886719 40.941406 27.921875 40.941406 27.949219 Z M 40.941406 27.949219 "/>
<path style=" stroke:none;fill-rule:nonzero;fill:rgb(0%,0%,0%);fill-opacity:1;" d="M 39.691406 27.503906 C 40.058594 27.75 40.734375 27.585938 40.789062 27.320312 C 40.269531 27.914062 40.277344 27.039062 40.304688 27.136719 C 40.007812 27.460938 40.480469 27.671875 39.835938 27.476562 Z M 39.691406 27.503906 "/>
<path style=" stroke:none;fill-rule:nonzero;fill:rgb(0%,0%,0%);fill-opacity:1;" d="M 40.371094 29.113281 C 40.011719 29.355469 40.734375 29.351562 40.371094 29.113281 Z M 40.371094 29.113281 "/>
<path style=" stroke:none;fill-rule:nonzero;fill:rgb(0%,0%,0%);fill-opacity:1;" d="M 40.238281 27.859375 C 39.894531 27.804688 39.097656 27.664062 39.867188 27.859375 C 39.972656 27.910156 40.152344 27.980469 40.238281 27.859375 Z M 40.238281 27.859375 "/>
<path style=" stroke:none;fill-rule:nonzero;fill:rgb(100%,100%,100%);fill-opacity:1;" d="M 40.066406 28.023438 C 39.484375 27.453125 39.257812 28.183594 40.066406 28.023438 Z M 40.066406 28.023438 "/>
<path style=" stroke:none;fill-rule:nonzero;fill:rgb(47.058824%,26.666667%,12.941176%);fill-opacity:1;" d="M 39.859375 27.949219 C 39.855469 28.15625 39.589844 27.992188 39.722656 27.867188 C 39.785156 27.804688 39.867188 27.878906 39.859375 27.949219 Z M 39.859375 27.949219 "/>
<path style=" stroke:none;fill-rule:nonzero;fill:rgb(0%,0%,0%);fill-opacity:1;" d="M 39.824219 27.949219 C 39.804688 28.113281 39.640625 27.90625 39.78125 27.882812 C 39.808594 27.886719 39.824219 27.921875 39.824219 27.949219 Z M 39.824219 27.949219 "/>
</g>
</svg>
