<?xml version="1.0" encoding="UTF-8"?>
<!-- Created by grConvert v0.1-0 -->
<svg xmlns="http://www.w3.org/2000/svg" xmlns:xlink="http://www.w3.org/1999/xlink" width="56pt" height="56pt" viewBox="0 0 56 56" version="1.1">
<defs>
<linearGradient id="linear0" gradientUnits="userSpaceOnUse" x1="103.083" y1="111.276" x2="92.5511" y2="107.764" gradientTransform="matrix(0.996141,0,0,2.252552,703.84172,-75.047171)">
<stop offset="0" style="stop-color:rgb(100%,0%,0%);stop-opacity:1;"/>
<stop offset="1" style="stop-color:rgb(100%,100%,0%);stop-opacity:1;"/>
</linearGradient>
<linearGradient id="linear1" gradientUnits="userSpaceOnUse" x1="103.083" y1="111.276" x2="92.5511" y2="107.764" gradientTransform="matrix(0.996141,0,0,2.252552,703.84172,-75.047171)">
<stop offset="0" style="stop-color:rgb(100%,0%,0%);stop-opacity:1;"/>
<stop offset="1" style="stop-color:rgb(100%,100%,0%);stop-opacity:1;"/>
</linearGradient>
<linearGradient id="linear2" gradientUnits="userSpaceOnUse" x1="103.083" y1="111.276" x2="92.5511" y2="107.764" gradientTransform="matrix(0.996141,0,0,2.252552,703.84172,-75.047171)">
<stop offset="0" style="stop-color:rgb(100%,0%,0%);stop-opacity:1;"/>
<stop offset="1" style="stop-color:rgb(100%,100%,0%);stop-opacity:1;"/>
</linearGradient>
<linearGradient id="linear3" gradientUnits="userSpaceOnUse" x1="103.083" y1="111.276" x2="92.5511" y2="107.764" gradientTransform="matrix(0.996141,0,0,2.252552,703.84172,-75.047171)">
<stop offset="0" style="stop-color:rgb(100%,0%,0%);stop-opacity:1;"/>
<stop offset="1" style="stop-color:rgb(100%,100%,0%);stop-opacity:1;"/>
</linearGradient>
<linearGradient id="linear4" gradientUnits="userSpaceOnUse" x1="103.083" y1="111.276" x2="92.5511" y2="107.764" gradientTransform="matrix(0.996141,0,0,2.252552,703.84172,-75.047171)">
<stop offset="0" style="stop-color:rgb(100%,0%,0%);stop-opacity:1;"/>
<stop offset="1" style="stop-color:rgb(100%,100%,0%);stop-opacity:1;"/>
</linearGradient>
<linearGradient id="linear5" gradientUnits="userSpaceOnUse" x1="103.083" y1="111.276" x2="92.5511" y2="107.764" gradientTransform="matrix(0.996141,0,0,2.252552,703.84172,-75.047171)">
<stop offset="0" style="stop-color:rgb(100%,0%,0%);stop-opacity:1;"/>
<stop offset="1" style="stop-color:rgb(100%,100%,0%);stop-opacity:1;"/>
</linearGradient>
<linearGradient id="linear6" gradientUnits="userSpaceOnUse" x1="103.083" y1="111.276" x2="92.5511" y2="107.764" gradientTransform="matrix(0.996141,0,0,2.252552,703.84172,-75.047171)">
<stop offset="0" style="stop-color:rgb(100%,0%,0%);stop-opacity:1;"/>
<stop offset="1" style="stop-color:rgb(100%,100%,0%);stop-opacity:1;"/>
</linearGradient>
<linearGradient id="linear7" gradientUnits="userSpaceOnUse" x1="103.083" y1="111.276" x2="92.5511" y2="107.764" gradientTransform="matrix(0.996141,0,0,2.252552,703.84172,-75.047171)">
<stop offset="0" style="stop-color:rgb(100%,0%,0%);stop-opacity:1;"/>
<stop offset="1" style="stop-color:rgb(100%,100%,0%);stop-opacity:1;"/>
</linearGradient>
<linearGradient id="linear8" gradientUnits="userSpaceOnUse" x1="103.083" y1="111.276" x2="92.5511" y2="107.764" gradientTransform="matrix(0.996141,0,0,2.252552,703.84172,-75.047171)">
<stop offset="0" style="stop-color:rgb(100%,0%,0%);stop-opacity:1;"/>
<stop offset="1" style="stop-color:rgb(100%,100%,0%);stop-opacity:1;"/>
</linearGradient>
<linearGradient id="linear9" gradientUnits="userSpaceOnUse" x1="103.083" y1="111.276" x2="92.5511" y2="107.764" gradientTransform="matrix(0.996141,0,0,2.252552,703.84172,-75.047171)">
<stop offset="0" style="stop-color:rgb(100%,0%,0%);stop-opacity:1;"/>
<stop offset="1" style="stop-color:rgb(100%,100%,0%);stop-opacity:1;"/>
</linearGradient>
<linearGradient id="linear10" gradientUnits="userSpaceOnUse" x1="103.083" y1="111.276" x2="92.5511" y2="107.764" gradientTransform="matrix(0.996141,0,0,2.252552,703.84172,-75.047171)">
<stop offset="0" style="stop-color:rgb(100%,0%,0%);stop-opacity:1;"/>
<stop offset="1" style="stop-color:rgb(100%,100%,0%);stop-opacity:1;"/>
</linearGradient>
<linearGradient id="linear11" gradientUnits="userSpaceOnUse" x1="103.083" y1="111.276" x2="92.5511" y2="107.764" gradientTransform="matrix(0.996141,0,0,2.252552,703.84172,-75.047171)">
<stop offset="0" style="stop-color:rgb(100%,0%,0%);stop-opacity:1;"/>
<stop offset="1" style="stop-color:rgb(100%,100%,0%);stop-opacity:1;"/>
</linearGradient>
</defs>
<g id="surface52">
<path style=" stroke:none;fill-rule:nonzero;fill:rgb(0%,14.117647%,49.019608%);fill-opacity:1;" d="M 28.125 0.0351562 C 12.59375 0.0351562 0 12.628906 0 28.160156 C 0 43.695312 12.59375 56.285156 28.125 56.285156 C 43.425781 56.285156 55.867188 44.066406 56.234375 28.84375 L 56.234375 27.472656 C 55.867188 12.261719 43.425781 0.0351562 28.125 0.0351562 Z M 28.125 0.0351562 "/>
<path style=" stroke:none;fill-rule:nonzero;fill:rgb(100%,100%,100%);fill-opacity:1;" d="M 20.445312 1.105469 C 8.648438 4.449219 0 15.292969 0 28.160156 C 0 28.769531 0.0273438 29.367188 0.0664062 29.96875 L 1.925781 29.96875 L 1.925781 21.082031 L 14.613281 29.96875 L 20.445312 29.96875 L 20.445312 28.816406 L 7.5 19.753906 L 20.445312 19.753906 L 20.445312 11.171875 L 7.503906 11.171875 L 20.445312 2.113281 Z M 20.445312 1.105469 "/>
<path style=" stroke:none;fill-rule:nonzero;fill:rgb(81.176471%,7.843137%,16.862745%);fill-opacity:1;" d="M 20.414062 1.113281 C 14.28125 2.859375 9.003906 6.628906 5.355469 11.664062 Z M 4.542969 12.84375 C 3.179688 14.933594 2.085938 17.214844 1.316406 19.640625 L 16.066406 29.96875 L 20.445312 29.96875 L 20.445312 29.832031 L 3.664062 18.085938 L 20.445312 18.085938 L 20.445312 12.84375 Z M 0.257812 24.398438 C 0.09375 25.628906 0 26.882812 0 28.160156 C 0 28.769531 0.0273438 29.367188 0.0664062 29.96875 L 0.257812 29.96875 Z M 0.257812 24.398438 "/>
<path style=" stroke:none;fill-rule:nonzero;fill:rgb(100%,100%,100%);fill-opacity:1;" d="M 26.449219 13.15625 L 48.230469 13.074219 L 48.191406 32.476562 C 48.191406 32.476562 48.960938 35.425781 39.058594 39.910156 C 42.613281 39.546875 46.496094 35.75 46.496094 35.75 C 46.496094 35.75 48.070312 33.726562 48.839844 34.859375 C 49.605469 35.992188 50.332031 36.558594 50.898438 37.003906 C 51.464844 37.445312 51.910156 38.660156 51.0625 39.546875 C 50.210938 40.4375 48.878906 40.558594 48.515625 39.46875 C 47.949219 39.75 44.472656 43.953125 37.359375 44.15625 C 30.125 44.035156 26.164062 39.425781 26.164062 39.425781 C 26.164062 39.425781 25.195312 40.960938 23.820312 39.75 C 22.488281 38.175781 23.496094 37.164062 23.496094 37.164062 C 23.496094 37.164062 24.628906 36.515625 24.953125 36.074219 C 25.476562 35.464844 25.640625 34.65625 26.527344 34.65625 C 27.578125 34.738281 27.984375 35.585938 27.984375 35.585938 C 27.984375 35.585938 31.621094 39.425781 35.542969 39.910156 C 26.691406 35.667969 26.367188 33.039062 26.40625 32.394531 Z M 26.449219 13.15625 "/>
<path style="fill-rule:nonzero;fill:rgb(0%,38.039216%,16.078431%);fill-opacity:1;stroke-width:1.8873;stroke-linecap:butt;stroke-linejoin:miter;stroke:rgb(0%,0%,0%);stroke-opacity:1;stroke-miterlimit:4;" d="M 782.288541 150.122163 L 1021.074252 148.730219 L 1021.074252 363.35897 C 1021.568167 391.197845 974.646191 419.575538 901.232382 455.810978 C 825.4837 416.746749 781.839527 393.083705 781.390513 362.865054 Z M 782.288541 150.122163 " transform="matrix(0.0869962,0,0,0.0869962,-41.083435,0.623544)"/>
<path style="fill:none;stroke-width:1.8873;stroke-linecap:butt;stroke-linejoin:miter;stroke:rgb(96.862745%,77.647059%,0%);stroke-opacity:1;stroke-miterlimit:4;" d="M 814.797163 181.82256 L 828.896207 161.123009 L 843.040152 181.867461 " transform="matrix(0.0869962,0,0,0.0869962,-41.083435,0.623544)"/>
<path style="fill-rule:nonzero;fill:rgb(96.862745%,77.647059%,0%);fill-opacity:1;stroke-width:0.9437;stroke-linecap:butt;stroke-linejoin:miter;stroke:rgb(0%,0%,0%);stroke-opacity:1;stroke-miterlimit:4;" d="M 831.724996 174.099517 C 831.724996 175.626165 830.467756 176.883404 828.941108 176.883404 C 827.369559 176.883404 826.112319 175.626165 826.112319 174.099517 C 826.112319 172.527967 827.369559 171.270728 828.941108 171.270728 C 830.467756 171.270728 831.724996 172.527967 831.724996 174.099517 Z M 831.724996 174.099517 " transform="matrix(0.0869962,0,0,0.0869962,-41.083435,0.623544)"/>
<path style="fill-rule:nonzero;fill:rgb(96.862745%,77.647059%,0%);fill-opacity:1;stroke-width:0.9437;stroke-linecap:butt;stroke-linejoin:miter;stroke:rgb(0%,0%,0%);stroke-opacity:1;stroke-miterlimit:4;" d="M 817.446347 197.133941 L 839.313335 197.178843 C 839.313335 197.178843 839.627644 194.350054 837.023363 192.6438 C 848.473223 191.027349 845.464828 180.969433 855.07373 180.385715 C 856.914688 180.655123 850.044772 184.651349 850.044772 184.651349 C 850.044772 184.651349 844.297391 188.737377 846.901673 190.802842 C 849.01204 192.464195 849.910068 189.815011 850.224378 187.839349 C 850.493786 185.818786 859.51897 184.516645 858.216829 178.814165 C 856.061561 174.099517 843.489166 181.957264 843.489166 181.957264 L 834.508883 181.912363 C 833.925165 180.87963 831.455587 176.838503 828.896207 176.838503 C 825.887812 176.928306 823.732544 181.957264 823.732544 181.957264 L 803.437106 181.957264 C 803.437106 181.957264 802.718684 187.165828 813.046008 188.153659 C 815.33598 191.206955 817.132037 192.060082 819.1526 192.823406 C 817.805558 193.945941 817.446347 195.292984 817.446347 197.133941 Z M 817.446347 197.133941 " transform="matrix(0.0869962,0,0,0.0869962,-41.083435,0.623544)"/>
<path style="fill-rule:nonzero;fill:rgb(96.862745%,77.647059%,0%);fill-opacity:1;stroke-width:0.9437;stroke-linecap:butt;stroke-linejoin:miter;stroke:rgb(0%,0%,0%);stroke-opacity:1;stroke-miterlimit:4;" d="M 819.017896 192.688702 L 837.202968 192.6438 " transform="matrix(0.0869962,0,0,0.0869962,-41.083435,0.623544)"/>
<path style="fill-rule:nonzero;fill:rgb(96.862745%,77.647059%,0%);fill-opacity:1;stroke-width:0.9437;stroke-linecap:butt;stroke-linejoin:miter;stroke:rgb(0%,0%,0%);stroke-opacity:1;stroke-miterlimit:4;" d="M 810.666234 181.957264 C 810.666234 181.957264 812.14798 190.443631 818.838291 192.464195 " transform="matrix(0.0869962,0,0,0.0869962,-41.083435,0.623544)"/>
<path style="fill-rule:nonzero;fill:url(#linear0);stroke-width:0.9437;stroke-linecap:butt;stroke-linejoin:miter;stroke:rgb(0%,0%,0%);stroke-opacity:1;stroke-miterlimit:4;" d="M 809.543698 181.82256 C 810.217219 178.589658 811.474459 178.050841 812.821501 173.87501 C 813.046008 169.878784 809.543698 170.282897 810.576431 167.723516 C 812.372487 164.939629 811.474459 162.245544 808.106853 160.090276 C 808.780374 163.817093 803.751416 167.274502 803.751416 170.282897 C 803.751416 173.336193 806.310797 172.662672 805.996487 177.242616 C 806.220994 179.936701 805.322965 179.263179 805.098458 181.82256 Z M 809.543698 181.82256 " transform="matrix(0.0869962,0,0,0.0869962,-41.083435,0.623544)"/>
<path style="fill-rule:nonzero;fill:rgb(96.862745%,77.647059%,0%);fill-opacity:1;stroke-width:0.9437;stroke-linecap:butt;stroke-linejoin:miter;stroke:rgb(0%,0%,0%);stroke-opacity:1;stroke-miterlimit:4;" d="M 831.500489 161.661826 C 831.500489 163.098671 830.333052 164.221206 828.941108 164.221206 C 827.504263 164.221206 826.336826 163.098671 826.336826 161.661826 C 826.336826 160.224981 827.504263 159.102445 828.941108 159.102445 C 830.333052 159.102445 831.500489 160.224981 831.500489 161.661826 Z M 831.500489 161.661826 " transform="matrix(0.0869962,0,0,0.0869962,-41.083435,0.623544)"/>
<path style="fill:none;stroke-width:1.8873;stroke-linecap:butt;stroke-linejoin:miter;stroke:rgb(96.862745%,77.647059%,0%);stroke-opacity:1;stroke-miterlimit:4;" d="M 814.80604 181.827843 L 828.905084 161.128292 L 843.049028 181.872745 " transform="matrix(0.0869962,0,0,0.0869962,-41.150613,4.216834)"/>
<path style="fill-rule:nonzero;fill:rgb(96.862745%,77.647059%,0%);fill-opacity:1;stroke-width:0.9437;stroke-linecap:butt;stroke-linejoin:miter;stroke:rgb(0%,0%,0%);stroke-opacity:1;stroke-miterlimit:4;" d="M 831.733873 174.1048 C 831.733873 175.631448 830.476633 176.888688 828.905084 176.888688 C 827.378436 176.888688 826.121196 175.631448 826.121196 174.1048 C 826.121196 172.533251 827.378436 171.276011 828.905084 171.276011 C 830.476633 171.276011 831.733873 172.533251 831.733873 174.1048 Z M 831.733873 174.1048 " transform="matrix(0.0869962,0,0,0.0869962,-41.150613,4.216834)"/>
<path style="fill-rule:nonzero;fill:rgb(96.862745%,77.647059%,0%);fill-opacity:1;stroke-width:0.9437;stroke-linecap:butt;stroke-linejoin:miter;stroke:rgb(0%,0%,0%);stroke-opacity:1;stroke-miterlimit:4;" d="M 817.455223 197.139225 L 839.27731 197.184126 C 839.27731 197.184126 839.636521 194.355337 837.032239 192.604182 C 848.437198 191.032633 845.473705 180.929815 855.082607 180.390998 C 856.923565 180.660406 850.053649 184.656632 850.053649 184.656632 C 850.053649 184.656632 844.306268 188.742661 846.91055 190.808126 C 849.020916 192.469478 849.918944 189.820295 850.188353 187.799731 C 850.502663 185.824069 859.527847 184.521928 858.225706 178.819449 C 856.070438 174.1048 843.498043 181.962547 843.498043 181.962547 L 834.51776 181.917646 C 833.934042 180.884913 831.464464 176.843786 828.905084 176.843786 C 825.896689 176.933589 823.741421 181.962547 823.741421 181.962547 L 803.401081 181.962547 C 803.401081 181.962547 802.72756 187.171111 813.009984 188.158942 C 815.344857 191.212238 817.140914 192.065365 819.161477 192.828689 C 817.814435 193.951224 817.455223 195.298267 817.455223 197.139225 Z M 817.455223 197.139225 " transform="matrix(0.0869962,0,0,0.0869962,-41.150613,4.216834)"/>
<path style="fill-rule:nonzero;fill:rgb(96.862745%,77.647059%,0%);fill-opacity:1;stroke-width:0.9437;stroke-linecap:butt;stroke-linejoin:miter;stroke:rgb(0%,0%,0%);stroke-opacity:1;stroke-miterlimit:4;" d="M 819.026773 192.693985 L 837.211845 192.604182 " transform="matrix(0.0869962,0,0,0.0869962,-41.150613,4.216834)"/>
<path style="fill-rule:nonzero;fill:rgb(96.862745%,77.647059%,0%);fill-opacity:1;stroke-width:0.9437;stroke-linecap:butt;stroke-linejoin:miter;stroke:rgb(0%,0%,0%);stroke-opacity:1;stroke-miterlimit:4;" d="M 810.67511 181.962547 C 810.67511 181.962547 812.156857 190.448914 818.847167 192.469478 " transform="matrix(0.0869962,0,0,0.0869962,-41.150613,4.216834)"/>
<path style="fill-rule:nonzero;fill:url(#linear1);stroke-width:0.9437;stroke-linecap:butt;stroke-linejoin:miter;stroke:rgb(0%,0%,0%);stroke-opacity:1;stroke-miterlimit:4;" d="M 809.552575 181.827843 C 810.226096 178.594941 811.483336 178.011223 812.830378 173.880293 C 813.054885 169.839166 809.552575 170.28818 810.585307 167.7288 C 812.381364 164.944912 811.483336 162.250827 808.11573 160.09556 C 808.789251 163.822377 803.715391 167.279786 803.715391 170.28818 C 803.715391 173.341476 806.319673 172.667955 805.960462 177.247899 C 806.184969 179.941984 805.286941 179.268463 805.062434 181.827843 Z M 809.552575 181.827843 " transform="matrix(0.0869962,0,0,0.0869962,-41.150613,4.216834)"/>
<path style="fill-rule:nonzero;fill:rgb(96.862745%,77.647059%,0%);fill-opacity:1;stroke-width:0.9437;stroke-linecap:butt;stroke-linejoin:miter;stroke:rgb(0%,0%,0%);stroke-opacity:1;stroke-miterlimit:4;" d="M 831.509365 161.667109 C 831.509365 163.059053 830.341929 164.22649 828.905084 164.22649 C 827.51314 164.22649 826.345703 163.059053 826.345703 161.667109 C 826.345703 160.230264 827.51314 159.062827 828.905084 159.062827 C 830.341929 159.062827 831.509365 160.230264 831.509365 161.667109 Z M 831.509365 161.667109 " transform="matrix(0.0869962,0,0,0.0869962,-41.150613,4.216834)"/>
<path style="fill:none;stroke-width:1.8873;stroke-linecap:butt;stroke-linejoin:miter;stroke:rgb(96.862745%,77.647059%,0%);stroke-opacity:1;stroke-miterlimit:4;" d="M 814.80873 181.844424 L 828.907774 161.144873 L 843.051718 181.889326 " transform="matrix(0.0869962,0,0,0.0869962,-41.178191,7.75836)"/>
<path style="fill-rule:nonzero;fill:rgb(96.862745%,77.647059%,0%);fill-opacity:1;stroke-width:0.9437;stroke-linecap:butt;stroke-linejoin:miter;stroke:rgb(0%,0%,0%);stroke-opacity:1;stroke-miterlimit:4;" d="M 831.736563 174.07648 C 831.736563 175.648029 830.479323 176.905269 828.907774 176.905269 C 827.381126 176.905269 826.123886 175.648029 826.123886 174.07648 C 826.123886 172.549832 827.381126 171.292592 828.907774 171.292592 C 830.479323 171.292592 831.736563 172.549832 831.736563 174.07648 Z M 831.736563 174.07648 " transform="matrix(0.0869962,0,0,0.0869962,-41.178191,7.75836)"/>
<path style="fill-rule:nonzero;fill:rgb(96.862745%,77.647059%,0%);fill-opacity:1;stroke-width:0.9437;stroke-linecap:butt;stroke-linejoin:miter;stroke:rgb(0%,0%,0%);stroke-opacity:1;stroke-miterlimit:4;" d="M 817.457913 197.110904 L 839.28 197.200707 C 839.28 197.200707 839.639211 194.327017 837.034929 192.620763 C 848.439888 191.049214 845.476395 180.946396 855.085297 180.362677 C 856.926255 180.676987 850.056339 184.673213 850.056339 184.673213 C 850.056339 184.673213 844.264057 188.759242 846.91324 190.824707 C 849.023606 192.486059 849.921635 189.836875 850.191043 187.816312 C 850.505353 185.795748 859.485635 184.538509 858.228396 178.791128 C 856.073128 174.07648 843.500733 181.934227 843.500733 181.934227 L 834.52045 181.889326 C 833.936732 180.901494 831.467154 176.860367 828.907774 176.815466 C 825.854478 176.95017 823.744111 181.934227 823.744111 181.934227 L 803.403771 181.934227 C 803.403771 181.934227 802.73025 187.187692 813.012674 188.175523 C 815.347547 191.183918 817.143604 192.037045 819.164167 192.84527 C 817.817125 193.967805 817.457913 195.314848 817.457913 197.110904 Z M 817.457913 197.110904 " transform="matrix(0.0869962,0,0,0.0869962,-41.178191,7.75836)"/>
<path style="fill-rule:nonzero;fill:rgb(96.862745%,77.647059%,0%);fill-opacity:1;stroke-width:0.9437;stroke-linecap:butt;stroke-linejoin:miter;stroke:rgb(0%,0%,0%);stroke-opacity:1;stroke-miterlimit:4;" d="M 819.029463 192.665664 L 837.214535 192.620763 " transform="matrix(0.0869962,0,0,0.0869962,-41.178191,7.75836)"/>
<path style="fill-rule:nonzero;fill:rgb(96.862745%,77.647059%,0%);fill-opacity:1;stroke-width:0.9437;stroke-linecap:butt;stroke-linejoin:miter;stroke:rgb(0%,0%,0%);stroke-opacity:1;stroke-miterlimit:4;" d="M 810.6778 181.934227 C 810.6778 181.934227 812.114645 190.465495 818.849857 192.486059 " transform="matrix(0.0869962,0,0,0.0869962,-41.178191,7.75836)"/>
<path style="fill-rule:nonzero;fill:url(#linear2);stroke-width:0.9437;stroke-linecap:butt;stroke-linejoin:miter;stroke:rgb(0%,0%,0%);stroke-opacity:1;stroke-miterlimit:4;" d="M 809.555265 181.844424 C 810.228786 178.611522 811.486026 178.027804 812.788167 173.896874 C 813.012674 169.855747 809.555265 170.304761 810.587997 167.745381 C 812.339152 164.916592 811.486026 162.222507 808.11842 160.112141 C 808.791941 163.794056 803.718081 167.296367 803.718081 170.304761 C 803.718081 173.313156 806.322363 172.639635 805.963152 177.26448 C 806.187659 179.958565 805.289631 179.285044 805.065124 181.844424 Z M 809.555265 181.844424 " transform="matrix(0.0869962,0,0,0.0869962,-41.178191,7.75836)"/>
<path style="fill-rule:nonzero;fill:rgb(96.862745%,77.647059%,0%);fill-opacity:1;stroke-width:0.9437;stroke-linecap:butt;stroke-linejoin:miter;stroke:rgb(0%,0%,0%);stroke-opacity:1;stroke-miterlimit:4;" d="M 831.512056 161.638789 C 831.512056 163.075634 830.344619 164.24307 828.907774 164.24307 C 827.51583 164.24307 826.348393 163.075634 826.348393 161.638789 C 826.348393 160.246845 827.51583 159.079408 828.907774 159.079408 C 830.344619 159.079408 831.512056 160.246845 831.512056 161.638789 Z M 831.512056 161.638789 " transform="matrix(0.0869962,0,0,0.0869962,-41.178191,7.75836)"/>
<path style="fill:none;stroke-width:1.8873;stroke-linecap:butt;stroke-linejoin:miter;stroke:rgb(96.862745%,77.647059%,0%);stroke-opacity:1;stroke-miterlimit:4;" d="M 814.809071 181.806716 L 828.908114 161.107164 L 843.052059 181.851617 " transform="matrix(0.0869962,0,0,0.0869962,-38.854002,11.593672)"/>
<path style="fill-rule:nonzero;fill:rgb(96.862745%,77.647059%,0%);fill-opacity:1;stroke-width:0.9437;stroke-linecap:butt;stroke-linejoin:miter;stroke:rgb(0%,0%,0%);stroke-opacity:1;stroke-miterlimit:4;" d="M 831.736903 174.083673 C 831.736903 175.655222 830.479664 176.912462 828.908114 176.912462 C 827.381466 176.912462 826.124227 175.655222 826.124227 174.083673 C 826.124227 172.557025 827.381466 171.299785 828.908114 171.299785 C 830.479664 171.299785 831.736903 172.557025 831.736903 174.083673 Z M 831.736903 174.083673 " transform="matrix(0.0869962,0,0,0.0869962,-38.854002,11.593672)"/>
<path style="fill-rule:nonzero;fill:rgb(96.862745%,77.647059%,0%);fill-opacity:1;stroke-width:0.9437;stroke-linecap:butt;stroke-linejoin:miter;stroke:rgb(0%,0%,0%);stroke-opacity:1;stroke-miterlimit:4;" d="M 817.458254 197.118097 L 839.280341 197.162999 C 839.280341 197.162999 839.639552 194.33421 837.03527 192.627956 C 848.440229 191.056407 845.476735 180.953589 855.085638 180.36987 C 856.926596 180.68418 850.05668 184.680406 850.05668 184.680406 C 850.05668 184.680406 844.264397 188.766434 846.913581 190.831899 C 849.023947 192.44835 849.921975 189.844068 850.191384 187.823505 C 850.505694 185.802941 859.485976 184.545702 858.228737 178.798321 C 856.073469 174.083673 843.501073 181.94142 843.501073 181.94142 L 834.520791 181.896518 C 833.937073 180.908687 831.467495 176.86756 828.908114 176.822659 C 825.854818 176.957363 823.744452 181.94142 823.744452 181.94142 L 803.404112 181.94142 C 803.404112 181.94142 802.730591 187.149984 813.013014 188.182716 C 815.347888 191.191111 817.143944 192.044238 819.164508 192.807562 C 817.817465 193.930097 817.458254 195.322041 817.458254 197.118097 Z M 817.458254 197.118097 " transform="matrix(0.0869962,0,0,0.0869962,-38.854002,11.593672)"/>
<path style="fill-rule:nonzero;fill:rgb(96.862745%,77.647059%,0%);fill-opacity:1;stroke-width:0.9437;stroke-linecap:butt;stroke-linejoin:miter;stroke:rgb(0%,0%,0%);stroke-opacity:1;stroke-miterlimit:4;" d="M 819.029804 192.672857 L 837.214876 192.627956 " transform="matrix(0.0869962,0,0,0.0869962,-38.854002,11.593672)"/>
<path style="fill-rule:nonzero;fill:rgb(96.862745%,77.647059%,0%);fill-opacity:1;stroke-width:0.9437;stroke-linecap:butt;stroke-linejoin:miter;stroke:rgb(0%,0%,0%);stroke-opacity:1;stroke-miterlimit:4;" d="M 810.678141 181.94142 C 810.678141 181.94142 812.114986 190.472688 818.850198 192.493252 " transform="matrix(0.0869962,0,0,0.0869962,-38.854002,11.593672)"/>
<path style="fill-rule:nonzero;fill:url(#linear3);stroke-width:0.9437;stroke-linecap:butt;stroke-linejoin:miter;stroke:rgb(0%,0%,0%);stroke-opacity:1;stroke-miterlimit:4;" d="M 809.555606 181.851617 C 810.229127 178.573814 811.486366 178.034997 812.788507 173.904067 C 813.013014 169.86294 809.555606 170.311954 810.588338 167.707672 C 812.339493 164.923785 811.486366 162.2297 808.11876 160.119333 C 808.792282 163.801249 803.718422 167.258658 803.718422 170.311954 C 803.718422 173.320349 806.322704 172.646827 805.963493 177.226772 C 806.188 179.920856 805.289971 179.247335 805.065464 181.851617 Z M 809.555606 181.851617 " transform="matrix(0.0869962,0,0,0.0869962,-38.854002,11.593672)"/>
<path style="fill-rule:nonzero;fill:rgb(96.862745%,77.647059%,0%);fill-opacity:1;stroke-width:0.9437;stroke-linecap:butt;stroke-linejoin:miter;stroke:rgb(0%,0%,0%);stroke-opacity:1;stroke-miterlimit:4;" d="M 831.512396 161.645981 C 831.512396 163.082827 830.34496 164.250263 828.908114 164.250263 C 827.516171 164.250263 826.348734 163.082827 826.348734 161.645981 C 826.348734 160.254038 827.516171 159.086601 828.908114 159.086601 C 830.34496 159.086601 831.512396 160.254038 831.512396 161.645981 Z M 831.512396 161.645981 " transform="matrix(0.0869962,0,0,0.0869962,-38.854002,11.593672)"/>
<path style="fill:none;stroke-width:1.8873;stroke-linecap:butt;stroke-linejoin:miter;stroke:rgb(96.862745%,77.647059%,0%);stroke-opacity:1;stroke-miterlimit:4;" d="M 814.79142 181.843451 L 828.890463 161.1439 L 843.034408 181.888352 " transform="matrix(0.0869962,0,0,0.0869962,-41.481373,14.731101)"/>
<path style="fill-rule:nonzero;fill:rgb(96.862745%,77.647059%,0%);fill-opacity:1;stroke-width:0.9437;stroke-linecap:butt;stroke-linejoin:miter;stroke:rgb(0%,0%,0%);stroke-opacity:1;stroke-miterlimit:4;" d="M 831.719252 174.075507 C 831.719252 175.647056 830.462013 176.904296 828.935365 176.904296 C 827.363815 176.904296 826.106576 175.647056 826.106576 174.075507 C 826.106576 172.548859 827.363815 171.291619 828.935365 171.291619 C 830.462013 171.291619 831.719252 172.548859 831.719252 174.075507 Z M 831.719252 174.075507 " transform="matrix(0.0869962,0,0,0.0869962,-41.481373,14.731101)"/>
<path style="fill-rule:nonzero;fill:rgb(96.862745%,77.647059%,0%);fill-opacity:1;stroke-width:0.9437;stroke-linecap:butt;stroke-linejoin:miter;stroke:rgb(0%,0%,0%);stroke-opacity:1;stroke-miterlimit:4;" d="M 817.440603 197.109931 L 839.307591 197.199734 C 839.307591 197.199734 839.621901 194.326044 837.017619 192.61979 C 848.467479 191.048241 845.503986 180.945423 855.067987 180.361704 C 856.908945 180.676014 850.08393 184.67224 850.08393 184.67224 C 850.08393 184.67224 844.291648 188.758269 846.89593 190.823734 C 849.006296 192.485086 849.904324 189.835902 850.218634 187.815339 C 850.488043 185.794775 859.513227 184.537536 858.211086 178.790155 C 856.055818 174.075507 843.483422 181.933254 843.483422 181.933254 L 834.50314 181.888352 C 833.919422 180.900521 831.449844 176.859394 828.890463 176.814493 C 825.882069 176.949197 823.726801 181.933254 823.726801 181.933254 L 803.431363 181.933254 C 803.431363 181.933254 802.71294 187.186719 813.040265 188.17455 C 815.330237 191.182945 817.126293 192.036072 819.146857 192.844297 C 817.799815 193.966832 817.440603 195.313875 817.440603 197.109931 Z M 817.440603 197.109931 " transform="matrix(0.0869962,0,0,0.0869962,-41.481373,14.731101)"/>
<path style="fill-rule:nonzero;fill:rgb(96.862745%,77.647059%,0%);fill-opacity:1;stroke-width:0.9437;stroke-linecap:butt;stroke-linejoin:miter;stroke:rgb(0%,0%,0%);stroke-opacity:1;stroke-miterlimit:4;" d="M 819.012153 192.664691 L 837.197225 192.61979 " transform="matrix(0.0869962,0,0,0.0869962,-41.481373,14.731101)"/>
<path style="fill-rule:nonzero;fill:rgb(96.862745%,77.647059%,0%);fill-opacity:1;stroke-width:0.9437;stroke-linecap:butt;stroke-linejoin:miter;stroke:rgb(0%,0%,0%);stroke-opacity:1;stroke-miterlimit:4;" d="M 810.66049 181.933254 C 810.66049 181.933254 812.142237 190.464522 818.877449 192.485086 " transform="matrix(0.0869962,0,0,0.0869962,-41.481373,14.731101)"/>
<path style="fill-rule:nonzero;fill:url(#linear4);stroke-width:0.9437;stroke-linecap:butt;stroke-linejoin:miter;stroke:rgb(0%,0%,0%);stroke-opacity:1;stroke-miterlimit:4;" d="M 809.582856 181.843451 C 810.211476 178.610549 811.468715 178.026831 812.815758 173.895901 C 813.040265 169.854774 809.582856 170.303788 810.570687 167.744408 C 812.366744 164.915619 811.468715 162.221534 808.10111 160.111168 C 808.774631 163.793083 803.745673 167.295393 803.745673 170.303788 C 803.745673 173.312183 806.305053 172.638662 805.990743 177.263507 C 806.21525 179.957592 805.317222 179.284071 805.092715 181.843451 Z M 809.582856 181.843451 " transform="matrix(0.0869962,0,0,0.0869962,-41.481373,14.731101)"/>
<path style="fill-rule:nonzero;fill:rgb(96.862745%,77.647059%,0%);fill-opacity:1;stroke-width:0.9437;stroke-linecap:butt;stroke-linejoin:miter;stroke:rgb(0%,0%,0%);stroke-opacity:1;stroke-miterlimit:4;" d="M 831.494745 161.637816 C 831.494745 163.074661 830.327309 164.242097 828.935365 164.242097 C 827.49852 164.242097 826.331083 163.074661 826.331083 161.637816 C 826.331083 160.245872 827.49852 159.078435 828.935365 159.078435 C 830.327309 159.078435 831.494745 160.245872 831.494745 161.637816 Z M 831.494745 161.637816 " transform="matrix(0.0869962,0,0,0.0869962,-41.481373,14.731101)"/>
<path style="fill:none;stroke-width:1.8873;stroke-linecap:butt;stroke-linejoin:miter;stroke:rgb(96.862745%,77.647059%,0%);stroke-opacity:1;stroke-miterlimit:4;" d="M 814.807645 181.844891 L 828.906689 161.14534 L 843.050634 181.889793 " transform="matrix(0.0869962,0,0,0.0869962,-41.412472,18.438007)"/>
<path style="fill-rule:nonzero;fill:rgb(96.862745%,77.647059%,0%);fill-opacity:1;stroke-width:0.9437;stroke-linecap:butt;stroke-linejoin:miter;stroke:rgb(0%,0%,0%);stroke-opacity:1;stroke-miterlimit:4;" d="M 831.735478 174.076947 C 831.735478 175.648496 830.478238 176.905736 828.906689 176.905736 C 827.380041 176.905736 826.122801 175.648496 826.122801 174.076947 C 826.122801 172.550299 827.380041 171.293059 828.906689 171.293059 C 830.478238 171.293059 831.735478 172.550299 831.735478 174.076947 Z M 831.735478 174.076947 " transform="matrix(0.0869962,0,0,0.0869962,-41.412472,18.438007)"/>
<path style="fill-rule:nonzero;fill:rgb(96.862745%,77.647059%,0%);fill-opacity:1;stroke-width:0.9437;stroke-linecap:butt;stroke-linejoin:miter;stroke:rgb(0%,0%,0%);stroke-opacity:1;stroke-miterlimit:4;" d="M 817.456829 197.111372 L 839.278915 197.201174 C 839.278915 197.201174 839.638126 194.327484 837.033844 192.62123 C 848.438803 191.049681 845.47531 180.946863 855.084212 180.363145 C 856.92517 180.677455 850.055254 184.67368 850.055254 184.67368 C 850.055254 184.67368 844.262972 188.759709 846.912155 190.825174 C 849.022522 192.486526 849.92055 189.837343 850.189958 187.816779 C 850.504268 185.796216 859.484551 184.538976 858.227311 178.791595 C 856.072043 174.076947 843.499648 181.934694 843.499648 181.934694 L 834.519365 181.889793 C 833.935647 180.901962 831.466069 176.860835 828.906689 176.815933 C 825.853393 176.950637 823.743026 181.934694 823.743026 181.934694 L 803.402687 181.934694 C 803.402687 181.934694 802.729165 187.188159 813.011589 188.17599 C 815.346462 191.184385 817.142519 192.037512 819.163082 192.845737 C 817.81604 193.968273 817.456829 195.315315 817.456829 197.111372 Z M 817.456829 197.111372 " transform="matrix(0.0869962,0,0,0.0869962,-41.412472,18.438007)"/>
<path style="fill-rule:nonzero;fill:rgb(96.862745%,77.647059%,0%);fill-opacity:1;stroke-width:0.9437;stroke-linecap:butt;stroke-linejoin:miter;stroke:rgb(0%,0%,0%);stroke-opacity:1;stroke-miterlimit:4;" d="M 819.028378 192.666132 L 837.21345 192.62123 " transform="matrix(0.0869962,0,0,0.0869962,-41.412472,18.438007)"/>
<path style="fill-rule:nonzero;fill:rgb(96.862745%,77.647059%,0%);fill-opacity:1;stroke-width:0.9437;stroke-linecap:butt;stroke-linejoin:miter;stroke:rgb(0%,0%,0%);stroke-opacity:1;stroke-miterlimit:4;" d="M 810.676715 181.934694 C 810.676715 181.934694 812.158462 190.465963 818.848773 192.486526 " transform="matrix(0.0869962,0,0,0.0869962,-41.412472,18.438007)"/>
<path style="fill-rule:nonzero;fill:url(#linear5);stroke-width:0.9437;stroke-linecap:butt;stroke-linejoin:miter;stroke:rgb(0%,0%,0%);stroke-opacity:1;stroke-miterlimit:4;" d="M 809.55418 181.844891 C 810.227701 178.61199 811.484941 178.028271 812.787082 173.897341 C 813.011589 169.856214 809.55418 170.305228 810.586913 167.745848 C 812.382969 164.917059 811.484941 162.222974 808.117335 160.112608 C 808.790856 163.794524 803.716997 167.296834 803.716997 170.305228 C 803.716997 173.313623 806.321278 172.640102 805.962067 177.264947 C 806.186574 179.959032 805.288546 179.285511 805.064039 181.844891 Z M 809.55418 181.844891 " transform="matrix(0.0869962,0,0,0.0869962,-41.412472,18.438007)"/>
<path style="fill-rule:nonzero;fill:rgb(96.862745%,77.647059%,0%);fill-opacity:1;stroke-width:0.9437;stroke-linecap:butt;stroke-linejoin:miter;stroke:rgb(0%,0%,0%);stroke-opacity:1;stroke-miterlimit:4;" d="M 831.510971 161.639256 C 831.510971 163.076101 830.343534 164.243538 828.906689 164.243538 C 827.514745 164.243538 826.347308 163.076101 826.347308 161.639256 C 826.347308 160.247312 827.514745 159.079875 828.906689 159.079875 C 830.343534 159.079875 831.510971 160.247312 831.510971 161.639256 Z M 831.510971 161.639256 " transform="matrix(0.0869962,0,0,0.0869962,-41.412472,18.438007)"/>
<path style="fill:none;stroke-width:1.8873;stroke-linecap:butt;stroke-linejoin:miter;stroke:rgb(96.862745%,77.647059%,0%);stroke-opacity:1;stroke-miterlimit:4;" d="M 814.806165 181.824066 L 828.905208 161.124515 L 843.049153 181.868968 " transform="matrix(0.0869962,0,0,0.0869962,-28.357656,0.682006)"/>
<path style="fill-rule:nonzero;fill:rgb(96.862745%,77.647059%,0%);fill-opacity:1;stroke-width:0.9437;stroke-linecap:butt;stroke-linejoin:miter;stroke:rgb(0%,0%,0%);stroke-opacity:1;stroke-miterlimit:4;" d="M 831.733997 174.101023 C 831.733997 175.627671 830.476758 176.884911 828.905208 176.884911 C 827.37856 176.884911 826.121321 175.627671 826.121321 174.101023 C 826.121321 172.529474 827.37856 171.272234 828.905208 171.272234 C 830.476758 171.272234 831.733997 172.529474 831.733997 174.101023 Z M 831.733997 174.101023 " transform="matrix(0.0869962,0,0,0.0869962,-28.357656,0.682006)"/>
<path style="fill-rule:nonzero;fill:rgb(96.862745%,77.647059%,0%);fill-opacity:1;stroke-width:0.9437;stroke-linecap:butt;stroke-linejoin:miter;stroke:rgb(0%,0%,0%);stroke-opacity:1;stroke-miterlimit:4;" d="M 817.455348 197.135448 L 839.277434 197.180349 C 839.277434 197.180349 839.636646 194.35156 837.032364 192.600405 C 848.437323 191.028856 845.473829 180.970939 855.082732 180.387221 C 856.923689 180.656629 850.053773 184.652855 850.053773 184.652855 C 850.053773 184.652855 844.306393 188.738884 846.910675 190.804349 C 849.021041 192.465701 849.919069 189.816518 850.188478 187.840855 C 850.502788 185.820292 859.527971 184.518151 858.22583 178.815672 C 856.070563 174.101023 843.498167 181.95877 843.498167 181.95877 L 834.517885 181.913869 C 833.934166 180.881137 831.464589 176.840009 828.905208 176.840009 C 825.896814 176.929812 823.741546 181.95877 823.741546 181.95877 L 803.401206 181.95877 C 803.401206 181.95877 802.727685 187.167334 813.010108 188.155165 C 815.344982 191.208461 817.141038 192.061588 819.161602 192.824912 C 817.814559 193.947447 817.455348 195.29449 817.455348 197.135448 Z M 817.455348 197.135448 " transform="matrix(0.0869962,0,0,0.0869962,-28.357656,0.682006)"/>
<path style="fill-rule:nonzero;fill:rgb(96.862745%,77.647059%,0%);fill-opacity:1;stroke-width:0.9437;stroke-linecap:butt;stroke-linejoin:miter;stroke:rgb(0%,0%,0%);stroke-opacity:1;stroke-miterlimit:4;" d="M 819.026897 192.690208 L 837.211969 192.600405 " transform="matrix(0.0869962,0,0,0.0869962,-28.357656,0.682006)"/>
<path style="fill-rule:nonzero;fill:rgb(96.862745%,77.647059%,0%);fill-opacity:1;stroke-width:0.9437;stroke-linecap:butt;stroke-linejoin:miter;stroke:rgb(0%,0%,0%);stroke-opacity:1;stroke-miterlimit:4;" d="M 810.675235 181.95877 C 810.675235 181.95877 812.156981 190.445137 818.847292 192.465701 " transform="matrix(0.0869962,0,0,0.0869962,-28.357656,0.682006)"/>
<path style="fill-rule:nonzero;fill:url(#linear6);stroke-width:0.9437;stroke-linecap:butt;stroke-linejoin:miter;stroke:rgb(0%,0%,0%);stroke-opacity:1;stroke-miterlimit:4;" d="M 809.552699 181.824066 C 810.226221 178.591164 811.48346 178.052348 812.830503 173.876516 C 813.05501 169.835389 809.552699 170.284403 810.585432 167.725023 C 812.381488 164.941135 811.48346 162.24705 808.115854 160.091783 C 808.789375 163.8186 803.715516 167.276009 803.715516 170.284403 C 803.715516 173.337699 806.319798 172.664178 805.960586 177.244122 C 806.185094 179.938207 805.287065 179.264686 805.062558 181.824066 Z M 809.552699 181.824066 " transform="matrix(0.0869962,0,0,0.0869962,-28.357656,0.682006)"/>
<path style="fill-rule:nonzero;fill:rgb(96.862745%,77.647059%,0%);fill-opacity:1;stroke-width:0.9437;stroke-linecap:butt;stroke-linejoin:miter;stroke:rgb(0%,0%,0%);stroke-opacity:1;stroke-miterlimit:4;" d="M 831.50949 161.663332 C 831.50949 163.100177 830.342053 164.222713 828.905208 164.222713 C 827.513264 164.222713 826.345828 163.100177 826.345828 161.663332 C 826.345828 160.226487 827.513264 159.05905 828.905208 159.05905 C 830.342053 159.05905 831.50949 160.226487 831.50949 161.663332 Z M 831.50949 161.663332 " transform="matrix(0.0869962,0,0,0.0869962,-28.357656,0.682006)"/>
<path style="fill:none;stroke-width:1.8873;stroke-linecap:butt;stroke-linejoin:miter;stroke:rgb(96.862745%,77.647059%,0%);stroke-opacity:1;stroke-miterlimit:4;" d="M 814.803112 181.824042 L 828.902156 161.124491 L 843.046101 181.868944 " transform="matrix(0.0869962,0,0,0.0869962,-28.474578,4.209352)"/>
<path style="fill-rule:nonzero;fill:rgb(96.862745%,77.647059%,0%);fill-opacity:1;stroke-width:0.9437;stroke-linecap:butt;stroke-linejoin:miter;stroke:rgb(0%,0%,0%);stroke-opacity:1;stroke-miterlimit:4;" d="M 831.730945 174.100999 C 831.730945 175.627647 830.473705 176.884887 828.902156 176.884887 C 827.375508 176.884887 826.118268 175.627647 826.118268 174.100999 C 826.118268 172.52945 827.375508 171.27221 828.902156 171.27221 C 830.473705 171.27221 831.730945 172.52945 831.730945 174.100999 Z M 831.730945 174.100999 " transform="matrix(0.0869962,0,0,0.0869962,-28.474578,4.209352)"/>
<path style="fill-rule:nonzero;fill:rgb(96.862745%,77.647059%,0%);fill-opacity:1;stroke-width:0.9437;stroke-linecap:butt;stroke-linejoin:miter;stroke:rgb(0%,0%,0%);stroke-opacity:1;stroke-miterlimit:4;" d="M 817.452296 197.135424 L 839.274382 197.180325 C 839.274382 197.180325 839.633593 194.351536 837.029311 192.600381 C 848.479172 191.028832 845.470777 180.970915 855.079679 180.387197 C 856.920637 180.656606 850.050721 184.652831 850.050721 184.652831 C 850.050721 184.652831 844.30334 188.73886 846.907622 190.804325 C 849.017989 192.465677 849.916017 189.816494 850.185425 187.840832 C 850.499735 185.820268 859.524919 184.518127 858.222778 178.815648 C 856.06751 174.100999 843.495115 181.958747 843.495115 181.958747 L 834.514832 181.913845 C 833.931114 180.881113 831.461536 176.839986 828.902156 176.839986 C 825.893761 176.929788 823.738493 181.958747 823.738493 181.958747 L 803.443055 181.958747 C 803.443055 181.958747 802.724632 187.16731 813.007056 188.155141 C 815.341929 191.208437 817.137986 192.061564 819.158549 192.824888 C 817.811507 193.947424 817.452296 195.294466 817.452296 197.135424 Z M 817.452296 197.135424 " transform="matrix(0.0869962,0,0,0.0869962,-28.474578,4.209352)"/>
<path style="fill-rule:nonzero;fill:rgb(96.862745%,77.647059%,0%);fill-opacity:1;stroke-width:0.9437;stroke-linecap:butt;stroke-linejoin:miter;stroke:rgb(0%,0%,0%);stroke-opacity:1;stroke-miterlimit:4;" d="M 819.023845 192.690184 L 837.208917 192.600381 " transform="matrix(0.0869962,0,0,0.0869962,-28.474578,4.209352)"/>
<path style="fill-rule:nonzero;fill:rgb(96.862745%,77.647059%,0%);fill-opacity:1;stroke-width:0.9437;stroke-linecap:butt;stroke-linejoin:miter;stroke:rgb(0%,0%,0%);stroke-opacity:1;stroke-miterlimit:4;" d="M 810.672182 181.958747 C 810.672182 181.958747 812.153929 190.445113 818.844239 192.465677 " transform="matrix(0.0869962,0,0,0.0869962,-28.474578,4.209352)"/>
<path style="fill-rule:nonzero;fill:url(#linear7);stroke-width:0.9437;stroke-linecap:butt;stroke-linejoin:miter;stroke:rgb(0%,0%,0%);stroke-opacity:1;stroke-miterlimit:4;" d="M 809.549647 181.824042 C 810.223168 178.591141 811.480408 178.052324 812.82745 173.876492 C 813.051957 169.835365 809.549647 170.284379 810.58238 167.724999 C 812.378436 164.941111 811.480408 162.247027 808.112802 160.091759 C 808.786323 163.818576 803.757365 167.275985 803.757365 170.284379 C 803.757365 173.337675 806.316745 172.664154 805.957534 177.244098 C 806.182041 179.938183 805.284013 179.264662 805.059506 181.824042 Z M 809.549647 181.824042 " transform="matrix(0.0869962,0,0,0.0869962,-28.474578,4.209352)"/>
<path style="fill-rule:nonzero;fill:rgb(96.862745%,77.647059%,0%);fill-opacity:1;stroke-width:0.9437;stroke-linecap:butt;stroke-linejoin:miter;stroke:rgb(0%,0%,0%);stroke-opacity:1;stroke-miterlimit:4;" d="M 831.506438 161.663308 C 831.506438 163.100153 830.339001 164.222689 828.902156 164.222689 C 827.510212 164.222689 826.342775 163.100153 826.342775 161.663308 C 826.342775 160.226463 827.510212 159.059026 828.902156 159.059026 C 830.339001 159.059026 831.506438 160.226463 831.506438 161.663308 Z M 831.506438 161.663308 " transform="matrix(0.0869962,0,0,0.0869962,-28.474578,4.209352)"/>
<path style="fill:none;stroke-width:1.8873;stroke-linecap:butt;stroke-linejoin:miter;stroke:rgb(96.862745%,77.647059%,0%);stroke-opacity:1;stroke-miterlimit:4;" d="M 814.799066 181.825042 L 828.898109 161.125491 L 843.042054 181.869943 " transform="matrix(0.0869962,0,0,0.0869962,-28.630476,7.814734)"/>
<path style="fill-rule:nonzero;fill:rgb(96.862745%,77.647059%,0%);fill-opacity:1;stroke-width:0.9437;stroke-linecap:butt;stroke-linejoin:miter;stroke:rgb(0%,0%,0%);stroke-opacity:1;stroke-miterlimit:4;" d="M 831.726898 174.101999 C 831.726898 175.628647 830.469659 176.885887 828.898109 176.885887 C 827.371461 176.885887 826.114222 175.628647 826.114222 174.101999 C 826.114222 172.53045 827.371461 171.27321 828.898109 171.27321 C 830.469659 171.27321 831.726898 172.53045 831.726898 174.101999 Z M 831.726898 174.101999 " transform="matrix(0.0869962,0,0,0.0869962,-28.630476,7.814734)"/>
<path style="fill-rule:nonzero;fill:rgb(96.862745%,77.647059%,0%);fill-opacity:1;stroke-width:0.9437;stroke-linecap:butt;stroke-linejoin:miter;stroke:rgb(0%,0%,0%);stroke-opacity:1;stroke-miterlimit:4;" d="M 817.448249 197.136423 L 839.315237 197.181325 C 839.315237 197.181325 839.629547 194.352536 837.025265 192.601381 C 848.475125 191.029831 845.46673 180.971915 855.075633 180.388197 C 856.916591 180.657605 850.046675 184.653831 850.046675 184.653831 C 850.046675 184.653831 844.299294 188.739859 846.903576 190.805324 C 849.013942 192.466677 849.91197 189.817493 850.22628 187.841831 C 850.495689 185.821268 859.520873 184.519127 858.218732 178.816647 C 856.063464 174.101999 843.491068 181.959746 843.491068 181.959746 L 834.510786 181.914845 C 833.927068 180.882112 831.45749 176.840985 828.898109 176.840985 C 825.889715 176.930788 823.734447 181.959746 823.734447 181.959746 L 803.439009 181.959746 C 803.439009 181.959746 802.720586 187.16831 813.047911 188.156141 C 815.337883 191.209437 817.133939 192.062564 819.154503 192.825888 C 817.80746 193.948423 817.448249 195.295466 817.448249 197.136423 Z M 817.448249 197.136423 " transform="matrix(0.0869962,0,0,0.0869962,-28.630476,7.814734)"/>
<path style="fill-rule:nonzero;fill:rgb(96.862745%,77.647059%,0%);fill-opacity:1;stroke-width:0.9437;stroke-linecap:butt;stroke-linejoin:miter;stroke:rgb(0%,0%,0%);stroke-opacity:1;stroke-miterlimit:4;" d="M 819.019799 192.691184 L 837.204871 192.601381 " transform="matrix(0.0869962,0,0,0.0869962,-28.630476,7.814734)"/>
<path style="fill-rule:nonzero;fill:rgb(96.862745%,77.647059%,0%);fill-opacity:1;stroke-width:0.9437;stroke-linecap:butt;stroke-linejoin:miter;stroke:rgb(0%,0%,0%);stroke-opacity:1;stroke-miterlimit:4;" d="M 810.668136 181.959746 C 810.668136 181.959746 812.149883 190.446113 818.840193 192.466677 " transform="matrix(0.0869962,0,0,0.0869962,-28.630476,7.814734)"/>
<path style="fill-rule:nonzero;fill:url(#linear8);stroke-width:0.9437;stroke-linecap:butt;stroke-linejoin:miter;stroke:rgb(0%,0%,0%);stroke-opacity:1;stroke-miterlimit:4;" d="M 809.545601 181.825042 C 810.219122 178.59214 811.476361 178.053323 812.823404 173.877492 C 813.047911 169.836365 809.545601 170.285379 810.578333 167.725998 C 812.37439 164.942111 811.476361 162.248026 808.108755 160.092758 C 808.782277 163.819576 803.753318 167.276984 803.753318 170.285379 C 803.753318 173.338675 806.312699 172.665154 805.998389 177.245098 C 806.222896 179.939183 805.324868 179.265661 805.100361 181.825042 Z M 809.545601 181.825042 " transform="matrix(0.0869962,0,0,0.0869962,-28.630476,7.814734)"/>
<path style="fill-rule:nonzero;fill:rgb(96.862745%,77.647059%,0%);fill-opacity:1;stroke-width:0.9437;stroke-linecap:butt;stroke-linejoin:miter;stroke:rgb(0%,0%,0%);stroke-opacity:1;stroke-miterlimit:4;" d="M 831.502391 161.664308 C 831.502391 163.101153 830.334955 164.223688 828.898109 164.223688 C 827.506166 164.223688 826.338729 163.101153 826.338729 161.664308 C 826.338729 160.227463 827.506166 159.060026 828.898109 159.060026 C 830.334955 159.060026 831.502391 160.227463 831.502391 161.664308 Z M 831.502391 161.664308 " transform="matrix(0.0869962,0,0,0.0869962,-28.630476,7.814734)"/>
<path style="fill:none;stroke-width:1.8873;stroke-linecap:butt;stroke-linejoin:miter;stroke:rgb(96.862745%,77.647059%,0%);stroke-opacity:1;stroke-miterlimit:4;" d="M 814.803619 181.825532 L 828.902663 161.125981 L 843.046608 181.870434 " transform="matrix(0.0869962,0,0,0.0869962,-28.45509,11.361566)"/>
<path style="fill-rule:nonzero;fill:rgb(96.862745%,77.647059%,0%);fill-opacity:1;stroke-width:0.9437;stroke-linecap:butt;stroke-linejoin:miter;stroke:rgb(0%,0%,0%);stroke-opacity:1;stroke-miterlimit:4;" d="M 831.731452 174.102489 C 831.731452 175.629137 830.474212 176.886377 828.902663 176.886377 C 827.376015 176.886377 826.118775 175.629137 826.118775 174.102489 C 826.118775 172.53094 827.376015 171.2737 828.902663 171.2737 C 830.474212 171.2737 831.731452 172.53094 831.731452 174.102489 Z M 831.731452 174.102489 " transform="matrix(0.0869962,0,0,0.0869962,-28.45509,11.361566)"/>
<path style="fill-rule:nonzero;fill:rgb(96.862745%,77.647059%,0%);fill-opacity:1;stroke-width:0.9437;stroke-linecap:butt;stroke-linejoin:miter;stroke:rgb(0%,0%,0%);stroke-opacity:1;stroke-miterlimit:4;" d="M 817.452803 197.136914 L 839.274889 197.181815 C 839.274889 197.181815 839.6341 194.353026 837.029819 192.601871 C 848.479679 191.030322 845.471284 180.972405 855.080186 180.388687 C 856.921144 180.658096 850.051228 184.654321 850.051228 184.654321 C 850.051228 184.654321 844.303847 188.74035 846.908129 190.805815 C 849.018496 192.467167 849.916524 189.817984 850.185932 187.79742 C 850.500242 185.821758 859.525426 184.519617 858.223285 178.817138 C 856.068017 174.102489 843.495622 181.960236 843.495622 181.960236 L 834.515339 181.915335 C 833.931621 180.882603 831.462043 176.841475 828.902663 176.841475 C 825.894268 176.931278 823.739 181.960236 823.739 181.960236 L 803.443562 181.960236 C 803.443562 181.960236 802.72514 187.1688 813.007563 188.156631 C 815.342436 191.209927 817.138493 192.063054 819.159056 192.826378 C 817.812014 193.948914 817.452803 195.295956 817.452803 197.136914 Z M 817.452803 197.136914 " transform="matrix(0.0869962,0,0,0.0869962,-28.45509,11.361566)"/>
<path style="fill-rule:nonzero;fill:rgb(96.862745%,77.647059%,0%);fill-opacity:1;stroke-width:0.9437;stroke-linecap:butt;stroke-linejoin:miter;stroke:rgb(0%,0%,0%);stroke-opacity:1;stroke-miterlimit:4;" d="M 819.024352 192.691674 L 837.209424 192.601871 " transform="matrix(0.0869962,0,0,0.0869962,-28.45509,11.361566)"/>
<path style="fill-rule:nonzero;fill:rgb(96.862745%,77.647059%,0%);fill-opacity:1;stroke-width:0.9437;stroke-linecap:butt;stroke-linejoin:miter;stroke:rgb(0%,0%,0%);stroke-opacity:1;stroke-miterlimit:4;" d="M 810.672689 181.960236 C 810.672689 181.960236 812.154436 190.446603 818.844747 192.467167 " transform="matrix(0.0869962,0,0,0.0869962,-28.45509,11.361566)"/>
<path style="fill-rule:nonzero;fill:url(#linear9);stroke-width:0.9437;stroke-linecap:butt;stroke-linejoin:miter;stroke:rgb(0%,0%,0%);stroke-opacity:1;stroke-miterlimit:4;" d="M 809.550154 181.825532 C 810.223675 178.592631 811.480915 178.053814 812.827957 173.877982 C 813.052464 169.836855 809.550154 170.285869 810.582887 167.726489 C 812.378943 164.942601 811.480915 162.248516 808.113309 160.093249 C 808.78683 163.820066 803.757872 167.277475 803.757872 170.285869 C 803.757872 173.339165 806.317252 172.665644 805.958041 177.245588 C 806.182548 179.939673 805.28452 179.266152 805.060013 181.825532 Z M 809.550154 181.825532 " transform="matrix(0.0869962,0,0,0.0869962,-28.45509,11.361566)"/>
<path style="fill-rule:nonzero;fill:rgb(96.862745%,77.647059%,0%);fill-opacity:1;stroke-width:0.9437;stroke-linecap:butt;stroke-linejoin:miter;stroke:rgb(0%,0%,0%);stroke-opacity:1;stroke-miterlimit:4;" d="M 831.506945 161.664798 C 831.506945 163.101643 830.339508 164.224179 828.902663 164.224179 C 827.510719 164.224179 826.343282 163.101643 826.343282 161.664798 C 826.343282 160.227953 827.510719 159.060516 828.902663 159.060516 C 830.339508 159.060516 831.506945 160.227953 831.506945 161.664798 Z M 831.506945 161.664798 " transform="matrix(0.0869962,0,0,0.0869962,-28.45509,11.361566)"/>
<path style="fill:none;stroke-width:1.8873;stroke-linecap:butt;stroke-linejoin:miter;stroke:rgb(96.862745%,77.647059%,0%);stroke-opacity:1;stroke-miterlimit:4;" d="M 814.802605 181.826025 L 828.901649 161.126474 L 843.045594 181.870926 " transform="matrix(0.0869962,0,0,0.0869962,-28.494065,14.908398)"/>
<path style="fill-rule:nonzero;fill:rgb(96.862745%,77.647059%,0%);fill-opacity:1;stroke-width:0.9437;stroke-linecap:butt;stroke-linejoin:miter;stroke:rgb(0%,0%,0%);stroke-opacity:1;stroke-miterlimit:4;" d="M 831.730438 174.102982 C 831.730438 175.62963 830.473198 176.886869 828.901649 176.886869 C 827.375001 176.886869 826.117761 175.62963 826.117761 174.102982 C 826.117761 172.531432 827.375001 171.274193 828.901649 171.274193 C 830.473198 171.274193 831.730438 172.531432 831.730438 174.102982 Z M 831.730438 174.102982 " transform="matrix(0.0869962,0,0,0.0869962,-28.494065,14.908398)"/>
<path style="fill-rule:nonzero;fill:rgb(96.862745%,77.647059%,0%);fill-opacity:1;stroke-width:0.9437;stroke-linecap:butt;stroke-linejoin:miter;stroke:rgb(0%,0%,0%);stroke-opacity:1;stroke-miterlimit:4;" d="M 817.451789 197.137406 L 839.273875 197.182308 C 839.273875 197.182308 839.633086 194.353519 837.028804 192.602364 C 848.478665 191.030814 845.47027 180.972898 855.079172 180.389179 C 856.92013 180.658588 850.050214 184.654814 850.050214 184.654814 C 850.050214 184.654814 844.302833 188.740842 846.907115 190.806307 C 849.017481 192.467659 849.91551 189.818476 850.184918 187.797912 C 850.499228 185.82225 859.524412 184.520109 858.222271 178.81763 C 856.067003 174.102982 843.494608 181.960729 843.494608 181.960729 L 834.514325 181.915827 C 833.930607 180.883095 831.461029 176.841968 828.901649 176.841968 C 825.893254 176.931771 823.737986 181.960729 823.737986 181.960729 L 803.442548 181.960729 C 803.442548 181.960729 802.724125 187.169293 813.006549 188.157124 C 815.341422 191.21042 817.137479 192.063547 819.158042 192.826871 C 817.811 193.949406 817.451789 195.296448 817.451789 197.137406 Z M 817.451789 197.137406 " transform="matrix(0.0869962,0,0,0.0869962,-28.494065,14.908398)"/>
<path style="fill-rule:nonzero;fill:rgb(96.862745%,77.647059%,0%);fill-opacity:1;stroke-width:0.9437;stroke-linecap:butt;stroke-linejoin:miter;stroke:rgb(0%,0%,0%);stroke-opacity:1;stroke-miterlimit:4;" d="M 819.023338 192.692166 L 837.20841 192.602364 " transform="matrix(0.0869962,0,0,0.0869962,-28.494065,14.908398)"/>
<path style="fill-rule:nonzero;fill:rgb(96.862745%,77.647059%,0%);fill-opacity:1;stroke-width:0.9437;stroke-linecap:butt;stroke-linejoin:miter;stroke:rgb(0%,0%,0%);stroke-opacity:1;stroke-miterlimit:4;" d="M 810.671675 181.960729 C 810.671675 181.960729 812.153422 190.447096 818.843732 192.467659 " transform="matrix(0.0869962,0,0,0.0869962,-28.494065,14.908398)"/>
<path style="fill-rule:nonzero;fill:url(#linear10);stroke-width:0.9437;stroke-linecap:butt;stroke-linejoin:miter;stroke:rgb(0%,0%,0%);stroke-opacity:1;stroke-miterlimit:4;" d="M 809.54914 181.826025 C 810.222661 178.593123 811.479901 178.054306 812.826943 173.878475 C 813.05145 169.837348 809.54914 170.286362 810.581873 167.726981 C 812.377929 164.943094 811.479901 162.249009 808.112295 160.093741 C 808.785816 163.820558 803.756858 167.277967 803.756858 170.286362 C 803.756858 173.339658 806.316238 172.666137 805.957027 177.246081 C 806.181534 179.940165 805.283506 179.266644 805.058999 181.826025 Z M 809.54914 181.826025 " transform="matrix(0.0869962,0,0,0.0869962,-28.494065,14.908398)"/>
<path style="fill-rule:nonzero;fill:rgb(96.862745%,77.647059%,0%);fill-opacity:1;stroke-width:0.9437;stroke-linecap:butt;stroke-linejoin:miter;stroke:rgb(0%,0%,0%);stroke-opacity:1;stroke-miterlimit:4;" d="M 831.505931 161.66529 C 831.505931 163.057234 830.338494 164.224671 828.901649 164.224671 C 827.509705 164.224671 826.342268 163.057234 826.342268 161.66529 C 826.342268 160.228445 827.509705 159.061009 828.901649 159.061009 C 830.338494 159.061009 831.505931 160.228445 831.505931 161.66529 Z M 831.505931 161.66529 " transform="matrix(0.0869962,0,0,0.0869962,-28.494065,14.908398)"/>
<path style="fill:none;stroke-width:1.8873;stroke-linecap:butt;stroke-linejoin:miter;stroke:rgb(96.862745%,77.647059%,0%);stroke-opacity:1;stroke-miterlimit:4;" d="M 814.803112 181.827004 L 828.902156 161.127453 L 843.046101 181.871905 " transform="matrix(0.0869962,0,0,0.0869962,-28.474578,18.474719)"/>
<path style="fill-rule:nonzero;fill:rgb(96.862745%,77.647059%,0%);fill-opacity:1;stroke-width:0.9437;stroke-linecap:butt;stroke-linejoin:miter;stroke:rgb(0%,0%,0%);stroke-opacity:1;stroke-miterlimit:4;" d="M 831.730945 174.103961 C 831.730945 175.630609 830.473705 176.887849 828.902156 176.887849 C 827.375508 176.887849 826.118268 175.630609 826.118268 174.103961 C 826.118268 172.532412 827.375508 171.275172 828.902156 171.275172 C 830.473705 171.275172 831.730945 172.532412 831.730945 174.103961 Z M 831.730945 174.103961 " transform="matrix(0.0869962,0,0,0.0869962,-28.474578,18.474719)"/>
<path style="fill-rule:nonzero;fill:rgb(96.862745%,77.647059%,0%);fill-opacity:1;stroke-width:0.9437;stroke-linecap:butt;stroke-linejoin:miter;stroke:rgb(0%,0%,0%);stroke-opacity:1;stroke-miterlimit:4;" d="M 817.452296 197.138386 L 839.274382 197.183287 C 839.274382 197.183287 839.633593 194.354498 837.029311 192.603343 C 848.479172 191.031794 845.470777 180.973877 855.079679 180.390159 C 856.920637 180.659567 850.050721 184.655793 850.050721 184.655793 C 850.050721 184.655793 844.30334 188.741822 846.907622 190.807287 C 849.017989 192.468639 849.916017 189.819455 850.185425 187.798892 C 850.499735 185.82323 859.524919 184.521089 858.222778 178.818609 C 856.06751 174.103961 843.495115 181.961708 843.495115 181.961708 L 834.514832 181.916807 C 833.931114 180.884074 831.461536 176.842947 828.902156 176.842947 C 825.893761 176.93275 823.738493 181.961708 823.738493 181.961708 L 803.443055 181.961708 C 803.443055 181.961708 802.724632 187.170272 813.007056 188.158103 C 815.341929 191.211399 817.137986 192.064526 819.158549 192.82785 C 817.811507 193.950385 817.452296 195.297428 817.452296 197.138386 Z M 817.452296 197.138386 " transform="matrix(0.0869962,0,0,0.0869962,-28.474578,18.474719)"/>
<path style="fill-rule:nonzero;fill:rgb(96.862745%,77.647059%,0%);fill-opacity:1;stroke-width:0.9437;stroke-linecap:butt;stroke-linejoin:miter;stroke:rgb(0%,0%,0%);stroke-opacity:1;stroke-miterlimit:4;" d="M 819.023845 192.693146 L 837.208917 192.603343 " transform="matrix(0.0869962,0,0,0.0869962,-28.474578,18.474719)"/>
<path style="fill-rule:nonzero;fill:rgb(96.862745%,77.647059%,0%);fill-opacity:1;stroke-width:0.9437;stroke-linecap:butt;stroke-linejoin:miter;stroke:rgb(0%,0%,0%);stroke-opacity:1;stroke-miterlimit:4;" d="M 810.672182 181.961708 C 810.672182 181.961708 812.153929 190.448075 818.844239 192.468639 " transform="matrix(0.0869962,0,0,0.0869962,-28.474578,18.474719)"/>
<path style="fill-rule:nonzero;fill:url(#linear11);stroke-width:0.9437;stroke-linecap:butt;stroke-linejoin:miter;stroke:rgb(0%,0%,0%);stroke-opacity:1;stroke-miterlimit:4;" d="M 809.549647 181.827004 C 810.223168 178.594102 811.480408 178.010384 812.82745 173.879454 C 813.051957 169.838327 809.549647 170.287341 810.58238 167.727961 C 812.378436 164.944073 811.480408 162.249988 808.112802 160.09472 C 808.786323 163.821538 803.757365 167.278946 803.757365 170.287341 C 803.757365 173.340637 806.316745 172.667116 805.957534 177.24706 C 806.182041 179.941145 805.284013 179.267624 805.059506 181.827004 Z M 809.549647 181.827004 " transform="matrix(0.0869962,0,0,0.0869962,-28.474578,18.474719)"/>
<path style="fill-rule:nonzero;fill:rgb(96.862745%,77.647059%,0%);fill-opacity:1;stroke-width:0.9437;stroke-linecap:butt;stroke-linejoin:miter;stroke:rgb(0%,0%,0%);stroke-opacity:1;stroke-miterlimit:4;" d="M 831.506438 161.66627 C 831.506438 163.058214 830.339001 164.22565 828.902156 164.22565 C 827.510212 164.22565 826.342775 163.058214 826.342775 161.66627 C 826.342775 160.229425 827.510212 159.061988 828.902156 159.061988 C 830.339001 159.061988 831.506438 160.229425 831.506438 161.66627 Z M 831.506438 161.66627 " transform="matrix(0.0869962,0,0,0.0869962,-28.474578,18.474719)"/>
<path style="fill-rule:nonzero;fill:rgb(96.862745%,77.647059%,0%);fill-opacity:1;stroke-width:0.9437;stroke-linecap:butt;stroke-linejoin:miter;stroke:rgb(0%,0%,0%);stroke-opacity:1;stroke-miterlimit:4;" d="M 915.825341 406.329621 C 915.825341 406.329621 921.52782 419.440834 928.038525 411.403481 C 934.54923 403.321227 932.169455 399.818917 932.169455 399.818917 L 917.576496 391.916268 L 913.310862 400.941452 Z M 915.825341 406.329621 " transform="matrix(0.0869962,0,0,0.0869962,-41.083435,0.623544)"/>
<path style="fill-rule:nonzero;fill:rgb(100%,77.647059%,70.980392%);fill-opacity:1;stroke-width:0.9437;stroke-linecap:butt;stroke-linejoin:miter;stroke:rgb(0%,0%,0%);stroke-opacity:1;stroke-miterlimit:4;" d="M 928.352835 404.578466 C 928.352835 404.578466 929.295765 404.71317 930.10399 403.321227 C 930.912216 401.884382 928.352835 401.255762 927.2303 399.639311 L 925.97306 402.198691 Z M 928.352835 404.578466 " transform="matrix(0.0869962,0,0,0.0869962,-41.083435,0.623544)"/>
<path style="fill-rule:nonzero;fill:rgb(100%,77.647059%,70.980392%);fill-opacity:1;stroke-width:0.9437;stroke-linecap:butt;stroke-linejoin:miter;stroke:rgb(0%,0%,0%);stroke-opacity:1;stroke-miterlimit:4;" d="M 895.395199 401.076156 L 882.598296 408.035875 C 882.598296 408.035875 876.222295 409.338016 875.773281 408.035875 C 875.279366 406.778635 875.907986 405.701002 879.23069 405.521396 C 882.598296 405.34179 891.62348 397.124832 891.62348 397.124832 Z M 895.395199 401.076156 " transform="matrix(0.0869962,0,0,0.0869962,-41.083435,0.623544)"/>
<path style="fill-rule:nonzero;fill:rgb(100%,77.647059%,70.980392%);fill-opacity:1;stroke-width:0.9437;stroke-linecap:butt;stroke-linejoin:miter;stroke:rgb(0%,0%,0%);stroke-opacity:1;stroke-miterlimit:4;" d="M 895.574804 173.156587 C 895.574804 173.156587 895.889114 176.164982 896.023818 177.736531 C 896.203424 179.308081 893.509339 182.630785 893.329734 182.496081 C 893.195029 182.316475 891.93779 182.630785 892.072494 183.618616 C 892.2521 184.561546 894.137959 184.875856 894.137959 184.875856 C 894.137959 184.875856 893.329734 188.19856 894.137959 188.333265 C 894.946184 188.51287 892.072494 192.6438 894.137959 193.721434 C 896.203424 194.843969 899.705734 196.280815 901.277284 195.966505 C 902.848833 195.652195 901.277284 202.117998 901.277284 202.117998 L 896.832044 211.637098 L 921.213511 209.122619 L 916.139651 201.040364 C 916.139651 201.040364 913.804778 199.423913 914.433397 194.843969 C 915.062017 190.264025 914.119087 169.519573 914.119087 169.519573 L 896.697339 167.139798 Z M 895.574804 173.156587 " transform="matrix(0.0869962,0,0,0.0869962,-41.083435,0.623544)"/>
<path style="fill-rule:nonzero;fill:rgb(100%,77.647059%,70.980392%);fill-opacity:1;stroke-width:0.9437;stroke-linecap:butt;stroke-linejoin:miter;stroke:rgb(0%,0%,0%);stroke-opacity:1;stroke-miterlimit:4;" d="M 891.129564 209.257323 C 891.129564 209.257323 883.226916 212.894337 883.541226 222.727746 C 881.475761 232.246846 880.353225 241.721044 880.353225 241.721044 C 880.353225 241.721044 871.013732 252.362679 868.184943 256.134397 C 865.311252 259.951017 861.045618 267.718962 859.474069 269.784427 C 857.857618 271.849891 851.706124 278.630005 851.840829 281.189385 C 852.020434 283.703864 850.403983 294.974119 856.600378 296.231358 C 858.171928 296.859978 863.245787 283.25485 863.245787 283.25485 C 863.245787 283.25485 863.560097 277.372765 861.808942 276.25023 C 860.102688 275.172596 865.625562 271.355976 865.625562 271.355976 C 865.625562 271.355976 876.222295 263.588032 878.60207 261.702172 C 880.981845 259.771412 887.49255 252.497383 887.49255 252.497383 Z M 891.129564 209.257323 " transform="matrix(0.0869962,0,0,0.0869962,-41.083435,0.623544)"/>
<path style="fill-rule:nonzero;fill:rgb(100%,100%,100%);fill-opacity:1;stroke-width:0.9437;stroke-linecap:butt;stroke-linejoin:miter;stroke:rgb(0%,0%,0%);stroke-opacity:1;stroke-miterlimit:4;" d="M 900.154748 201.803688 C 900.154748 201.803688 902.220213 207.371463 906.800157 206.428534 C 911.425003 205.485604 916.813172 201.175069 916.813172 201.175069 C 916.813172 201.175069 921.078806 201.040364 921.707426 201.668984 C 922.336046 202.297604 933.247089 212.894337 932.932779 216.217042 C 932.618469 219.539746 927.85892 218.596816 926.152666 220.841887 C 924.401511 223.042056 921.52782 228.609831 922.336046 232.69586 C 923.144271 236.82679 925.524046 242.214959 925.209736 244.280424 C 924.850525 246.345889 923.144271 246.974509 923.144271 248.052143 C 923.144271 249.174678 924.536215 251.060538 924.536215 253.126003 C 924.536215 255.191468 922.650356 258.199862 922.964666 260.265327 C 923.278976 262.330792 923.458581 268.347581 923.458581 268.347581 L 922.964666 296.231358 C 922.964666 296.231358 924.536215 297.174288 924.715821 298.745837 C 924.850525 300.362288 935.49216 346.431137 935.49216 346.431137 C 935.49216 346.431137 934.998244 347.867983 933.92061 347.688377 C 932.798075 347.553673 938.186244 354.827701 938.320949 356.893166 C 938.500554 358.958631 943.888724 375.12314 943.709118 377.323309 C 943.574414 379.523478 942.766189 384.462634 942.317174 384.597338 C 941.823259 384.776943 945.774583 394.745057 945.145963 396.316606 C 944.517344 397.933057 938.006639 397.753452 938.006639 397.753452 L 936.255484 397.439142 C 936.255484 397.439142 936.435089 399.504607 935.17785 399.684212 C 933.92061 399.818917 924.536215 399.190297 924.536215 399.190297 C 924.536215 399.190297 921.84213 403.321227 920.270581 403.141621 C 918.699032 403.006917 916.633567 400.133226 916.139651 400.627142 C 915.690637 401.076156 917.576496 403.770241 917.127482 404.578466 C 916.633567 405.386692 908.551312 407.092945 906.979763 403.321227 C 905.408213 399.504607 907.922693 400.447536 907.428777 399.684212 C 906.979763 398.875987 903.342749 396.810522 902.220213 397.439142 C 901.097678 398.067761 905.093904 399.010691 904.914298 400.627142 C 904.734692 402.198691 901.411988 404.578466 900.154748 404.578466 C 898.897509 404.578466 895.889114 398.696381 891.443874 399.325001 C 886.998634 399.998522 884.169845 401.076156 884.169845 401.076156 C 884.169845 401.076156 878.91638 403.321227 876.716211 402.827311 C 874.516042 402.333396 873.528211 400.627142 873.528211 399.684212 C 873.528211 398.696381 875.144662 394.610353 874.965056 393.308212 C 874.830352 392.050972 873.528211 390.793733 873.528211 388.907873 C 873.528211 386.977113 877.210127 380.511309 877.210127 380.511309 L 877.030521 351.370293 C 877.030521 351.370293 873.707816 351.370293 873.528211 349.304828 C 873.393506 347.239363 878.60207 303.191077 879.410296 300.362288 C 880.218521 297.488598 882.283986 287.340879 882.283986 287.340879 C 882.283986 287.340879 879.904211 288.463414 879.724606 287.340879 C 879.589901 286.263245 886.86393 261.073553 886.86393 261.073553 C 886.86393 261.073553 888.12117 248.546059 888.12117 245.223354 C 888.12117 241.900649 887.49255 237.320705 887.49255 237.320705 C 887.49255 237.320705 880.981845 234.536818 880.847141 230.316085 C 880.263423 223.625775 886.998634 219.898957 887.80686 217.653887 C 888.615085 215.453718 890.99486 208.808309 890.99486 208.808309 C 890.99486 208.808309 894.452269 202.791519 900.154748 201.803688 Z M 900.154748 201.803688 " transform="matrix(0.0869962,0,0,0.0869962,-41.083435,0.623544)"/>
<path style="fill-rule:nonzero;fill:rgb(96.862745%,77.647059%,0%);fill-opacity:1;stroke-width:0.9437;stroke-linecap:butt;stroke-linejoin:miter;stroke:rgb(0%,0%,0%);stroke-opacity:1;stroke-miterlimit:4;" d="M 897.774973 403.006917 C 897.774973 403.006917 882.41869 411.04427 880.218521 411.717791 C 877.973451 412.346411 876.581507 409.023706 878.781676 408.395086 C 880.981845 407.721565 884.484155 407.407255 884.484155 407.407255 C 884.484155 407.407255 879.23069 403.321227 879.410296 403.141621 C 879.589901 403.006917 886.54962 400.447536 886.684325 400.447536 C 886.86393 400.447536 888.929395 404.578466 890.321339 404.264156 C 891.758184 403.949846 895.889114 400.761846 895.889114 400.761846 C 895.889114 400.761846 898.089283 403.321227 897.774973 403.006917 Z M 897.774973 403.006917 " transform="matrix(0.0869962,0,0,0.0869962,-41.083435,0.623544)"/>
<path style="fill-rule:nonzero;fill:rgb(100%,77.647059%,70.980392%);fill-opacity:1;stroke-width:0.9437;stroke-linecap:butt;stroke-linejoin:miter;stroke:rgb(0%,0%,0%);stroke-opacity:1;stroke-miterlimit:4;" d="M 919.417454 407.407255 C 920.899201 409.293115 921.438018 412.526016 924.760722 410.640157 C 928.083427 408.754298 923.054469 405.207086 923.054469 405.207086 Z M 919.417454 407.407255 " transform="matrix(0.0869962,0,0,0.0869962,-41.083435,0.623544)"/>
<path style="fill-rule:nonzero;fill:rgb(100%,77.647059%,70.980392%);fill-opacity:1;stroke-width:0.9437;stroke-linecap:butt;stroke-linejoin:miter;stroke:rgb(0%,0%,0%);stroke-opacity:1;stroke-miterlimit:4;" d="M 925.524046 407.092945 C 925.524046 407.092945 927.095596 408.395086 928.532441 406.958241 C 929.924385 405.521396 925.65875 402.513001 925.65875 402.513001 L 923.593285 404.892776 Z M 925.524046 407.092945 " transform="matrix(0.0869962,0,0,0.0869962,-41.083435,0.623544)"/>
<path style="fill-rule:nonzero;fill:rgb(100%,77.647059%,70.980392%);fill-opacity:1;stroke-width:0.9437;stroke-linecap:butt;stroke-linejoin:miter;stroke:rgb(0%,0%,0%);stroke-opacity:1;stroke-miterlimit:4;" d="M 932.304159 216.980366 C 932.483765 216.980366 937.557625 232.650959 938.186244 236.602283 C 938.814864 240.553607 940.880329 256.403806 940.072104 258.603975 C 939.30878 260.849045 931.226526 271.445779 930.238694 274.139864 C 929.295765 276.833948 923.593285 287.116372 923.593285 287.116372 C 923.593285 287.116372 922.201342 297.264091 921.52782 297.758006 C 920.899201 298.207021 923.189173 300.7215 922.964666 301.529725 C 922.650356 302.472655 918.384722 306.917894 916.498862 306.46888 C 914.568102 305.974965 911.559707 303.774796 911.425003 301.709331 C 911.245397 299.643866 911.559707 292.818851 912.996552 291.112597 C 914.433397 289.361442 921.84213 271.760089 922.336046 270.637553 C 922.829961 269.559919 929.161061 255.775186 929.295765 253.395411 C 929.47537 251.015636 927.320103 245.537664 925.075032 243.5171 C 920.090975 228.834339 922.066637 219.98876 932.304159 216.980366 Z M 932.304159 216.980366 " transform="matrix(0.0869962,0,0,0.0869962,-41.083435,0.623544)"/>
<path style="fill-rule:nonzero;fill:rgb(61.176471%,31.764706%,0%);fill-opacity:1;stroke-width:0.9437;stroke-linecap:butt;stroke-linejoin:miter;stroke:rgb(0%,0%,0%);stroke-opacity:1;stroke-miterlimit:4;" d="M 895.080889 172.213658 C 895.080889 172.213658 898.583199 172.662672 900.469058 171.585038 C 902.399819 170.462503 904.599988 169.968587 906.171537 172.213658 C 907.743087 174.413827 908.865622 174.279123 908.865622 174.279123 C 908.865622 174.279123 906.485847 180.116306 908.865622 180.744926 C 911.245397 181.373546 912.367932 181.373546 912.502637 182.181771 C 912.682242 182.989997 910.437172 184.69625 911.110693 185.504476 C 911.739313 186.312701 912.816946 187.255631 912.996552 187.88425 C 913.131256 188.51287 911.559707 191.206955 912.053622 191.835575 C 912.502637 192.464195 913.939482 195.023575 914.882411 195.023575 C 915.825341 195.023575 915.196721 198.974899 918.070412 198.03197 C 920.899201 197.08904 920.764496 194.52966 920.764496 194.52966 C 920.764496 194.52966 923.772891 194.080645 924.536215 191.386561 C 925.344441 188.692476 927.2303 188.018955 927.2303 188.018955 C 927.2303 188.018955 931.04692 185.998391 925.97306 182.810391 C 925.97306 160.629093 911.425003 163.008868 911.425003 163.008868 C 911.425003 163.008868 909.673848 159.057544 906.800157 159.506558 C 903.971368 160.000473 903.791763 163.323178 901.726298 163.008868 C 899.705734 162.694558 899.211819 161.257713 899.032213 161.437319 C 898.897509 161.572023 897.146354 164.760023 897.146354 165.568249 C 897.146354 166.331573 891.62348 164.445713 892.072494 168.576643 C 892.56641 172.662672 895.260494 172.527967 895.080889 172.213658 Z M 895.080889 172.213658 " transform="matrix(0.0869962,0,0,0.0869962,-41.083435,0.623544)"/>
<path style="fill:none;stroke-width:0.9437;stroke-linecap:butt;stroke-linejoin:miter;stroke:rgb(0%,0%,0%);stroke-opacity:1;stroke-miterlimit:4;" d="M 920.764496 208.000083 C 920.764496 208.000083 906.665453 217.025267 906.979763 220.213267 " transform="matrix(0.0869962,0,0,0.0869962,-41.083435,0.623544)"/>
<path style="fill:none;stroke-width:0.9437;stroke-linecap:butt;stroke-linejoin:miter;stroke:rgb(0%,0%,0%);stroke-opacity:1;stroke-miterlimit:4;" d="M 923.907595 209.571633 C 923.907595 209.571633 920.764496 213.073943 920.584891 213.073943 " transform="matrix(0.0869962,0,0,0.0869962,-41.083435,0.623544)"/>
<path style="fill:none;stroke-width:0.9437;stroke-linecap:butt;stroke-linejoin:miter;stroke:rgb(0%,0%,0%);stroke-opacity:1;stroke-miterlimit:4;" d="M 928.218131 213.388253 C 928.218131 213.388253 921.213511 219.090732 922.336046 222.727746 " transform="matrix(0.0869962,0,0,0.0869962,-41.083435,0.623544)"/>
<path style="fill:none;stroke-width:0.9437;stroke-linecap:butt;stroke-linejoin:miter;stroke:rgb(0%,0%,0%);stroke-opacity:1;stroke-miterlimit:4;" d="M 895.260494 207.191858 C 895.260494 207.191858 893.195029 211.502393 893.688945 212.894337 C 894.137959 214.331182 897.640269 219.719352 898.089283 223.042056 C 898.583199 226.364761 898.089283 228.744536 898.089283 228.744536 " transform="matrix(0.0869962,0,0,0.0869962,-41.083435,0.623544)"/>
<path style="fill:none;stroke-width:0.9437;stroke-linecap:butt;stroke-linejoin:miter;stroke:rgb(0%,0%,0%);stroke-opacity:1;stroke-miterlimit:4;" d="M 891.62348 215.139408 C 891.62348 215.139408 892.2521 220.213267 893.195029 221.156197 C 894.137959 222.099127 896.697339 226.364761 897.011649 228.115916 " transform="matrix(0.0869962,0,0,0.0869962,-41.083435,0.623544)"/>
<path style="fill:none;stroke-width:0.9437;stroke-linecap:butt;stroke-linejoin:miter;stroke:rgb(0%,0%,0%);stroke-opacity:1;stroke-miterlimit:4;" d="M 890.321339 236.19817 C 890.321339 236.19817 894.452269 238.263635 898.268889 230.316085 " transform="matrix(0.0869962,0,0,0.0869962,-41.083435,0.623544)"/>
<path style="fill:none;stroke-width:0.9437;stroke-linecap:butt;stroke-linejoin:miter;stroke:rgb(0%,0%,0%);stroke-opacity:1;stroke-miterlimit:4;" d="M 904.420382 224.793211 C 904.285678 224.793211 901.411988 232.561156 906.485847 235.389945 C 911.559707 238.263635 915.376327 237.949325 917.576496 237.1411 C 919.821567 236.332874 922.201342 234.940931 922.201342 234.940931 " transform="matrix(0.0869962,0,0,0.0869962,-41.083435,0.623544)"/>
<path style="fill:none;stroke-width:0.9437;stroke-linecap:butt;stroke-linejoin:miter;stroke:rgb(0%,0%,0%);stroke-opacity:1;stroke-miterlimit:4;" d="M 902.220213 234.312311 C 902.220213 234.312311 902.534523 244.729438 917.890806 255.056763 " transform="matrix(0.0869962,0,0,0.0869962,-41.083435,0.623544)"/>
<path style="fill:none;stroke-width:0.9437;stroke-linecap:butt;stroke-linejoin:miter;stroke:rgb(0%,0%,0%);stroke-opacity:1;stroke-miterlimit:4;" d="M 902.848833 244.100819 C 902.848833 244.100819 902.714129 253.305608 908.730918 257.436538 " transform="matrix(0.0869962,0,0,0.0869962,-41.083435,0.623544)"/>
<path style="fill:none;stroke-width:0.9437;stroke-linecap:butt;stroke-linejoin:miter;stroke:rgb(0%,0%,0%);stroke-opacity:1;stroke-miterlimit:4;" d="M 899.705734 233.32448 C 899.705734 233.32448 895.080889 246.974509 891.443874 248.411354 " transform="matrix(0.0869962,0,0,0.0869962,-41.083435,0.623544)"/>
<path style="fill:none;stroke-width:0.9437;stroke-linecap:butt;stroke-linejoin:miter;stroke:rgb(0%,0%,0%);stroke-opacity:1;stroke-miterlimit:4;" d="M 898.268889 243.337495 C 898.268889 243.337495 898.089283 253.126003 896.832044 256.628313 " transform="matrix(0.0869962,0,0,0.0869962,-41.083435,0.623544)"/>
<path style="fill:none;stroke-width:0.9437;stroke-linecap:butt;stroke-linejoin:miter;stroke:rgb(0%,0%,0%);stroke-opacity:1;stroke-miterlimit:4;" d="M 895.574804 259.008088 C 895.574804 259.008088 898.717903 262.959412 902.220213 262.645102 C 905.722523 262.330792 907.114467 258.199862 909.494242 258.828482 C 911.874017 259.457102 914.119087 261.387862 919.641961 260.893947 " transform="matrix(0.0869962,0,0,0.0869962,-41.083435,0.623544)"/>
<path style="fill:none;stroke-width:0.9437;stroke-linecap:butt;stroke-linejoin:miter;stroke:rgb(0%,0%,0%);stroke-opacity:1;stroke-miterlimit:4;" d="M 911.739313 265.024877 C 911.739313 265.024877 911.739313 273.107131 913.131256 273.870455 C 914.568102 274.67868 913.939482 282.132315 913.939482 282.132315 " transform="matrix(0.0869962,0,0,0.0869962,-41.083435,0.623544)"/>
<path style="fill:none;stroke-width:0.9437;stroke-linecap:butt;stroke-linejoin:miter;stroke:rgb(0%,0%,0%);stroke-opacity:1;stroke-miterlimit:4;" d="M 892.386804 261.208257 C 892.386804 261.208257 892.2521 268.841497 891.30917 271.535582 C 890.321339 274.229666 888.43548 278.80961 888.74979 282.760935 " transform="matrix(0.0869962,0,0,0.0869962,-41.083435,0.623544)"/>
<path style="fill:none;stroke-width:0.9437;stroke-linecap:butt;stroke-linejoin:miter;stroke:rgb(0%,0%,0%);stroke-opacity:1;stroke-miterlimit:4;" d="M 882.733 287.206174 C 883.541226 286.891865 886.23531 284.51209 886.23531 284.51209 " transform="matrix(0.0869962,0,0,0.0869962,-41.083435,0.623544)"/>
<path style="fill:none;stroke-width:0.9437;stroke-linecap:butt;stroke-linejoin:miter;stroke:rgb(0%,0%,0%);stroke-opacity:1;stroke-miterlimit:4;" d="M 887.627254 286.263245 C 887.627254 286.263245 880.847141 315.404261 882.733 332.826009 " transform="matrix(0.0869962,0,0,0.0869962,-41.083435,0.623544)"/>
<path style="fill:none;stroke-width:0.9437;stroke-linecap:butt;stroke-linejoin:miter;stroke:rgb(0%,0%,0%);stroke-opacity:1;stroke-miterlimit:4;" d="M 889.243705 287.655189 C 889.243705 287.655189 885.741395 309.522176 887.312944 313.653106 " transform="matrix(0.0869962,0,0,0.0869962,-41.083435,0.623544)"/>
<path style="fill:none;stroke-width:0.9437;stroke-linecap:butt;stroke-linejoin:miter;stroke:rgb(0%,0%,0%);stroke-opacity:1;stroke-miterlimit:4;" d="M 887.49255 287.026569 C 887.627254 287.026569 900.783368 287.969499 900.783368 287.969499 " transform="matrix(0.0869962,0,0,0.0869962,-41.083435,0.623544)"/>
<path style="fill:none;stroke-width:0.9437;stroke-linecap:butt;stroke-linejoin:miter;stroke:rgb(0%,0%,0%);stroke-opacity:1;stroke-miterlimit:4;" d="M 902.714129 286.263245 C 902.714129 286.263245 906.351143 288.149104 911.425003 287.834794 " transform="matrix(0.0869962,0,0,0.0869962,-41.083435,0.623544)"/>
<path style="fill:none;stroke-width:0.9437;stroke-linecap:butt;stroke-linejoin:miter;stroke:rgb(0%,0%,0%);stroke-opacity:1;stroke-miterlimit:4;" d="M 901.097678 296.859978 C 901.097678 296.859978 900.469058 334.262855 899.526128 342.479813 " transform="matrix(0.0869962,0,0,0.0869962,-41.083435,0.623544)"/>
<path style="fill:none;stroke-width:0.9437;stroke-linecap:butt;stroke-linejoin:miter;stroke:rgb(0%,0%,0%);stroke-opacity:1;stroke-miterlimit:4;" d="M 920.584891 305.391246 C 920.584891 305.391246 924.715821 338.214179 927.095596 341.222573 " transform="matrix(0.0869962,0,0,0.0869962,-41.083435,0.623544)"/>
<path style="fill:none;stroke-width:0.9437;stroke-linecap:butt;stroke-linejoin:miter;stroke:rgb(0%,0%,0%);stroke-opacity:1;stroke-miterlimit:4;" d="M 912.682242 309.522176 C 912.682242 309.522176 915.196721 338.528489 916.633567 341.042968 " transform="matrix(0.0869962,0,0,0.0869962,-41.083435,0.623544)"/>
<path style="fill:none;stroke-width:0.9437;stroke-linecap:butt;stroke-linejoin:miter;stroke:rgb(0%,0%,0%);stroke-opacity:1;stroke-miterlimit:4;" d="M 876.716211 351.190687 C 876.716211 351.190687 881.610465 349.619138 886.055705 344.859588 C 891.129564 351.684603 898.897509 345.173898 898.897509 345.173898 C 898.897509 345.173898 910.931087 353.390856 916.319257 344.230968 C 924.536215 349.619138 928.667145 343.422743 928.667145 343.422743 C 928.667145 343.422743 931.67554 348.002687 933.92061 347.553673 " transform="matrix(0.0869962,0,0,0.0869962,-41.083435,0.623544)"/>
<path style="fill:none;stroke-width:0.9437;stroke-linecap:butt;stroke-linejoin:miter;stroke:rgb(0%,0%,0%);stroke-opacity:1;stroke-miterlimit:4;" d="M 920.764496 350.696771 C 920.764496 350.696771 926.91599 379.703084 936.120779 387.920042 " transform="matrix(0.0869962,0,0,0.0869962,-41.083435,0.623544)"/>
<path style="fill:none;stroke-width:0.9437;stroke-linecap:butt;stroke-linejoin:miter;stroke:rgb(0%,0%,0%);stroke-opacity:1;stroke-miterlimit:4;" d="M 888.929395 347.688377 C 888.929395 347.688377 889.692719 371.93514 891.129564 389.042578 " transform="matrix(0.0869962,0,0,0.0869962,-41.083435,0.623544)"/>
<path style="fill:none;stroke-width:0.9437;stroke-linecap:butt;stroke-linejoin:miter;stroke:rgb(0%,0%,0%);stroke-opacity:1;stroke-miterlimit:4;" d="M 887.80686 375.12314 C 887.80686 375.12314 886.998634 390.928437 886.055705 392.050972 " transform="matrix(0.0869962,0,0,0.0869962,-41.083435,0.623544)"/>
<path style="fill:none;stroke-width:0.9437;stroke-linecap:butt;stroke-linejoin:miter;stroke:rgb(0%,0%,0%);stroke-opacity:1;stroke-miterlimit:4;" d="M 878.467366 393.622522 C 878.467366 393.622522 880.218521 400.447536 888.929395 394.116437 C 897.640269 387.785338 897.774973 396.496212 898.089283 397.439142 C 898.403593 398.382071 899.840438 405.207086 903.163143 399.504607 " transform="matrix(0.0869962,0,0,0.0869962,-41.083435,0.623544)"/>
<path style="fill:none;stroke-width:0.9437;stroke-linecap:butt;stroke-linejoin:miter;stroke:rgb(0%,0%,0%);stroke-opacity:1;stroke-miterlimit:4;" d="M 910.122862 390.165113 C 910.122862 390.165113 908.730918 404.264156 921.213511 393.981733 C 933.741005 383.654408 935.80647 393.802127 936.120779 396.990128 " transform="matrix(0.0869962,0,0,0.0869962,-41.083435,0.623544)"/>
<path style="fill:none;stroke-width:0.9437;stroke-linecap:butt;stroke-linejoin:miter;stroke:rgb(0%,0%,0%);stroke-opacity:1;stroke-miterlimit:4;" d="M 910.302467 166.825488 C 910.302467 166.825488 909.179932 173.785207 916.633567 173.156587 C 915.690637 176.928306 918.519426 178.230447 918.519426 178.230447 " transform="matrix(0.0869962,0,0,0.0869962,-41.083435,0.623544)"/>
<path style="fill:none;stroke-width:0.9437;stroke-linecap:butt;stroke-linejoin:miter;stroke:rgb(0%,0%,0%);stroke-opacity:1;stroke-miterlimit:4;" d="M 924.087201 182.496081 C 924.221905 182.496081 927.409905 184.561546 923.907595 187.076025 " transform="matrix(0.0869962,0,0,0.0869962,-41.083435,0.623544)"/>
<path style="fill:none;stroke-width:0.9437;stroke-linecap:butt;stroke-linejoin:miter;stroke:rgb(0%,0%,0%);stroke-opacity:1;stroke-miterlimit:4;" d="M 913.310862 188.018955 C 913.310862 188.018955 914.882411 189.949715 916.633567 189.4558 C 918.384722 189.006786 921.213511 191.206955 921.213511 191.206955 C 921.213511 191.206955 923.593285 192.01518 923.907595 191.521265 " transform="matrix(0.0869962,0,0,0.0869962,-41.083435,0.623544)"/>
<path style="fill:none;stroke-width:0.9437;stroke-linecap:butt;stroke-linejoin:miter;stroke:rgb(0%,0%,0%);stroke-opacity:1;stroke-miterlimit:4;" d="M 903.657058 194.035744 C 903.657058 194.035744 909.045228 196.101209 912.502637 187.569941 " transform="matrix(0.0869962,0,0,0.0869962,-41.083435,0.623544)"/>
<path style="fill:none;stroke-width:0.9437;stroke-linecap:butt;stroke-linejoin:miter;stroke:rgb(0%,0%,0%);stroke-opacity:1;stroke-miterlimit:4;" d="M 893.688945 185.01056 L 896.832044 185.190166 " transform="matrix(0.0869962,0,0,0.0869962,-41.083435,0.623544)"/>
<path style="fill:none;stroke-width:0.9437;stroke-linecap:butt;stroke-linejoin:miter;stroke:rgb(0%,0%,0%);stroke-opacity:1;stroke-miterlimit:4;" d="M 858.531139 284.916202 L 858.755646 291.875921 " transform="matrix(0.0869962,0,0,0.0869962,-41.083435,0.623544)"/>
<path style="fill:none;stroke-width:0.9437;stroke-linecap:butt;stroke-linejoin:miter;stroke:rgb(0%,0%,0%);stroke-opacity:1;stroke-miterlimit:4;" d="M 852.020434 284.422287 C 852.020434 284.422287 856.465674 291.83102 856.106463 295.827246 " transform="matrix(0.0869962,0,0,0.0869962,-41.083435,0.623544)"/>
<path style="fill:none;stroke-width:0.9437;stroke-linecap:butt;stroke-linejoin:round;stroke:rgb(0%,0%,0%);stroke-opacity:1;stroke-miterlimit:4;" d="M 894.137959 188.19856 L 897.011649 188.19856 L 894.452269 189.321096 " transform="matrix(0.0869962,0,0,0.0869962,-41.083435,0.623544)"/>
<path style="fill:none;stroke-width:0.9437;stroke-linecap:butt;stroke-linejoin:round;stroke:rgb(0%,0%,0%);stroke-opacity:1;stroke-miterlimit:4;" d="M 911.64951 299.958176 C 911.64951 299.958176 914.972214 299.598964 914.882411 305.166739 C 916.992778 298.251922 921.348215 298.117218 921.348215 298.117218 " transform="matrix(0.0869962,0,0,0.0869962,-41.083435,0.623544)"/>
<path style="fill:none;stroke-width:1.6986;stroke-linecap:butt;stroke-linejoin:round;stroke:rgb(0%,0%,0%);stroke-opacity:1;stroke-miterlimit:4;" d="M 898.089283 179.308081 C 898.583199 179.308081 900.334354 178.679461 900.648664 179.173376 C 900.962974 179.622391 898.717903 179.981602 898.089283 179.308081 Z M 898.089283 179.308081 " transform="matrix(0.0869962,0,0,0.0869962,-41.083435,0.623544)"/>
<path style="fill-rule:nonzero;fill:rgb(96.862745%,77.647059%,0%);fill-opacity:1;stroke-width:1.8873;stroke-linecap:butt;stroke-linejoin:miter;stroke:rgb(0%,0%,0%);stroke-opacity:1;stroke-miterlimit:4;" d="M 900.289452 458.594865 C 967.192557 456.709006 1010.387715 408.395086 1009.938701 407.946072 C 1009.489687 407.497058 1018.78428 394.475648 1026.193013 396.316606 C 1033.646647 398.202466 1044.333183 420.024552 1057.309691 424.649398 C 1063.820396 434.88692 1055.468733 444.181512 1052.684846 446.02247 C 1049.900958 447.908329 1037.328563 452.982189 1035.487605 445.573456 C 1033.646647 438.119821 1029.91983 439.511765 1029.91983 439.511765 C 1029.91983 439.511765 970.47036 497.614193 901.681396 495.279319 C 830.602461 495.728333 772.09592 439.511765 772.09592 439.511765 L 766.977159 445.124442 C 766.977159 445.124442 761.409384 451.141231 758.625497 450.692217 C 755.841609 450.198301 743.763129 442.340554 742.8202 434.437905 C 741.87727 426.535257 750.228933 421.416496 750.228933 421.416496 C 750.228933 421.416496 770.703977 405.611199 772.993949 397.259536 C 777.663695 392.589789 786.464372 400.492438 786.464372 400.492438 C 786.464372 400.492438 840.390968 462.276781 900.289452 458.594865 Z M 900.289452 458.594865 " transform="matrix(0.0869962,0,0,0.0869962,-41.083435,0.623544)"/>
<path style="fill:none;stroke-width:1.8873;stroke-linecap:butt;stroke-linejoin:miter;stroke:rgb(0%,0%,0%);stroke-opacity:1;stroke-miterlimit:4;" d="M 748.836989 422.628834 C 748.836989 422.628834 754.404764 421.191989 756.425327 423.481961 C 758.445891 425.771933 772.365329 439.421962 772.365329 439.421962 " transform="matrix(0.0869962,0,0,0.0869962,-41.083435,0.623544)"/>
<path style="fill:none;stroke-width:1.8873;stroke-linecap:butt;stroke-linejoin:miter;stroke:rgb(0%,0%,0%);stroke-opacity:1;stroke-miterlimit:4;" d="M 761.499187 429.094637 L 755.931412 433.225567 C 755.931412 433.225567 769.85085 436.009455 766.707751 445.124442 " transform="matrix(0.0869962,0,0,0.0869962,-41.083435,0.623544)"/>
<path style="fill:none;stroke-width:1.8873;stroke-linecap:butt;stroke-linejoin:miter;stroke:rgb(0%,0%,0%);stroke-opacity:1;stroke-miterlimit:4;" d="M 1052.325635 422.17982 C 1052.325635 422.17982 1049.586648 420.698073 1045.231211 423.930975 C 1040.920676 427.163877 1029.964731 439.421962 1029.964731 439.421962 " transform="matrix(0.0869962,0,0,0.0869962,-41.083435,0.623544)"/>
<path style="fill:none;stroke-width:1.8873;stroke-linecap:butt;stroke-linejoin:miter;stroke:rgb(0%,0%,0%);stroke-opacity:1;stroke-miterlimit:4;" d="M 1039.887943 428.735426 L 1045.904733 433.31537 C 1045.904733 433.31537 1033.377239 434.168497 1036.116225 446.067371 " transform="matrix(0.0869962,0,0,0.0869962,-41.083435,0.623544)"/>
<path style=" stroke:none;fill-rule:nonzero;fill:rgb(0%,0%,0%);fill-opacity:1;" d="M 30.222656 38.675781 C 30.191406 38.765625 30.109375 38.671875 30.039062 38.691406 C 29.859375 38.699219 29.707031 38.816406 29.550781 38.898438 C 29.015625 39.210938 28.484375 39.519531 27.949219 39.832031 C 27.894531 39.8125 27.90625 39.769531 27.921875 39.726562 C 28.0625 39.058594 28.210938 38.394531 28.347656 37.726562 C 28.371094 37.609375 28.410156 37.464844 28.296875 37.378906 C 28.25 37.347656 28.324219 37.28125 28.355469 37.339844 C 28.625 37.535156 28.898438 37.730469 29.171875 37.925781 C 29.144531 38.003906 29.097656 37.949219 29.054688 37.917969 C 28.941406 37.808594 28.804688 37.910156 28.804688 38.046875 C 28.710938 38.484375 28.613281 38.925781 28.519531 39.367188 C 28.878906 39.148438 29.246094 38.941406 29.605469 38.722656 C 29.734375 38.664062 29.828125 38.492188 29.695312 38.386719 C 29.644531 38.355469 29.5625 38.273438 29.644531 38.261719 C 29.835938 38.398438 30.03125 38.539062 30.222656 38.675781 Z M 30.222656 38.675781 "/>
<path style=" stroke:none;fill-rule:nonzero;fill:rgb(0%,0%,0%);fill-opacity:1;" d="M 30.800781 41.457031 C 30.785156 41.507812 30.757812 41.519531 30.71875 41.484375 C 30.398438 41.308594 30.078125 41.132812 29.753906 40.957031 C 29.769531 40.90625 29.796875 40.894531 29.835938 40.929688 C 29.921875 40.992188 30.066406 41.011719 30.128906 40.910156 C 30.257812 40.703125 30.363281 40.488281 30.480469 40.277344 C 30.640625 39.980469 30.808594 39.6875 30.964844 39.386719 C 31.039062 39.28125 30.957031 39.148438 30.851562 39.105469 C 30.816406 39.085938 30.765625 39.070312 30.808594 39.027344 C 30.832031 39.003906 30.875 39.058594 30.90625 39.066406 C 31.214844 39.234375 31.523438 39.402344 31.832031 39.570312 C 31.816406 39.621094 31.792969 39.632812 31.75 39.59375 C 31.664062 39.535156 31.523438 39.511719 31.457031 39.617188 C 31.328125 39.820312 31.222656 40.039062 31.105469 40.246094 C 30.945312 40.546875 30.777344 40.839844 30.621094 41.140625 C 30.546875 41.246094 30.628906 41.378906 30.734375 41.421875 C 30.757812 41.433594 30.777344 41.445312 30.800781 41.457031 Z M 30.800781 41.457031 "/>
<path style=" stroke:none;fill-rule:nonzero;fill:rgb(0%,0%,0%);fill-opacity:1;" d="M 34.507812 40.589844 C 34.417969 40.832031 34.332031 41.078125 34.246094 41.324219 C 34.136719 41.3125 34.207031 41.175781 34.175781 41.101562 C 34.136719 40.773438 33.894531 40.464844 33.5625 40.390625 C 33.308594 40.324219 33.039062 40.453125 32.890625 40.660156 C 32.664062 40.96875 32.527344 41.34375 32.507812 41.726562 C 32.496094 41.941406 32.59375 42.164062 32.785156 42.277344 C 32.933594 42.375 33.117188 42.417969 33.292969 42.410156 C 33.355469 42.226562 33.433594 42.042969 33.484375 41.855469 C 33.507812 41.734375 33.378906 41.660156 33.277344 41.632812 C 33.261719 41.597656 33.300781 41.550781 33.34375 41.589844 C 33.664062 41.703125 33.984375 41.820312 34.304688 41.933594 C 34.292969 42.050781 34.15625 41.921875 34.082031 41.96875 C 33.964844 42.015625 33.957031 42.15625 33.910156 42.261719 C 33.871094 42.371094 33.832031 42.480469 33.792969 42.589844 C 33.363281 42.621094 32.917969 42.527344 32.546875 42.3125 C 32.179688 42.082031 31.933594 41.640625 32.007812 41.207031 C 32.0625 40.832031 32.292969 40.484375 32.636719 40.320312 C 32.953125 40.152344 33.335938 40.152344 33.664062 40.285156 C 33.839844 40.347656 33.996094 40.457031 34.132812 40.582031 C 34.21875 40.695312 34.378906 40.695312 34.449219 40.566406 C 34.46875 40.574219 34.488281 40.582031 34.507812 40.589844 "/>
<path style=" stroke:none;fill-rule:nonzero;fill:rgb(0%,0%,0%);fill-opacity:1;" d="M 36.066406 43.09375 C 36.066406 43.132812 36.0625 43.171875 36.015625 43.148438 C 35.648438 43.09375 35.28125 43.039062 34.914062 42.980469 C 34.917969 42.941406 34.921875 42.90625 34.96875 42.929688 C 35.0625 42.949219 35.191406 42.945312 35.238281 42.84375 C 35.285156 42.695312 35.292969 42.542969 35.320312 42.390625 C 35.382812 41.96875 35.449219 41.546875 35.511719 41.121094 C 35.535156 41.03125 35.503906 40.929688 35.40625 40.894531 C 35.355469 40.867188 35.296875 40.863281 35.238281 40.855469 C 35.238281 40.816406 35.242188 40.78125 35.289062 40.800781 C 35.65625 40.855469 36.023438 40.914062 36.390625 40.96875 C 36.386719 41.007812 36.382812 41.042969 36.335938 41.019531 C 36.242188 41 36.113281 41.003906 36.066406 41.105469 C 36.019531 41.253906 36.011719 41.40625 35.984375 41.558594 C 35.921875 41.980469 35.855469 42.402344 35.792969 42.828125 C 35.769531 42.917969 35.800781 43.023438 35.898438 43.058594 C 35.949219 43.082031 36.011719 43.085938 36.066406 43.09375 Z M 36.066406 43.09375 "/>
<path style=" stroke:none;fill-rule:nonzero;fill:rgb(0%,0%,0%);fill-opacity:1;" d="M 39.035156 42.375 C 39.023438 42.632812 39.007812 42.894531 38.992188 43.152344 C 38.339844 43.1875 37.683594 43.21875 37.03125 43.253906 C 37.019531 43.207031 37.03125 43.179688 37.082031 43.191406 C 37.183594 43.191406 37.308594 43.152344 37.320312 43.039062 C 37.332031 42.84375 37.308594 42.652344 37.300781 42.457031 C 37.28125 42.070312 37.265625 41.683594 37.242188 41.296875 C 37.25 41.183594 37.148438 41.097656 37.039062 41.101562 C 37.003906 41.082031 36.910156 41.136719 36.917969 41.074219 C 36.902344 41.023438 36.976562 41.050781 37.003906 41.039062 C 37.367188 41.023438 37.734375 41.003906 38.097656 40.984375 C 38.109375 41.03125 38.09375 41.058594 38.042969 41.046875 C 37.941406 41.046875 37.8125 41.070312 37.785156 41.1875 C 37.769531 41.351562 37.792969 41.523438 37.796875 41.691406 C 37.816406 42.09375 37.832031 42.496094 37.859375 42.898438 C 37.851562 43.003906 37.9375 43.09375 38.046875 43.074219 C 38.203125 43.066406 38.367188 43.074219 38.523438 43.035156 C 38.742188 42.976562 38.859375 42.761719 38.917969 42.558594 C 38.957031 42.503906 38.925781 42.367188 39.011719 42.375 C 39.019531 42.375 39.027344 42.375 39.035156 42.375 "/>
<path style=" stroke:none;fill-rule:nonzero;fill:rgb(0%,0%,0%);fill-opacity:1;" d="M 40.566406 40.488281 C 40.511719 40.488281 40.535156 40.554688 40.523438 40.589844 C 40.4375 41.238281 40.355469 41.890625 40.265625 42.539062 C 40.242188 42.683594 40.207031 42.851562 40.0625 42.925781 C 40.011719 42.945312 40.058594 43.027344 40.105469 42.980469 C 40.324219 42.914062 40.542969 42.847656 40.761719 42.785156 C 40.753906 42.671875 40.625 42.773438 40.554688 42.753906 C 40.40625 42.753906 40.382812 42.570312 40.40625 42.457031 C 40.414062 42.378906 40.421875 42.304688 40.433594 42.226562 C 40.683594 42.152344 40.933594 42.078125 41.183594 42 C 41.277344 42.121094 41.382812 42.234375 41.46875 42.363281 C 41.535156 42.484375 41.378906 42.542969 41.285156 42.566406 C 41.242188 42.570312 41.28125 42.660156 41.320312 42.617188 C 41.648438 42.519531 41.976562 42.421875 42.304688 42.320312 C 42.300781 42.210938 42.160156 42.316406 42.097656 42.242188 C 41.914062 42.101562 41.78125 41.910156 41.628906 41.738281 C 41.273438 41.320312 40.917969 40.902344 40.566406 40.488281 Z M 40.558594 41.265625 C 40.738281 41.480469 40.914062 41.691406 41.09375 41.902344 C 40.878906 41.964844 40.667969 42.03125 40.453125 42.09375 C 40.488281 41.816406 40.523438 41.542969 40.558594 41.265625 Z M 40.558594 41.265625 "/>
<path style=" stroke:none;fill-rule:nonzero;fill:rgb(0%,0%,0%);fill-opacity:1;" d="M 43.921875 39.023438 C 44.015625 39.199219 44.109375 39.375 44.203125 39.550781 C 44.117188 39.625 44.070312 39.449219 43.988281 39.421875 C 43.859375 39.3125 43.660156 39.292969 43.515625 39.382812 C 43.457031 39.414062 43.398438 39.449219 43.335938 39.480469 C 43.621094 40.007812 43.902344 40.539062 44.191406 41.0625 C 44.234375 41.199219 44.402344 41.226562 44.507812 41.148438 C 44.550781 41.117188 44.585938 41.101562 44.601562 41.164062 C 44.457031 41.25 44.296875 41.328125 44.148438 41.410156 C 43.960938 41.511719 43.769531 41.613281 43.582031 41.714844 C 43.535156 41.667969 43.566406 41.644531 43.617188 41.628906 C 43.75 41.578125 43.800781 41.414062 43.710938 41.300781 C 43.433594 40.777344 43.152344 40.253906 42.871094 39.730469 C 42.714844 39.816406 42.515625 39.894531 42.476562 40.089844 C 42.429688 40.214844 42.496094 40.363281 42.496094 40.46875 C 42.449219 40.515625 42.433594 40.449219 42.414062 40.414062 C 42.332031 40.261719 42.25 40.113281 42.171875 39.960938 C 42.753906 39.648438 43.335938 39.335938 43.921875 39.023438 Z M 43.921875 39.023438 "/>
<path style=" stroke:none;fill-rule:nonzero;fill:rgb(0%,0%,0%);fill-opacity:1;" d="M 45.246094 38.234375 C 45.429688 38.476562 45.609375 38.714844 45.789062 38.953125 C 45.914062 38.875 46.019531 38.730469 45.984375 38.574219 C 45.996094 38.453125 45.824219 38.316406 45.882812 38.230469 C 45.921875 38.207031 45.945312 38.296875 45.976562 38.320312 C 46.183594 38.59375 46.390625 38.867188 46.597656 39.140625 C 46.515625 39.234375 46.457031 39.046875 46.371094 39.027344 C 46.25 38.941406 46.082031 38.898438 45.953125 38.992188 C 45.855469 39.023438 45.859375 39.078125 45.925781 39.136719 C 46.070312 39.324219 46.207031 39.519531 46.363281 39.699219 C 46.457031 39.792969 46.574219 39.695312 46.65625 39.632812 C 46.863281 39.488281 47.046875 39.269531 47.035156 39.003906 C 47.046875 38.886719 46.976562 38.757812 46.976562 38.660156 C 47.023438 38.597656 47.035156 38.695312 47.0625 38.726562 C 47.160156 38.902344 47.257812 39.078125 47.355469 39.257812 C 46.847656 39.640625 46.339844 40.023438 45.828125 40.40625 C 45.761719 40.359375 45.828125 40.332031 45.871094 40.300781 C 46.011719 40.210938 45.96875 40.03125 45.863281 39.933594 C 45.535156 39.503906 45.214844 39.070312 44.886719 38.644531 C 44.800781 38.53125 44.644531 38.589844 44.558594 38.667969 C 44.523438 38.71875 44.46875 38.621094 44.535156 38.613281 C 45.015625 38.25 45.496094 37.886719 45.976562 37.527344 C 46.105469 37.699219 46.238281 37.875 46.371094 38.046875 C 46.277344 38.140625 46.199219 37.933594 46.09375 37.925781 C 45.902344 37.824219 45.679688 37.90625 45.523438 38.03125 C 45.429688 38.097656 45.339844 38.167969 45.246094 38.234375 "/>
</g>
</svg>
