<?xml version="1.0" encoding="UTF-8"?>
<!-- Created by grConvert v0.1-0 -->
<svg xmlns="http://www.w3.org/2000/svg" xmlns:xlink="http://www.w3.org/1999/xlink" width="70pt" height="70pt" viewBox="0 0 70 70" version="1.1">
<g id="surface56">
<path style=" stroke:none;fill-rule:nonzero;fill:rgb(100%,100%,100%);fill-opacity:1;" d="M 69.53125 35.199219 C 69.53125 54.1875 54.140625 69.574219 35.15625 69.574219 C 16.175781 69.574219 0.78125 54.1875 0.78125 35.199219 C 0.78125 16.214844 16.175781 0.824219 35.15625 0.824219 C 54.140625 0.824219 69.53125 16.214844 69.53125 35.199219 Z M 69.53125 35.199219 "/>
<path style="fill-rule:nonzero;fill:rgb(80%,80%,80%);fill-opacity:1;stroke-width:0.5;stroke-linecap:round;stroke-linejoin:round;stroke:rgb(0%,0%,0%);stroke-opacity:1;stroke-miterlimit:10;" d="M 28.125 0.659375 C 12.940625 0.659375 0.625 12.971875 0.625 28.159375 C 0.625 29.059375 0.671875 29.940625 0.75625 30.815625 L 1.015625 30.95625 L 1.19375 31.10625 L 1.38125 31.203125 L 1.9 31.378125 L 2.13125 31.484375 L 2.40625 31.5625 L 2.81875 31.825 L 3.246875 31.890625 L 3.671875 32 L 3.7875 32.046875 L 3.96875 32.0625 L 4.275 32.35625 L 4.74375 32.48125 L 5.21875 32.784375 L 5.93125 32.859375 L 6.39375 33.09375 L 6.7625 33.1875 L 6.890625 33.15 L 7.13125 33.1375 L 7.68125 32.890625 L 8.059375 32.778125 L 8.46875 32.515625 L 8.7 32.471875 L 8.88125 32.475 L 8.9 32.453125 L 8.828125 32.43125 L 8.609375 32.390625 L 8.609375 32.35625 L 8.71875 32.2625 L 8.75625 32.20625 L 8.8125 32.20625 L 8.890625 32.278125 L 8.8875 32.328125 L 8.89375 32.375 L 8.94375 32.375 L 9.06875 32.296875 L 9.109375 32.296875 L 9.15 32.340625 L 9.03125 32.453125 L 9.05625 32.484375 L 9.2875 32.503125 L 9.875 32.71875 L 9.840625 32.66875 L 9.63125 32.559375 L 9.565625 32.53125 L 9.5 32.53125 L 9.4125 32.496875 L 9.346875 32.45625 L 9.36875 32.375 L 9.4125 32.378125 L 9.49375 32.4375 L 9.578125 32.484375 L 9.778125 32.559375 L 9.98125 32.675 L 10.203125 32.890625 L 10.44375 33.0625 L 10.90625 33.453125 L 11.0875 33.625 L 11.21875 33.71875 L 11.35625 33.84375 L 11.7 34.225 L 12.028125 34.56875 L 12.0625 34.596875 L 12.578125 35 L 12.8 35.14375 L 13.125 35.3 L 13.4125 35.3875 L 14.08125 35.378125 L 14.2375 35.41875 L 14.871875 35.690625 L 15.078125 35.846875 L 15.425 35.909375 L 15.73125 35.953125 L 16.2375 36.2 L 16.68125 36.325 L 16.715625 36.309375 L 16.59375 36.246875 L 16.5 36.23125 L 16.465625 36.2 L 16.58125 36.203125 L 16.796875 36.284375 L 17.090625 36.346875 L 17.284375 36.34375 L 17.403125 36.328125 L 17.46875 36.26875 L 17.534375 36.19375 L 17.515625 36.065625 L 17.546875 36.05 L 17.6 36.078125 L 17.675 36.096875 L 17.809375 36.065625 L 17.95 36.109375 L 17.953125 36.1625 L 17.9375 36.20625 L 17.984375 36.28125 L 18.04375 36.39375 L 18.140625 36.45 L 18.1375 36.58125 L 18.1375 36.621875 L 18.075 36.65625 L 18.03125 36.65625 L 17.9375 36.578125 L 17.878125 36.503125 L 17.828125 36.5 L 17.721875 36.596875 L 17.725 36.675 L 17.984375 36.859375 L 18.31875 37.171875 L 18.403125 37.265625 L 18.7375 37.503125 L 18.859375 37.61875 L 18.984375 37.840625 L 19.215625 38.140625 L 19.84375 38.65625 L 20.00625 38.81875 L 20.109375 38.95625 L 20.109375 38.99375 L 20.1125 39.015625 L 20.1 39.090625 L 19.934375 39.16875 L 19.90625 39.2 L 20 39.25625 L 20.15 39.33125 L 20.20625 39.390625 L 20.203125 39.46875 L 20.215625 39.528125 L 20.159375 39.6125 L 20.003125 39.825 L 19.98125 39.953125 L 20.046875 40.15625 L 20.1875 40.371875 L 20.2625 40.440625 L 20.64375 40.559375 L 20.84375 40.796875 L 20.890625 40.84375 L 20.9375 40.815625 L 20.9625 40.734375 L 21.03125 40.69375 L 21.175 40.54375 L 21.15 40.465625 L 21.08125 40.403125 L 20.8375 40.296875 L 20.74375 40.1875 L 20.70625 40 L 20.74375 40.015625 L 20.7875 40.078125 L 21.003125 40.175 L 21.3875 40.44375 L 21.475 40.58125 L 21.440625 40.690625 L 21.45625 40.7625 L 21.55 40.859375 L 21.675 40.909375 L 22 40.9875 L 22.128125 41.09375 L 22.40625 41.221875 L 22.596875 41.378125 L 22.721875 41.525 L 22.75 41.61875 L 22.75 41.8125 L 22.71875 41.90625 L 22.60625 42.046875 L 22.765625 42.215625 L 22.840625 42.253125 L 22.953125 42.265625 L 23.046875 42.296875 L 23.153125 42.30625 L 23.15625 42.234375 L 23.14375 42.18125 L 22.99375 42.04375 L 22.934375 41.934375 L 23.03125 41.91875 L 23.159375 41.984375 L 23.3125 42.078125 L 23.35625 42.184375 L 23.359375 42.371875 L 23.465625 42.453125 L 23.578125 42.58125 L 23.6625 42.721875 L 23.69375 42.6875 L 23.68125 42.503125 L 23.784375 42.434375 L 23.909375 42.409375 L 24.09375 42.453125 L 24.3 42.46875 L 24.465625 42.421875 L 24.475 42.525 L 24.559375 42.565625 L 24.6375 42.53125 L 24.784375 42.54375 L 24.925 42.60625 L 25.09375 42.640625 L 25.13125 42.721875 L 25.15625 42.7875 L 25.371875 43.15625 L 25.534375 43.215625 L 25.659375 43.278125 L 25.721875 43.28125 L 25.75 43.21875 L 25.76875 43.046875 L 25.796875 42.9875 L 25.875 42.965625 L 25.91875 42.934375 L 25.953125 43.16875 L 26.096875 43.50625 L 26.11875 43.70625 L 26.1875 43.778125 L 26.40625 43.76875 L 26.6875 43.70625 L 26.76875 43.65 L 26.8 43.56875 L 26.875 43.51875 L 27.096875 43.5125 L 27.153125 43.4875 L 27.21875 43.43125 L 27.184375 43.30625 L 27.140625 43.221875 L 26.909375 42.996875 L 26.78125 42.8125 L 26.725 42.775 L 26.66875 42.715625 L 26.65625 42.6375 L 26.6625 42.546875 L 26.73125 42.484375 L 26.778125 42.453125 L 26.984375 42.421875 L 27.078125 42.375 L 27.54375 42.065625 L 27.465625 42.015625 L 27.53125 41.925 L 27.565625 41.84375 L 27.621875 41.75 L 27.765625 41.6875 L 27.7875 41.659375 L 27.84375 41.60625 L 27.925 41.559375 L 28.16875 41.54375 L 28.36875 41.56875 L 28.53125 41.653125 L 28.659375 41.7625 L 28.7625 41.8 L 28.83125 41.875 L 28.88125 41.8875 L 28.940625 41.921875 L 29.078125 42.03125 L 29.13125 42.253125 L 29.171875 42.309375 L 29.203125 42.36875 L 29.246875 42.3625 L 29.253125 42.309375 L 29.234375 42.25625 L 29.21875 42.184375 L 29.25 42.203125 L 29.28125 42.2375 L 29.39375 42.246875 L 29.403125 42.284375 L 29.4375 42.315625 L 29.48125 42.29375 L 29.515625 42.246875 L 29.590625 42.190625 L 29.640625 42.315625 L 29.7 42.40625 L 29.89375 42.54375 L 30.0125 42.64375 L 29.921875 42.621875 L 29.775 42.525 L 29.65625 42.453125 L 29.575 42.340625 L 29.534375 42.328125 L 29.4875 42.4 L 29.3625 42.5 L 29.4 42.6375 L 29.359375 42.69375 L 29.325 42.725 L 29.25625 42.721875 L 29.190625 42.734375 L 29.246875 42.934375 L 29.503125 43.375 L 29.8 43.734375 L 29.8375 43.765625 L 29.95625 43.878125 L 30.109375 44.096875 L 30.153125 44.2125 L 30.20625 44.25 L 30.3 44.43125 L 30.40625 44.434375 L 30.496875 44.578125 L 30.50625 44.6625 L 30.45625 44.95 L 30.40625 44.953125 L 30.36875 44.934375 L 30.371875 45.065625 L 30.528125 45.29375 L 30.64375 45.559375 L 30.55 45.6875 L 30.29375 45.859375 L 30.453125 46.00625 L 30.4875 46.125 L 30.50625 46.253125 L 30.5 46.425 L 30.53125 46.721875 L 30.575 46.7875 L 30.596875 46.8625 L 30.5625 47.025 L 30.546875 47.171875 L 30.515625 47.265625 L 30.4375 47.328125 L 30.403125 47.3875 L 30.3125 47.4375 L 30.309375 47.49375 L 30.45 47.453125 L 30.453125 47.50625 L 30.41875 47.59375 L 30.421875 47.684375 L 30.5125 47.825 L 30.609375 47.684375 L 30.64375 47.703125 L 30.625 47.8875 L 30.690625 47.921875 L 30.746875 47.925 L 30.796875 47.871875 L 30.859375 47.8625 L 30.653125 48.265625 L 30.55 48.403125 L 30.5125 48.559375 L 30.4375 48.565625 L 30.371875 48.7 L 30.309375 48.79375 L 30.2625 48.89375 L 30.171875 48.921875 L 30.09375 48.9375 L 30.08125 48.98125 L 30.121875 49.090625 L 30.125 49.1375 L 29.9875 49.25 L 29.953125 49.3 L 29.94375 49.3375 L 29.871875 49.325 L 29.8375 49.359375 L 29.796875 49.440625 L 29.73125 49.515625 L 29.675 49.546875 L 29.628125 49.59375 L 29.5625 49.61875 L 29.346875 49.590625 L 29.2875 49.653125 L 29.2 49.625 L 29.140625 49.640625 L 29.05 49.7 L 28.98125 49.78125 L 28.95 49.840625 L 28.934375 50.15 L 29.03125 50.3125 L 29 50.496875 L 28.73125 50.40625 L 28.528125 50.525 L 28.440625 50.684375 L 28.6125 50.80625 L 28.65 50.890625 L 28.6875 51.08125 L 28.596875 51.19375 L 28.1875 51.315625 L 27.89375 51.375 L 27.715625 51.484375 L 27.55625 51.471875 L 27.4875 51.54375 L 27.35625 51.621875 L 27.1875 51.653125 L 27.125 51.715625 L 27.15625 51.95 L 27.203125 52.171875 L 27.175 52.484375 L 27.065625 52.6875 L 26.9375 52.815625 L 26.8375 52.88125 L 26.6375 53.128125 L 26.653125 53.215625 L 26.753125 53.39375 L 26.88125 53.440625 L 26.7875 53.45 L 26.671875 53.4 L 26.609375 53.51875 L 26.546875 53.71875 L 26.4625 53.78125 L 26.190625 53.875 L 26.1125 54.003125 L 26.21875 54.2625 L 26.2375 54.378125 L 26.2 54.6875 L 26.284375 54.921875 L 26.29375 55.059375 L 26.28125 55.234375 L 26.15625 55.3125 L 26.0375 55.371875 L 26.05625 55.425 L 26.078125 55.46875 L 26.190625 55.565625 L 26.2625 55.590625 C 26.559375 55.609375 26.859375 55.625 27.159375 55.6375 L 27.16875 55.621875 L 27.225 55.575 L 27.21875 55.6375 C 27.275 55.6375 27.328125 55.640625 27.38125 55.640625 L 27.36875 55.315625 L 27.43125 55.21875 L 27.440625 55.275 L 27.434375 55.34375 L 27.453125 55.578125 L 27.496875 55.64375 C 27.703125 55.65 27.9125 55.659375 28.125 55.659375 C 38.2375 55.659375 47.075 50.19375 51.85 42.059375 L 51.825 42.04375 L 51.609375 42.03125 L 51.528125 42.05 L 51.434375 42.128125 L 51.034375 42.075 L 50.95625 42.09375 L 50.746875 42.2 L 50.546875 42.203125 L 50.409375 42.3 L 50.2375 42.18125 L 50.1375 42.128125 L 50.01875 42.065625 L 50.484375 42.0625 L 50.575 41.909375 L 50.640625 41.765625 L 50.66875 41.640625 L 50.671875 41.609375 L 50.721875 41.525 L 50.721875 41.45 L 50.7625 41.375 L 50.825 41.296875 L 50.984375 41.2375 L 51.046875 41.11875 L 50.94375 41.003125 L 50.775 40.875 L 50.5 40.825 L 50.40625 40.78125 L 50.15625 40.5125 L 50.059375 40.453125 L 50.015625 40.55 L 49.840625 40.55625 L 49.846875 40.625 L 49.88125 40.690625 L 49.875 40.78125 L 49.846875 40.721875 L 49.79375 40.6875 L 49.75625 40.65625 L 49.75 40.59375 L 49.6625 40.484375 L 49.53125 40.375 L 49.453125 40.35 L 49.403125 40.340625 L 49.359375 40.346875 L 49.36875 40.378125 L 49.340625 40.471875 L 49.359375 40.546875 L 49.3375 40.534375 L 49.3125 40.515625 L 49.278125 40.46875 L 49.23125 40.546875 L 49.203125 40.578125 L 49.175 40.5875 L 49.153125 40.59375 L 49.05 40.421875 L 48.909375 40.1 L 48.86875 40.06875 L 48.80625 40.05 L 48.796875 40.11875 L 48.80625 40.175 L 48.74375 40.234375 L 48.63125 40.25 L 48.6875 40.2 L 48.73125 40.075 L 48.7 39.95625 L 48.671875 39.90625 L 48.578125 39.825 L 48.54375 39.825 L 48.503125 39.796875 L 48.503125 39.6875 L 48.41875 39.65625 L 48.6875 39.61875 L 49.078125 39.640625 L 49.2625 39.53125 L 49.5 39.515625 L 49.64375 39.46875 L 49.7 39.39375 L 49.25 39.45 L 48.68125 39.3875 L 48.375 39.4375 L 48.265625 39.421875 L 48.075 39.4375 L 47.690625 39.515625 L 47.225 39.49375 L 46.815625 39.53125 L 46.7 39.528125 L 46.7625 39.64375 L 46.875 39.596875 L 47.2375 39.625 L 47.403125 39.690625 L 47.34375 39.734375 L 47.278125 39.7625 L 46.8375 39.75 L 46.015625 40.2 L 45.9 40.203125 L 45.8 40.221875 L 45.671875 40.234375 L 45.4375 40.16875 L 45.221875 40.125 L 45.015625 40.034375 L 44.775 40 L 44.48125 39.73125 L 44.475 39.675 L 44.45625 39.60625 L 44.28125 39.53125 L 43.3625 39.559375 L 43.1875 39.609375 L 42.628125 39.66875 L 42.26875 39.734375 L 41.9375 39.703125 L 41.81875 39.609375 L 41.746875 39.4625 L 41.70625 39.3125 L 41.775 39.21875 L 41.70625 39.1375 L 41.6875 39.003125 L 41.61875 38.871875 L 41.34375 38.684375 L 41.08125 38.53125 L 40.8 38.49375 L 40.58125 38.421875 L 40.21875 38.44375 L 40.1625 38.465625 L 40.090625 38.46875 L 39.9875 38.3625 L 39.925 38.221875 L 39.86875 38.01875 L 39.840625 37.825 L 39.80625 37.75 L 39.734375 37.671875 L 39.625 37.59375 L 39.48125 37.64375 L 39.378125 37.690625 L 39.328125 37.8125 L 39.278125 37.95625 L 39.359375 38.15625 L 39.359375 38.21875 L 39.390625 38.284375 L 39.74375 38.23125 L 39.859375 38.23125 L 39.909375 38.390625 L 39.875 38.475 L 39.775 38.515625 L 39.56875 38.40625 L 39.5125 38.421875 L 39.434375 38.534375 L 39.34375 38.60625 L 38.953125 38.746875 L 38.6125 38.8125 L 38.0625 39.075 L 37.809375 39.1125 L 37.81875 39.278125 L 37.71875 39.346875 L 37.75 39.546875 L 37.778125 39.65625 L 37.815625 39.734375 L 37.909375 39.99375 L 38.065625 40.140625 L 38.1375 40.3 L 38.2875 40.53125 L 38.328125 40.6875 L 38.29375 40.934375 L 38.284375 41.1375 L 38.1375 41.29375 L 38.09375 41.371875 L 38.01875 41.409375 L 37.725 41.50625 L 37.625 41.50625 L 37.5375 41.48125 L 37.471875 41.403125 L 37.421875 41.25625 L 37.45 41.153125 L 37.390625 41.090625 L 37.309375 41.034375 L 37.18125 40.878125 L 37.15625 40.76875 L 37.0125 40.55 L 37.20625 40.1875 L 37.296875 40.109375 L 37.40625 39.925 L 37.565625 39.765625 L 37.65625 39.5 L 37.65 39.4125 L 37.534375 39.278125 L 37.484375 39.078125 L 37.55 39.075 L 37.59375 39.05625 L 37.409375 38.903125 L 37.35625 38.83125 L 37.21875 38.55 L 37.203125 38.46875 L 37.203125 38.359375 L 37.265625 38.309375 L 37.3125 38.284375 L 37.784375 38.171875 L 37.875 38.125 L 37.95625 38.046875 L 37.996875 37.9875 L 38.0375 37.921875 L 38.21875 37.7625 L 38.2 37.609375 L 38.065625 37.39375 L 37.78125 37.275 L 37.653125 37.26875 L 37.503125 37.2875 L 37.25 37.43125 L 37.234375 37.48125 L 37.1875 37.515625 L 37.08125 37.515625 L 36.984375 37.578125 L 36.94375 37.74375 L 36.8125 37.95625 L 36.596875 38.065625 L 36.253125 38.18125 L 35.51875 38.703125 L 35.075 38.734375 L 34.925 38.725 L 34.78125 38.6875 L 34.596875 38.64375 L 34.496875 38.671875 L 34.421875 38.7375 L 34.403125 38.9375 L 34.296875 39.128125 L 34.2375 39.30625 L 34.175 39.3625 L 34.096875 39.340625 L 34.03125 39.246875 L 34.0625 39.15625 L 34.1625 39.1125 L 34.234375 39.10625 L 34.2625 39.078125 L 34.109375 39.0875 L 33.625 38.934375 L 33.53125 39 L 33.28125 39.234375 L 33.125 39.34375 L 33.08125 39.4125 L 32.878125 39.559375 L 32.81875 39.659375 L 32.746875 39.9125 L 32.596875 40.078125 L 32.55 40.140625 L 32.6375 40.109375 L 32.7375 40.028125 L 32.765625 40.065625 L 32.690625 40.1625 L 32.7 40.33125 L 32.640625 40.53125 L 32.590625 40.65625 L 32.64375 40.75 L 32.684375 40.9 L 32.640625 41.00625 L 32.496875 41.05 L 32.309375 41.03125 L 32.15625 41.1125 L 32.025 41.2375 L 31.846875 41.58125 L 31.3375 41.95 L 31.2 42.015625 L 31.090625 42.04375 L 31.05 42.096875 L 31.109375 42.175 L 31.175 42.234375 L 31.234375 42.425 L 31.26875 42.8125 L 31.21875 42.9 L 31.11875 42.9125 L 31.078125 42.8875 L 31.046875 42.84375 L 31.0625 42.76875 L 31.1125 42.734375 L 31.1375 42.7 L 31.0875 42.653125 L 31.03125 42.628125 L 30.9625 42.5 L 30.79375 42.3125 L 30.625 42.2 L 30.528125 42.01875 L 30.4875 41.996875 L 30.090625 41.70625 L 29.921875 41.484375 L 29.609375 41.275 L 29.0875 41.0625 L 28.846875 41.028125 L 28.559375 41.034375 L 28.5 41.003125 L 28.453125 40.934375 L 28.33125 40.903125 L 28.20625 40.90625 L 28.03125 40.859375 L 27.753125 40.825 L 27.659375 40.875 L 27.578125 40.96875 L 27.409375 41.096875 L 27.340625 41.121875 L 27.2625 41.140625 L 27.075 41.309375 L 26.55625 41.46875 L 26.390625 41.54375 L 26.190625 41.70625 L 25.9125 41.8 L 25.7375 41.83125 L 25.55 41.84375 L 25.315625 41.784375 L 25.109375 41.546875 L 24.996875 41.475 L 24.95 41.421875 L 24.88125 41.39375 L 24.875 41.43125 L 24.9625 41.5125 L 25.028125 41.625 L 24.96875 41.640625 L 24.88125 41.625 L 24.65625 41.653125 L 24.5875 41.59375 L 24.45 41.53125 L 24.4625 41.390625 L 24.503125 41.359375 L 24.51875 41.328125 L 24.5 41.3 L 24.4125 41.33125 L 24.33125 41.309375 L 24.284375 41.15 L 24.3 41.09375 L 24.29375 41.034375 L 24.128125 40.91875 L 24.05 40.846875 L 23.996875 40.8 L 23.784375 40.734375 L 23.75 40.65625 L 23.675 40.609375 L 23.475 40.33125 L 23.359375 40.26875 L 23.08125 39.925 L 22.95625 39.7375 L 22.796875 39.40625 L 22.78125 39.3 L 22.746875 39.221875 L 22.71875 39.175 L 22.625 39.15625 L 22.5625 39.059375 L 22.48125 38.90625 L 22.4375 38.69375 L 22.45 38.628125 L 22.484375 38.534375 L 22.546875 38.4375 L 22.590625 38.359375 L 22.703125 38.265625 L 22.6875 38.1625 L 22.640625 38.034375 L 22.578125 38.04375 L 22.53125 38.025 L 22.484375 37.99375 L 22.503125 37.95 L 22.559375 37.90625 L 22.55 37.84375 L 22.5625 37.74375 L 22.625 37.746875 L 22.65 37.78125 L 22.66875 37.784375 L 22.684375 37.53125 L 22.703125 37.45625 L 22.6875 37.390625 L 22.625 37.309375 L 22.578125 37.1875 L 22.621875 37.125 L 22.66875 37.1 L 22.734375 37.046875 L 22.778125 36.921875 L 22.796875 36.98125 L 22.78125 37.090625 L 22.7375 37.171875 L 22.734375 37.2375 L 22.775 37.315625 L 22.8125 37.325 L 22.878125 37.296875 L 22.871875 37.171875 L 22.84375 37.065625 L 22.875 36.628125 L 22.809375 36.15625 L 22.903125 35.625 L 23 35.296875 L 23.08125 35.21875 L 23.1625 35.096875 L 23.25 34.953125 L 23.28125 34.859375 L 23.140625 34.34375 L 23.090625 34.325 L 23.046875 34.325 L 23 34.246875 L 23.03125 34.1875 L 23.0875 34.15 L 23.13125 34.159375 L 23.140625 34.278125 L 23.16875 34.2625 L 23.246875 34.109375 L 23.28125 34.078125 L 23.315625 34.03125 L 23.234375 33.96875 L 23.153125 33.921875 L 23.05625 33.71875 L 22.7125 33.55 L 22.671875 33.559375 L 22.828125 33.65 L 22.89375 33.7375 L 22.846875 33.746875 L 22.78125 33.6875 L 22.675 33.6875 L 22.625 33.746875 L 22.565625 33.74375 L 22.51875 33.65625 L 22.434375 33.575 L 22.3625 33.51875 L 22.253125 33.496875 L 22.215625 33.515625 L 22.15625 33.5125 L 22.140625 33.471875 L 22.1375 33.39375 L 22.171875 33.371875 L 22.309375 33.359375 L 22.5625 33.503125 L 22.55 33.465625 L 21.95 32.971875 L 21.625 32.909375 L 21.6625 32.940625 L 21.746875 32.965625 L 21.725 32.984375 L 21.659375 33.0125 L 21.578125 33 L 21.46875 32.89375 L 21.0625 32.7625 L 20.971875 32.78125 L 20.828125 32.85 L 20.434375 32.875 L 20.0625 32.74375 L 19.8125 32.715625 L 19.846875 32.746875 L 19.871875 32.809375 L 19.70625 32.86875 L 19.565625 32.89375 L 19.346875 33.025 L 19.2 33 L 18.85625 33.0125 L 18.66875 33.05 L 18.2 32.95625 L 18.08125 32.96875 L 17.95 33.015625 L 17.875 32.9625 L 17.784375 32.859375 L 17.684375 32.859375 L 17.46875 32.903125 L 17.425 32.921875 L 17.3 33.01875 L 17.246875 33.046875 L 17.153125 33.128125 L 17.03125 33.09375 L 16.578125 32.8125 L 16.575 32.840625 L 16.60625 32.875 L 16.65 32.9375 L 16.5625 33.046875 L 16.434375 32.996875 L 16.325 32.921875 L 16.26875 32.9125 L 16.203125 32.8875 L 16.184375 32.8 L 16.221875 32.721875 L 16.453125 32.43125 L 16.6125 32.375 L 16.74375 32.190625 L 16.8125 32.121875 L 16.921875 31.9375 L 16.9875 31.5125 L 16.95 31.21875 L 16.953125 31.0625 L 16.984375 30.95625 L 17.0625 30.796875 L 16.975 30.68125 L 17.0375 30.496875 L 17.05625 30.375 L 17.190625 30.015625 L 17.20625 29.88125 L 17.153125 29.71875 L 17.003125 29.715625 L 16.95 29.73125 L 16.878125 29.7125 L 16.95 29.5625 L 16.96875 29.50625 L 17.06875 29.34375 L 17.065625 29.24375 L 17.15625 29.171875 L 17.21875 29.09375 L 17.275 29.090625 L 17.296875 29.234375 L 17.24375 29.496875 L 17.265625 29.546875 L 17.3625 29.60625 L 17.45625 29.81875 L 17.496875 29.828125 L 17.55625 29.715625 L 17.609375 29.596875 L 17.640625 29.328125 L 17.74375 29.140625 L 17.815625 28.815625 L 17.934375 28.503125 L 17.921875 28.465625 L 17.871875 28.4625 L 17.78125 28.55 L 17.7375 28.54375 L 17.734375 28.421875 L 17.778125 28.378125 L 17.846875 28.340625 L 17.91875 28.325 L 17.953125 28.3 L 18.015625 28.225 L 18.028125 28.121875 L 17.96875 28.1125 L 17.921875 28.128125 L 17.828125 28.13125 L 17.75 28.15625 L 17.7 28.10625 L 17.703125 28.046875 L 17.828125 27.8625 L 17.921875 27.796875 L 17.971875 27.80625 L 18.003125 27.753125 L 18.015625 27.70625 L 17.975 27.578125 L 17.971875 27.4375 L 18.03125 27.26875 L 18.28125 26.909375 L 18.48125 26.746875 L 18.64375 26.54375 L 18.71875 26.4125 L 18.78125 26.253125 L 18.8375 26.0625 L 18.796875 26 L 18.78125 25.953125 L 18.76875 25.703125 L 18.659375 25.653125 L 18.5125 25.48125 L 18.390625 25.440625 L 18.284375 25.49375 L 18.2125 25.50625 L 18.09375 25.503125 L 18.075 25.534375 L 18.1875 25.56875 L 18.246875 25.565625 L 18.29375 25.546875 L 18.315625 25.54375 L 18.346875 25.58125 L 18.31875 25.63125 L 18.28125 25.65625 L 18.24375 25.671875 L 17.95625 25.640625 L 17.7 25.55625 L 17.59375 25.534375 L 17.30625 25.465625 L 17.153125 25.45 L 17.1 25.465625 L 17.1 25.484375 L 17.08125 25.5 L 17 25.515625 L 16.734375 25.5125 L 16.590625 25.55 L 16.3875 25.671875 L 16.221875 25.71875 L 15.059375 25.903125 L 14.971875 25.93125 L 14.60625 26.10625 L 14.39375 26.25 L 14.29375 26.58125 L 14.265625 26.640625 L 14.234375 26.84375 L 14.2375 27.078125 L 14.23125 27.28125 L 14.234375 27.54375 L 14.221875 27.64375 L 14.203125 27.690625 L 14.028125 27.84375 L 13.971875 27.925 L 13.91875 28.421875 L 13.653125 28.684375 L 13.51875 28.75 L 13.425 28.828125 L 13.05 29.025 L 13.028125 29.05625 L 13.0125 29.09375 L 13.04375 29.09375 L 13.16875 29.0125 L 13.18125 29.0375 L 13.140625 29.128125 L 13.153125 29.171875 L 13.2125 29.171875 L 13.25 29.24375 L 13.253125 29.36875 L 13.046875 29.471875 L 12.934375 29.58125 L 12.846875 29.596875 L 12.596875 29.565625 L 12.4625 29.49375 L 12.421875 29.44375 L 12.5 29.403125 L 12.5 29.346875 L 12.3875 29.25 L 12.225 29.265625 L 12.090625 29.2875 L 11.809375 29.3 L 11.75 29.3125 L 11.471875 29.3875 L 11.45 29.434375 L 11.403125 29.5 L 11.253125 29.56875 L 10.953125 29.625 L 10.83125 29.6 L 10.43125 29.621875 L 10.16875 29.715625 L 10.03125 29.78125 L 9.640625 29.921875 L 9.3875 29.9625 L 9.30625 29.9625 L 9.19375 29.953125 L 9.03125 29.721875 L 8.88125 29.5125 L 8.61875 29.4375 L 8.409375 29.26875 L 7.9375 29.246875 L 7.76875 29.171875 L 7.74375 29.184375 L 7.81875 29.2375 L 7.9125 29.28125 L 7.859375 29.28125 L 7.61875 29.2 L 7.49375 29.1125 L 7.484375 29.075 L 7.628125 29.1375 L 7.671875 29.13125 L 7.5 29.015625 L 7.4125 28.8125 L 7.30625 28.74375 L 7.24375 28.621875 L 7.034375 28.434375 L 7.003125 28.265625 L 6.9375 28.140625 L 6.828125 27.746875 L 6.515625 27.328125 L 6.003125 26.76875 L 5.921875 26.6375 L 5.9125 26.528125 L 5.7125 26.125 L 5.534375 25.7375 L 5.53125 25.690625 L 5.515625 25.63125 L 5.453125 25.59375 L 5.4125 25.55625 L 5.3625 25.465625 L 5.21875 24.90625 L 5.421875 25.253125 L 5.5875 25.453125 L 5.68125 25.515625 L 5.68125 25.575 L 5.625 25.65 L 5.61875 25.79375 L 5.65 25.903125 L 5.671875 25.76875 L 5.734375 25.6875 L 5.765625 25.515625 L 5.7125 25.453125 L 5.55625 25.33125 L 5.43125 25.19375 L 5.20625 24.8 L 5.184375 24.56875 L 5.109375 24.265625 L 5.109375 24.203125 L 5.090625 24.109375 L 5.140625 23.90625 L 5.215625 23.7625 L 5.23125 23.6875 L 5.203125 23.203125 L 5.25 22.628125 L 5.234375 22.59375 L 5.25 22.55625 L 5.265625 22.296875 L 5.328125 21.746875 L 5.525 20.9 L 5.628125 20.6 L 5.875 20.125 L 5.953125 19.890625 L 5.971875 19.609375 L 5.98125 19.515625 L 5.96875 19.46875 L 5.890625 19.465625 L 5.65625 19.015625 L 5.61875 18.890625 L 5.578125 18.609375 L 5.54375 18.515625 L 5.5 18.309375 L 5.46875 18.225 L 5.515625 18.109375 L 5.5625 18.01875 L 5.565625 17.940625 L 5.55625 17.85625 L 5.296875 17.784375 L 5.203125 17.546875 L 5.309375 17.6375 L 5.50625 17.75 L 5.5625 17.746875 L 5.609375 17.73125 L 5.68125 17.6 L 5.796875 17.253125 L 5.61875 17.025 L 5.65625 16.99375 L 5.690625 16.975 L 5.84375 17 L 5.940625 16.965625 L 6.0625 16.8125 L 6.109375 16.66875 L 5.98125 16.715625 L 5.9625 16.65625 L 5.9625 16.59375 L 6.034375 16.578125 L 6.13125 16.565625 L 6.19375 16.53125 L 6.234375 16.484375 L 6.253125 16.534375 L 6.2875 16.578125 L 6.35 16.528125 L 6.39375 16.4875 L 6.40625 16.346875 L 6.4375 16.20625 L 6.55625 16.31875 L 6.69375 16.28125 L 6.7875 16.23125 L 6.875 16.15625 L 6.80625 16.125 L 6.74375 16.1125 L 6.6 15.80625 L 6.640625 15.784375 L 6.68125 15.796875 L 6.703125 15.840625 L 6.74375 15.890625 L 6.8375 15.965625 L 6.93125 15.9125 L 6.93125 15.878125 L 7.05625 15.878125 L 7.25 15.925 L 7.38125 15.909375 L 7.23125 16.0125 L 7.1 16.1125 L 7.171875 16.09375 L 7.36875 15.975 L 7.578125 15.903125 L 7.725 15.8 L 7.81875 15.753125 L 8.15625 15.5375 L 8.296875 15.45 L 8.44375 15.284375 L 8.4625 15.159375 L 8.609375 15.03125 L 8.775 14.875 L 8.715625 14.75 L 8.640625 14.65 L 8.60625 14.40625 L 8.65625 14.390625 L 8.71875 14.4375 L 8.76875 14.440625 L 8.84375 14.33125 L 8.953125 14.340625 L 8.975 14.46875 L 8.90625 14.625 L 8.965625 14.640625 L 9.125 14.59375 L 9.21875 14.625 L 8.94375 14.809375 L 8.93125 14.85625 L 9.1625 14.715625 L 9.75 14.453125 L 10.0125 14.421875 L 10.015625 14.375 L 9.9375 14.246875 L 10.06875 14.0125 L 10.128125 14.015625 L 10.159375 14.05 L 10.15625 14.10625 L 10.109375 14.19375 L 10.0625 14.2375 L 10.015625 14.25 L 10.04375 14.328125 L 10.090625 14.375 L 10.1625 14.33125 L 10.25 14.309375 L 10.63125 14.296875 L 10.7625 14.28125 L 10.89375 14.296875 L 11.171875 14.390625 L 11.375 14.5 L 11.51875 14.55625 L 12.03125 14.609375 L 12.25 14.5625 L 12.28125 14.528125 L 12.215625 14.453125 L 12.1875 14.409375 L 12.253125 14.325 L 12.33125 14.265625 L 12.484375 14.215625 L 12.56875 14.3375 L 12.7625 14.34375 L 12.890625 14.54375 L 12.953125 14.6125 L 13.184375 14.671875 L 13.25 14.6 L 13.284375 14.6 L 13.26875 14.684375 L 13.29375 14.75 L 13.403125 14.903125 L 13.40625 14.95 L 13.296875 14.93125 L 13.24375 14.94375 L 13.234375 14.9875 L 13.590625 15.125 L 13.903125 15.215625 L 13.996875 15.184375 L 14.10625 15.015625 L 14.2125 14.971875 L 14.3625 14.98125 L 14.45625 15.034375 L 14.528125 15.215625 L 14.56875 15.25 L 14.6625 15.203125 L 14.70625 15.140625 L 14.73125 15.059375 L 14.74375 14.98125 L 14.765625 14.921875 L 14.765625 14.7875 L 14.70625 14.746875 L 14.65625 14.71875 L 14.6375 14.6875 L 14.6375 14.640625 L 14.984375 14.75 L 15.059375 14.8125 L 15.08125 14.859375 L 15.09375 14.925 L 15.184375 14.953125 L 15.2375 14.953125 L 15.30625 14.96875 L 15.359375 15.01875 L 15.425 15.046875 L 15.525 15.125 L 15.59375 15.25 L 15.6375 15.296875 L 15.609375 15.421875 L 15.6625 15.4 L 15.78125 15.28125 L 15.83125 15.31875 L 15.878125 15.375 L 15.90625 15.33125 L 15.9375 15.25625 L 16.046875 15.19375 L 16.05625 15.109375 L 15.99375 15.090625 L 15.925 15.046875 L 15.846875 14.921875 L 15.76875 14.925 L 15.4375 14.80625 L 15.35625 14.7125 L 15.234375 14.6375 L 15.18125 14.525 L 15.21875 14.484375 L 15.225 14.44375 L 15.25 14.434375 L 15.30625 14.44375 L 15.378125 14.409375 L 15.34375 14.375 L 15.41875 14.309375 L 15.5125 14.2875 L 15.63125 14.2375 L 15.625 14.2125 L 15.628125 14.09375 L 15.578125 14.015625 L 15.5625 13.96875 L 15.578125 13.91875 L 15.4625 13.903125 L 15.375 13.98125 L 15.34375 14.10625 L 15.2875 14.121875 L 15.153125 14.08125 L 15.0625 13.971875 L 15.109375 13.91875 L 15.1875 13.875 L 15.25 13.815625 L 15.246875 13.778125 L 15.15625 13.7375 L 15.1125 13.784375 L 15.065625 13.809375 L 14.965625 13.80625 L 14.84375 13.903125 L 14.61875 13.940625 L 14.48125 13.890625 L 14.31875 13.78125 L 14.421875 13.590625 L 14.55625 13.440625 L 14.675 13.45625 L 14.778125 13.484375 L 14.890625 13.6 L 15.34375 13.75 L 15.525 13.66875 L 15.675 13.49375 L 15.746875 13.496875 L 15.796875 13.5125 L 16.003125 13.45625 L 16.190625 13.390625 L 16.23125 13.390625 L 16.296875 13.40625 L 16.453125 13.48125 L 16.878125 13.453125 L 17.003125 13.46875 L 17.14375 13.4625 L 17.16875 13.390625 L 17.21875 13.175 L 17.275 13.0125 L 17.296875 12.996875 L 17.375 13.090625 L 17.40625 13.184375 L 17.40625 13.34375 L 17.4375 13.390625 L 17.4875 13.40625 L 17.546875 13.4875 L 17.575 13.565625 L 17.434375 13.6125 L 17.33125 13.621875 L 17.30625 13.65625 L 17.78125 13.609375 L 17.91875 13.45625 L 18 13.421875 L 18.003125 13.46875 L 17.934375 13.546875 L 17.965625 13.5625 L 18.203125 13.5 L 18.24375 13.421875 L 18.325 13.340625 L 18.34375 13.21875 L 18.40625 13.21875 L 18.465625 13.26875 L 18.5125 13.19375 L 18.559375 13.171875 L 18.59375 13.26875 L 18.56875 13.371875 L 18.403125 13.421875 L 18.346875 13.453125 L 18.3 13.5 L 18.59375 13.453125 L 18.953125 13.409375 L 19.04375 13.378125 L 19.14375 13.315625 L 19.2375 13.28125 L 19.328125 13.296875 L 19.471875 13.28125 L 19.590625 13.325 L 19.621875 13.35625 L 19.640625 13.40625 L 19.496875 13.375 L 19.23125 13.41875 L 19.578125 13.5125 L 19.971875 13.675 L 20.05 13.7375 L 20.09375 13.746875 L 20.109375 13.7 L 20.1125 13.6375 L 20.19375 13.5875 L 20.284375 13.578125 L 20.2375 13.64375 L 20.2125 13.715625 L 20.278125 13.775 L 20.2625 13.815625 L 20.19375 13.8125 L 20.40625 14.015625 L 20.59375 14.159375 L 20.653125 14.26875 L 20.640625 14.328125 L 20.6125 14.35 L 20.559375 14.2875 L 20.51875 14.20625 L 20.51875 14.3125 L 20.565625 14.41875 L 20.640625 14.4375 L 20.8 14.39375 L 20.996875 14.378125 L 21.075 14.34375 L 21.171875 14.296875 L 21.28125 14.30625 L 21.59375 14.128125 L 21.70625 14.109375 L 21.796875 14.1125 L 21.828125 14.08125 L 21.809375 14.00625 L 21.83125 13.940625 L 21.890625 13.890625 L 22.21875 13.8375 L 22.653125 14.090625 L 23.153125 14.7625 L 23.796875 15.325 L 23.94375 15.55625 L 23.953125 15.659375 L 23.95 15.71875 L 23.934375 16.11875 L 23.825 16.465625 L 23.70625 17.0125 L 23.75 17.10625 L 23.79375 17.1625 L 23.83125 17.2 L 23.8625 17.16875 L 23.934375 17.1875 L 23.975 17.15 L 23.996875 17.10625 L 24.0125 16.971875 L 23.96875 16.9375 L 23.91875 16.84375 L 23.965625 16.825 L 24.03125 16.85625 L 24.109375 16.965625 L 24.1375 16.98125 L 24.2 16.934375 L 24.25 16.984375 L 24.253125 17.028125 L 24.21875 17.1125 L 24.109375 17.24375 L 23.965625 17.453125 L 23.903125 17.46875 L 23.86875 17.4875 L 23.9375 17.5625 L 23.984375 17.625 L 24.203125 18.096875 L 24.3125 18.26875 L 24.390625 18.359375 L 24.453125 18.390625 L 24.53125 18.403125 L 24.54375 18.35625 L 24.528125 18.265625 L 24.6375 18.234375 L 24.734375 18.234375 L 24.671875 18.33125 L 24.65625 18.590625 L 24.703125 18.796875 L 24.746875 18.8125 L 24.7875 18.796875 L 24.85 18.6875 L 24.903125 18.640625 L 24.965625 18.6125 L 24.88125 18.734375 L 24.8 18.88125 L 24.8375 18.9125 L 24.91875 18.95625 L 24.984375 19.35625 L 25.10625 19.578125 L 25.284375 19.703125 L 25.5375 19.784375 L 25.5625 19.921875 L 25.7125 20.125 L 25.85 20.421875 L 25.921875 20.45625 L 26.015625 20.496875 L 26.065625 20.559375 L 26.034375 20.6125 L 25.871875 20.484375 L 25.825 20.5 L 25.796875 20.55 L 25.784375 20.609375 L 25.85625 20.73125 L 25.98125 20.7375 L 26.1625 20.675 L 26.315625 20.703125 L 26.54375 20.60625 L 26.628125 20.60625 L 26.778125 20.46875 L 26.828125 20.340625 L 26.859375 20.078125 L 26.9625 19.90625 L 27.034375 19.71875 L 27.05625 19.725 L 27.0625 19.76875 L 27.078125 19.78125 L 27.09375 19.375 L 27.184375 18.778125 L 27.171875 18.44375 L 27.125 18.1875 L 27.078125 18.065625 L 26.953125 17.89375 L 26.425 16.54375 L 26.378125 16.41875 L 26.30625 16.265625 L 26.253125 16.0125 L 26.21875 15.90625 L 26.190625 15.734375 L 26.23125 15.734375 L 26.278125 15.76875 L 26.265625 15.84375 L 26.28125 15.909375 L 26.3625 15.953125 L 26.378125 15.984375 L 26.328125 16.075 L 26.328125 16.15 L 26.375 16.3125 L 26.40625 16.26875 L 26.421875 16.1625 L 26.45 16.075 L 26.48125 16.0625 L 26.45625 16.346875 L 26.471875 16.546875 L 26.6125 16.8875 L 26.66875 16.934375 L 26.56875 16.7 L 26.525 16.54375 L 26.50625 16.41875 L 26.5125 16.284375 L 26.53125 16.2 L 26.58125 16.11875 L 26.53125 16.015625 L 26.11875 15.328125 L 25.8625 14.75 L 25.684375 14.278125 L 25.575 13.78125 L 25.515625 13.596875 L 25.425 13.06875 L 25.36875 12.9375 L 25.35 12.840625 L 25.346875 12.734375 L 25.371875 12.68125 L 25.40625 12.54375 L 25.43125 12.43125 L 25.421875 12.375 L 25.44375 12.26875 L 25.48125 12.296875 L 25.5375 12.309375 L 25.6375 12.175 L 25.58125 12.10625 L 25.525 12.078125 L 25.51875 12.046875 L 25.625 12.025 L 25.671875 11.925 L 25.71875 11.875 L 25.778125 11.79375 L 25.75 11.78125 L 25.715625 11.796875 L 25.671875 11.78125 L 25.690625 11.73125 L 25.78125 11.675 L 25.784375 11.625 L 25.7625 11.59375 L 25.75 11.54375 L 25.79375 11.484375 L 25.871875 11.46875 L 25.909375 11.421875 L 25.909375 11.38125 L 25.875 11.34375 L 25.85 11.2875 L 25.890625 11.265625 L 25.9375 11.26875 L 26.090625 11.190625 L 26.153125 11.06875 L 26.140625 11.015625 L 26.18125 10.95 L 26.25 10.934375 L 26.29375 10.90625 L 26.371875 10.8 L 26.359375 10.75625 L 26.325 10.73125 L 26.28125 10.684375 L 26.24375 10.5875 L 26.234375 10.465625 L 26.35625 10.625 L 26.3875 10.609375 L 26.390625 10.5625 L 26.43125 10.5375 L 26.453125 10.640625 L 26.48125 10.6875 L 26.515625 10.7 L 26.59375 10.640625 L 26.628125 10.60625 L 26.64375 10.5 L 26.578125 10.421875 L 26.45 10.371875 L 26.51875 10.340625 L 26.659375 10.35625 L 26.78125 10.3875 L 26.903125 10.33125 L 26.95 10.278125 L 27.00625 10.25 L 27.078125 10.25625 L 27.203125 10.215625 L 27.30625 10.140625 L 27.3625 10.05625 L 27.3125 9.9375 L 27.471875 9.96875 L 27.5625 9.9125 L 27.70625 9.7875 L 27.746875 9.65625 L 27.85625 9.61875 L 27.953125 9.59375 L 28.128125 9.45625 L 28.1875 9.38125 L 28.125 9.19375 L 28.190625 9.0625 L 28.1875 9.125 L 28.175 9.19375 L 28.234375 9.296875 L 28.3 9.0625 L 28.56875 8.6875 L 28.671875 8.590625 L 28.996875 8.36875 L 29.20625 8.30625 L 29.69375 8.3125 L 29.75 8.190625 L 29.76875 7.93125 L 29.8 8.06875 L 29.796875 8.19375 L 29.8 8.275 L 29.846875 8.109375 L 29.8875 7.9625 L 30.01875 7.75625 L 30.090625 7.6875 L 30.14375 7.65 L 30.3125 7.50625 L 30.48125 7.4 L 30.453125 7.35625 L 30.4375 7.3 L 30.440625 7.09375 L 30.471875 7.15 L 30.50625 7.25625 L 30.58125 7.284375 L 30.640625 7.265625 L 30.784375 7.125 L 30.890625 7.14375 L 31.078125 7.1375 L 31.203125 7.13125 L 31.28125 7.128125 L 31.3125 7.0625 L 31.425 7.034375 L 31.55 7.025 L 31.64375 6.921875 L 31.74375 6.784375 L 31.625 6.703125 L 31.265625 6.78125 L 31.078125 6.734375 L 30.984375 6.65 L 30.8625 6.45625 L 31.125 6.68125 L 31.225 6.703125 L 31.409375 6.578125 L 31.434375 6.53125 L 31.4375 6.4625 L 31.4875 6.36875 L 31.55625 6.28125 L 31.503125 6.23125 L 31.453125 6.19375 L 30.984375 6 L 30.903125 5.89375 L 31.09375 5.99375 L 31.26875 6.0375 L 31.40625 6.00625 L 31.434375 5.890625 L 31.475 5.8875 L 31.53125 5.921875 L 31.55 6.03125 L 31.58125 6.09375 L 31.6375 6.075 L 31.70625 6.0875 L 31.846875 6.13125 L 31.975 6.15625 L 32.0625 6.11875 L 32.234375 5.921875 L 32.471875 5.7125 L 32.50625 5.53125 L 32.4875 5.4125 L 32.471875 5.328125 L 32.425 5.246875 L 32.375 5.2375 L 32.21875 5.3375 L 32.1875 5.6 L 32.1375 5.65 L 32.090625 5.65 L 32.096875 5.5 L 32.11875 5.3625 L 32.10625 5.221875 L 31.9375 5.190625 L 31.8625 5.225 L 31.75 5.25 L 31.565625 5.24375 L 31.4375 5.265625 L 31.29375 5.24375 L 31.3 5.125 L 31.278125 4.975 L 31.28125 4.828125 L 31.3 4.953125 L 31.346875 5.0625 L 31.5 5.15625 L 31.596875 5.13125 L 31.66875 5.075 L 31.71875 4.975 L 31.79375 4.96875 L 31.909375 5 L 31.85625 4.890625 L 31.91875 4.921875 L 32.003125 4.953125 L 32.015625 4.85 L 32.0125 4.75 L 32.125 4.81875 L 32.253125 4.859375 L 32.340625 4.909375 L 32.41875 5.00625 L 32.359375 4.76875 L 32.284375 4.59375 L 32.21875 4.525 L 32.203125 4.453125 L 32.24375 4.30625 L 32.221875 4.2625 L 32.234375 4.203125 L 32.25625 4.171875 L 32.29375 4.2125 L 32.325 4.3125 L 32.425 4.765625 L 32.53125 5.01875 L 32.715625 5.371875 L 32.76875 5.453125 L 32.7375 5.359375 L 32.49375 4.828125 L 32.328125 4.171875 L 32.265625 4.00625 L 32.234375 3.859375 L 32.190625 3.78125 L 32.015625 3.753125 L 31.890625 3.71875 L 31.7 3.815625 L 31.590625 3.80625 L 31.565625 3.70625 L 31.40625 3.578125 L 31.359375 3.38125 L 31.24375 3.3625 L 31.046875 3.3 L 30.95 3.23125 L 30.70625 3.190625 L 30.671875 3.171875 L 30.640625 3.140625 L 30.940625 3.15625 L 31.31875 3.3125 L 31.409375 3.30625 L 31.44375 3.43125 L 31.5625 3.5375 L 31.621875 3.6 L 31.69375 3.659375 L 31.76875 3.625 L 31.84375 3.565625 L 31.815625 3.475 L 31.784375 3.41875 L 31.690625 3.31875 L 31.575 3.265625 L 31.434375 3.15 L 31.278125 2.953125 L 31.253125 2.90625 L 31.25 2.86875 L 31.528125 3.171875 L 31.628125 3.225 L 31.703125 3.1875 L 31.6875 3.1375 L 31.69375 3.05 L 31.8625 3.09375 L 31.875 2.984375 L 31.859375 2.88125 L 31.734375 2.828125 L 31.8125 2.765625 L 31.59375 2.675 L 31.5125 2.6125 L 31.421875 2.48125 L 31.30625 2.39375 L 31.140625 2.190625 L 31.046875 2.046875 L 30.8125 1.8375 L 30.8625 1.8375 L 31.028125 1.95 L 31.16875 2.15625 L 31.20625 2.19375 L 31.58125 2.59375 L 31.653125 2.609375 L 31.765625 2.6 L 31.8125 2.53125 L 31.828125 2.41875 L 31.86875 2.3375 L 31.8625 2.265625 L 31.75 2.15625 L 31.609375 2.078125 L 31.5125 1.953125 L 31.390625 1.890625 L 31.065625 1.7875 L 30.89375 1.5375 L 30.815625 1.51875 L 30.6625 1.565625 L 30.6125 1.546875 L 30.5625 1.475 L 30.596875 1.26875 L 30.628125 1.15625 L 30.75 1.0375 L 30.840625 0.96875 L 30.89375 0.88125 L 30.90625 0.796875 C 29.9875 0.70625 29.0625 0.659375 28.125 0.659375 Z M 30.921875 0.8 L 30.93125 0.875 L 30.8875 0.99375 L 30.784375 1.078125 L 30.675 1.25 L 30.653125 1.325 L 30.6625 1.4625 L 30.75625 1.475 L 30.85625 1.40625 L 30.95 1.4 L 30.96875 1.48125 L 31.015625 1.55625 L 31.090625 1.640625 L 31.1125 1.56875 L 31.1125 1.4875 L 31.2375 1.6875 L 31.453125 1.74375 L 31.628125 1.828125 L 31.690625 1.903125 L 31.765625 1.9625 L 31.78125 1.878125 L 31.7375 1.7875 L 31.6875 1.68125 L 31.39375 1.3875 L 31.3625 1.25625 L 31.35 1.140625 L 31.375 1.1875 L 31.390625 1.253125 L 31.484375 1.4125 L 31.5625 1.46875 L 31.65 1.53125 L 31.703125 1.525 L 31.675 1.4375 L 31.625 1.35 L 31.56875 1.265625 L 31.528125 0.934375 L 31.54375 0.878125 C 31.3375 0.85 31.128125 0.81875 30.921875 0.8 Z M 31.79375 0.909375 L 31.765625 0.984375 L 31.8125 0.965625 L 31.83125 0.9125 C 31.81875 0.9125 31.80625 0.909375 31.79375 0.909375 Z M 31.9375 0.93125 L 31.971875 0.99375 L 32.121875 1.125 L 32.171875 1.11875 L 32.190625 1.15625 L 32.05 1.15625 L 31.94375 1.125 L 31.8625 1.15625 L 31.828125 1.31875 L 31.8625 1.4125 L 31.93125 1.53125 L 32.046875 1.6 L 32.128125 1.659375 L 32.16875 1.6375 L 32.184375 1.59375 L 32.20625 1.578125 L 32.234375 1.640625 L 32.26875 1.6125 L 32.328125 1.5375 L 32.36875 1.53125 L 32.34375 1.6 L 32.359375 1.6875 L 32.33125 1.765625 L 32.28125 1.8375 L 32.328125 1.86875 L 32.371875 1.878125 L 32.44375 1.9625 L 32.40625 2.046875 L 32.375 2.140625 L 32.51875 2.140625 L 32.6125 2.171875 L 32.5375 2.375 L 32.45 2.475 L 32.328125 2.6875 L 32.221875 3.03125 L 32.19375 3.24375 L 32.2125 3.31875 L 32.275 3.4125 L 32.375 3.1875 L 32.421875 2.99375 L 32.48125 2.9125 L 32.565625 2.85 L 32.65 2.81875 L 32.703125 2.784375 L 32.690625 2.671875 L 32.99375 1.996875 L 33.06875 1.9 L 33.153125 1.71875 L 33.234375 1.7 L 33.253125 1.63125 L 33.265625 1.496875 L 33.284375 1.4625 L 33.31875 1.43125 L 33.340625 1.453125 L 33.340625 1.525 L 33.36875 1.5 L 33.38125 1.43125 L 33.3875 1.309375 L 33.34375 1.190625 L 33.296875 1.15625 L 33.2 1.171875 L 33.234375 1.140625 C 32.80625 1.059375 32.375 0.9875 31.9375 0.93125 Z M 33.3125 1.628125 L 33.2625 1.71875 L 33.153125 1.984375 L 32.965625 2.296875 L 33.01875 2.26875 L 33.184375 1.984375 L 33.265625 1.8125 Z M 32.54375 5.25625 L 32.625 5.421875 L 32.64375 5.390625 L 32.64375 5.35625 L 32.628125 5.3125 L 32.546875 5.25625 Z M 32.809375 5.525 L 32.809375 5.578125 L 32.8375 5.81875 L 32.828125 5.9625 L 32.765625 6.265625 L 32.578125 6.35 L 32.59375 6.36875 L 32.7625 6.325 L 32.8 6.265625 L 32.859375 6.00625 L 32.86875 5.8375 L 32.840625 5.6 Z M 32.465625 6.4 L 32.359375 6.421875 L 32.215625 6.5 L 32.2375 6.50625 Z M 31.9375 6.775 L 31.875 6.8125 L 31.653125 7.046875 L 31.5375 7.234375 L 31.565625 7.21875 L 31.75 6.975 Z M 31.359375 7.13125 L 31.375 7.15625 L 31.4375 7.1875 L 31.4875 7.203125 L 31.515625 7.203125 L 31.421875 7.140625 Z M 46.2125 10.546875 L 46.1125 10.659375 L 46 10.7125 L 46.025 10.73125 L 46.05625 10.734375 L 46.16875 10.684375 L 46.246875 10.55625 Z M 25.471875 12.59375 L 25.4375 12.625 L 25.390625 12.7 L 25.39375 12.815625 L 25.421875 12.940625 Z M 17.18125 13.590625 L 16.9875 13.61875 L 16.921875 13.6375 L 16.953125 13.64375 L 17.11875 13.653125 L 17.225 13.621875 Z M 16.41875 13.60625 L 16.43125 13.628125 L 16.5 13.65625 L 16.609375 13.6875 L 16.625 13.671875 L 16.60625 13.653125 Z M 15.84375 13.7375 L 15.734375 13.81875 L 15.71875 13.84375 L 15.690625 13.86875 L 15.653125 13.890625 L 15.7375 13.890625 L 15.8 13.925 L 15.796875 13.859375 L 15.8125 13.796875 Z M 16.2375 13.9 L 16.2875 14.078125 L 16.253125 14.296875 L 16.2875 14.25 L 16.309375 14.075 L 16.29375 13.975 Z M 16.234375 14.328125 L 16.2 14.359375 L 16.14375 14.434375 L 16.14375 14.45625 L 16.215625 14.3875 Z M 21.359375 14.359375 L 21.265625 14.378125 L 21.1875 14.434375 L 21.03125 14.50625 L 20.971875 14.4875 L 20.890625 14.5 L 21.025 14.534375 L 21.15 14.484375 Z M 12.45 14.484375 L 12.34375 14.53125 L 12.359375 14.58125 L 12.5625 14.703125 L 12.609375 14.6875 L 12.653125 14.628125 L 12.659375 14.59375 L 12.640625 14.565625 L 12.609375 14.546875 L 12.5125 14.484375 Z M 8.85 14.909375 L 8.796875 14.984375 L 8.525 15.2 L 8.5875 15.1875 L 8.80625 15.034375 L 8.921875 14.9125 Z M 6.9 16.25625 L 6.875 16.265625 L 6.8375 16.3125 L 6.75 16.328125 L 6.55 16.46875 L 6.4625 16.50625 L 6.403125 16.58125 L 6.44375 16.578125 L 6.71875 16.40625 L 6.88125 16.315625 Z M 6.33125 16.60625 L 6.28125 16.625 L 6.18125 16.76875 L 6.171875 16.815625 L 6.109375 16.93125 L 6.140625 16.925 L 6.253125 16.765625 L 6.35625 16.66875 Z M 26.690625 17 L 26.765625 17.284375 L 26.90625 17.65625 L 27.01875 17.89375 L 27 17.79375 L 26.79375 17.234375 L 26.74375 17.078125 Z M 6.078125 17.0375 L 5.99375 17.096875 L 5.7875 17.453125 L 5.6875 17.721875 L 5.68125 17.84375 L 5.71875 17.7625 L 5.84375 17.425 Z M 5.68125 17.90625 L 5.65 18.034375 L 5.65625 18.421875 L 5.825 19.096875 L 5.93125 19.39375 L 5.94375 19.33125 L 5.90625 19.140625 L 5.71875 18.45 Z M 29.88125 18.25625 L 29.88125 18.2625 L 29.78125 18.3125 L 29.965625 18.3125 L 30.31875 18.390625 L 30.546875 18.703125 L 30.65625 18.78125 L 30.7 18.878125 L 30.66875 18.96875 L 30.68125 19.05625 L 30.64375 19.15625 L 30.64375 19.3375 L 30.590625 19.41875 L 30.453125 19.515625 L 30.54375 19.55625 L 30.64375 19.690625 L 30.671875 19.684375 L 30.71875 19.609375 L 30.746875 19.21875 L 30.90625 19.09375 L 30.871875 18.825 L 30.75 18.73125 L 30.6375 18.671875 L 30.621875 18.640625 L 30.625 18.60625 L 30.5875 18.575 L 30.496875 18.525 L 30.39375 18.403125 L 30.29375 18.309375 L 30.121875 18.296875 L 29.975 18.265625 Z M 28.971875 18.453125 L 28.925 18.55625 L 28.940625 18.58125 L 28.925 18.64375 L 28.828125 18.73125 L 28.721875 18.75 L 28.55 18.625 L 28.4875 18.60625 L 28.721875 18.828125 L 28.79375 18.8625 L 28.878125 18.85625 L 29.075 18.78125 L 29.421875 18.675 L 29.80625 18.640625 L 29.8125 18.6 L 29.78125 18.53125 L 29.60625 18.56875 L 29.378125 18.559375 L 29.33125 18.5875 L 29.25 18.59375 L 29.10625 18.546875 Z M 24.546875 18.590625 L 24.5875 18.7375 L 24.65 18.875 L 24.653125 18.79375 L 24.60625 18.6375 Z M 24.503125 18.796875 L 24.528125 18.890625 L 24.575 18.9375 L 24.6625 18.965625 L 24.70625 18.925 L 24.609375 18.921875 L 24.58125 18.89375 Z M 31.3125 20.14375 L 31.29375 20.159375 L 31.265625 20.2625 L 31.221875 20.33125 L 31.33125 20.3125 L 31.421875 20.328125 L 31.575 20.45 L 31.734375 20.4875 L 31.840625 20.609375 L 31.996875 20.75 L 32.003125 20.875 L 31.9375 21 L 31.925 21.15625 L 31.796875 21.159375 L 31.81875 21.1875 L 31.89375 21.246875 L 31.9375 21.34375 L 31.984375 21.3875 L 31.975 21.2375 L 32.01875 21.065625 L 32.05 20.78125 L 32.034375 20.71875 L 31.953125 20.653125 L 31.765625 20.4625 L 31.59375 20.403125 L 31.390625 20.25 Z M 26.91875 20.4375 L 26.8875 20.45 L 26.796875 20.5125 L 26.79375 20.59375 L 26.734375 20.671875 L 26.66875 20.7125 L 26.6375 20.775 L 26.54375 20.909375 L 26.515625 20.971875 L 26.7625 20.71875 Z M 29.5125 20.640625 L 29.453125 20.653125 L 29.515625 20.88125 L 29.484375 21.028125 L 29.34375 21.246875 L 29.375 21.328125 L 29.390625 21.3375 L 29.409375 21.378125 L 29.315625 21.46875 L 29.29375 21.39375 L 29.171875 21.41875 L 29.25625 21.53125 L 29.39375 21.6125 L 29.471875 21.6375 L 29.53125 21.596875 L 29.546875 21.70625 L 29.621875 21.775 L 29.65625 21.875 L 29.734375 21.8125 L 29.859375 21.765625 L 29.89375 21.71875 L 30.03125 21.640625 L 30.04375 21.59375 L 30.028125 21.471875 L 30.03125 21.309375 L 29.909375 21.190625 L 29.8125 20.9875 L 29.746875 20.90625 L 29.746875 20.796875 L 29.671875 20.71875 Z M 30.546875 20.8 L 30.39375 20.8 L 30.296875 20.8375 L 30.253125 20.875 L 30.28125 20.89375 L 30.38125 20.921875 L 30.525 20.89375 L 30.621875 20.85625 L 30.609375 20.840625 Z M 26.45625 20.99375 L 26.40625 21.05 L 26.440625 21.046875 L 26.471875 20.996875 Z M 26.24375 21.121875 L 26.190625 21.159375 L 26.184375 21.18125 L 26.203125 21.18125 L 26.25625 21.15625 L 26.2625 21.1375 Z M 26.078125 21.2375 L 25.890625 21.275 L 25.825 21.30625 L 25.88125 21.328125 L 25.9375 21.296875 L 26.00625 21.28125 Z M 25.471875 21.25 L 25.46875 21.278125 L 25.525 21.3625 L 25.525 21.40625 L 25.54375 21.4125 L 25.578125 21.3875 L 25.596875 21.3625 L 25.59375 21.340625 Z M 32.55 21.325 L 32.53125 21.33125 L 32.5125 21.378125 L 32.6125 21.46875 L 32.640625 21.546875 L 32.7 21.6 L 32.81875 21.815625 L 32.925 21.90625 L 32.921875 21.96875 L 32.8375 22.03125 L 32.809375 22.078125 L 32.85625 22.078125 L 32.975 22.046875 L 33.059375 22.0625 L 33.05 21.996875 L 32.79375 21.6875 L 32.78125 21.65625 L 32.625 21.34375 Z M 25.296875 21.33125 L 25.278125 21.41875 L 25.2125 21.46875 L 25.29375 21.453125 L 25.33125 21.4375 L 25.33125 21.4 Z M 25.04375 21.484375 L 24.9875 21.5125 L 24.9875 21.53125 L 25.01875 21.53125 L 25.078125 21.515625 L 25.078125 21.4875 Z M 30.08125 21.875 L 30.015625 21.903125 L 29.903125 21.91875 L 29.859375 21.9375 L 29.778125 21.921875 L 29.715625 21.96875 L 29.81875 22.140625 L 29.89375 22.2125 L 29.953125 22.421875 L 29.99375 22.45 L 29.996875 22.596875 L 30.24375 22.6125 L 30.3125 22.4375 L 30.309375 22.3875 L 30.29375 22.34375 L 30.284375 22.315625 L 30.29375 22.28125 L 30.253125 22.078125 L 30.1875 21.971875 L 30.109375 22.10625 L 30.015625 22.046875 L 30.140625 21.95625 L 30.1375 21.925 Z M 34.090625 22.09375 L 34.01875 22.125 L 33.9875 22.309375 L 34.04375 22.315625 L 34.140625 22.171875 L 34.1125 22.09375 Z M 32.18125 22.70625 L 32.14375 22.796875 L 32.25 22.8125 L 32.465625 22.971875 L 32.559375 23.0125 L 32.609375 23 L 32.5 22.95 L 32.434375 22.878125 L 32.253125 22.7375 Z M 33.04375 22.70625 L 33.046875 22.815625 L 33.078125 22.84375 L 33.1375 22.96875 L 33.2375 23.15625 L 33.26875 23.246875 L 33.25625 23.33125 L 33.18125 23.346875 L 33.15625 23.3875 L 33.26875 23.45 L 33.46875 23.515625 L 33.625 23.78125 L 33.628125 23.746875 L 33.625 23.60625 L 33.5125 23.484375 L 33.35625 23.40625 L 33.296875 23.159375 L 33.215625 23.015625 L 33.1625 22.875 Z M 24.625 23.346875 L 24.31875 23.4 L 24.028125 23.515625 L 23.925 23.546875 L 23.296875 23.625 L 23.19375 23.65 L 22.21875 24.05 L 22.125 24.1125 L 21.925 24.309375 L 21.828125 24.434375 L 21.796875 24.59375 L 21.871875 24.840625 L 21.8125 24.890625 L 21.7375 24.89375 L 21.659375 24.878125 L 21.6125 24.89375 L 21.1875 25.078125 L 21.171875 25.125 L 21.234375 25.1625 L 21.3 25.14375 L 21.425 25.06875 L 21.496875 25.04375 L 21.578125 25.028125 L 21.653125 25.028125 L 21.66875 25.128125 L 21.653125 25.234375 L 21.71875 25.2125 L 21.975 25.06875 L 22.1 25.03125 L 22.234375 25.0125 L 22.278125 24.9625 L 22.31875 24.8125 L 22.359375 24.734375 L 22.39375 24.70625 L 22.659375 24.7 L 22.71875 24.6875 L 22.765625 24.65625 L 22.840625 24.65625 L 22.909375 24.6875 L 23.04375 24.640625 L 23.153125 24.53125 L 23.28125 24.465625 L 23.3375 24.421875 L 23.378125 24.3625 L 23.5 24.25 L 23.6875 24.14375 L 23.78125 24.0625 L 23.840625 24.01875 L 24.875 24.03125 L 24.953125 24.04375 L 25.015625 24.0625 L 25.065625 24.09375 L 25.121875 24.15 L 25.14375 24.221875 L 25.1125 24.278125 L 25.05625 24.315625 L 24.784375 24.375 L 24.65625 24.421875 L 24.784375 24.546875 L 24.940625 24.653125 L 24.984375 24.671875 L 25.45 24.690625 L 25.55 24.796875 L 25.640625 24.79375 L 25.71875 24.746875 L 25.746875 24.66875 L 25.765625 24.578125 L 25.815625 24.659375 L 25.846875 24.75625 L 25.890625 24.80625 L 25.95 24.840625 L 26.04375 24.8625 L 26.6125 24.85 L 26.63125 24.81875 L 26.628125 24.76875 L 26.746875 24.890625 L 26.846875 25.025 L 26.95 25.10625 L 27.0625 25.159375 L 27.34375 25.278125 L 28.03125 25.484375 L 28.13125 25.515625 L 28.2375 25.528125 L 28.690625 25.4375 L 28.8125 25.471875 L 28.921875 25.578125 L 29 25.7125 L 29.046875 25.8625 L 29.10625 26.1875 L 29.153125 26.24375 L 29.20625 26.29375 L 29.325 26.35 L 29.565625 26.56875 L 29.71875 26.63125 L 29.890625 26.63125 L 30.21875 26.6625 L 30.375 26.6625 L 30.525 26.6875 L 30.66875 26.721875 L 30.7 26.765625 L 30.71875 26.8375 L 30.81875 26.925 L 30.840625 26.975 L 30.825 27.034375 L 30.765625 27.1125 L 30.6875 27.175 L 30.265625 27.4625 L 30.065625 27.75625 L 30.378125 27.75 L 30.690625 27.70625 L 30.953125 27.70625 L 31.090625 27.671875 L 31.225 27.64375 L 31.55625 27.625 L 31.878125 27.5875 L 31.996875 27.58125 L 32.484375 27.621875 L 32.61875 27.65625 L 32.75 27.7125 L 33.075 27.70625 L 33.159375 27.671875 L 33.215625 27.625 L 33.246875 27.559375 L 33.28125 27.628125 L 33.28125 27.66875 L 33.2875 27.7 L 33.43125 27.659375 L 33.4875 27.625 L 33.621875 27.565625 L 33.8875 27.49375 L 34.159375 27.46875 L 34.359375 27.465625 L 34.403125 27.41875 L 34.484375 27.346875 L 34.503125 27.265625 L 34.465625 27.1875 L 34.425 27.159375 L 34.38125 27.140625 L 34.33125 27.15625 L 34.2 27.1375 L 34.034375 27.0625 L 33.85 26.8875 L 33.765625 26.815625 L 33.578125 26.71875 L 33.484375 26.6875 L 33.16875 26.63125 L 33.015625 26.65 L 32.78125 26.628125 L 32.6375 26.609375 L 32.534375 26.63125 L 32.5 26.60625 L 32.4875 26.55 L 32.515625 26.503125 L 32.690625 26.46875 L 32.609375 26.390625 L 32.640625 26.328125 L 32.690625 26.265625 L 32.64375 26.175 L 32.534375 26.109375 L 32.315625 26.10625 L 32.1 26.08125 L 31.871875 25.95625 L 31.628125 25.89375 L 31.5125 25.9 L 31.390625 25.878125 L 31.340625 25.809375 L 31.29375 25.78125 L 31.246875 25.78125 L 31.11875 25.81875 L 31.125 25.778125 L 31.15625 25.73125 L 31.04375 25.653125 L 30.83125 25.48125 L 30.778125 25.546875 L 30.69375 25.625 L 30.640625 25.621875 L 30.621875 25.546875 L 30.5 25.45 L 30.653125 25.471875 L 30.73125 25.46875 L 30.778125 25.40625 L 30.675 25.371875 L 30.58125 25.315625 L 30.53125 25.2625 L 30.3375 25.10625 L 30.23125 25.08125 L 30.24375 25.109375 L 30.325 25.1875 L 30.340625 25.215625 L 30.278125 25.234375 L 30.1625 25.203125 L 29.878125 25.065625 L 29.75 24.971875 L 29.534375 24.79375 L 28.859375 24.45 L 28.825 24.45625 L 28.75 24.45 L 28.675 24.41875 L 28.59375 24.40625 L 28.246875 24.421875 L 28.128125 24.39375 L 28.03125 24.340625 L 27.90625 24.25625 L 27.79375 24.16875 L 27.6375 23.95 L 27.41875 23.83125 L 27.453125 23.753125 L 27.328125 23.78125 L 27.28125 23.765625 L 27.140625 23.684375 L 27.028125 23.671875 L 26.90625 23.690625 L 26.78125 23.68125 L 26.6625 23.6375 L 26.55 23.58125 L 26.471875 23.49375 L 26.425 23.46875 L 25.984375 23.484375 L 25.8125 23.53125 L 25.775 23.525 L 25.65625 23.434375 L 25.66875 23.39375 L 25.54375 23.43125 L 25.28125 23.45 L 24.953125 23.3875 Z M 34.29375 23.815625 L 34.28125 23.86875 L 34.296875 23.91875 L 34.33125 23.9875 L 34.375 23.984375 L 34.55 24.05 L 34.628125 24 L 34.6 23.971875 L 34.453125 23.925 L 34.4 23.859375 Z M 27.753125 23.8625 L 27.69375 23.8625 L 27.734375 23.890625 L 27.828125 23.9875 L 28.04375 24.090625 L 28.04375 24.05 L 28 24.03125 Z M 34.859375 23.965625 L 34.73125 23.984375 L 34.703125 24.028125 L 34.703125 24.09375 L 34.78125 24.184375 L 34.7875 24.234375 L 34.75 24.3 L 34.68125 24.340625 L 34.659375 24.36875 L 34.609375 24.403125 L 34.515625 24.503125 L 34.346875 24.625 L 34.328125 24.690625 L 34.41875 24.653125 L 34.559375 24.53125 L 34.703125 24.45625 L 34.875 24.21875 L 34.825 24.03125 Z M 28.934375 24.203125 L 28.85 24.225 L 28.878125 24.2625 L 28.934375 24.284375 L 29.034375 24.315625 L 29.1875 24.325 L 29.23125 24.34375 L 29.2875 24.34375 L 29.359375 24.328125 L 29.278125 24.21875 L 29.21875 24.20625 L 29.159375 24.215625 L 29.1 24.23125 Z M 35.753125 24.328125 L 35.715625 24.43125 L 35.778125 24.45 L 35.9375 24.44375 L 36.05 24.45625 L 36.184375 24.546875 L 36.225 24.5 L 36.20625 24.48125 L 36.121875 24.421875 L 35.98125 24.38125 L 35.9375 24.3875 L 35.859375 24.3625 Z M 29.465625 24.35625 L 29.375 24.375 L 29.378125 24.403125 L 29.434375 24.434375 L 29.4875 24.50625 L 29.590625 24.53125 L 29.65625 24.578125 L 29.68125 24.559375 L 29.6375 24.53125 L 29.59375 24.421875 L 29.528125 24.359375 Z M 29.73125 24.534375 L 29.715625 24.5375 L 29.703125 24.609375 L 29.659375 24.671875 L 29.7 24.715625 L 29.825 24.76875 L 29.8625 24.765625 L 29.90625 24.7375 L 29.85 24.671875 L 29.84375 24.653125 L 29.75 24.61875 Z M 29.89375 24.8125 L 29.8125 24.815625 L 29.840625 24.8875 L 29.934375 24.953125 L 29.984375 24.971875 L 30.015625 24.98125 L 30.075 25.0375 L 30.125 25 L 30.153125 24.9375 L 30.16875 24.8625 L 29.996875 24.828125 Z M 37.140625 25 L 37.128125 25.046875 L 37.171875 25.078125 L 37.2 25.078125 L 37.20625 25.1125 L 37.28125 25.159375 L 37.3 25.14375 L 37.278125 25.11875 L 37.2375 25 Z M 23.528125 25.0125 L 23.41875 25.15625 L 23.409375 25.215625 L 23.546875 25.471875 L 23.503125 25.5125 L 23.44375 25.53125 L 23.375 25.5 L 23.29375 25.4375 L 23.284375 25.471875 L 23.340625 25.55625 L 23.434375 25.640625 L 23.5625 25.675 L 23.69375 25.671875 L 23.940625 25.575 L 24.059375 25.5 L 24.05 25.4375 L 23.971875 25.246875 L 23.90625 25.171875 L 23.86875 25.078125 L 23.815625 25.05625 Z M 37.390625 25.128125 L 37.34375 25.140625 L 37.3625 25.215625 L 37.5 25.215625 L 37.565625 25.265625 L 37.575 25.246875 L 37.60625 25.21875 L 37.5625 25.15625 Z M 36.7375 25.13125 L 36.73125 25.20625 L 36.734375 25.253125 L 36.78125 25.2625 L 36.91875 25.2375 L 36.925 25.225 L 36.971875 25.2125 L 36.96875 25.19375 L 36.878125 25.203125 Z M 35.921875 25.515625 L 35.8375 25.578125 L 35.85 25.653125 L 36.015625 25.590625 Z M 35.840625 25.84375 L 35.74375 25.984375 L 35.621875 26.05 L 35.5375 26.05 L 35.3875 25.99375 L 35.265625 26.003125 L 35.1875 26.09375 L 35.065625 26.121875 L 35.08125 26.15 L 35.08125 26.175 L 35.0625 26.246875 L 35.065625 26.2875 L 35.09375 26.340625 L 35.41875 26.328125 L 35.70625 26.284375 L 35.840625 26.096875 L 35.878125 26.003125 L 35.9 25.8625 Z M 18.859375 25.890625 L 18.878125 25.95 L 18.909375 26 L 18.934375 26.003125 L 18.909375 25.940625 L 18.890625 25.90625 L 18.878125 25.890625 Z M 18.846875 26.8125 L 18.765625 26.840625 L 18.64375 26.846875 L 18.58125 26.925 L 18.53125 27.06875 L 18.565625 27.215625 L 18.628125 27.171875 L 18.79375 26.95625 L 18.859375 26.846875 Z M 36.09375 27.45 L 36.03125 27.45625 L 35.965625 27.4875 L 36.034375 27.53125 L 36.0625 27.53125 L 36.10625 27.525 L 36.234375 27.565625 L 36.359375 27.590625 L 36.378125 27.55 L 36.328125 27.51875 L 36.171875 27.45 Z M 36.065625 27.6625 L 35.765625 27.69375 L 35.640625 27.721875 L 35.51875 27.7625 L 35.41875 27.825 L 35.371875 27.934375 L 35.421875 28.015625 L 35.51875 28.046875 L 35.846875 28.078125 L 36.08125 28.1875 L 36.28125 28.3 L 36.234375 28.43125 L 36.203125 28.5625 L 36.234375 28.703125 L 36.14375 28.78125 L 36.346875 29.0125 L 36.578125 29.20625 L 36.71875 29.296875 L 36.721875 29.3625 L 36.6875 29.425 L 36.6375 29.45 L 36.3875 29.45625 L 36.33125 29.503125 L 36.2875 29.5625 L 36.234375 29.596875 L 36.171875 29.609375 L 36.015625 29.58125 L 35.18125 29.496875 L 35.0625 29.4375 L 34.84375 29.425 L 34.703125 29.390625 L 34.546875 29.340625 L 34.390625 29.3125 L 34.31875 29.31875 L 34.190625 29.3625 L 34.078125 29.590625 L 34.10625 29.659375 L 34.15625 29.721875 L 34.434375 29.825 L 34.565625 29.890625 L 34.6875 29.984375 L 34.8125 30.11875 L 34.875 30.09375 L 34.890625 30.015625 L 34.984375 29.925 L 35.1125 29.875 L 35.278125 29.85625 L 35.4375 29.84375 L 35.575 29.871875 L 35.715625 29.90625 L 36.065625 29.971875 L 36.215625 29.96875 L 36.36875 29.940625 L 36.421875 29.93125 L 36.46875 29.903125 L 36.528125 29.8875 L 37.078125 29.875 L 37.153125 29.89375 L 37.21875 29.93125 L 37.33125 30.015625 L 37.4375 30.121875 L 37.5125 30.1625 L 37.559375 30.23125 L 37.578125 30.3125 L 37.578125 30.403125 L 37.609375 30.465625 L 37.6875 30.484375 L 37.75 30.528125 L 37.846875 30.640625 L 37.903125 30.625 L 37.95 30.565625 L 38.0625 30.3625 L 38.2625 30.08125 L 38.29375 30.003125 L 38.29375 29.878125 L 38.309375 29.846875 L 38.359375 29.815625 L 38.484375 29.79375 L 38.690625 29.721875 L 38.83125 29.734375 L 38.934375 29.825 L 39.034375 29.890625 L 39.40625 29.84375 L 39.45625 29.8125 L 39.55625 29.721875 L 39.609375 29.6875 L 39.7625 29.628125 L 39.91875 29.596875 L 40.075 29.60625 L 40.23125 29.63125 L 40.378125 29.625 L 40.53125 29.6 L 40.78125 29.65625 L 40.953125 29.640625 L 41.09375 29.734375 L 41.14375 29.828125 L 41.21875 29.890625 L 41.2625 29.890625 L 41.296875 29.88125 L 41.35625 29.778125 L 41.4125 29.7125 L 41.5 29.68125 L 41.5625 29.628125 L 41.66875 29.471875 L 41.690625 29.378125 L 41.640625 29.3 L 41.5625 29.246875 L 41.265625 29 L 40.996875 28.890625 L 40.83125 28.859375 L 40.671875 28.840625 L 40.528125 28.809375 L 40.378125 28.765625 L 40.24375 28.734375 L 40.096875 28.71875 L 40.096875 28.66875 L 40.121875 28.60625 L 40.23125 28.596875 L 40.471875 28.6125 L 40.546875 28.578125 L 40.58125 28.51875 L 40.46875 28.45 L 39.953125 28.484375 L 39.85 28.39375 L 39.78125 28.25625 L 39.765625 28.10625 L 39.6875 28 L 39.6125 28 L 39.471875 28.046875 L 39.390625 28.04375 L 39.253125 27.996875 L 39.09375 27.871875 L 39.034375 27.859375 L 38.84375 27.8625 L 38.78125 27.840625 L 38.65625 27.765625 L 38.596875 27.71875 L 38.45 27.684375 L 38.29375 27.715625 L 38.096875 27.76875 L 38.04375 27.76875 L 37.84375 27.70625 L 37.703125 27.70625 L 37.628125 27.73125 L 37.565625 27.765625 L 37.515625 27.840625 L 37.484375 27.91875 L 37.425 27.9375 L 37.359375 27.96875 L 37.20625 27.934375 L 36.878125 27.90625 L 36.621875 27.8125 L 36.3625 27.7 Z M 27.5 27.875 L 27.475 27.8875 L 27.453125 27.90625 L 27.346875 27.95625 L 27.39375 27.96875 L 27.453125 27.95 L 27.55 27.89375 L 27.55 27.8875 L 27.525 27.875 Z M 27.246875 27.9375 L 27.215625 27.9375 L 27.153125 27.95 L 27.128125 27.953125 L 27.090625 27.984375 L 27.078125 28.003125 L 27.11875 28.003125 L 27.20625 27.953125 L 27.25 27.95625 L 27.2625 27.953125 L 27.265625 27.95 Z M 25.5125 28.375 L 25.471875 28.3875 L 25.49375 28.5125 L 25.61875 28.51875 L 25.653125 28.515625 L 25.715625 28.48125 L 25.859375 28.475 L 25.83125 28.421875 L 25.640625 28.403125 L 25.625 28.43125 L 25.578125 28.44375 L 25.534375 28.421875 Z M 35.703125 28.91875 L 35.56875 28.934375 L 35.559375 29.0125 L 35.815625 29.14375 L 36.13125 29.253125 L 36.15625 29.1625 L 36.015625 29.05625 L 35.828125 28.965625 Z M 12.8625 29.159375 L 12.8625 29.1625 L 12.58125 29.296875 L 12.609375 29.325 L 12.75 29.296875 L 12.784375 29.25 L 12.93125 29.1875 L 12.909375 29.16875 Z M 46.671875 29.19375 L 46.5625 29.2 L 46.575 29.215625 L 46.59375 29.221875 L 46.653125 29.221875 L 46.721875 29.253125 L 46.734375 29.253125 L 46.715625 29.2125 Z M 29.871875 29.496875 L 29.80625 29.525 L 29.7375 29.565625 L 29.59375 29.59375 L 29.44375 29.590625 L 29.403125 29.621875 L 29.309375 29.71875 L 29.29375 29.796875 L 29.346875 29.890625 L 29.625 29.921875 L 29.65625 29.94375 L 29.7625 30.109375 L 29.859375 30.14375 L 29.903125 30.1875 L 30 30.328125 L 30.121875 30.35 L 30.378125 30.359375 L 30.503125 30.3875 L 30.60625 30.453125 L 30.7 30.5375 L 30.75625 30.371875 L 30.80625 30.328125 L 30.8625 30.296875 L 30.90625 30.359375 L 31.01875 30.3625 L 31.08125 30.296875 L 31.1375 30.203125 L 31.20625 30.203125 L 31.265625 30.21875 L 31.234375 30.25 L 31.3625 30.265625 L 31.41875 30.296875 L 31.54375 30.34375 L 31.675 30.34375 L 31.815625 30.328125 L 31.934375 30.28125 L 31.90625 30.20625 L 31.7625 29.971875 L 31.325 29.840625 L 31.20625 29.778125 L 31.065625 29.66875 L 31.003125 29.653125 L 30.9375 29.653125 L 30.78125 29.625 L 30.628125 29.578125 L 30.515625 29.565625 L 30.39375 29.565625 Z M 43.278125 29.496875 L 43.2125 29.503125 L 43.15625 29.528125 L 43.140625 29.609375 L 43.090625 29.659375 L 43.028125 29.7 L 43.05625 29.753125 L 43.096875 29.80625 L 43.140625 29.878125 L 43.1375 29.971875 L 43.109375 30.175 L 43.175 30.215625 L 43.3375 30.215625 L 43.403125 30.23125 L 43.475 30.2375 L 43.55625 30.23125 L 43.6375 30.1875 L 43.846875 30.2 L 43.95625 30.1875 L 44.0875 30.234375 L 44.1875 30.21875 L 44.2375 30.234375 L 44.2875 30.2375 L 44.421875 30.234375 L 44.628125 30.203125 L 44.796875 30.09375 L 44.859375 30.003125 L 44.940625 29.93125 L 45.0625 29.859375 L 45.05 29.675 L 44.89375 29.653125 L 44.74375 29.59375 L 44.503125 29.5625 L 44.48125 29.5625 L 44.50625 29.61875 L 44.46875 29.621875 L 44.434375 29.59375 L 44.403125 29.5625 L 44.359375 29.55625 L 43.58125 29.53125 Z M 46.66875 29.5 L 46.54375 29.503125 L 46.51875 29.559375 L 46.53125 29.578125 L 46.546875 29.578125 L 46.58125 29.56875 Z M 46.3625 29.59375 L 46.265625 29.596875 L 46.20625 29.640625 L 46.2375 29.65625 L 46.3375 29.653125 L 46.39375 29.60625 Z M 45.90625 29.671875 L 45.8 29.69375 L 45.934375 29.753125 L 46.025 29.746875 L 45.96875 29.6875 Z M 46.140625 29.6875 L 46.09375 29.73125 L 46.1125 29.74375 L 46.171875 29.75 L 46.253125 29.715625 L 46.140625 29.690625 Z M 48.28125 29.825 L 48.121875 29.909375 L 48.1125 29.95 L 48.3125 29.8875 L 48.3375 29.828125 Z M 45.2375 29.95625 L 45.125 29.996875 L 45.140625 30.03125 L 45.20625 30.04375 L 45.30625 30.034375 L 45.46875 30 L 45.45625 29.984375 L 45.375 29.965625 Z M 17.440625 29.96875 L 17.375 30.171875 L 17.3625 30.21875 L 17.315625 30.29375 L 17.375 30.265625 L 17.5 29.9875 L 17.4875 29.96875 Z M 42.284375 30.0125 L 42.215625 30.015625 L 42.2 30.025 L 42.1875 30.04375 L 42.2 30.0625 L 42.234375 30.078125 L 42.24375 30.090625 L 42.246875 30.09375 L 42.26875 30.09375 L 42.278125 30.090625 L 42.278125 30.078125 L 42.28125 30.075 L 42.284375 30.065625 L 42.3 30.046875 L 42.309375 30.034375 L 42.309375 30.03125 L 42.29375 30.015625 L 42.284375 30.015625 Z M 48.234375 30.01875 L 48.16875 30.05625 L 48.15625 30.08125 L 48.15625 30.090625 L 48.2 30.11875 L 48.28125 30.14375 L 48.296875 30.109375 L 48.296875 30.034375 L 48.28125 30.028125 Z M 48.46875 30.26875 L 48.465625 30.28125 L 48.471875 30.3 L 48.484375 30.31875 L 48.5 30.33125 L 48.51875 30.328125 L 48.534375 30.31875 L 48.55 30.30625 L 48.5625 30.2875 L 48.48125 30.278125 Z M 46.121875 30.4375 L 45.971875 30.465625 L 45.96875 30.559375 L 46.21875 30.55 L 46.35 30.496875 L 46.225 30.496875 Z M 49.734375 30.54375 L 49.71875 30.55 L 49.715625 30.578125 L 49.746875 30.690625 L 49.84375 30.753125 L 49.8625 30.71875 L 49.8625 30.609375 L 49.828125 30.56875 L 49.778125 30.5625 Z M 48.0125 30.621875 L 48 30.628125 L 47.996875 30.653125 L 48.0125 30.659375 L 48.025 30.65625 L 48.03125 30.640625 L 48.01875 30.625 Z M 17.53125 30.75625 L 17.525 30.8125 L 17.4875 30.8625 L 17.4375 30.909375 L 17.39375 31.046875 L 17.403125 31.09375 L 17.496875 30.91875 L 17.5625 30.84375 L 17.578125 30.784375 Z M 48.3125 30.778125 L 48.3125 30.81875 L 48.33125 30.84375 L 48.359375 30.846875 L 48.390625 30.825 L 48.35625 30.80625 L 48.34375 30.796875 L 48.340625 30.7875 Z M 48.565625 30.940625 L 48.528125 30.965625 L 48.5125 30.9875 L 48.50625 31.015625 L 48.5125 31.025 L 48.590625 31.06875 L 48.68125 31.09375 L 48.734375 31.171875 L 48.76875 31.153125 L 48.753125 31.125 L 48.715625 31.0875 L 48.66875 31.003125 Z M 48.840625 31.203125 L 48.7875 31.203125 L 48.778125 31.29375 L 48.828125 31.328125 L 48.890625 31.3 L 48.890625 31.2375 Z M 49.778125 31.24375 L 49.778125 31.246875 L 49.690625 31.33125 L 49.7 31.378125 L 49.721875 31.440625 L 49.8625 31.465625 L 49.903125 31.4125 L 49.925 31.4 L 49.9375 31.371875 L 49.9375 31.33125 L 49.909375 31.328125 L 49.875 31.28125 Z M 49.33125 31.703125 L 49.3125 31.715625 L 49.278125 31.78125 L 49.278125 31.84375 L 49.359375 31.871875 L 49.36875 31.796875 Z M 19.94375 32.08125 L 19.890625 32.125 L 19.84375 32.190625 L 19.859375 32.225 L 19.953125 32.153125 L 19.9875 32.11875 L 20 32.090625 L 19.94375 32.0875 Z M 50.20625 32.09375 L 50.15625 32.128125 L 50.1375 32.1875 L 50.171875 32.28125 L 50.121875 32.359375 L 50.14375 32.453125 L 50.2375 32.465625 L 50.3875 32.45 L 50.578125 32.4125 L 50.35 32.278125 L 50.3 32.215625 L 50.284375 32.140625 Z M 19.375 32.18125 L 19.25 32.215625 L 19.10625 32.28125 L 19.0125 32.35625 L 19.075 32.359375 L 19.275 32.25625 L 19.48125 32.190625 Z M 49.8625 32.284375 L 49.840625 32.309375 L 49.809375 32.359375 L 49.846875 32.6625 L 49.909375 32.775 L 49.95625 32.79375 L 50.0625 32.734375 L 50.09375 32.684375 L 50.078125 32.453125 L 50.109375 32.39375 L 50.05 32.371875 L 49.996875 32.328125 L 49.8625 32.2875 Z M 50.484375 32.734375 L 50.45 32.75 L 50.39375 32.8 L 50.40625 32.875 L 50.4375 32.890625 L 50.503125 32.8875 L 50.5375 32.84375 L 50.528125 32.796875 Z M 50.221875 33.2125 L 50.20625 33.25 L 50.190625 33.346875 L 50.278125 33.5125 L 50.328125 33.73125 L 50.440625 33.703125 L 50.48125 33.54375 L 50.45 33.346875 L 50.39375 33.275 Z M 50.63125 34.175 L 50.565625 34.184375 L 50.528125 34.2125 L 50.515625 34.265625 L 50.61875 34.4625 L 50.659375 34.5 L 50.778125 34.528125 L 50.68125 34.61875 L 50.684375 34.640625 L 50.7125 34.69375 L 50.91875 34.6875 L 50.965625 34.75 L 50.996875 34.734375 L 51.003125 34.659375 L 50.953125 34.5125 L 50.925 34.46875 L 50.875 34.41875 L 50.890625 34.35625 L 50.878125 34.328125 L 50.846875 34.328125 L 50.75625 34.2375 Z M 50.90625 35.171875 L 50.859375 35.2 L 50.796875 35.278125 L 50.715625 35.39375 L 50.703125 35.45625 L 50.715625 35.5625 L 50.85 35.64375 L 50.921875 35.515625 L 50.934375 35.278125 Z M 50.621875 36.1 L 50.5625 36.10625 L 50.515625 36.1375 L 50.45625 36.190625 L 50.45 36.2875 L 50.5375 36.375 L 50.578125 36.35625 L 50.625 36.296875 L 50.6375 36.184375 Z M 52.534375 36.153125 L 52.46875 36.171875 L 52.471875 36.3625 L 52.515625 36.421875 L 52.625 36.471875 L 52.659375 36.453125 L 52.7375 36.359375 L 52.66875 36.309375 Z M 50.54375 36.484375 L 50.528125 36.5 L 50.49375 36.51875 L 50.484375 36.53125 L 50.484375 36.534375 L 50.496875 36.546875 L 50.496875 36.559375 L 50.46875 36.5625 L 50.45 36.559375 L 50.45 36.565625 L 50.471875 36.565625 L 50.484375 36.575 L 50.4875 36.58125 L 50.5 36.575 L 50.4875 36.575 L 50.5125 36.5625 L 50.53125 36.51875 L 50.55 36.503125 L 50.54375 36.496875 Z M 50.39375 36.8875 L 50.3875 36.890625 L 50.375 36.89375 L 50.375 36.921875 L 50.371875 36.925 L 50.35625 36.93125 L 50.35625 36.934375 L 50.3625 36.9375 L 50.375 36.9375 L 50.3875 36.93125 L 50.3875 36.921875 L 50.39375 36.909375 L 50.403125 36.903125 L 50.4 36.890625 Z M 39.590625 37.0375 L 39.565625 37.0625 L 39.55 37.125 L 39.625 37.184375 L 39.703125 37.2625 L 39.7625 37.28125 L 39.75625 37.246875 L 39.74375 37.20625 L 39.66875 37.096875 Z M 40.675 37.33125 L 40.684375 37.4375 L 40.878125 37.6375 L 41.11875 37.753125 L 41.184375 37.7375 L 41.0875 37.6125 L 40.85625 37.51875 L 40.778125 37.38125 L 40.725 37.34375 Z M 41.65625 37.434375 L 41.653125 37.4875 L 41.68125 37.528125 L 41.73125 37.55 L 41.753125 37.596875 L 41.7625 37.70625 L 41.796875 37.76875 L 41.859375 37.628125 L 41.840625 37.51875 Z M 49.971875 37.515625 L 49.90625 37.578125 L 49.859375 37.675 L 49.85625 37.753125 L 49.825 37.8 L 49.90625 37.796875 L 50.015625 37.746875 L 50.0375 37.53125 Z M 51.378125 38.659375 L 51.33125 38.659375 L 51.153125 38.71875 L 51.03125 38.809375 L 51.028125 38.85625 L 51.09375 38.84375 L 51.35625 38.734375 Z M 47.203125 38.859375 L 47.0625 38.984375 L 47.034375 39.0625 L 46.934375 39.0625 L 46.84375 39.015625 L 46.809375 38.95625 L 46.7625 38.96875 L 46.640625 39 L 46.575 39.090625 L 46.621875 39.1125 L 46.796875 39.140625 L 46.875 39.121875 L 46.95 39.190625 L 47.003125 39.215625 L 47.078125 39.21875 L 47.171875 39.20625 L 47.284375 39.096875 L 47.296875 39.065625 L 47.25625 38.90625 Z M 45.359375 39.096875 L 45.315625 39.14375 L 45.378125 39.1875 L 45.5 39.215625 L 45.565625 39.1875 L 45.55 39.15625 L 45.45625 39.096875 Z M 50.890625 39.265625 L 50.690625 39.28125 L 50.578125 39.3125 L 50.33125 39.325 L 50.215625 39.3625 L 50.059375 39.3875 L 49.984375 39.421875 L 50.003125 39.44375 L 50.121875 39.4875 L 50.171875 39.51875 L 50.2 39.5625 L 50.215625 39.64375 L 50.171875 39.984375 L 50.1375 40 L 50.003125 40.015625 L 49.96875 40.078125 L 49.66875 40.234375 L 49.83125 40.215625 L 50.05 40.2375 L 50.578125 40.221875 L 50.778125 40.153125 L 50.784375 40.109375 L 50.79375 39.99375 L 50.828125 39.91875 L 50.76875 39.8375 L 50.746875 39.71875 L 50.765625 39.621875 L 50.75 39.48125 L 50.796875 39.421875 Z M 24.409375 41.028125 L 24.35625 41.046875 L 24.453125 41.15 L 24.465625 41.090625 L 24.434375 41.03125 Z M 51.0625 41.29375 L 51.0125 41.309375 L 50.984375 41.328125 L 50.90625 41.34375 L 50.8625 41.403125 L 50.8625 41.434375 L 51.015625 41.390625 L 51.05 41.34375 L 51.121875 41.3125 L 51.090625 41.296875 Z M 50.89375 41.475 L 50.859375 41.496875 L 50.73125 41.596875 L 50.703125 41.628125 L 50.71875 41.753125 L 50.79375 41.73125 L 50.89375 41.690625 L 50.965625 41.628125 L 50.98125 41.56875 L 50.91875 41.528125 L 50.921875 41.5 Z M 28.621875 42.234375 L 28.578125 42.2375 L 28.51875 42.265625 L 28.528125 42.375 L 28.515625 42.403125 L 28.575 42.51875 L 28.596875 42.46875 L 28.65625 42.434375 L 28.671875 42.375 L 28.653125 42.25 Z M 28.35625 42.440625 L 28.3125 42.496875 L 28.3375 42.546875 L 28.390625 42.49375 L 28.371875 42.440625 Z M 25.0625 43.278125 L 24.984375 43.3125 L 24.934375 43.421875 L 24.93125 43.453125 L 24.9375 43.484375 L 25.0375 43.590625 L 25.175 43.640625 L 25.246875 43.6375 L 25.234375 43.578125 L 25.13125 43.51875 L 25.1125 43.45 L 25.159375 43.403125 L 25.090625 43.28125 L 25.0625 43.28125 Z M 29.49375 49.421875 L 29.453125 49.46875 L 29.471875 49.53125 L 29.5375 49.578125 L 29.575 49.55 L 29.565625 49.471875 L 29.54375 49.4375 Z M 28.596875 51.003125 L 28.565625 51.015625 L 28.484375 51.090625 L 28.515625 51.14375 L 28.5875 51.1375 Z M 28.596875 51.003125 " transform="matrix(1.25,0,0,1.25,0,0)"/>
</g>
</svg>
