<?xml version="1.0" encoding="UTF-8"?>
<!-- Created by grConvert v0.1-0 -->
<svg xmlns="http://www.w3.org/2000/svg" xmlns:xlink="http://www.w3.org/1999/xlink" width="56pt" height="56pt" viewBox="0 0 56 56" version="1.1">
<g id="surface72">
<path style=" stroke:none;fill-rule:nonzero;fill:rgb(0%,16.470588%,56.078431%);fill-opacity:1;" d="M 28.125 0.0351562 C 12.59375 0.0351562 0 12.628906 0 28.160156 C 0 43.695312 12.59375 56.285156 28.125 56.285156 C 43.65625 56.285156 56.25 43.695312 56.25 28.160156 C 56.25 12.628906 43.65625 0.0351562 28.125 0.0351562 Z M 28.125 0.0351562 "/>
<path style=" stroke:none;fill-rule:nonzero;fill:rgb(100%,100%,100%);fill-opacity:1;" d="M 5.859375 10.984375 C 3.300781 14.296875 1.464844 18.191406 0.585938 22.4375 L 55.664062 22.4375 C 54.785156 18.191406 52.949219 14.296875 50.390625 10.984375 Z M 0.585938 33.882812 C 1.460938 38.128906 3.300781 42.023438 5.859375 45.332031 L 50.390625 45.332031 C 52.949219 42.023438 54.789062 38.128906 55.667969 33.882812 Z M 0.585938 33.882812 "/>
<path style=" stroke:none;fill-rule:nonzero;fill:rgb(81.176471%,7.843137%,16.862745%);fill-opacity:1;" d="M 10.261719 6.4375 C 3.996094 11.597656 0 19.410156 0 28.160156 C 0 36.910156 3.992188 44.726562 10.257812 49.882812 L 47.878906 28.160156 Z M 10.261719 6.4375 "/>
<path style=" stroke:none;fill-rule:nonzero;fill:rgb(100%,100%,100%);fill-opacity:1;" d="M 14.839844 19.574219 L 19.898438 35.097656 L 6.660156 25.511719 L 23.003906 25.511719 L 9.765625 35.097656 "/>
</g>
</svg>
