<?xml version="1.0" encoding="UTF-8"?>
<!-- Created by grConvert v0.1-0 -->
<svg xmlns="http://www.w3.org/2000/svg" xmlns:xlink="http://www.w3.org/1999/xlink" width="56pt" height="56pt" viewBox="0 0 56 56" version="1.1">
<g id="surface76">
<path style=" stroke:none;fill-rule:nonzero;fill:rgb(0%,16.862745%,49.803922%);fill-opacity:1;" d="M 28.125 0.0351562 C 12.59375 0.0351562 0 12.628906 0 28.160156 C 0 43.695312 12.59375 56.285156 28.125 56.285156 C 43.65625 56.285156 56.25 43.695312 56.25 28.160156 C 56.25 12.628906 43.65625 0.0351562 28.125 0.0351562 Z M 28.125 0.0351562 "/>
<path style=" stroke:none;fill-rule:nonzero;fill:rgb(100%,100%,100%);fill-opacity:1;" d="M 23.640625 11.800781 L 21.621094 18.023438 L 24.730469 19.035156 Z M 23.640625 11.800781 "/>
<path style=" stroke:none;fill-rule:nonzero;fill:rgb(100%,100%,100%);fill-opacity:1;" d="M 23.640625 11.800781 L 25.664062 18.023438 L 22.550781 19.035156 Z M 23.640625 11.800781 "/>
<path style=" stroke:none;fill-rule:nonzero;fill:rgb(100%,100%,100%);fill-opacity:1;" d="M 29.863281 16.324219 L 23.320312 16.324219 L 23.320312 19.59375 Z M 29.863281 16.324219 "/>
<path style=" stroke:none;fill-rule:nonzero;fill:rgb(100%,100%,100%);fill-opacity:1;" d="M 29.863281 16.324219 L 24.570312 20.167969 L 22.648438 17.523438 Z M 29.863281 16.324219 "/>
<path style=" stroke:none;fill-rule:nonzero;fill:rgb(100%,100%,100%);fill-opacity:1;" d="M 17.417969 16.324219 L 22.710938 20.167969 L 24.636719 17.523438 Z M 17.417969 16.324219 "/>
<path style=" stroke:none;fill-rule:nonzero;fill:rgb(100%,100%,100%);fill-opacity:1;" d="M 17.417969 16.324219 L 23.960938 16.324219 L 23.960938 19.59375 Z M 17.417969 16.324219 "/>
<path style=" stroke:none;fill-rule:nonzero;fill:rgb(100%,100%,100%);fill-opacity:1;" d="M 27.488281 23.636719 L 25.464844 17.414062 L 22.355469 18.425781 Z M 27.488281 23.636719 "/>
<path style=" stroke:none;fill-rule:nonzero;fill:rgb(100%,100%,100%);fill-opacity:1;" d="M 27.488281 23.636719 L 22.195312 19.792969 L 24.117188 17.144531 Z M 27.488281 23.636719 "/>
<path style=" stroke:none;fill-rule:nonzero;fill:rgb(100%,100%,100%);fill-opacity:1;" d="M 19.796875 23.636719 L 25.089844 19.792969 L 23.167969 17.144531 Z M 19.796875 23.636719 "/>
<path style=" stroke:none;fill-rule:nonzero;fill:rgb(100%,100%,100%);fill-opacity:1;" d="M 19.796875 23.636719 L 21.816406 17.414062 L 24.929688 18.425781 Z M 19.796875 23.636719 "/>
<path style=" stroke:none;fill-rule:nonzero;fill:rgb(97.647059%,90.980392%,7.843137%);fill-opacity:1;" d="M 0.976562 35.519531 C 1.6875 38.144531 2.769531 40.621094 4.160156 42.878906 L 52.089844 42.878906 C 53.480469 40.621094 54.5625 38.144531 55.269531 35.519531 Z M 0.976562 35.519531 "/>
<path style=" stroke:none;fill-rule:nonzero;fill:rgb(100%,100%,100%);fill-opacity:1;" d="M 14.984375 4.78125 L 13.46875 9.449219 L 15.800781 10.207031 Z M 14.984375 4.78125 "/>
<path style=" stroke:none;fill-rule:nonzero;fill:rgb(100%,100%,100%);fill-opacity:1;" d="M 14.984375 4.78125 L 16.5 9.449219 L 14.167969 10.207031 Z M 14.984375 4.78125 "/>
<path style=" stroke:none;fill-rule:nonzero;fill:rgb(100%,100%,100%);fill-opacity:1;" d="M 19.652344 8.171875 L 14.746094 8.171875 L 14.746094 10.625 Z M 19.652344 8.171875 "/>
<path style=" stroke:none;fill-rule:nonzero;fill:rgb(100%,100%,100%);fill-opacity:1;" d="M 19.652344 8.171875 L 15.679688 11.054688 L 14.238281 9.070312 Z M 19.652344 8.171875 "/>
<path style=" stroke:none;fill-rule:nonzero;fill:rgb(100%,100%,100%);fill-opacity:1;" d="M 10.316406 8.171875 L 14.289062 11.054688 L 15.730469 9.070312 Z M 10.316406 8.171875 "/>
<path style=" stroke:none;fill-rule:nonzero;fill:rgb(100%,100%,100%);fill-opacity:1;" d="M 10.316406 8.171875 L 15.226562 8.171875 L 15.226562 10.625 Z M 10.316406 8.171875 "/>
<path style=" stroke:none;fill-rule:nonzero;fill:rgb(100%,100%,100%);fill-opacity:1;" d="M 17.867188 13.65625 L 16.351562 8.992188 L 14.019531 9.75 Z M 17.867188 13.65625 "/>
<path style=" stroke:none;fill-rule:nonzero;fill:rgb(100%,100%,100%);fill-opacity:1;" d="M 17.867188 13.65625 L 13.898438 10.773438 L 15.339844 8.789062 Z M 17.867188 13.65625 "/>
<path style=" stroke:none;fill-rule:nonzero;fill:rgb(100%,100%,100%);fill-opacity:1;" d="M 12.101562 13.65625 L 16.070312 10.773438 L 14.628906 8.789062 Z M 12.101562 13.65625 "/>
<path style=" stroke:none;fill-rule:nonzero;fill:rgb(100%,100%,100%);fill-opacity:1;" d="M 12.101562 13.65625 L 13.617188 8.992188 L 15.949219 9.75 Z M 12.101562 13.65625 "/>
</g>
</svg>
