<?xml version="1.0" encoding="UTF-8"?>
<!-- Created by grConvert v0.1-0 -->
<svg xmlns="http://www.w3.org/2000/svg" xmlns:xlink="http://www.w3.org/1999/xlink" width="56pt" height="56pt" viewBox="0 0 56 56" version="1.1">
<g id="surface84">
<path style=" stroke:none;fill-rule:nonzero;fill:rgb(0%,41.960784%,24.705882%);fill-opacity:1;" d="M 28.125 0.0351562 C 12.59375 0.0351562 0 12.628906 0 28.160156 C 0 43.695312 12.59375 56.285156 28.125 56.285156 C 43.65625 56.285156 56.25 43.695312 56.25 28.160156 C 56.25 12.628906 43.65625 0.0351562 28.125 0.0351562 Z M 28.125 0.0351562 "/>
<path style=" stroke:none;fill-rule:nonzero;fill:rgb(98.823529%,81.960784%,8.627451%);fill-opacity:1;" d="M 19.328125 1.445312 C 16.660156 2.324219 14.171875 3.589844 11.921875 5.179688 L 11.921875 51.140625 C 14.171875 52.730469 16.660156 53.996094 19.328125 54.875 Z M 19.328125 1.445312 "/>
<path style=" stroke:none;fill-rule:nonzero;fill:rgb(98.823529%,81.960784%,8.627451%);fill-opacity:1;" d="M 0.992188 20.75 C 0.347656 23.113281 0 25.59375 0 28.160156 L 56.25 28.160156 C 56.25 25.59375 55.902344 23.113281 55.257812 20.75 Z M 0.992188 20.75 "/>
<path style=" stroke:none;fill-rule:nonzero;fill:rgb(100%,100%,100%);fill-opacity:1;" d="M 26.734375 0.0703125 C 24.160156 0.195312 21.675781 0.671875 19.328125 1.445312 L 19.328125 54.875 C 21.675781 55.644531 24.160156 56.125 26.734375 56.25 Z M 26.734375 0.0703125 "/>
<path style=" stroke:none;fill-rule:nonzero;fill:rgb(100%,100%,100%);fill-opacity:1;" d="M 0 28.160156 C 0 30.726562 0.347656 33.207031 0.992188 35.566406 L 55.257812 35.566406 C 55.902344 33.207031 56.25 30.726562 56.25 28.160156 Z M 0 28.160156 "/>
<path style=" stroke:none;fill-rule:nonzero;fill:rgb(0%,0%,0%);fill-opacity:1;" d="M 21.796875 1.398438 C 20.082031 1.804688 18.433594 2.367188 16.859375 3.074219 L 16.859375 53.246094 C 18.433594 53.953125 20.082031 54.515625 21.796875 54.917969 Z M 21.796875 1.398438 "/>
<path style=" stroke:none;fill-rule:nonzero;fill:rgb(0%,0%,0%);fill-opacity:1;" d="M 0.113281 25.6875 C 0.0429688 26.503906 0 27.328125 0 28.160156 C 0 28.992188 0.0429688 29.8125 0.113281 30.628906 L 56.136719 30.628906 C 56.207031 29.8125 56.25 28.992188 56.25 28.160156 C 56.25 27.328125 56.207031 26.503906 56.136719 25.6875 Z M 0.113281 25.6875 "/>
<path style=" stroke:none;fill-rule:nonzero;fill:rgb(83.137255%,10.980392%,18.823529%);fill-opacity:1;" d="M 34.140625 28.160156 C 34.140625 36.339844 27.507812 42.972656 19.328125 42.972656 C 11.148438 42.972656 4.515625 36.339844 4.515625 28.160156 C 4.515625 19.976562 11.148438 13.347656 19.328125 13.347656 C 27.507812 13.347656 34.140625 19.976562 34.140625 28.160156 Z M 34.140625 28.160156 "/>
<path style="fill-rule:nonzero;fill:rgb(0%,41.960784%,24.705882%);fill-opacity:1;stroke-width:1;stroke-linecap:butt;stroke-linejoin:miter;stroke:rgb(0%,0%,0%);stroke-opacity:1;stroke-miterlimit:4;" d="M -4.824446 -118.418241 L 0.00127842 -132.143866 L 4.352341 -118.616017 L 19.027288 -118.418241 L 7.43764 -109.557895 L 12.69847 -94.526952 L 0.00127842 -103.782849 L -12.458583 -94.962058 L -7.632859 -109.557895 L -19.024732 -118.18091 Z M -4.824446 -118.418241 " transform="matrix(0.0987546,0,0,0.0987546,19.327999,28.159191)"/>
<path style="fill-rule:nonzero;fill:rgb(0%,41.960784%,24.705882%);fill-opacity:1;stroke-width:1;stroke-linecap:butt;stroke-linejoin:miter;stroke:rgb(0%,0%,0%);stroke-opacity:1;stroke-miterlimit:4;" d="M -4.827002 -118.398229 L -0.00127842 -132.123854 L 4.389339 -118.63556 L 19.024732 -118.398229 L 7.435083 -109.577439 L 12.695913 -94.50694 L -0.00127842 -103.802392 L -12.461139 -94.942046 L -7.635416 -109.577439 L -19.027288 -118.200454 Z M -4.827002 -118.398229 " transform="matrix(-0.0987546,0,0,-0.0987546,19.327999,28.159191)"/>
<path style="fill-rule:nonzero;fill:rgb(0%,41.960784%,24.705882%);fill-opacity:1;stroke-width:1;stroke-linecap:butt;stroke-linejoin:miter;stroke:rgb(0%,0%,0%);stroke-opacity:1;stroke-miterlimit:4;" d="M -4.825243 -118.420847 L -0.0202453 -132.130479 L 4.355891 -118.63748 L 19.044847 -118.406535 L 7.422566 -109.571311 L 12.684944 -94.522027 L -0.00761568 -103.781825 L -12.452909 -94.935362 L -7.641649 -109.578508 L -19.022949 -118.177529 Z M -4.825243 -118.420847 " transform="matrix(0.0798942,0.0580465,-0.0580465,0.0798942,19.327999,28.159191)"/>
<path style="fill-rule:nonzero;fill:rgb(0%,41.960784%,24.705882%);fill-opacity:1;stroke-width:1;stroke-linecap:butt;stroke-linejoin:miter;stroke:rgb(0%,0%,0%);stroke-opacity:1;stroke-miterlimit:4;" d="M -4.815549 -118.403154 L -0.0105512 -132.112787 L 4.365585 -118.619787 L 19.031291 -118.420843 L 7.43226 -109.553618 L 12.694638 -94.504335 L -0.0211715 -103.796133 L -12.466465 -94.94967 L -7.631955 -109.560815 L -19.036504 -118.191837 Z M -4.815549 -118.403154 " transform="matrix(-0.0798942,-0.0580465,0.0580465,-0.0798942,19.327999,28.159191)"/>
<path style="fill-rule:nonzero;fill:rgb(0%,41.960784%,24.705882%);fill-opacity:1;stroke-width:1;stroke-linecap:butt;stroke-linejoin:miter;stroke:rgb(0%,0%,0%);stroke-opacity:1;stroke-miterlimit:4;" d="M -4.816871 -118.39474 L 0.0198403 -132.128578 L 4.36291 -118.614534 L 19.024641 -118.425626 L 7.408766 -109.556277 L 12.66419 -94.498069 L 0.00967145 -103.80861 L -12.469545 -94.970234 L -7.651704 -109.542017 L -19.025273 -118.186808 Z M -4.816871 -118.39474 " transform="matrix(0.0305169,0.0939212,-0.0939212,0.0305169,19.327999,28.159191)"/>
<path style="fill-rule:nonzero;fill:rgb(0%,41.960784%,24.705882%);fill-opacity:1;stroke-width:1;stroke-linecap:butt;stroke-linejoin:miter;stroke:rgb(0%,0%,0%);stroke-opacity:1;stroke-miterlimit:4;" d="M -4.798628 -118.386125 L 0.000463276 -132.132186 L 4.381152 -118.605918 L 19.042883 -118.417011 L 7.427008 -109.547662 L 12.682433 -94.489453 L -0.00970552 -103.812218 L -12.451303 -94.961618 L -7.658858 -109.583244 L -19.007031 -118.178192 Z M -4.798628 -118.386125 " transform="matrix(-0.0305169,-0.0939212,0.0939212,-0.0305169,19.327999,28.159191)"/>
<path style="fill-rule:nonzero;fill:rgb(0%,41.960784%,24.705882%);fill-opacity:1;stroke-width:1;stroke-linecap:butt;stroke-linejoin:miter;stroke:rgb(0%,0%,0%);stroke-opacity:1;stroke-miterlimit:4;" d="M -4.821149 -118.424052 L -0.00125338 -132.134618 L 4.386876 -118.629343 L 19.020363 -118.393166 L 7.42013 -109.549955 L 12.684652 -94.499447 L 0.00891542 -103.814649 L -12.454659 -94.940466 L -7.64034 -109.564216 L -19.007953 -118.181504 Z M -4.821149 -118.424052 " transform="matrix(-0.0305169,0.0939212,-0.0939212,-0.0305169,19.327999,28.159191)"/>
<path style="fill-rule:nonzero;fill:rgb(0%,41.960784%,24.705882%);fill-opacity:1;stroke-width:1;stroke-linecap:butt;stroke-linejoin:miter;stroke:rgb(0%,0%,0%);stroke-opacity:1;stroke-miterlimit:4;" d="M -4.801326 -118.427804 L -0.0190501 -132.126147 L 4.369079 -118.620872 L 19.040185 -118.396918 L 7.439952 -109.553708 L 12.666856 -94.490976 L -0.00888135 -103.806178 L -12.472456 -94.931995 L -7.658137 -109.555745 L -19.02575 -118.173033 Z M -4.801326 -118.427804 " transform="matrix(0.0305169,-0.0939212,0.0939212,0.0305169,19.327999,28.159191)"/>
<path style="fill-rule:nonzero;fill:rgb(0%,41.960784%,24.705882%);fill-opacity:1;stroke-width:1;stroke-linecap:butt;stroke-linejoin:miter;stroke:rgb(0%,0%,0%);stroke-opacity:1;stroke-miterlimit:4;" d="M -4.815407 -118.408781 L 0.00848272 -132.11429 L 4.382971 -118.619654 L 18.999432 -118.414343 L 7.432133 -109.559315 L 12.676905 -94.503419 L 0.019103 -103.797636 L -12.458459 -94.968347 L -7.632081 -109.552118 L -19.021606 -118.169342 Z M -4.815407 -118.408781 " transform="matrix(-0.0798942,0.0580465,-0.0580465,-0.0798942,19.327999,28.159191)"/>
<path style="fill-rule:nonzero;fill:rgb(0%,41.960784%,24.705882%);fill-opacity:1;stroke-width:1;stroke-linecap:butt;stroke-linejoin:miter;stroke:rgb(0%,0%,0%);stroke-opacity:1;stroke-miterlimit:4;" d="M -4.801576 -118.423468 L 0.0223138 -132.128977 L 4.396803 -118.634341 L 19.013264 -118.42903 L 7.422715 -109.542001 L 12.690736 -94.518106 L 0.0096842 -103.780322 L -12.467878 -94.951033 L -7.673501 -109.558054 L -19.007775 -118.184029 Z M -4.801576 -118.423468 " transform="matrix(0.0798942,-0.0580465,0.0580465,0.0798942,19.327999,28.159191)"/>
<path style="fill-rule:nonzero;fill:rgb(0%,41.960784%,24.705882%);fill-opacity:1;stroke-width:0.650729;stroke-linecap:butt;stroke-linejoin:miter;stroke:rgb(0%,0%,0%);stroke-opacity:1;stroke-miterlimit:4;" d="M 29.469839 38.734229 C 28.718292 53.171846 33.860456 70.773871 23.694792 83.747949 C 11.195376 71.683639 14.003789 51.787417 11.353596 36.202701 C 12.382029 23.189069 7.754081 7.129692 17.405529 -4.420401 C 29.113843 5.587043 26.780091 25.44371 29.469839 38.734229 Z M 29.469839 38.734229 " transform="matrix(0.0987546,0,0,0.0987546,19.327999,28.159191)"/>
<path style="fill-rule:nonzero;fill:rgb(0%,41.960784%,24.705882%);fill-opacity:1;stroke-width:0.669228;stroke-linecap:butt;stroke-linejoin:miter;stroke:rgb(0%,0%,0%);stroke-opacity:1;stroke-miterlimit:4;" d="M 38.804846 38.615563 C 37.934633 53.05318 43.314129 70.615651 32.515583 83.668839 C 20.055721 73.028513 22.824579 54.635385 19.937056 40.553764 C 20.807269 26.116147 15.388218 8.553676 26.186764 -4.499511 C 38.52796 5.428822 35.996433 25.28549 38.804846 38.615563 Z M 38.804846 38.615563 " transform="matrix(0.0987546,0,0,0.0987546,19.327999,28.159191)"/>
<path style="fill-rule:nonzero;fill:rgb(0%,41.960784%,24.705882%);fill-opacity:1;stroke-width:0.629326;stroke-linecap:butt;stroke-linejoin:miter;stroke:rgb(0%,0%,0%);stroke-opacity:1;stroke-miterlimit:4;" d="M 32.752913 41.147091 C 32.317807 57.048247 36.98531 76.588473 28.599626 90.670094 C 17.80108 77.02358 19.857946 55.110046 17.365974 37.864016 C 17.998855 23.545065 13.806013 5.666153 21.796146 -6.793708 C 31.882701 4.55861 30.260941 26.393033 32.752913 41.147091 Z M 32.752913 41.147091 " transform="matrix(0.0987546,0,0,0.0987546,19.327999,28.159191)"/>
<path style="fill-rule:nonzero;fill:rgb(61.176471%,29.019608%,0%);fill-opacity:1;stroke-width:0.6573;stroke-linecap:butt;stroke-linejoin:miter;stroke:rgb(0%,0%,0%);stroke-opacity:1;stroke-miterlimit:4;" d="M -44.22134 62.546408 C -37.536525 62.941959 -36.824533 51.668751 -28.91351 55.307822 C -22.663802 56.257144 -25.709546 66.501919 -17.917188 63.2584 C 0.55505 62.823293 19.066844 61.63664 37.499527 62.744183 C 44.223896 64.286833 41.019932 75.164489 34.058232 72.553852 C 10.878935 73.62184 -12.379472 74.096501 -35.558769 72.988958 C -40.503159 72.791182 -42.204029 66.185478 -44.22134 62.546408 Z M -44.22134 62.546408 " transform="matrix(0.0987546,0,0,0.0987546,19.327999,28.159191)"/>
<path style="fill-rule:nonzero;fill:rgb(98.823529%,81.960784%,8.627451%);fill-opacity:1;stroke-width:0.6326;stroke-linecap:butt;stroke-linejoin:miter;stroke:rgb(0%,0%,0%);stroke-opacity:1;stroke-miterlimit:4;" d="M -3.360906 68.202789 C -4.112453 73.384509 10.364718 74.768938 2.809692 79.199111 C -4.70578 79.475997 -12.616803 70.457431 -7.791079 63.377065 C -5.971544 59.065558 5.380774 53.448731 4.866557 60.885093 C 2.611916 63.891282 -3.400461 63.377065 -3.360906 68.202789 Z M -3.360906 68.202789 " transform="matrix(0.0987546,0,0,0.0987546,19.327999,28.159191)"/>
<path style="fill-rule:nonzero;fill:rgb(98.823529%,81.960784%,8.627451%);fill-opacity:1;stroke-width:0.6326;stroke-linecap:butt;stroke-linejoin:miter;stroke:rgb(0%,0%,0%);stroke-opacity:1;stroke-miterlimit:4;" d="M 1.662593 68.242344 C 0.911046 73.463619 15.427773 74.848048 7.833191 79.278221 C 0.357274 79.515552 -7.593304 70.536541 -2.728024 63.456175 C -0.908489 59.144668 10.404274 53.527842 9.929612 60.964203 C 7.674971 63.970392 1.662593 63.456175 1.662593 68.242344 Z M 1.662593 68.242344 " transform="matrix(0.0987546,0,0,0.0987546,19.327999,28.159191)"/>
<path style="fill-rule:nonzero;fill:rgb(98.823529%,81.960784%,8.627451%);fill-opacity:1;stroke-width:0.6326;stroke-linecap:butt;stroke-linejoin:miter;stroke:rgb(0%,0%,0%);stroke-opacity:1;stroke-miterlimit:4;" d="M 7.081644 68.044569 C 6.330097 73.265844 20.807269 74.650273 13.252242 79.080445 C 5.73677 79.317776 -2.174253 70.338765 2.691026 63.2584 C 4.510561 58.946892 15.823324 53.330066 15.348663 60.766427 C 13.094021 63.772616 7.042089 63.2584 7.081644 68.044569 Z M 7.081644 68.044569 " transform="matrix(0.0987546,0,0,0.0987546,19.327999,28.159191)"/>
<path style="fill-rule:nonzero;fill:rgb(98.823529%,81.960784%,8.627451%);fill-opacity:1;stroke-width:0.6326;stroke-linecap:butt;stroke-linejoin:miter;stroke:rgb(0%,0%,0%);stroke-opacity:1;stroke-miterlimit:4;" d="M 12.105143 68.123679 C 11.353596 73.344954 25.870323 74.689828 18.275741 79.159556 C 10.799825 79.396886 2.849247 70.37832 7.714526 63.33751 C 9.534061 58.986447 20.846824 53.369621 20.372162 60.845538 C 18.117521 63.812171 12.105143 63.33751 12.105143 68.123679 Z M 12.105143 68.123679 " transform="matrix(0.0987546,0,0,0.0987546,19.327999,28.159191)"/>
<path style="fill-rule:nonzero;fill:rgb(61.176471%,29.019608%,0%);fill-opacity:1;stroke-width:0.56549;stroke-linecap:butt;stroke-linejoin:miter;stroke:rgb(0%,0%,0%);stroke-opacity:1;stroke-miterlimit:4;" d="M 41.019932 67.451242 C 41.099042 72.830737 33.108909 74.136056 31.56626 69.112557 C 29.667614 64.445053 35.996433 60.252211 39.358617 63.653951 C 40.426605 64.563718 41.059487 66.027258 41.019932 67.451242 Z M 41.019932 67.451242 " transform="matrix(0.0987546,0,0,0.0987546,19.327999,28.159191)"/>
<path style="fill-rule:nonzero;fill:rgb(0%,41.960784%,24.705882%);fill-opacity:1;stroke-width:0.721468;stroke-linecap:butt;stroke-linejoin:miter;stroke:rgb(0%,0%,0%);stroke-opacity:1;stroke-miterlimit:4;" d="M 11.195376 50.165657 C 12.223809 56.61314 8.663848 63.33751 5.262109 59.065558 C 1.029711 54.59583 1.662593 40.158213 6.725648 41.344866 C 8.980289 41.977748 10.76027 46.09148 11.195376 50.165657 Z M 11.195376 50.165657 " transform="matrix(0.0987546,0,0,0.0987546,19.327999,28.159191)"/>
<path style="fill-rule:nonzero;fill:rgb(0%,41.960784%,24.705882%);fill-opacity:1;stroke-width:0.721468;stroke-linecap:butt;stroke-linejoin:miter;stroke:rgb(0%,0%,0%);stroke-opacity:1;stroke-miterlimit:4;" d="M 3.838125 49.57233 C 4.866557 56.059369 1.306597 62.783738 -2.095143 58.472231 C -6.32754 54.042058 -5.694658 39.604441 -0.631603 40.75154 C 1.623038 41.384421 3.403018 45.537708 3.838125 49.57233 Z M 3.838125 49.57233 " transform="matrix(0.0987546,0,0,0.0987546,19.327999,28.159191)"/>
<path style="fill-rule:nonzero;fill:rgb(0%,41.960784%,24.705882%);fill-opacity:1;stroke-width:0.721467;stroke-linecap:butt;stroke-linejoin:miter;stroke:rgb(0%,0%,0%);stroke-opacity:1;stroke-miterlimit:4;" d="M -1.462261 40.158213 C -0.394273 46.645252 -3.954233 53.369621 -7.355973 49.058114 C -11.58837 44.627941 -10.955488 30.190324 -5.892434 31.337422 C -3.637792 31.970304 -1.857812 36.123591 -1.462261 40.158213 Z M -1.462261 40.158213 " transform="matrix(0.0987546,0,0,0.0987546,19.327999,28.159191)"/>
<path style="fill-rule:nonzero;fill:rgb(0%,41.960784%,24.705882%);fill-opacity:1;stroke-width:0.743294;stroke-linecap:butt;stroke-linejoin:miter;stroke:rgb(0%,0%,0%);stroke-opacity:1;stroke-miterlimit:4;" d="M 5.855435 39.762662 C 6.962979 46.882582 3.600794 54.239834 0.278164 49.453665 C -3.677347 44.667496 -3.598237 29.715663 0.990156 29.873883 C 3.363463 30.071659 5.380774 34.976493 5.855435 39.762662 Z M 5.855435 39.762662 " transform="matrix(0.0987546,0,0,0.0987546,19.327999,28.159191)"/>
<path style="fill-rule:nonzero;fill:rgb(0%,41.960784%,24.705882%);fill-opacity:1;stroke-width:0.719752;stroke-linecap:butt;stroke-linejoin:miter;stroke:rgb(0%,0%,0%);stroke-opacity:1;stroke-miterlimit:4;" d="M 16.139765 39.881327 C 17.168198 46.566141 13.806013 53.448731 10.522939 49.018559 C 6.409207 44.39061 6.883868 29.478332 11.788703 30.704541 C 13.964234 31.376977 15.704659 35.64893 16.139765 39.881327 Z M 16.139765 39.881327 " transform="matrix(0.0987546,0,0,0.0987546,19.327999,28.159191)"/>
<path style="fill-rule:nonzero;fill:rgb(0%,41.960784%,24.705882%);fill-opacity:1;stroke-width:0.719752;stroke-linecap:butt;stroke-linejoin:miter;stroke:rgb(0%,0%,0%);stroke-opacity:1;stroke-miterlimit:4;" d="M 10.483384 36.440032 C 11.551372 43.124846 8.149632 50.046991 4.866557 45.616819 C 0.752826 40.98887 1.227487 26.037037 6.132321 27.302801 C 8.307852 27.975238 10.048277 32.24719 10.483384 36.440032 Z M 10.483384 36.440032 " transform="matrix(0.0987546,0,0,0.0987546,19.327999,28.159191)"/>
<path style="fill-rule:nonzero;fill:rgb(0%,41.960784%,24.705882%);fill-opacity:1;stroke-width:0.719752;stroke-linecap:butt;stroke-linejoin:miter;stroke:rgb(0%,0%,0%);stroke-opacity:1;stroke-miterlimit:4;" d="M 3.363463 31.535198 C 4.391896 38.220012 1.029711 45.142157 -2.292918 40.672429 C -6.40665 36.044481 -5.892434 21.132203 -1.027155 22.397966 C 1.187932 23.070403 2.928357 27.342356 3.363463 31.535198 Z M 3.363463 31.535198 " transform="matrix(0.0987546,0,0,0.0987546,19.327999,28.159191)"/>
<path style="fill-rule:nonzero;fill:rgb(0%,41.960784%,24.705882%);fill-opacity:1;stroke-width:0.719752;stroke-linecap:butt;stroke-linejoin:miter;stroke:rgb(0%,0%,0%);stroke-opacity:1;stroke-miterlimit:4;" d="M -3.242241 28.568564 C -2.213808 35.253379 -5.575993 42.175524 -8.898622 37.705796 C -13.012354 33.077847 -12.498138 18.165569 -7.632859 19.391778 C -5.417772 20.064215 -3.677347 24.375722 -3.242241 28.568564 Z M -3.242241 28.568564 " transform="matrix(0.0987546,0,0,0.0987546,19.327999,28.159191)"/>
<path style="fill-rule:nonzero;fill:rgb(58.039216%,38.039216%,78.823529%);fill-opacity:1;stroke-width:0.5749;stroke-linecap:butt;stroke-linejoin:miter;stroke:rgb(0%,0%,0%);stroke-opacity:1;stroke-miterlimit:4;" d="M -14.752779 -52.677641 C -26.065542 -40.336445 -28.280628 -22.457533 -27.766412 -6.358602 C -27.173085 15.119825 -13.566126 34.660052 4.629227 45.339933 C 11.551372 33.552509 11.828258 19.154447 11.432706 5.824374 C 9.969167 -13.874073 6.092766 -34.284513 -5.061776 -50.937216 C -8.305296 -51.530542 -11.50926 -52.084314 -14.752779 -52.677641 Z M -14.752779 -52.677641 " transform="matrix(0.0987546,0,0,0.0987546,19.327999,28.159191)"/>
<path style="fill-rule:nonzero;fill:rgb(0%,41.960784%,24.705882%);fill-opacity:1;stroke-width:0.721468;stroke-linecap:butt;stroke-linejoin:miter;stroke:rgb(0%,0%,0%);stroke-opacity:1;stroke-miterlimit:4;" d="M 22.626804 52.064302 C 22.508139 58.590896 17.80108 64.563718 15.229997 59.737995 C 11.867813 54.635385 15.032222 40.514209 19.818391 42.571075 C 21.954367 43.599508 22.943245 47.990126 22.626804 52.064302 Z M 22.626804 52.064302 " transform="matrix(0.0987546,0,0,0.0987546,19.327999,28.159191)"/>
<path style="fill-rule:nonzero;fill:rgb(0%,41.960784%,24.705882%);fill-opacity:1;stroke-width:0.721468;stroke-linecap:butt;stroke-linejoin:miter;stroke:rgb(0%,0%,0%);stroke-opacity:1;stroke-miterlimit:4;" d="M 15.506883 50.165657 C 15.388218 56.731806 10.681159 62.704628 8.110077 57.878904 C 4.708337 52.736739 7.912301 38.655119 12.69847 40.672429 C 14.794891 41.740417 15.823324 46.09148 15.506883 50.165657 Z M 15.506883 50.165657 " transform="matrix(0.0987546,0,0,0.0987546,19.327999,28.159191)"/>
<path style="fill-rule:nonzero;fill:rgb(0%,41.960784%,24.705882%);fill-opacity:1;stroke-width:0.721467;stroke-linecap:butt;stroke-linejoin:miter;stroke:rgb(0%,0%,0%);stroke-opacity:1;stroke-miterlimit:4;" d="M 11.986478 39.960437 C 11.867813 46.526586 7.160754 52.499409 4.589672 47.673685 C 1.227487 42.53152 4.391896 28.449899 9.178065 30.506765 C 11.314041 31.535198 12.302919 35.886261 11.986478 39.960437 Z M 11.986478 39.960437 " transform="matrix(0.0987546,0,0,0.0987546,19.327999,28.159191)"/>
<path style="fill-rule:nonzero;fill:rgb(0%,41.960784%,24.705882%);fill-opacity:1;stroke-width:0.743294;stroke-linecap:butt;stroke-linejoin:miter;stroke:rgb(0%,0%,0%);stroke-opacity:1;stroke-miterlimit:4;" d="M 19.225064 40.870205 C 19.066844 48.069236 14.438895 54.714495 12.026033 49.41411 C 9.019845 43.995059 11.749147 29.280556 16.218875 30.269434 C 18.513072 30.902316 19.620615 36.084036 19.225064 40.870205 Z M 19.225064 40.870205 " transform="matrix(0.0987546,0,0,0.0987546,19.327999,28.159191)"/>
<path style="fill-rule:nonzero;fill:rgb(0%,41.960784%,24.705882%);fill-opacity:1;stroke-width:0.719752;stroke-linecap:butt;stroke-linejoin:miter;stroke:rgb(0%,0%,0%);stroke-opacity:1;stroke-miterlimit:4;" d="M 29.351173 42.808406 C 29.192953 49.57233 24.644115 55.782483 22.191698 50.798539 C 18.948178 45.498153 22.112587 30.902316 26.700981 32.998737 C 28.718292 34.066725 29.667614 38.576008 29.351173 42.808406 Z M 29.351173 42.808406 " transform="matrix(0.0987546,0,0,0.0987546,19.327999,28.159191)"/>
<path style="fill-rule:nonzero;fill:rgb(0%,41.960784%,24.705882%);fill-opacity:1;stroke-width:0.719752;stroke-linecap:butt;stroke-linejoin:miter;stroke:rgb(0%,0%,0%);stroke-opacity:1;stroke-miterlimit:4;" d="M 24.406784 38.457343 C 24.248564 45.221268 19.66017 51.391865 17.207753 46.447476 C 14.003789 41.147091 17.168198 26.551253 21.756591 28.647675 C 23.773902 29.715663 24.723225 34.224946 24.406784 38.457343 Z M 24.406784 38.457343 " transform="matrix(0.0987546,0,0,0.0987546,19.327999,28.159191)"/>
<path style="fill-rule:nonzero;fill:rgb(0%,41.960784%,24.705882%);fill-opacity:1;stroke-width:0.719752;stroke-linecap:butt;stroke-linejoin:miter;stroke:rgb(0%,0%,0%);stroke-opacity:1;stroke-miterlimit:4;" d="M 18.236186 32.3263 C 18.077966 39.090225 13.529128 45.300378 11.07671 40.316433 C 7.872746 35.055603 10.9976 20.459766 15.585994 22.556187 C 17.642859 23.58462 18.592182 28.133458 18.236186 32.3263 Z M 18.236186 32.3263 " transform="matrix(0.0987546,0,0,0.0987546,19.327999,28.159191)"/>
<path style="fill-rule:nonzero;fill:rgb(0%,41.960784%,24.705882%);fill-opacity:1;stroke-width:0.719752;stroke-linecap:butt;stroke-linejoin:miter;stroke:rgb(0%,0%,0%);stroke-opacity:1;stroke-miterlimit:4;" d="M 12.263364 28.212568 C 12.144699 34.976493 7.556305 41.186646 5.103888 36.242257 C 1.899924 30.941871 5.024778 16.346034 9.613171 18.442455 C 11.670037 19.510443 12.61936 24.019726 12.263364 28.212568 Z M 12.263364 28.212568 " transform="matrix(0.0987546,0,0,0.0987546,19.327999,28.159191)"/>
<path style="fill-rule:nonzero;fill:rgb(83.137255%,10.980392%,18.823529%);fill-opacity:1;stroke-width:0.259666;stroke-linecap:butt;stroke-linejoin:miter;stroke:rgb(0%,0%,0%);stroke-opacity:1;stroke-miterlimit:4;" d="M 27.887634 1.987527 C 31.48715 13.814507 40.782601 30.427655 31.289374 41.344866 C 15.309108 39.12978 9.652726 19.510443 3.363463 7.406578 C 0.436385 -3.431523 -7.632859 -18.739353 1.385707 -28.430356 C 15.585994 -27.718364 22.310363 -7.901251 27.887634 1.987527 Z M 27.887634 1.987527 " transform="matrix(0.0987546,0,0,0.0987546,19.327999,28.159191)"/>
<path style="fill-rule:nonzero;fill:rgb(0%,41.960784%,24.705882%);fill-opacity:1;stroke-width:0.627605;stroke-linecap:butt;stroke-linejoin:miter;stroke:rgb(0%,0%,0%);stroke-opacity:1;stroke-miterlimit:4;" d="M 12.223809 -29.102793 C 12.738025 -25.701053 6.725648 -22.734419 3.284353 -25.621942 C -0.908489 -28.469911 2.453696 -35.27339 8.505628 -33.730741 C 10.958045 -33.018749 12.263364 -30.961883 12.223809 -29.102793 Z M 12.223809 -29.102793 " transform="matrix(0.0987546,0,0,0.0987546,19.327999,28.159191)"/>
<path style="fill-rule:nonzero;fill:rgb(0%,41.960784%,24.705882%);fill-opacity:1;stroke-width:0.627586;stroke-linecap:butt;stroke-linejoin:miter;stroke:rgb(0%,0%,0%);stroke-opacity:1;stroke-miterlimit:4;" d="M 15.704659 -35.866717 C 16.17932 -32.464977 10.799825 -29.458789 7.714526 -32.346312 C 3.95679 -35.154725 6.962979 -41.99776 12.382029 -40.45511 C 14.597116 -39.743118 15.783769 -37.725807 15.704659 -35.866717 Z M 15.704659 -35.866717 " transform="matrix(0.0987546,0,0,0.0987546,19.327999,28.159191)"/>
<path style="fill-rule:nonzero;fill:rgb(0%,41.960784%,24.705882%);fill-opacity:1;stroke-width:0.627586;stroke-linecap:butt;stroke-linejoin:miter;stroke:rgb(0%,0%,0%);stroke-opacity:1;stroke-miterlimit:4;" d="M 9.21762 -35.985382 C 9.652726 -32.583643 4.273231 -29.577454 1.187932 -32.464977 C -2.569804 -35.27339 0.436385 -42.116425 5.89499 -40.573776 C 8.070522 -39.861784 9.257175 -37.844473 9.21762 -35.985382 Z M 9.21762 -35.985382 " transform="matrix(0.0987546,0,0,0.0987546,19.327999,28.159191)"/>
<path style="fill-rule:nonzero;fill:rgb(0%,41.960784%,24.705882%);fill-opacity:1;stroke-width:0.627603;stroke-linecap:butt;stroke-linejoin:miter;stroke:rgb(0%,0%,0%);stroke-opacity:1;stroke-miterlimit:4;" d="M 10.878935 -40.890217 C 11.393151 -37.488477 5.103888 -34.798729 2.137255 -37.923583 C -1.501816 -40.811106 2.374585 -47.060815 7.833191 -45.083059 C 9.850502 -44.291956 10.91849 -42.511976 10.878935 -40.890217 Z M 10.878935 -40.890217 " transform="matrix(0.0987546,0,0,0.0987546,19.327999,28.159191)"/>
<path style="fill-rule:nonzero;fill:rgb(0%,41.960784%,24.705882%);fill-opacity:1;stroke-width:0.627603;stroke-linecap:butt;stroke-linejoin:miter;stroke:rgb(0%,0%,0%);stroke-opacity:1;stroke-miterlimit:4;" d="M 10.285608 -46.546598 C 10.83938 -43.144858 4.550117 -40.415555 1.543928 -43.579964 C -2.095143 -46.467488 1.781259 -52.717196 7.279419 -50.699885 C 9.29673 -49.908783 10.325163 -48.168358 10.285608 -46.546598 Z M 10.285608 -46.546598 " transform="matrix(0.0987546,0,0,0.0987546,19.327999,28.159191)"/>
<path style="fill-rule:nonzero;fill:rgb(0%,41.960784%,24.705882%);fill-opacity:1;stroke-width:0.627586;stroke-linecap:butt;stroke-linejoin:miter;stroke:rgb(0%,0%,0%);stroke-opacity:1;stroke-miterlimit:4;" d="M 2.967912 -39.782673 C 3.403018 -36.380934 -1.976477 -33.374745 -5.022221 -36.262268 C -8.779957 -39.110236 -5.773768 -45.913716 -0.354718 -44.371067 C 1.860369 -43.659075 3.047022 -41.641764 2.967912 -39.782673 Z M 2.967912 -39.782673 " transform="matrix(0.0987546,0,0,0.0987546,19.327999,28.159191)"/>
<path style="fill-rule:nonzero;fill:rgb(0%,41.960784%,24.705882%);fill-opacity:1;stroke-width:0.627616;stroke-linecap:butt;stroke-linejoin:miter;stroke:rgb(0%,0%,0%);stroke-opacity:1;stroke-miterlimit:4;" d="M 4.431451 -45.874161 C 4.945668 -42.314201 -1.06671 -39.466233 -3.914678 -42.788862 C -7.395528 -45.755496 -3.677347 -52.28209 1.543928 -50.225224 C 3.482128 -49.394566 4.471006 -47.575031 4.431451 -45.874161 Z M 4.431451 -45.874161 " transform="matrix(0.0987546,0,0,0.0987546,19.327999,28.159191)"/>
<path style="fill-rule:nonzero;fill:rgb(0%,41.960784%,24.705882%);fill-opacity:1;stroke-width:0.627605;stroke-linecap:butt;stroke-linejoin:miter;stroke:rgb(0%,0%,0%);stroke-opacity:1;stroke-miterlimit:4;" d="M -3.00491 -45.715941 C -2.490694 -42.314201 -8.463516 -39.308012 -11.904811 -42.235091 C -16.137208 -45.043504 -12.775024 -51.886538 -6.723091 -50.343889 C -4.270674 -49.592342 -2.9258 -47.575031 -3.00491 -45.715941 Z M -3.00491 -45.715941 " transform="matrix(0.0987546,0,0,0.0987546,19.327999,28.159191)"/>
<path style="fill-rule:nonzero;fill:rgb(0%,41.960784%,24.705882%);fill-opacity:1;stroke-width:0.627603;stroke-linecap:butt;stroke-linejoin:miter;stroke:rgb(0%,0%,0%);stroke-opacity:1;stroke-miterlimit:4;" d="M 6.606983 -53.626964 C 7.121199 -50.225224 0.831936 -47.495921 -2.134698 -50.66033 C -5.773768 -53.547853 -1.897367 -59.758006 3.600794 -57.780251 C 5.57855 -56.989148 6.646538 -55.248723 6.606983 -53.626964 Z M 6.606983 -53.626964 " transform="matrix(0.0987546,0,0,0.0987546,19.327999,28.159191)"/>
<path style="fill-rule:nonzero;fill:rgb(0%,41.960784%,24.705882%);fill-opacity:1;stroke-width:0.627616;stroke-linecap:butt;stroke-linejoin:miter;stroke:rgb(0%,0%,0%);stroke-opacity:1;stroke-miterlimit:4;" d="M -0.394273 -52.756751 C 0.119944 -49.196791 -5.892434 -46.388378 -8.740402 -49.671452 C -12.221252 -52.677641 -8.503071 -59.16468 -3.242241 -57.107814 C -1.343595 -56.277156 -0.354718 -54.457621 -0.394273 -52.756751 Z M -0.394273 -52.756751 " transform="matrix(0.0987546,0,0,0.0987546,19.327999,28.159191)"/>
<path style="fill-rule:nonzero;fill:rgb(0%,41.960784%,24.705882%);fill-opacity:1;stroke-width:0.627586;stroke-linecap:butt;stroke-linejoin:miter;stroke:rgb(0%,0%,0%);stroke-opacity:1;stroke-miterlimit:4;" d="M -10.639047 -45.47861 C -10.203941 -42.07687 -15.583437 -39.070681 -18.62918 -41.958205 C -22.386916 -44.766618 -19.380728 -51.609653 -13.961677 -50.067003 C -11.746591 -49.355011 -10.599492 -47.3377 -10.639047 -45.47861 Z M -10.639047 -45.47861 " transform="matrix(0.0987546,0,0,0.0987546,19.327999,28.159191)"/>
<path style="fill-rule:nonzero;fill:rgb(0%,41.960784%,24.705882%);fill-opacity:1;stroke-width:0.627616;stroke-linecap:butt;stroke-linejoin:miter;stroke:rgb(0%,0%,0%);stroke-opacity:1;stroke-miterlimit:4;" d="M -8.938177 -48.999015 C -8.423961 -45.47861 -14.475893 -42.630642 -17.323862 -45.913716 C -20.765157 -48.919905 -17.086531 -55.406944 -11.825701 -53.350078 C -9.927055 -52.51942 -8.898622 -50.699885 -8.938177 -48.999015 Z M -8.938177 -48.999015 " transform="matrix(0.0987546,0,0,0.0987546,19.327999,28.159191)"/>
<path style="fill-rule:nonzero;fill:rgb(0%,41.960784%,24.705882%);fill-opacity:1;stroke-width:0.627616;stroke-linecap:butt;stroke-linejoin:miter;stroke:rgb(0%,0%,0%);stroke-opacity:1;stroke-miterlimit:4;" d="M -6.920867 -52.954527 C -6.40665 -49.394566 -12.419028 -46.546598 -15.266996 -49.829673 C -18.747846 -52.835861 -15.029665 -59.362455 -9.768835 -57.266034 C -7.870189 -56.474932 -6.881311 -54.655396 -6.920867 -52.954527 Z M -6.920867 -52.954527 " transform="matrix(0.0987546,0,0,0.0987546,19.327999,28.159191)"/>
<path style="fill-rule:nonzero;fill:rgb(0%,41.960784%,24.705882%);fill-opacity:1;stroke-width:0.574888;stroke-linecap:butt;stroke-linejoin:miter;stroke:rgb(0%,0%,0%);stroke-opacity:1;stroke-miterlimit:4;" d="M 34.730669 -4.657732 C 39.358617 9.502999 49.010065 28.133458 38.804846 41.621752 C 24.288119 43.836839 16.930867 25.878817 10.483384 16.70203 C 2.611916 -0.425335 -8.621737 -21.27088 -0.156942 -39.505788 C 10.799825 -45.63683 19.739281 -29.696119 25.039666 -22.932195 C 28.836957 -17.117593 32.001366 -10.98655 34.730669 -4.657732 Z M 34.730669 -4.657732 " transform="matrix(0.0987546,0,0,0.0987546,19.327999,28.159191)"/>
<path style="fill-rule:nonzero;fill:rgb(0%,41.960784%,24.705882%);fill-opacity:1;stroke-width:0.574878;stroke-linecap:butt;stroke-linejoin:miter;stroke:rgb(0%,0%,0%);stroke-opacity:1;stroke-miterlimit:4;" d="M 35.600881 6.49681 C 36.431539 8.988783 39.754168 15.752707 35.719547 16.464699 C 30.972933 13.22118 28.560071 6.892362 28.124965 1.23598 C 28.718292 -3.86663 33.741791 2.027083 34.453783 4.242169 C 34.849334 4.954161 35.244885 5.745263 35.600881 6.49681 Z M 35.600881 6.49681 " transform="matrix(0.0987546,0,0,0.0987546,19.327999,28.159191)"/>
<path style="fill-rule:nonzero;fill:rgb(0%,41.960784%,24.705882%);fill-opacity:1;stroke-width:0.5749;stroke-linecap:butt;stroke-linejoin:miter;stroke:rgb(0%,0%,0%);stroke-opacity:1;stroke-miterlimit:4;" d="M 31.447594 7.802129 C 38.844401 16.385589 44.065676 27.777462 41.692369 39.288 C 41.099042 44.548831 38.646625 33.552509 36.9062 31.614308 C 32.238697 21.646419 24.367229 13.774952 18.315296 4.71683 C 13.331352 -2.917307 13.647793 -12.5292 16.535316 -20.835774 C 17.72197 -21.745541 18.710848 -12.964306 20.372162 -10.155893 C 23.022355 -3.589744 27.017422 2.343523 31.447594 7.802129 Z M 31.447594 7.802129 " transform="matrix(0.0987546,0,0,0.0987546,19.327999,28.159191)"/>
<path style="fill-rule:nonzero;fill:rgb(0%,41.960784%,24.705882%);fill-opacity:1;stroke-width:0.5749;stroke-linecap:butt;stroke-linejoin:miter;stroke:rgb(0%,0%,0%);stroke-opacity:1;stroke-miterlimit:4;" d="M 32.634248 20.380656 C 40.031054 28.964115 45.212774 40.395544 42.839467 51.866527 C 42.246141 57.127357 39.793724 46.17059 38.053299 44.23239 C 33.385795 34.264501 25.514327 26.393033 19.50195 17.295357 C 14.47845 9.66122 14.834446 0.0888819 17.682415 -8.257247 C 18.869068 -9.167015 19.857946 -0.346224 21.519261 2.462189 C 24.169453 9.028338 28.16452 14.961605 32.634248 20.380656 Z M 32.634248 20.380656 " transform="matrix(0.0987546,0,0,0.0987546,19.327999,28.159191)"/>
<path style="fill-rule:nonzero;fill:rgb(0%,41.960784%,24.705882%);fill-opacity:1;stroke-width:0.5749;stroke-linecap:butt;stroke-linejoin:miter;stroke:rgb(0%,0%,0%);stroke-opacity:1;stroke-miterlimit:4;" d="M 32.990244 30.54632 C 40.584826 38.971559 46.003877 50.244767 43.8679 61.79486 C 43.353684 67.095246 40.703491 56.178034 38.923511 54.239834 C 34.058232 44.39061 25.988989 36.677363 19.818391 27.737907 C 14.676226 20.222435 14.794891 10.610542 17.484639 2.224858 C 18.671292 1.275535 19.818391 10.056771 21.558816 12.865184 C 24.327674 19.352223 28.441406 25.20638 32.990244 30.54632 Z M 32.990244 30.54632 " transform="matrix(0.0987546,0,0,0.0987546,19.327999,28.159191)"/>
<path style="fill-rule:nonzero;fill:rgb(0%,41.960784%,24.705882%);fill-opacity:1;stroke-width:0.574856;stroke-linecap:butt;stroke-linejoin:miter;stroke:rgb(0%,0%,0%);stroke-opacity:1;stroke-miterlimit:4;" d="M 29.351173 -8.296802 C 30.775157 -3.906185 36.66887 8.237236 28.797402 8.237236 C 20.886379 2.77863 17.642859 -6.437712 15.585994 -14.4674 C 13.094021 -19.095349 17.405529 -26.057049 22.191698 -19.57001 C 25.356107 -16.207825 27.531638 -12.252314 29.351173 -8.296802 Z M 29.351173 -8.296802 " transform="matrix(0.0987546,0,0,0.0987546,19.327999,28.159191)"/>
<path style="fill-rule:nonzero;fill:rgb(0%,41.960784%,24.705882%);fill-opacity:1;stroke-width:0.574863;stroke-linecap:butt;stroke-linejoin:miter;stroke:rgb(0%,0%,0%);stroke-opacity:1;stroke-miterlimit:4;" d="M 23.694792 0.919539 C 24.76278 4.519055 29.390728 14.566054 22.429028 14.210058 C 15.665104 9.384334 13.252242 1.789752 11.788703 -4.736842 C 9.019845 -10.630554 16.337541 -13.359857 19.343729 -6.833263 C 21.20282 -4.380846 22.587249 -1.730653 23.694792 0.919539 Z M 23.694792 0.919539 " transform="matrix(0.0987546,0,0,0.0987546,19.327999,28.159191)"/>
<path style="fill-rule:nonzero;fill:rgb(0%,41.960784%,24.705882%);fill-opacity:1;stroke-width:0.574863;stroke-linecap:butt;stroke-linejoin:miter;stroke:rgb(0%,0%,0%);stroke-opacity:1;stroke-miterlimit:4;" d="M 17.642859 6.892362 C 18.631737 10.531432 23.06191 20.697097 16.10021 20.143325 C 9.454951 15.238491 7.160754 7.564799 5.855435 0.99865 C 3.205243 -4.934618 10.602049 -7.5057 13.450017 -0.939551 C 15.269553 1.552421 16.574871 4.242169 17.642859 6.892362 Z M 17.642859 6.892362 " transform="matrix(0.0987546,0,0,0.0987546,19.327999,28.159191)"/>
<path style="fill-rule:nonzero;fill:rgb(0%,41.960784%,24.705882%);fill-opacity:1;stroke-width:0.574873;stroke-linecap:butt;stroke-linejoin:miter;stroke:rgb(0%,0%,0%);stroke-opacity:1;stroke-miterlimit:4;" d="M 21.717036 -14.38829 C 22.666359 -11.698542 26.62187 -4.222626 20.965489 -4.380846 C 14.953112 -8.257247 12.579805 -14.586066 11.749147 -19.965561 C 10.641604 -25.542832 18.236186 -22.101537 19.225064 -18.620687 C 20.213942 -17.236258 21.044599 -15.851829 21.717036 -14.38829 Z M 21.717036 -14.38829 " transform="matrix(0.0987546,0,0,0.0987546,19.327999,28.159191)"/>
<path style="fill-rule:nonzero;fill:rgb(0%,41.960784%,24.705882%);fill-opacity:1;stroke-width:0.574873;stroke-linecap:butt;stroke-linejoin:miter;stroke:rgb(0%,0%,0%);stroke-opacity:1;stroke-miterlimit:4;" d="M 16.614426 -10.235003 C 17.405529 -7.5057 20.846824 0.207547 15.229997 -0.267114 C 9.454951 -4.499511 7.51675 -10.90744 7.002534 -16.366046 C 6.211431 -21.982872 13.608238 -18.106471 14.39934 -14.586066 C 15.269553 -13.162081 16.0211 -11.698542 16.614426 -10.235003 Z M 16.614426 -10.235003 " transform="matrix(0.0987546,0,0,0.0987546,19.327999,28.159191)"/>
<path style="fill-rule:nonzero;fill:rgb(0%,41.960784%,24.705882%);fill-opacity:1;stroke-width:0.5749;stroke-linecap:butt;stroke-linejoin:miter;stroke:rgb(0%,0%,0%);stroke-opacity:1;stroke-miterlimit:4;" d="M 8.624293 -15.772719 C 10.483384 -9.918562 14.280675 -3.233748 12.026033 2.818185 C 6.409207 0.800874 4.352341 -7.110149 1.741703 -12.133648 " transform="matrix(0.0987546,0,0,0.0987546,19.327999,28.159191)"/>
<path style="fill-rule:nonzero;fill:rgb(0%,41.960784%,24.705882%);fill-opacity:1;stroke-width:0.574873;stroke-linecap:butt;stroke-linejoin:miter;stroke:rgb(0%,0%,0%);stroke-opacity:1;stroke-miterlimit:4;" d="M 15.981545 -21.112659 C 16.772647 -18.343801 20.253497 -10.670109 14.597116 -11.144771 C 8.822069 -15.377168 6.883868 -21.785096 6.369652 -27.243702 C 5.618105 -32.820973 12.975356 -28.984127 13.766458 -25.463722 C 14.676226 -24.039738 15.388218 -22.576199 15.981545 -21.112659 Z M 15.981545 -21.112659 " transform="matrix(0.0987546,0,0,0.0987546,19.327999,28.159191)"/>
<path style="fill-rule:nonzero;fill:rgb(0%,41.960784%,24.705882%);fill-opacity:1;stroke-width:0.574874;stroke-linecap:butt;stroke-linejoin:miter;stroke:rgb(0%,0%,0%);stroke-opacity:1;stroke-miterlimit:4;" d="M 9.652726 -17.94825 C 10.364718 -15.218947 13.687348 -7.466145 8.030967 -8.019917 C 2.374585 -12.370979 0.55505 -18.818463 0.199054 -24.277069 C -0.473383 -29.893895 6.844313 -25.898828 7.51675 -22.378423 C 8.386963 -20.914884 9.098955 -19.451345 9.652726 -17.94825 Z M 9.652726 -17.94825 " transform="matrix(0.0987546,0,0,0.0987546,19.327999,28.159191)"/>
<path style="fill-rule:nonzero;fill:rgb(0%,41.960784%,24.705882%);fill-opacity:1;stroke-width:0.5749;stroke-linecap:butt;stroke-linejoin:miter;stroke:rgb(0%,0%,0%);stroke-opacity:1;stroke-miterlimit:4;" d="M 2.018589 -28.351245 C 3.403018 -25.186836 9.494506 -16.603376 5.064333 -15.535388 C 1.781259 -17.94825 -0.354718 -21.547766 -2.451139 -24.90995 " transform="matrix(0.0987546,0,0,0.0987546,19.327999,28.159191)"/>
<path style="fill-rule:nonzero;fill:rgb(0%,41.960784%,24.705882%);fill-opacity:1;stroke-width:0.5749;stroke-linecap:butt;stroke-linejoin:miter;stroke:rgb(0%,0%,0%);stroke-opacity:1;stroke-miterlimit:4;" d="M 4.589672 -32.504532 C 5.934546 -29.300568 12.065588 -20.756663 7.59586 -19.688675 C 4.352341 -22.061982 2.216365 -25.701053 0.0803887 -29.063237 " transform="matrix(0.0987546,0,0,0.0987546,19.327999,28.159191)"/>
<path style="fill-rule:nonzero;fill:rgb(0%,41.960784%,24.705882%);fill-opacity:1;stroke-width:0.5749;stroke-linecap:butt;stroke-linejoin:miter;stroke:rgb(0%,0%,0%);stroke-opacity:1;stroke-miterlimit:4;" d="M 16.0211 -31.594765 C 18.750403 -26.136159 23.457461 -20.084226 22.152143 -13.794963 C 16.337541 -14.862951 13.094021 -22.417978 9.771392 -26.927261 " transform="matrix(0.0987546,0,0,0.0987546,19.327999,28.159191)"/>
<path style="fill-rule:nonzero;fill:rgb(0%,41.960784%,24.705882%);fill-opacity:1;stroke-width:0.5749;stroke-linecap:butt;stroke-linejoin:miter;stroke:rgb(0%,0%,0%);stroke-opacity:1;stroke-miterlimit:4;" d="M 8.466073 -36.064493 C 9.810947 -32.504532 15.981545 -23.288191 11.511817 -21.943317 C 8.189187 -24.67262 6.092766 -28.628131 3.95679 -32.346312 " transform="matrix(0.0987546,0,0,0.0987546,19.327999,28.159191)"/>
<path style="fill-rule:nonzero;fill:rgb(58.039216%,38.039216%,78.823529%);fill-opacity:1;stroke-width:0.5905;stroke-linecap:butt;stroke-linejoin:miter;stroke:rgb(0%,0%,0%);stroke-opacity:1;stroke-miterlimit:4;" d="M 8.110077 -46.071937 C 4.668782 -38.912461 14.201565 -34.047182 19.027288 -30.368556 C 24.050788 -25.898828 35.244885 -27.401923 36.312873 -32.662753 C 26.898756 -35.19428 21.005044 -44.647953 11.511817 -47.060815 C 10.325163 -47.219035 9.019845 -46.981704 8.110077 -46.071937 Z M 8.110077 -46.071937 " transform="matrix(0.0987546,0,0,0.0987546,19.327999,28.159191)"/>
<path style="fill-rule:nonzero;fill:rgb(58.039216%,38.039216%,78.823529%);fill-opacity:1;stroke-width:0.5905;stroke-linecap:butt;stroke-linejoin:miter;stroke:rgb(0%,0%,0%);stroke-opacity:1;stroke-miterlimit:4;" d="M 6.369652 -53.468743 C 2.888802 -46.309267 12.461139 -41.443988 17.286863 -37.765363 C 22.270808 -33.295635 33.50446 -34.798729 34.572448 -40.099114 C 25.118776 -42.591087 19.264619 -52.084314 9.771392 -54.457621 C 8.584738 -54.615841 7.239864 -54.378511 6.369652 -53.468743 Z M 6.369652 -53.468743 " transform="matrix(0.0987546,0,0,0.0987546,19.327999,28.159191)"/>
<path style="fill-rule:nonzero;fill:rgb(58.039216%,38.039216%,78.823529%);fill-opacity:1;stroke-width:0.5905;stroke-linecap:butt;stroke-linejoin:miter;stroke:rgb(0%,0%,0%);stroke-opacity:1;stroke-miterlimit:4;" d="M 4.11501 -60.588664 C 0.673715 -53.429188 10.206498 -48.524354 15.032222 -44.845728 C 20.055721 -40.376 31.249819 -41.91865 32.317807 -47.17948 C 22.90369 -49.671452 17.009978 -59.16468 7.51675 -61.537986 C 6.330097 -61.696207 5.024778 -61.458876 4.11501 -60.588664 Z M 4.11501 -60.588664 " transform="matrix(0.0987546,0,0,0.0987546,19.327999,28.159191)"/>
<path style="fill-rule:nonzero;fill:rgb(58.039216%,38.039216%,78.823529%);fill-opacity:1;stroke-width:0.5905;stroke-linecap:butt;stroke-linejoin:miter;stroke:rgb(0%,0%,0%);stroke-opacity:1;stroke-miterlimit:4;" d="M -0.750269 -68.697462 C -4.231119 -61.537986 5.341219 -56.633152 10.166943 -52.954527 C 15.150887 -48.484799 26.38454 -50.027448 27.452528 -55.288278 C 17.998855 -57.780251 12.105143 -67.273478 2.611916 -69.646785 C 1.425263 -69.805005 0.119944 -69.567675 -0.750269 -68.697462 Z M -0.750269 -68.697462 " transform="matrix(0.0987546,0,0,0.0987546,19.327999,28.159191)"/>
<path style="fill-rule:nonzero;fill:rgb(58.039216%,38.039216%,78.823529%);fill-opacity:1;stroke-width:0.6276;stroke-linecap:butt;stroke-linejoin:miter;stroke:rgb(0%,0%,0%);stroke-opacity:1;stroke-miterlimit:4;" d="M -18.273184 -76.450265 C -9.531504 -82.502197 2.928357 -80.287111 10.087833 -72.732084 C 15.546438 -68.143691 20.490828 -62.605974 27.136087 -59.678896 C 20.411717 -58.017581 14.24112 -63.317967 8.940734 -57.226479 C 0.831936 -53.864294 -9.056843 -52.756751 -17.126086 -56.791373 C -24.325117 -60.588664 -24.246007 -71.624541 -18.273184 -76.450265 Z M -18.273184 -76.450265 " transform="matrix(0.0987546,0,0,0.0987546,19.327999,28.159191)"/>
<path style="fill-rule:nonzero;fill:rgb(83.137255%,10.980392%,18.823529%);fill-opacity:1;stroke-width:0.572029;stroke-linecap:butt;stroke-linejoin:miter;stroke:rgb(0%,0%,0%);stroke-opacity:1;stroke-miterlimit:4;" d="M -3.123576 -68.816127 C -2.76758 -66.165935 -10.243496 -65.414388 -11.58837 -68.06458 C -13.645236 -70.556552 -6.881311 -72.811194 -4.033343 -70.437887 C -3.440017 -69.963226 -3.123576 -69.409454 -3.123576 -68.816127 Z M -3.123576 -68.816127 " transform="matrix(0.0987546,0,0,0.0987546,19.327999,28.159191)"/>
<path style="fill-rule:nonzero;fill:rgb(98.823529%,81.960784%,8.627451%);fill-opacity:1;stroke-width:0.619096;stroke-linecap:butt;stroke-linejoin:miter;stroke:rgb(0%,0%,0%);stroke-opacity:1;stroke-miterlimit:4;" d="M -15.108775 -60.786439 C -14.199008 -55.76294 -24.008676 -52.123869 -26.540203 -56.514487 C -27.766412 -61.379766 -17.363417 -65.216612 -15.108775 -60.786439 Z M -15.108775 -60.786439 " transform="matrix(0.0987546,0,0,0.0987546,19.327999,28.159191)"/>
<path style=" stroke:none;fill-rule:nonzero;fill:rgb(0%,0%,0%);fill-opacity:1;" d="M 18.722656 21.339844 C 18.714844 21.570312 18.285156 21.445312 18.4375 21.257812 C 18.523438 21.152344 18.726562 21.210938 18.722656 21.339844 Z M 18.722656 21.339844 "/>
<path style="fill-rule:nonzero;fill:rgb(98.823529%,81.960784%,8.627451%);fill-opacity:1;stroke-width:0.7318;stroke-linecap:butt;stroke-linejoin:miter;stroke:rgb(0%,0%,0%);stroke-opacity:1;stroke-miterlimit:4;" d="M -17.126086 -65.533053 C -17.719413 -58.808683 -28.161963 -58.531798 -28.320184 -50.778995 C -30.812156 -55.960715 -33.027242 -65.137502 -25.867766 -67.589919 C -22.901133 -68.499687 -17.758968 -70.161001 -17.126086 -65.533053 Z M -17.126086 -65.533053 " transform="matrix(0.0987546,0,0,0.0987546,19.327999,28.159191)"/>
<path style=" stroke:none;fill-rule:nonzero;fill:rgb(0%,0%,0%);fill-opacity:1;" d="M 17.285156 21.765625 C 17.285156 22 16.933594 21.824219 17.109375 21.683594 C 17.175781 21.628906 17.28125 21.679688 17.285156 21.765625 Z M 17.285156 21.765625 "/>
</g>
</svg>
