<?xml version="1.0" encoding="UTF-8"?>
<!-- Created by grConvert v0.1-0 -->
<svg xmlns="http://www.w3.org/2000/svg" xmlns:xlink="http://www.w3.org/1999/xlink" width="56pt" height="56pt" viewBox="0 0 56 56" version="1.1">
<g id="surface92">
<path style=" stroke:none;fill-rule:nonzero;fill:rgb(80.784314%,6.666667%,14.901961%);fill-opacity:1;" d="M 28.125 0.0351562 C 12.59375 0.0351562 0 12.628906 0 28.160156 C 0 43.695312 12.59375 56.285156 28.125 56.285156 C 43.65625 56.285156 56.25 43.695312 56.25 28.160156 C 56.25 12.628906 43.65625 0.0351562 28.125 0.0351562 Z M 28.125 0.0351562 "/>
<path style=" stroke:none;fill-rule:nonzero;fill:rgb(0%,47.843137%,36.862745%);fill-opacity:1;" d="M 5.820312 11.035156 C 2.171875 15.78125 0 21.714844 0 28.160156 C 0 34.230469 1.925781 39.84375 5.195312 44.4375 L 51.054688 44.4375 C 54.324219 39.84375 56.25 34.230469 56.25 28.160156 C 56.25 21.714844 54.078125 15.78125 50.429688 11.035156 Z M 5.820312 11.035156 "/>
<path style=" stroke:none;fill-rule:nonzero;fill:rgb(98.823529%,81.960784%,8.627451%);fill-opacity:1;" d="M 5.820312 11.035156 C 5.214844 11.824219 4.648438 12.640625 4.125 13.488281 L 31.566406 27.738281 L 53.621094 16.285156 C 52.746094 14.414062 51.675781 12.65625 50.429688 11.035156 Z M 31.566406 27.738281 L 3.75 42.183594 C 4.195312 42.957031 4.679688 43.710938 5.195312 44.4375 L 51.054688 44.4375 C 52.179688 42.855469 53.148438 41.152344 53.929688 39.347656 Z M 31.566406 27.738281 "/>
<path style=" stroke:none;fill-rule:nonzero;fill:rgb(80.784314%,6.666667%,14.901961%);fill-opacity:1;" d="M 37.132812 27.738281 C 37.132812 30.8125 34.640625 33.304688 31.566406 33.304688 C 28.492188 33.304688 26 30.8125 26 27.738281 C 26 24.664062 28.492188 22.171875 31.566406 22.171875 C 34.640625 22.171875 37.132812 24.664062 37.132812 27.738281 Z M 37.132812 27.738281 "/>
<path style=" stroke:none;fill-rule:nonzero;fill:rgb(80.784314%,6.666667%,14.901961%);fill-opacity:1;" d="M 3.386719 27.800781 C 4.082031 29.097656 5.4375 30.511719 6.621094 31.007812 C 6.640625 29.6875 6.171875 28 5.53125 26.65625 Z M 3.386719 27.800781 "/>
<path style=" stroke:none;fill-rule:nonzero;fill:rgb(98.823529%,81.960784%,8.627451%);fill-opacity:1;" d="M 2.203125 23.351562 C 3.214844 25.457031 -0.414062 30.476562 5.632812 31.652344 C 4.886719 30.636719 4.40625 28.957031 4.585938 27.609375 C 5.855469 28.089844 7.1875 29.503906 7.726562 30.582031 C 9.308594 24.835938 3.671875 25.1875 2.203125 23.351562 Z M 2.203125 23.351562 "/>
<path style=" stroke:none;fill-rule:nonzero;fill:rgb(98.823529%,81.960784%,8.627451%);fill-opacity:1;" d="M 14.363281 8.277344 L 14.960938 6.183594 L 13.253906 4.878906 L 15.378906 4.816406 L 16.058594 2.746094 L 16.773438 4.800781 L 18.902344 4.824219 L 17.21875 6.160156 L 17.851562 8.246094 L 16.097656 7.015625 Z M 14.363281 8.277344 "/>
<path style=" stroke:none;fill-rule:nonzero;fill:rgb(98.823529%,81.960784%,8.627451%);fill-opacity:1;" d="M 29.914062 8.21875 L 30.511719 6.125 L 28.804688 4.820312 L 30.929688 4.753906 L 31.609375 2.6875 L 32.328125 4.742188 L 34.453125 4.765625 L 32.769531 6.101562 L 33.40625 8.1875 L 31.648438 6.957031 Z M 29.914062 8.21875 "/>
<path style=" stroke:none;fill-rule:nonzero;fill:rgb(98.823529%,81.960784%,8.627451%);fill-opacity:1;" d="M 45.671875 6.988281 L 45.289062 8.335938 L 46.34375 7.570312 C 46.121094 7.375 45.898438 7.175781 45.671875 6.988281 Z M 45.671875 6.988281 "/>
<path style=" stroke:none;fill-rule:nonzero;fill:rgb(98.823529%,81.960784%,8.627451%);fill-opacity:1;" d="M 46.984375 46.671875 L 46.304688 48.738281 L 44.179688 48.800781 L 45.28125 49.644531 C 46.011719 49.0625 46.710938 48.445312 47.375 47.792969 Z M 46.984375 46.671875 "/>
<path style=" stroke:none;fill-rule:nonzero;fill:rgb(98.823529%,81.960784%,8.627451%);fill-opacity:1;" d="M 29.796875 52.140625 L 30.394531 50.046875 L 28.6875 48.742188 L 30.8125 48.679688 L 31.492188 46.609375 L 32.207031 48.664062 L 34.332031 48.6875 L 32.652344 50.023438 L 33.285156 52.109375 L 31.53125 50.878906 Z M 29.796875 52.140625 "/>
<path style=" stroke:none;fill-rule:nonzero;fill:rgb(98.823529%,81.960784%,8.627451%);fill-opacity:1;" d="M 14.421875 52.140625 L 15.019531 50.046875 L 13.3125 48.742188 L 15.4375 48.679688 L 16.117188 46.609375 L 16.835938 48.664062 L 18.960938 48.6875 L 17.277344 50.023438 L 17.914062 52.109375 L 16.15625 50.878906 Z M 14.421875 52.140625 "/>
<path style=" stroke:none;fill-rule:nonzero;fill:rgb(98.823529%,81.960784%,8.627451%);fill-opacity:1;" d="M 28.699219 31.984375 L 29.71875 28.40625 L 26.804688 26.179688 L 30.433594 26.070312 L 31.59375 22.539062 L 32.816406 26.046875 L 36.449219 26.089844 L 33.574219 28.367188 L 34.660156 31.925781 L 31.660156 29.828125 Z M 28.699219 31.984375 "/>
</g>
</svg>
