<?xml version="1.0" encoding="UTF-8"?>
<!-- Created by grConvert v0.1-0 -->
<svg xmlns="http://www.w3.org/2000/svg" xmlns:xlink="http://www.w3.org/1999/xlink" width="56pt" height="56pt" viewBox="0 0 56 56" version="1.1">
<g id="surface96">
<path style=" stroke:none;fill-rule:nonzero;fill:rgb(0%,0%,0%);fill-opacity:1;" d="M 18.296875 1.804688 C 7.613281 5.789062 0 16.085938 0 28.160156 C 0 43.695312 12.59375 56.285156 28.125 56.285156 C 43.65625 56.285156 56.25 43.695312 56.25 28.160156 C 56.25 16.085938 48.636719 5.789062 37.953125 1.804688 Z M 18.296875 1.804688 "/>
<path style=" stroke:none;fill-rule:nonzero;fill:rgb(0%,14.117647%,53.333333%);fill-opacity:1;" d="M 28.125 0.0351562 C 15.652344 0.0351562 5.082031 8.15625 1.398438 19.394531 L 54.851562 19.394531 C 51.167969 8.15625 40.597656 0.0351562 28.125 0.0351562 Z M 28.125 0.0351562 "/>
<path style=" stroke:none;fill-rule:nonzero;fill:rgb(0%,50.196078%,0%);fill-opacity:1;" d="M 10.558594 28.851562 C 10.59375 28.816406 11.144531 29 11.796875 29.253906 C 12.449219 29.507812 13.289062 29.746094 13.652344 29.769531 C 14.289062 29.796875 16.546875 30.875 16.527344 31.132812 C 16.523438 31.375 13.105469 30.332031 11.910156 29.722656 C 10.472656 29.003906 10.4375 28.96875 10.558594 28.851562 Z M 10.558594 28.851562 "/>
<path style=" stroke:none;fill-rule:nonzero;fill:rgb(0%,50.196078%,0%);fill-opacity:1;" d="M 2.710938 21.390625 C 2.675781 21.414062 2.851562 21.796875 3.179688 22.402344 C 3.9375 23.84375 7.011719 27.167969 8.71875 28.4375 C 9.183594 28.78125 10.015625 29.121094 10.527344 29.195312 L 11.066406 29.277344 C 11.101562 29.464844 11.441406 29.871094 11.859375 30.199219 C 12.277344 30.515625 12.933594 30.890625 13.628906 31.265625 C 13.621094 31.273438 13.613281 31.285156 13.605469 31.292969 C 13.476562 31.34375 13.359375 31.378906 13.207031 31.453125 C 13.207031 31.453125 13.203125 31.453125 13.203125 31.453125 C 12.191406 30.851562 10.945312 30.011719 10.6875 29.734375 C 10.507812 29.527344 9.179688 29.078125 7.601562 28.59375 C 7.308594 28.359375 7.191406 28.324219 7.265625 28.488281 C 6.75 28.332031 6.277344 28.183594 5.71875 28.027344 C 5.71875 28.023438 5.734375 28.023438 5.734375 28.019531 C 5.8125 27.945312 5.179688 27.535156 4.382812 27.078125 C 4.441406 26.851562 1.789062 24.699219 0.640625 24.0625 C 0.464844 23.960938 0.460938 23.964844 0.320312 23.890625 C 0.300781 24.023438 0.289062 24.160156 0.273438 24.292969 C 0.828125 24.6875 1.445312 25.207031 1.65625 25.484375 C 1.753906 25.613281 1.964844 25.792969 2.234375 25.988281 C 1.980469 25.875 1.703125 25.742188 1.515625 25.675781 C 0.726562 25.398438 0.347656 25.269531 0.152344 25.230469 C 0.144531 25.292969 0.140625 25.359375 0.132812 25.425781 C 0.316406 25.539062 0.636719 25.707031 1.101562 25.921875 C 1.734375 26.214844 2.492188 26.652344 2.757812 26.898438 C 2.960938 27.089844 3.519531 27.355469 4.09375 27.585938 C 2.542969 27.175781 1.03125 26.796875 0.046875 26.617188 C 0.0390625 26.707031 0.0390625 26.792969 0.0351562 26.882812 C 1.019531 27.105469 2.109375 27.394531 3.242188 27.71875 C 2.242188 27.429688 1.25 27.503906 0.703125 27.933594 C 0.414062 28.148438 0.101562 28.65625 0.0234375 29.066406 C 0.0273438 29.238281 0.0273438 29.414062 0.0390625 29.582031 C 0.0898438 29.53125 0.164062 29.445312 0.265625 29.324219 C 1.289062 28.027344 1.363281 27.980469 2.632812 27.953125 C 3.589844 27.933594 3.757812 27.886719 3.378906 27.761719 C 3.902344 27.914062 4.417969 28.066406 4.933594 28.230469 C 4.9375 28.238281 4.9375 28.242188 4.945312 28.25 C 4.675781 28.257812 4.339844 28.34375 3.710938 28.535156 L 3.546875 28.589844 C 3.3125 28.433594 3.015625 28.238281 2.882812 28.152344 C 2.597656 27.972656 2.839844 28.234375 3.3125 28.667969 L 2.734375 28.855469 L 3.46875 28.972656 C 3.542969 28.992188 3.625 29 3.703125 29.011719 C 4.046875 29.292969 4.542969 29.625 5.125 29.976562 C 2.660156 30.246094 2.246094 30.464844 2.292969 31.46875 C 2.316406 31.957031 2.316406 31.957031 2.4375 31.46875 C 2.660156 30.5625 3.023438 30.367188 4.414062 30.367188 C 4.804688 30.367188 5.367188 30.410156 6.019531 30.476562 C 6.75 30.878906 7.488281 31.261719 8.257812 31.617188 C 6.777344 31.613281 5.328125 31.6875 4.609375 31.859375 C 3.5625 32.101562 3 32.46875 3 32.90625 C 3 33.078125 3.097656 33.054688 3.21875 32.859375 C 3.414062 32.542969 5.417969 31.953125 5.609375 32.152344 C 5.660156 32.199219 5.585938 32.566406 5.441406 32.933594 C 5.296875 33.300781 5.246094 33.667969 5.320312 33.738281 C 5.390625 33.839844 5.515625 33.640625 5.585938 33.375 C 5.878906 32.324219 6.78125 32.003906 8.953125 32.203125 C 9.273438 32.230469 9.421875 32.242188 9.738281 32.269531 C 9.949219 32.355469 10.140625 32.421875 10.332031 32.488281 L 10.183594 32.488281 C 9.792969 32.515625 8.839844 32.757812 8.109375 33.027344 C 6.496094 33.664062 6.15625 33.882812 6.15625 34.222656 C 6.15625 34.371094 6.328125 34.347656 6.59375 34.125 C 6.816406 33.90625 7.621094 33.613281 8.351562 33.441406 C 9.082031 33.273438 9.964844 32.980469 10.304688 32.808594 L 10.683594 32.609375 C 10.71875 32.621094 10.765625 32.640625 10.800781 32.652344 C 10.972656 32.703125 11.1875 32.734375 11.40625 32.761719 C 10.890625 33.277344 10.582031 33.742188 10.441406 34.210938 C 7.804688 34.976562 7.398438 35.402344 7.84375 36.808594 C 8.039062 37.394531 8.042969 37.367188 8.066406 36.609375 C 8.089844 36.195312 8.3125 35.609375 8.554688 35.363281 C 8.785156 35.136719 9.449219 34.875 10.363281 34.621094 C 10.34375 34.851562 10.355469 35.089844 10.410156 35.34375 C 10.292969 35.476562 10.175781 35.621094 10.0625 35.792969 L 9.429688 36.777344 L 10.246094 36 C 10.34375 35.910156 10.433594 35.832031 10.527344 35.753906 C 10.53125 35.769531 10.53125 35.789062 10.539062 35.804688 L 10.921875 36.910156 L 10.816406 35.792969 C 10.808594 35.703125 10.804688 35.625 10.800781 35.539062 C 11.589844 34.972656 12.398438 34.953125 13.777344 35.3125 C 12.269531 36.027344 11.757812 36.753906 11.78125 38.050781 L 11.800781 39.222656 L 12.046875 38.125 C 12.347656 36.691406 12.949219 36.132812 14.675781 35.542969 C 15.335938 35.722656 15.886719 35.847656 15.90625 35.816406 C 15.972656 35.71875 15.6875 35.519531 15.296875 35.316406 C 16.039062 35.070312 16.636719 34.84375 16.636719 34.800781 C 16.636719 34.582031 15.488281 34.714844 14.582031 34.996094 C 14.214844 34.851562 13.839844 34.726562 13.519531 34.675781 C 12.234375 34.449219 11.425781 34.53125 10.796875 34.988281 C 10.808594 34.816406 10.835938 34.648438 10.875 34.492188 C 11.617188 34.304688 12.449219 34.125 13.386719 33.972656 C 13.972656 33.898438 14.363281 33.730469 14.289062 33.609375 C 14.09375 33.289062 13.3125 33.386719 11.140625 34 C 11.105469 34.007812 11.089844 34.015625 11.050781 34.027344 C 11.261719 33.617188 11.65625 33.222656 12.175781 32.796875 C 12.394531 32.792969 12.597656 32.777344 12.757812 32.746094 L 12.800781 32.734375 C 12.839844 32.753906 12.902344 32.769531 12.933594 32.785156 C 13.566406 33.128906 16.03125 33.152344 15.8125 32.8125 C 15.761719 32.726562 15.507812 32.632812 15.207031 32.550781 C 15.164062 32.523438 15.140625 32.496094 15.09375 32.46875 C 14.777344 32.296875 14.363281 32.03125 14.191406 31.832031 C 14.0625 31.710938 13.898438 31.636719 13.742188 31.585938 C 13.855469 31.492188 13.859375 31.480469 13.929688 31.417969 C 15.300781 32.128906 16.753906 32.75 17.03125 32.640625 C 17.300781 32.542969 16.886719 32.273438 15.714844 31.832031 C 15.242188 31.648438 14.785156 31.445312 14.351562 31.246094 C 14.785156 31.0625 15.289062 30.910156 15.597656 30.886719 C 16.28125 30.851562 16.28125 30.851562 15.847656 30.578125 C 15.734375 30.511719 15.558594 30.480469 15.363281 30.480469 C 15.300781 30.386719 15.144531 30.265625 14.949219 30.148438 C 14.628906 29.976562 14.214844 29.707031 14.046875 29.511719 C 14.023438 29.492188 13.996094 29.484375 13.976562 29.46875 C 14.214844 29.480469 14.304688 29.472656 14.59375 29.488281 C 14.699219 29.496094 14.75 29.488281 14.855469 29.496094 C 15.203125 30.085938 16.121094 30.488281 17.332031 30.59375 C 18.21875 30.65625 17.8125 30.277344 16.574219 29.824219 C 16.328125 29.746094 16.070312 29.628906 15.828125 29.515625 C 16.039062 29.515625 16.3125 29.53125 16.480469 29.527344 C 16.652344 29.664062 16.875 29.800781 17.128906 29.914062 C 17.660156 30.160156 18.339844 30.355469 18.679688 30.367188 C 19.082031 30.378906 18.976562 30.28125 18.222656 29.988281 C 17.863281 29.847656 17.492188 29.65625 17.160156 29.46875 C 17.503906 29.40625 17.324219 29.308594 16.738281 29.207031 C 16.707031 29.183594 16.644531 29.152344 16.613281 29.128906 C 16.390625 28.945312 16.304688 28.886719 16.226562 28.847656 C 16.199219 28.816406 16.1875 28.796875 16.15625 28.761719 C 15.542969 28.054688 14.226562 25.464844 14.226562 24.972656 C 14.226562 24.707031 14.101562 24.511719 13.957031 24.511719 C 13.785156 24.511719 13.738281 24.753906 13.835938 25.144531 C 14.171875 26.496094 15.546875 28.949219 16.054688 29.113281 C 15.929688 29.101562 15.90625 29.085938 15.765625 29.074219 C 15.503906 29.046875 15.304688 29.039062 15.0625 29.015625 C 15.089844 28.910156 14.875 28.660156 14.328125 28.046875 C 13.792969 27.484375 13.085938 26.628906 12.71875 26.167969 C 12.355469 25.703125 12.035156 25.40625 12.035156 25.503906 C 12.035156 25.773438 12.988281 27.632812 13.546875 28.414062 C 13.722656 28.65625 13.914062 28.828125 14.117188 28.945312 C 13.121094 28.886719 12.375 28.894531 11.851562 28.957031 C 11.777344 28.742188 11.523438 28.3125 11.152344 27.808594 C 9.96875 26.195312 9.792969 26.027344 9.792969 26.296875 C 9.792969 26.613281 11.128906 28.484375 11.667969 28.980469 C 11.5 29.003906 11.328125 29.03125 11.234375 29.074219 L 10.769531 28.5625 C 9.625 27.3125 7.867188 24.917969 7.304688 23.871094 C 6.695312 22.722656 6.621094 23.011719 7.132812 24.480469 C 7.328125 25.066406 8.109375 26.238281 8.867188 27.070312 C 9.625 27.925781 10.113281 28.632812 9.992188 28.632812 C 9.671875 28.632812 7.621094 26.214844 6.15625 24.113281 C 4.570312 21.816406 4.5 21.742188 4.9375 23.015625 C 5.160156 23.625 5.644531 24.527344 6.0625 25.015625 C 6.449219 25.53125 6.695312 25.945312 6.574219 25.945312 C 6.332031 25.945312 5.257812 24.722656 3.914062 22.964844 C 3.546875 22.453125 3.035156 21.792969 2.816406 21.5 C 2.753906 21.417969 2.71875 21.386719 2.710938 21.390625 Z M 1.707031 22.953125 C 1.5625 22.902344 1.878906 23.511719 2.4375 24.316406 C 3.148438 25.367188 3.953125 26.128906 5.515625 27.175781 C 6.660156 27.960938 7.664062 28.570312 7.710938 28.519531 C 7.808594 28.398438 2.097656 23.097656 1.707031 22.953125 Z M 10.25 25 C 10.179688 24.925781 10.449219 25.464844 10.839844 26.171875 C 11.765625 27.882812 12.71875 29.007812 13.109375 28.886719 C 13.300781 28.8125 12.863281 28.101562 11.910156 26.953125 C 11.054688 25.953125 10.324219 25.074219 10.25 25 Z M 5.78125 28.5 C 6.164062 28.628906 6.523438 28.746094 6.882812 28.871094 C 6.765625 28.867188 6.777344 28.859375 6.625 28.855469 C 6.433594 28.847656 6.246094 28.855469 6.070312 28.871094 C 5.972656 28.800781 5.832031 28.703125 5.746094 28.644531 C 5.960938 28.636719 5.972656 28.589844 5.78125 28.5 Z M 5.285156 28.707031 C 5.332031 28.761719 5.34375 28.785156 5.394531 28.847656 C 5.421875 28.882812 5.476562 28.925781 5.507812 28.964844 C 5.257812 29.023438 5.042969 29.101562 4.914062 29.199219 C 4.832031 29.261719 4.78125 29.304688 4.734375 29.347656 C 4.613281 29.269531 4.539062 29.234375 4.414062 29.15625 C 4.335938 29.101562 4.265625 29.058594 4.179688 29 C 4.347656 28.980469 4.511719 28.953125 4.617188 28.902344 C 4.769531 28.816406 5.03125 28.75 5.285156 28.707031 Z M 7.3125 29.023438 C 7.449219 29.070312 7.59375 29.121094 7.726562 29.171875 C 7.804688 29.277344 7.855469 29.347656 7.960938 29.472656 C 8.121094 29.679688 8.433594 29.949219 8.796875 30.230469 C 8.320312 30.101562 7.882812 29.964844 7.757812 29.878906 C 7.726562 29.847656 7.613281 29.828125 7.445312 29.816406 C 7.269531 29.699219 7.085938 29.582031 6.914062 29.464844 C 6.746094 29.34375 6.667969 29.292969 6.523438 29.1875 C 6.734375 29.148438 6.996094 29.109375 7.132812 29.078125 C 7.214844 29.054688 7.253906 29.039062 7.3125 29.023438 Z M 5.859375 29.3125 C 6.054688 29.503906 6.234375 29.683594 6.449219 29.859375 C 6.21875 29.871094 5.964844 29.898438 5.695312 29.925781 C 5.445312 29.773438 5.214844 29.644531 4.933594 29.46875 C 5.054688 29.453125 5.214844 29.429688 5.429688 29.394531 C 5.5625 29.375 5.703125 29.339844 5.859375 29.3125 Z M 12.4375 29.417969 C 12.585938 29.414062 12.941406 29.4375 13.144531 29.441406 C 13.292969 29.699219 14.398438 30.296875 15 30.515625 C 14.867188 30.542969 14.734375 30.582031 14.601562 30.636719 C 14.347656 30.734375 14.101562 30.875 13.902344 31.019531 C 12.691406 30.421875 11.785156 29.835938 11.785156 29.585938 C 11.785156 29.488281 11.984375 29.433594 12.4375 29.417969 Z M 8.917969 29.632812 C 9.953125 30.054688 10.613281 30.402344 10.46875 30.539062 C 10.449219 30.558594 10.3125 30.535156 10.214844 30.527344 C 9.75 30.21875 9.308594 29.917969 8.917969 29.632812 Z M 6.777344 30.574219 C 7.046875 30.605469 7.3125 30.636719 7.59375 30.675781 C 7.839844 30.863281 8.003906 31.019531 7.929688 31.046875 C 7.816406 31.085938 7.398438 30.910156 6.777344 30.574219 Z M 9.15625 30.921875 C 9.457031 30.96875 9.765625 31.015625 10.046875 31.066406 C 10.1875 31.152344 10.332031 31.242188 10.472656 31.3125 C 10.761719 31.472656 10.945312 31.597656 11.171875 31.738281 C 10.953125 31.71875 10.714844 31.703125 10.46875 31.6875 C 10.066406 31.464844 9.632812 31.210938 9.15625 30.921875 Z M 11.597656 31.398438 C 11.6875 31.421875 11.824219 31.445312 11.90625 31.46875 C 12.425781 31.613281 12.464844 31.613281 12.78125 31.699219 C 12.671875 31.761719 12.5625 31.816406 12.453125 31.886719 C 12.179688 31.738281 11.902344 31.582031 11.597656 31.398438 Z M 13.382812 31.859375 C 13.511719 31.980469 13.757812 32.136719 14.042969 32.296875 C 13.726562 32.230469 13.433594 32.164062 13.09375 32.078125 C 13.195312 32 13.289062 31.929688 13.382812 31.859375 Z M 14.722656 36.578125 C 14.433594 36.578125 13.992188 36.875 13.699219 37.289062 C 13.40625 37.679688 13.1875 38.195312 13.1875 38.464844 C 13.1875 38.78125 13.308594 38.707031 13.652344 38.144531 C 13.917969 37.703125 14.382812 37.191406 14.675781 36.972656 C 15.238281 36.582031 15.238281 36.578125 14.722656 36.578125 Z M 14.722656 36.578125 "/>
<path style=" stroke:none;fill-rule:nonzero;fill:rgb(0%,50.196078%,0%);fill-opacity:1;" d="M 40.285156 40.226562 C 40.007812 40.265625 40.125 40.480469 40.585938 40.660156 C 41.390625 40.976562 45.535156 41.871094 48.472656 42.621094 C 49.566406 42.898438 50.667969 43.175781 51.734375 43.4375 C 51.847656 43.265625 51.960938 43.089844 52.070312 42.910156 C 49.917969 42.464844 47.605469 41.976562 46.257812 41.640625 C 44.257812 41.15625 41.417969 40.386719 40.691406 40.253906 C 40.511719 40.21875 40.378906 40.214844 40.285156 40.226562 Z M 39.796875 40.828125 C 39.519531 40.855469 39.628906 41.074219 40.082031 41.269531 C 40.875 41.617188 44.988281 42.652344 47.894531 43.503906 C 48.957031 43.816406 50.027344 44.125 51.066406 44.421875 C 51.1875 44.25 51.3125 44.082031 51.433594 43.90625 C 49.308594 43.390625 47.035156 42.828125 45.71875 42.449219 C 43.734375 41.890625 40.925781 41.027344 40.203125 40.867188 C 40.023438 40.828125 39.890625 40.816406 39.796875 40.828125 Z M 39.1875 41.253906 C 38.90625 41.269531 39.003906 41.492188 39.449219 41.714844 C 40.21875 42.101562 44.273438 43.351562 47.132812 44.355469 C 48.191406 44.726562 49.261719 45.09375 50.296875 45.449219 C 50.425781 45.285156 50.558594 45.121094 50.6875 44.953125 C 48.582031 44.324219 46.320312 43.636719 45.011719 43.1875 C 43.0625 42.527344 40.300781 41.515625 39.59375 41.316406 C 39.414062 41.269531 39.277344 41.25 39.1875 41.253906 Z M 38.71875 41.742188 C 38.4375 41.742188 38.523438 41.96875 38.953125 42.214844 C 39.707031 42.640625 43.6875 44.101562 46.488281 45.253906 C 47.488281 45.664062 48.488281 46.066406 49.46875 46.464844 C 49.605469 46.304688 49.742188 46.152344 49.875 45.992188 C 47.84375 45.265625 45.683594 44.480469 44.433594 43.972656 C 42.519531 43.214844 39.816406 42.058594 39.117188 41.828125 C 38.941406 41.769531 38.808594 41.742188 38.71875 41.742188 Z M 38.265625 42.363281 C 37.988281 42.355469 38.066406 42.582031 38.488281 42.84375 C 39.226562 43.292969 43.152344 44.898438 45.917969 46.144531 C 46.832031 46.5625 47.746094 46.964844 48.65625 47.371094 C 48.796875 47.222656 48.9375 47.074219 49.074219 46.921875 C 47.132812 46.148438 45.085938 45.320312 43.90625 44.796875 C 42.019531 43.96875 39.355469 42.71875 38.667969 42.464844 C 38.492188 42.398438 38.359375 42.367188 38.265625 42.363281 Z M 37.769531 42.925781 C 37.492188 42.902344 37.554688 43.136719 37.964844 43.417969 C 38.675781 43.90625 42.515625 45.710938 45.207031 47.105469 C 46.035156 47.53125 46.847656 47.945312 47.675781 48.367188 C 47.820312 48.226562 47.964844 48.089844 48.109375 47.949219 C 46.285156 47.109375 44.367188 46.210938 43.269531 45.652344 C 41.433594 44.726562 38.839844 43.339844 38.160156 43.046875 C 37.992188 42.972656 37.863281 42.9375 37.769531 42.925781 Z M 37.769531 42.925781 "/>
<path style=" stroke:none;fill-rule:nonzero;fill:rgb(98.823529%,86.666667%,3.529412%);fill-opacity:1;" d="M 29.449219 48.613281 L 30.242188 49.179688 C 31.375 49.96875 31.996094 51.066406 31.9375 52.199219 L 31.894531 53.136719 L 32.265625 52.214844 C 32.671875 51.25 32.617188 49.792969 32.136719 48.710938 L 31.855469 48.082031 L 32.746094 48.46875 C 34.019531 49.007812 34.855469 49.949219 35.03125 51.074219 L 35.183594 51.996094 L 35.355469 51.019531 C 35.554688 49.992188 35.199219 48.574219 34.503906 47.617188 L 34.097656 47.058594 L 35.050781 47.253906 C 36.40625 47.515625 37.421875 48.265625 37.824219 49.324219 L 38.167969 50.199219 L 38.132812 49.203125 C 38.113281 48.15625 37.46875 46.847656 36.589844 46.054688 L 36.078125 45.59375 L 37.050781 45.585938 C 38.429688 45.558594 39.578125 46.082031 40.195312 47.035156 L 40.710938 47.816406 L 40.46875 46.851562 C 40.234375 45.832031 39.332031 44.683594 38.308594 44.09375 L 37.710938 43.75 L 38.660156 43.539062 C 40.003906 43.222656 41.234375 43.496094 42.035156 44.300781 L 42.703125 44.957031 L 42.269531 44.0625 C 41.824219 43.117188 40.703125 42.183594 39.582031 41.816406 L 38.925781 41.601562 L 39.808594 41.199219 C 41.058594 40.613281 42.320312 40.621094 43.269531 41.242188 L 44.058594 41.746094 L 43.449219 40.964844 C 42.816406 40.128906 41.527344 39.449219 40.351562 39.324219 L 39.667969 39.253906 L 40.449219 38.675781 C 41.550781 37.839844 42.785156 37.585938 43.84375 37.996094 L 44.71875 38.324219 L 43.960938 37.683594 C 43.167969 37 41.765625 36.601562 40.589844 36.726562 L 39.90625 36.796875 L 40.546875 36.070312 C 41.453125 35.023438 42.609375 34.519531 43.726562 34.699219 L 44.652344 34.839844 L 43.777344 34.371094 C 42.863281 33.867188 41.40625 33.769531 40.285156 34.136719 L 39.628906 34.347656 L 40.105469 33.503906 C 40.773438 32.292969 41.796875 31.554688 42.929688 31.5 L 43.867188 31.441406 L 42.910156 31.167969 C 41.910156 30.863281 40.46875 31.074219 39.445312 31.664062 L 38.847656 32.007812 L 39.140625 31.082031 C 39.539062 29.757812 40.390625 28.828125 41.488281 28.535156 L 42.390625 28.285156 L 41.398438 28.214844 C 40.359375 28.125 38.988281 28.628906 38.113281 29.421875 L 37.597656 29.882812 L 37.691406 28.917969 C 37.808594 27.539062 38.449219 26.449219 39.460938 25.933594 L 40.289062 25.503906 L 39.308594 25.640625 C 38.269531 25.769531 37.035156 26.550781 36.34375 27.507812 L 35.9375 28.066406 L 35.828125 27.097656 C 35.65625 25.726562 36.054688 24.527344 36.9375 23.816406 L 37.660156 23.21875 L 36.726562 23.558594 C 35.738281 23.902344 34.695312 24.921875 34.214844 26 L 33.933594 26.632812 L 33.625 25.710938 C 33.171875 24.402344 33.3125 23.148438 34.027344 22.265625 L 34.613281 21.535156 L 33.769531 22.0625 C 32.875 22.601562 32.0625 23.816406 31.820312 24.972656 L 31.675781 25.648438 L 31.183594 24.808594 C 30.46875 23.625 30.34375 22.367188 30.863281 21.359375 L 31.28125 20.519531 L 30.566406 21.210938 C 29.804688 21.925781 29.261719 23.28125 29.261719 24.464844 L 29.261719 25.15625 L 28.605469 24.4375 C 27.664062 23.429688 27.28125 22.222656 27.578125 21.128906 L 27.8125 20.222656 L 27.257812 21.042969 C 26.660156 21.902344 26.410156 23.34375 26.65625 24.5 L 26.800781 25.175781 L 26.007812 24.609375 C 24.875 23.820312 24.253906 22.71875 24.316406 21.585938 L 24.355469 20.652344 L 23.984375 21.570312 C 23.578125 22.535156 23.632812 23.996094 24.113281 25.074219 L 24.394531 25.707031 L 23.503906 25.320312 C 22.230469 24.78125 21.394531 23.835938 21.21875 22.714844 L 21.066406 21.789062 L 20.894531 22.769531 C 20.695312 23.796875 21.054688 25.210938 21.746094 26.167969 L 22.152344 26.726562 L 21.203125 26.535156 C 19.84375 26.273438 18.832031 25.523438 18.425781 24.460938 L 18.082031 23.589844 L 18.117188 24.582031 C 18.136719 25.628906 18.78125 26.941406 19.660156 27.730469 L 20.171875 28.191406 L 19.203125 28.199219 C 17.820312 28.226562 16.671875 27.707031 16.054688 26.753906 L 15.539062 25.972656 L 15.78125 26.933594 C 16.015625 27.953125 16.917969 29.101562 17.941406 29.695312 L 18.539062 30.039062 L 17.589844 30.25 C 16.246094 30.5625 15.015625 30.292969 14.214844 29.488281 L 13.546875 28.828125 L 13.980469 29.722656 C 14.425781 30.671875 15.546875 31.605469 16.671875 31.96875 L 17.324219 32.183594 L 16.441406 32.585938 C 15.191406 33.175781 13.929688 33.164062 12.980469 32.542969 L 12.191406 32.039062 L 12.800781 32.824219 C 13.433594 33.65625 14.722656 34.339844 15.898438 34.460938 L 16.582031 34.535156 L 15.800781 35.113281 C 14.703125 35.949219 13.464844 36.199219 12.40625 35.792969 L 11.53125 35.464844 L 12.292969 36.101562 C 13.082031 36.785156 14.484375 37.183594 15.660156 37.0625 L 16.34375 36.988281 L 15.703125 37.714844 C 14.796875 38.761719 13.640625 39.269531 12.523438 39.085938 L 11.597656 38.949219 L 12.472656 39.414062 C 13.386719 39.921875 14.84375 40.019531 15.96875 39.652344 L 16.621094 39.4375 L 16.144531 40.285156 C 15.476562 41.496094 14.453125 42.230469 13.320312 42.289062 L 12.386719 42.34375 L 13.339844 42.617188 C 14.339844 42.921875 15.78125 42.714844 16.804688 42.121094 L 17.402344 41.777344 L 17.109375 42.703125 C 16.710938 44.027344 15.859375 44.960938 14.761719 45.25 L 13.859375 45.5 L 14.851562 45.570312 C 15.890625 45.660156 17.261719 45.15625 18.140625 44.363281 L 18.652344 43.902344 L 18.558594 44.871094 C 18.441406 46.246094 17.800781 47.335938 16.789062 47.851562 L 15.960938 48.28125 L 16.941406 48.144531 C 17.980469 48.015625 19.214844 47.238281 19.910156 46.28125 L 20.3125 45.722656 L 20.421875 46.6875 C 20.59375 48.058594 20.195312 49.257812 19.3125 49.96875 L 18.589844 50.566406 L 19.523438 50.226562 C 20.511719 49.882812 21.558594 48.867188 22.039062 47.785156 L 22.316406 47.15625 L 22.625 48.078125 C 23.078125 49.382812 22.9375 50.636719 22.222656 51.519531 L 21.636719 52.25 L 22.480469 51.726562 C 23.375 51.183594 24.1875 49.972656 24.433594 48.8125 L 24.574219 48.140625 L 25.066406 48.976562 C 25.78125 50.160156 25.90625 51.417969 25.386719 52.429688 L 24.96875 53.265625 L 25.683594 52.574219 C 26.445312 51.863281 26.988281 50.503906 26.988281 49.320312 L 26.988281 48.632812 L 27.644531 49.347656 C 28.589844 50.359375 28.96875 51.5625 28.675781 52.660156 L 28.4375 53.566406 L 28.992188 52.742188 C 29.589844 51.882812 29.839844 50.445312 29.59375 49.285156 L 29.449219 48.613281 "/>
<path style=" stroke:none;fill-rule:nonzero;fill:rgb(98.823529%,86.666667%,3.529412%);fill-opacity:1;" d="M 27.019531 3.773438 C 26.054688 5.363281 25.9375 6.636719 26.597656 8.835938 C 26.914062 9.863281 27.261719 11.394531 27.410156 12.226562 C 27.605469 13.398438 27.582031 13.511719 27.609375 13.765625 C 27.855469 13.765625 28.410156 13.765625 28.667969 13.765625 C 28.703125 13.359375 28.734375 12.890625 28.820312 12.246094 C 28.921875 11.496094 29.21875 9.921875 29.542969 8.832031 C 30.183594 6.648438 30.140625 5.3125 29.140625 3.796875 C 28.777344 3.234375 28.289062 2.769531 28.066406 2.769531 C 27.847656 2.769531 27.351562 3.199219 27.019531 3.773438 Z M 31.757812 8.277344 C 30.394531 8.863281 29.570312 10.488281 29.121094 12.722656 C 29.039062 13.144531 29.019531 13.292969 28.976562 13.765625 C 29.273438 13.765625 29.390625 13.769531 29.679688 13.765625 C 29.742188 13.449219 29.785156 13.28125 29.925781 12.828125 C 30.476562 11.078125 32.101562 10.378906 32.027344 12.015625 C 32.003906 12.46875 31.8125 12.71875 31.601562 12.960938 C 31.863281 12.898438 32.421875 12.636719 32.871094 12.378906 C 35.386719 10.863281 34.394531 7.152344 31.757812 8.277344 Z M 26.175781 14.335938 C 27.277344 14.339844 29.183594 14.351562 30.101562 14.34375 C 30.101562 14.109375 30.105469 14.230469 30.105469 14.039062 C 29.433594 14.035156 26.851562 14.042969 26.179688 14.042969 C 26.183594 14.167969 26.179688 14.226562 26.175781 14.335938 Z M 26.5 15.628906 C 26.101562 16.058594 25.480469 16.378906 25.480469 16.378906 C 25.480469 16.378906 26.03125 16.441406 26.542969 16.402344 C 27.054688 16.367188 27.339844 16.300781 27.640625 16.15625 C 27.558594 16.765625 27.554688 17.355469 27.554688 17.355469 C 27.628906 18.144531 27.714844 18.34375 27.882812 18.726562 C 28.117188 19.046875 28.25 19.046875 28.421875 18.710938 C 28.605469 18.332031 28.726562 17.945312 28.761719 17.351562 C 28.75 16.910156 28.726562 16.707031 28.621094 16.164062 C 28.972656 16.316406 29.199219 16.355469 29.726562 16.402344 C 30.269531 16.453125 30.765625 16.429688 30.765625 16.429688 C 30.765625 16.429688 30.035156 16.0625 29.714844 15.609375 C 29.394531 15.164062 29.464844 15.242188 29.234375 14.667969 C 28.953125 14.65625 27.527344 14.667969 27.078125 14.667969 C 26.828125 15.191406 26.804688 15.300781 26.5 15.628906 Z M 24.492188 8.277344 C 25.855469 8.863281 26.679688 10.484375 27.128906 12.722656 C 27.210938 13.144531 27.230469 13.292969 27.273438 13.765625 C 26.976562 13.765625 26.859375 13.769531 26.574219 13.765625 C 26.507812 13.449219 26.464844 13.28125 26.324219 12.828125 C 25.773438 11.078125 24.148438 10.378906 24.222656 12.015625 C 24.246094 12.464844 24.4375 12.71875 24.648438 12.960938 C 24.386719 12.894531 23.832031 12.636719 23.378906 12.378906 C 20.867188 10.863281 21.855469 7.152344 24.492188 8.277344 Z M 24.492188 8.277344 "/>
<path style=" stroke:none;fill-rule:nonzero;fill:rgb(98.823529%,86.666667%,3.529412%);fill-opacity:1;" d="M 44.371094 5.207031 C 44.066406 6.25 44.144531 7.324219 44.597656 8.835938 C 44.914062 9.863281 45.261719 11.394531 45.40625 12.226562 C 45.601562 13.398438 45.582031 13.511719 45.609375 13.765625 C 45.855469 13.765625 46.410156 13.765625 46.667969 13.765625 C 46.703125 13.359375 46.734375 12.890625 46.820312 12.246094 C 46.921875 11.496094 47.21875 9.921875 47.542969 8.832031 C 47.625 8.550781 47.695312 8.28125 47.753906 8.027344 C 46.703125 7 45.574219 6.058594 44.371094 5.207031 Z M 41.582031 8.070312 C 39.664062 8.046875 39.179688 11.054688 41.378906 12.378906 C 41.832031 12.636719 42.386719 12.894531 42.648438 12.960938 C 42.4375 12.71875 42.246094 12.464844 42.222656 12.015625 C 42.148438 10.375 43.773438 11.078125 44.324219 12.828125 C 44.464844 13.28125 44.507812 13.445312 44.574219 13.765625 C 44.859375 13.765625 44.976562 13.765625 45.273438 13.765625 C 45.230469 13.292969 45.210938 13.144531 45.128906 12.722656 C 44.679688 10.484375 43.855469 8.863281 42.488281 8.273438 C 42.160156 8.136719 41.859375 8.070312 41.582031 8.070312 Z M 48.730469 9.023438 C 47.960938 9.839844 47.445312 11.121094 47.125 12.722656 C 47.039062 13.144531 47.019531 13.292969 46.976562 13.765625 C 47.273438 13.765625 47.390625 13.769531 47.675781 13.765625 C 47.742188 13.449219 47.785156 13.28125 47.925781 12.828125 C 48.476562 11.078125 50.101562 10.378906 50.027344 12.015625 C 50.003906 12.46875 49.8125 12.71875 49.601562 12.964844 C 49.863281 12.898438 50.417969 12.636719 50.871094 12.378906 C 51 12.300781 51.117188 12.214844 51.230469 12.125 C 50.46875 11.03125 49.632812 9.996094 48.730469 9.023438 Z M 48.109375 14.039062 C 47.433594 14.035156 44.851562 14.042969 44.179688 14.042969 C 44.179688 14.167969 44.179688 14.226562 44.175781 14.335938 C 45.277344 14.339844 47.183594 14.351562 48.097656 14.34375 C 48.101562 14.109375 48.105469 14.230469 48.109375 14.039062 Z M 45.078125 14.667969 C 44.832031 15.191406 44.804688 15.300781 44.5 15.628906 C 44.101562 16.058594 43.480469 16.378906 43.480469 16.378906 C 43.480469 16.378906 44.03125 16.441406 44.542969 16.40625 C 45.054688 16.367188 45.339844 16.300781 45.640625 16.15625 C 45.558594 16.765625 45.554688 17.355469 45.554688 17.355469 C 45.628906 18.140625 45.714844 18.34375 45.886719 18.726562 C 46.117188 19.046875 46.25 19.046875 46.421875 18.710938 C 46.605469 18.332031 46.726562 17.945312 46.765625 17.355469 C 46.75 16.910156 46.722656 16.703125 46.621094 16.160156 C 46.972656 16.316406 47.199219 16.355469 47.726562 16.40625 C 48.269531 16.453125 48.765625 16.425781 48.765625 16.425781 C 48.765625 16.425781 48.035156 16.0625 47.714844 15.609375 C 47.394531 15.167969 47.464844 15.242188 47.234375 14.667969 C 46.953125 14.65625 45.53125 14.667969 45.078125 14.667969 Z M 45.078125 14.667969 "/>
<path style=" stroke:none;fill-rule:nonzero;fill:rgb(98.823529%,86.666667%,3.529412%);fill-opacity:1;" d="M 11.8125 5.253906 C 10.601562 6.117188 9.460938 7.074219 8.402344 8.113281 C 8.457031 8.34375 8.523438 8.585938 8.597656 8.835938 C 8.914062 9.863281 9.261719 11.394531 9.40625 12.226562 C 9.601562 13.398438 9.582031 13.511719 9.609375 13.765625 C 9.855469 13.765625 10.410156 13.765625 10.667969 13.765625 C 10.703125 13.359375 10.734375 12.890625 10.820312 12.246094 C 10.921875 11.496094 11.21875 9.921875 11.542969 8.832031 C 11.976562 7.359375 12.085938 6.273438 11.8125 5.253906 Z M 14.667969 8.070312 C 14.394531 8.070312 14.089844 8.136719 13.761719 8.277344 C 12.394531 8.863281 11.570312 10.488281 11.125 12.722656 C 11.039062 13.144531 11.019531 13.292969 10.976562 13.765625 C 11.273438 13.765625 11.390625 13.769531 11.675781 13.765625 C 11.742188 13.449219 11.785156 13.28125 11.925781 12.828125 C 12.476562 11.078125 14.101562 10.378906 14.027344 12.015625 C 14.003906 12.46875 13.8125 12.71875 13.601562 12.964844 C 13.863281 12.898438 14.417969 12.636719 14.871094 12.378906 C 17.070312 11.054688 16.589844 8.046875 14.667969 8.070312 Z M 7.519531 9.023438 C 6.617188 9.996094 5.78125 11.03125 5.023438 12.125 C 5.132812 12.214844 5.25 12.300781 5.378906 12.378906 C 5.832031 12.636719 6.386719 12.894531 6.648438 12.960938 C 6.4375 12.71875 6.246094 12.464844 6.222656 12.015625 C 6.148438 10.375 7.773438 11.078125 8.324219 12.828125 C 8.464844 13.28125 8.507812 13.445312 8.570312 13.765625 C 8.859375 13.765625 8.976562 13.765625 9.273438 13.765625 C 9.230469 13.292969 9.210938 13.144531 9.128906 12.722656 C 8.808594 11.121094 8.289062 9.839844 7.519531 9.023438 Z M 12.109375 14.039062 C 11.433594 14.035156 8.851562 14.042969 8.179688 14.042969 C 8.179688 14.167969 8.179688 14.226562 8.175781 14.335938 C 9.277344 14.339844 11.183594 14.351562 12.097656 14.34375 C 12.101562 14.109375 12.105469 14.230469 12.109375 14.039062 Z M 9.078125 14.667969 C 8.832031 15.191406 8.804688 15.300781 8.5 15.628906 C 8.101562 16.058594 7.480469 16.378906 7.480469 16.378906 C 7.480469 16.378906 8.03125 16.441406 8.542969 16.40625 C 9.054688 16.367188 9.339844 16.300781 9.640625 16.15625 C 9.558594 16.765625 9.554688 17.355469 9.554688 17.355469 C 9.628906 18.140625 9.714844 18.34375 9.882812 18.726562 C 10.117188 19.046875 10.25 19.046875 10.421875 18.710938 C 10.605469 18.332031 10.726562 17.945312 10.765625 17.355469 C 10.75 16.910156 10.722656 16.703125 10.621094 16.160156 C 10.972656 16.316406 11.199219 16.355469 11.726562 16.40625 C 12.269531 16.453125 12.765625 16.425781 12.765625 16.425781 C 12.765625 16.425781 12.035156 16.0625 11.714844 15.609375 C 11.394531 15.167969 11.464844 15.242188 11.234375 14.667969 C 10.953125 14.65625 9.53125 14.667969 9.078125 14.667969 Z M 9.078125 14.667969 "/>
</g>
</svg>
