<?xml version="1.0" encoding="UTF-8"?>
<!-- Created by grConvert v0.1-0 -->
<svg xmlns="http://www.w3.org/2000/svg" xmlns:xlink="http://www.w3.org/1999/xlink" width="56pt" height="56pt" viewBox="0 0 56 56" version="1.1">
<g id="surface108">
<path style=" stroke:none;fill-rule:nonzero;fill:rgb(0%,45.098039%,81.176471%);fill-opacity:1;" d="M 28.125 0.0625 C 12.933594 0.0625 0.625 12.625 0.625 28.125 C 0.625 43.625 12.933594 56.1875 28.125 56.1875 C 43.316406 56.1875 55.625 43.625 55.625 28.125 C 55.625 12.625 43.316406 0.0625 28.125 0.0625 Z M 28.125 0.0625 "/>
<path style="fill-rule:nonzero;fill:rgb(100%,100%,100%);fill-opacity:1;stroke-width:10.083494;stroke-linecap:butt;stroke-linejoin:miter;stroke:rgb(100%,100%,100%);stroke-opacity:1;stroke-miterlimit:4;" d="M 291.885851 166.681856 C 281.604277 192.416526 275.906439 220.553099 275.906439 249.9998 C 275.906439 279.446502 281.604277 307.583075 291.885851 333.317745 L 708.082684 333.317745 C 718.39609 307.583075 724.093928 279.446502 724.093928 249.9998 C 724.093928 220.553099 718.39609 192.416526 708.082684 166.681856 Z M 291.885851 166.681856 " transform="matrix(0.122717,0,0,0.125226,-33.233272,-3.181538)"/>
<path style=" stroke:none;fill-rule:nonzero;fill:rgb(0%,45.098039%,81.176471%);fill-opacity:1;" d="M 28.125 24.648438 L 27.070312 27.953125 L 28.691406 28.492188 Z M 28.125 24.648438 "/>
<path style=" stroke:none;fill-rule:nonzero;fill:rgb(0%,45.098039%,81.176471%);fill-opacity:1;" d="M 28.125 24.648438 L 29.179688 27.953125 L 27.558594 28.492188 Z M 28.125 24.648438 "/>
<path style=" stroke:none;fill-rule:nonzero;fill:rgb(0%,45.098039%,81.176471%);fill-opacity:1;" d="M 31.367188 27.050781 L 27.960938 27.050781 L 27.960938 28.789062 Z M 31.367188 27.050781 "/>
<path style=" stroke:none;fill-rule:nonzero;fill:rgb(0%,45.098039%,81.176471%);fill-opacity:1;" d="M 31.367188 27.050781 L 28.609375 29.097656 L 27.609375 27.6875 Z M 31.367188 27.050781 "/>
<path style=" stroke:none;fill-rule:nonzero;fill:rgb(0%,45.098039%,81.176471%);fill-opacity:1;" d="M 24.882812 27.050781 L 27.640625 29.097656 L 28.640625 27.6875 Z M 24.882812 27.050781 "/>
<path style=" stroke:none;fill-rule:nonzero;fill:rgb(0%,45.098039%,81.176471%);fill-opacity:1;" d="M 24.882812 27.050781 L 28.289062 27.050781 L 28.289062 28.789062 Z M 24.882812 27.050781 "/>
<path style=" stroke:none;fill-rule:nonzero;fill:rgb(0%,45.098039%,81.176471%);fill-opacity:1;" d="M 30.125 30.9375 L 29.078125 27.632812 L 27.457031 28.167969 Z M 30.125 30.9375 "/>
<path style=" stroke:none;fill-rule:nonzero;fill:rgb(0%,45.098039%,81.176471%);fill-opacity:1;" d="M 30.125 30.9375 L 27.375 28.898438 L 28.375 27.484375 Z M 30.125 30.9375 "/>
<path style=" stroke:none;fill-rule:nonzero;fill:rgb(0%,45.098039%,81.176471%);fill-opacity:1;" d="M 26.125 30.9375 L 28.875 28.898438 L 27.875 27.484375 Z M 26.125 30.9375 "/>
<path style=" stroke:none;fill-rule:nonzero;fill:rgb(0%,45.098039%,81.176471%);fill-opacity:1;" d="M 26.125 30.9375 L 27.171875 27.632812 L 28.792969 28.167969 Z M 26.125 30.9375 "/>
<path style=" stroke:none;fill-rule:nonzero;fill:rgb(0%,45.098039%,81.176471%);fill-opacity:1;" d="M 45.171875 19.082031 L 44.117188 22.386719 L 45.738281 22.925781 Z M 45.171875 19.082031 "/>
<path style=" stroke:none;fill-rule:nonzero;fill:rgb(0%,45.098039%,81.176471%);fill-opacity:1;" d="M 45.171875 19.082031 L 46.21875 22.386719 L 44.601562 22.925781 Z M 45.171875 19.082031 "/>
<path style=" stroke:none;fill-rule:nonzero;fill:rgb(0%,45.098039%,81.176471%);fill-opacity:1;" d="M 48.414062 21.484375 L 45 21.484375 L 45 23.222656 Z M 48.414062 21.484375 "/>
<path style=" stroke:none;fill-rule:nonzero;fill:rgb(0%,45.098039%,81.176471%);fill-opacity:1;" d="M 48.414062 21.484375 L 45.65625 23.53125 L 44.652344 22.125 Z M 48.414062 21.484375 "/>
<path style=" stroke:none;fill-rule:nonzero;fill:rgb(0%,45.098039%,81.176471%);fill-opacity:1;" d="M 41.929688 21.484375 L 44.683594 23.53125 L 45.6875 22.125 Z M 41.929688 21.484375 "/>
<path style=" stroke:none;fill-rule:nonzero;fill:rgb(0%,45.098039%,81.176471%);fill-opacity:1;" d="M 41.929688 21.484375 L 45.335938 21.484375 L 45.335938 23.222656 Z M 41.929688 21.484375 "/>
<path style=" stroke:none;fill-rule:nonzero;fill:rgb(0%,45.098039%,81.176471%);fill-opacity:1;" d="M 47.171875 25.375 L 46.117188 22.066406 L 44.496094 22.601562 Z M 47.171875 25.375 "/>
<path style=" stroke:none;fill-rule:nonzero;fill:rgb(0%,45.098039%,81.176471%);fill-opacity:1;" d="M 47.171875 25.375 L 44.414062 23.328125 L 45.414062 21.921875 Z M 47.171875 25.375 "/>
<path style=" stroke:none;fill-rule:nonzero;fill:rgb(0%,45.098039%,81.176471%);fill-opacity:1;" d="M 43.164062 25.375 L 45.921875 23.328125 L 44.921875 21.921875 Z M 43.164062 25.375 "/>
<path style=" stroke:none;fill-rule:nonzero;fill:rgb(0%,45.098039%,81.176471%);fill-opacity:1;" d="M 43.164062 25.375 L 44.21875 22.066406 L 45.839844 22.601562 Z M 43.164062 25.375 "/>
<path style=" stroke:none;fill-rule:nonzero;fill:rgb(0%,45.098039%,81.176471%);fill-opacity:1;" d="M 45.171875 29.515625 L 44.117188 32.820312 L 45.738281 33.363281 Z M 45.171875 29.515625 "/>
<path style=" stroke:none;fill-rule:nonzero;fill:rgb(0%,45.098039%,81.176471%);fill-opacity:1;" d="M 45.171875 29.515625 L 46.21875 32.820312 L 44.601562 33.363281 Z M 45.171875 29.515625 "/>
<path style=" stroke:none;fill-rule:nonzero;fill:rgb(0%,45.098039%,81.176471%);fill-opacity:1;" d="M 48.414062 31.917969 L 45 31.917969 L 45 33.65625 Z M 48.414062 31.917969 "/>
<path style=" stroke:none;fill-rule:nonzero;fill:rgb(0%,45.098039%,81.176471%);fill-opacity:1;" d="M 48.414062 31.917969 L 45.65625 33.964844 L 44.652344 32.558594 Z M 48.414062 31.917969 "/>
<path style=" stroke:none;fill-rule:nonzero;fill:rgb(0%,45.098039%,81.176471%);fill-opacity:1;" d="M 41.929688 31.917969 L 44.683594 33.964844 L 45.6875 32.558594 Z M 41.929688 31.917969 "/>
<path style=" stroke:none;fill-rule:nonzero;fill:rgb(0%,45.098039%,81.176471%);fill-opacity:1;" d="M 41.929688 31.917969 L 45.335938 31.917969 L 45.335938 33.65625 Z M 41.929688 31.917969 "/>
<path style=" stroke:none;fill-rule:nonzero;fill:rgb(0%,45.098039%,81.176471%);fill-opacity:1;" d="M 47.171875 35.8125 L 46.117188 32.5 L 44.496094 33.039062 Z M 47.171875 35.8125 "/>
<path style=" stroke:none;fill-rule:nonzero;fill:rgb(0%,45.098039%,81.176471%);fill-opacity:1;" d="M 47.171875 35.8125 L 44.414062 33.765625 L 45.414062 32.359375 Z M 47.171875 35.8125 "/>
<path style=" stroke:none;fill-rule:nonzero;fill:rgb(0%,45.098039%,81.176471%);fill-opacity:1;" d="M 43.164062 35.8125 L 45.921875 33.765625 L 44.921875 32.359375 Z M 43.164062 35.8125 "/>
<path style=" stroke:none;fill-rule:nonzero;fill:rgb(0%,45.098039%,81.176471%);fill-opacity:1;" d="M 43.164062 35.8125 L 44.21875 32.5 L 45.839844 33.039062 Z M 43.164062 35.8125 "/>
<path style=" stroke:none;fill-rule:nonzero;fill:rgb(0%,45.098039%,81.176471%);fill-opacity:1;" d="M 11.078125 19.082031 L 10.03125 22.386719 L 11.648438 22.925781 Z M 11.078125 19.082031 "/>
<path style=" stroke:none;fill-rule:nonzero;fill:rgb(0%,45.098039%,81.176471%);fill-opacity:1;" d="M 11.078125 19.082031 L 12.132812 22.386719 L 10.511719 22.925781 Z M 11.078125 19.082031 "/>
<path style=" stroke:none;fill-rule:nonzero;fill:rgb(0%,45.098039%,81.176471%);fill-opacity:1;" d="M 14.320312 21.484375 L 10.914062 21.484375 L 10.914062 23.222656 Z M 14.320312 21.484375 "/>
<path style=" stroke:none;fill-rule:nonzero;fill:rgb(0%,45.098039%,81.176471%);fill-opacity:1;" d="M 14.320312 21.484375 L 11.566406 23.53125 L 10.5625 22.125 Z M 14.320312 21.484375 "/>
<path style=" stroke:none;fill-rule:nonzero;fill:rgb(0%,45.098039%,81.176471%);fill-opacity:1;" d="M 7.835938 21.484375 L 10.59375 23.53125 L 11.597656 22.125 Z M 7.835938 21.484375 "/>
<path style=" stroke:none;fill-rule:nonzero;fill:rgb(0%,45.098039%,81.176471%);fill-opacity:1;" d="M 7.835938 21.484375 L 11.25 21.484375 L 11.25 23.222656 Z M 7.835938 21.484375 "/>
<path style=" stroke:none;fill-rule:nonzero;fill:rgb(0%,45.098039%,81.176471%);fill-opacity:1;" d="M 13.085938 25.375 L 12.03125 22.066406 L 10.410156 22.601562 Z M 13.085938 25.375 "/>
<path style=" stroke:none;fill-rule:nonzero;fill:rgb(0%,45.098039%,81.176471%);fill-opacity:1;" d="M 13.085938 25.375 L 10.328125 23.328125 L 11.328125 21.921875 Z M 13.085938 25.375 "/>
<path style=" stroke:none;fill-rule:nonzero;fill:rgb(0%,45.098039%,81.176471%);fill-opacity:1;" d="M 9.078125 25.375 L 11.835938 23.328125 L 10.835938 21.921875 Z M 9.078125 25.375 "/>
<path style=" stroke:none;fill-rule:nonzero;fill:rgb(0%,45.098039%,81.176471%);fill-opacity:1;" d="M 9.078125 25.375 L 10.132812 22.066406 L 11.753906 22.601562 Z M 9.078125 25.375 "/>
<path style=" stroke:none;fill-rule:nonzero;fill:rgb(0%,45.098039%,81.176471%);fill-opacity:1;" d="M 11.078125 29.515625 L 10.03125 32.820312 L 11.648438 33.363281 Z M 11.078125 29.515625 "/>
<path style=" stroke:none;fill-rule:nonzero;fill:rgb(0%,45.098039%,81.176471%);fill-opacity:1;" d="M 11.078125 29.515625 L 12.132812 32.820312 L 10.511719 33.363281 Z M 11.078125 29.515625 "/>
<path style=" stroke:none;fill-rule:nonzero;fill:rgb(0%,45.098039%,81.176471%);fill-opacity:1;" d="M 14.320312 31.917969 L 10.914062 31.917969 L 10.914062 33.65625 Z M 14.320312 31.917969 "/>
<path style=" stroke:none;fill-rule:nonzero;fill:rgb(0%,45.098039%,81.176471%);fill-opacity:1;" d="M 14.320312 31.917969 L 11.566406 33.964844 L 10.5625 32.558594 Z M 14.320312 31.917969 "/>
<path style=" stroke:none;fill-rule:nonzero;fill:rgb(0%,45.098039%,81.176471%);fill-opacity:1;" d="M 7.835938 31.917969 L 10.59375 33.964844 L 11.597656 32.558594 Z M 7.835938 31.917969 "/>
<path style=" stroke:none;fill-rule:nonzero;fill:rgb(0%,45.098039%,81.176471%);fill-opacity:1;" d="M 7.835938 31.917969 L 11.25 31.917969 L 11.25 33.65625 Z M 7.835938 31.917969 "/>
<path style=" stroke:none;fill-rule:nonzero;fill:rgb(0%,45.098039%,81.176471%);fill-opacity:1;" d="M 13.085938 35.8125 L 12.03125 32.5 L 10.410156 33.039062 Z M 13.085938 35.8125 "/>
<path style=" stroke:none;fill-rule:nonzero;fill:rgb(0%,45.098039%,81.176471%);fill-opacity:1;" d="M 13.085938 35.8125 L 10.328125 33.765625 L 11.328125 32.359375 Z M 13.085938 35.8125 "/>
<path style=" stroke:none;fill-rule:nonzero;fill:rgb(0%,45.098039%,81.176471%);fill-opacity:1;" d="M 9.078125 35.8125 L 11.835938 33.765625 L 10.835938 32.359375 Z M 9.078125 35.8125 "/>
<path style=" stroke:none;fill-rule:nonzero;fill:rgb(0%,45.098039%,81.176471%);fill-opacity:1;" d="M 9.078125 35.8125 L 10.132812 32.5 L 11.753906 33.039062 Z M 9.078125 35.8125 "/>
</g>
</svg>
