<?xml version="1.0" encoding="UTF-8"?>
<!-- Created by grConvert v0.1-0 -->
<svg xmlns="http://www.w3.org/2000/svg" xmlns:xlink="http://www.w3.org/1999/xlink" width="56pt" height="56pt" viewBox="0 0 56 56" version="1.1">
<g id="surface112">
<path style=" stroke:none;fill-rule:nonzero;fill:rgb(0%,60.784314%,22.745098%);fill-opacity:1;" d="M 28.125 0.0351562 C 12.59375 0.0351562 0 12.628906 0 28.160156 C 0 43.695312 12.59375 56.285156 28.125 56.285156 C 43.65625 56.285156 56.25 43.695312 56.25 28.160156 C 56.25 12.628906 43.65625 0.0351562 28.125 0.0351562 Z M 28.125 0.0351562 "/>
<path style=" stroke:none;fill-rule:nonzero;fill:rgb(0%,0%,0%);fill-opacity:1;" d="M 4.535156 12.855469 C 1.671875 17.257812 0 22.515625 0 28.160156 C 0 33.949219 1.75 39.324219 4.742188 43.796875 L 34.125 28.378906 Z M 34.125 28.378906 L 54.128906 38.875 C 55.492188 35.574219 56.25 31.957031 56.25 28.160156 C 56.25 24.503906 55.542969 21.011719 54.273438 17.808594 Z M 34.125 28.378906 "/>
<path style=" stroke:none;fill-rule:nonzero;fill:rgb(99.607843%,81.960784%,0%);fill-opacity:1;" d="M 5.71875 11.167969 C 4.792969 12.386719 3.964844 13.679688 3.246094 15.042969 L 29.113281 28.332031 L 3.382812 41.546875 C 4.121094 42.90625 4.96875 44.1875 5.910156 45.398438 L 34.125 30.90625 L 53.277344 40.746094 C 53.960938 39.382812 54.539062 37.957031 55 36.480469 L 39.136719 28.332031 L 55.082031 20.140625 C 54.644531 18.652344 54.085938 17.21875 53.417969 15.847656 L 34.125 25.757812 Z M 5.71875 11.167969 "/>
</g>
</svg>
