<?xml version="1.0" encoding="UTF-8"?>
<!-- Created by grConvert v0.1-0 -->
<svg xmlns="http://www.w3.org/2000/svg" xmlns:xlink="http://www.w3.org/1999/xlink" width="56pt" height="56pt" viewBox="0 0 56 56" version="1.1">
<g id="surface116">
<path style=" stroke:none;fill-rule:evenodd;fill:rgb(5.098039%,16.862745%,53.333333%);fill-opacity:1;" d="M 28.125 0.0351562 C 12.59375 0.0351562 0 12.628906 0 28.160156 C 0 43.695312 12.59375 56.285156 28.125 56.285156 C 43.65625 56.285156 56.25 43.695312 56.25 28.160156 C 56.25 12.628906 43.65625 0.0351562 28.125 0.0351562 Z M 28.125 0.0351562 "/>
<path style=" stroke:none;fill-rule:evenodd;fill:rgb(100%,100%,100%);fill-opacity:1;" d="M 40.253906 3.476562 L 40.253906 52.84375 C 43.5625 51.210938 46.492188 48.933594 48.890625 46.175781 L 48.890625 10.140625 C 46.492188 7.386719 43.5625 5.105469 40.253906 3.476562 Z M 40.253906 3.476562 "/>
<path style=" stroke:none;fill-rule:evenodd;fill:rgb(100%,100%,100%);fill-opacity:1;" d="M 0.0507812 26.53125 C 0.0195312 27.070312 0 27.613281 0 28.160156 C 0 30.578125 0.304688 32.925781 0.878906 35.164062 L 55.371094 35.164062 C 55.945312 32.925781 56.25 30.578125 56.25 28.160156 C 56.25 27.613281 56.230469 27.070312 56.199219 26.53125 Z M 0.0507812 26.53125 "/>
<path style=" stroke:none;fill-rule:evenodd;fill:rgb(100%,100%,100%);fill-opacity:1;" d="M 13.96875 5.6875 C 12.898438 6.667969 12.476562 8.910156 14.726562 8.863281 C 15.839844 8.84375 17.628906 7.574219 17.820312 6.621094 C 18.570312 6.636719 19.476562 6.738281 20.171875 6.375 C 20.828125 6.027344 21.878906 5.972656 22.277344 6.621094 C 22.722656 7.355469 21.621094 8.3125 20.878906 8.753906 C 20.074219 9.242188 19.597656 9.917969 19.601562 11.402344 C 19.617188 12.363281 19.171875 13.386719 18.792969 14.320312 C 18.457031 15.171875 18.214844 15.597656 18.183594 17.117188 C 18.160156 18.285156 18.363281 19.902344 18.589844 20.644531 C 17.523438 21.636719 15.515625 22.492188 12.921875 22.507812 C 11.550781 22.515625 10.414062 21.6875 9.226562 20.96875 C 8.226562 20.347656 8.097656 21.265625 8.578125 21.820312 C 9.792969 23.175781 12.183594 24.375 14.617188 24.332031 C 17.40625 24.269531 19.015625 23.441406 20.25 22.710938 C 22.085938 23.800781 25.832031 24.070312 28.382812 24.070312 C 30.367188 24.050781 33.207031 23.425781 33.207031 20.757812 C 33.207031 18.71875 31.707031 17.117188 28.195312 17.117188 C 25.957031 17.117188 22.484375 17.867188 21.09375 19.089844 C 20.90625 18.632812 20.949219 17.953125 20.890625 17.402344 C 20.828125 16.554688 21.597656 15.816406 21.878906 14.941406 C 22.113281 14.195312 22.277344 13.511719 22.355469 12.734375 C 22.398438 12.269531 22.183594 11.265625 22.5625 11.027344 C 23.296875 10.554688 24.320312 9.539062 24.488281 8.496094 C 24.625 7.425781 24.605469 6.34375 24.402344 5.464844 C 24.246094 4.535156 23.378906 4.195312 22.601562 4.105469 C 21.675781 4.019531 21.308594 4.554688 20.25 4.59375 C 19.824219 4.546875 17.921875 4.136719 17.058594 4.152344 C 15.691406 4.105469 14.683594 5.058594 13.96875 5.6875 Z M 13.96875 5.6875 "/>
<path style=" stroke:none;fill-rule:evenodd;fill:rgb(5.098039%,16.862745%,53.333333%);fill-opacity:1;" d="M 22.578125 21.125 C 24.132812 20.128906 26.324219 18.925781 27.84375 18.953125 C 29.992188 18.996094 30.941406 21.132812 28.621094 21.761719 C 27.386719 22.097656 23.8125 22.109375 22.578125 21.125 Z M 22.578125 21.125 "/>
<path style=" stroke:none;fill-rule:evenodd;fill:rgb(0%,0%,0%);fill-opacity:1;" d="M 14.230469 6.585938 C 14.453125 6.917969 15.613281 6.402344 15.210938 5.847656 C 14.921875 5.445312 13.910156 6.125 14.230469 6.585938 Z M 14.230469 6.585938 "/>
<path style=" stroke:none;fill-rule:evenodd;fill:rgb(100%,100%,100%);fill-opacity:1;" d="M 22.304688 37.34375 C 21.597656 37.386719 21.203125 37.800781 20.277344 37.835938 C 19.851562 37.789062 17.949219 37.378906 17.085938 37.394531 C 15.71875 37.347656 14.710938 38.300781 13.996094 38.929688 C 12.925781 39.910156 12.503906 42.152344 14.753906 42.109375 C 15.863281 42.085938 17.65625 40.816406 17.84375 39.863281 C 18.597656 39.882812 19.503906 39.980469 20.199219 39.621094 C 20.855469 39.269531 21.90625 39.214844 22.304688 39.863281 C 22.75 40.597656 21.648438 41.554688 20.90625 41.996094 C 20.101562 42.488281 19.621094 43.164062 19.628906 44.644531 C 19.644531 45.609375 19.199219 46.628906 18.816406 47.5625 C 18.480469 48.414062 18.242188 48.839844 18.210938 50.359375 C 18.1875 51.527344 18.390625 53.144531 18.613281 53.886719 C 18.429688 54.058594 18.207031 54.222656 17.96875 54.386719 C 21.117188 55.605469 24.542969 56.285156 28.125 56.285156 C 29.621094 56.285156 31.085938 56.164062 32.515625 55.941406 C 32.957031 55.460938 33.234375 54.828125 33.234375 54 C 33.230469 51.960938 31.730469 50.359375 28.222656 50.359375 C 25.984375 50.363281 22.507812 51.109375 21.121094 52.332031 C 20.933594 51.875 20.976562 51.195312 20.917969 50.644531 C 20.855469 49.796875 21.625 49.058594 21.90625 48.183594 C 22.140625 47.4375 22.304688 46.753906 22.378906 45.980469 C 22.425781 45.511719 22.210938 44.507812 22.589844 44.269531 C 23.324219 43.796875 24.347656 42.785156 24.515625 41.738281 C 24.652344 40.667969 24.632812 39.585938 24.425781 38.707031 C 24.273438 37.777344 23.40625 37.441406 22.628906 37.347656 C 22.511719 37.339844 22.40625 37.335938 22.304688 37.34375 Z M 22.304688 37.34375 "/>
<path style=" stroke:none;fill-rule:evenodd;fill:rgb(5.098039%,16.862745%,53.333333%);fill-opacity:1;" d="M 22.605469 54.367188 C 24.15625 53.375 26.351562 52.167969 27.871094 52.195312 C 30.019531 52.238281 30.96875 54.375 28.648438 55.003906 C 27.414062 55.339844 23.835938 55.351562 22.605469 54.367188 Z M 22.605469 54.367188 "/>
<path style=" stroke:none;fill-rule:evenodd;fill:rgb(0%,0%,0%);fill-opacity:1;" d="M 14.257812 39.828125 C 14.480469 40.160156 15.640625 39.644531 15.238281 39.089844 C 14.949219 38.6875 13.9375 39.367188 14.257812 39.828125 Z M 14.257812 39.828125 "/>
</g>
</svg>
