<?xml version="1.0" encoding="UTF-8"?>
<!-- Created by grConvert v0.1-0 -->
<svg xmlns="http://www.w3.org/2000/svg" xmlns:xlink="http://www.w3.org/1999/xlink" width="56pt" height="56pt" viewBox="0 0 56 56" version="1.1">
<g id="surface124">
<path style=" stroke:none;fill-rule:nonzero;fill:rgb(0%,14.117647%,49.019608%);fill-opacity:1;" d="M 28.125 0.0351562 C 12.59375 0.0351562 0 12.628906 0 28.160156 C 0 43.695312 12.59375 56.285156 28.125 56.285156 C 43.65625 56.285156 56.25 43.695312 56.25 28.160156 C 56.25 12.628906 43.65625 0.0351562 28.125 0.0351562 Z M 28.125 0.0351562 "/>
<path style=" stroke:none;fill-rule:nonzero;fill:rgb(100%,100%,100%);fill-opacity:1;" d="M 31.375 18.277344 L 50.78125 18.277344 L 50.757812 32.085938 C 50.921875 37.636719 47.460938 41.082031 41.09375 42.636719 C 36.574219 41.511719 31.359375 39.191406 31.351562 32.242188 Z M 31.375 18.277344 "/>
<path style="fill-rule:nonzero;fill:rgb(0%,63.529412%,74.117647%);fill-opacity:1;stroke-width:1.8125;stroke-linecap:butt;stroke-linejoin:miter;stroke:rgb(0%,0%,0%);stroke-opacity:1;stroke-miterlimit:4;" d="M 775.149762 153.023839 L 1020.638113 153.023839 L 1020.327891 328.195391 C 1022.396032 398.615596 978.603144 442.305077 898.100752 462.004121 C 840.91665 447.733948 774.942948 418.31464 774.839541 330.211829 Z M 775.149762 153.023839 " transform="matrix(0.0755509,0,0,0.0755509,-26.758604,7.130312)"/>
<path style=" stroke:none;fill-rule:nonzero;fill:rgb(64.705882%,23.921569%,3.137255%);fill-opacity:1;" d="M 50.207031 33.492188 C 49.535156 38.570312 45.621094 40.789062 41.09375 41.96875 C 37.082031 40.890625 32.769531 39.175781 31.933594 33.519531 Z M 50.207031 33.492188 "/>
<path style=" stroke:none;fill-rule:nonzero;fill:rgb(0%,0%,0%);fill-opacity:1;" d="M 40.359375 21.15625 L 40.332031 19.488281 L 41.652344 19.503906 L 41.664062 21.15625 L 45.269531 21.15625 L 45.285156 22.449219 L 41.664062 22.464844 L 41.636719 37.710938 L 40.347656 37.71875 L 40.332031 22.449219 L 36.738281 22.464844 L 36.738281 21.144531 Z M 40.359375 21.15625 "/>
<path style="fill-rule:evenodd;fill:rgb(100%,60.392157%,3.137255%);fill-opacity:1;stroke-width:0.9676;stroke-linecap:butt;stroke-linejoin:miter;stroke:rgb(0%,0%,0%);stroke-opacity:1;stroke-miterlimit:4;" d="M 849.70625 357.252774 L 893.395731 402.596768 C 908.544864 385.999935 898.049048 323.903999 878.194893 312.477519 C 875.764828 319.81942 871.731952 328.660723 867.44056 331.504417 C 857.978814 337.915655 834.712226 345.46437 842.519459 350.324501 C 844.277379 347.894435 848.878993 345.567777 851.050541 350.996647 C 853.687421 359.579433 841.433685 360.148172 841.433685 360.148172 C 841.433685 360.148172 833.626452 359.165805 832.282161 351.255165 C 830.937869 343.396229 843.863751 336.157735 844.949525 335.640699 C 846.035299 335.227071 862.942353 330.728864 865.786047 315.734841 C 869.301887 301.051039 872.972837 303.222587 873.696686 302.96407 C 895.722389 305.135618 910.147674 344.58541 910.97493 372.401908 C 911.802186 400.166702 899.703561 418.521454 897.480309 419.762339 C 895.308761 421.003224 844.949525 359.993061 844.949525 359.993061 Z M 849.70625 357.252774 " transform="matrix(0.0755509,0,0,0.0755509,-26.758604,7.130312)"/>
<path style="fill-rule:nonzero;fill:rgb(100%,60.392157%,3.137255%);fill-opacity:1;stroke-width:0.9676;stroke-linecap:butt;stroke-linejoin:miter;stroke:rgb(0%,0%,0%);stroke-opacity:1;stroke-miterlimit:4;" d="M 881.555623 315.062695 L 881.865844 396.90938 " transform="matrix(0.0755509,0,0,0.0755509,-26.758604,7.130312)"/>
<path style="fill-rule:nonzero;fill:rgb(100%,60.392157%,3.137255%);fill-opacity:1;stroke-width:0.9676;stroke-linecap:butt;stroke-linejoin:miter;stroke:rgb(0%,0%,0%);stroke-opacity:1;stroke-miterlimit:4;" d="M 876.695491 316.562098 C 876.695491 316.717208 876.954009 390.911771 876.954009 390.911771 " transform="matrix(0.0755509,0,0,0.0755509,-26.758604,7.130312)"/>
<path style="fill-rule:nonzero;fill:rgb(100%,60.392157%,3.137255%);fill-opacity:1;stroke-width:0.9676;stroke-linecap:butt;stroke-linejoin:miter;stroke:rgb(0%,0%,0%);stroke-opacity:1;stroke-miterlimit:4;" d="M 871.370028 327.316431 L 871.628545 386.413564 " transform="matrix(0.0755509,0,0,0.0755509,-26.758604,7.130312)"/>
<path style="fill-rule:nonzero;fill:rgb(100%,60.392157%,3.137255%);fill-opacity:1;stroke-width:0.9676;stroke-linecap:butt;stroke-linejoin:miter;stroke:rgb(0%,0%,0%);stroke-opacity:1;stroke-miterlimit:4;" d="M 867.026931 331.556121 L 867.285449 380.415954 " transform="matrix(0.0755509,0,0,0.0755509,-26.758604,7.130312)"/>
<path style="fill:none;stroke-width:0.9676;stroke-linecap:butt;stroke-linejoin:miter;stroke:rgb(0%,0%,0%);stroke-opacity:1;stroke-miterlimit:4;" d="M 862.373614 333.727669 L 862.373614 374.987084 " transform="matrix(0.0755509,0,0,0.0755509,-26.758604,7.130312)"/>
<path style="fill:none;stroke-width:0.9676;stroke-linecap:butt;stroke-linejoin:miter;stroke:rgb(0%,0%,0%);stroke-opacity:1;stroke-miterlimit:4;" d="M 857.358372 336.984991 L 857.358372 369.661621 " transform="matrix(0.0755509,0,0,0.0755509,-26.758604,7.130312)"/>
<path style="fill:none;stroke-width:0.9676;stroke-linecap:butt;stroke-linejoin:miter;stroke:rgb(0%,0%,0%);stroke-opacity:1;stroke-miterlimit:4;" d="M 852.963572 339.570167 L 852.963572 364.594675 " transform="matrix(0.0755509,0,0,0.0755509,-26.758604,7.130312)"/>
<path style="fill:none;stroke-width:0.9676;stroke-linecap:round;stroke-linejoin:miter;stroke:rgb(100%,87.45098%,0%);stroke-opacity:1;stroke-miterlimit:4;" d="M 849.034104 362.423127 L 894.11958 414.023248 " transform="matrix(0.0755509,0,0,0.0755509,-26.758604,7.130312)"/>
<path style="fill:none;stroke-width:1.8125;stroke-linecap:round;stroke-linejoin:miter;stroke:rgb(100%,87.45098%,0%);stroke-opacity:1;stroke-miterlimit:4;" d="M 896.291128 329.901608 C 896.291128 329.901608 916.714022 374.573456 897.79053 411.334664 " transform="matrix(0.0755509,0,0,0.0755509,-26.758604,7.130312)"/>
<path style="fill:none;stroke-width:1.8125;stroke-linecap:round;stroke-linejoin:miter;stroke:rgb(100%,87.45098%,0%);stroke-opacity:1;stroke-miterlimit:4;" d="M 843.70864 353.064788 C 843.70864 353.064788 845.208043 349.083617 847.121073 350.738129 " transform="matrix(0.0755509,0,0,0.0755509,-26.758604,7.130312)"/>
<path style="fill:none;stroke-width:1.8125;stroke-linecap:round;stroke-linejoin:miter;stroke:rgb(100%,87.45098%,0%);stroke-opacity:1;stroke-miterlimit:4;" d="M 840.1928 341.586605 C 840.1928 341.586605 832.023643 348.825099 836.52185 353.478416 " transform="matrix(0.0755509,0,0,0.0755509,-26.758604,7.130312)"/>
<path style="fill-rule:nonzero;fill:rgb(0%,50.196078%,12.941176%);fill-opacity:1;stroke-width:0.3987;stroke-linecap:butt;stroke-linejoin:miter;stroke:rgb(0%,0%,0%);stroke-opacity:1;stroke-miterlimit:4;" d="M 905.804577 228.045658 C 908.803382 225.460482 910.354488 223.857672 912.267518 224.167893 C 914.128845 224.426411 916.662318 224.2713 918.523645 223.702562 C 920.436676 223.133823 929.743311 221.996345 933.569372 223.288933 C 934.86196 223.444044 936.568176 224.167893 939.25676 226.391145 C 941.89364 228.614397 945.823108 232.492161 944.478816 243.349902 C 943.186228 254.155939 943.65156 258.757553 943.082821 264.806866 C 942.04875 275.457793 939.670388 284.247393 935.430699 283.575247 C 941.16979 293.657435 941.738529 302.291924 945.512887 309.220197 C 949.235541 316.148469 951.562199 330.263532 950.114501 345.567777 C 948.666802 360.820317 944.633927 395.15146 956.732552 418.211233 C 954.716115 419.658932 949.855983 418.211233 945.512887 413.609619 C 941.16979 409.008005 939.308463 409.163116 935.689216 411.903403 C 924.728068 420.227671 914.49077 430.309859 899.39334 420.227671 C 895.929203 417.952716 894.791726 415.160725 897.376902 408.129045 C 903.684733 390.549846 906.786944 366.404298 905.804577 355.081226 Z M 905.804577 228.045658 " transform="matrix(0.0755509,0,0,0.0755509,-26.758604,7.130312)"/>
<path style="fill-rule:nonzero;fill:rgb(100%,88.235294%,81.176471%);fill-opacity:1;stroke-width:0.3987;stroke-linecap:butt;stroke-linejoin:miter;stroke:rgb(0%,0%,0%);stroke-opacity:1;stroke-miterlimit:4;" d="M 916.145283 217.239621 C 916.972539 219.669686 917.386167 222.875305 916.093579 225.718999 C 914.800991 228.614397 914.49077 232.078533 916.662318 236.266519 C 920.126454 231.354684 925.03829 232.388754 927.933687 229.493357 C 930.829085 226.597959 931.397823 223.857672 933.569372 223.288933 C 931.397823 221.427606 928.088798 219.411169 928.760944 213.930595 C 929.484793 208.450021 937.136915 203.951814 930.208642 195.575842 C 925.762139 190.198676 919.247494 191.698078 916.455504 193.817923 C 915.111212 194.80029 914.025438 196.196285 913.560106 197.126948 C 913.146478 198.057612 913.663513 200.177456 912.629443 201.418341 C 911.905593 202.297301 911.026634 203.176261 910.044266 203.90011 C 909.372121 204.365442 909.010196 205.037588 909.682342 205.864844 C 909.940859 206.175066 910.457895 206.226769 911.026634 206.433583 C 910.716412 207.054026 910.354488 207.726171 909.992563 208.191503 C 909.630638 208.605131 909.785749 209.01876 910.199377 209.380684 C 909.630638 211.138604 910.664709 211.293715 909.992563 212.638007 C 909.320417 213.723781 908.493161 215.068072 910.819819 216.360661 C 911.491965 216.722585 914.542473 217.446435 916.145283 217.239621 Z M 916.145283 217.239621 " transform="matrix(0.0755509,0,0,0.0755509,-26.758604,7.130312)"/>
<path style="fill-rule:nonzero;fill:rgb(100%,88.235294%,81.176471%);fill-opacity:1;stroke-width:0.3987;stroke-linecap:butt;stroke-linejoin:miter;stroke:rgb(0%,0%,0%);stroke-opacity:1;stroke-miterlimit:4;" d="M 888.121971 245.935079 C 884.089096 246.917446 877.626155 245.211229 872.714319 245.779968 C 870.542771 246.038486 868.784851 244.901008 869.095072 242.72946 C 869.35359 240.609615 869.663811 237.248886 869.250183 234.250081 C 868.578037 229.54506 870.801289 222.978712 874.006908 215.791922 C 877.160823 208.553428 878.763632 204.520553 878.763632 201.159823 C 878.763632 198.936572 878.970446 196.403099 880.986884 195.110511 C 882.486286 194.128144 882.744804 193.19748 883.313543 192.421927 C 884.502724 190.612304 885.691905 190.198676 885.795312 191.28445 C 885.898719 191.904892 885.691905 192.525334 885.071463 193.352591 C 886.415754 192.266817 888.587302 191.025932 889.104338 190.664007 C 889.621373 190.302083 892.154846 188.492459 892.309956 190.198676 C 893.292323 189.68164 894.016173 189.733344 894.274691 190.250379 C 894.533208 190.870821 894.378098 191.077636 893.861062 191.542967 C 894.584912 191.387857 895.412168 192.628741 893.964469 193.766219 C 894.740022 193.507701 895.463872 194.748586 894.11958 195.937767 C 892.775288 197.126948 891.172479 197.954205 890.707147 198.884868 C 890.190112 199.815532 886.777679 202.452412 885.381684 203.02115 C 884.037392 203.589889 883.933985 204.417146 883.933985 206.433583 C 883.933985 228.614397 881.297105 226.804773 881.297105 232.130237 C 881.297105 233.577935 880.986884 234.870524 882.434583 234.456895 C 883.882281 234.043267 885.950423 233.371121 888.121971 233.371121 Z M 888.121971 245.935079 " transform="matrix(0.0755509,0,0,0.0755509,-26.758604,7.130312)"/>
<path style="fill-rule:nonzero;fill:rgb(100%,88.235294%,81.176471%);fill-opacity:1;stroke-width:0.3987;stroke-linecap:butt;stroke-linejoin:miter;stroke:rgb(0%,0%,0%);stroke-opacity:1;stroke-miterlimit:4;" d="M 889.000931 293.812545 C 895.515575 290.555223 902.960883 289.314338 906.890351 288.331971 C 910.768116 287.297901 916.972539 284.299096 919.971344 282.696287 C 923.021852 281.093477 925.451918 278.921929 927.209838 278.353191 C 928.916054 277.784452 930.880788 276.595271 931.966562 274.475426 C 937.602247 263.514278 940.601051 254.724678 940.601051 247.072556 C 940.601051 242.00561 939.308463 236.421629 934.396628 240.454505 C 929.795014 244.228862 924.779772 251.570763 923.43548 256.896226 C 921.419043 264.961977 919.712826 266.668193 919.247494 268.271003 C 918.833866 269.873812 917.179353 269.873812 915.214619 270.28744 C 906.735241 272.148767 904.718803 273.441355 898.359269 278.19808 C 891.999735 282.954804 885.071463 287.14279 880.469849 289.77967 C 875.868235 292.364847 874.989275 292.623364 874.006908 294.743209 C 872.972837 296.81135 872.042174 298.414159 871.163214 299.344823 C 870.335957 300.275486 870.077439 301.36126 870.23255 302.498738 C 870.387661 303.429402 869.974032 307.772498 869.870625 309.220197 C 869.818922 310.667895 870.180847 311.02982 870.749585 311.081524 C 871.318324 311.184931 872.093877 310.87471 872.404098 309.168493 C 872.093877 310.87471 874.523943 310.305971 874.62735 309.013383 C 874.575646 310.87471 877.109119 309.788935 877.26423 308.082719 C 877.26423 309.2719 879.125557 308.444644 879.332371 307.875905 C 879.745999 306.428206 880.107924 304.825397 880.676663 303.687919 C 881.555623 301.981703 882.434583 299.810155 884.089096 298.620973 C 885.950423 297.276682 885.071463 295.725576 889.000931 293.812545 Z M 889.000931 293.812545 " transform="matrix(0.0755509,0,0,0.0755509,-26.758604,7.130312)"/>
<path style="fill-rule:nonzero;fill:rgb(100%,88.235294%,81.176471%);fill-opacity:1;stroke-width:0.3987;stroke-linecap:butt;stroke-linejoin:miter;stroke:rgb(0%,0%,0%);stroke-opacity:1;stroke-miterlimit:4;" d="M 935.689216 411.903403 C 936.154548 413.454509 936.930101 415.264132 937.240322 416.349906 C 937.49884 417.43568 936.981804 417.745902 936.723287 418.366344 C 935.223885 421.520259 933.569372 426.587205 933.310854 429.327492 C 933.207447 430.930301 932.121673 432.429703 931.604638 433.360367 C 931.035899 434.394438 931.242713 435.16999 932.535301 436.152357 C 933.155743 436.669393 935.120477 436.04895 935.327292 435.01488 C 936.051141 435.738729 937.343729 435.480212 937.912468 434.394438 C 938.584614 435.01488 939.670388 434.601252 940.394237 433.515478 C 941.01468 433.929106 941.997047 433.050146 942.358971 432.481407 C 943.341338 432.998442 944.427113 432.378 944.478816 430.413266 C 944.478816 429.999638 944.737334 429.327492 944.995851 428.86216 C 945.306072 428.396828 945.40948 427.466165 945.357776 426.690612 C 945.306072 425.915059 945.823108 424.31225 946.495254 423.174772 C 947.219103 422.088998 948.408284 420.124264 947.891249 418.211233 C 947.425917 416.453313 946.650364 416.660127 946.029922 414.126655 C 944.427113 412.472142 942.255564 410.145483 940.032313 409.990372 C 937.809061 409.886965 936.516473 411.386368 935.689216 411.903403 Z M 935.689216 411.903403 " transform="matrix(0.0755509,0,0,0.0755509,-26.758604,7.130312)"/>
<path style="fill-rule:nonzero;fill:rgb(100%,88.235294%,81.176471%);fill-opacity:1;stroke-width:0.3987;stroke-linecap:butt;stroke-linejoin:miter;stroke:rgb(0%,0%,0%);stroke-opacity:1;stroke-miterlimit:4;" d="M 894.688319 424.260546 C 896.704756 426.276984 901.254667 426.380391 904.408582 422.967958 C 903.271104 422.502626 900.737631 421.313445 899.600154 420.382781 C 897.997345 421.985591 896.187721 423.795214 894.688319 424.260546 Z M 894.688319 424.260546 " transform="matrix(0.0755509,0,0,0.0755509,-26.758604,7.130312)"/>
<path style="fill-rule:nonzero;fill:rgb(52.941176%,5.882353%,0%);fill-opacity:1;stroke-width:0.3987;stroke-linecap:butt;stroke-linejoin:miter;stroke:rgb(0%,0%,0%);stroke-opacity:1;stroke-miterlimit:4;" d="M 915.111212 195.007104 C 915.886765 189.888454 919.506012 190.043565 921.780967 190.5606 C 922.711631 190.767414 925.03829 190.974228 927.209838 190.40549 C 931.501231 189.268012 934.706849 190.767414 934.241518 194.903697 C 935.430699 195.730953 936.61988 197.747391 936.413066 199.505311 C 936.206252 201.211527 936.568176 201.935376 938.170986 202.14219 C 939.722091 202.400708 943.134524 204.313739 940.911273 207.054026 C 943.082821 208.346614 944.737334 211.65564 943.548153 213.930595 C 942.410675 216.153847 938.946539 216.515771 937.49884 214.499334 C 935.947734 215.223183 933.310854 215.378294 931.759748 213.723781 C 930.673974 215.016369 927.933687 214.861258 927.416652 213.723781 C 926.899617 212.5346 926.07236 211.914157 925.03829 211.603936 C 923.900812 211.242011 923.797405 208.088096 925.555325 207.726171 C 925.348511 206.795508 925.400214 205.709734 925.813842 205.192699 C 926.279174 204.675663 925.91725 203.745 924.883179 202.969447 C 923.900812 202.14219 923.021852 199.143386 924.004219 197.488873 C 922.298003 198.057612 918.471942 196.403099 917.696389 195.265621 C 916.869132 194.07644 915.835062 194.024737 915.111212 195.007104 Z M 915.111212 195.007104 " transform="matrix(0.0755509,0,0,0.0755509,-26.758604,7.130312)"/>
<path style="fill:none;stroke-width:0.3987;stroke-linecap:butt;stroke-linejoin:miter;stroke:rgb(0%,0%,0%);stroke-opacity:1;stroke-miterlimit:4;" d="M 916.145283 217.239621 C 918.988977 216.877696 919.91964 215.119776 921.987781 215.274887 " transform="matrix(0.0755509,0,0,0.0755509,-26.758604,7.130312)"/>
<path style="fill:none;stroke-width:0.3987;stroke-linecap:butt;stroke-linejoin:miter;stroke:rgb(0%,0%,0%);stroke-opacity:1;stroke-miterlimit:4;" d="M 910.199377 209.380684 C 910.354488 209.587499 910.613005 209.690906 910.871523 209.846016 C 911.440262 210.156237 912.060704 210.207941 912.629443 210.259644 " transform="matrix(0.0755509,0,0,0.0755509,-26.758604,7.130312)"/>
<path style="fill:none;stroke-width:0.3987;stroke-linecap:butt;stroke-linejoin:miter;stroke:rgb(0%,0%,0%);stroke-opacity:1;stroke-miterlimit:4;" d="M 911.026634 206.433583 C 911.388558 206.53699 911.85389 206.743804 912.215815 207.157433 " transform="matrix(0.0755509,0,0,0.0755509,-26.758604,7.130312)"/>
<path style="fill:none;stroke-width:0.3987;stroke-linecap:butt;stroke-linejoin:miter;stroke:rgb(0%,0%,0%);stroke-opacity:1;stroke-miterlimit:4;" d="M 917.541278 195.007104 C 915.886765 193.455998 920.333269 190.198676 925.03829 194.80029 C 925.91725 195.67925 928.140501 195.67925 928.760944 195.472435 " transform="matrix(0.0755509,0,0,0.0755509,-26.758604,7.130312)"/>
<path style="fill:none;stroke-width:0.3987;stroke-linecap:butt;stroke-linejoin:miter;stroke:rgb(0%,0%,0%);stroke-opacity:1;stroke-miterlimit:4;" d="M 924.004219 197.488873 C 926.175767 196.971838 929.433089 196.971838 930.363753 199.401904 C 931.294416 201.883673 933.207447 200.280863 934.706849 203.176261 C 936.206252 206.071659 938.584614 209.277277 940.911273 207.054026 " transform="matrix(0.0755509,0,0,0.0755509,-26.758604,7.130312)"/>
<path style="fill:none;stroke-width:0.3987;stroke-linecap:butt;stroke-linejoin:miter;stroke:rgb(0%,0%,0%);stroke-opacity:1;stroke-miterlimit:4;" d="M 931.759748 213.723781 C 931.087602 212.844821 930.829085 210.983494 931.242713 209.639202 C 930.363753 208.656835 930.725678 206.53699 931.242713 205.554623 " transform="matrix(0.0755509,0,0,0.0755509,-26.758604,7.130312)"/>
<path style="fill:none;stroke-width:0.3987;stroke-linecap:butt;stroke-linejoin:miter;stroke:rgb(0%,0%,0%);stroke-opacity:1;stroke-miterlimit:4;" d="M 925.555325 207.726171 C 925.607028 208.553428 926.744506 210.156237 928.554129 210.466458 " transform="matrix(0.0755509,0,0,0.0755509,-26.758604,7.130312)"/>
<path style="fill:none;stroke-width:0.3987;stroke-linecap:butt;stroke-linejoin:miter;stroke:rgb(0%,0%,0%);stroke-opacity:1;stroke-miterlimit:4;" d="M 937.49884 214.499334 C 936.516473 213.206745 936.61988 212.017564 936.878397 210.466458 " transform="matrix(0.0755509,0,0,0.0755509,-26.758604,7.130312)"/>
<path style="fill:none;stroke-width:0.3987;stroke-linecap:butt;stroke-linejoin:miter;stroke:rgb(0%,0%,0%);stroke-opacity:1;stroke-miterlimit:4;" d="M 927.003024 200.125753 C 926.899617 201.418341 927.726873 203.176261 929.071165 203.745 C 929.381386 204.468849 930.829085 206.485287 933.672779 206.175066 " transform="matrix(0.0755509,0,0,0.0755509,-26.758604,7.130312)"/>
<path style="fill:none;stroke-width:0.3987;stroke-linecap:butt;stroke-linejoin:miter;stroke:rgb(0%,0%,0%);stroke-opacity:1;stroke-miterlimit:4;" d="M 934.241518 194.903697 C 932.690412 193.662812 930.518864 192.16341 927.726873 191.749781 " transform="matrix(0.0755509,0,0,0.0755509,-26.758604,7.130312)"/>
<path style="fill:none;stroke-width:0.3987;stroke-linecap:butt;stroke-linejoin:miter;stroke:rgb(0%,0%,0%);stroke-opacity:1;stroke-miterlimit:4;" d="M 916.662318 236.266519 C 914.232252 239.575545 912.629443 244.177159 913.76692 250.691803 C 914.956102 257.154744 916.817429 266.668193 912.060704 271.01129 " transform="matrix(0.0755509,0,0,0.0755509,-26.758604,7.130312)"/>
<path style="fill:none;stroke-width:0.3987;stroke-linecap:butt;stroke-linejoin:miter;stroke:rgb(0%,0%,0%);stroke-opacity:1;stroke-miterlimit:4;" d="M 935.430699 283.575247 C 932.121673 282.851397 927.364948 282.851397 924.728068 284.712724 C 922.142892 286.574051 917.799796 286.729162 914.956102 285.281463 " transform="matrix(0.0755509,0,0,0.0755509,-26.758604,7.130312)"/>
<path style="fill:none;stroke-width:0.3987;stroke-linecap:butt;stroke-linejoin:miter;stroke:rgb(0%,0%,0%);stroke-opacity:1;stroke-miterlimit:4;" d="M 928.450722 283.316729 C 925.555325 283.833764 924.15933 285.850202 924.15933 291.175665 C 924.15933 296.552832 923.021852 304.308361 924.004219 311.960484 " transform="matrix(0.0755509,0,0,0.0755509,-26.758604,7.130312)"/>
<path style="fill:none;stroke-width:0.3987;stroke-linecap:butt;stroke-linejoin:miter;stroke:rgb(0%,0%,0%);stroke-opacity:1;stroke-miterlimit:4;" d="M 923.176963 285.591684 C 921.263932 286.057016 919.350902 286.160423 919.712826 291.175665 " transform="matrix(0.0755509,0,0,0.0755509,-26.758604,7.130312)"/>
<path style="fill:none;stroke-width:0.3987;stroke-linecap:butt;stroke-linejoin:miter;stroke:rgb(0%,0%,0%);stroke-opacity:1;stroke-miterlimit:4;" d="M 913.456699 291.330776 C 913.508403 288.228564 914.594177 285.333167 916.610615 285.850202 " transform="matrix(0.0755509,0,0,0.0755509,-26.758604,7.130312)"/>
<path style="fill:none;stroke-width:0.3987;stroke-linecap:butt;stroke-linejoin:miter;stroke:rgb(0%,0%,0%);stroke-opacity:1;stroke-miterlimit:4;" d="M 934.189814 291.899515 C 934.344925 285.074649 932.845522 283.109915 930.829085 283.213322 C 933.569372 283.265026 935.430699 283.62695 936.568176 294.794912 C 937.447136 303.170884 939.205056 306.117985 941.16979 312.684333 C 946.391847 329.694794 943.754967 355.960186 946.391847 365.163414 " transform="matrix(0.0755509,0,0,0.0755509,-26.758604,7.130312)"/>
<path style="fill:none;stroke-width:0.3987;stroke-linecap:butt;stroke-linejoin:miter;stroke:rgb(0%,0%,0%);stroke-opacity:1;stroke-miterlimit:4;" d="M 930.208642 293.915952 C 935.689216 309.788935 938.584614 327.368135 929.639904 355.649965 C 935.689216 372.350204 941.738529 384.500533 942.92771 391.428806 " transform="matrix(0.0755509,0,0,0.0755509,-26.758604,7.130312)"/>
<path style="fill:none;stroke-width:0.3987;stroke-linecap:butt;stroke-linejoin:miter;stroke:rgb(0%,0%,0%);stroke-opacity:1;stroke-miterlimit:4;" d="M 912.939664 331.40101 C 913.922031 327.833467 910.354488 327.368135 913.508403 314.700771 C 914.852695 309.220197 915.111212 305.911171 914.232252 304.153251 " transform="matrix(0.0755509,0,0,0.0755509,-26.758604,7.130312)"/>
<path style="fill:none;stroke-width:0.3987;stroke-linecap:butt;stroke-linejoin:miter;stroke:rgb(0%,0%,0%);stroke-opacity:1;stroke-miterlimit:4;" d="M 914.232252 311.650262 C 912.939664 317.285947 918.420238 327.833467 915.679951 335.485589 " transform="matrix(0.0755509,0,0,0.0755509,-26.758604,7.130312)"/>
<path style="fill:none;stroke-width:0.3987;stroke-linecap:butt;stroke-linejoin:miter;stroke:rgb(0%,0%,0%);stroke-opacity:1;stroke-miterlimit:4;" d="M 908.906789 336.881584 C 908.906789 341.793419 910.044266 348.152953 909.734045 353.064788 C 909.475528 357.976623 911.440262 360.251579 913.76692 364.853193 C 922.142892 381.605136 927.83028 393.548651 927.054727 409.266523 C 926.899617 412.161921 927.933687 418.211233 924.883179 419.969153 " transform="matrix(0.0755509,0,0,0.0755509,-26.758604,7.130312)"/>
<path style="fill:none;stroke-width:0.3987;stroke-linecap:butt;stroke-linejoin:miter;stroke:rgb(0%,0%,0%);stroke-opacity:1;stroke-miterlimit:4;" d="M 909.113603 424.208843 C 909.992563 424.260546 910.923226 423.846918 912.009001 421.261741 C 913.094775 418.676565 916.507207 403.0621 915.111212 392.411173 " transform="matrix(0.0755509,0,0,0.0755509,-26.758604,7.130312)"/>
<path style="fill:none;stroke-width:0.3987;stroke-linecap:butt;stroke-linejoin:miter;stroke:rgb(0%,0%,0%);stroke-opacity:1;stroke-miterlimit:4;" d="M 916.817429 404.509798 C 917.231057 407.818824 917.231057 414.64369 915.111212 419.969153 " transform="matrix(0.0755509,0,0,0.0755509,-26.758604,7.130312)"/>
<path style="fill:none;stroke-width:0.3987;stroke-linecap:butt;stroke-linejoin:miter;stroke:rgb(0%,0%,0%);stroke-opacity:1;stroke-miterlimit:4;" d="M 922.298003 394.582721 C 923.590591 401.666104 923.43548 407.973935 922.453113 412.472142 " transform="matrix(0.0755509,0,0,0.0755509,-26.758604,7.130312)"/>
<path style="fill:none;stroke-width:0.3987;stroke-linecap:butt;stroke-linejoin:miter;stroke:rgb(0%,0%,0%);stroke-opacity:1;stroke-miterlimit:4;" d="M 919.402605 412.472142 C 919.557716 415.315836 920.850304 422.55433 918.678756 423.123068 " transform="matrix(0.0755509,0,0,0.0755509,-26.758604,7.130312)"/>
<path style="fill:none;stroke-width:0.3987;stroke-linecap:butt;stroke-linejoin:miter;stroke:rgb(0%,0%,0%);stroke-opacity:1;stroke-miterlimit:4;" d="M 930.208642 379.019959 C 935.534106 387.344227 939.722091 407.973935 944.220298 412.317031 " transform="matrix(0.0755509,0,0,0.0755509,-26.758604,7.130312)"/>
<path style="fill:none;stroke-width:0.3987;stroke-linecap:butt;stroke-linejoin:miter;stroke:rgb(0%,0%,0%);stroke-opacity:1;stroke-miterlimit:4;" d="M 934.86196 409.008005 C 934.706849 406.681347 934.551739 403.527431 933.25915 402.079733 " transform="matrix(0.0755509,0,0,0.0755509,-26.758604,7.130312)"/>
<path style="fill:none;stroke-width:0.3987;stroke-linecap:butt;stroke-linejoin:miter;stroke:rgb(0%,0%,0%);stroke-opacity:1;stroke-miterlimit:4;" d="M 877.26423 308.082719 C 877.315933 306.47991 877.005712 304.980507 878.763632 302.498738 " transform="matrix(0.0755509,0,0,0.0755509,-26.758604,7.130312)"/>
<path style="fill:none;stroke-width:0.3987;stroke-linecap:butt;stroke-linejoin:miter;stroke:rgb(0%,0%,0%);stroke-opacity:1;stroke-miterlimit:4;" d="M 874.62735 309.013383 C 874.885868 303.429402 874.782461 302.96407 876.38527 301.412964 " transform="matrix(0.0755509,0,0,0.0755509,-26.758604,7.130312)"/>
<path style="fill:none;stroke-width:0.3987;stroke-linecap:butt;stroke-linejoin:miter;stroke:rgb(0%,0%,0%);stroke-opacity:1;stroke-miterlimit:4;" d="M 872.404098 309.168493 C 872.455802 305.187321 871.99047 303.791326 873.541576 301.309557 " transform="matrix(0.0755509,0,0,0.0755509,-26.758604,7.130312)"/>
<path style="fill:none;stroke-width:0.3987;stroke-linecap:butt;stroke-linejoin:miter;stroke:rgb(0%,0%,0%);stroke-opacity:1;stroke-miterlimit:4;" d="M 892.309956 190.198676 C 891.689514 190.612304 888.070267 193.352591 886.570865 194.490068 " transform="matrix(0.0755509,0,0,0.0755509,-26.758604,7.130312)"/>
<path style="fill:none;stroke-width:0.3987;stroke-linecap:butt;stroke-linejoin:miter;stroke:rgb(0%,0%,0%);stroke-opacity:1;stroke-miterlimit:4;" d="M 893.861062 191.542967 C 893.188916 191.646374 891.172479 193.249184 887.656639 195.989471 " transform="matrix(0.0755509,0,0,0.0755509,-26.758604,7.130312)"/>
<path style="fill:none;stroke-width:0.3987;stroke-linecap:butt;stroke-linejoin:miter;stroke:rgb(0%,0%,0%);stroke-opacity:1;stroke-miterlimit:4;" d="M 893.964469 193.766219 C 892.826992 194.283254 890.707147 196.299692 888.794117 197.695687 " transform="matrix(0.0755509,0,0,0.0755509,-26.758604,7.130312)"/>
<path style="fill:none;stroke-width:0.3987;stroke-linecap:butt;stroke-linejoin:miter;stroke:rgb(0%,0%,0%);stroke-opacity:1;stroke-miterlimit:4;" d="M 885.071463 193.352591 C 884.554427 193.766219 883.520357 194.903697 883.003321 195.317325 " transform="matrix(0.0755509,0,0,0.0755509,-26.758604,7.130312)"/>
<path style="fill:none;stroke-width:0.3987;stroke-linecap:butt;stroke-linejoin:miter;stroke:rgb(0%,0%,0%);stroke-opacity:1;stroke-miterlimit:4;" d="M 935.327292 435.01488 C 935.01707 434.652955 935.01707 433.41207 935.585809 432.016075 " transform="matrix(0.0755509,0,0,0.0755509,-26.758604,7.130312)"/>
<path style="fill:none;stroke-width:0.3987;stroke-linecap:butt;stroke-linejoin:miter;stroke:rgb(0%,0%,0%);stroke-opacity:1;stroke-miterlimit:4;" d="M 937.912468 434.394438 C 937.550543 433.980809 937.912468 432.222889 938.326096 431.137115 " transform="matrix(0.0755509,0,0,0.0755509,-26.758604,7.130312)"/>
<path style="fill:none;stroke-width:0.3987;stroke-linecap:butt;stroke-linejoin:miter;stroke:rgb(0%,0%,0%);stroke-opacity:1;stroke-miterlimit:4;" d="M 940.394237 433.515478 C 939.928906 433.308663 939.773795 432.274593 940.445941 430.930301 " transform="matrix(0.0755509,0,0,0.0755509,-26.758604,7.130312)"/>
<path style="fill:none;stroke-width:0.3987;stroke-linecap:butt;stroke-linejoin:miter;stroke:rgb(0%,0%,0%);stroke-opacity:1;stroke-miterlimit:4;" d="M 942.358971 432.481407 C 941.997047 432.378 941.841936 431.860965 942.462378 430.258155 " transform="matrix(0.0755509,0,0,0.0755509,-26.758604,7.130312)"/>
<path style=" stroke:none;fill-rule:nonzero;fill:rgb(0%,0%,0%);fill-opacity:1;" d="M 42.292969 22.207031 C 42.371094 22.3125 42.453125 22.300781 42.46875 22.367188 C 42.480469 22.433594 42.492188 22.4375 42.507812 22.457031 C 42.523438 22.476562 42.46875 22.472656 42.445312 22.464844 C 42.417969 22.453125 42.355469 22.453125 42.316406 22.453125 C 42.277344 22.457031 42.230469 22.410156 42.261719 22.402344 C 42.289062 22.398438 42.285156 22.390625 42.28125 22.367188 C 42.277344 22.347656 42.296875 22.316406 42.308594 22.3125 C 42.320312 22.304688 42.3125 22.304688 42.300781 22.277344 C 42.289062 22.25 42.277344 22.183594 42.292969 22.207031 Z M 42.292969 22.207031 "/>
<path style=" stroke:none;fill-rule:nonzero;fill:rgb(0%,0%,0%);fill-opacity:1;" d="M 42.339844 22.113281 C 42.429688 22.125 42.582031 22.171875 42.664062 22.261719 C 42.730469 22.335938 42.675781 22.316406 42.644531 22.320312 C 42.609375 22.320312 42.546875 22.296875 42.511719 22.257812 C 42.480469 22.214844 42.386719 22.164062 42.332031 22.152344 C 42.300781 22.144531 42.273438 22.105469 42.339844 22.113281 Z M 42.339844 22.113281 "/>
<path style=" stroke:none;fill-rule:nonzero;fill:rgb(100%,100%,100%);fill-opacity:1;" d="M 25.164062 0.191406 C 11.039062 1.671875 0.0273438 13.601562 0.00390625 28.113281 L 6.644531 28.113281 L 6.644531 19.230469 L 19.332031 28.113281 L 25.164062 28.113281 L 25.164062 26.960938 L 12.21875 17.894531 L 25.164062 17.894531 L 25.164062 9.316406 L 12.222656 9.316406 L 25.164062 0.257812 Z M 25.164062 0.191406 "/>
<path style=" stroke:none;fill-rule:nonzero;fill:rgb(81.176471%,7.843137%,16.862745%);fill-opacity:1;" d="M 23.46875 0.421875 C 20.113281 0.984375 16.960938 2.136719 14.121094 3.773438 L 10.015625 6.648438 C 3.902344 11.796875 0.015625 19.5 0.00390625 28.113281 L 4.976562 28.113281 L 4.976562 17.042969 L 20.785156 28.113281 L 25.164062 28.113281 L 25.164062 27.980469 L 8.382812 16.230469 L 25.164062 16.230469 L 25.164062 10.988281 L 8.386719 10.988281 Z M 23.46875 0.421875 "/>
</g>
</svg>
