<?xml version="1.0" encoding="UTF-8"?>
<!-- Created by grConvert v0.1-0 -->
<svg xmlns="http://www.w3.org/2000/svg" xmlns:xlink="http://www.w3.org/1999/xlink" width="56pt" height="56pt" viewBox="0 0 56 56" version="1.1">
<g id="surface128">
<path style=" stroke:none;fill-rule:nonzero;fill:rgb(12.941176%,27.45098%,54.509804%);fill-opacity:1;" d="M 28.125 0.0351562 C 12.59375 0.0351562 0 12.628906 0 28.160156 C 0 43.695312 12.59375 56.285156 28.125 56.285156 C 43.65625 56.285156 56.25 43.695312 56.25 28.160156 C 56.25 12.628906 43.65625 0.0351562 28.125 0.0351562 Z M 28.125 0.0351562 "/>
<path style=" stroke:none;fill-rule:nonzero;fill:rgb(100%,100%,100%);fill-opacity:1;" d="M 28.125 0.0351562 C 12.59375 0.0351562 0 12.628906 0 28.160156 C 0 31.453125 0.570312 34.609375 1.609375 37.546875 L 54.640625 37.546875 C 55.679688 34.609375 56.25 31.453125 56.25 28.160156 C 56.25 12.628906 43.65625 0.0351562 28.125 0.0351562 Z M 28.125 0.0351562 "/>
<path style=" stroke:none;fill-rule:nonzero;fill:rgb(68.235294%,10.980392%,15.686275%);fill-opacity:1;" d="M 28.125 0.0351562 C 15.886719 0.0351562 5.476562 7.855469 1.609375 18.773438 L 54.640625 18.773438 C 50.773438 7.855469 40.363281 0.0351562 28.125 0.0351562 Z M 28.125 0.0351562 "/>
</g>
</svg>
