<?xml version="1.0" encoding="UTF-8"?>
<!-- Created by grConvert v0.1-0 -->
<svg xmlns="http://www.w3.org/2000/svg" xmlns:xlink="http://www.w3.org/1999/xlink" width="56pt" height="56pt" viewBox="0 0 56 56" version="1.1">
<g id="surface496">
<path style=" stroke:none;fill-rule:nonzero;fill:rgb(100%,100%,100%);fill-opacity:1;" d="M 56.25 28.160156 C 56.25 43.695312 43.65625 56.285156 28.125 56.285156 C 12.59375 56.285156 0 43.695312 0 28.160156 C 0 12.625 12.59375 0.0351562 28.125 0.0351562 C 43.65625 0.0351562 56.25 12.625 56.25 28.160156 Z M 56.25 28.160156 "/>
<path style=" stroke:none;fill-rule:nonzero;fill:rgb(0%,32.156863%,57.647059%);fill-opacity:1;" d="M 10.078125 34.292969 L 8.199219 40.070312 L 11.089844 41.011719 Z M 10.078125 34.292969 "/>
<path style=" stroke:none;fill-rule:nonzero;fill:rgb(0%,32.156863%,57.647059%);fill-opacity:1;" d="M 10.078125 34.292969 L 11.953125 40.070312 L 9.066406 41.011719 Z M 10.078125 34.292969 "/>
<path style=" stroke:none;fill-rule:nonzero;fill:rgb(0%,32.156863%,57.647059%);fill-opacity:1;" d="M 15.851562 38.492188 L 9.78125 38.492188 L 9.78125 41.527344 Z M 15.851562 38.492188 "/>
<path style=" stroke:none;fill-rule:nonzero;fill:rgb(0%,32.156863%,57.647059%);fill-opacity:1;" d="M 15.851562 38.492188 L 10.9375 42.0625 L 9.15625 39.605469 Z M 15.851562 38.492188 "/>
<path style=" stroke:none;fill-rule:nonzero;fill:rgb(0%,32.156863%,57.647059%);fill-opacity:1;" d="M 4.300781 38.492188 L 9.214844 42.0625 L 10.996094 39.605469 Z M 4.300781 38.492188 "/>
<path style=" stroke:none;fill-rule:nonzero;fill:rgb(0%,32.156863%,57.647059%);fill-opacity:1;" d="M 4.300781 38.492188 L 10.371094 38.492188 L 10.371094 41.527344 Z M 4.300781 38.492188 "/>
<path style=" stroke:none;fill-rule:nonzero;fill:rgb(0%,32.156863%,57.647059%);fill-opacity:1;" d="M 13.640625 45.28125 L 11.765625 39.507812 L 8.882812 40.445312 Z M 13.640625 45.28125 "/>
<path style=" stroke:none;fill-rule:nonzero;fill:rgb(0%,32.156863%,57.647059%);fill-opacity:1;" d="M 13.640625 45.28125 L 8.734375 41.714844 L 10.515625 39.253906 Z M 13.640625 45.28125 "/>
<path style=" stroke:none;fill-rule:nonzero;fill:rgb(0%,32.156863%,57.647059%);fill-opacity:1;" d="M 6.507812 45.28125 L 11.421875 41.714844 L 9.632812 39.253906 Z M 6.507812 45.28125 "/>
<path style=" stroke:none;fill-rule:nonzero;fill:rgb(0%,32.156863%,57.647059%);fill-opacity:1;" d="M 6.507812 45.28125 L 8.382812 39.507812 L 11.269531 40.445312 Z M 6.507812 45.28125 "/>
<path style=" stroke:none;fill-rule:nonzero;fill:rgb(0%,32.156863%,57.647059%);fill-opacity:1;" d="M 28.125 0 C 12.59375 0 0 12.609375 0 28.160156 C 0 28.179688 0 28.195312 0 28.210938 L 28.285156 28.210938 L 28.285156 0 C 28.234375 0 28.179688 0 28.125 0 Z M 28.125 0 "/>
<path style=" stroke:none;fill-rule:nonzero;fill:rgb(82.352941%,6.27451%,20.392157%);fill-opacity:1;" d="M 28.285156 28.210938 L 28.285156 56.324219 C 43.730469 56.234375 56.21875 43.6875 56.25 28.210938 Z M 28.285156 28.210938 "/>
<path style=" stroke:none;fill-rule:nonzero;fill:rgb(82.352941%,6.27451%,20.392157%);fill-opacity:1;" d="M 46.5 9.980469 L 44.617188 15.757812 L 47.507812 16.699219 Z M 46.5 9.980469 "/>
<path style=" stroke:none;fill-rule:nonzero;fill:rgb(82.352941%,6.27451%,20.392157%);fill-opacity:1;" d="M 46.5 9.980469 L 48.375 15.757812 L 45.488281 16.699219 Z M 46.5 9.980469 "/>
<path style=" stroke:none;fill-rule:nonzero;fill:rgb(82.352941%,6.27451%,20.392157%);fill-opacity:1;" d="M 52.269531 14.179688 L 46.203125 14.179688 L 46.203125 17.21875 Z M 52.269531 14.179688 "/>
<path style=" stroke:none;fill-rule:nonzero;fill:rgb(82.352941%,6.27451%,20.392157%);fill-opacity:1;" d="M 52.269531 14.179688 L 47.359375 17.75 L 45.578125 15.292969 Z M 52.269531 14.179688 "/>
<path style=" stroke:none;fill-rule:nonzero;fill:rgb(82.352941%,6.27451%,20.392157%);fill-opacity:1;" d="M 40.722656 14.179688 L 45.632812 17.75 L 47.417969 15.292969 Z M 40.722656 14.179688 "/>
<path style=" stroke:none;fill-rule:nonzero;fill:rgb(82.352941%,6.27451%,20.392157%);fill-opacity:1;" d="M 40.722656 14.179688 L 46.792969 14.179688 L 46.792969 17.21875 Z M 40.722656 14.179688 "/>
<path style=" stroke:none;fill-rule:nonzero;fill:rgb(82.352941%,6.27451%,20.392157%);fill-opacity:1;" d="M 50.0625 20.972656 L 48.1875 15.191406 L 45.304688 16.132812 Z M 50.0625 20.972656 "/>
<path style=" stroke:none;fill-rule:nonzero;fill:rgb(82.352941%,6.27451%,20.392157%);fill-opacity:1;" d="M 50.0625 20.972656 L 45.15625 17.402344 L 46.9375 14.941406 Z M 50.0625 20.972656 "/>
<path style=" stroke:none;fill-rule:nonzero;fill:rgb(82.352941%,6.27451%,20.392157%);fill-opacity:1;" d="M 42.929688 20.972656 L 47.84375 17.402344 L 46.054688 14.941406 Z M 42.929688 20.972656 "/>
<path style=" stroke:none;fill-rule:nonzero;fill:rgb(82.352941%,6.27451%,20.392157%);fill-opacity:1;" d="M 42.929688 20.972656 L 44.804688 15.191406 L 47.691406 16.132812 Z M 42.929688 20.972656 "/>
</g>
</svg>
