<?xml version="1.0" encoding="UTF-8"?>
<!-- Created by grConvert v0.1-0 -->
<svg xmlns="http://www.w3.org/2000/svg" xmlns:xlink="http://www.w3.org/1999/xlink" width="56pt" height="56pt" viewBox="0 0 56 56" version="1.1">
<g id="surface500">
<path style=" stroke:none;fill-rule:nonzero;fill:rgb(92.941176%,0%,0%);fill-opacity:1;" d="M 28.125 0.0351562 C 12.59375 0.0351562 0 12.628906 0 28.160156 C 0 43.695312 12.59375 56.285156 28.125 56.285156 C 43.65625 56.285156 56.25 43.695312 56.25 28.160156 C 56.25 12.628906 43.65625 0.0351562 28.125 0.0351562 Z M 28.125 0.0351562 "/>
<path style=" stroke:none;fill-rule:nonzero;fill:rgb(100%,100%,100%);fill-opacity:1;" d="M 5.96875 10.84375 C 3.386719 14.148438 1.523438 18.039062 0.617188 22.285156 L 55.628906 22.285156 C 54.726562 18.039062 52.863281 14.148438 50.28125 10.84375 Z M 0.578125 33.84375 C 1.445312 38.085938 3.273438 41.976562 5.820312 45.285156 L 50.429688 45.285156 C 52.976562 41.976562 54.804688 38.085938 55.671875 33.84375 Z M 0.578125 33.84375 "/>
<path style=" stroke:none;fill-rule:nonzero;fill:rgb(0%,31.372549%,94.117647%);fill-opacity:1;" d="M 9.890625 6.757812 C 3.839844 11.914062 0 19.585938 0 28.160156 C 0 36.734375 3.839844 44.40625 9.890625 49.5625 L 46.964844 28.160156 Z M 9.890625 6.757812 "/>
<path style=" stroke:none;fill-rule:nonzero;fill:rgb(100%,100%,100%);fill-opacity:1;" d="M 19.183594 35.992188 L 13.757812 32.191406 L 8.3125 35.964844 L 10.15625 29.492188 L 4.976562 25.34375 L 11.542969 25.140625 L 13.785156 18.804688 L 16 25.152344 L 22.566406 25.382812 L 17.367188 29.507812 Z M 19.183594 35.992188 "/>
</g>
</svg>
