<?xml version="1.0" encoding="UTF-8"?>
<!-- Created by grConvert v0.1-0 -->
<svg xmlns="http://www.w3.org/2000/svg" xmlns:xlink="http://www.w3.org/1999/xlink" width="56pt" height="56pt" viewBox="0 0 56 56" version="1.1">
<g id="surface504">
<path style=" stroke:none;fill-rule:nonzero;fill:rgb(100%,100%,100%);fill-opacity:1;" d="M 56.25 28.160156 C 56.25 43.695312 43.65625 56.285156 28.125 56.285156 C 12.59375 56.285156 0 43.695312 0 28.160156 C 0 12.625 12.59375 0.0351562 28.125 0.0351562 C 43.65625 0.0351562 56.25 12.625 56.25 28.160156 Z M 56.25 28.160156 "/>
<path style="fill-rule:nonzero;fill:rgb(80.784314%,5.882353%,14.509804%);fill-opacity:1;stroke-width:1;stroke-linecap:butt;stroke-linejoin:miter;stroke:rgb(13.333333%,10.588235%,5.882353%);stroke-opacity:1;stroke-miterlimit:4;" d="M 659.06673 394.379249 C 672.030599 412.804747 660.327106 446.294742 662.127644 457.698145 C 687.635256 452.776676 725.566576 416.945983 684.694378 401.461362 C 676.531942 397.920305 667.709309 396.179786 659.06673 394.379249 Z M 659.06673 394.379249 " transform="matrix(0.0650847,0,0,0.0650847,-2.383466,7.820211)"/>
<path style=" stroke:none;fill-rule:nonzero;fill:rgb(98.039216%,97.254902%,94.117647%);fill-opacity:1;" d="M 36.941406 40.597656 C 38.554688 39.710938 40.492188 40.308594 42.101562 39.5 C 42.425781 38 43.652344 36.285156 43.441406 34.769531 C 42.871094 33.960938 41.105469 33.121094 40.492188 33.59375 C 42.003906 33.347656 44.609375 35.605469 42 36.179688 C 39.972656 36.832031 37.765625 36.714844 35.757812 37.402344 C 34.539062 38.328125 37.058594 39.445312 36.941406 40.597656 Z M 36.941406 40.597656 "/>
<path style="fill:none;stroke-width:1;stroke-linecap:butt;stroke-linejoin:miter;stroke:rgb(13.333333%,10.588235%,5.882353%);stroke-opacity:1;stroke-miterlimit:4;" d="M 604.210359 503.611847 C 628.997757 489.987781 658.766641 499.170522 683.49402 486.746814 C 688.475507 463.699936 707.321131 437.352073 704.080164 414.065124 C 695.317549 401.641416 668.189453 388.737565 658.766641 395.999732 C 681.993572 392.218604 722.025519 426.908957 681.933554 435.73159 C 650.784258 445.754581 616.874139 443.954043 586.024932 454.517196 C 567.11929 467.841172 606.010897 486.326689 604.210359 503.611847 Z M 604.210359 503.611847 " transform="matrix(0.0650847,0,0,0.0650847,-2.383466,7.820211)"/>
<path style=" stroke:none;fill-rule:nonzero;fill:rgb(96.470588%,89.411765%,74.509804%);fill-opacity:1;" d="M 43.214844 35.972656 C 41.421875 37.289062 38.941406 36.84375 37.058594 37.554688 C 36.753906 38.046875 35.621094 38.46875 36.335938 39.054688 C 36.824219 40.046875 37.429688 40.648438 38.550781 39.902344 C 40.128906 39.71875 42.269531 39.953125 42.191406 37.703125 C 42.523438 37.121094 42.925781 36.582031 43.214844 35.972656 Z M 43.214844 35.972656 "/>
<path style="fill-rule:nonzero;fill:rgb(80.784314%,5.882353%,14.509804%);fill-opacity:1;stroke-width:1;stroke-linecap:butt;stroke-linejoin:miter;stroke:rgb(13.333333%,10.588235%,5.882353%);stroke-opacity:1;stroke-miterlimit:4;" d="M 594.847565 514.835197 C 606.551058 493.168731 556.616156 460.098862 595.86787 473.602892 C 610.932365 474.863268 659.546873 456.557805 634.759476 486.206653 C 622.935948 497.610056 608.891756 506.492707 594.847565 514.835197 Z M 594.847565 514.835197 " transform="matrix(0.0650847,0,0,0.0650847,-2.383466,7.820211)"/>
<path style="fill-rule:nonzero;fill:rgb(80.784314%,5.882353%,14.509804%);fill-opacity:1;stroke-width:1;stroke-linecap:butt;stroke-linejoin:miter;stroke:rgb(13.333333%,10.588235%,5.882353%);stroke-opacity:1;stroke-miterlimit:4;" d="M 278.373119 394.379249 C 265.40925 412.804747 277.052725 446.294742 275.252188 457.698145 C 249.804593 452.776676 211.873273 416.945983 252.745471 401.461362 C 260.907907 397.920305 269.670522 396.179786 278.373119 394.379249 Z M 278.373119 394.379249 " transform="matrix(0.0650847,0,0,0.0650847,-2.383466,7.820211)"/>
<path style=" stroke:none;fill-rule:nonzero;fill:rgb(98.039216%,97.254902%,94.117647%);fill-opacity:1;" d="M 19.304688 40.597656 C 17.691406 39.710938 15.753906 40.308594 14.144531 39.5 C 13.820312 38 12.59375 36.285156 12.804688 34.769531 C 13.375 33.960938 15.136719 33.121094 15.753906 33.59375 C 14.238281 33.347656 11.632812 35.605469 14.246094 36.179688 C 16.273438 36.832031 18.476562 36.714844 20.488281 37.402344 C 21.707031 38.328125 19.183594 39.445312 19.304688 40.597656 Z M 19.304688 40.597656 "/>
<path style="fill:none;stroke-width:1;stroke-linecap:butt;stroke-linejoin:miter;stroke:rgb(13.333333%,10.588235%,5.882353%);stroke-opacity:1;stroke-miterlimit:4;" d="M 333.22949 503.611847 C 308.442093 489.987781 278.673209 499.170522 253.945829 486.746814 C 248.964342 463.699936 230.118718 437.352073 233.359686 414.065124 C 242.122301 401.641416 269.190379 388.737565 278.673209 395.999732 C 255.386259 392.218604 215.354312 426.908957 255.506295 435.73159 C 286.655591 445.754581 320.505693 443.954043 351.414917 454.517196 C 370.320559 467.841172 331.428953 486.326689 333.22949 503.611847 Z M 333.22949 503.611847 " transform="matrix(0.0650847,0,0,0.0650847,-2.383466,7.820211)"/>
<path style=" stroke:none;fill-rule:nonzero;fill:rgb(96.470588%,89.411765%,74.509804%);fill-opacity:1;" d="M 13.03125 35.972656 C 14.824219 37.289062 17.304688 36.84375 19.1875 37.554688 C 19.492188 38.046875 20.625 38.46875 19.910156 39.054688 C 19.421875 40.046875 18.816406 40.648438 17.695312 39.902344 C 16.113281 39.71875 13.976562 39.953125 14.054688 37.703125 C 13.71875 37.121094 13.316406 36.582031 13.03125 35.972656 Z M 13.03125 35.972656 "/>
<path style="fill-rule:nonzero;fill:rgb(80.784314%,5.882353%,14.509804%);fill-opacity:1;stroke-width:1;stroke-linecap:butt;stroke-linejoin:miter;stroke:rgb(13.333333%,10.588235%,5.882353%);stroke-opacity:1;stroke-miterlimit:4;" d="M 342.532266 514.835197 C 330.828773 493.168731 380.823693 460.098862 341.57198 473.602892 C 326.447466 474.863268 277.892976 456.557805 302.680373 486.206653 C 314.503902 497.610056 328.488075 506.492707 342.532266 514.835197 Z M 342.532266 514.835197 " transform="matrix(0.0650847,0,0,0.0650847,-2.383466,7.820211)"/>
<path style="fill-rule:nonzero;fill:rgb(98.039216%,97.254902%,94.117647%);fill-opacity:1;stroke-width:1;stroke-linecap:butt;stroke-linejoin:miter;stroke:rgb(13.333333%,10.588235%,5.882353%);stroke-opacity:1;stroke-miterlimit:4;" d="M 305.261143 543.163651 C 278.133047 527.859083 301.119907 490.347889 291.937167 465.680527 C 308.622146 460.158879 352.915365 483.925972 352.855347 458.358342 C 316.424475 439.272646 381.964034 460.759059 353.215454 474.623196 C 338.511066 484.826241 277.712922 458.298324 311.863113 487.166939 C 360.717693 527.799065 425.056894 548.685299 488.495826 542.803543 C 543.83234 539.502558 597.908479 514.475089 637.22021 475.703518 C 630.078079 466.880885 567.659451 492.148426 580.323231 457.758163 C 593.767243 449.175602 604.570467 448.455387 584.584502 458.358342 C 581.943714 491.968372 658.646605 440.533022 644.662431 482.185453 C 639.800981 507.152904 657.386229 540.162755 622.335768 549.22546 C 547.853541 594.659019 453.085259 607.622887 370.980756 575.693359 C 347.933878 567.350869 325.907305 556.367591 305.261143 543.163651 Z M 305.261143 543.163651 " transform="matrix(0.0650847,0,0,0.0650847,-2.383466,7.820211)"/>
<path style=" stroke:none;fill-rule:nonzero;fill:rgb(96.470588%,89.411765%,74.509804%);fill-opacity:1;" d="M 39.101562 42.667969 C 39.757812 41.65625 38.914062 40.339844 39.3125 39.191406 C 33.726562 44.777344 23.980469 45.078125 17.933594 40.066406 C 17.183594 39.347656 16.695312 38.910156 17.011719 40.308594 C 15.957031 42.941406 18.960938 43.707031 20.773438 44.625 C 25.613281 46.871094 31.390625 46.710938 36.140625 44.320312 C 37.164062 43.835938 38.152344 43.277344 39.101562 42.667969 Z M 39.101562 42.667969 "/>
<path style=" stroke:none;fill-rule:nonzero;fill:rgb(0%,0%,0%);fill-opacity:1;" d="M 21.425781 43.648438 C 22.507812 41.734375 24.230469 45.160156 21.980469 44.722656 C 21.527344 44.605469 21.257812 44.085938 21.425781 43.648438 Z M 22.800781 44.171875 C 22.820312 41.621094 20.539062 45.179688 22.628906 44.496094 Z M 22.800781 44.171875 "/>
<path style=" stroke:none;fill-rule:nonzero;fill:rgb(0%,0%,0%);fill-opacity:1;" d="M 23.527344 44.15625 C 23.320312 43.015625 24.511719 43.617188 23.730469 44.507812 C 24.070312 46.484375 24.742188 43.628906 24.863281 43.847656 C 25.460938 43.925781 24.039062 46.433594 23.425781 44.816406 C 23.40625 44.589844 23.480469 44.375 23.527344 44.15625 Z M 23.527344 44.15625 "/>
<path style=" stroke:none;fill-rule:nonzero;fill:rgb(0%,0%,0%);fill-opacity:1;" d="M 25.417969 45.019531 C 25.46875 45.75 24.382812 45.644531 25.183594 45.089844 C 25.585938 44.269531 26.113281 43.445312 26.175781 45.070312 C 26.753906 46.386719 26.023438 45.28125 25.570312 45.039062 L 25.460938 45.023438 Z M 25.871094 44.976562 C 26.09375 43.859375 25.035156 45.015625 25.800781 44.964844 Z M 25.871094 44.976562 "/>
<path style=" stroke:none;fill-rule:nonzero;fill:rgb(0%,0%,0%);fill-opacity:1;" d="M 26.992188 45.457031 C 27.167969 46.214844 26.425781 45.554688 26.851562 44.773438 C 26.597656 42.90625 28.355469 46.472656 28.117188 44.832031 C 27.703125 43.984375 28.683594 43.90625 28.277344 44.742188 C 28.507812 46.371094 27.636719 45.386719 27 44.574219 C 26.996094 44.871094 26.996094 45.164062 26.992188 45.457031 Z M 26.992188 45.457031 "/>
<path style=" stroke:none;fill-rule:nonzero;fill:rgb(0%,0%,0%);fill-opacity:1;" d="M 29.0625 45.214844 C 29.273438 45.917969 28.191406 46.046875 28.851562 45.335938 C 29.070312 44.449219 29.40625 43.53125 29.816406 45.101562 C 30.664062 46.269531 29.714844 45.34375 29.21875 45.203125 L 29.109375 45.210938 Z M 29.496094 45.078125 C 29.480469 43.941406 28.691406 45.296875 29.425781 45.082031 Z M 29.496094 45.078125 "/>
<path style=" stroke:none;fill-rule:nonzero;fill:rgb(0%,0%,0%);fill-opacity:1;" d="M 30.777344 44.957031 C 30.765625 45.765625 32.246094 44.949219 30.996094 45.546875 C 29.898438 46.125 30.976562 44.296875 30.15625 44.074219 C 31.308594 43.640625 30.371094 44.1875 30.777344 44.957031 Z M 30.777344 44.957031 "/>
<path style=" stroke:none;fill-rule:nonzero;fill:rgb(0%,0%,0%);fill-opacity:1;" d="M 31.972656 44.808594 C 32.296875 45.46875 31.25 45.773438 31.785156 44.960938 C 31.851562 44.050781 32.035156 43.089844 32.699219 44.574219 C 33.726562 45.585938 32.636719 44.828125 32.125 44.773438 L 32.019531 44.796875 Z M 32.378906 44.601562 C 32.175781 43.484375 31.617188 44.949219 32.308594 44.617188 Z M 32.378906 44.601562 "/>
<path style=" stroke:none;fill-rule:nonzero;fill:rgb(0%,0%,0%);fill-opacity:1;" d="M 33.089844 44.269531 C 32.757812 42.09375 36.226562 43.730469 34.183594 44.773438 C 33.753906 44.960938 33.222656 44.714844 33.089844 44.269531 Z M 34.492188 43.832031 C 32.933594 41.816406 33.332031 46.019531 34.554688 44.195312 Z M 34.492188 43.832031 "/>
<path style="fill-rule:nonzero;fill:rgb(40%,40%,40%);fill-opacity:1;stroke-width:0.0520678;stroke-linecap:butt;stroke-linejoin:miter;stroke:rgb(33.333333%,13.333333%,0%);stroke-opacity:1;stroke-miterlimit:4;" d="M 29.384375 13.265625 C 24.79375 13.265625 20.20625 13.265625 15.615625 13.265625 C 15.60625 13.803125 15.44375 14.49375 16.228125 14.240625 C 20.6125 14.240625 25 14.240625 29.384375 14.240625 C 29.384375 13.915625 29.384375 13.590625 29.384375 13.265625 Z M 29.384375 13.265625 " transform="matrix(1.25,0,0,1.25,0,0)"/>
<path style="fill-rule:nonzero;fill:rgb(91.764706%,80.784314%,14.117647%);fill-opacity:1;stroke-width:2;stroke-linecap:butt;stroke-linejoin:miter;stroke:rgb(50.196078%,40%,0%);stroke-opacity:1;stroke-miterlimit:4;" d="M 336.530475 153.347317 C 326.507484 129.820296 316.544511 106.353293 306.581537 82.886289 C 296.318474 86.967507 296.978671 67.401668 291.457024 61.279841 C 292.537346 57.978856 313.183508 47.895847 313.183508 59.539322 C 316.8446 71.66294 331.008827 59.359268 320.8658 50.596653 C 330.228594 49.636366 344.632893 39.913465 344.392821 55.518122 C 357.476726 64.940934 351.174845 45.855238 355.015992 43.21445 C 365.69918 40.393608 376.262332 37.632784 375.18201 52.457208 C 385.865198 43.874647 392.70724 62.420181 394.507777 52.817316 C 397.928798 38.89316 409.93238 62.120092 410.23247 51.016778 C 416.894458 38.833142 420.85564 58.038874 431.178721 52.637262 C 431.058685 43.694593 424.636769 29.41033 439.461193 33.371512 C 456.266208 25.329112 444.682751 48.496026 457.706638 45.014987 C 461.96791 39.013196 460.407444 27.429739 475.952083 32.531262 C 488.015683 30.070527 474.931778 52.037083 491.616758 45.375095 C 487.835629 30.130545 499.959247 32.531262 510.882507 33.611584 C 517.904603 36.61248 503.560322 57.918838 519.70514 53.297459 C 522.646018 43.394504 533.569278 48.315972 535.189761 54.737889 C 538.490746 45.255059 549.29397 49.876438 550.7344 56.598444 C 551.394597 45.435113 569.219917 59.059178 568.799792 46.035292 C 567.299344 35.892265 591.24649 42.014092 589.926096 47.115614 C 581.703643 60.679662 602.829947 61.03977 600.72932 46.875542 C 606.551058 47.775811 627.917434 46.755507 618.734694 58.519017 C 618.494622 72.263119 632.35876 59.959447 633.439082 53.717584 C 643.402055 56.538426 658.106444 57.198623 647.363237 69.802385 C 646.162879 85.16697 635.779781 80.125465 630.438186 86.007221 C 620.895339 108.453919 611.412509 130.900618 601.929679 153.347317 C 515.863994 129.340153 422.416106 128.499902 336.530475 153.347317 Z M 336.530475 153.347317 " transform="matrix(0.0650847,0,0,0.0650847,-2.383466,7.820211)"/>
<path style="fill-rule:nonzero;fill:rgb(36.862745%,32.156863%,5.490196%);fill-opacity:1;stroke-width:1;stroke-linecap:butt;stroke-linejoin:miter;stroke:rgb(33.333333%,13.333333%,0%);stroke-opacity:1;stroke-miterlimit:4;" d="M 462.508071 95.069925 C 464.068536 85.046934 456.806369 64.160701 473.491348 66.441382 C 482.974178 71.66294 476.852352 86.007221 478.592871 95.069925 " transform="matrix(0.0650847,0,0,0.0650847,-2.383466,7.820211)"/>
<path style="fill-rule:nonzero;fill:rgb(36.862745%,32.156863%,5.490196%);fill-opacity:1;stroke-width:1;stroke-linecap:butt;stroke-linejoin:miter;stroke:rgb(33.333333%,13.333333%,0%);stroke-opacity:1;stroke-miterlimit:4;" d="M 345.233072 110.194439 C 343.792642 100.471537 330.048541 82.046038 346.973592 80.245501 C 357.596762 83.066343 356.276368 98.310892 360.777711 106.773418 " transform="matrix(0.0650847,0,0,0.0650847,-2.383466,7.820211)"/>
<path style="fill-rule:nonzero;fill:rgb(36.862745%,32.156863%,5.490196%);fill-opacity:1;stroke-width:1;stroke-linecap:butt;stroke-linejoin:miter;stroke:rgb(33.333333%,13.333333%,0%);stroke-opacity:1;stroke-miterlimit:4;" d="M 579.062854 105.933167 C 583.744251 96.570373 582.964019 74.903907 598.568676 80.665626 C 606.070914 88.227883 595.56778 100.291483 594.607493 109.414206 " transform="matrix(0.0650847,0,0,0.0650847,-2.383466,7.820211)"/>
<path style="fill:none;stroke-width:1;stroke-linecap:butt;stroke-linejoin:miter;stroke:rgb(50.196078%,40%,0%);stroke-opacity:1;stroke-miterlimit:4;" d="M 514.963725 119.617251 C 514.663636 122.198021 514.363546 124.778791 514.063457 127.359561 M 333.049436 144.944809 C 421.395802 119.137108 517.064352 118.777 605.650789 143.864487 M 329.868487 137.922714 C 420.195443 111.394797 518.024639 111.03469 608.591667 136.722356 M 327.047645 130.720564 C 419.355193 103.712504 519.285015 103.352397 611.772616 129.640242 M 324.106767 124.118594 C 418.094816 96.570373 519.945212 96.210266 614.173332 122.918236 M 549.954167 123.758487 C 549.414006 126.279239 548.873845 128.799991 548.333684 131.320744 M 596.107941 133.601424 C 595.207673 135.942123 594.367422 138.282821 593.527171 140.683538 M 576.60212 128.860009 C 575.881905 131.260726 575.16169 133.661442 574.441475 136.062159 M 548.813827 116.016176 C 548.333684 118.476911 547.793523 120.997663 547.313379 123.458397 M 564.898627 118.716982 C 564.23843 121.057681 563.578233 123.458397 562.918036 125.859114 M 583.144072 122.438093 C 582.423857 124.778791 581.703643 127.179508 580.983428 129.580224 M 603.730216 127.479597 C 602.829947 129.880314 601.869661 132.221012 600.969392 134.621729 M 578.822783 114.275657 C 578.222604 116.436302 577.562407 118.656964 576.90221 120.817609 M 602.289786 119.617251 C 601.449535 121.897932 600.609285 124.178612 599.769034 126.459293 M 593.407135 117.516624 C 592.68692 119.677269 591.906687 121.897932 591.126455 124.118594 M 558.116603 110.554546 C 557.576442 112.835227 557.036281 115.05589 556.49612 117.33657 M 546.053003 108.273866 C 545.57286 110.674582 545.092717 113.015281 544.612573 115.415997 M 503.740376 118.957054 C 503.560322 121.417788 503.32025 123.938541 503.080179 126.459293 M 530.688418 121.297752 C 530.268293 123.758487 529.848167 126.219221 529.428042 128.619938 M 497.798603 110.854636 C 497.618549 113.375388 497.438495 115.89614 497.258441 118.476911 M 511.602722 111.634869 C 511.302633 114.155621 511.062561 116.616355 510.762471 119.137108 M 535.009708 114.335675 C 534.589582 116.736391 534.169457 119.137108 533.749331 121.537824 M 529.908185 106.353293 C 529.548078 108.633973 529.18797 110.914654 528.827863 113.195334 M 516.044048 105.152934 C 515.743958 107.493633 515.443868 109.834331 515.143779 112.115012 M 494.617653 103.352397 C 494.497617 105.693095 494.317564 108.033794 494.197528 110.374493 M 365.038983 129.100081 C 365.759198 131.440779 366.479413 133.781478 367.199628 136.062159 M 488.315773 117.996767 C 488.255755 120.577537 488.135719 123.158308 488.015683 125.739078 M 351.114827 132.341048 C 351.955078 134.741765 352.795329 137.082463 353.63558 139.48318 M 433.099294 119.197126 C 433.339366 121.717878 433.579437 124.23863 433.879527 126.759382 M 452.064954 118.356875 C 452.18499 120.817609 452.305026 123.218326 452.425062 125.67906 M 410.652595 121.237734 C 411.072721 123.758487 411.492846 126.279239 411.912972 128.739973 M 464.848769 117.996767 C 464.848769 120.51752 464.908787 122.978254 464.968805 125.499006 M 383.284428 125.37897 C 383.884607 127.899723 384.484786 130.360457 385.084965 132.821191 M 357.956869 122.738182 C 358.737102 125.138899 359.517335 127.539615 360.297568 130.00035 M 375.902225 119.017072 C 376.562422 121.417788 377.222619 123.818505 377.822798 126.219221 M 387.125574 117.036481 C 387.665735 119.497215 388.205897 122.017967 388.806076 124.478702 M 403.390428 114.575746 C 403.870571 117.036481 404.350715 119.437197 404.830858 121.897932 M 425.897145 112.355084 C 426.197234 114.875836 426.497324 117.396588 426.857431 119.857323 M 443.542411 111.03469 C 443.722465 113.61546 443.902518 116.136212 444.14259 118.716982 M 459.267104 110.494528 C 459.327121 112.955263 459.447157 115.476015 459.507175 117.936749 M 481.413713 110.014385 C 481.353695 112.535137 481.293677 114.995872 481.233659 117.516624 M 340.851765 126.939436 C 341.752033 129.40017 342.652302 131.800887 343.552571 134.201603 M 477.332495 103.052307 C 477.272477 105.453024 477.212459 107.85374 477.212459 110.254457 M 461.36773 103.232361 C 461.427748 105.513042 461.487766 107.85374 461.547784 110.134421 M 446.783378 103.83254 C 446.963432 106.113221 447.143485 108.393901 447.263521 110.7346 M 419.7153 105.873149 C 420.075407 108.213848 420.375497 110.554546 420.675587 112.895245 M 398.528977 108.273866 C 399.009121 110.554546 399.429246 112.775209 399.909389 114.995872 M 383.764571 110.43451 C 384.304732 112.775209 384.844894 115.05589 385.385055 117.33657 M 366.359377 113.675478 C 367.019574 115.836122 367.679771 118.056785 368.27995 120.277448 M 340.491657 119.197126 C 341.391926 121.537824 342.232177 123.878523 343.072427 126.219221 M 556.49612 101.791931 C 559.196926 89.368224 561.837714 76.944516 564.53852 64.520808 M 321.045854 116.436302 C 417.194548 88.287901 521.325624 87.927794 617.654371 115.355979 M 506.801289 67.821793 C 525.46686 69.022152 544.072412 71.062761 562.497911 74.003638 M 513.763367 52.877334 C 498.638853 66.141292 459.147068 51.857029 435.259939 58.338963 C 428.177825 62.660253 430.33847 55.818211 429.318166 52.757298 M 379.263228 74.003638 C 397.628709 71.062761 416.234261 69.08217 434.779796 67.881811 M 376.862511 64.700862 C 379.743371 77.064552 382.624231 89.488259 385.445073 101.911967 M 437.54062 96.09023 C 436.340261 83.546486 435.139903 71.002743 433.879527 58.458999 M 507.34145 58.338963 C 506.621236 70.942725 505.961038 83.546486 505.300841 96.150248 M 377.702762 52.097101 C 387.24561 77.364641 339.651406 64.940934 325.787269 77.12457 C 317.684851 79.465268 309.642451 81.986021 301.540033 84.386737 M 562.557929 51.917047 C 555.955959 75.564104 600.369213 65.661149 616.153924 76.764462 C 624.496413 79.165179 632.778885 81.685931 641.061357 84.206683 " transform="matrix(0.0650847,0,0,0.0650847,-2.383466,7.820211)"/>
<path style="fill-rule:nonzero;fill:rgb(7.45098%,32.54902%,70.588235%);fill-opacity:1;stroke-width:0.104136;stroke-linecap:butt;stroke-linejoin:miter;stroke:rgb(33.333333%,26.666667%,0%);stroke-opacity:1;stroke-miterlimit:4;" d="M 15.615625 14.2375 C 15.615625 17.484375 15.475 20.740625 15.771875 23.975 C 15.9875 26.884375 18.54375 28.734375 20.921875 29.95 C 22.325 31.26875 23.80625 30.171875 25.1625 29.375 C 27.228125 28.203125 29.184375 26.328125 29.3 23.8 C 29.55625 20.621875 29.440625 17.425 29.434375 14.2375 C 24.828125 14.2375 20.221875 14.2375 15.615625 14.2375 Z M 15.615625 14.2375 " transform="matrix(1.25,0,0,1.25,0,0)"/>
<path style=" stroke:none;fill-rule:nonzero;fill:rgb(80.784314%,5.882353%,14.509804%);fill-opacity:1;" d="M 36.550781 30.273438 C 36.78125 28.210938 36.816406 26.132812 36.792969 24.054688 C 31.035156 24.054688 25.277344 24.054688 19.519531 24.054688 C 19.496094 26.132812 19.527344 28.210938 19.761719 30.273438 C 25.359375 30.273438 30.957031 30.273438 36.550781 30.273438 Z M 36.550781 30.273438 "/>
<path style="fill:none;stroke-width:0.104136;stroke-linecap:butt;stroke-linejoin:miter;stroke:rgb(33.333333%,26.666667%,0%);stroke-opacity:1;stroke-miterlimit:4;" d="M 15.59375 19.2125 C 20.215625 19.2125 24.834375 19.2125 29.453125 19.2125 M 15.803125 24.21875 C 20.28125 24.21875 24.7625 24.21875 29.240625 24.21875 " transform="matrix(1.25,0,0,1.25,0,0)"/>
<path style="fill-rule:nonzero;fill:rgb(100%,100%,100%);fill-opacity:1;stroke-width:0.0419146;stroke-linecap:butt;stroke-linejoin:miter;stroke:rgb(0%,0%,0%);stroke-opacity:1;stroke-miterlimit:4;" d="M 20.803125 22.453125 C 21.3625 22.225 21.921875 21.996875 22.48125 21.76875 C 22.253125 22.328125 22.025 22.8875 21.796875 23.446875 C 22.240625 23.0625 22.68125 22.796875 23.125 23.3375 C 23.459375 23.5 22.815625 22.4625 22.759375 22.146875 C 22.3125 21.403125 23.3875 22.178125 23.740625 22.23125 C 24.65625 22.721875 23.88125 22.0625 23.834375 21.634375 C 24.353125 21.00625 24.290625 20.85625 23.553125 21.259375 C 23.05 21.459375 22.3 21.909375 22.834375 21.075 C 22.9125 20.728125 23.625 19.603125 22.925 20.209375 C 22.63125 20.90625 21.8 19.728125 21.8625 20.128125 C 22.06875 20.634375 22.275 21.1375 22.48125 21.64375 C 21.921875 21.415625 21.3625 21.1875 20.803125 20.959375 C 21.184375 21.403125 21.453125 21.846875 20.909375 22.290625 C 20.875 22.34375 20.8375 22.396875 20.803125 22.453125 Z M 20.803125 22.453125 " transform="matrix(1.25,0,0,1.25,0,0)"/>
<path style="fill-rule:nonzero;fill:rgb(91.764706%,80.784314%,14.117647%);fill-opacity:1;stroke-width:1;stroke-linecap:butt;stroke-linejoin:miter;stroke:rgb(50.196078%,40%,0%);stroke-opacity:1;stroke-miterlimit:4;" d="M 256.406563 398.040341 C 250.284736 423.607971 261.147978 457.998235 282.514355 463.819972 C 296.7386 463.940008 321.586015 438.612449 293.257561 441.613345 C 262.588408 442.693667 258.087065 413.644998 268.710235 390.59812 C 264.629017 393.058855 260.487781 395.579607 256.406563 398.040341 Z M 256.406563 398.040341 " transform="matrix(0.0650847,0,0,0.0650847,-2.383466,7.820211)"/>
<path style="fill-rule:nonzero;fill:rgb(91.764706%,80.784314%,14.117647%);fill-opacity:1;stroke-width:1;stroke-linecap:butt;stroke-linejoin:miter;stroke:rgb(50.196078%,40%,0%);stroke-opacity:1;stroke-miterlimit:4;" d="M 293.917758 459.198593 C 287.615877 454.157088 268.890289 440.713076 285.755322 451.456282 C 289.53645 453.676945 293.317579 455.957626 297.098707 458.238306 " transform="matrix(0.0650847,0,0,0.0650847,-2.383466,7.820211)"/>
<path style="fill-rule:nonzero;fill:rgb(91.764706%,80.784314%,14.117647%);fill-opacity:1;stroke-width:1;stroke-linecap:butt;stroke-linejoin:miter;stroke:rgb(0%,0%,0%);stroke-opacity:1;stroke-miterlimit:4;" d="M 268.890289 379.494807 C 294.818027 370.312066 316.8446 397.620216 335.090045 370.252048 C 339.771442 361.249362 340.311603 318.156501 333.889687 317.496304 C 338.030923 341.143361 321.285926 403.141864 297.338779 359.508842 C 287.675895 361.549451 273.271597 357.408215 272.31131 371.032281 C 271.17097 373.853123 270.030629 376.673965 268.890289 379.494807 Z M 268.890289 379.494807 " transform="matrix(0.0650847,0,0,0.0650847,-2.383466,7.820211)"/>
<path style="fill:none;stroke-width:1;stroke-linecap:butt;stroke-linejoin:miter;stroke:rgb(50.196078%,40%,0%);stroke-opacity:1;stroke-miterlimit:4;" d="M 268.890289 379.494807 C 294.818027 370.312066 316.8446 397.620216 335.090045 370.252048 C 339.771442 361.249362 340.311603 318.156501 333.889687 317.496304 C 338.030923 341.143361 321.285926 403.141864 297.338779 359.508842 C 287.675895 361.549451 273.271597 357.408215 272.31131 371.032281 C 271.17097 373.853123 270.030629 376.673965 268.890289 379.494807 Z M 268.890289 379.494807 " transform="matrix(0.0650847,0,0,0.0650847,-2.383466,7.820211)"/>
<path style="fill-rule:nonzero;fill:rgb(91.764706%,80.784314%,14.117647%);fill-opacity:1;stroke-width:1;stroke-linecap:butt;stroke-linejoin:miter;stroke:rgb(50.196078%,40%,0%);stroke-opacity:1;stroke-miterlimit:4;" d="M 257.306832 200.821485 C 281.614086 216.426142 312.343257 233.171139 329.748451 252.857014 C 341.631997 241.033485 305.141107 212.044834 293.317579 197.820589 C 286.835644 182.876129 268.890289 186.777294 258.987334 192.719067 C 258.387155 195.419873 257.846993 198.120679 257.306832 200.821485 Z M 257.306832 200.821485 " transform="matrix(0.0650847,0,0,0.0650847,-2.383466,7.820211)"/>
<path style="fill:none;stroke-width:1;stroke-linecap:butt;stroke-linejoin:miter;stroke:rgb(0%,0%,0%);stroke-opacity:1;stroke-miterlimit:4;" d="M 274.411937 193.799389 C 293.257561 211.864781 314.083776 228.729814 331.78906 247.575438 L 332.269203 249.195921 L 332.449257 249.7961 " transform="matrix(0.0650847,0,0,0.0650847,-2.383466,7.820211)"/>
<path style="fill:none;stroke-width:1;stroke-linecap:butt;stroke-linejoin:miter;stroke:rgb(0%,0%,0%);stroke-opacity:1;stroke-miterlimit:4;" d="M 286.835644 213.185175 C 290.436719 219.427037 296.43851 224.168452 303.100498 226.80924 " transform="matrix(0.0650847,0,0,0.0650847,-2.383466,7.820211)"/>
<path style="fill-rule:nonzero;fill:rgb(100%,100%,100%);fill-opacity:1;stroke-width:1;stroke-linecap:butt;stroke-linejoin:miter;stroke:rgb(0%,0%,0%);stroke-opacity:1;stroke-miterlimit:4;" d="M 263.848784 180.415395 C 259.227405 165.470935 304.781 134.741765 270.990916 149.746242 C 261.928211 158.448839 242.182318 168.531849 252.625435 183.596344 " transform="matrix(0.0650847,0,0,0.0650847,-2.383466,7.820211)"/>
<path style="fill-rule:nonzero;fill:rgb(100%,100%,100%);fill-opacity:1;stroke-width:1;stroke-linecap:butt;stroke-linejoin:miter;stroke:rgb(0%,0%,0%);stroke-opacity:1;stroke-miterlimit:4;" d="M 269.970611 155.748033 C 263.668731 161.86986 260.847889 170.632475 258.027047 178.674876 " transform="matrix(0.0650847,0,0,0.0650847,-2.383466,7.820211)"/>
<path style="fill-rule:nonzero;fill:rgb(100%,100%,100%);fill-opacity:1;stroke-width:1;stroke-linecap:butt;stroke-linejoin:miter;stroke:rgb(0%,0%,0%);stroke-opacity:1;stroke-miterlimit:4;" d="M 253.585722 180.175323 C 249.204414 167.33149 274.291901 130.660547 250.404772 154.307604 C 237.560939 166.19115 242.72248 181.675771 245.30325 196.260124 L 245.30325 196.320141 " transform="matrix(0.0650847,0,0,0.0650847,-2.383466,7.820211)"/>
<path style="fill-rule:nonzero;fill:rgb(100%,100%,100%);fill-opacity:1;stroke-width:1;stroke-linecap:butt;stroke-linejoin:miter;stroke:rgb(0%,0%,0%);stroke-opacity:1;stroke-miterlimit:4;" d="M 249.204414 165.230863 C 246.803698 171.95287 247.703966 179.335073 249.444486 186.057079 " transform="matrix(0.0650847,0,0,0.0650847,-2.383466,7.820211)"/>
<path style="fill-rule:nonzero;fill:rgb(100%,100%,100%);fill-opacity:1;stroke-width:1;stroke-linecap:butt;stroke-linejoin:miter;stroke:rgb(0%,0%,0%);stroke-opacity:1;stroke-miterlimit:4;" d="M 246.503608 189.718171 C 243.262641 175.133819 247.58393 135.461979 234.740097 169.732207 C 229.21845 185.396882 234.440008 202.021843 244.342963 214.625604 " transform="matrix(0.0650847,0,0,0.0650847,-2.383466,7.820211)"/>
<path style="fill-rule:nonzero;fill:rgb(100%,100%,100%);fill-opacity:1;stroke-width:1;stroke-linecap:butt;stroke-linejoin:miter;stroke:rgb(0%,0%,0%);stroke-opacity:1;stroke-miterlimit:4;" d="M 238.221136 178.974965 C 237.861029 186.357168 241.162014 193.439282 244.823107 199.741162 " transform="matrix(0.0650847,0,0,0.0650847,-2.383466,7.820211)"/>
<path style="fill-rule:nonzero;fill:rgb(100%,100%,100%);fill-opacity:1;stroke-width:1;stroke-linecap:butt;stroke-linejoin:miter;stroke:rgb(0%,0%,0%);stroke-opacity:1;stroke-miterlimit:4;" d="M 244.342963 212.945103 C 230.35879 205.382846 233.059596 151.786851 221.476139 181.13561 C 217.695011 199.501091 227.838038 212.524978 239.421495 225.128739 " transform="matrix(0.0650847,0,0,0.0650847,-2.383466,7.820211)"/>
<path style="fill-rule:nonzero;fill:rgb(100%,100%,100%);fill-opacity:1;stroke-width:1;stroke-linecap:butt;stroke-linejoin:miter;stroke:rgb(0%,0%,0%);stroke-opacity:1;stroke-miterlimit:4;" d="M 227.47793 188.937938 C 225.617375 201.301628 236.000474 212.16487 242.122301 221.94779 " transform="matrix(0.0650847,0,0,0.0650847,-2.383466,7.820211)"/>
<path style="fill-rule:nonzero;fill:rgb(100%,100%,100%);fill-opacity:1;stroke-width:1;stroke-linecap:butt;stroke-linejoin:miter;stroke:rgb(0%,0%,0%);stroke-opacity:1;stroke-miterlimit:4;" d="M 258.987334 282.805952 C 252.745471 263.180095 267.329823 240.193235 254.606026 224.168452 C 248.364163 211.084548 242.842515 208.563795 238.461208 223.988399 C 233.899847 233.111121 229.338485 242.173826 224.777124 251.296548 C 230.958969 262.639933 237.140814 273.923301 243.322659 285.266686 C 248.544217 284.426435 253.765775 283.646202 258.987334 282.805952 Z M 258.987334 282.805952 " transform="matrix(0.0650847,0,0,0.0650847,-2.383466,7.820211)"/>
<path style="fill:none;stroke-width:1;stroke-linecap:butt;stroke-linejoin:miter;stroke:rgb(0%,0%,0%);stroke-opacity:1;stroke-miterlimit:4;" d="M 258.987334 282.805952 C 252.745471 263.180095 267.329823 240.193235 254.606026 224.168452 C 248.364163 211.084548 242.842515 208.563795 238.461208 223.988399 C 233.899847 233.111121 229.338485 242.173826 224.777124 251.296548 C 230.958969 262.639933 237.140814 273.923301 243.322659 285.266686 C 248.544217 284.426435 253.765775 283.646202 258.987334 282.805952 Z M 258.987334 282.805952 " transform="matrix(0.0650847,0,0,0.0650847,-2.383466,7.820211)"/>
<path style="fill-rule:nonzero;fill:rgb(100%,100%,100%);fill-opacity:1;stroke-width:1;stroke-linecap:butt;stroke-linejoin:miter;stroke:rgb(0%,0%,0%);stroke-opacity:1;stroke-miterlimit:4;" d="M 244.042874 375.473607 C 253.225614 392.098568 253.405668 408.903583 260.487781 399.120664 C 266.429555 418.146342 268.830271 376.253839 286.655591 367.131117 C 307.121698 346.06483 339.051227 322.957934 329.808469 289.227868 C 319.785478 254.11739 279.693513 241.333575 262.768462 211.324619 C 255.506295 192.959138 282.274283 207.00333 281.674104 189.718171 C 300.579746 167.991687 236.840724 162.350004 241.28205 194.399568 C 232.519435 232.090817 284.975089 248.65576 275.252188 284.906579 C 273.331614 298.170537 258.50719 304.232346 250.46479 314.135301 C 240.561835 323.498095 230.598862 332.86089 220.635888 342.223684 " transform="matrix(0.0650847,0,0,0.0650847,-2.383466,7.820211)"/>
<path style="fill-rule:nonzero;fill:rgb(100%,100%,100%);fill-opacity:1;stroke-width:1;stroke-linecap:butt;stroke-linejoin:miter;stroke:rgb(0%,0%,0%);stroke-opacity:1;stroke-miterlimit:4;" d="M 221.236067 341.863576 C 213.553775 352.126639 192.42747 371.872532 202.030336 376.133804 C 190.686951 384.716365 172.081398 405.122455 198.849387 390.958228 C 180.423888 398.820574 187.626037 407.463153 202.270407 395.399553 C 196.808778 410.644103 218.835351 385.316544 215.71442 398.580502 C 225.677393 391.258317 234.980169 383.155899 244.583035 375.353571 " transform="matrix(0.0650847,0,0,0.0650847,-2.383466,7.820211)"/>
<path style="fill:none;stroke-width:1;stroke-linecap:butt;stroke-linejoin:miter;stroke:rgb(0%,0%,0%);stroke-opacity:1;stroke-miterlimit:4;" d="M 230.838933 331.240406 C 231.619166 331.000334 223.096623 340.723236 228.438217 339.582896 " transform="matrix(0.0650847,0,0,0.0650847,-2.383466,7.820211)"/>
<path style="fill-rule:nonzero;fill:rgb(100%,100%,100%);fill-opacity:1;stroke-width:1;stroke-linecap:butt;stroke-linejoin:miter;stroke:rgb(0%,0%,0%);stroke-opacity:1;stroke-miterlimit:4;" d="M 229.818629 305.672776 C 217.394921 314.915534 220.215763 364.790418 231.259059 331.660531 C 235.400295 320.077075 243.442695 311.914639 245.00316 299.310877 " transform="matrix(0.0650847,0,0,0.0650847,-2.383466,7.820211)"/>
<path style="fill-rule:nonzero;fill:rgb(100%,100%,100%);fill-opacity:1;stroke-width:1;stroke-linecap:butt;stroke-linejoin:miter;stroke:rgb(0%,0%,0%);stroke-opacity:1;stroke-miterlimit:4;" d="M 239.181423 304.352382 C 239.421495 308.253546 230.238754 314.075283 229.398503 319.476895 " transform="matrix(0.0650847,0,0,0.0650847,-2.383466,7.820211)"/>
<path style="fill-rule:nonzero;fill:rgb(100%,100%,100%);fill-opacity:1;stroke-width:1;stroke-linecap:butt;stroke-linejoin:miter;stroke:rgb(0%,0%,0%);stroke-opacity:1;stroke-miterlimit:4;" d="M 241.762193 306.573044 C 235.040187 322.357755 243.982856 345.044526 250.584826 318.036466 C 252.085274 315.395677 253.285632 311.854621 256.406563 310.71428 " transform="matrix(0.0650847,0,0,0.0650847,-2.383466,7.820211)"/>
<path style="fill-rule:nonzero;fill:rgb(100%,100%,100%);fill-opacity:1;stroke-width:1;stroke-linecap:butt;stroke-linejoin:miter;stroke:rgb(0%,0%,0%);stroke-opacity:1;stroke-miterlimit:4;" d="M 218.055118 204.962721 C 204.79116 200.10127 190.446879 144.284612 191.527201 180.535431 C 191.347148 197.760571 202.21039 208.683831 215.534366 217.386428 C 217.154849 218.646804 218.715315 219.907181 220.275781 221.167557 " transform="matrix(0.0650847,0,0,0.0650847,-2.383466,7.820211)"/>
<path style="fill-rule:nonzero;fill:rgb(100%,100%,100%);fill-opacity:1;stroke-width:1;stroke-linecap:butt;stroke-linejoin:miter;stroke:rgb(0%,0%,0%);stroke-opacity:1;stroke-miterlimit:4;" d="M 214.994205 209.524082 C 209.352521 204.902703 204.250999 199.381055 200.829978 192.899121 " transform="matrix(0.0650847,0,0,0.0650847,-2.383466,7.820211)"/>
<path style="fill-rule:nonzero;fill:rgb(100%,100%,100%);fill-opacity:1;stroke-width:1;stroke-linecap:butt;stroke-linejoin:miter;stroke:rgb(0%,0%,0%);stroke-opacity:1;stroke-miterlimit:4;" d="M 218.055118 218.046625 C 199.089458 213.845372 191.887309 183.116201 181.084085 179.275055 C 177.062885 201.181592 195.548401 218.406733 210.25279 231.550655 " transform="matrix(0.0650847,0,0,0.0650847,-2.383466,7.820211)"/>
<path style="fill-rule:nonzero;fill:rgb(100%,100%,100%);fill-opacity:1;stroke-width:1;stroke-linecap:butt;stroke-linejoin:miter;stroke:rgb(0%,0%,0%);stroke-opacity:1;stroke-miterlimit:4;" d="M 212.53347 225.608882 C 204.010927 218.886876 196.568706 210.72444 190.566915 201.661736 " transform="matrix(0.0650847,0,0,0.0650847,-2.383466,7.820211)"/>
<path style="fill-rule:nonzero;fill:rgb(100%,100%,100%);fill-opacity:1;stroke-width:1;stroke-linecap:butt;stroke-linejoin:miter;stroke:rgb(0%,0%,0%);stroke-opacity:1;stroke-miterlimit:4;" d="M 209.232485 229.630082 C 191.107076 227.649491 176.942849 191.158601 169.260556 194.399568 C 167.940162 220.147252 196.208598 234.791623 213.193667 249.015868 " transform="matrix(0.0650847,0,0,0.0650847,-2.383466,7.820211)"/>
<path style="fill-rule:nonzero;fill:rgb(100%,100%,100%);fill-opacity:1;stroke-width:1;stroke-linecap:butt;stroke-linejoin:miter;stroke:rgb(0%,0%,0%);stroke-opacity:1;stroke-miterlimit:4;" d="M 211.09304 239.052894 C 200.889996 234.911658 191.767273 227.769527 185.645446 218.526769 " transform="matrix(0.0650847,0,0,0.0650847,-2.383466,7.820211)"/>
<path style="fill-rule:nonzero;fill:rgb(100%,100%,100%);fill-opacity:1;stroke-width:1;stroke-linecap:butt;stroke-linejoin:miter;stroke:rgb(0%,0%,0%);stroke-opacity:1;stroke-miterlimit:4;" d="M 212.53347 248.475706 C 192.007345 249.856118 172.981667 208.14367 162.298479 218.106643 C 168.660377 242.113808 192.247416 253.277139 212.893578 262.819987 " transform="matrix(0.0650847,0,0,0.0650847,-2.383466,7.820211)"/>
<path style="fill-rule:nonzero;fill:rgb(100%,100%,100%);fill-opacity:1;stroke-width:1;stroke-linecap:butt;stroke-linejoin:miter;stroke:rgb(0%,0%,0%);stroke-opacity:1;stroke-miterlimit:4;" d="M 213.253685 252.736978 C 201.670228 250.156208 189.906718 245.7749 181.264139 237.372393 " transform="matrix(0.0650847,0,0,0.0650847,-2.383466,7.820211)"/>
<path style="fill-rule:nonzero;fill:rgb(100%,100%,100%);fill-opacity:1;stroke-width:1;stroke-linecap:butt;stroke-linejoin:miter;stroke:rgb(0%,0%,0%);stroke-opacity:1;stroke-miterlimit:4;" d="M 212.713524 261.079468 C 192.12738 259.27893 170.700986 235.571855 156.776831 234.971676 C 165.299374 259.57902 192.667542 268.821778 215.654402 274.583498 " transform="matrix(0.0650847,0,0,0.0650847,-2.383466,7.820211)"/>
<path style="fill-rule:nonzero;fill:rgb(100%,100%,100%);fill-opacity:1;stroke-width:1;stroke-linecap:butt;stroke-linejoin:miter;stroke:rgb(0%,0%,0%);stroke-opacity:1;stroke-miterlimit:4;" d="M 216.434635 263.540202 C 204.731142 263.240113 191.947327 262.639933 181.984353 255.677856 " transform="matrix(0.0650847,0,0,0.0650847,-2.383466,7.820211)"/>
<path style="fill-rule:nonzero;fill:rgb(100%,100%,100%);fill-opacity:1;stroke-width:1;stroke-linecap:butt;stroke-linejoin:miter;stroke:rgb(0%,0%,0%);stroke-opacity:1;stroke-miterlimit:4;" d="M 214.934187 274.403444 C 195.30833 274.403444 170.58095 254.357462 158.097225 255.437784 C 170.100807 276.984214 197.649028 286.226973 220.995996 288.087528 " transform="matrix(0.0650847,0,0,0.0650847,-2.383466,7.820211)"/>
<path style="fill-rule:nonzero;fill:rgb(100%,100%,100%);fill-opacity:1;stroke-width:1;stroke-linecap:butt;stroke-linejoin:miter;stroke:rgb(0%,0%,0%);stroke-opacity:1;stroke-miterlimit:4;" d="M 220.095727 279.865074 C 211.153058 279.865074 201.790264 278.964805 193.747864 274.763552 " transform="matrix(0.0650847,0,0,0.0650847,-2.383466,7.820211)"/>
<path style="fill-rule:nonzero;fill:rgb(100%,100%,100%);fill-opacity:1;stroke-width:1;stroke-linecap:butt;stroke-linejoin:miter;stroke:rgb(0%,0%,0%);stroke-opacity:1;stroke-miterlimit:4;" d="M 213.553775 304.472418 C 197.649028 311.074388 192.367452 358.668591 209.9527 326.378955 C 216.014509 314.435391 228.498235 311.554531 237.080796 302.431809 " transform="matrix(0.0650847,0,0,0.0650847,-2.383466,7.820211)"/>
<path style="fill-rule:nonzero;fill:rgb(100%,100%,100%);fill-opacity:1;stroke-width:1;stroke-linecap:butt;stroke-linejoin:miter;stroke:rgb(0%,0%,0%);stroke-opacity:1;stroke-miterlimit:4;" d="M 231.859238 301.171432 C 225.137232 305.792812 215.654402 308.013474 211.813255 316.055874 " transform="matrix(0.0650847,0,0,0.0650847,-2.383466,7.820211)"/>
<path style="fill-rule:nonzero;fill:rgb(100%,100%,100%);fill-opacity:1;stroke-width:1;stroke-linecap:butt;stroke-linejoin:miter;stroke:rgb(0%,0%,0%);stroke-opacity:1;stroke-miterlimit:4;" d="M 206.831769 293.789229 C 194.228007 298.230555 171.541237 339.16277 197.528992 317.676358 C 207.311912 308.193528 220.755924 305.432704 232.039291 298.410609 " transform="matrix(0.0650847,0,0,0.0650847,-2.383466,7.820211)"/>
<path style="fill-rule:nonzero;fill:rgb(100%,100%,100%);fill-opacity:1;stroke-width:1;stroke-linecap:butt;stroke-linejoin:miter;stroke:rgb(0%,0%,0%);stroke-opacity:1;stroke-miterlimit:4;" d="M 218.175154 295.529749 C 213.853864 299.550949 204.371034 302.851934 201.790264 309.934048 " transform="matrix(0.0650847,0,0,0.0650847,-2.383466,7.820211)"/>
<path style="fill-rule:nonzero;fill:rgb(100%,100%,100%);fill-opacity:1;stroke-width:1;stroke-linecap:butt;stroke-linejoin:miter;stroke:rgb(0%,0%,0%);stroke-opacity:1;stroke-miterlimit:4;" d="M 220.155745 287.72742 C 199.989727 292.468835 175.442401 267.861492 161.998389 274.463462 C 176.222634 298.230555 206.891787 297.810429 231.379094 299.130823 " transform="matrix(0.0650847,0,0,0.0650847,-2.383466,7.820211)"/>
<path style="fill-rule:nonzero;fill:rgb(100%,100%,100%);fill-opacity:1;stroke-width:1;stroke-linecap:butt;stroke-linejoin:miter;stroke:rgb(0%,0%,0%);stroke-opacity:1;stroke-miterlimit:4;" d="M 228.198145 293.549158 C 216.134545 293.309086 203.650819 293.129032 192.247416 288.687707 " transform="matrix(0.0650847,0,0,0.0650847,-2.383466,7.820211)"/>
<path style="fill-rule:nonzero;fill:rgb(100%,100%,100%);fill-opacity:1;stroke-width:1;stroke-linecap:butt;stroke-linejoin:miter;stroke:rgb(0%,0%,0%);stroke-opacity:1;stroke-miterlimit:4;" d="M 284.134838 290.128137 C 280.233674 264.74056 225.377303 290.728316 235.400295 249.195921 C 249.504504 230.650387 229.398503 198.300733 216.074527 196.920321 C 216.314599 214.74564 202.630515 228.609778 208.212181 245.474811 C 203.110658 254.657551 208.932396 271.762656 215.71442 283.826256 C 221.296085 296.490035 231.679184 303.632167 243.502713 311.434495 C 250.524808 312.514818 255.326241 317.196215 263.368641 315.095588 " transform="matrix(0.0650847,0,0,0.0650847,-2.383466,7.820211)"/>
<path style="fill:none;stroke-width:1;stroke-linecap:butt;stroke-linejoin:miter;stroke:rgb(0%,0%,0%);stroke-opacity:1;stroke-miterlimit:4;" d="M 221.116032 223.748327 C 222.436426 226.389115 223.576766 230.170243 226.937769 230.83044 " transform="matrix(0.0650847,0,0,0.0650847,-2.383466,7.820211)"/>
<path style="fill:none;stroke-width:1;stroke-linecap:butt;stroke-linejoin:miter;stroke:rgb(0%,0%,0%);stroke-opacity:1;stroke-miterlimit:4;" d="M 216.194563 207.063348 C 218.175154 210.904494 218.29519 216.846267 222.796533 219.006912 " transform="matrix(0.0650847,0,0,0.0650847,-2.383466,7.820211)"/>
<path style="fill:none;stroke-width:1;stroke-linecap:butt;stroke-linejoin:miter;stroke:rgb(0%,0%,0%);stroke-opacity:1;stroke-miterlimit:4;" d="M 213.253685 216.366124 C 214.033918 218.946894 213.9739 223.328202 217.454939 224.168452 " transform="matrix(0.0650847,0,0,0.0650847,-2.383466,7.820211)"/>
<path style="fill:none;stroke-width:1;stroke-linecap:butt;stroke-linejoin:miter;stroke:rgb(0%,0%,0%);stroke-opacity:1;stroke-miterlimit:4;" d="M 209.832664 226.389115 C 211.213076 228.969885 212.293399 232.811032 215.71442 233.471229 " transform="matrix(0.0650847,0,0,0.0650847,-2.383466,7.820211)"/>
<path style="fill:none;stroke-width:1;stroke-linecap:butt;stroke-linejoin:miter;stroke:rgb(0%,0%,0%);stroke-opacity:1;stroke-miterlimit:4;" d="M 208.152163 236.652178 C 209.592593 239.052894 211.033023 242.473915 214.27399 242.954059 " transform="matrix(0.0650847,0,0,0.0650847,-2.383466,7.820211)"/>
<path style="fill:none;stroke-width:1;stroke-linecap:butt;stroke-linejoin:miter;stroke:rgb(0%,0%,0%);stroke-opacity:1;stroke-miterlimit:4;" d="M 208.392234 246.915241 C 210.672915 249.736083 212.53347 253.757283 216.434635 254.717569 " transform="matrix(0.0650847,0,0,0.0650847,-2.383466,7.820211)"/>
<path style="fill:none;stroke-width:1;stroke-linecap:butt;stroke-linejoin:miter;stroke:rgb(0%,0%,0%);stroke-opacity:1;stroke-miterlimit:4;" d="M 209.352521 257.418375 C 211.813255 259.27893 214.454043 261.499593 217.695011 261.799683 " transform="matrix(0.0650847,0,0,0.0650847,-2.383466,7.820211)"/>
<path style="fill:none;stroke-width:1;stroke-linecap:butt;stroke-linejoin:miter;stroke:rgb(0%,0%,0%);stroke-opacity:1;stroke-miterlimit:4;" d="M 210.612897 265.700847 C 213.073632 267.561402 215.654402 269.782065 218.895369 270.142172 " transform="matrix(0.0650847,0,0,0.0650847,-2.383466,7.820211)"/>
<path style="fill:none;stroke-width:1;stroke-linecap:butt;stroke-linejoin:miter;stroke:rgb(0%,0%,0%);stroke-opacity:1;stroke-miterlimit:4;" d="M 211.813255 274.763552 C 215.294294 276.263999 218.715315 278.064537 222.556461 278.424644 " transform="matrix(0.0650847,0,0,0.0650847,-2.383466,7.820211)"/>
<path style="fill:none;stroke-width:1;stroke-linecap:butt;stroke-linejoin:miter;stroke:rgb(0%,0%,0%);stroke-opacity:1;stroke-miterlimit:4;" d="M 215.234276 283.286095 C 219.135441 283.586184 223.036605 283.946292 226.937769 284.066328 " transform="matrix(0.0650847,0,0,0.0650847,-2.383466,7.820211)"/>
<path style="fill:none;stroke-width:1;stroke-linecap:butt;stroke-linejoin:miter;stroke:rgb(0%,0%,0%);stroke-opacity:1;stroke-miterlimit:4;" d="M 222.196354 290.308191 C 223.516748 290.308191 230.418808 290.068119 232.579453 290.008101 " transform="matrix(0.0650847,0,0,0.0650847,-2.383466,7.820211)"/>
<path style="fill:none;stroke-width:1;stroke-linecap:butt;stroke-linejoin:miter;stroke:rgb(0%,0%,0%);stroke-opacity:1;stroke-miterlimit:4;" d="M 226.33759 297.270268 C 229.578557 296.490035 233.059596 295.889856 236.360581 296.910161 " transform="matrix(0.0650847,0,0,0.0650847,-2.383466,7.820211)"/>
<path style="fill:none;stroke-width:1;stroke-linecap:butt;stroke-linejoin:miter;stroke:rgb(0%,0%,0%);stroke-opacity:1;stroke-miterlimit:4;" d="M 232.039291 301.23145 C 235.280259 300.451218 238.761298 299.911056 242.062283 300.931361 " transform="matrix(0.0650847,0,0,0.0650847,-2.383466,7.820211)"/>
<path style="fill:none;stroke-width:1;stroke-linecap:butt;stroke-linejoin:miter;stroke:rgb(0%,0%,0%);stroke-opacity:1;stroke-miterlimit:4;" d="M 236.540635 305.912847 C 240.021674 305.372686 243.442695 304.652471 246.74368 303.332077 " transform="matrix(0.0650847,0,0,0.0650847,-2.383466,7.820211)"/>
<path style="fill:none;stroke-width:1;stroke-linecap:butt;stroke-linejoin:miter;stroke:rgb(0%,0%,0%);stroke-opacity:1;stroke-miterlimit:4;" d="M 242.602444 308.973761 C 243.202623 309.033779 247.643948 308.373582 249.32445 308.013474 " transform="matrix(0.0650847,0,0,0.0650847,-2.383466,7.820211)"/>
<path style="fill:none;stroke-width:1;stroke-linecap:butt;stroke-linejoin:miter;stroke:rgb(0%,0%,0%);stroke-opacity:1;stroke-miterlimit:4;" d="M 249.864611 312.094692 L 256.22651 310.234137 " transform="matrix(0.0650847,0,0,0.0650847,-2.383466,7.820211)"/>
<path style="fill:none;stroke-width:1;stroke-linecap:butt;stroke-linejoin:miter;stroke:rgb(0%,0%,0%);stroke-opacity:1;stroke-miterlimit:4;" d="M 280.233674 189.838207 C 278.193065 174.653676 262.288319 188.337759 260.907907 179.275055 " transform="matrix(0.0650847,0,0,0.0650847,-2.383466,7.820211)"/>
<path style=" stroke:none;fill-rule:nonzero;fill:rgb(0%,0%,0%);fill-opacity:1;" d="M 15.328125 19.632812 C 14.351562 20.574219 16.390625 20.367188 15.328125 19.632812 Z M 15.328125 19.632812 "/>
<path style=" stroke:none;fill-rule:nonzero;fill:rgb(100%,100%,100%);fill-opacity:1;" d="M 15.53125 19.972656 C 15.21875 20.359375 15.082031 19.84375 15.53125 19.972656 Z M 15.53125 19.972656 "/>
<path style="fill:none;stroke-width:1;stroke-linecap:butt;stroke-linejoin:miter;stroke:rgb(0%,0%,0%);stroke-opacity:1;stroke-miterlimit:4;" d="M 206.051536 373.012872 C 219.675602 377.334162 238.40119 382.735774 249.02436 361.789523 M 195.788473 392.998837 C 202.030336 386.997046 208.272199 381.055272 214.994205 375.593642 M 199.749655 397.140073 C 207.251894 390.238013 214.754133 383.335953 222.616479 376.914036 M 214.454043 394.379249 C 220.095727 388.617529 225.917465 382.915828 232.219345 377.814305 M 204.311016 373.312962 C 210.25279 366.410902 216.314599 359.508842 223.276676 353.687105 M 213.193667 373.673069 C 219.375512 366.771009 226.097518 360.349093 233.659775 354.947481 M 221.896264 375.293553 C 226.517644 367.671278 233.179632 361.549451 240.081692 356.087821 M 228.858342 375.173517 C 232.699488 369.05169 237.680975 363.59006 243.502713 359.328788 M 228.258163 376.373875 C 223.75682 380.995254 219.075423 385.43658 214.27399 389.697852 M 217.034814 377.09409 C 212.053327 382.135595 206.771751 386.87701 201.310121 391.438371 M 209.412539 374.81341 C 206.291608 377.874323 203.35073 381.175308 199.569601 383.455989 M 217.034814 347.625296 C 221.116032 356.808036 244.282945 363.830132 250.944934 349.845959 M 226.457626 352.786836 C 231.079005 348.585582 235.700384 344.324311 240.381781 340.063039 M 219.075423 353.507051 C 221.356103 350.026012 223.576766 346.604991 225.857447 343.18397 M 232.699488 354.947481 C 235.52033 351.886567 238.281154 348.825654 241.041978 345.764741 M 239.961656 354.767427 C 241.402086 353.146944 242.842515 351.52646 244.342963 349.905976 M 226.517644 356.147839 L 223.036605 359.268771 L 220.815942 361.00929 M 233.959865 358.068412 L 228.978378 362.209648 L 226.877751 364.130221 M 246.083483 361.00929 C 248.124092 357.828341 239.661566 368.151421 240.021674 366.891045 M 241.942247 357.708305 L 237.440903 361.429415 L 235.880438 362.869845 M 249.684557 338.382537 C 241.101996 348.405529 248.18411 345.584687 254.546008 341.143361 M 235.460312 344.92449 C 229.998682 346.244884 234.920151 336.822072 236.360581 337.122161 M 247.944038 330.580209 C 247.283841 331.660531 246.563626 332.740854 245.903429 333.881194 M 245.543322 239.533038 C 244.16291 243.674273 246.383572 247.815509 248.964342 250.816405 M 241.402086 242.713987 C 240.141709 248.535724 245.063178 253.577229 248.484199 257.658447 M 239.661566 252.256835 C 238.221136 257.238321 244.282945 260.599324 247.763984 262.519898 M 244.042874 266.421062 C 244.763089 270.082154 249.264432 269.722047 251.90522 269.602011 M 233.599757 220.867467 C 236.780706 229.269975 236.000474 233.291175 232.219345 241.213539 M 221.116032 223.748327 C 222.436426 226.389115 223.576766 230.170243 226.937769 230.83044 M 219.555566 232.57096 C 220.87596 235.15173 222.0163 238.992876 225.377303 239.653073 M 216.614688 240.013181 C 218.29519 242.05379 220.275781 244.454506 223.156641 244.694578 M 217.815046 249.375975 C 219.495548 251.416584 221.476139 253.757283 224.356999 253.997354 M 220.215763 259.218912 L 222.496444 259.639038 L 227.117823 260.059163 M 222.496444 266.120972 L 226.457626 266.301026 M 226.277572 217.386428 C 226.0375 219.06693 226.877751 221.527664 229.038396 221.34761 M 229.998682 280.765343 C 231.619166 280.585289 233.899847 279.264895 233.23965 277.224286 M 224.116927 275.243695 C 226.277572 274.22339 230.35879 273.443157 230.298772 270.142172 M 238.641262 288.687707 C 239.061387 285.026614 239.661566 281.245486 239.121405 277.524375 M 248.124092 295.109623 C 247.163805 291.148441 247.463895 286.347008 244.462999 283.106041 M 258.687244 297.690394 C 256.886707 292.768925 255.266223 286.407026 250.164701 283.766238 M 268.890289 297.21025 C 267.269805 291.208459 262.708444 286.106937 256.946725 283.946292 M 280.953889 297.51034 C 279.333406 291.568567 274.832062 286.407026 269.010325 284.306399 M 272.491364 309.513922 C 266.729644 311.674567 261.928211 316.115892 258.867298 321.397469 M 259.94762 195.539909 L 257.426868 196.320141 L 256.766671 197.040356 M 251.90522 210.004225 C 251.245023 212.16487 252.265328 214.385533 253.585722 216.066034 M 252.025256 186.29715 C 249.804593 186.537222 249.684557 189.358064 249.444486 190.978547 M 265.169178 226.749223 C 266.309519 228.24967 267.509877 229.750118 268.650217 231.250566 M 266.909698 239.893145 C 268.110056 241.273557 269.310414 242.653969 270.510773 244.034381 M 282.094229 253.877318 C 283.534659 255.437784 284.975089 256.99825 286.415519 258.558715 " transform="matrix(0.0650847,0,0,0.0650847,-2.383466,7.820211)"/>
<path style=" stroke:none;fill-rule:nonzero;fill:rgb(0%,0%,0%);fill-opacity:1;" d="M 17.425781 25.414062 C 17.542969 26.175781 18.339844 25.710938 17.425781 25.414062 Z M 16.855469 25.601562 C 16.667969 26.347656 17.582031 26.230469 16.855469 25.601562 Z M 17.246094 26.984375 C 17.054688 27.730469 17.972656 27.613281 17.246094 26.984375 Z M 18.207031 27.378906 C 17.75 26.835938 18.394531 26.296875 18.207031 27.378906 Z M 16.082031 28.527344 C 15.597656 29.132812 16.738281 28.960938 16.082031 28.527344 Z M 15.652344 31.6875 C 15.066406 32.28125 15.878906 30.496094 15.652344 31.6875 Z M 14.640625 31.984375 C 14.105469 32.070312 14.84375 30.820312 14.640625 31.984375 Z M 15.476562 30.449219 C 14.921875 30.570312 15.75 29.570312 15.476562 30.449219 Z M 16.78125 29.316406 C 16.339844 29.945312 17.238281 30.160156 16.78125 29.316406 Z M 16.320312 30.242188 C 15.503906 30.761719 16.660156 31.242188 16.320312 30.242188 Z M 15.046875 28.855469 C 14.453125 29.441406 15.652344 29.539062 15.046875 28.855469 Z M 16.75 27.320312 C 16.132812 27.921875 17.292969 28.027344 16.75 27.320312 Z M 17.917969 28.167969 C 17.433594 28.773438 18.578125 28.601562 17.917969 28.167969 Z M 17.425781 28.78125 C 16.859375 29.515625 17.914062 29.554688 17.425781 28.78125 Z M 14.640625 32.632812 C 14.15625 33.238281 15.300781 33.066406 14.640625 32.632812 Z M 14.640625 32.632812 "/>
<path style="fill-rule:nonzero;fill:rgb(91.764706%,80.784314%,14.117647%);fill-opacity:1;stroke-width:1;stroke-linecap:butt;stroke-linejoin:miter;stroke:rgb(50.196078%,40%,0%);stroke-opacity:1;stroke-miterlimit:4;" d="M 256.446415 398.040341 C 250.26457 423.607971 261.127812 457.998235 282.554207 463.819972 C 296.718434 463.940008 321.565849 438.612449 293.237395 441.613345 C 262.568242 442.693667 258.126917 413.644998 268.690069 390.59812 C 264.608851 393.058855 260.527633 395.579607 256.446415 398.040341 Z M 256.446415 398.040341 " transform="matrix(-0.0650847,0,0,0.0650847,58.69856,7.820211)"/>
<path style="fill-rule:nonzero;fill:rgb(91.764706%,80.784314%,14.117647%);fill-opacity:1;stroke-width:1;stroke-linecap:butt;stroke-linejoin:miter;stroke:rgb(50.196078%,40%,0%);stroke-opacity:1;stroke-miterlimit:4;" d="M 293.95761 459.198593 C 287.595711 454.157088 268.930141 440.713076 285.735156 451.456282 C 289.516284 453.676945 293.297413 455.957626 297.138559 458.238306 " transform="matrix(-0.0650847,0,0,0.0650847,58.69856,7.820211)"/>
<path style="fill-rule:nonzero;fill:rgb(91.764706%,80.784314%,14.117647%);fill-opacity:1;stroke-width:1;stroke-linecap:butt;stroke-linejoin:miter;stroke:rgb(0%,0%,0%);stroke-opacity:1;stroke-miterlimit:4;" d="M 268.930141 379.494807 C 294.857879 370.312066 316.824434 397.620216 335.069879 370.252048 C 339.751276 361.249362 340.351455 318.156501 333.869521 317.496304 C 338.010757 341.143361 321.26576 403.141864 297.378631 359.508842 C 287.655729 361.549451 273.311448 357.408215 272.291144 371.032281 C 271.150804 373.853123 270.070481 376.673965 268.930141 379.494807 Z M 268.930141 379.494807 " transform="matrix(-0.0650847,0,0,0.0650847,58.69856,7.820211)"/>
<path style="fill:none;stroke-width:1;stroke-linecap:butt;stroke-linejoin:miter;stroke:rgb(50.196078%,40%,0%);stroke-opacity:1;stroke-miterlimit:4;" d="M 268.930141 379.494807 C 294.857879 370.312066 316.824434 397.620216 335.069879 370.252048 C 339.751276 361.249362 340.351455 318.156501 333.869521 317.496304 C 338.010757 341.143361 321.26576 403.141864 297.378631 359.508842 C 287.655729 361.549451 273.311448 357.408215 272.291144 371.032281 C 271.150804 373.853123 270.070481 376.673965 268.930141 379.494807 Z M 268.930141 379.494807 " transform="matrix(-0.0650847,0,0,0.0650847,58.69856,7.820211)"/>
<path style="fill-rule:nonzero;fill:rgb(91.764706%,80.784314%,14.117647%);fill-opacity:1;stroke-width:1;stroke-linecap:butt;stroke-linejoin:miter;stroke:rgb(50.196078%,40%,0%);stroke-opacity:1;stroke-miterlimit:4;" d="M 257.346684 200.821485 C 281.59392 216.426142 312.323091 233.171139 329.788303 252.857014 C 341.611831 241.033485 305.120941 212.044834 293.357431 197.820589 C 286.815478 182.876129 268.870123 186.777294 258.967168 192.719067 C 258.427006 195.419873 257.886845 198.120679 257.346684 200.821485 Z M 257.346684 200.821485 " transform="matrix(-0.0650847,0,0,0.0650847,58.69856,7.820211)"/>
<path style="fill:none;stroke-width:1;stroke-linecap:butt;stroke-linejoin:miter;stroke:rgb(0%,0%,0%);stroke-opacity:1;stroke-miterlimit:4;" d="M 274.391771 193.799389 C 293.297413 211.864781 314.123628 228.729814 331.768894 247.575438 L 332.249037 249.195921 L 332.489109 249.7961 " transform="matrix(-0.0650847,0,0,0.0650847,58.69856,7.820211)"/>
<path style="fill:none;stroke-width:1;stroke-linecap:butt;stroke-linejoin:miter;stroke:rgb(0%,0%,0%);stroke-opacity:1;stroke-miterlimit:4;" d="M 286.815478 213.185175 C 290.416553 219.427037 296.418344 224.168452 303.080332 226.80924 " transform="matrix(-0.0650847,0,0,0.0650847,58.69856,7.820211)"/>
<path style="fill-rule:nonzero;fill:rgb(100%,100%,100%);fill-opacity:1;stroke-width:1;stroke-linecap:butt;stroke-linejoin:miter;stroke:rgb(0%,0%,0%);stroke-opacity:1;stroke-miterlimit:4;" d="M 263.888636 180.415395 C 259.207239 165.470935 304.820852 134.741765 270.97075 149.746242 C 261.908045 158.448839 242.22217 168.531849 252.605269 183.596344 " transform="matrix(-0.0650847,0,0,0.0650847,58.69856,7.820211)"/>
<path style="fill-rule:nonzero;fill:rgb(100%,100%,100%);fill-opacity:1;stroke-width:1;stroke-linecap:butt;stroke-linejoin:miter;stroke:rgb(0%,0%,0%);stroke-opacity:1;stroke-miterlimit:4;" d="M 270.010463 155.748033 C 263.648565 161.86986 260.827723 170.632475 258.006881 178.674876 " transform="matrix(-0.0650847,0,0,0.0650847,58.69856,7.820211)"/>
<path style="fill-rule:nonzero;fill:rgb(100%,100%,100%);fill-opacity:1;stroke-width:1;stroke-linecap:butt;stroke-linejoin:miter;stroke:rgb(0%,0%,0%);stroke-opacity:1;stroke-miterlimit:4;" d="M 253.625574 180.175323 C 249.244266 167.33149 274.331753 130.660547 250.444624 154.307604 C 237.540773 166.19115 242.762332 181.675771 245.283084 196.260124 L 245.283084 196.320141 " transform="matrix(-0.0650847,0,0,0.0650847,58.69856,7.820211)"/>
<path style="fill-rule:nonzero;fill:rgb(100%,100%,100%);fill-opacity:1;stroke-width:1;stroke-linecap:butt;stroke-linejoin:miter;stroke:rgb(0%,0%,0%);stroke-opacity:1;stroke-miterlimit:4;" d="M 249.184248 165.230863 C 246.783532 171.95287 247.6838 179.335073 249.42432 186.057079 " transform="matrix(-0.0650847,0,0,0.0650847,58.69856,7.820211)"/>
<path style="fill-rule:nonzero;fill:rgb(100%,100%,100%);fill-opacity:1;stroke-width:1;stroke-linecap:butt;stroke-linejoin:miter;stroke:rgb(0%,0%,0%);stroke-opacity:1;stroke-miterlimit:4;" d="M 246.54346 189.718171 C 243.242475 175.133819 247.563764 135.461979 234.719931 169.732207 C 229.198284 185.396882 234.419842 202.021843 244.322797 214.625604 " transform="matrix(-0.0650847,0,0,0.0650847,58.69856,7.820211)"/>
<path style="fill-rule:nonzero;fill:rgb(100%,100%,100%);fill-opacity:1;stroke-width:1;stroke-linecap:butt;stroke-linejoin:miter;stroke:rgb(0%,0%,0%);stroke-opacity:1;stroke-miterlimit:4;" d="M 238.20097 178.974965 C 237.840863 186.357168 241.141848 193.439282 244.802941 199.741162 " transform="matrix(-0.0650847,0,0,0.0650847,58.69856,7.820211)"/>
<path style="fill-rule:nonzero;fill:rgb(100%,100%,100%);fill-opacity:1;stroke-width:1;stroke-linecap:butt;stroke-linejoin:miter;stroke:rgb(0%,0%,0%);stroke-opacity:1;stroke-miterlimit:4;" d="M 244.322797 212.945103 C 230.398642 205.382846 233.099448 151.786851 221.455973 181.13561 C 217.674845 199.501091 227.817872 212.524978 239.401329 225.128739 " transform="matrix(-0.0650847,0,0,0.0650847,58.69856,7.820211)"/>
<path style="fill-rule:nonzero;fill:rgb(100%,100%,100%);fill-opacity:1;stroke-width:1;stroke-linecap:butt;stroke-linejoin:miter;stroke:rgb(0%,0%,0%);stroke-opacity:1;stroke-miterlimit:4;" d="M 227.457764 188.937938 C 225.657227 201.301628 235.980308 212.16487 242.102135 221.94779 " transform="matrix(-0.0650847,0,0,0.0650847,58.69856,7.820211)"/>
<path style="fill-rule:nonzero;fill:rgb(100%,100%,100%);fill-opacity:1;stroke-width:1;stroke-linecap:butt;stroke-linejoin:miter;stroke:rgb(0%,0%,0%);stroke-opacity:1;stroke-miterlimit:4;" d="M 258.967168 282.805952 C 252.785323 263.180095 267.309657 240.193235 254.58586 224.168452 C 248.343997 211.084548 242.822349 208.563795 238.50106 223.988399 C 233.939699 233.111121 229.318319 242.173826 224.756958 251.296548 C 230.938803 262.639933 237.120648 273.923301 243.362511 285.266686 C 248.524051 284.426435 253.745609 283.646202 258.967168 282.805952 Z M 258.967168 282.805952 " transform="matrix(-0.0650847,0,0,0.0650847,58.69856,7.820211)"/>
<path style="fill:none;stroke-width:1;stroke-linecap:butt;stroke-linejoin:miter;stroke:rgb(0%,0%,0%);stroke-opacity:1;stroke-miterlimit:4;" d="M 258.967168 282.805952 C 252.785323 263.180095 267.309657 240.193235 254.58586 224.168452 C 248.343997 211.084548 242.822349 208.563795 238.50106 223.988399 C 233.939699 233.111121 229.318319 242.173826 224.756958 251.296548 C 230.938803 262.639933 237.120648 273.923301 243.362511 285.266686 C 248.524051 284.426435 253.745609 283.646202 258.967168 282.805952 Z M 258.967168 282.805952 " transform="matrix(-0.0650847,0,0,0.0650847,58.69856,7.820211)"/>
<path style="fill-rule:nonzero;fill:rgb(100%,100%,100%);fill-opacity:1;stroke-width:1;stroke-linecap:butt;stroke-linejoin:miter;stroke:rgb(0%,0%,0%);stroke-opacity:1;stroke-miterlimit:4;" d="M 244.022708 375.473607 C 253.205448 392.098568 253.385502 408.903583 260.527633 399.120664 C 266.409389 418.146342 268.810105 376.253839 286.635425 367.131117 C 307.16155 346.06483 339.031061 322.957934 329.788303 289.227868 C 319.82533 254.11739 279.673347 241.333575 262.808314 211.324619 C 255.486129 192.959138 282.254117 207.00333 281.653938 189.718171 C 300.55958 167.991687 236.820558 162.350004 241.261884 194.399568 C 232.499269 232.090817 284.954923 248.65576 275.232022 284.906579 C 273.311448 298.170537 258.487024 304.232346 250.504642 314.135301 C 240.541669 323.498095 230.578696 332.86089 220.615722 342.223684 " transform="matrix(-0.0650847,0,0,0.0650847,58.69856,7.820211)"/>
<path style="fill-rule:nonzero;fill:rgb(100%,100%,100%);fill-opacity:1;stroke-width:1;stroke-linecap:butt;stroke-linejoin:miter;stroke:rgb(0%,0%,0%);stroke-opacity:1;stroke-miterlimit:4;" d="M 221.275919 341.863576 C 213.533609 352.126639 192.407304 371.872532 202.01017 376.133804 C 190.666785 384.716365 172.061232 405.122455 198.829221 390.958228 C 180.46374 398.820574 187.665889 407.463153 202.250241 395.399553 C 196.848629 410.644103 218.815185 385.316544 215.694254 398.580502 C 225.657227 391.258317 235.020021 383.155899 244.562869 375.353571 " transform="matrix(-0.0650847,0,0,0.0650847,58.69856,7.820211)"/>
<path style="fill:none;stroke-width:1;stroke-linecap:butt;stroke-linejoin:miter;stroke:rgb(0%,0%,0%);stroke-opacity:1;stroke-miterlimit:4;" d="M 230.878785 331.240406 C 231.599 331.000334 223.076457 340.723236 228.418051 339.582896 " transform="matrix(-0.0650847,0,0,0.0650847,58.69856,7.820211)"/>
<path style="fill-rule:nonzero;fill:rgb(100%,100%,100%);fill-opacity:1;stroke-width:1;stroke-linecap:butt;stroke-linejoin:miter;stroke:rgb(0%,0%,0%);stroke-opacity:1;stroke-miterlimit:4;" d="M 229.798463 305.672776 C 217.434773 314.915534 220.195597 364.790418 231.298911 331.660531 C 235.440146 320.077075 243.482547 311.914639 245.043012 299.310877 " transform="matrix(-0.0650847,0,0,0.0650847,58.69856,7.820211)"/>
<path style="fill-rule:nonzero;fill:rgb(100%,100%,100%);fill-opacity:1;stroke-width:1;stroke-linecap:butt;stroke-linejoin:miter;stroke:rgb(0%,0%,0%);stroke-opacity:1;stroke-miterlimit:4;" d="M 239.161257 304.352382 C 239.461346 308.253546 230.278606 314.075283 229.378337 319.476895 " transform="matrix(-0.0650847,0,0,0.0650847,58.69856,7.820211)"/>
<path style="fill-rule:nonzero;fill:rgb(100%,100%,100%);fill-opacity:1;stroke-width:1;stroke-linecap:butt;stroke-linejoin:miter;stroke:rgb(0%,0%,0%);stroke-opacity:1;stroke-miterlimit:4;" d="M 241.742027 306.573044 C 235.080039 322.357755 243.96269 345.044526 250.56466 318.036466 C 252.065108 315.395677 253.265466 311.854621 256.446415 310.71428 " transform="matrix(-0.0650847,0,0,0.0650847,58.69856,7.820211)"/>
<path style="fill-rule:nonzero;fill:rgb(100%,100%,100%);fill-opacity:1;stroke-width:1;stroke-linecap:butt;stroke-linejoin:miter;stroke:rgb(0%,0%,0%);stroke-opacity:1;stroke-miterlimit:4;" d="M 218.034952 204.962721 C 204.770994 200.10127 190.486731 144.284612 191.507035 180.535431 C 191.387 197.760571 202.190224 208.683831 215.574218 217.386428 C 217.134683 218.646804 218.695149 219.907181 220.315633 221.167557 " transform="matrix(-0.0650847,0,0,0.0650847,58.69856,7.820211)"/>
<path style="fill-rule:nonzero;fill:rgb(100%,100%,100%);fill-opacity:1;stroke-width:1;stroke-linecap:butt;stroke-linejoin:miter;stroke:rgb(0%,0%,0%);stroke-opacity:1;stroke-miterlimit:4;" d="M 214.974039 209.524082 C 209.332355 204.902703 204.230833 199.381055 200.809812 192.899121 " transform="matrix(-0.0650847,0,0,0.0650847,58.69856,7.820211)"/>
<path style="fill-rule:nonzero;fill:rgb(100%,100%,100%);fill-opacity:1;stroke-width:1;stroke-linecap:butt;stroke-linejoin:miter;stroke:rgb(0%,0%,0%);stroke-opacity:1;stroke-miterlimit:4;" d="M 218.034952 218.046625 C 199.12931 213.845372 191.927161 183.116201 181.063919 179.275055 C 177.102737 201.181592 195.528235 218.406733 210.292642 231.550655 " transform="matrix(-0.0650847,0,0,0.0650847,58.69856,7.820211)"/>
<path style="fill-rule:nonzero;fill:rgb(100%,100%,100%);fill-opacity:1;stroke-width:1;stroke-linecap:butt;stroke-linejoin:miter;stroke:rgb(0%,0%,0%);stroke-opacity:1;stroke-miterlimit:4;" d="M 212.513304 225.608882 C 203.990761 218.886876 196.54854 210.72444 190.546749 201.661736 " transform="matrix(-0.0650847,0,0,0.0650847,58.69856,7.820211)"/>
<path style="fill-rule:nonzero;fill:rgb(100%,100%,100%);fill-opacity:1;stroke-width:1;stroke-linecap:butt;stroke-linejoin:miter;stroke:rgb(0%,0%,0%);stroke-opacity:1;stroke-miterlimit:4;" d="M 209.212319 229.630082 C 191.146928 227.649491 176.922683 191.158601 169.24039 194.399568 C 167.980014 220.147252 196.188432 234.791623 213.233519 249.015868 " transform="matrix(-0.0650847,0,0,0.0650847,58.69856,7.820211)"/>
<path style="fill-rule:nonzero;fill:rgb(100%,100%,100%);fill-opacity:1;stroke-width:1;stroke-linecap:butt;stroke-linejoin:miter;stroke:rgb(0%,0%,0%);stroke-opacity:1;stroke-miterlimit:4;" d="M 211.072874 239.052894 C 200.86983 234.911658 191.747107 227.769527 185.62528 218.526769 " transform="matrix(-0.0650847,0,0,0.0650847,58.69856,7.820211)"/>
<path style="fill-rule:nonzero;fill:rgb(100%,100%,100%);fill-opacity:1;stroke-width:1;stroke-linecap:butt;stroke-linejoin:miter;stroke:rgb(0%,0%,0%);stroke-opacity:1;stroke-miterlimit:4;" d="M 212.513304 248.475706 C 191.987179 249.856118 172.961501 208.14367 162.33833 218.106643 C 168.640211 242.113808 192.287268 253.277139 212.873412 262.819987 " transform="matrix(-0.0650847,0,0,0.0650847,58.69856,7.820211)"/>
<path style="fill-rule:nonzero;fill:rgb(100%,100%,100%);fill-opacity:1;stroke-width:1;stroke-linecap:butt;stroke-linejoin:miter;stroke:rgb(0%,0%,0%);stroke-opacity:1;stroke-miterlimit:4;" d="M 213.293537 252.736978 C 201.71008 250.156208 189.886552 245.7749 181.243973 237.372393 " transform="matrix(-0.0650847,0,0,0.0650847,58.69856,7.820211)"/>
<path style="fill-rule:nonzero;fill:rgb(100%,100%,100%);fill-opacity:1;stroke-width:1;stroke-linecap:butt;stroke-linejoin:miter;stroke:rgb(0%,0%,0%);stroke-opacity:1;stroke-miterlimit:4;" d="M 212.693358 261.079468 C 192.167232 259.27893 170.68082 235.571855 156.816683 234.971676 C 165.279208 259.57902 192.707394 268.821778 215.634236 274.583498 " transform="matrix(-0.0650847,0,0,0.0650847,58.69856,7.820211)"/>
<path style="fill-rule:nonzero;fill:rgb(100%,100%,100%);fill-opacity:1;stroke-width:1;stroke-linecap:butt;stroke-linejoin:miter;stroke:rgb(0%,0%,0%);stroke-opacity:1;stroke-miterlimit:4;" d="M 216.474486 263.540202 C 204.710976 263.240113 191.927161 262.639933 181.964187 255.677856 " transform="matrix(-0.0650847,0,0,0.0650847,58.69856,7.820211)"/>
<path style="fill-rule:nonzero;fill:rgb(100%,100%,100%);fill-opacity:1;stroke-width:1;stroke-linecap:butt;stroke-linejoin:miter;stroke:rgb(0%,0%,0%);stroke-opacity:1;stroke-miterlimit:4;" d="M 214.974039 274.403444 C 195.288164 274.403444 170.560784 254.357462 158.077059 255.437784 C 170.140659 276.984214 197.628862 286.226973 220.97583 288.087528 " transform="matrix(-0.0650847,0,0,0.0650847,58.69856,7.820211)"/>
<path style="fill-rule:nonzero;fill:rgb(100%,100%,100%);fill-opacity:1;stroke-width:1;stroke-linecap:butt;stroke-linejoin:miter;stroke:rgb(0%,0%,0%);stroke-opacity:1;stroke-miterlimit:4;" d="M 220.135579 279.865074 C 211.132892 279.865074 201.830116 278.964805 193.727698 274.763552 " transform="matrix(-0.0650847,0,0,0.0650847,58.69856,7.820211)"/>
<path style="fill-rule:nonzero;fill:rgb(100%,100%,100%);fill-opacity:1;stroke-width:1;stroke-linecap:butt;stroke-linejoin:miter;stroke:rgb(0%,0%,0%);stroke-opacity:1;stroke-miterlimit:4;" d="M 213.533609 304.472418 C 197.628862 311.074388 192.347286 358.668591 209.992552 326.378955 C 215.994343 314.435391 228.538087 311.554531 237.06063 302.431809 " transform="matrix(-0.0650847,0,0,0.0650847,58.69856,7.820211)"/>
<path style="fill-rule:nonzero;fill:rgb(100%,100%,100%);fill-opacity:1;stroke-width:1;stroke-linecap:butt;stroke-linejoin:miter;stroke:rgb(0%,0%,0%);stroke-opacity:1;stroke-miterlimit:4;" d="M 231.839072 301.171432 C 225.117066 305.792812 215.634236 308.013474 211.793089 316.055874 " transform="matrix(-0.0650847,0,0,0.0650847,58.69856,7.820211)"/>
<path style="fill-rule:nonzero;fill:rgb(100%,100%,100%);fill-opacity:1;stroke-width:1;stroke-linecap:butt;stroke-linejoin:miter;stroke:rgb(0%,0%,0%);stroke-opacity:1;stroke-miterlimit:4;" d="M 206.811603 293.789229 C 194.207841 298.230555 171.581089 339.16277 197.568844 317.676358 C 207.291746 308.193528 220.735758 305.432704 232.079143 298.410609 " transform="matrix(-0.0650847,0,0,0.0650847,58.69856,7.820211)"/>
<path style="fill-rule:nonzero;fill:rgb(100%,100%,100%);fill-opacity:1;stroke-width:1;stroke-linecap:butt;stroke-linejoin:miter;stroke:rgb(0%,0%,0%);stroke-opacity:1;stroke-miterlimit:4;" d="M 218.154988 295.529749 C 213.833698 299.550949 204.410886 302.851934 201.770098 309.934048 " transform="matrix(-0.0650847,0,0,0.0650847,58.69856,7.820211)"/>
<path style="fill-rule:nonzero;fill:rgb(100%,100%,100%);fill-opacity:1;stroke-width:1;stroke-linecap:butt;stroke-linejoin:miter;stroke:rgb(0%,0%,0%);stroke-opacity:1;stroke-miterlimit:4;" d="M 220.135579 287.72742 C 199.969561 292.468835 175.422235 267.861492 161.978223 274.463462 C 176.262486 298.230555 206.871621 297.810429 231.358928 299.130823 " transform="matrix(-0.0650847,0,0,0.0650847,58.69856,7.820211)"/>
<path style="fill-rule:nonzero;fill:rgb(100%,100%,100%);fill-opacity:1;stroke-width:1;stroke-linecap:butt;stroke-linejoin:miter;stroke:rgb(0%,0%,0%);stroke-opacity:1;stroke-miterlimit:4;" d="M 228.177979 293.549158 C 216.114379 293.309086 203.630653 293.129032 192.22725 288.687707 " transform="matrix(-0.0650847,0,0,0.0650847,58.69856,7.820211)"/>
<path style="fill-rule:nonzero;fill:rgb(100%,100%,100%);fill-opacity:1;stroke-width:1;stroke-linecap:butt;stroke-linejoin:miter;stroke:rgb(0%,0%,0%);stroke-opacity:1;stroke-miterlimit:4;" d="M 284.17469 290.128137 C 280.213508 264.74056 225.357137 290.728316 235.440146 249.195921 C 249.484338 230.650387 229.378337 198.300733 216.054361 196.920321 C 216.294433 214.74564 202.610349 228.609778 208.192015 245.474811 C 203.15051 254.657551 208.91223 271.762656 215.694254 283.826256 C 221.275919 296.490035 231.659018 303.632167 243.542564 311.434495 C 250.56466 312.514818 255.366093 317.196215 263.408493 315.095588 " transform="matrix(-0.0650847,0,0,0.0650847,58.69856,7.820211)"/>
<path style="fill:none;stroke-width:1;stroke-linecap:butt;stroke-linejoin:miter;stroke:rgb(0%,0%,0%);stroke-opacity:1;stroke-miterlimit:4;" d="M 221.095866 223.748327 C 222.476278 226.389115 223.5566 230.170243 226.977621 230.83044 " transform="matrix(-0.0650847,0,0,0.0650847,58.69856,7.820211)"/>
<path style="fill:none;stroke-width:1;stroke-linecap:butt;stroke-linejoin:miter;stroke:rgb(0%,0%,0%);stroke-opacity:1;stroke-miterlimit:4;" d="M 216.234415 207.063348 C 218.154988 210.904494 218.275024 216.846267 222.836385 219.006912 " transform="matrix(-0.0650847,0,0,0.0650847,58.69856,7.820211)"/>
<path style="fill:none;stroke-width:1;stroke-linecap:butt;stroke-linejoin:miter;stroke:rgb(0%,0%,0%);stroke-opacity:1;stroke-miterlimit:4;" d="M 213.293537 216.366124 C 214.07377 218.946894 214.013752 223.328202 217.434773 224.168452 " transform="matrix(-0.0650847,0,0,0.0650847,58.69856,7.820211)"/>
<path style="fill:none;stroke-width:1;stroke-linecap:butt;stroke-linejoin:miter;stroke:rgb(0%,0%,0%);stroke-opacity:1;stroke-miterlimit:4;" d="M 209.872516 226.389115 C 211.19291 228.969885 212.333251 232.811032 215.694254 233.471229 " transform="matrix(-0.0650847,0,0,0.0650847,58.69856,7.820211)"/>
<path style="fill:none;stroke-width:1;stroke-linecap:butt;stroke-linejoin:miter;stroke:rgb(0%,0%,0%);stroke-opacity:1;stroke-miterlimit:4;" d="M 208.131997 236.652178 C 209.572427 239.052894 211.012857 242.473915 214.253824 242.954059 " transform="matrix(-0.0650847,0,0,0.0650847,58.69856,7.820211)"/>
<path style="fill:none;stroke-width:1;stroke-linecap:butt;stroke-linejoin:miter;stroke:rgb(0%,0%,0%);stroke-opacity:1;stroke-miterlimit:4;" d="M 208.372068 246.915241 C 210.652749 249.736083 212.513304 253.757283 216.474486 254.717569 " transform="matrix(-0.0650847,0,0,0.0650847,58.69856,7.820211)"/>
<path style="fill:none;stroke-width:1;stroke-linecap:butt;stroke-linejoin:miter;stroke:rgb(0%,0%,0%);stroke-opacity:1;stroke-miterlimit:4;" d="M 209.392373 257.418375 C 211.853107 259.27893 214.433877 261.499593 217.674845 261.799683 " transform="matrix(-0.0650847,0,0,0.0650847,58.69856,7.820211)"/>
<path style="fill:none;stroke-width:1;stroke-linecap:butt;stroke-linejoin:miter;stroke:rgb(0%,0%,0%);stroke-opacity:1;stroke-miterlimit:4;" d="M 210.592731 265.700847 C 213.053465 267.561402 215.634236 269.782065 218.875203 270.142172 " transform="matrix(-0.0650847,0,0,0.0650847,58.69856,7.820211)"/>
<path style="fill:none;stroke-width:1;stroke-linecap:butt;stroke-linejoin:miter;stroke:rgb(0%,0%,0%);stroke-opacity:1;stroke-miterlimit:4;" d="M 211.793089 274.763552 C 215.274128 276.263999 218.755167 278.064537 222.536295 278.424644 " transform="matrix(-0.0650847,0,0,0.0650847,58.69856,7.820211)"/>
<path style="fill:none;stroke-width:1;stroke-linecap:butt;stroke-linejoin:miter;stroke:rgb(0%,0%,0%);stroke-opacity:1;stroke-miterlimit:4;" d="M 215.21411 283.286095 C 219.115275 283.586184 223.016439 283.946292 226.977621 284.066328 " transform="matrix(-0.0650847,0,0,0.0650847,58.69856,7.820211)"/>
<path style="fill:none;stroke-width:1;stroke-linecap:butt;stroke-linejoin:miter;stroke:rgb(0%,0%,0%);stroke-opacity:1;stroke-miterlimit:4;" d="M 222.176188 290.308191 C 223.5566 290.308191 230.45866 290.068119 232.559287 290.008101 " transform="matrix(-0.0650847,0,0,0.0650847,58.69856,7.820211)"/>
<path style="fill:none;stroke-width:1;stroke-linecap:butt;stroke-linejoin:miter;stroke:rgb(0%,0%,0%);stroke-opacity:1;stroke-miterlimit:4;" d="M 226.377442 297.270268 C 229.618409 296.490035 233.099448 295.889856 236.340415 296.910161 " transform="matrix(-0.0650847,0,0,0.0650847,58.69856,7.820211)"/>
<path style="fill:none;stroke-width:1;stroke-linecap:butt;stroke-linejoin:miter;stroke:rgb(0%,0%,0%);stroke-opacity:1;stroke-miterlimit:4;" d="M 232.079143 301.23145 C 235.320111 300.451218 238.801149 299.911056 242.042117 300.931361 " transform="matrix(-0.0650847,0,0,0.0650847,58.69856,7.820211)"/>
<path style="fill:none;stroke-width:1;stroke-linecap:butt;stroke-linejoin:miter;stroke:rgb(0%,0%,0%);stroke-opacity:1;stroke-miterlimit:4;" d="M 236.520469 305.912847 C 240.001508 305.372686 243.482547 304.652471 246.723514 303.332077 " transform="matrix(-0.0650847,0,0,0.0650847,58.69856,7.820211)"/>
<path style="fill:none;stroke-width:1;stroke-linecap:butt;stroke-linejoin:miter;stroke:rgb(0%,0%,0%);stroke-opacity:1;stroke-miterlimit:4;" d="M 242.582278 308.973761 C 243.182457 309.033779 247.6838 308.373582 249.304284 308.013474 " transform="matrix(-0.0650847,0,0,0.0650847,58.69856,7.820211)"/>
<path style="fill:none;stroke-width:1;stroke-linecap:butt;stroke-linejoin:miter;stroke:rgb(0%,0%,0%);stroke-opacity:1;stroke-miterlimit:4;" d="M 249.844445 312.094692 L 256.206344 310.234137 " transform="matrix(-0.0650847,0,0,0.0650847,58.69856,7.820211)"/>
<path style="fill:none;stroke-width:1;stroke-linecap:butt;stroke-linejoin:miter;stroke:rgb(0%,0%,0%);stroke-opacity:1;stroke-miterlimit:4;" d="M 280.273526 189.838207 C 278.172899 174.653676 262.328171 188.337759 260.887741 179.275055 " transform="matrix(-0.0650847,0,0,0.0650847,58.69856,7.820211)"/>
<path style=" stroke:none;fill-rule:nonzero;fill:rgb(0%,0%,0%);fill-opacity:1;" d="M 40.988281 19.632812 C 41.964844 20.574219 39.925781 20.367188 40.988281 19.632812 Z M 40.988281 19.632812 "/>
<path style=" stroke:none;fill-rule:nonzero;fill:rgb(100%,100%,100%);fill-opacity:1;" d="M 40.78125 19.972656 C 41.09375 20.359375 41.230469 19.84375 40.78125 19.972656 Z M 40.78125 19.972656 "/>
<path style="fill:none;stroke-width:1;stroke-linecap:butt;stroke-linejoin:miter;stroke:rgb(0%,0%,0%);stroke-opacity:1;stroke-miterlimit:4;" d="M 206.03137 373.012872 C 219.715454 377.334162 238.441042 382.735774 249.064212 361.789523 M 195.768307 392.998837 C 202.01017 386.997046 208.252033 381.055272 214.974039 375.593642 M 199.729489 397.140073 C 207.231728 390.238013 214.733967 383.335953 222.656331 376.914036 M 214.433877 394.379249 C 220.135579 388.617529 225.897299 382.915828 232.199179 377.814305 M 204.350868 373.312962 C 210.232624 366.410902 216.294433 359.508842 223.25651 353.687105 M 213.173501 373.673069 C 219.355346 366.771009 226.13737 360.349093 233.639609 354.947481 M 221.876098 375.293553 C 226.497478 367.671278 233.159466 361.549451 240.121543 356.087821 M 228.838176 375.173517 C 232.679322 369.05169 237.660809 363.59006 243.542564 359.328788 M 228.237997 376.373875 C 223.736654 380.995254 219.115275 385.43658 214.253824 389.697852 M 217.014648 377.09409 C 212.033161 382.135595 206.811603 386.87701 201.289955 391.438371 M 209.452391 374.81341 C 206.271442 377.874323 203.330564 381.175308 199.549435 383.455989 M 217.074666 347.625296 C 221.095866 356.808036 244.262779 363.830132 250.924768 349.845959 M 226.497478 352.786836 C 231.118857 348.585582 235.740236 344.324311 240.361615 340.063039 M 219.055257 353.507051 C 221.335937 350.026012 223.616618 346.604991 225.837281 343.18397 M 232.73934 354.947481 C 235.500164 351.886567 238.260988 348.825654 241.08183 345.764741 M 239.94149 354.767427 C 241.38192 353.146944 242.882367 351.52646 244.322797 349.905976 M 226.557496 356.147839 L 223.016439 359.268771 L 220.855794 361.00929 M 233.939699 358.068412 L 229.01823 362.209648 L 226.857585 364.130221 M 246.063317 361.00929 C 248.163944 357.828341 239.701418 368.151421 240.001508 366.891045 M 241.922081 357.708305 L 237.480755 361.429415 L 235.860272 362.869845 M 249.664391 338.382537 C 241.08183 348.405529 248.223961 345.584687 254.525842 341.143361 M 235.440146 344.92449 C 229.978516 346.244884 234.899985 336.822072 236.400433 337.122161 M 247.98389 330.580209 C 247.263675 331.660531 246.603478 332.740854 245.883263 333.881194 M 245.523155 239.533038 C 244.142744 243.674273 246.363406 247.815509 248.944176 250.816405 M 241.38192 242.713987 C 240.181561 248.535724 245.043012 253.577229 248.464033 257.658447 M 239.6414 252.256835 C 238.20097 257.238321 244.322797 260.599324 247.743818 262.519898 M 244.082726 266.421062 C 244.802941 270.082154 249.304284 269.722047 251.885054 269.602011 M 233.639609 220.867467 C 236.76054 229.269975 235.980308 233.291175 232.259197 241.213539 M 221.095866 223.748327 C 222.476278 226.389115 223.5566 230.170243 226.977621 230.83044 M 219.5354 232.57096 C 220.915812 235.15173 221.996134 238.992876 225.417155 239.653073 M 216.594522 240.013181 C 218.275024 242.05379 220.255615 244.454506 223.136475 244.694578 M 217.79488 249.375975 C 219.475382 251.416584 221.455973 253.757283 224.336833 253.997354 M 220.195597 259.218912 L 222.476278 259.639038 L 227.097657 260.059163 M 222.476278 266.120972 L 226.43746 266.301026 M 226.257406 217.386428 C 226.077352 219.06693 226.857585 221.527664 229.01823 221.34761 M 229.978516 280.765343 C 231.659018 280.585289 233.879681 279.264895 233.219484 277.224286 M 224.096761 275.243695 C 226.317424 274.22339 230.398642 273.443157 230.338624 270.142172 M 238.621096 288.687707 C 239.041221 285.026614 239.701418 281.245486 239.101239 277.524375 M 248.103926 295.109623 C 247.203657 291.148441 247.443729 286.347008 244.502851 283.106041 M 258.667078 297.690394 C 256.926559 292.768925 255.306075 286.407026 250.204553 283.766238 M 268.870123 297.21025 C 267.249639 291.208459 262.688278 286.106937 256.926559 283.946292 M 280.933723 297.51034 C 279.31324 291.568567 274.811896 286.407026 269.050177 284.306399 M 272.471198 309.513922 C 266.709478 311.674567 261.908045 316.115892 258.847132 321.397469 M 259.927454 195.539909 L 257.46672 196.320141 L 256.746505 197.040356 M 251.885054 210.004225 C 251.284875 212.16487 252.305179 214.385533 253.565556 216.066034 M 252.065108 186.29715 C 249.784427 186.537222 249.664391 189.358064 249.42432 190.978547 M 265.149012 226.749223 C 266.349371 228.24967 267.489711 229.750118 268.630051 231.250566 M 266.889532 239.893145 C 268.08989 241.273557 269.350266 242.653969 270.550624 244.034381 M 282.134081 253.877318 C 283.574511 255.437784 285.014941 256.99825 286.455371 258.558715 " transform="matrix(-0.0650847,0,0,0.0650847,58.69856,7.820211)"/>
<path style=" stroke:none;fill-rule:nonzero;fill:rgb(0%,0%,0%);fill-opacity:1;" d="M 38.890625 25.414062 C 38.773438 26.175781 37.976562 25.710938 38.890625 25.414062 Z M 39.460938 25.601562 C 39.648438 26.347656 38.734375 26.230469 39.460938 25.601562 Z M 39.070312 26.984375 C 39.257812 27.730469 38.34375 27.613281 39.070312 26.984375 Z M 38.105469 27.378906 C 38.566406 26.835938 37.917969 26.296875 38.105469 27.378906 Z M 40.234375 28.527344 C 40.71875 29.132812 39.574219 28.960938 40.234375 28.527344 Z M 40.664062 31.6875 C 41.25 32.28125 40.433594 30.496094 40.664062 31.6875 Z M 41.671875 31.984375 C 42.210938 32.070312 41.472656 30.820312 41.671875 31.984375 Z M 40.839844 30.449219 C 41.394531 30.570312 40.566406 29.570312 40.839844 30.449219 Z M 39.535156 29.316406 C 39.972656 29.945312 39.074219 30.160156 39.535156 29.316406 Z M 39.996094 30.242188 C 40.8125 30.761719 39.65625 31.242188 39.996094 30.242188 Z M 41.269531 28.855469 C 41.859375 29.441406 40.664062 29.539062 41.269531 28.855469 Z M 39.566406 27.320312 C 40.183594 27.921875 39.023438 28.027344 39.566406 27.320312 Z M 38.394531 28.167969 C 38.878906 28.773438 37.738281 28.601562 38.394531 28.167969 Z M 38.890625 28.78125 C 39.453125 29.515625 38.402344 29.554688 38.890625 28.78125 Z M 41.671875 32.632812 C 42.15625 33.238281 41.015625 33.066406 41.671875 32.632812 Z M 41.671875 32.632812 "/>
<path style="fill-rule:nonzero;fill:rgb(91.764706%,80.784314%,14.117647%);fill-opacity:1;stroke-width:1;stroke-linecap:butt;stroke-linejoin:miter;stroke:rgb(50.196078%,40%,0%);stroke-opacity:1;stroke-miterlimit:4;" d="M 462.568089 214.865676 C 464.848769 197.100374 453.385348 203.042148 453.865492 209.704136 C 427.037485 193.259228 474.571671 177.534535 467.489557 209.163975 C 473.671402 223.748327 446.603324 237.372393 462.568089 214.865676 Z M 462.568089 214.865676 " transform="matrix(0.0650847,0,0,0.0650847,-2.383466,7.820211)"/>
<path style="fill-rule:nonzero;fill:rgb(91.764706%,80.784314%,14.117647%);fill-opacity:1;stroke-width:1;stroke-linecap:butt;stroke-linejoin:miter;stroke:rgb(50.196078%,40%,0%);stroke-opacity:1;stroke-miterlimit:4;" d="M 476.492244 214.865676 C 474.271581 197.040356 485.735002 203.042148 485.194841 209.704136 C 512.022848 193.259228 464.54868 177.534535 471.630793 209.163975 C 466.649307 224.468542 491.25665 235.091712 476.492244 214.865676 Z M 476.492244 214.865676 " transform="matrix(0.0650847,0,0,0.0650847,-2.383466,7.820211)"/>
<path style="fill-rule:nonzero;fill:rgb(91.764706%,80.784314%,14.117647%);fill-opacity:1;stroke-width:1;stroke-linecap:butt;stroke-linejoin:miter;stroke:rgb(50.196078%,40%,0%);stroke-opacity:1;stroke-miterlimit:4;" d="M 469.530166 237.012285 C 480.093319 221.587682 466.349217 198.720858 480.933569 182.395986 C 474.391617 150.826565 445.943127 182.516022 465.629002 200.10127 C 472.59108 212.584995 457.166477 227.349402 469.530166 237.012285 Z M 469.530166 237.012285 " transform="matrix(0.0650847,0,0,0.0650847,-2.383466,7.820211)"/>
<path style="fill-rule:nonzero;fill:rgb(91.764706%,80.784314%,14.117647%);fill-opacity:1;stroke-width:1;stroke-linecap:butt;stroke-linejoin:miter;stroke:rgb(50.196078%,40%,0%);stroke-opacity:1;stroke-miterlimit:4;" d="M 479.853247 213.125157 C 477.272477 207.483473 454.705742 207.483473 461.487766 216.246088 C 467.249486 214.865676 476.732316 219.487055 479.853247 213.125157 Z M 479.853247 213.125157 " transform="matrix(0.0650847,0,0,0.0650847,-2.383466,7.820211)"/>
<path style="fill-rule:nonzero;fill:rgb(91.764706%,80.784314%,14.117647%);fill-opacity:1;stroke-width:1;stroke-linecap:butt;stroke-linejoin:miter;stroke:rgb(50.196078%,40%,0%);stroke-opacity:1;stroke-miterlimit:10;" d="M 445.162894 439.392682 C 461.36773 439.392682 477.632584 439.392682 493.83742 439.392682 C 498.698871 454.817285 483.814429 450.37596 473.611384 450.796085 C 465.028823 448.815494 448.283826 454.937321 445.162894 447.435082 C 445.162894 444.734276 445.162894 442.093488 445.162894 439.392682 Z M 445.162894 436.931948 C 445.042859 422.347595 435.319957 394.199195 449.184094 413.58498 C 466.589289 417.426127 436.400279 433.99107 455.846083 432.010479 C 455.786065 432.610658 475.231868 431.4103 464.128554 426.008688 C 447.563611 418.926574 475.651993 391.858496 477.332495 414.065124 C 490.296364 423.427918 459.027032 431.470318 479.373104 432.010479 C 479.49314 427.269064 494.13751 438.612449 489.81622 426.008688 C 471.15065 420.306986 510.342346 392.458676 496.058083 416.945983 C 499.359068 437.892234 486.995379 438.792503 470.250381 436.931948 C 461.907892 436.931948 453.505384 436.931948 445.162894 436.931948 Z M 445.162894 436.931948 " transform="matrix(0.0650847,0,0,0.0650847,-2.383466,7.820211)"/>
<path style=" stroke:none;fill-rule:nonzero;fill:rgb(50.196078%,40%,0%);fill-opacity:1;" d="M 28.265625 35.140625 C 29.046875 35.492188 27.808594 34.097656 28.101562 35.003906 C 27.199219 35.097656 27.863281 35.101562 28.265625 35.140625 Z M 28.265625 35.140625 "/>
<path style=" stroke:none;fill-rule:nonzero;fill:rgb(50.196078%,40%,0%);fill-opacity:1;" d="M 26.574219 36.539062 C 26.9375 36.808594 26.40625 37.347656 26.574219 36.539062 Z M 26.574219 36.539062 "/>
<path style=" stroke:none;fill-rule:nonzero;fill:rgb(50.196078%,40%,0%);fill-opacity:1;" d="M 26.613281 35.253906 C 27.433594 35.453125 25.890625 34.246094 26.527344 35.222656 L 26.53125 35.234375 Z M 26.613281 35.253906 "/>
<path style=" stroke:none;fill-rule:nonzero;fill:rgb(50.196078%,40%,0%);fill-opacity:1;" d="M 26.496094 35.042969 C 26.839844 35.125 26.40625 35.808594 26.496094 35.042969 Z M 26.496094 35.042969 "/>
<path style="fill-rule:nonzero;fill:rgb(100%,50.196078%,50.196078%);fill-opacity:1;stroke-width:1;stroke-linecap:butt;stroke-linejoin:round;stroke:rgb(61.960784%,47.058824%,0%);stroke-opacity:1;stroke-miterlimit:4;" d="M 464.848769 444.91433 C 474.751725 436.87193 476.252172 452.95673 464.848769 444.91433 Z M 464.848769 444.91433 " transform="matrix(0.0650847,0,0,0.0650847,-2.383466,7.820211)"/>
<path style=" stroke:none;fill-rule:nonzero;fill:rgb(100%,50.196078%,50.196078%);fill-opacity:1;" d="M 27.871094 36.777344 C 28.515625 36.253906 28.613281 37.300781 27.871094 36.777344 Z M 27.871094 36.777344 "/>
<path style=" stroke:none;fill-rule:nonzero;fill:rgb(72.941176%,0%,15.686275%);fill-opacity:1;" d="M 28.4375 36.777344 C 28.050781 37.179688 28.019531 36.65625 28.4375 36.777344 Z M 28.4375 36.777344 "/>
<path style=" stroke:none;fill-rule:nonzero;fill:rgb(81.176471%,11.764706%,27.058824%);fill-opacity:1;" d="M 28.15625 36.777344 C 28.28125 37.183594 27.539062 36.578125 28.15625 36.777344 Z M 28.15625 36.777344 "/>
<path style=" stroke:none;fill-rule:nonzero;fill:rgb(100%,3.137255%,23.529412%);fill-opacity:1;" d="M 28.15625 36.609375 C 28.015625 36.960938 28.792969 36.75 28.15625 36.609375 Z M 28.15625 36.609375 "/>
<path style=" stroke:none;fill-rule:nonzero;fill:rgb(100%,60%,80%);fill-opacity:1;" d="M 26.421875 36.773438 C 26.710938 36.203125 26.742188 37.34375 26.421875 36.773438 Z M 26.421875 36.773438 "/>
<path style=" stroke:none;fill-rule:nonzero;fill:rgb(100%,0%,0%);fill-opacity:1;" d="M 26.421875 36.773438 C 26.859375 36.628906 26.605469 37.148438 26.421875 36.773438 Z M 26.421875 36.773438 "/>
<path style="fill-rule:nonzero;fill:rgb(80%,80%,80%);fill-opacity:1;stroke-width:1;stroke-linecap:butt;stroke-linejoin:miter;stroke:rgb(61.960784%,47.058824%,0%);stroke-opacity:1;stroke-miterlimit:4;" d="M 443.602429 418.926574 C 449.844291 426.308777 436.400279 421.987488 443.602429 418.926574 Z M 443.602429 418.926574 " transform="matrix(0.0650847,0,0,0.0650847,-2.383466,7.820211)"/>
<path style=" stroke:none;fill-rule:nonzero;fill:rgb(100%,100%,100%);fill-opacity:1;" d="M 26.425781 35.140625 C 26.652344 35.300781 26.199219 35.300781 26.425781 35.140625 Z M 26.425781 35.140625 "/>
<path style=" stroke:none;fill-rule:nonzero;fill:rgb(50.196078%,40%,0%);fill-opacity:1;" d="M 29.734375 35.253906 C 28.914062 35.453125 30.453125 34.246094 29.820312 35.222656 L 29.816406 35.234375 Z M 29.734375 35.253906 "/>
<path style=" stroke:none;fill-rule:nonzero;fill:rgb(50.196078%,40%,0%);fill-opacity:1;" d="M 29.851562 35.042969 C 29.507812 35.128906 29.9375 35.804688 29.851562 35.042969 Z M 29.851562 35.042969 "/>
<path style="fill-rule:nonzero;fill:rgb(80%,80%,80%);fill-opacity:1;stroke-width:1;stroke-linecap:butt;stroke-linejoin:miter;stroke:rgb(61.960784%,47.058824%,0%);stroke-opacity:1;stroke-miterlimit:4;" d="M 495.337868 418.926574 C 489.156023 426.308777 502.600035 421.987488 495.337868 418.926574 Z M 495.337868 418.926574 " transform="matrix(0.0650847,0,0,0.0650847,-2.383466,7.820211)"/>
<path style=" stroke:none;fill-rule:nonzero;fill:rgb(100%,100%,100%);fill-opacity:1;" d="M 29.878906 35.113281 C 29.652344 35.277344 30.109375 35.277344 29.878906 35.113281 Z M 29.878906 35.113281 "/>
<path style=" stroke:none;fill-rule:nonzero;fill:rgb(50.196078%,40%,0%);fill-opacity:1;" d="M 29.773438 36.539062 C 29.410156 36.808594 29.941406 37.351562 29.773438 36.539062 Z M 29.773438 36.539062 "/>
<path style=" stroke:none;fill-rule:nonzero;fill:rgb(100%,3.137255%,23.529412%);fill-opacity:1;" d="M 29.925781 36.773438 C 29.632812 36.203125 29.601562 37.34375 29.925781 36.773438 Z M 29.925781 36.773438 "/>
<path style=" stroke:none;fill-rule:nonzero;fill:rgb(72.941176%,0%,15.686275%);fill-opacity:1;" d="M 29.925781 36.773438 C 29.488281 36.628906 29.742188 37.148438 29.925781 36.773438 Z M 29.925781 36.773438 "/>
<path style="fill-rule:nonzero;fill:rgb(80%,80%,80%);fill-opacity:1;stroke-width:0.5;stroke-linecap:butt;stroke-linejoin:miter;stroke:rgb(61.960784%,47.058824%,0%);stroke-opacity:1;stroke-miterlimit:4;" d="M 471.810847 418.746521 C 468.26979 426.24876 465.028823 412.564676 471.510757 417.726216 C 471.690811 418.026306 471.810847 418.386413 471.810847 418.746521 Z M 471.810847 418.746521 " transform="matrix(0.0650847,0,0,0.0650847,-2.383466,7.820211)"/>
<path style=" stroke:none;fill-rule:nonzero;fill:rgb(100%,100%,100%);fill-opacity:1;" d="M 28.210938 35.027344 C 28.050781 35.269531 28.050781 34.789062 28.210938 35.027344 Z M 28.210938 35.027344 "/>
<path style="fill-rule:nonzero;fill:rgb(80%,80%,80%);fill-opacity:1;stroke-width:0.5;stroke-linecap:butt;stroke-linejoin:miter;stroke:rgb(61.960784%,47.058824%,0%);stroke-opacity:1;stroke-miterlimit:4;" d="M 459.747247 442.693667 C 455.846083 449.115584 455.305921 436.451804 459.747247 442.693667 Z M 459.747247 442.693667 " transform="matrix(0.0650847,0,0,0.0650847,-2.383466,7.820211)"/>
<path style=" stroke:none;fill-rule:nonzero;fill:rgb(100%,100%,100%);fill-opacity:1;" d="M 27.457031 36.597656 C 27.347656 36.765625 27.34375 36.433594 27.457031 36.597656 Z M 27.457031 36.597656 "/>
<path style="fill-rule:nonzero;fill:rgb(80%,80%,80%);fill-opacity:1;stroke-width:0.5;stroke-linecap:butt;stroke-linejoin:miter;stroke:rgb(61.960784%,47.058824%,0%);stroke-opacity:1;stroke-miterlimit:4;" d="M 459.747247 447.4951 C 455.846083 453.917017 455.305921 441.313255 459.747247 447.4951 Z M 459.747247 447.4951 " transform="matrix(0.0650847,0,0,0.0650847,-2.383466,7.820211)"/>
<path style=" stroke:none;fill-rule:nonzero;fill:rgb(100%,100%,100%);fill-opacity:1;" d="M 27.457031 36.914062 C 27.347656 37.082031 27.34375 36.75 27.457031 36.914062 Z M 27.457031 36.914062 "/>
<path style="fill-rule:nonzero;fill:rgb(80%,80%,80%);fill-opacity:1;stroke-width:0.5;stroke-linecap:butt;stroke-linejoin:miter;stroke:rgb(61.960784%,47.058824%,0%);stroke-opacity:1;stroke-miterlimit:4;" d="M 482.854143 442.693667 C 478.892961 449.115584 478.412817 436.451804 482.854143 442.693667 Z M 482.854143 442.693667 " transform="matrix(0.0650847,0,0,0.0650847,-2.383466,7.820211)"/>
<path style=" stroke:none;fill-rule:nonzero;fill:rgb(100%,100%,100%);fill-opacity:1;" d="M 28.957031 36.597656 C 28.847656 36.765625 28.847656 36.433594 28.957031 36.597656 Z M 28.957031 36.597656 "/>
<path style="fill-rule:nonzero;fill:rgb(80%,80%,80%);fill-opacity:1;stroke-width:0.5;stroke-linecap:butt;stroke-linejoin:miter;stroke:rgb(61.960784%,47.058824%,0%);stroke-opacity:1;stroke-miterlimit:4;" d="M 482.854143 447.4951 C 478.892961 453.917017 478.412817 441.313255 482.854143 447.4951 Z M 482.854143 447.4951 " transform="matrix(0.0650847,0,0,0.0650847,-2.383466,7.820211)"/>
<path style=" stroke:none;fill-rule:nonzero;fill:rgb(100%,100%,100%);fill-opacity:1;" d="M 28.957031 36.914062 C 28.847656 37.082031 28.847656 36.75 28.957031 36.914062 Z M 28.957031 36.914062 "/>
</g>
</svg>
