<?xml version="1.0" encoding="UTF-8"?>
<!-- Created by grConvert v0.1-0 -->
<svg xmlns="http://www.w3.org/2000/svg" xmlns:xlink="http://www.w3.org/1999/xlink" width="56pt" height="56pt" viewBox="0 0 56 56" version="1.1">
<g id="surface508">
<path style=" stroke:none;fill-rule:nonzero;fill:rgb(0%,61.960784%,28.627451%);fill-opacity:1;" d="M 28.125 0.0351562 C 12.59375 0.0351562 0 12.628906 0 28.160156 C 0 33.617188 1.558594 38.707031 4.25 43.019531 L 51.019531 11.835938 C 45.921875 4.695312 37.570312 0.0351562 28.125 0.0351562 Z M 28.125 0.0351562 "/>
<path style=" stroke:none;fill-rule:nonzero;fill:rgb(80.784314%,6.666667%,14.901961%);fill-opacity:1;" d="M 51.019531 11.835938 L 4.25 43.019531 C 8.925781 50.515625 17.03125 55.648438 26.371094 56.222656 L 29.878906 56.222656 C 44.59375 55.320312 56.25 43.109375 56.25 28.160156 C 56.25 22.074219 54.308594 16.4375 51.019531 11.835938 Z M 51.019531 11.835938 "/>
<path style=" stroke:none;fill-rule:nonzero;fill:rgb(0%,0%,0%);fill-opacity:1;" d="M 40.085938 2.703125 L 0.0351562 29.515625 C 0.4375 38.007812 4.605469 45.507812 10.90625 50.390625 L 55.246094 20.710938 C 53.058594 12.730469 47.449219 6.167969 40.085938 2.703125 Z M 40.085938 2.703125 "/>
<path style=" stroke:none;fill-rule:nonzero;fill:rgb(100%,100%,100%);fill-opacity:1;" d="M 42.585938 25.289062 L 40.792969 19.882812 L 35.230469 19.628906 L 39.6875 16.207031 L 38.203125 10.699219 L 42.753906 13.992188 L 47.394531 10.84375 L 45.75 16.300781 L 50.105469 19.859375 L 44.539062 19.9375 Z M 42.585938 25.289062 "/>
<path style=" stroke:none;fill-rule:nonzero;fill:rgb(100%,100%,100%);fill-opacity:1;" d="M 10.679688 46.882812 L 8.882812 41.476562 L 3.324219 41.226562 L 7.78125 37.800781 L 6.292969 32.296875 L 10.84375 35.589844 L 15.488281 32.4375 L 13.839844 37.894531 L 18.195312 41.453125 L 12.632812 41.535156 Z M 10.679688 46.882812 "/>
<path style=" stroke:none;fill-rule:nonzero;fill:rgb(98.823529%,81.960784%,8.627451%);fill-opacity:1;" d="M 54.894531 19.53125 L 9.953125 49.621094 C 11.066406 50.5625 12.246094 51.421875 13.5 52.1875 L 55.910156 23.792969 C 55.683594 22.332031 55.339844 20.910156 54.894531 19.53125 Z M 54.894531 19.53125 "/>
<path style=" stroke:none;fill-rule:nonzero;fill:rgb(98.823529%,81.960784%,8.627451%);fill-opacity:1;" d="M 38.257812 1.921875 L 0.015625 27.527344 C 0.0117188 27.738281 0 27.949219 0 28.160156 C 0 29.558594 0.105469 30.925781 0.304688 32.269531 L 42.527344 4 C 41.175781 3.195312 39.746094 2.5 38.257812 1.921875 Z M 38.257812 1.921875 "/>
</g>
</svg>
