<?xml version="1.0" encoding="UTF-8"?>
<!-- Created by grConvert v0.1-0 -->
<svg xmlns="http://www.w3.org/2000/svg" xmlns:xlink="http://www.w3.org/1999/xlink" width="56pt" height="56pt" viewBox="0 0 56 56" version="1.1">
<g id="surface520">
<path style=" stroke:none;fill-rule:nonzero;fill:rgb(0%,61.960784%,37.647059%);fill-opacity:1;" d="M 28.125 0.0351562 C 12.59375 0.0351562 0 12.628906 0 28.160156 C 0 43.695312 12.59375 56.285156 28.125 56.285156 C 43.65625 56.285156 56.25 43.695312 56.25 28.160156 C 56.25 12.628906 43.65625 0.0351562 28.125 0.0351562 Z M 28.125 0.0351562 "/>
<path style=" stroke:none;fill-rule:nonzero;fill:rgb(98.823529%,81.960784%,8.627451%);fill-opacity:1;" d="M 28.125 0.0351562 C 12.59375 0.0351562 0 12.628906 0 28.160156 C 0 43.695312 12.59375 56.285156 28.125 56.285156 C 33.890625 56.285156 39.246094 54.546875 43.707031 51.574219 L 43.707031 4.746094 C 39.246094 1.769531 33.890625 0.0351562 28.125 0.0351562 Z M 28.125 0.0351562 "/>
<path style=" stroke:none;fill-rule:nonzero;fill:rgb(0%,44.705882%,77.647059%);fill-opacity:1;" d="M 12.542969 4.746094 C 4.984375 9.789062 0 18.390625 0 28.160156 C 0 37.929688 4.984375 46.535156 12.542969 51.574219 Z M 12.542969 4.746094 "/>
<path style=" stroke:none;fill-rule:nonzero;fill:rgb(0%,61.960784%,37.647059%);fill-opacity:1;" d="M 24.21875 37.925781 L 28.125 45.742188 L 32.03125 37.925781 L 28.125 30.113281 Z M 24.21875 37.925781 "/>
<path style=" stroke:none;fill-rule:nonzero;fill:rgb(0%,61.960784%,37.647059%);fill-opacity:1;" d="M 19.335938 28.160156 L 23.242188 35.972656 L 27.148438 28.160156 L 23.242188 20.34375 Z M 19.335938 28.160156 "/>
<path style=" stroke:none;fill-rule:nonzero;fill:rgb(0%,61.960784%,37.647059%);fill-opacity:1;" d="M 29.101562 28.160156 L 33.007812 35.972656 L 36.914062 28.160156 L 33.007812 20.34375 Z M 29.101562 28.160156 "/>
</g>
</svg>
