<?xml version="1.0" encoding="UTF-8"?>
<!-- Created by grConvert v0.1-0 -->
<svg xmlns="http://www.w3.org/2000/svg" xmlns:xlink="http://www.w3.org/1999/xlink" width="56pt" height="56pt" viewBox="0 0 56 56" version="1.1">
<g id="surface524">
<path style=" stroke:none;fill-rule:nonzero;fill:rgb(0.392157%,16.470588%,52.941176%);fill-opacity:1;" d="M 28.125 0.0351562 C 12.59375 0.0351562 0 12.628906 0 28.160156 C 0 43.695312 12.59375 56.285156 28.125 56.285156 C 43.65625 56.285156 56.25 43.695312 56.25 28.160156 C 56.25 12.628906 43.65625 0.0351562 28.125 0.0351562 Z M 28.125 0.0351562 "/>
<path style=" stroke:none;fill-rule:nonzero;fill:rgb(86.27451%,9.019608%,11.372549%);fill-opacity:1;" d="M 28.125 0.0351562 C 12.613281 0.0351562 0.0351562 12.59375 0.00390625 28.09375 L 56.25 28.09375 C 56.214844 12.59375 43.636719 0.0351562 28.125 0.0351562 Z M 28.125 0.0351562 "/>
<path style=" stroke:none;fill-rule:nonzero;fill:rgb(100%,100%,100%);fill-opacity:1;" d="M 10.785156 6.023438 C 4.222656 11.171875 0 19.171875 0 28.160156 C 0 37.113281 4.1875 45.082031 10.703125 50.234375 L 40.21875 28.09375 Z M 10.785156 6.023438 "/>
<path style=" stroke:none;fill-rule:nonzero;fill:rgb(100%,100%,0%);fill-opacity:1;" d="M 19.996094 20.578125 C 20.074219 19.679688 19.871094 19.054688 19.480469 18.378906 C 18.917969 17.691406 18.496094 17.117188 17.597656 16.832031 C 16.78125 16.421875 15.566406 16.078125 14.808594 16 C 13.816406 16.296875 12.824219 16.390625 11.96875 17.015625 C 11.007812 17.25 10.523438 18.171875 10.109375 19.023438 C 9.742188 19.277344 9.867188 20.160156 9.921875 20.535156 C 13.28125 20.550781 16.640625 20.566406 20 20.582031 "/>
<path style="fill-rule:nonzero;fill:rgb(97.647059%,85.098039%,5.882353%);fill-opacity:1;stroke-width:0.0297454;stroke-linecap:butt;stroke-linejoin:miter;stroke:rgb(0%,0%,0%);stroke-opacity:1;stroke-miterlimit:4;" d="M 15.996875 16.4625 C 16.059375 15.74375 15.896875 15.24375 15.584375 14.703125 C 15.134375 14.153125 14.796875 13.69375 14.078125 13.465625 C 13.425 13.1375 12.453125 12.8625 11.846875 12.8 C 11.053125 13.0375 10.259375 13.1125 9.575 13.6125 C 8.80625 13.8 8.41875 14.5375 8.0875 15.21875 C 7.79375 15.41875 7.89375 16.125 7.9375 16.428125 C 10.625 16.440625 13.315625 16.45 15.996875 16.4625 Z M 15.996875 16.4625 " transform="matrix(1.25,0,0,1.25,0,0)"/>
<path style=" stroke:none;fill-rule:nonzero;fill:rgb(86.27451%,9.019608%,11.372549%);fill-opacity:1;" d="M 19.761719 19.988281 C 18.160156 19.835938 16.410156 19.4375 14.914062 20.246094 C 12.863281 19.167969 10.550781 20.261719 8.390625 20.019531 C 7.703125 20.0625 6.5625 19.292969 6.257812 19.515625 C 6.628906 21.816406 7.1875 24.121094 7.101562 26.460938 C 6.902344 28.738281 5.664062 31.109375 6.652344 33.355469 C 7.5 34.847656 9.328125 35.203125 10.90625 35.253906 C 12.277344 35.523438 13.90625 35.433594 14.972656 36.476562 C 16.429688 35.097656 18.601562 35.488281 20.417969 35.125 C 21.722656 34.949219 23.117188 34.246094 23.488281 32.90625 C 23.925781 31.464844 23.511719 29.929688 23.15625 28.519531 C 22.242188 25.507812 23.152344 22.382812 23.636719 19.382812 C 22.449219 19.976562 21.070312 20.257812 19.757812 19.988281 "/>
<path style=" stroke:none;fill-rule:nonzero;fill:rgb(38.431373%,68.627451%,88.235294%);fill-opacity:1;" d="M 22.140625 28.753906 C 22.480469 30.183594 22.835938 32.136719 21.464844 33.152344 C 19.652344 34.433594 17.191406 33.523438 15.339844 34.667969 C 14.613281 35.164062 13.667969 33.890625 12.683594 34.066406 C 11.078125 33.808594 9.101562 34.078125 7.972656 32.644531 C 7.015625 31.199219 7.65625 29.371094 7.984375 27.820312 C 8.515625 25.542969 7.949219 23.195312 7.476562 20.957031 C 8.53125 21.214844 10.582031 21.613281 12.039062 21.171875 C 13.429688 20.832031 14.730469 21.8125 16.039062 21.207031 C 17.789062 20.941406 19.585938 21.773438 21.328125 21.230469 C 21.960938 21.019531 22.648438 20.585938 22.246094 21.582031 C 21.835938 23.9375 21.289062 26.429688 22.140625 28.753906 "/>
<path style=" stroke:none;fill-rule:nonzero;fill:rgb(100%,100%,100%);fill-opacity:1;" d="M 19.84375 29.269531 C 19.839844 28.460938 19.835938 27.648438 19.828125 26.835938 C 20.5 26.910156 19.472656 26.480469 19.304688 26.304688 C 18.339844 25.679688 17.375 25.058594 16.410156 24.433594 C 16.453125 24.042969 16.308594 23.460938 16.472656 23.1875 C 17.125 23.257812 16.117188 22.800781 15.960938 22.613281 C 15.609375 22.359375 15.253906 22.105469 14.902344 21.855469 C 14.285156 22.296875 13.667969 22.742188 13.050781 23.183594 C 13.65625 23.003906 13.332031 23.757812 13.414062 24.097656 C 13.542969 24.605469 12.882812 24.6875 12.589844 24.96875 C 11.632812 25.589844 10.671875 26.210938 9.714844 26.832031 C 10.269531 26.707031 9.910156 27.496094 10.015625 27.816406 C 10.019531 28.300781 10.019531 28.78125 10.023438 29.265625 C 13.296875 29.269531 16.570312 29.269531 19.839844 29.273438 "/>
<path style="fill:none;stroke-width:0.127762;stroke-linecap:butt;stroke-linejoin:miter;stroke:rgb(0%,0%,0%);stroke-opacity:1;stroke-miterlimit:4;" d="M 15.875 23.415625 C 15.871875 22.76875 15.865625 22.11875 15.8625 21.46875 C 16.4 21.528125 15.578125 21.184375 15.44375 21.04375 C 14.671875 20.54375 13.9 20.046875 13.128125 19.546875 C 13.1625 19.234375 13.046875 18.76875 13.178125 18.55 C 13.7 18.609375 12.89375 18.240625 12.76875 18.090625 C 12.4875 17.8875 12.203125 17.684375 11.921875 17.484375 C 11.428125 17.8375 10.934375 18.19375 10.440625 18.546875 C 10.925 18.403125 10.665625 19.00625 10.73125 19.278125 C 10.834375 19.684375 10.303125 19.75 10.071875 19.975 C 9.30625 20.471875 8.5375 20.96875 7.771875 21.465625 C 8.215625 21.365625 7.928125 21.99375 8.0125 22.253125 C 8.015625 22.640625 8.015625 23.025 8.01875 23.4125 C 10.6375 23.4125 13.25625 23.41875 15.875 23.415625 Z M 15.875 23.415625 " transform="matrix(1.25,0,0,1.25,0,0)"/>
<path style=" stroke:none;fill-rule:nonzero;fill:rgb(100%,100%,100%);fill-opacity:1;" d="M 20.984375 32.46875 C 21.035156 32.957031 21.050781 33.414062 20.425781 33.230469 C 16.617188 33.222656 12.808594 33.21875 9 33.214844 C 8.949219 32.726562 8.933594 32.273438 9.558594 32.457031 C 13.367188 32.460938 17.175781 32.464844 20.988281 32.46875 "/>
<path style="fill:none;stroke-width:0.127762;stroke-linecap:butt;stroke-linejoin:miter;stroke:rgb(0%,0%,0%);stroke-opacity:1;stroke-miterlimit:4;" d="M 16.7875 25.975 C 16.828125 26.365625 16.840625 26.73125 16.340625 26.584375 C 13.29375 26.578125 10.246875 26.575 7.2 26.571875 C 7.159375 26.18125 7.146875 25.81875 7.646875 25.965625 C 10.69375 25.96875 13.74375 25.971875 16.7875 25.975 Z M 16.7875 25.975 " transform="matrix(1.25,0,0,1.25,0,0)"/>
<path style=" stroke:none;fill-rule:nonzero;fill:rgb(100%,100%,100%);fill-opacity:1;" d="M 9.796875 32.421875 C 9.792969 31.5625 9.789062 30.703125 9.789062 29.84375 C 10.433594 29.640625 10.257812 30.253906 10.265625 30.6875 C 10.257812 31.273438 10.25 31.863281 10.246094 32.449219 C 10.253906 31.589844 10.265625 30.726562 10.273438 29.863281 C 9.785156 29.996094 9.332031 29.714844 9.644531 29.292969 C 13.195312 29.296875 16.742188 29.300781 20.289062 29.304688 C 20.519531 29.957031 19.941406 29.804688 19.632812 29.921875 C 19.636719 30.769531 19.640625 31.613281 19.644531 32.460938 C 19.636719 31.589844 19.628906 30.722656 19.621094 29.851562 C 20.265625 29.648438 20.105469 30.257812 20.117188 30.695312 C 20.117188 31.273438 20.121094 31.851562 20.125 32.433594 "/>
<path style="fill:none;stroke-width:0.127762;stroke-linecap:butt;stroke-linejoin:miter;stroke:rgb(0%,0%,0%);stroke-opacity:1;stroke-miterlimit:4;" d="M 7.8375 25.9375 C 7.834375 25.25 7.83125 24.5625 7.83125 23.875 C 8.346875 23.7125 8.20625 24.203125 8.2125 24.55 C 8.20625 25.01875 8.2 25.490625 8.196875 25.959375 C 8.203125 25.271875 8.2125 24.58125 8.21875 23.890625 C 7.828125 23.99375 7.465625 23.771875 7.715625 23.434375 C 10.553125 23.4375 13.39375 23.440625 16.23125 23.44375 C 16.415625 23.965625 15.95 23.840625 15.70625 23.9375 C 15.709375 24.615625 15.7125 25.290625 15.715625 25.96875 C 15.709375 25.271875 15.703125 24.578125 15.696875 23.88125 C 16.196875 23.715625 16.096875 24.15625 16.09375 24.5 C 16.09375 24.98125 16.096875 25.4625 16.1 25.94375 M 9.68125 25.428125 C 9.678125 24.95 9.675 24.471875 9.675 23.990625 C 9.290625 23.990625 8.90625 23.990625 8.521875 23.990625 C 8.525 24.471875 8.528125 24.95 8.53125 25.428125 C 8.9125 25.428125 9.296875 25.428125 9.68125 25.428125 M 9.68125 25.428125 C 9.678125 24.95 9.675 24.471875 9.675 23.990625 C 9.290625 23.990625 8.90625 23.990625 8.521875 23.990625 C 8.525 24.471875 8.528125 24.95 8.53125 25.428125 C 8.9125 25.428125 9.296875 25.428125 9.68125 25.428125 M 9.68125 25.428125 C 9.678125 24.95 9.675 24.471875 9.675 23.990625 C 9.290625 23.990625 8.90625 23.990625 8.521875 23.990625 C 8.525 24.471875 8.528125 24.95 8.528125 25.428125 C 8.9125 25.428125 9.296875 25.428125 9.68125 25.428125 M 9.68125 25.428125 C 9.678125 24.95 9.675 24.471875 9.675 23.990625 C 9.290625 23.990625 8.90625 23.990625 8.521875 23.990625 C 8.525 24.471875 8.528125 24.95 8.528125 25.428125 C 8.9125 25.428125 9.296875 25.428125 9.678125 25.428125 M 9.678125 25.428125 C 9.678125 24.95 9.675 24.471875 9.675 23.990625 C 9.290625 23.990625 8.90625 23.990625 8.521875 23.990625 C 8.525 24.471875 8.528125 24.95 8.528125 25.428125 C 8.9125 25.428125 9.296875 25.428125 9.678125 25.428125 M 8.8375 24.290625 C 8.921875 24.5625 8.634375 25.203125 9.065625 25.128125 C 9.55625 25.275 9.30625 24.68125 9.3625 24.396875 C 9.421875 24.184375 8.95625 24.3375 8.8375 24.290625 Z M 15.303125 25.434375 C 15.303125 24.953125 15.3 24.475 15.296875 23.996875 C 14.915625 23.996875 14.534375 23.996875 14.15 23.996875 C 14.153125 24.475 14.15625 24.953125 14.15625 25.434375 C 14.540625 25.434375 14.921875 25.434375 15.303125 25.434375 M 14.4625 24.296875 C 14.546875 24.565625 14.2625 25.20625 14.690625 25.128125 C 15.184375 25.278125 14.93125 24.684375 14.9875 24.4 C 15.04375 24.190625 14.58125 24.34375 14.4625 24.296875 M 15.296875 23.09375 C 15.29375 22.6125 15.290625 22.134375 15.290625 21.65625 C 14.90625 21.65625 14.525 21.65625 14.140625 21.65625 C 14.14375 22.134375 14.14375 22.6125 14.14375 23.09375 C 14.528125 23.09375 14.915625 23.09375 15.296875 23.09375 Z M 14.453125 21.95625 C 14.5375 22.228125 14.25 22.86875 14.68125 22.790625 C 15.171875 22.940625 14.921875 22.346875 14.98125 22.059375 C 15.0375 21.85 14.571875 22.003125 14.453125 21.95625 M 9.671875 23.0875 C 9.66875 22.609375 9.665625 22.13125 9.6625 21.653125 C 9.28125 21.653125 8.896875 21.65 8.515625 21.65 C 8.515625 22.128125 8.51875 22.60625 8.51875 23.0875 C 8.903125 23.0875 9.290625 23.084375 9.671875 23.0875 Z M 8.828125 21.953125 C 8.9125 22.221875 8.625 22.8625 9.05625 22.784375 C 9.55 22.934375 9.296875 22.340625 9.353125 22.05625 C 9.409375 21.846875 8.946875 22 8.828125 21.953125 M 11.753125 23.090625 C 11.75 22.6125 11.75 22.134375 11.746875 21.65625 C 11.365625 21.653125 10.98125 21.653125 10.596875 21.653125 C 10.6 22.13125 10.6 22.6125 10.603125 23.090625 C 10.9875 23.090625 11.36875 23.090625 11.753125 23.090625 M 10.909375 21.953125 C 10.99375 22.221875 10.709375 22.8625 11.1375 22.7875 C 11.63125 22.9375 11.378125 22.34375 11.4375 22.059375 C 11.49375 21.846875 11.03125 22 10.909375 21.953125 M 13.359375 23.09375 C 13.35625 22.6125 13.353125 22.134375 13.35 21.65625 C 12.96875 21.653125 12.584375 21.653125 12.2 21.653125 C 12.203125 22.13125 12.20625 22.6125 12.20625 23.090625 C 12.590625 23.090625 12.975 23.090625 13.359375 23.09375 M 12.515625 21.95625 C 12.6 22.225 12.3125 22.865625 12.74375 22.790625 C 13.2375 22.9375 12.984375 22.34375 13.04375 22.059375 C 13.1 21.846875 12.634375 22.003125 12.515625 21.95625 " transform="matrix(1.25,0,0,1.25,0,0)"/>
<path style=" stroke:none;fill-rule:nonzero;fill:rgb(100%,100%,100%);fill-opacity:1;" d="M 17.054688 28.316406 C 17.058594 29.695312 17.0625 31.078125 17.070312 32.457031 C 15.683594 32.457031 14.292969 32.453125 12.90625 32.449219 C 12.902344 31.070312 12.898438 29.691406 12.890625 28.3125 C 14.277344 28.3125 15.664062 28.3125 17.050781 28.316406 "/>
<path style="fill:none;stroke-width:0.127762;stroke-linecap:butt;stroke-linejoin:miter;stroke:rgb(0%,0%,0%);stroke-opacity:1;stroke-miterlimit:4;" d="M 13.64375 22.653125 C 13.646875 23.75625 13.65 24.8625 13.65625 25.965625 C 12.546875 25.965625 11.434375 25.9625 10.325 25.959375 C 10.321875 24.85625 10.31875 23.753125 10.3125 22.65 C 11.421875 22.65 12.534375 22.65 13.64375 22.653125 Z M 10.29375 23.596875 C 11.4125 23.6 12.528125 23.6 13.646875 23.6 M 10.29375 23.596875 C 11.4125 23.6 12.528125 23.6 13.646875 23.6 M 10.29375 23.596875 C 11.4125 23.6 12.528125 23.6 13.646875 23.6 M 10.29375 23.596875 C 11.4125 23.6 12.528125 23.6 13.646875 23.6 M 10.29375 23.596875 C 11.4125 23.6 12.528125 23.6 13.646875 23.6 M 10.7125 25.965625 C 10.709375 25.184375 10.703125 24.403125 10.7 23.621875 M 13.25 25.965625 C 13.246875 25.184375 13.24375 24.40625 13.2375 23.625 M 14.859375 21.240625 C 14.234375 20.784375 13.609375 20.328125 12.984375 19.871875 C 12.26875 19.89375 11.525 19.825 10.83125 19.903125 C 10.225 20.346875 9.621875 20.790625 9.015625 21.234375 C 10.9625 21.2375 12.909375 21.2375 14.859375 21.240625 M 11.0375 18.734375 C 11.121875 19.00625 10.8375 19.646875 11.265625 19.56875 C 11.78125 19.571875 12.296875 19.571875 12.815625 19.571875 C 12.728125 19.3 13.015625 18.659375 12.5875 18.734375 C 12.06875 18.734375 11.553125 18.734375 11.0375 18.734375 M 11.0375 18.734375 C 11.121875 19.00625 10.8375 19.646875 11.265625 19.56875 C 11.78125 19.571875 12.296875 19.571875 12.815625 19.571875 C 12.728125 19.3 13.015625 18.659375 12.5875 18.734375 C 12.06875 18.734375 11.553125 18.734375 11.0375 18.734375 " transform="matrix(1.25,0,0,1.25,0,0)"/>
<path style="fill:none;stroke-width:0.127762;stroke-linecap:butt;stroke-linejoin:miter;stroke:rgb(0%,0%,0%);stroke-opacity:1;stroke-miterlimit:4;" d="M 11.0375 18.734375 C 11.121875 19.00625 10.8375 19.646875 11.265625 19.56875 C 11.78125 19.571875 12.296875 19.571875 12.8125 19.571875 C 12.728125 19.3 13.015625 18.659375 12.584375 18.734375 C 12.06875 18.734375 11.553125 18.734375 11.0375 18.734375 " transform="matrix(1.25,0,0,1.25,0,0)"/>
<path style="fill:none;stroke-width:0.127762;stroke-linecap:butt;stroke-linejoin:miter;stroke:rgb(0%,0%,0%);stroke-opacity:1;stroke-miterlimit:4;" d="M 11.51875 18.940625 C 11.365625 19.44375 11.775 19.378125 12.140625 19.359375 C 12.540625 19.40625 12.34375 18.7 11.940625 18.940625 C 11.8 18.940625 11.659375 18.940625 11.51875 18.940625 Z M 11.921875 17.784375 C 12.25 18.015625 12.578125 18.25 12.90625 18.48125 C 12.253125 18.48125 11.596875 18.48125 10.94375 18.478125 C 11.26875 18.246875 11.59375 18.015625 11.921875 17.784375 M 11.921875 17.784375 C 12.25 18.015625 12.578125 18.25 12.90625 18.48125 C 12.253125 18.48125 11.596875 18.48125 10.94375 18.478125 C 11.26875 18.246875 11.59375 18.015625 11.921875 17.784375 M 11.921875 17.784375 C 12.25 18.01875 12.578125 18.25 12.90625 18.48125 C 12.253125 18.48125 11.596875 18.48125 10.94375 18.478125 C 11.26875 18.246875 11.59375 18.015625 11.921875 17.784375 M 11.921875 17.784375 C 12.25 18.01875 12.578125 18.25 12.90625 18.48125 C 12.253125 18.48125 11.596875 18.48125 10.94375 18.478125 C 11.26875 18.246875 11.59375 18.015625 11.921875 17.784375 M 11.921875 17.784375 C 12.25 18.01875 12.578125 18.25 12.90625 18.48125 C 12.253125 18.48125 11.596875 18.48125 10.94375 18.478125 C 11.26875 18.246875 11.59375 18.015625 11.921875 17.784375 " transform="matrix(1.25,0,0,1.25,0,0)"/>
<path style=" stroke:none;fill-rule:nonzero;fill:rgb(100%,100%,100%);fill-opacity:1;" d="M 19.882812 21.640625 C 20.628906 22.523438 19.8125 24.070312 21.308594 24.398438 C 21.972656 24.898438 20.734375 24.605469 20.390625 24.679688 C 19.664062 24.679688 18.933594 24.679688 18.203125 24.675781 C 18.933594 24.035156 19.777344 23.765625 19.515625 22.617188 C 19.589844 22.300781 19.539062 21.792969 19.882812 21.640625 "/>
<path style="fill:none;stroke-width:0.127762;stroke-linecap:butt;stroke-linejoin:miter;stroke:rgb(0%,0%,0%);stroke-opacity:1;stroke-miterlimit:4;" d="M 15.90625 17.3125 C 16.503125 18.01875 15.85 19.25625 17.046875 19.51875 C 17.578125 19.91875 16.5875 19.684375 16.3125 19.74375 C 15.73125 19.74375 15.146875 19.74375 14.565625 19.740625 C 15.146875 19.228125 15.821875 19.0125 15.6125 18.09375 C 15.671875 17.840625 15.63125 17.4375 15.90625 17.3125 M 10.46875 22.74375 C 10.6 22.775 10.815625 22.653125 10.640625 22.875 M 10.46875 22.74375 C 10.6 22.775 10.815625 22.653125 10.640625 22.875 M 10.46875 22.74375 C 10.6 22.775 10.815625 22.653125 10.640625 22.875 M 10.46875 22.74375 C 10.6 22.775 10.815625 22.653125 10.640625 22.875 M 10.46875 22.74375 C 10.8125 22.571875 10.8125 23.48125 10.471875 23.31875 C 10.55 23.15625 10.5375 22.903125 10.46875 22.74375 M 10.965625 22.74375 C 11.30625 22.571875 11.30625 23.48125 10.965625 23.31875 C 11.04375 23.15625 11.03125 22.903125 10.965625 22.746875 M 11.503125 22.746875 C 11.846875 22.571875 11.840625 23.484375 11.50625 23.31875 C 11.584375 23.16875 11.56875 22.890625 11.503125 22.746875 Z M 12.1125 22.746875 C 12.45625 22.571875 12.45625 23.484375 12.115625 23.321875 C 12.190625 23.171875 12.184375 22.8875 12.1125 22.746875 Z M 12.653125 22.746875 C 12.996875 22.571875 12.99375 23.484375 12.65625 23.321875 C 12.728125 23.15625 12.725 22.903125 12.653125 22.746875 M 13.190625 22.746875 C 13.534375 22.571875 13.534375 23.484375 13.190625 23.321875 C 13.26875 23.159375 13.259375 22.90625 13.190625 22.746875 " transform="matrix(1.25,0,0,1.25,0,0)"/>
<path style="fill-rule:nonzero;fill:rgb(97.647059%,85.098039%,5.882353%);fill-opacity:1;stroke-width:0.0297454;stroke-linecap:butt;stroke-linejoin:miter;stroke:rgb(0%,0%,0%);stroke-opacity:1;stroke-miterlimit:4;" d="M 11.99375 30.215625 C 13.221875 30.2125 14.4625 30.021875 15.60625 29.58125 C 16.09375 29.540625 16.58125 29.496875 17.071875 29.453125 C 17.08125 30.09375 17.090625 30.7375 17.103125 31.378125 C 15.465625 32.121875 13.61875 32.2125 11.846875 32.265625 C 10.1625 32.178125 8.40625 32.090625 6.853125 31.371875 C 6.859375 30.73125 6.865625 30.0875 6.871875 29.446875 C 7.5625 29.55 8.3 29.459375 8.940625 29.784375 C 9.925 30.084375 10.978125 30.203125 11.99375 30.215625 " transform="matrix(1.25,0,0,1.25,0,0)"/>
<path style=" stroke:none;fill-rule:nonzero;fill:rgb(97.647059%,85.098039%,5.882353%);fill-opacity:1;" d="M 3.492188 27.503906 C 4.070312 27.691406 4.648438 27.875 5.230469 28.058594 C 5.054688 28.996094 4.878906 29.933594 4.703125 30.871094 C 4.15625 30.957031 3.605469 31.042969 3.058594 31.125 C 2.902344 29.910156 3.117188 28.664062 3.492188 27.503906 "/>
<path style="fill:none;stroke-width:0.0297454;stroke-linecap:butt;stroke-linejoin:miter;stroke:rgb(0%,0%,0%);stroke-opacity:1;stroke-miterlimit:4;" d="M 2.79375 22.003125 C 3.25625 22.153125 3.71875 22.3 4.184375 22.446875 C 4.04375 23.196875 3.903125 23.946875 3.7625 24.696875 C 3.325 24.765625 2.884375 24.834375 2.446875 24.9 C 2.321875 23.928125 2.49375 22.925 2.79375 22.003125 Z M 2.79375 22.003125 " transform="matrix(1.25,0,0,1.25,0,0)"/>
<path style=" stroke:none;fill-rule:nonzero;fill:rgb(49.411765%,49.411765%,49.411765%);fill-opacity:1;" d="M 4.703125 30.839844 C 4.15625 30.9375 3.605469 31.03125 3.058594 31.125 C 3.40625 30.632812 3.753906 30.140625 4.097656 29.648438 C 4.300781 30.046875 4.5 30.441406 4.703125 30.839844 Z M 4.703125 30.839844 "/>
<path style="fill-rule:nonzero;fill:rgb(97.647059%,71.372549%,5.882353%);fill-opacity:1;stroke-width:0.0297454;stroke-linecap:butt;stroke-linejoin:miter;stroke:rgb(0%,0%,0%);stroke-opacity:1;stroke-miterlimit:4;" d="M 3.7625 24.671875 C 3.325 24.746875 2.884375 24.825 2.446875 24.9 C 2.725 24.50625 3.003125 24.1125 3.278125 23.71875 C 3.440625 24.0375 3.6 24.353125 3.7625 24.671875 " transform="matrix(1.25,0,0,1.25,0,0)"/>
<path style=" stroke:none;fill-rule:nonzero;fill:rgb(97.647059%,85.098039%,5.882353%);fill-opacity:1;" d="M 2.453125 29.53125 C 3.011719 29.570312 3.570312 29.613281 4.128906 29.652344 C 4.101562 32.097656 5.085938 34.804688 7.398438 35.949219 C 8.367188 36.621094 9.960938 36.539062 10.789062 36.921875 C 10.726562 37.53125 10.664062 38.140625 10.601562 38.75 C 7.894531 38.847656 4.933594 37.804688 3.5625 35.324219 C 2.558594 33.589844 2.242188 31.507812 2.453125 29.53125 "/>
<path style="fill:none;stroke-width:0.0297454;stroke-linecap:butt;stroke-linejoin:miter;stroke:rgb(0%,0%,0%);stroke-opacity:1;stroke-miterlimit:4;" d="M 1.9625 23.625 C 2.409375 23.65625 2.85625 23.690625 3.303125 23.721875 C 3.28125 25.678125 4.06875 27.84375 5.91875 28.759375 C 6.69375 29.296875 7.96875 29.23125 8.63125 29.5375 C 8.58125 30.025 8.53125 30.5125 8.48125 31 C 6.315625 31.078125 3.946875 30.24375 2.85 28.259375 C 2.05 26.871875 1.79375 25.203125 1.9625 23.625 Z M 6.878125 31.321875 C 7.40625 31.209375 7.93125 31.09375 8.459375 30.978125 M 6.88125 31.321875 C 7.40625 31.209375 7.93125 31.09375 8.459375 30.978125 M 6.88125 31.321875 C 7.40625 31.209375 7.93125 31.09375 8.459375 30.978125 M 6.88125 31.321875 C 7.40625 31.209375 7.93125 31.09375 8.459375 30.978125 M 6.88125 31.321875 C 7.40625 31.209375 7.93125 31.09375 8.459375 30.978125 " transform="matrix(1.25,0,0,1.25,0,0)"/>
<path style=" stroke:none;fill-rule:nonzero;fill:rgb(100%,100%,0%);fill-opacity:1;" d="M 26.355469 27.527344 C 25.78125 27.707031 25.203125 27.890625 24.625 28.074219 C 24.808594 29.007812 24.992188 29.945312 25.175781 30.882812 C 25.722656 30.96875 26.273438 31.058594 26.824219 31.144531 C 26.96875 29.925781 26.742188 28.679688 26.355469 27.523438 "/>
<path style="fill-rule:nonzero;fill:rgb(97.647059%,85.098039%,5.882353%);fill-opacity:1;stroke-width:0.0297454;stroke-linecap:butt;stroke-linejoin:miter;stroke:rgb(0%,0%,0%);stroke-opacity:1;stroke-miterlimit:4;" d="M 21.084375 22.021875 C 20.625 22.165625 20.1625 22.3125 19.7 22.459375 C 19.846875 23.20625 19.99375 23.95625 20.140625 24.70625 C 20.578125 24.775 21.01875 24.846875 21.459375 24.91875 C 21.578125 23.940625 21.39375 22.940625 21.084375 22.021875 Z M 21.084375 22.021875 " transform="matrix(1.25,0,0,1.25,0,0)"/>
<path style=" stroke:none;fill-rule:nonzero;fill:rgb(49.411765%,49.411765%,49.411765%);fill-opacity:1;" d="M 25.175781 30.851562 C 25.722656 30.949219 26.273438 31.050781 26.824219 31.148438 C 26.472656 30.65625 26.121094 30.160156 25.769531 29.667969 C 25.570312 30.0625 25.371094 30.457031 25.175781 30.851562 Z M 25.175781 30.851562 "/>
<path style="fill-rule:nonzero;fill:rgb(97.647059%,71.372549%,5.882353%);fill-opacity:1;stroke-width:0.0297454;stroke-linecap:butt;stroke-linejoin:miter;stroke:rgb(0%,0%,0%);stroke-opacity:1;stroke-miterlimit:4;" d="M 20.140625 24.68125 C 20.578125 24.759375 21.01875 24.840625 21.459375 24.91875 C 21.178125 24.525 20.896875 24.128125 20.615625 23.734375 C 20.45625 24.05 20.296875 24.365625 20.140625 24.68125 " transform="matrix(1.25,0,0,1.25,0,0)"/>
<path style=" stroke:none;fill-rule:nonzero;fill:rgb(97.647059%,85.098039%,5.882353%);fill-opacity:1;" d="M 27.414062 29.554688 C 26.855469 29.59375 26.296875 29.628906 25.738281 29.667969 C 25.785156 32.105469 24.828125 34.816406 22.523438 35.960938 C 21.554688 36.636719 19.960938 36.550781 19.136719 36.929688 C 19.207031 37.539062 19.273438 38.148438 19.34375 38.757812 C 21.96875 38.851562 24.847656 37.894531 26.242188 35.523438 C 27.320312 33.757812 27.648438 31.589844 27.414062 29.554688 "/>
<path style="fill:none;stroke-width:0.0297454;stroke-linecap:butt;stroke-linejoin:miter;stroke:rgb(0%,0%,0%);stroke-opacity:1;stroke-miterlimit:4;" d="M 21.93125 23.64375 C 21.484375 23.675 21.0375 23.703125 20.590625 23.734375 C 20.628125 25.684375 19.8625 27.853125 18.01875 28.76875 C 17.246875 29.309375 15.96875 29.240625 15.309375 29.54375 C 15.365625 30.03125 15.41875 30.51875 15.475 31.00625 C 17.575 31.078125 19.878125 30.315625 20.99375 28.41875 C 21.859375 27.00625 22.11875 25.271875 21.93125 23.64375 Z M 17.08125 31.33125 C 16.553125 31.215625 16.025 31.1 15.496875 30.984375 " transform="matrix(1.25,0,0,1.25,0,0)"/>
<path style=" stroke:none;fill-rule:nonzero;fill:rgb(0.392157%,16.470588%,52.941176%);fill-opacity:1;" d="M 13.945312 38.953125 C 13.203125 39.289062 13.4375 38.179688 14.003906 38.699219 C 14.03125 38.785156 14.03125 38.902344 13.945312 38.953125 M 13.421875 39.566406 C 13.121094 38.765625 14.5 39.410156 14.101562 38.570312 C 13.59375 38.277344 13.148438 38.441406 13.296875 39.070312 C 13.339844 39.226562 13.128906 39.640625 13.417969 39.566406 M 14.554688 38.632812 C 14.679688 38.632812 14.808594 38.636719 14.933594 38.636719 M 14.554688 38.632812 C 14.679688 38.632812 14.808594 38.636719 14.933594 38.636719 M 14.554688 38.632812 C 14.679688 38.632812 14.808594 38.636719 14.933594 38.636719 M 14.554688 38.632812 C 14.679688 38.632812 14.808594 38.636719 14.933594 38.636719 M 14.554688 38.632812 C 15.375 38.425781 15.070312 39.324219 14.550781 38.945312 C 14.550781 38.84375 14.550781 38.738281 14.550781 38.632812 M 14.546875 39.625 C 14.257812 39.042969 15.207031 38.941406 15.140625 39.503906 C 15.386719 39.980469 15.328125 39.359375 15.246094 39.15625 "/>
<path style=" stroke:none;fill-rule:nonzero;fill:rgb(73.72549%,44.313725%,37.254902%);fill-opacity:1;" d="M 8.765625 18.472656 C 9.65625 17.558594 11.117188 17.640625 12.304688 17.574219 C 13.347656 17.460938 14.308594 17.8125 15.28125 18.015625 C 14.078125 17.851562 14.707031 16.648438 15.660156 17.082031 C 16.492188 17.230469 17.835938 17.011719 18.367188 17.535156 C 17.859375 17.945312 16.296875 17.511719 16.285156 17.972656 C 17.910156 18.023438 19.652344 17.472656 21.1875 18.285156 C 21.90625 18.507812 22.152344 19.035156 21.183594 18.773438 C 20.089844 18.667969 18.78125 18.394531 17.773438 18.894531 C 16.914062 18.988281 16.425781 20.085938 15.292969 19.628906 C 14.167969 19.46875 13.175781 19.605469 12.152344 19.417969 C 11.128906 19.105469 14.269531 18.46875 12.578125 18.578125 C 11.3125 18.492188 9.90625 18.554688 8.765625 18.472656 "/>
<path style=" stroke:none;fill-rule:nonzero;fill:rgb(0%,53.333333%,18.823529%);fill-opacity:1;" d="M 9.578125 22.015625 C 10.136719 21.632812 10.816406 22.644531 11.546875 22.035156 C 12.488281 21.769531 12.167969 22.4375 11.878906 22.882812 C 12.457031 23.5625 11.675781 23.742188 11.351562 23.515625 C 11.675781 23.84375 11.070312 23.785156 10.941406 23.953125 C 10.539062 23.335938 11.0625 24.972656 10.242188 24.953125 C 10.242188 23.933594 10.066406 24.9375 9.605469 24.855469 C 8.996094 24.363281 9.878906 23.027344 8.742188 23.421875 C 7.800781 23.667969 9.171875 22.203125 8.152344 22.199219 C 6.976562 21.15625 9.304688 21.464844 9.574219 22.015625 "/>
<path style=" stroke:none;fill-rule:nonzero;fill:rgb(97.647059%,85.098039%,5.882353%);fill-opacity:1;" d="M 9.890625 21.984375 C 10.382812 22.246094 9.878906 22.371094 9.746094 22.523438 C 9.632812 22.238281 9.0625 22.261719 9.691406 22.160156 C 9.601562 22.003906 9.761719 21.8125 9.890625 21.984375 M 10.640625 22.210938 C 10.921875 22.515625 10.957031 22.570312 10.53125 22.554688 C 10.78125 22.890625 9.683594 22.332031 10.324219 22.410156 C 10.308594 22.335938 10.523438 21.902344 10.640625 22.210938 M 9.707031 22.613281 C 9.65625 22.949219 10.691406 23.089844 9.753906 23.171875 C 9.53125 22.964844 9.84375 23.878906 9.28125 23.375 C 9.5 22.882812 8.527344 23.546875 8.980469 22.859375 C 9.550781 23.171875 9.171875 22.039062 9.707031 22.613281 "/>
<path style=" stroke:none;fill-rule:nonzero;fill:rgb(100%,100%,100%);fill-opacity:1;" d="M 10.214844 22.710938 C 9.945312 23.039062 9.71875 22.394531 10.214844 22.710938 Z M 10.867188 23.011719 C 10.554688 22.941406 10.757812 22.519531 10.867188 23.011719 "/>
<path style=" stroke:none;fill-rule:nonzero;fill:rgb(97.647059%,85.098039%,5.882353%);fill-opacity:1;" d="M 10.671875 22.957031 C 10.503906 23.273438 11.585938 23.261719 10.757812 23.507812 C 10.523438 23.09375 10.5 24.308594 10.195312 23.546875 C 10.347656 23.089844 9.683594 23.886719 9.835938 23.292969 C 10.515625 23.554688 10.082031 22.289062 10.671875 22.957031 "/>
<path style=" stroke:none;fill-rule:nonzero;fill:rgb(0%,0%,0%);fill-opacity:1;" d="M 10.546875 23.269531 C 10.273438 23.890625 10.058594 22.820312 10.546875 23.269531 "/>
<path style=" stroke:none;fill-rule:nonzero;fill:rgb(100%,100%,100%);fill-opacity:1;" d="M 10.445312 23.335938 C 10.25 23.421875 10.417969 23.070312 10.445312 23.335938 "/>
</g>
</svg>
