<?xml version="1.0" encoding="UTF-8"?>
<!-- Created by grConvert v0.1-0 -->
<svg xmlns="http://www.w3.org/2000/svg" xmlns:xlink="http://www.w3.org/1999/xlink" width="56pt" height="56pt" viewBox="0 0 56 56" version="1.1">
<g id="surface528">
<path style=" stroke:none;fill-rule:nonzero;fill:rgb(85.490196%,10.196078%,20.784314%);fill-opacity:1;" d="M 28.125 0.0351562 C 12.59375 0.0351562 0 12.628906 0 28.160156 C 0 43.695312 12.59375 56.285156 28.125 56.285156 C 43.65625 56.285156 56.25 43.695312 56.25 28.160156 C 56.25 12.628906 43.65625 0.0351562 28.125 0.0351562 Z M 28.125 0.0351562 "/>
<path style=" stroke:none;fill-rule:nonzero;fill:rgb(100%,100%,100%);fill-opacity:1;" d="M 14.425781 3.597656 C 8.691406 6.800781 4.199219 11.953125 1.835938 18.15625 L 41.824219 52.722656 C 47.558594 49.519531 52.050781 44.367188 54.414062 38.160156 Z M 14.425781 3.597656 "/>
<path style=" stroke:none;fill-rule:nonzero;fill:rgb(0%,0%,0%);fill-opacity:1;" d="M 11.609375 5.398438 C 8.117188 7.9375 5.234375 11.261719 3.210938 15.109375 L 44.644531 50.917969 C 48.136719 48.378906 51.015625 45.058594 53.035156 41.210938 Z M 11.609375 5.398438 "/>
</g>
</svg>
