<?xml version="1.0" encoding="UTF-8"?>
<!-- Created by grConvert v0.1-0 -->
<svg xmlns="http://www.w3.org/2000/svg" xmlns:xlink="http://www.w3.org/1999/xlink" width="56pt" height="56pt" viewBox="0 0 56 56" version="1.1">
<g id="surface532">
<path style=" stroke:none;fill-rule:nonzero;fill:rgb(0%,14.117647%,49.019608%);fill-opacity:1;" d="M 28.125 0.0351562 C 12.59375 0.0351562 0 12.628906 0 28.160156 C 0 43.695312 12.59375 56.285156 28.125 56.285156 C 43.65625 56.285156 56.25 43.695312 56.25 28.160156 C 56.25 12.628906 43.65625 0.0351562 28.125 0.0351562 Z M 28.125 0.0351562 "/>
<path style=" stroke:none;fill-rule:nonzero;fill:rgb(100%,100%,100%);fill-opacity:1;" d="M 50.914062 18.042969 L 50.914062 26.140625 C 50.914062 32.789062 48.300781 38.875 40.554688 42.574219 C 32.808594 38.875 30.195312 32.789062 30.195312 26.140625 L 30.195312 18.042969 Z M 50.914062 18.042969 "/>
<path style=" stroke:none;fill-rule:nonzero;fill:rgb(99.215686%,76.470588%,0%);fill-opacity:1;" d="M 50.214844 18.871094 L 50.214844 26.421875 C 50.214844 32.625 47.78125 38.300781 40.554688 41.75 C 33.328125 38.300781 30.894531 32.625 30.894531 26.421875 L 30.894531 18.871094 Z M 50.214844 18.871094 "/>
<path style="fill-rule:nonzero;fill:rgb(100%,61.960784%,23.921569%);fill-opacity:1;stroke-width:0.2604;stroke-linecap:butt;stroke-linejoin:miter;stroke:rgb(0%,0%,0%);stroke-opacity:1;stroke-miterlimit:4;" d="M 852.657203 214.489067 C 851.178068 213.379716 849.61676 212.722323 847.398058 212.640149 C 847.891103 207.257742 843.946744 204.915779 841.152823 203.92969 C 838.317815 202.9436 837.331725 201.875336 836.838681 199.656634 C 836.345636 197.437933 834.907588 196.082059 832.319103 195.342492 C 829.730617 194.644012 827.553003 192.055526 826.566913 190.822914 C 825.580823 189.590302 825.21104 189.836825 824.471472 191.932265 C 823.731905 194.027706 820.773636 197.930977 823.485383 198.054239 C 821.513203 199.656634 820.444939 201.505553 821.636464 203.92969 C 820.321678 205.039041 819.335589 206.641436 821.14342 207.257742 C 822.992338 207.874048 823.485383 208.367093 823.608644 208.860138 C 821.965161 208.860138 821.513203 212.147104 825.457562 212.886671 C 824.594734 213.009932 824.22495 215.721679 825.827346 215.721679 C 823.608644 215.721679 821.759726 219.008645 818.965805 219.008645 C 816.130797 219.008645 814.651663 219.624951 814.528401 220.857563 C 814.40514 222.090175 812.967093 223.569309 812.227525 224.185615 C 814.281879 224.432138 815.637752 224.185615 816.747103 223.322787 C 817.856454 222.459959 819.705372 222.213436 820.937984 223.199526 C 822.129509 224.185615 824.717995 224.67866 825.950607 224.432138 C 823.23886 226.239969 821.266681 228.705193 821.020158 231.047156 C 820.773636 233.348032 819.212327 236.059779 817.363409 236.799346 C 815.514491 237.538913 813.090354 239.511093 812.227525 241.811969 C 814.528401 247.605246 817.856454 249.002206 821.14342 250.522428 C 827.059958 253.234174 830.716707 255.206354 833.181931 257.877013 C 835.606068 260.58876 836.592158 258.616581 840.289995 263.300507 C 843.946744 267.943346 847.398058 276.777066 851.054807 278.2562 C 854.752643 279.694248 859.395482 278.749245 862.107229 274.065319 C 864.818976 269.42248 866.503546 222.336697 852.657203 214.489067 Z M 852.657203 214.489067 " transform="matrix(0.0950725,0,0,0.0950725,-45.009554,1.787678)"/>
<path style="fill-rule:nonzero;fill:rgb(100%,57.254902%,49.803922%);fill-opacity:1;stroke-width:0.2604;stroke-linecap:butt;stroke-linejoin:miter;stroke:rgb(0%,0%,0%);stroke-opacity:1;stroke-miterlimit:4;" d="M 858.902437 194.890534 C 855.492211 198.547283 851.054807 202.24512 851.794374 208.860138 C 852.533942 215.475157 853.273509 226.239969 847.151535 229.937805 C 841.029562 233.594555 838.071293 242.92132 845.425878 248.303726 C 852.780464 253.727219 853.026986 260.342238 854.259598 266.464211 C 855.492211 272.586185 858.655915 277.516633 863.586364 273.325752 C 868.475725 274.065319 871.187472 272.09314 871.187472 268.189868 C 871.187472 264.245509 871.433994 262.067895 875.090743 260.835282 C 878.78858 259.60267 879.774669 258.370058 881.459239 255.083093 C 883.184896 251.75504 884.170986 250.275905 883.184896 248.303726 C 882.198806 246.372634 881.829023 242.305014 882.56859 239.387832 C 883.308157 236.429562 881.5825 234.827167 880.596411 233.019336 C 879.651408 231.170417 879.281624 229.568022 879.774669 227.102797 C 880.267714 224.67866 879.035102 223.076265 877.309445 221.843652 C 875.583788 220.61104 874.844221 219.378428 875.214004 217.447336 C 875.583788 215.475157 873.981392 214.242544 872.173561 212.76341 C 870.324643 211.284275 868.96877 209.353183 868.96877 206.394914 C 868.96877 203.436645 863.339841 196.575104 858.902437 194.890534 Z M 858.902437 194.890534 " transform="matrix(0.0950725,0,0,0.0950725,-45.009554,1.787678)"/>
<path style="fill-rule:nonzero;fill:rgb(100%,61.960784%,88.235294%);fill-opacity:1;stroke-width:0.2604;stroke-linecap:butt;stroke-linejoin:miter;stroke:rgb(0%,0%,0%);stroke-opacity:1;stroke-miterlimit:4;" d="M 860.258311 274.928148 C 868.475725 272.832707 867.736158 259.356148 866.503546 253.727219 C 865.31202 248.098291 862.148316 240.004138 864.572453 233.594555 C 867.98268 224.555399 860.381572 215.968201 862.353751 212.516887 C 864.325931 209.106661 864.079408 207.257742 863.832886 206.148392 C 863.586364 205.039041 861.737445 204.176212 861.614184 206.518175 C 861.490923 208.860138 860.874617 209.722967 859.395482 211.161014 C 857.957435 212.640149 858.286131 215.84494 859.395482 219.378428 C 860.504833 222.953003 862.846796 228.33541 859.14896 235.443473 C 855.492211 242.551536 857.012432 245.71524 858.409393 249.043293 C 860.628094 254.220264 865.928327 272.09314 860.258311 274.928148 Z M 860.258311 274.928148 " transform="matrix(0.0950725,0,0,0.0950725,-45.009554,1.787678)"/>
<path style="fill-rule:nonzero;fill:rgb(100%,61.960784%,23.921569%);fill-opacity:1;stroke-width:0.2604;stroke-linecap:butt;stroke-linejoin:miter;stroke:rgb(0%,0%,0%);stroke-opacity:1;stroke-miterlimit:4;" d="M 823.485383 198.054239 C 824.430385 198.054239 826.197129 197.684455 826.197129 198.917067 " transform="matrix(0.0950725,0,0,0.0950725,-45.009554,1.787678)"/>
<path style="fill-rule:nonzero;fill:rgb(100%,61.960784%,23.921569%);fill-opacity:1;stroke-width:0.2604;stroke-linecap:butt;stroke-linejoin:miter;stroke:rgb(0%,0%,0%);stroke-opacity:1;stroke-miterlimit:4;" d="M 821.636464 203.92969 C 822.745815 203.149035 824.717995 204.052951 826.690174 202.902513 " transform="matrix(0.0950725,0,0,0.0950725,-45.009554,1.787678)"/>
<path style="fill-rule:nonzero;fill:rgb(100%,61.960784%,23.921569%);fill-opacity:1;stroke-width:0.2604;stroke-linecap:butt;stroke-linejoin:miter;stroke:rgb(0%,0%,0%);stroke-opacity:1;stroke-miterlimit:4;" d="M 823.608644 208.860138 C 825.087778 208.860138 827.059958 208.777964 828.867789 207.298829 " transform="matrix(0.0950725,0,0,0.0950725,-45.009554,1.787678)"/>
<path style="fill-rule:nonzero;fill:rgb(100%,61.960784%,23.921569%);fill-opacity:1;stroke-width:0.2604;stroke-linecap:butt;stroke-linejoin:miter;stroke:rgb(0%,0%,0%);stroke-opacity:1;stroke-miterlimit:4;" d="M 825.457562 212.886671 C 826.813435 212.886671 829.319747 212.023843 829.936053 210.257099 " transform="matrix(0.0950725,0,0,0.0950725,-45.009554,1.787678)"/>
<path style="fill-rule:nonzero;fill:rgb(100%,61.960784%,23.921569%);fill-opacity:1;stroke-width:0.2604;stroke-linecap:butt;stroke-linejoin:miter;stroke:rgb(0%,0%,0%);stroke-opacity:1;stroke-miterlimit:4;" d="M 825.827346 215.721679 C 828.456918 215.598418 831.949319 216.584507 832.442364 215.639505 " transform="matrix(0.0950725,0,0,0.0950725,-45.009554,1.787678)"/>
<path style="fill-rule:nonzero;fill:rgb(100%,61.960784%,23.921569%);fill-opacity:1;stroke-width:0.2604;stroke-linecap:butt;stroke-linejoin:miter;stroke:rgb(0%,0%,0%);stroke-opacity:1;stroke-miterlimit:4;" d="M 825.950607 224.432138 C 827.799525 222.706481 832.154755 221.556043 833.099757 219.748212 " transform="matrix(0.0950725,0,0,0.0950725,-45.009554,1.787678)"/>
<path style="fill-rule:nonzero;fill:rgb(100%,61.960784%,23.921569%);fill-opacity:1;stroke-width:0.2604;stroke-linecap:butt;stroke-linejoin:miter;stroke:rgb(0%,0%,0%);stroke-opacity:1;stroke-miterlimit:4;" d="M 830.593446 197.068149 C 833.674976 198.054239 832.401277 199.944244 833.921499 201.135769 C 836.592158 203.190122 834.168021 205.532085 836.345636 206.148392 C 838.564338 206.764698 838.52325 207.134481 837.948031 209.599705 C 837.290638 212.4758 840.043472 212.599062 839.057382 214.489067 " transform="matrix(0.0950725,0,0,0.0950725,-45.009554,1.787678)"/>
<path style="fill-rule:nonzero;fill:rgb(100%,61.960784%,23.921569%);fill-opacity:1;stroke-width:0.2604;stroke-linecap:butt;stroke-linejoin:miter;stroke:rgb(0%,0%,0%);stroke-opacity:1;stroke-miterlimit:4;" d="M 847.398058 212.640149 C 846.165446 212.640149 842.549783 212.76341 841.029562 216.009288 " transform="matrix(0.0950725,0,0,0.0950725,-45.009554,1.787678)"/>
<path style="fill-rule:nonzero;fill:rgb(100%,61.960784%,23.921569%);fill-opacity:1;stroke-width:0.2604;stroke-linecap:butt;stroke-linejoin:miter;stroke:rgb(0%,0%,0%);stroke-opacity:1;stroke-miterlimit:4;" d="M 821.225594 248.016116 C 822.622554 248.262639 823.321034 247.440897 823.731905 246.660243 C 824.183863 245.797415 824.348211 245.181109 825.62191 245.140021 C 826.936697 245.057847 828.867789 244.688064 829.319747 243.743061 C 829.730617 242.756971 831.291926 243.660887 832.565625 241.072401 C 833.839324 238.525003 834.702153 235.443473 838.153467 234.334122 " transform="matrix(0.0950725,0,0,0.0950725,-45.009554,1.787678)"/>
<path style="fill-rule:nonzero;fill:rgb(0%,65.490196%,15.686275%);fill-opacity:1;stroke-width:0.2604;stroke-linecap:butt;stroke-linejoin:miter;stroke:rgb(0%,0%,0%);stroke-opacity:1;stroke-miterlimit:4;" d="M 918.47869 301.593656 C 919.87565 303.606923 918.437603 305.784538 920.779566 306.647366 C 923.532399 307.674543 921.149349 311.290205 924.395228 312.563904 C 927.271323 313.714342 924.395228 317.165656 927.517845 318.726965 C 930.311766 320.123925 927.065887 323.410891 930.763724 325.259809 C 934.502647 327.108727 930.065244 331.299608 932.859164 332.902004 C 935.653085 334.545487 931.955249 338.736368 935.201127 340.379851 C 938.447006 341.982247 933.804167 345.228125 936.803523 347.570088 C 939.843966 349.870964 936.105043 353.363365 939.145486 355.458806 C 942.144842 357.554246 937.296568 360.348167 940.295924 363.38861 C 942.637887 365.689486 939.474183 367.990362 941.240927 371.52385 C 942.391365 373.824726 940.049402 383.110404 933.557645 382.206489 C 931.256769 386.150848 922.176526 389.643249 918.930648 388.492811 C 915.684769 390.793687 905.207566 394.039565 899.866247 388.944768 C 894.524928 394.039565 884.047725 390.793687 880.801846 388.492811 C 877.555967 389.643249 868.475725 386.150848 866.174849 382.206489 C 859.642005 383.110404 857.341129 373.824726 858.491567 371.52385 C 860.258311 367.990362 857.094606 365.689486 859.436569 363.38861 C 862.435926 360.348167 857.546564 357.554246 860.587007 355.458806 C 863.586364 353.363365 859.888527 349.870964 862.887883 347.570088 C 865.928327 345.228125 861.285488 341.982247 864.531366 340.379851 C 867.777245 338.736368 864.079408 334.545487 866.873329 332.902004 C 869.66725 331.299608 865.229846 327.108727 868.96877 325.259809 C 872.666606 323.410891 869.420728 320.123925 872.214648 318.726965 C 875.337266 317.165656 872.461171 313.714342 875.337266 312.563904 C 878.583144 311.290205 876.200094 307.674543 878.952928 306.647366 C 881.335978 305.784538 879.815756 303.524749 881.335978 301.511482 C 888.238606 304.223229 909.64497 306.154321 918.47869 301.593656 Z M 918.47869 301.593656 " transform="matrix(0.0950725,0,0,0.0950725,-45.009554,1.787678)"/>
<path style="fill-rule:nonzero;fill:rgb(0%,65.490196%,15.686275%);fill-opacity:1;stroke-width:0.2604;stroke-linecap:butt;stroke-linejoin:miter;stroke:rgb(0%,0%,0%);stroke-opacity:1;stroke-miterlimit:4;" d="M 887.540126 302.251049 C 884.992727 304.798448 887.992083 306.647366 885.444685 309.687809 C 882.897287 312.687165 885.23925 314.330648 883.143809 317.124569 C 881.048368 319.91849 884.047725 321.31545 881.746849 324.314806 C 879.404886 327.35525 882.198806 329.204168 879.651408 331.751566 C 877.10401 334.298965 880.103366 336.640928 877.555967 339.434848 C 875.008569 342.228769 878.007925 344.077687 875.460527 346.625086 C 872.913129 349.172484 875.912485 351.966405 873.365086 354.55489 C 870.817688 357.102289 873.817044 360.348167 871.023123 363.38861 C 868.27029 366.387967 871.516168 368.72993 869.174205 371.030806 C 866.873329 373.372769 868.96877 375.673645 867.325287 377.317127 C 865.681804 378.96061 865.476369 381.220399 866.174849 382.206489 " transform="matrix(0.0950725,0,0,0.0950725,-45.009554,1.787678)"/>
<path style="fill-rule:nonzero;fill:rgb(0%,65.490196%,15.686275%);fill-opacity:1;stroke-width:0.2604;stroke-linecap:butt;stroke-linejoin:miter;stroke:rgb(0%,0%,0%);stroke-opacity:1;stroke-miterlimit:4;" d="M 892.429487 303.154965 C 890.087524 306.195408 893.579925 307.592369 891.484484 310.139767 C 889.389044 312.687165 892.429487 313.632168 890.786004 316.631524 C 889.183608 319.671967 891.977529 320.370448 889.882089 323.410891 C 887.786648 326.410247 891.032527 328.75221 888.690564 331.751566 C 886.389688 334.792009 889.882089 336.394405 887.786648 339.434848 C 885.691207 342.434204 888.690564 344.077687 886.841645 346.41965 C 884.992727 348.720526 888.238606 351.062489 885.93773 353.85641 C 883.595767 356.650331 886.841645 358.704684 884.992727 361.29317 C 883.143809 363.840568 885.691207 366.634489 884.047725 368.72993 C 882.445329 370.82537 885.23925 373.824726 882.897287 376.618647 C 880.555324 379.412568 883.349244 381.261486 881.952284 383.110404 C 880.555324 385.00041 879.48706 387.712156 880.801846 388.492811 " transform="matrix(0.0950725,0,0,0.0950725,-45.009554,1.787678)"/>
<path style="fill-rule:nonzero;fill:rgb(0%,65.490196%,15.686275%);fill-opacity:1;stroke-width:0.2604;stroke-linecap:butt;stroke-linejoin:miter;stroke:rgb(0%,0%,0%);stroke-opacity:1;stroke-miterlimit:4;" d="M 899.866247 305.948886 C 898.715809 310.838247 901.468643 315.15239 899.866247 319.178923 C 898.222764 323.246543 901.016685 324.848938 900.112769 328.094817 C 899.167767 331.340695 901.263207 333.764833 899.866247 337.298321 C 898.469286 340.790722 901.715165 343.502468 899.866247 348.063133 C 898.017329 352.664885 901.057772 353.815323 899.866247 358.334901 C 898.469286 363.594046 902.167123 366.387967 899.866247 370.12689 C 897.524284 373.824726 901.961687 374.769729 900.112769 378.96061 C 898.222764 383.110404 901.263207 384.753887 899.866247 388.944768 " transform="matrix(0.0950725,0,0,0.0950725,-45.009554,1.787678)"/>
<path style="fill-rule:nonzero;fill:rgb(0%,65.490196%,15.686275%);fill-opacity:1;stroke-width:0.2604;stroke-linecap:butt;stroke-linejoin:miter;stroke:rgb(0%,0%,0%);stroke-opacity:1;stroke-miterlimit:4;" d="M 912.192368 302.251049 C 914.739766 304.798448 911.699323 306.647366 914.287809 309.687809 C 916.835207 312.687165 914.493244 314.330648 916.588685 317.124569 C 918.684125 319.91849 915.684769 321.31545 917.985645 324.314806 C 920.327608 327.35525 917.533687 329.204168 920.081085 331.751566 C 922.628484 334.298965 919.629128 336.640928 922.176526 339.434848 C 924.723924 342.228769 921.724568 344.077687 924.271967 346.625086 C 926.819365 349.172484 923.820009 351.966405 926.367407 354.55489 C 928.914806 357.102289 925.874362 360.348167 928.668283 363.38861 C 931.462204 366.387967 928.216325 368.72993 930.558288 371.030806 C 932.859164 373.372769 930.763724 375.673645 932.407207 377.317127 C 934.009602 378.96061 934.256125 381.220399 933.557645 382.206489 " transform="matrix(0.0950725,0,0,0.0950725,-45.009554,1.787678)"/>
<path style="fill-rule:nonzero;fill:rgb(0%,65.490196%,15.686275%);fill-opacity:1;stroke-width:0.2604;stroke-linecap:butt;stroke-linejoin:miter;stroke:rgb(0%,0%,0%);stroke-opacity:1;stroke-miterlimit:4;" d="M 907.303007 303.154965 C 909.603883 306.195408 906.152569 307.592369 908.248009 310.139767 C 910.302363 312.687165 907.303007 313.632168 908.905402 316.631524 C 910.548885 319.671967 907.754964 320.370448 909.850405 323.410891 C 911.945846 326.410247 908.699967 328.75221 911.000843 331.751566 C 913.342806 334.792009 909.850405 336.394405 911.945846 339.434848 C 914.041286 342.434204 911.000843 344.077687 912.890848 346.41965 C 914.739766 348.720526 911.493888 351.062489 913.794764 353.85641 C 916.136727 356.650331 912.890848 358.704684 914.739766 361.29317 C 916.588685 363.840568 914.041286 366.634489 915.684769 368.72993 C 917.287165 370.82537 914.493244 373.824726 916.835207 376.618647 C 919.136083 379.412568 916.383249 381.261486 917.739122 383.110404 C 919.136083 385.00041 920.245434 387.712156 918.930648 388.492811 " transform="matrix(0.0950725,0,0,0.0950725,-45.009554,1.787678)"/>
<path style="fill-rule:nonzero;fill:rgb(98.823529%,76.470588%,0%);fill-opacity:1;stroke-width:0.2604;stroke-linecap:butt;stroke-linejoin:miter;stroke:rgb(0%,0%,0%);stroke-opacity:1;stroke-miterlimit:4;" d="M 884.129899 313.755429 C 884.129899 314.782606 884.088812 315.809783 883.143809 317.124569 C 881.048368 319.91849 884.047725 321.31545 881.746849 324.314806 C 879.404886 327.35525 882.198806 329.204168 879.651408 331.751566 C 877.10401 334.298965 880.103366 336.640928 877.555967 339.434848 C 875.008569 342.228769 878.007925 344.077687 875.460527 346.625086 C 872.913129 349.213571 875.912485 351.966405 873.365086 354.55489 C 870.817688 357.102289 873.817044 360.348167 871.023123 363.38861 C 868.27029 366.387967 871.516168 368.72993 869.174205 371.030806 C 866.873329 373.372769 868.96877 375.673645 867.325287 377.317127 C 870.119208 375.221687 870.119208 371.975808 872.214648 370.332325 C 874.310089 368.72993 871.516168 366.387967 872.666606 365.237529 C 873.817044 364.087091 872.913129 359.197729 875.008569 356.855766 C 877.10401 354.55489 875.214004 349.870964 877.10401 348.268568 C 878.952928 346.625086 877.555967 341.735724 879.856843 340.133329 C 882.198806 338.489846 879.856843 334.545487 881.746849 332.450046 C 883.595767 330.354606 881.746849 327.108727 883.595767 324.561329 C 885.444685 322.01393 883.677941 319.671967 884.992727 317.576527 C 885.567946 316.631524 885.567946 309.893245 884.129899 313.755429 Z M 884.129899 313.755429 " transform="matrix(0.0950725,0,0,0.0950725,-45.009554,1.787678)"/>
<path style="fill-rule:nonzero;fill:rgb(98.823529%,76.470588%,0%);fill-opacity:1;stroke-width:0.2604;stroke-linecap:butt;stroke-linejoin:miter;stroke:rgb(0%,0%,0%);stroke-opacity:1;stroke-miterlimit:4;" d="M 890.786004 316.631524 C 889.183608 319.671967 891.977529 320.370448 889.882089 323.410891 C 887.786648 326.410247 891.032527 328.75221 888.690564 331.751566 C 886.389688 334.792009 889.882089 336.394405 887.786648 339.434848 C 885.691207 342.434204 888.690564 344.077687 886.841645 346.41965 C 884.992727 348.720526 888.238606 351.062489 885.93773 353.85641 C 883.595767 356.650331 886.841645 358.704684 884.992727 361.29317 C 883.143809 363.840568 885.691207 366.634489 884.047725 368.72993 C 882.445329 370.82537 885.23925 373.824726 882.897287 376.618647 C 880.555324 379.412568 883.349244 381.261486 881.952284 383.110404 C 884.746205 382.206489 883.719028 378.344304 884.746205 377.56365 C 885.814469 376.741908 884.417508 371.400589 886.019904 370.003629 C 887.663387 368.606668 884.992727 364.292526 886.512949 362.443608 C 889.060347 359.32099 886.841645 357.22555 888.361867 354.760326 C 889.882089 352.336188 887.786648 349.213571 888.937086 347.570088 C 890.909265 344.776168 888.074258 342.269856 889.512305 340.25659 C 891.607746 337.339408 889.101434 334.956358 890.580569 333.025265 C 892.758184 330.14917 890.334046 327.231988 891.279049 325.711767 C 892.182965 324.191545 893.703186 317.699788 890.786004 316.631524 Z M 890.786004 316.631524 " transform="matrix(0.0950725,0,0,0.0950725,-45.009554,1.787678)"/>
<path style="fill-rule:nonzero;fill:rgb(98.823529%,76.470588%,0%);fill-opacity:1;stroke-width:0.2604;stroke-linecap:butt;stroke-linejoin:miter;stroke:rgb(0%,0%,0%);stroke-opacity:1;stroke-miterlimit:4;" d="M 899.866247 319.178923 C 898.222764 323.246543 901.016685 324.848938 900.112769 328.094817 C 899.167767 331.340695 901.263207 333.764833 899.866247 337.298321 C 898.469286 340.790722 901.715165 343.502468 899.866247 348.063133 C 898.017329 352.664885 901.057772 353.815323 899.866247 358.334901 C 898.469286 363.594046 902.167123 366.387967 899.866247 370.12689 C 897.524284 373.824726 902.536906 375.057338 900.112769 378.96061 C 898.921244 380.809528 900.194943 385.575629 902.084949 379.864526 C 903.933867 374.19451 900.687988 373.49603 902.290384 371.154067 C 903.933867 368.853191 901.715165 362.69013 902.413645 359.403165 C 903.112125 356.157286 900.811249 351.760969 902.290384 348.268568 C 903.810606 344.776168 899.989508 341.037244 901.468643 338.037888 C 902.988864 334.997445 900.811249 331.299608 902.167123 328.834384 C 903.564083 326.410247 901.139946 323.164368 901.715165 321.767408 C 902.290384 320.370448 901.139946 315.234564 899.866247 319.178923 Z M 899.866247 319.178923 " transform="matrix(0.0950725,0,0,0.0950725,-45.009554,1.787678)"/>
<path style="fill-rule:nonzero;fill:rgb(93.72549%,2.745098%,17.647059%);fill-opacity:1;stroke-width:0.2604;stroke-linecap:butt;stroke-linejoin:miter;stroke:rgb(0%,0%,0%);stroke-opacity:1;stroke-miterlimit:4;" d="M 917.287165 304.34649 C 917.287165 278.050765 913.589328 269.011609 899.866247 269.011609 C 886.143165 269.011609 882.445329 278.050765 882.445329 304.34649 Z M 917.287165 304.34649 " transform="matrix(0.0950725,0,0,0.0950725,-45.009554,1.787678)"/>
<path style="fill-rule:nonzero;fill:rgb(0%,0%,0%);fill-opacity:1;stroke-width:0.2604;stroke-linecap:butt;stroke-linejoin:miter;stroke:rgb(0%,0%,0%);stroke-opacity:1;stroke-miterlimit:4;" d="M 882.445329 304.34649 C 882.445329 278.050765 886.143165 269.011609 899.866247 269.011609 C 893.579925 269.011609 889.758827 273.900971 888.690564 277.146849 C 887.663387 280.392728 888.238606 280.146206 889.635566 278.872506 C 891.032527 277.598807 890.334046 280.392728 889.183608 281.91295 C 887.992083 283.392084 886.841645 287.706227 888.485128 286.309266 C 890.087524 284.912306 891.361223 286.555789 889.635566 288.979926 C 887.909909 291.44515 886.389688 297.115166 888.115345 295.142986 C 889.882089 293.170807 890.210785 296.416685 889.183608 298.060168 C 888.115345 299.662564 888.238606 301.059524 889.183608 300.361044 C 890.087524 299.662564 890.00535 303.072791 889.060347 304.34649 Z M 882.445329 304.34649 " transform="matrix(0.0950725,0,0,0.0950725,-45.009554,1.787678)"/>
<path style="fill-rule:nonzero;fill:rgb(0%,0%,0%);fill-opacity:1;stroke-width:0.2604;stroke-linecap:butt;stroke-linejoin:miter;stroke:rgb(0%,0%,0%);stroke-opacity:1;stroke-miterlimit:4;" d="M 914.616505 302.826268 C 914.616505 282.241646 912.069107 276.078586 906.97431 273.983145 C 904.057128 272.79162 903.974954 273.079229 905.371914 274.928148 C 906.727788 276.777066 906.522352 279.447725 905.248653 277.598807 C 903.974954 275.749889 903.564083 275.380105 903.029951 276.201847 C 902.495819 277.023588 904.509086 280.844686 905.98822 284.337087 C 907.179745 287.131008 906.440178 288.527968 904.632347 285.734047 C 902.824516 282.940126 902.824516 285.487525 904.385825 287.829488 C 906.440178 290.869931 906.358004 300.032348 906.358004 303.853445 Z M 914.616505 302.826268 " transform="matrix(0.0950725,0,0,0.0950725,-45.009554,1.787678)"/>
<path style="fill-rule:nonzero;fill:rgb(93.72549%,2.745098%,17.647059%);fill-opacity:1;stroke-width:0.2604;stroke-linecap:butt;stroke-linejoin:miter;stroke:rgb(0%,0%,0%);stroke-opacity:1;stroke-miterlimit:4;" d="M 899.866247 308.167588 C 905.330827 308.167588 911.288452 307.181498 915.314985 305.620189 C 920.081085 303.771271 920.327608 302.168875 918.684125 300.073435 C 917.533687 298.635387 914.986289 299.498216 912.521065 300.56648 C 910.096927 301.634743 903.358648 302.333224 899.866247 302.333224 C 896.373846 302.333224 889.635566 301.634743 887.211429 300.56648 C 884.746205 299.498216 882.198806 298.635387 881.048368 300.073435 C 879.404886 302.168875 879.651408 303.771271 884.417508 305.620189 C 888.402954 307.181498 894.401666 308.167588 899.866247 308.167588 Z M 899.866247 308.167588 " transform="matrix(0.0950725,0,0,0.0950725,-45.009554,1.787678)"/>
<path style="fill-rule:nonzero;fill:rgb(72.54902%,35.294118%,11.764706%);fill-opacity:1;stroke-width:0.2976;stroke-linecap:butt;stroke-linejoin:miter;stroke:rgb(0%,0%,0%);stroke-opacity:1;stroke-miterlimit:4;" d="M 952.868568 273.407926 C 952.868568 273.407926 956.443143 279.570987 959.072715 284.090564 C 961.661201 288.569055 963.797729 289.596232 965.687734 288.281446 C 967.618826 286.925572 965.975343 283.268823 964.455122 281.502079 C 962.9349 279.776422 954.594225 271.600095 954.594225 271.600095 Z M 952.868568 273.407926 " transform="matrix(0.0950725,0,0,0.0950725,-45.009554,1.787678)"/>
<path style="fill-rule:nonzero;fill:rgb(72.54902%,35.294118%,11.764706%);fill-opacity:1;stroke-width:0.2976;stroke-linecap:butt;stroke-linejoin:miter;stroke:rgb(0%,0%,0%);stroke-opacity:1;stroke-miterlimit:4;" d="M 952.005739 273.859884 C 952.005739 273.859884 953.4027 280.967947 954.470964 286.103831 C 955.539227 291.280802 957.18271 293.006459 959.401412 292.390153 C 961.620114 291.814934 961.25033 287.788401 960.387502 285.610786 C 959.483586 283.433171 954.183354 272.79162 954.183354 272.79162 Z M 952.005739 273.859884 " transform="matrix(0.0950725,0,0,0.0950725,-45.009554,1.787678)"/>
<path style="fill-rule:nonzero;fill:rgb(72.54902%,35.294118%,11.764706%);fill-opacity:1;stroke-width:0.2976;stroke-linecap:butt;stroke-linejoin:miter;stroke:rgb(0%,0%,0%);stroke-opacity:1;stroke-miterlimit:4;" d="M 950.485518 274.106406 C 950.485518 274.106406 950.485518 281.337731 950.485518 286.596876 C 950.526605 291.897108 951.800304 293.951461 954.10118 293.869287 C 956.360969 293.746026 956.812927 289.76058 956.402056 287.418617 C 955.950098 285.076654 952.868568 273.531187 952.868568 273.531187 Z M 950.485518 274.106406 " transform="matrix(0.0950725,0,0,0.0950725,-45.009554,1.787678)"/>
<path style="fill-rule:nonzero;fill:rgb(72.54902%,35.294118%,11.764706%);fill-opacity:1;stroke-width:0.2976;stroke-linecap:butt;stroke-linejoin:miter;stroke:rgb(0%,0%,0%);stroke-opacity:1;stroke-miterlimit:4;" d="M 948.143555 273.407926 C 948.143555 273.407926 944.56898 279.570987 941.939407 284.090564 C 939.309835 288.569055 937.214394 289.596232 935.283302 288.281446 C 933.393296 286.925572 934.995692 283.268823 936.515914 281.502079 C 938.036135 279.776422 946.417898 271.600095 946.417898 271.600095 Z M 948.143555 273.407926 " transform="matrix(0.0950725,0,0,0.0950725,-45.009554,1.787678)"/>
<path style="fill-rule:nonzero;fill:rgb(72.54902%,35.294118%,11.764706%);fill-opacity:1;stroke-width:0.2976;stroke-linecap:butt;stroke-linejoin:miter;stroke:rgb(0%,0%,0%);stroke-opacity:1;stroke-miterlimit:4;" d="M 949.006383 273.859884 C 949.006383 273.859884 947.568336 280.967947 946.541159 286.103831 C 945.472895 291.280802 943.788325 293.006459 941.61071 292.390153 C 939.392009 291.814934 939.720705 287.788401 940.624621 285.610786 C 941.487449 283.433171 946.787681 272.79162 946.787681 272.79162 Z M 949.006383 273.859884 " transform="matrix(0.0950725,0,0,0.0950725,-45.009554,1.787678)"/>
<path style="fill-rule:nonzero;fill:rgb(72.54902%,35.294118%,11.764706%);fill-opacity:1;stroke-width:0.2976;stroke-linecap:butt;stroke-linejoin:miter;stroke:rgb(0%,0%,0%);stroke-opacity:1;stroke-miterlimit:4;" d="M 950.485518 274.106406 C 950.485518 274.106406 950.526605 281.337731 950.485518 286.596876 C 950.485518 291.897108 949.170731 293.951461 946.910943 293.869287 C 944.610067 293.746026 944.199196 289.76058 944.610067 287.418617 C 945.062024 285.076654 948.143555 273.531187 948.143555 273.531187 Z M 950.485518 274.106406 " transform="matrix(0.0950725,0,0,0.0950725,-45.009554,1.787678)"/>
<path style="fill-rule:nonzero;fill:rgb(72.54902%,35.294118%,11.764706%);fill-opacity:1;stroke-width:0.2976;stroke-linecap:butt;stroke-linejoin:miter;stroke:rgb(0%,0%,0%);stroke-opacity:1;stroke-miterlimit:4;" d="M 954.470964 218.392339 C 954.470964 218.392339 960.305328 212.229278 970.494921 206.02513 C 980.684515 199.820983 988.080187 195.054882 989.436061 196.123146 C 989.436061 197.355758 980.684515 203.559906 973.412103 208.490355 C 966.098604 213.46189 957.388146 220.857563 957.388146 220.857563 Z M 954.470964 218.392339 " transform="matrix(0.0950725,0,0,0.0950725,-45.009554,1.787678)"/>
<path style="fill-rule:nonzero;fill:rgb(72.54902%,35.294118%,11.764706%);fill-opacity:1;stroke-width:0.2976;stroke-linecap:butt;stroke-linejoin:miter;stroke:rgb(0%,0%,0%);stroke-opacity:1;stroke-miterlimit:4;" d="M 955.128357 223.363874 C 955.128357 223.363874 960.880547 219.707125 971.932969 214.694502 C 982.821042 210.216011 998.14652 210.955579 998.14652 212.229278 C 996.708472 213.46189 983.601697 213.46189 974.850151 217.159726 C 966.509475 220.693214 958.045539 225.829098 958.045539 225.829098 Z M 955.128357 223.363874 " transform="matrix(0.0950725,0,0,0.0950725,-45.009554,1.787678)"/>
<path style="fill-rule:nonzero;fill:rgb(72.54902%,35.294118%,11.764706%);fill-opacity:1;stroke-width:0.2976;stroke-linecap:butt;stroke-linejoin:miter;stroke:rgb(0%,0%,0%);stroke-opacity:1;stroke-miterlimit:4;" d="M 955.210531 231.868898 C 955.210531 231.868898 960.26424 229.444761 972.015143 225.705837 C 983.642784 221.966914 999.132609 224.432138 999.132609 225.705837 C 997.653475 226.938449 985.121918 226.157795 976.370372 228.171061 C 967.331217 230.102154 958.127713 234.334122 958.127713 234.334122 Z M 955.210531 231.868898 " transform="matrix(0.0950725,0,0,0.0950725,-45.009554,1.787678)"/>
<path style="fill-rule:nonzero;fill:rgb(72.54902%,35.294118%,11.764706%);fill-opacity:1;stroke-width:0.2976;stroke-linecap:butt;stroke-linejoin:miter;stroke:rgb(0%,0%,0%);stroke-opacity:1;stroke-miterlimit:4;" d="M 955.744663 240.53827 C 955.744663 240.53827 961.620114 235.566734 974.028409 234.334122 C 986.559966 233.10151 996.749559 240.53827 996.749559 241.770882 C 995.311512 243.003494 983.642784 236.306301 974.932325 237.292391 C 965.646647 238.237394 958.661845 243.003494 958.661845 243.003494 Z M 955.744663 240.53827 " transform="matrix(0.0950725,0,0,0.0950725,-45.009554,1.787678)"/>
<path style="fill-rule:nonzero;fill:rgb(72.54902%,35.294118%,11.764706%);fill-opacity:1;stroke-width:0.2976;stroke-linecap:butt;stroke-linejoin:miter;stroke:rgb(0%,0%,0%);stroke-opacity:1;stroke-miterlimit:4;" d="M 952.868568 213.297542 C 952.868568 213.297542 962.23642 207.134481 962.23642 202.162946 C 962.23642 197.232497 958.086626 192.260962 956.936188 189.795737 C 959.278151 189.795737 964.578383 197.232497 964.578383 202.162946 C 964.578383 207.586439 955.78575 215.762766 955.78575 215.762766 Z M 952.868568 213.297542 " transform="matrix(0.0950725,0,0,0.0950725,-45.009554,1.787678)"/>
<path style="fill-rule:nonzero;fill:rgb(72.54902%,35.294118%,11.764706%);fill-opacity:1;stroke-width:0.2976;stroke-linecap:butt;stroke-linejoin:miter;stroke:rgb(0%,0%,0%);stroke-opacity:1;stroke-miterlimit:4;" d="M 952.868568 213.297542 C 952.868568 213.297542 951.677043 209.599705 951.677043 202.162946 C 951.677043 193.493574 956.854014 187.987906 958.744019 186.056814 C 959.195977 187.987906 954.019006 194.726186 954.019006 202.162946 C 954.019006 207.586439 955.78575 215.762766 955.78575 215.762766 Z M 952.868568 213.297542 " transform="matrix(0.0950725,0,0,0.0950725,-45.009554,1.787678)"/>
<path style="fill-rule:nonzero;fill:rgb(72.54902%,35.294118%,11.764706%);fill-opacity:1;stroke-width:0.2976;stroke-linecap:butt;stroke-linejoin:miter;stroke:rgb(0%,0%,0%);stroke-opacity:1;stroke-miterlimit:4;" d="M 946.541159 218.392339 C 946.541159 218.392339 940.706795 212.229278 930.517201 206.02513 C 920.327608 199.820983 912.931935 195.054882 911.576062 196.123146 C 911.576062 197.355758 920.327608 203.559906 927.600019 208.490355 C 934.872431 213.46189 943.623977 220.857563 943.623977 220.857563 Z M 946.541159 218.392339 " transform="matrix(0.0950725,0,0,0.0950725,-45.009554,1.787678)"/>
<path style="fill-rule:nonzero;fill:rgb(72.54902%,35.294118%,11.764706%);fill-opacity:1;stroke-width:0.2976;stroke-linecap:butt;stroke-linejoin:miter;stroke:rgb(0%,0%,0%);stroke-opacity:1;stroke-miterlimit:4;" d="M 945.842679 223.363874 C 945.842679 223.363874 940.090489 219.707125 929.079154 214.694502 C 918.19108 210.216011 902.824516 210.955579 902.824516 212.229278 C 904.30365 213.46189 917.410426 213.46189 926.161972 217.159726 C 934.502647 220.693214 942.966584 225.829098 942.966584 225.829098 Z M 945.842679 223.363874 " transform="matrix(0.0950725,0,0,0.0950725,-45.009554,1.787678)"/>
<path style="fill-rule:nonzero;fill:rgb(72.54902%,35.294118%,11.764706%);fill-opacity:1;stroke-width:0.2976;stroke-linecap:butt;stroke-linejoin:miter;stroke:rgb(0%,0%,0%);stroke-opacity:1;stroke-miterlimit:4;" d="M 945.801592 231.868898 C 945.801592 231.868898 940.747882 229.444761 928.99698 225.705837 C 917.328252 221.966914 901.879513 224.432138 901.879513 225.705837 C 903.317561 226.938449 915.890204 226.157795 924.64175 228.171061 C 933.680906 230.102154 942.88441 234.334122 942.88441 234.334122 Z M 945.801592 231.868898 " transform="matrix(0.0950725,0,0,0.0950725,-45.009554,1.787678)"/>
<path style="fill-rule:nonzero;fill:rgb(72.54902%,35.294118%,11.764706%);fill-opacity:1;stroke-width:0.2976;stroke-linecap:butt;stroke-linejoin:miter;stroke:rgb(0%,0%,0%);stroke-opacity:1;stroke-miterlimit:4;" d="M 945.26746 240.53827 C 945.26746 240.53827 939.392009 235.566734 926.942626 234.334122 C 914.41107 233.10151 904.221476 240.53827 904.221476 241.770882 C 905.700611 243.003494 917.328252 236.306301 926.079798 237.292391 C 935.324389 238.237394 942.350278 243.003494 942.350278 243.003494 Z M 945.26746 240.53827 " transform="matrix(0.0950725,0,0,0.0950725,-45.009554,1.787678)"/>
<path style="fill-rule:nonzero;fill:rgb(72.54902%,35.294118%,11.764706%);fill-opacity:1;stroke-width:0.2976;stroke-linecap:butt;stroke-linejoin:miter;stroke:rgb(0%,0%,0%);stroke-opacity:1;stroke-miterlimit:4;" d="M 948.143555 213.297542 C 948.143555 213.297542 938.775703 207.134481 938.775703 202.162946 C 938.775703 197.232497 942.88441 192.260962 944.075935 189.795737 C 941.733972 189.795737 936.392653 197.232497 936.392653 202.162946 C 936.392653 207.586439 945.226373 215.762766 945.226373 215.762766 Z M 948.143555 213.297542 " transform="matrix(0.0950725,0,0,0.0950725,-45.009554,1.787678)"/>
<path style="fill-rule:nonzero;fill:rgb(72.54902%,35.294118%,11.764706%);fill-opacity:1;stroke-width:0.2976;stroke-linecap:butt;stroke-linejoin:miter;stroke:rgb(0%,0%,0%);stroke-opacity:1;stroke-miterlimit:4;" d="M 948.143555 213.297542 C 948.143555 213.297542 949.33508 209.599705 949.33508 202.162946 C 949.33508 193.493574 944.158109 187.987906 942.268104 186.056814 C 941.775059 187.987906 946.993117 194.726186 946.993117 202.162946 C 946.993117 207.586439 945.226373 215.762766 945.226373 215.762766 Z M 948.143555 213.297542 " transform="matrix(0.0950725,0,0,0.0950725,-45.009554,1.787678)"/>
<path style="fill-rule:nonzero;fill:rgb(72.54902%,35.294118%,11.764706%);fill-opacity:1;stroke-width:0.7501;stroke-linecap:butt;stroke-linejoin:miter;stroke:rgb(99.215686%,76.470588%,0.392157%);stroke-opacity:1;stroke-miterlimit:4;" d="M 981.013211 302.415398 C 977.356462 293.869287 976.329285 278.913593 976.329285 276.448369 C 976.329285 269.463567 978.5069 235.566734 978.671248 221.966914 C 978.835596 208.367093 970.453834 200.930334 962.23642 200.930334 C 955.210531 200.930334 950.526605 205.860782 950.526605 213.297542 L 954.019006 213.297542 C 954.019006 208.367093 957.552494 204.62817 962.23642 204.62817 C 969.303396 204.62817 974.685802 210.503621 975.13776 221.966914 C 975.671892 235.238037 973.7408 269.669003 973.987322 278.913593 C 974.233844 288.117097 977.356462 296.334511 981.013211 302.415398 Z M 981.013211 302.415398 " transform="matrix(0.0950725,0,0,0.0950725,-45.009554,1.787678)"/>
<path style="fill-rule:nonzero;fill:rgb(72.54902%,35.294118%,11.764706%);fill-opacity:1;stroke-width:0.7501;stroke-linecap:butt;stroke-linejoin:miter;stroke:rgb(99.215686%,76.470588%,0.392157%);stroke-opacity:1;stroke-miterlimit:4;" d="M 919.998911 302.415398 C 923.614574 293.869287 924.682837 278.913593 924.682837 276.448369 C 924.682837 269.463567 922.505223 235.566734 922.340874 221.966914 C 922.176526 208.367093 930.558288 200.930334 938.775703 200.930334 C 945.801592 200.930334 950.485518 205.860782 950.485518 213.297542 L 946.993117 213.297542 C 946.993117 208.367093 943.459629 204.62817 938.775703 204.62817 C 931.708726 204.62817 926.285233 210.503621 925.833275 221.966914 C 925.340231 235.238037 927.271323 269.669003 927.0248 278.913593 C 926.778278 288.117097 923.614574 296.334511 919.998911 302.415398 Z M 919.998911 302.415398 " transform="matrix(0.0950725,0,0,0.0950725,-45.009554,1.787678)"/>
<path style="fill-rule:nonzero;fill:rgb(72.54902%,35.294118%,11.764706%);fill-opacity:1;stroke-width:0.2976;stroke-linecap:butt;stroke-linejoin:miter;stroke:rgb(0%,0%,0%);stroke-opacity:1;stroke-miterlimit:4;" d="M 950.526605 273.942058 C 957.059449 273.859884 957.799016 271.476834 957.799016 271.476834 C 957.799016 271.476834 959.237064 266.546385 958.538584 265.272686 C 957.799016 264.040074 950.526605 264.040074 950.526605 264.040074 Z M 950.526605 273.942058 " transform="matrix(0.0950725,0,0,0.0950725,-45.009554,1.787678)"/>
<path style="fill-rule:nonzero;fill:rgb(72.54902%,35.294118%,11.764706%);fill-opacity:1;stroke-width:0.2976;stroke-linecap:butt;stroke-linejoin:miter;stroke:rgb(0%,0%,0%);stroke-opacity:1;stroke-miterlimit:4;" d="M 950.526605 269.011609 C 957.552494 269.011609 958.702932 266.546385 958.702932 266.546385 C 958.702932 266.546385 961.085982 261.57485 959.894457 260.342238 C 958.702932 259.109625 950.526605 259.109625 950.526605 259.109625 Z M 950.526605 269.011609 " transform="matrix(0.0950725,0,0,0.0950725,-45.009554,1.787678)"/>
<path style="fill-rule:nonzero;fill:rgb(72.54902%,35.294118%,11.764706%);fill-opacity:1;stroke-width:0.2976;stroke-linecap:butt;stroke-linejoin:miter;stroke:rgb(0%,0%,0%);stroke-opacity:1;stroke-miterlimit:4;" d="M 950.526605 264.040074 C 956.360969 264.040074 959.894457 261.57485 959.894457 261.57485 C 959.894457 261.57485 962.23642 256.644401 961.085982 255.370702 C 959.894457 254.13809 950.526605 254.13809 950.526605 254.13809 Z M 950.526605 264.040074 " transform="matrix(0.0950725,0,0,0.0950725,-45.009554,1.787678)"/>
<path style="fill-rule:nonzero;fill:rgb(72.54902%,35.294118%,11.764706%);fill-opacity:1;stroke-width:0.2976;stroke-linecap:butt;stroke-linejoin:miter;stroke:rgb(0%,0%,0%);stroke-opacity:1;stroke-miterlimit:4;" d="M 950.526605 257.877013 C 961.085982 257.753752 961.085982 254.672222 961.085982 254.672222 C 961.085982 254.672222 963.427945 249.741773 962.23642 248.509161 C 961.085982 247.276549 950.526605 247.975029 950.526605 247.975029 Z M 950.526605 257.877013 " transform="matrix(0.0950725,0,0,0.0950725,-45.009554,1.787678)"/>
<path style="fill-rule:nonzero;fill:rgb(72.54902%,35.294118%,11.764706%);fill-opacity:1;stroke-width:0.2976;stroke-linecap:butt;stroke-linejoin:miter;stroke:rgb(0%,0%,0%);stroke-opacity:1;stroke-miterlimit:4;" d="M 950.526605 252.905478 C 961.085982 252.823304 962.23642 250.440254 962.23642 250.440254 C 962.23642 250.440254 964.578383 245.468718 963.427945 244.236106 C 962.23642 243.003494 950.526605 243.003494 950.526605 243.003494 Z M 950.526605 252.905478 " transform="matrix(0.0950725,0,0,0.0950725,-45.009554,1.787678)"/>
<path style="fill-rule:nonzero;fill:rgb(72.54902%,35.294118%,11.764706%);fill-opacity:1;stroke-width:0.2976;stroke-linecap:butt;stroke-linejoin:miter;stroke:rgb(0%,0%,0%);stroke-opacity:1;stroke-miterlimit:4;" d="M 950.526605 246.742417 C 961.085982 246.619156 963.427945 244.236106 963.427945 244.236106 C 963.427945 244.236106 965.769908 239.305657 964.578383 238.073045 C 963.427945 236.840433 950.526605 236.840433 950.526605 236.840433 Z M 950.526605 246.742417 " transform="matrix(0.0950725,0,0,0.0950725,-45.009554,1.787678)"/>
<path style="fill-rule:nonzero;fill:rgb(72.54902%,35.294118%,11.764706%);fill-opacity:1;stroke-width:0.2976;stroke-linecap:butt;stroke-linejoin:miter;stroke:rgb(0%,0%,0%);stroke-opacity:1;stroke-miterlimit:4;" d="M 950.526605 240.53827 C 961.085982 240.456095 964.578383 238.073045 964.578383 238.073045 C 964.578383 238.073045 965.769908 233.10151 964.578383 231.868898 C 963.427945 230.636286 950.526605 230.636286 950.526605 230.636286 Z M 950.526605 240.53827 " transform="matrix(0.0950725,0,0,0.0950725,-45.009554,1.787678)"/>
<path style="fill-rule:nonzero;fill:rgb(72.54902%,35.294118%,11.764706%);fill-opacity:1;stroke-width:0.2976;stroke-linecap:butt;stroke-linejoin:miter;stroke:rgb(0%,0%,0%);stroke-opacity:1;stroke-miterlimit:4;" d="M 950.526605 234.334122 C 961.085982 234.251948 964.578383 231.868898 964.578383 231.868898 C 964.578383 231.868898 964.578383 226.938449 963.427945 225.66475 C 962.23642 224.432138 950.526605 224.432138 950.526605 224.432138 Z M 950.526605 234.334122 " transform="matrix(0.0950725,0,0,0.0950725,-45.009554,1.787678)"/>
<path style="fill-rule:nonzero;fill:rgb(72.54902%,35.294118%,11.764706%);fill-opacity:1;stroke-width:0.2976;stroke-linecap:butt;stroke-linejoin:miter;stroke:rgb(0%,0%,0%);stroke-opacity:1;stroke-miterlimit:4;" d="M 950.526605 228.171061 C 961.085982 228.0478 963.427945 225.66475 963.427945 225.66475 C 963.427945 225.66475 963.427945 220.734302 962.23642 219.501689 C 961.085982 218.269077 950.526605 218.269077 950.526605 218.269077 Z M 950.526605 228.171061 " transform="matrix(0.0950725,0,0,0.0950725,-45.009554,1.787678)"/>
<path style="fill-rule:nonzero;fill:rgb(72.54902%,35.294118%,11.764706%);fill-opacity:1;stroke-width:0.2976;stroke-linecap:butt;stroke-linejoin:miter;stroke:rgb(0%,0%,0%);stroke-opacity:1;stroke-miterlimit:4;" d="M 950.526605 212.640149 C 958.744019 212.640149 962.277507 219.789299 962.277507 219.624951 L 959.894457 221.966914 C 958.620758 223.199526 950.526605 223.199526 950.608779 223.199526 Z M 950.526605 212.640149 " transform="matrix(0.0950725,0,0,0.0950725,-45.009554,1.787678)"/>
<path style="fill-rule:nonzero;fill:rgb(72.54902%,35.294118%,11.764706%);fill-opacity:1;stroke-width:0.2976;stroke-linecap:butt;stroke-linejoin:miter;stroke:rgb(0%,0%,0%);stroke-opacity:1;stroke-miterlimit:4;" d="M 950.485518 273.942058 C 943.952673 273.859884 943.213106 271.476834 943.213106 271.476834 C 943.213106 271.476834 941.775059 266.546385 942.473539 265.272686 C 943.213106 264.040074 950.485518 264.040074 950.485518 264.040074 Z M 950.485518 273.942058 " transform="matrix(0.0950725,0,0,0.0950725,-45.009554,1.787678)"/>
<path style="fill-rule:nonzero;fill:rgb(72.54902%,35.294118%,11.764706%);fill-opacity:1;stroke-width:0.2976;stroke-linecap:butt;stroke-linejoin:miter;stroke:rgb(0%,0%,0%);stroke-opacity:1;stroke-miterlimit:4;" d="M 950.485518 269.011609 C 943.459629 269.011609 942.268104 266.546385 942.268104 266.546385 C 942.268104 266.546385 939.926141 261.57485 941.117666 260.342238 C 942.268104 259.109625 950.485518 259.109625 950.485518 259.109625 Z M 950.485518 269.011609 " transform="matrix(0.0950725,0,0,0.0950725,-45.009554,1.787678)"/>
<path style="fill-rule:nonzero;fill:rgb(72.54902%,35.294118%,11.764706%);fill-opacity:1;stroke-width:0.2976;stroke-linecap:butt;stroke-linejoin:miter;stroke:rgb(0%,0%,0%);stroke-opacity:1;stroke-miterlimit:4;" d="M 950.485518 264.040074 C 944.610067 264.040074 941.117666 261.57485 941.117666 261.57485 C 941.117666 261.57485 938.775703 256.644401 939.926141 255.370702 C 941.117666 254.13809 950.485518 254.13809 950.485518 254.13809 Z M 950.485518 264.040074 " transform="matrix(0.0950725,0,0,0.0950725,-45.009554,1.787678)"/>
<path style="fill-rule:nonzero;fill:rgb(72.54902%,35.294118%,11.764706%);fill-opacity:1;stroke-width:0.2976;stroke-linecap:butt;stroke-linejoin:miter;stroke:rgb(0%,0%,0%);stroke-opacity:1;stroke-miterlimit:4;" d="M 950.485518 257.877013 C 939.926141 257.753752 939.926141 254.672222 939.926141 254.672222 C 939.926141 254.672222 937.584178 249.741773 938.775703 248.509161 C 939.926141 247.276549 950.485518 247.975029 950.485518 247.975029 Z M 950.485518 257.877013 " transform="matrix(0.0950725,0,0,0.0950725,-45.009554,1.787678)"/>
<path style="fill-rule:nonzero;fill:rgb(72.54902%,35.294118%,11.764706%);fill-opacity:1;stroke-width:0.2976;stroke-linecap:butt;stroke-linejoin:miter;stroke:rgb(0%,0%,0%);stroke-opacity:1;stroke-miterlimit:4;" d="M 950.485518 252.905478 C 939.926141 252.823304 938.775703 250.440254 938.775703 250.440254 C 938.775703 250.440254 936.392653 245.468718 937.584178 244.236106 C 938.775703 243.003494 950.485518 243.003494 950.485518 243.003494 Z M 950.485518 252.905478 " transform="matrix(0.0950725,0,0,0.0950725,-45.009554,1.787678)"/>
<path style="fill-rule:nonzero;fill:rgb(72.54902%,35.294118%,11.764706%);fill-opacity:1;stroke-width:0.2976;stroke-linecap:butt;stroke-linejoin:miter;stroke:rgb(0%,0%,0%);stroke-opacity:1;stroke-miterlimit:4;" d="M 950.485518 246.742417 C 939.926141 246.619156 937.584178 244.236106 937.584178 244.236106 C 937.584178 244.236106 935.242215 239.305657 936.392653 238.073045 C 937.584178 236.840433 950.485518 236.840433 950.485518 236.840433 Z M 950.485518 246.742417 " transform="matrix(0.0950725,0,0,0.0950725,-45.009554,1.787678)"/>
<path style="fill-rule:nonzero;fill:rgb(72.54902%,35.294118%,11.764706%);fill-opacity:1;stroke-width:0.2976;stroke-linecap:butt;stroke-linejoin:miter;stroke:rgb(0%,0%,0%);stroke-opacity:1;stroke-miterlimit:4;" d="M 950.485518 240.53827 C 939.926141 240.456095 936.392653 238.073045 936.392653 238.073045 C 936.392653 238.073045 935.242215 233.10151 936.392653 231.868898 C 937.584178 230.636286 950.485518 230.636286 950.485518 230.636286 Z M 950.485518 240.53827 " transform="matrix(0.0950725,0,0,0.0950725,-45.009554,1.787678)"/>
<path style="fill-rule:nonzero;fill:rgb(72.54902%,35.294118%,11.764706%);fill-opacity:1;stroke-width:0.2976;stroke-linecap:butt;stroke-linejoin:miter;stroke:rgb(0%,0%,0%);stroke-opacity:1;stroke-miterlimit:4;" d="M 950.485518 234.334122 C 939.926141 234.251948 936.392653 231.868898 936.392653 231.868898 C 936.392653 231.868898 936.392653 226.938449 937.584178 225.66475 C 938.775703 224.432138 950.485518 224.432138 950.485518 224.432138 Z M 950.485518 234.334122 " transform="matrix(0.0950725,0,0,0.0950725,-45.009554,1.787678)"/>
<path style="fill-rule:nonzero;fill:rgb(72.54902%,35.294118%,11.764706%);fill-opacity:1;stroke-width:0.2976;stroke-linecap:butt;stroke-linejoin:miter;stroke:rgb(0%,0%,0%);stroke-opacity:1;stroke-miterlimit:4;" d="M 950.485518 228.171061 C 939.926141 228.0478 937.584178 225.66475 937.584178 225.66475 C 937.584178 225.66475 937.584178 220.734302 938.775703 219.501689 C 939.926141 218.269077 950.485518 218.269077 950.485518 218.269077 Z M 950.485518 228.171061 " transform="matrix(0.0950725,0,0,0.0950725,-45.009554,1.787678)"/>
<path style="fill-rule:nonzero;fill:rgb(72.54902%,35.294118%,11.764706%);fill-opacity:1;stroke-width:0.2976;stroke-linecap:butt;stroke-linejoin:miter;stroke:rgb(0%,0%,0%);stroke-opacity:1;stroke-miterlimit:4;" d="M 950.485518 212.640149 C 942.268104 212.640149 938.734616 219.789299 938.734616 219.624951 L 941.117666 221.966914 C 942.350278 223.199526 950.485518 223.199526 950.403344 223.199526 Z M 950.485518 212.640149 " transform="matrix(0.0950725,0,0,0.0950725,-45.009554,1.787678)"/>
<path style=" stroke:none;fill-rule:nonzero;fill:rgb(100%,100%,100%);fill-opacity:1;" d="M 20.953125 0.960938 C 19.289062 1.398438 17.6875 1.984375 16.15625 2.703125 L 8.3125 8.195312 C 3.179688 13.292969 0 20.355469 0 28.160156 C 0 28.769531 0.0273438 29.367188 0.0664062 29.96875 L 5.96875 29.96875 L 5.96875 21.082031 L 18.65625 29.96875 L 24.488281 29.96875 L 24.488281 28.8125 L 11.546875 19.75 L 24.488281 19.75 L 24.488281 11.171875 L 11.546875 11.171875 L 24.488281 2.109375 L 24.488281 0.960938 Z M 20.953125 0.960938 "/>
<path style=" stroke:none;fill-rule:nonzero;fill:rgb(81.176471%,7.843137%,16.862745%);fill-opacity:1;" d="M 20.953125 0.960938 C 20.464844 1.089844 19.980469 1.230469 19.503906 1.382812 L 5.941406 10.882812 C 2.222656 15.652344 0 21.644531 0 28.160156 C 0 28.769531 0.0273438 29.367188 0.0664062 29.96875 L 4.304688 29.96875 L 4.304688 18.894531 L 20.109375 29.96875 L 24.488281 29.96875 L 24.488281 29.832031 L 7.710938 18.082031 L 24.488281 18.082031 L 24.488281 12.84375 L 7.710938 12.84375 L 24.488281 1.09375 L 24.488281 0.960938 Z M 20.953125 0.960938 "/>
</g>
</svg>
