<?xml version="1.0" encoding="UTF-8"?>
<!-- Created by grConvert v0.1-0 -->
<svg xmlns="http://www.w3.org/2000/svg" xmlns:xlink="http://www.w3.org/1999/xlink" width="56pt" height="56pt" viewBox="0 0 56 56" version="1.1">
<g id="surface536">
<path style=" stroke:none;fill-rule:nonzero;fill:rgb(69.803922%,13.333333%,20.392157%);fill-opacity:1;" d="M 21.476562 0.832031 C 9.152344 3.820312 0 14.917969 0 28.160156 C 0 42.699219 11.027344 54.652344 25.171875 56.128906 L 31.078125 56.128906 C 45.222656 54.652344 56.25 42.699219 56.25 28.160156 C 56.25 14.917969 47.097656 3.820312 34.773438 0.832031 Z M 21.476562 0.832031 "/>
<path style=" stroke:none;fill-rule:nonzero;fill:rgb(69.803922%,13.333333%,20.392157%);fill-opacity:1;" d="M 21.476562 0.832031 C 9.152344 3.820312 0 14.917969 0 28.160156 C 0 42.699219 11.027344 54.652344 25.171875 56.128906 L 31.078125 56.128906 C 45.222656 54.652344 56.25 42.699219 56.25 28.160156 C 56.25 14.917969 47.097656 3.820312 34.773438 0.832031 Z M 21.476562 0.832031 "/>
<path style=" stroke:none;fill-rule:nonzero;fill:rgb(100%,100%,100%);fill-opacity:1;" d="M 11.746094 5.328125 C 10.054688 6.542969 8.503906 7.9375 7.121094 9.492188 L 49.128906 9.492188 C 47.746094 7.9375 46.195312 6.542969 44.503906 5.328125 Z M 3.976562 13.78125 C 3.1875 15.101562 2.507812 16.492188 1.9375 17.941406 L 54.3125 17.941406 C 53.742188 16.492188 53.0625 15.101562 52.269531 13.78125 Z M 0.628906 22.234375 C 0.339844 23.585938 0.148438 24.976562 0.0625 26.394531 L 56.1875 26.394531 C 56.101562 24.976562 55.910156 23.585938 55.621094 22.234375 Z M 0.117188 30.683594 C 0.242188 32.105469 0.472656 33.496094 0.800781 34.847656 L 55.449219 34.847656 C 55.777344 33.496094 56.007812 32.105469 56.136719 30.683594 Z M 2.230469 39.136719 C 2.847656 40.589844 3.582031 41.984375 4.425781 43.300781 L 51.824219 43.300781 C 52.667969 41.984375 53.402344 40.589844 54.019531 39.136719 Z M 7.796875 47.589844 C 9.304688 49.160156 10.988281 50.5625 12.820312 51.75 L 43.429688 51.75 C 45.261719 50.5625 46.945312 49.160156 48.453125 47.589844 Z M 7.796875 47.589844 "/>
<path style=" stroke:none;fill-rule:nonzero;fill:rgb(23.529412%,23.137255%,43.137255%);fill-opacity:1;" d="M 19.726562 1.3125 C 8.296875 4.882812 0 15.554688 0 28.160156 C 0 28.984375 0.0429688 29.800781 0.113281 30.609375 L 19.726562 30.609375 Z M 19.726562 1.3125 "/>
<path style=" stroke:none;fill-rule:nonzero;fill:rgb(100%,100%,100%);fill-opacity:1;" d="M 17.292969 28.988281 L 16.289062 28.261719 L 15.300781 29.003906 L 15.679688 27.828125 L 14.671875 27.113281 L 15.90625 27.113281 L 16.273438 25.929688 L 16.65625 27.105469 L 17.894531 27.089844 L 16.894531 27.816406 Z M 17.292969 28.988281 "/>
<path style=" stroke:none;fill-rule:nonzero;fill:rgb(100%,100%,100%);fill-opacity:1;" d="M 10.320312 28.988281 L 9.320312 28.261719 L 8.328125 29.003906 L 8.710938 27.828125 L 7.699219 27.113281 L 8.933594 27.113281 L 9.300781 25.929688 L 9.683594 27.105469 L 10.921875 27.089844 L 9.921875 27.816406 Z M 10.320312 28.988281 "/>
<path style=" stroke:none;fill-rule:nonzero;fill:rgb(100%,100%,100%);fill-opacity:1;" d="M 16.433594 2.582031 C 16.3125 2.636719 16.191406 2.691406 16.074219 2.746094 L 15.90625 3.277344 L 15.015625 3.28125 C 14.949219 3.3125 14.878906 3.34375 14.8125 3.382812 L 15.683594 3.992188 L 15.300781 5.167969 L 16.292969 4.429688 L 17.292969 5.15625 L 16.890625 3.984375 L 17.890625 3.257812 L 16.65625 3.273438 Z M 12.757812 5.132812 L 12.390625 6.316406 L 11.15625 6.320312 L 12.167969 7.03125 L 11.785156 8.207031 L 12.777344 7.46875 L 13.777344 8.191406 L 13.375 7.023438 L 14.375 6.296875 L 13.140625 6.3125 Z M 9.300781 8.054688 L 8.9375 9.234375 L 7.699219 9.234375 L 8.710938 9.953125 L 8.328125 11.125 L 9.320312 10.386719 L 10.320312 11.109375 L 9.921875 9.941406 L 10.921875 9.214844 L 9.6875 9.230469 Z M 16.273438 8.054688 L 15.90625 9.234375 L 14.671875 9.234375 L 15.683594 9.953125 L 15.300781 11.125 L 16.292969 10.386719 L 17.292969 11.109375 L 16.890625 9.941406 L 17.890625 9.214844 L 16.65625 9.230469 Z M 12.757812 11.074219 L 12.390625 12.253906 L 11.15625 12.253906 L 12.167969 12.96875 L 11.785156 14.144531 L 12.777344 13.40625 L 13.777344 14.128906 L 13.375 12.960938 L 14.375 12.234375 L 13.140625 12.25 Z M 5.703125 11.1875 C 5.664062 11.234375 5.625 11.285156 5.585938 11.335938 L 5.300781 12.253906 L 4.929688 12.253906 C 4.835938 12.394531 4.742188 12.53125 4.652344 12.671875 L 5.074219 12.96875 L 4.695312 14.144531 L 5.683594 13.40625 L 6.6875 14.128906 L 6.289062 12.960938 L 7.289062 12.234375 L 6.050781 12.25 Z M 9.300781 14.015625 L 8.9375 15.195312 L 7.699219 15.195312 L 8.710938 15.90625 L 8.328125 17.085938 L 9.320312 16.34375 L 10.320312 17.070312 L 9.921875 15.902344 L 10.921875 15.171875 L 9.6875 15.1875 Z M 16.273438 14.015625 L 15.90625 15.195312 L 14.671875 15.195312 L 15.683594 15.90625 L 15.300781 17.085938 L 16.292969 16.34375 L 17.292969 17.070312 L 16.890625 15.902344 L 17.890625 15.171875 L 16.65625 15.1875 Z M 3.773438 15.171875 L 3.175781 15.179688 C 3.058594 15.40625 2.941406 15.628906 2.828125 15.859375 Z M 2.785156 15.941406 C 2.683594 16.152344 2.59375 16.367188 2.496094 16.582031 L 3.171875 17.070312 Z M 5.664062 17.015625 L 5.300781 18.191406 L 4.0625 18.195312 L 5.074219 18.90625 L 4.695312 20.082031 L 5.683594 19.34375 L 6.6875 20.070312 L 6.289062 18.902344 L 7.289062 18.171875 L 6.050781 18.1875 Z M 12.757812 17.015625 L 12.390625 18.191406 L 11.15625 18.195312 L 12.167969 18.90625 L 11.785156 20.082031 L 12.777344 19.34375 L 13.777344 20.070312 L 13.375 18.902344 L 14.375 18.171875 L 13.140625 18.1875 Z M 2.148438 19.972656 L 1.785156 21.152344 L 0.878906 21.15625 C 0.863281 21.21875 0.851562 21.289062 0.835938 21.355469 L 1.558594 21.867188 L 1.179688 23.042969 L 2.167969 22.304688 L 3.171875 23.03125 L 2.773438 21.859375 L 3.773438 21.128906 L 2.535156 21.148438 Z M 9.300781 19.972656 L 8.9375 21.152344 L 7.699219 21.15625 L 8.710938 21.867188 L 8.328125 23.042969 L 9.320312 22.304688 L 10.320312 23.03125 L 9.921875 21.859375 L 10.921875 21.128906 L 9.6875 21.148438 Z M 16.273438 19.972656 L 15.90625 21.152344 L 14.671875 21.15625 L 15.683594 21.867188 L 15.300781 23.042969 L 16.292969 22.304688 L 17.292969 23.03125 L 16.890625 21.859375 L 17.890625 21.128906 L 16.65625 21.148438 Z M 5.664062 22.953125 L 5.300781 24.132812 L 4.0625 24.136719 L 5.074219 24.847656 L 4.695312 26.023438 L 5.683594 25.28125 L 6.6875 26.007812 L 6.289062 24.839844 L 7.289062 24.109375 L 6.050781 24.125 Z M 12.757812 22.953125 L 12.390625 24.132812 L 11.15625 24.136719 L 12.167969 24.847656 L 11.785156 26.023438 L 12.777344 25.28125 L 13.777344 26.007812 L 13.375 24.839844 L 14.375 24.109375 L 13.140625 24.125 Z M 12.757812 22.953125 "/>
<path style=" stroke:none;fill-rule:nonzero;fill:rgb(100%,100%,100%);fill-opacity:1;" d="M 3.167969 28.988281 L 2.167969 28.261719 L 1.179688 29.003906 L 1.558594 27.828125 L 0.550781 27.113281 L 1.785156 27.113281 L 2.152344 25.929688 L 2.535156 27.105469 L 3.769531 27.089844 L 2.769531 27.816406 Z M 3.167969 28.988281 "/>
</g>
</svg>
