<?xml version="1.0" encoding="UTF-8"?>
<!-- Created by grConvert v0.1-0 -->
<svg xmlns="http://www.w3.org/2000/svg" xmlns:xlink="http://www.w3.org/1999/xlink" width="56pt" height="56pt" viewBox="0 0 56 56" version="1.1">
<g id="surface540">
<path style=" stroke:none;fill-rule:nonzero;fill:rgb(81.176471%,7.843137%,16.862745%);fill-opacity:1;" d="M 28.125 0.0351562 C 12.59375 0.0351562 0 12.628906 0 28.160156 C 0 43.695312 12.59375 56.285156 28.125 56.285156 C 43.65625 56.285156 56.25 43.695312 56.25 28.160156 C 56.25 12.628906 43.65625 0.0351562 28.125 0.0351562 Z M 28.125 0.0351562 "/>
<path style=" stroke:none;fill-rule:nonzero;fill:rgb(0%,14.117647%,49.019608%);fill-opacity:1;" d="M 28.125 0.0351562 C 12.59375 0.0351562 0 12.628906 0 28.160156 C 0 31.464844 0.574219 34.632812 1.621094 37.578125 L 54.628906 37.578125 C 55.675781 34.632812 56.25 31.464844 56.25 28.160156 C 56.25 12.628906 43.65625 0.0351562 28.125 0.0351562 Z M 28.125 0.0351562 "/>
<path style=" stroke:none;fill-rule:nonzero;fill:rgb(100%,100%,100%);fill-opacity:1;" d="M 17.644531 28.765625 L 15.824219 29.1875 L 15.75 31.109375 L 14.796875 29.457031 L 12.996094 29.980469 L 14.230469 28.535156 L 13.191406 26.9375 L 14.90625 27.695312 L 16.0625 26.1875 L 15.890625 28.101562 Z M 21.699219 25.617188 L 20.140625 25.523438 L 19.480469 26.984375 L 19.085938 25.425781 L 17.53125 25.234375 L 18.847656 24.363281 L 18.546875 22.785156 L 19.757812 23.804688 L 21.125 23.023438 L 20.554688 24.523438 Z M 26.816406 24.40625 L 25.324219 23.671875 L 24.15625 24.875 L 24.375 23.191406 L 22.902344 22.417969 L 24.527344 22.113281 L 24.785156 20.429688 L 25.570312 21.925781 L 27.203125 21.660156 L 26.0625 22.890625 Z M 32.121094 24.859375 L 30.941406 23.671875 L 29.460938 24.421875 L 30.195312 22.902344 L 29.042969 21.683594 L 30.675781 21.933594 L 31.445312 20.429688 L 31.722656 22.105469 L 33.347656 22.390625 L 31.886719 23.179688 Z M 36.898438 27.132812 L 36.203125 25.53125 L 34.507812 25.710938 L 35.773438 24.535156 L 35.085938 22.929688 L 36.5625 23.808594 L 37.835938 22.636719 L 37.480469 24.351562 L 38.953125 25.234375 L 37.257812 25.417969 Z M 43.417969 29.9375 L 41.46875 29.339844 L 40.488281 31.171875 L 40.441406 29.078125 L 38.441406 28.683594 L 40.363281 27.992188 L 40.109375 25.917969 L 41.34375 27.582031 L 43.183594 26.691406 L 42.027344 28.414062 Z M 45.425781 35.660156 L 44.066406 34.601562 L 42.660156 35.597656 L 43.222656 33.941406 L 41.863281 32.875 L 43.570312 32.910156 L 44.136719 31.253906 L 44.628906 32.933594 L 46.335938 32.976562 L 44.933594 33.980469 Z M 13.515625 35.660156 L 12.152344 34.601562 L 10.75 35.597656 L 11.308594 33.941406 L 9.953125 32.875 L 11.660156 32.910156 L 12.222656 31.253906 L 12.71875 32.933594 L 14.425781 32.976562 L 13.023438 33.980469 Z M 13.515625 35.660156 "/>
<path style=" stroke:none;fill-rule:nonzero;fill:rgb(100%,80%,0%);fill-opacity:1;" d="M 28.125 0.0351562 C 15.898438 0.0351562 5.496094 7.839844 1.621094 18.738281 L 54.628906 18.738281 C 50.753906 7.839844 40.351562 0.0351562 28.125 0.0351562 Z M 28.125 0.0351562 "/>
</g>
</svg>
