<?xml version="1.0" encoding="UTF-8"?>
<!-- Created by grConvert v0.1-0 -->
<svg xmlns="http://www.w3.org/2000/svg" xmlns:xlink="http://www.w3.org/1999/xlink" width="56pt" height="56pt" viewBox="0 0 56 56" version="1.1">
<g id="surface544">
<path style=" stroke:none;fill-rule:nonzero;fill:rgb(100%,100%,100%);fill-opacity:1;" d="M 56.25 28.160156 C 56.25 43.695312 43.65625 56.285156 28.125 56.285156 C 12.59375 56.285156 0 43.695312 0 28.160156 C 0 12.625 12.59375 0.0351562 28.125 0.0351562 C 43.65625 0.0351562 56.25 12.625 56.25 28.160156 Z M 56.25 28.160156 "/>
<path style="fill-rule:nonzero;fill:rgb(21.176471%,58.039216%,26.27451%);fill-opacity:1;stroke-width:0.0948122;stroke-linecap:butt;stroke-linejoin:miter;stroke:rgb(0.392157%,0%,0.784314%);stroke-opacity:1;stroke-miterlimit:10;" d="M 15.078305 27.62036 C 15.522708 27.423175 16.264362 26.092907 15.690463 26.275377 C 14.992956 26.616773 14.601527 28.211917 14.90172 26.699179 C 15.599228 26.248889 15.387327 24.15048 14.87229 25.64556 C 14.407285 26.110565 14.56621 27.455548 14.115921 26.110565 C 14.607413 25.692649 15.040045 24.012156 14.510292 24.197569 C 13.830443 24.60077 14.021742 26.799244 13.630314 25.083434 C 13.55968 24.256431 14.683933 23.6325 13.959938 22.784896 C 13.812784 23.476517 13.150594 23.917978 13.288918 24.718493 C 12.456029 23.832629 14.136522 22.255143 13.441958 21.928462 C 12.735621 22.172737 12.944579 23.78554 12.70619 23.497119 C 12.132291 22.623027 13.647972 20.659999 12.623784 20.527561 C 12.158779 21.060257 12.520777 23.482403 12.041056 21.713618 C 12.479574 20.860128 11.008038 18.570419 11.022754 20.427496 C 10.996266 20.916046 12.738564 22.867302 11.526019 22.016754 C 11.390638 21.042598 9.333431 20.49813 10.440026 21.822512 C 11.013925 22.369923 12.773881 22.849643 12.288274 23.582468 C 11.973365 22.8467 9.807266 22.140363 10.999209 23.367624 C 11.437727 23.638386 13.144707 24.224057 12.659101 24.491877 C 12.064601 24.294691 10.181036 24.085733 11.481873 24.883305 C 12.170551 25.083434 13.177081 24.733208 13.371324 25.775055 C 12.944579 25.024572 10.454741 25.451317 12.099917 26.022273 C 12.588467 25.757397 14.089433 26.528481 13.55968 26.57557 C 12.976952 26.451961 10.878543 26.357783 12.276502 27.070006 C 12.670873 27.320167 14.298391 26.975828 13.915792 27.376085 C 13.206512 27.261306 11.676115 28.03239 13.235943 28.011789 C 13.886361 27.649791 14.46026 27.947041 15.078305 27.62036 Z M 15.078305 27.62036 " transform="matrix(1.32727,0,0,1.32727,-1.516893,1.734845)"/>
<path style="fill-rule:nonzero;fill:rgb(95.686275%,77.254902%,23.921569%);fill-opacity:1;stroke-width:0.0948122;stroke-linecap:butt;stroke-linejoin:miter;stroke:rgb(0.392157%,0%,0.784314%);stroke-opacity:1;stroke-miterlimit:10;" d="M 19.98146 14.317683 C 19.725413 13.07865 21.862082 12.854977 22.050438 13.979229 C 22.200535 14.623762 21.255809 15.029906 21.297012 14.129326 C 20.937958 13.967457 20.213962 13.899767 19.98146 14.317683 Z M 19.98146 14.317683 " transform="matrix(1.32727,0,0,1.32727,-1.516893,1.734845)"/>
<path style="fill-rule:nonzero;fill:rgb(95.686275%,77.254902%,23.921569%);fill-opacity:1;stroke-width:0.0948122;stroke-linecap:butt;stroke-linejoin:miter;stroke:rgb(0.392157%,0%,0.784314%);stroke-opacity:1;stroke-miterlimit:10;" d="M 25.12006 16.577961 C 23.810394 16.583847 26.235484 17.993577 24.484357 17.811107 C 22.998107 17.85231 21.511856 17.722815 20.028549 17.605092 C 20.932071 17.034136 19.472309 17.166575 20.35523 16.683911 C 20.726056 16.271881 21.049794 16.115898 20.634821 16.02172 C 21.158688 15.441935 21.464767 14.670851 21.935658 14.108725 C 21.523629 13.740841 20.467066 13.249348 21.485369 12.846147 C 22.668483 11.792528 24.260684 13.228747 24.051726 14.609046 C 24.281285 15.191774 24.684486 15.665609 24.104701 15.659723 C 24.363691 16.036436 24.702144 16.374889 25.12006 16.577961 Z M 25.12006 16.577961 " transform="matrix(1.32727,0,0,1.32727,-1.516893,1.734845)"/>
<path style="fill:none;stroke-width:0.0948122;stroke-linecap:butt;stroke-linejoin:miter;stroke:rgb(0.392157%,0%,0.784314%);stroke-opacity:1;stroke-miterlimit:10;" d="M 21.791448 13.593687 C 21.438279 13.623118 21.264638 13.26995 21.408849 12.975642 " transform="matrix(1.32727,0,0,1.32727,-1.516893,1.734845)"/>
<path style="fill-rule:nonzero;fill:rgb(95.686275%,77.254902%,23.921569%);fill-opacity:1;stroke-width:0.0948122;stroke-linecap:butt;stroke-linejoin:miter;stroke:rgb(0.392157%,0%,0.784314%);stroke-opacity:1;stroke-miterlimit:10;" d="M 22.865669 13.676093 C 21.84148 12.593043 21.36176 14.444235 22.865669 13.676093 Z M 22.865669 13.676093 " transform="matrix(1.32727,0,0,1.32727,-1.516893,1.734845)"/>
<path style="fill-rule:nonzero;fill:rgb(95.686275%,77.254902%,23.921569%);fill-opacity:1;stroke-width:0.0948122;stroke-linecap:butt;stroke-linejoin:miter;stroke:rgb(0.392157%,0%,0.784314%);stroke-opacity:1;stroke-miterlimit:4;" d="M 26.900618 22.505304 C 28.113163 22.940878 29.275676 22.422898 30.235117 21.934348 C 31.28285 21.743049 30.261604 20.771836 31.279907 20.804209 C 31.318166 20.059613 31.188671 19.98015 32.086308 19.974264 C 33.078122 19.709387 33.016318 18.961847 34.096425 18.776434 C 33.999303 17.740473 35.909356 18.34086 35.715113 17.131258 C 37.236681 17.063567 37.324973 15.653836 38.54929 15.288896 C 38.931889 14.373601 39.753006 13.690809 39.750063 12.634246 C 38.525746 12.213387 37.124844 13.422989 35.806349 13.531883 C 34.923428 13.993945 33.534298 13.658435 33.031033 14.617876 C 31.827318 16.407262 30.626545 18.196649 29.425772 19.986036 C 28.660574 20.280343 27.895376 20.57465 27.13312 20.868957 C 27.053658 21.413425 26.977138 21.960836 26.900618 22.505304 Z M 26.900618 22.505304 " transform="matrix(1.32727,0,0,1.32727,-1.516893,1.734845)"/>
<path style="fill-rule:nonzero;fill:rgb(95.686275%,77.254902%,23.921569%);fill-opacity:1;stroke-width:0.0948122;stroke-linecap:butt;stroke-linejoin:miter;stroke:rgb(0.392157%,0%,0.784314%);stroke-opacity:1;stroke-miterlimit:4;" d="M 26.871187 18.193706 C 27.403883 18.064211 29.028458 18.576305 28.083732 17.5168 C 27.030113 15.671495 29.684762 15.23592 30.912023 14.812118 C 31.786115 14.744428 34.499625 13.172828 34.137628 14.985759 C 33.796232 15.456651 32.92214 15.256522 33.707939 15.671495 C 33.993417 16.58679 32.21286 16.248337 33.031033 16.945844 C 32.736726 17.66984 31.827318 17.266639 32.307038 17.95826 C 31.977414 18.573362 31.385857 18.290827 31.706652 18.888271 C 31.250476 19.862427 29.817201 18.979506 30.314579 20.053727 C 29.572926 20.068442 29.708307 21.198581 28.907792 20.807153 C 28.74298 21.984381 26.226655 21.984381 26.644571 20.339204 C 26.638685 19.618152 26.735806 18.900043 26.871187 18.193706 Z M 26.871187 18.193706 " transform="matrix(1.32727,0,0,1.32727,-1.516893,1.734845)"/>
<path style="fill:none;stroke-width:0.0948122;stroke-linecap:butt;stroke-linejoin:miter;stroke:rgb(0.392157%,0%,0.784314%);stroke-opacity:1;stroke-miterlimit:4;" d="M 39.364521 13.531883 C 37.713458 14.297081 35.897584 14.653193 34.122912 15.006361 " transform="matrix(1.32727,0,0,1.32727,-1.516893,1.734845)"/>
<path style="fill-rule:nonzero;fill:rgb(95.686275%,77.254902%,23.921569%);fill-opacity:1;stroke-width:0.0948122;stroke-linecap:butt;stroke-linejoin:miter;stroke:rgb(0.392157%,0%,0.784314%);stroke-opacity:1;stroke-miterlimit:4;" d="M 16.608701 26.57557 C 16.117208 28.026504 13.692118 26.684464 13.821614 28.603346 C 14.130636 29.639306 15.98477 29.56573 16.002429 28.309039 C 16.349711 27.59093 18.816004 27.334882 17.794758 26.484335 C 17.244404 26.390157 17.103137 25.860404 16.620473 26.566741 Z M 16.608701 26.57557 " transform="matrix(1.32727,0,0,1.32727,-1.516893,1.734845)"/>
<path style="fill:none;stroke-width:0.0948122;stroke-linecap:butt;stroke-linejoin:miter;stroke:rgb(0.392157%,0%,0.784314%);stroke-opacity:1;stroke-miterlimit:4;" d="M 38.799451 14.544299 C 37.139559 15.05345 35.470839 15.594975 33.743256 15.809819 " transform="matrix(1.32727,0,0,1.32727,-1.516893,1.734845)"/>
<path style="fill:none;stroke-width:0.0948122;stroke-linecap:butt;stroke-linejoin:miter;stroke:rgb(0.392157%,0%,0.784314%);stroke-opacity:1;stroke-miterlimit:4;" d="M 37.439753 15.809819 C 36.000591 16.242451 34.531999 16.589733 33.048692 16.84578 " transform="matrix(1.32727,0,0,1.32727,-1.516893,1.734845)"/>
<path style="fill:none;stroke-width:0.0948122;stroke-linecap:butt;stroke-linejoin:miter;stroke:rgb(0.392157%,0%,0.784314%);stroke-opacity:1;stroke-miterlimit:4;" d="M 35.715113 17.131258 C 34.596747 17.387305 33.47838 17.649238 32.336469 17.772847 " transform="matrix(1.32727,0,0,1.32727,-1.516893,1.734845)"/>
<path style="fill:none;stroke-width:0.0948122;stroke-linecap:butt;stroke-linejoin:miter;stroke:rgb(0.392157%,0%,0.784314%);stroke-opacity:1;stroke-miterlimit:10;" d="M 34.181774 18.211365 C 33.375373 18.37029 32.571914 18.549818 31.756684 18.661654 " transform="matrix(1.32727,0,0,1.32727,-1.516893,1.734845)"/>
<path style="fill-rule:nonzero;fill:rgb(0%,50.588235%,77.647059%);fill-opacity:1;stroke-width:0.0948122;stroke-linecap:butt;stroke-linejoin:miter;stroke:rgb(0.392157%,0%,0.784314%);stroke-opacity:1;stroke-miterlimit:10;" d="M 30.550025 23.812027 C 31.035632 22.926163 31.521238 22.037356 32.003902 21.151492 C 32.036276 22.172737 32.068649 23.196926 32.101023 24.218171 C 31.506523 23.617785 31.447662 24.250545 31.35054 24.800899 C 31.120981 25.7986 30.888478 26.799244 30.658919 27.796944 C 30.005557 27.585043 30.502936 26.940511 30.53531 26.472563 C 30.744268 25.580813 30.953226 24.692005 31.162184 23.800255 C 30.959112 23.806141 30.75604 23.809084 30.550025 23.812027 Z M 30.550025 23.812027 " transform="matrix(1.32727,0,0,1.32727,-1.516893,1.734845)"/>
<path style="fill:none;stroke-width:0.0948122;stroke-linecap:butt;stroke-linejoin:miter;stroke:rgb(0.392157%,0%,0.784314%);stroke-opacity:1;stroke-miterlimit:10;" d="M 32.948627 19.206122 C 32.295266 19.297357 31.638961 19.400365 30.97677 19.409194 " transform="matrix(1.32727,0,0,1.32727,-1.516893,1.734845)"/>
<path style="fill:none;stroke-width:0.0948122;stroke-linecap:butt;stroke-linejoin:miter;stroke:rgb(0.392157%,0%,0.784314%);stroke-opacity:1;stroke-miterlimit:10;" d="M 31.197501 20.062556 C 30.914966 20.04784 30.632431 20.033125 30.352839 19.991922 " transform="matrix(1.32727,0,0,1.32727,-1.516893,1.734845)"/>
<path style="fill:none;stroke-width:0.0948122;stroke-linecap:butt;stroke-linejoin:miter;stroke:rgb(0.392157%,0%,0.784314%);stroke-opacity:1;stroke-miterlimit:10;" d="M 30.667748 20.980794 C 30.402872 20.901331 30.135052 20.810096 29.896663 20.665885 " transform="matrix(1.32727,0,0,1.32727,-1.516893,1.734845)"/>
<path style="fill:none;stroke-width:0.0948122;stroke-linecap:butt;stroke-linejoin:miter;stroke:rgb(0.392157%,0%,0.784314%);stroke-opacity:1;stroke-miterlimit:10;" d="M 29.955525 21.928462 C 29.714193 21.822512 29.511121 21.631212 29.402228 21.392824 " transform="matrix(1.32727,0,0,1.32727,-1.516893,1.734845)"/>
<path style="fill:none;stroke-width:0.0948122;stroke-linecap:butt;stroke-linejoin:miter;stroke:rgb(0.392157%,0%,0.784314%);stroke-opacity:1;stroke-miterlimit:10;" d="M 29.043173 22.278688 C 28.893077 22.131534 28.754752 21.949064 28.737094 21.731277 " transform="matrix(1.32727,0,0,1.32727,-1.516893,1.734845)"/>
<path style="fill-rule:nonzero;fill:rgb(0%,50.588235%,77.647059%);fill-opacity:1;stroke-width:0.0948122;stroke-linecap:butt;stroke-linejoin:miter;stroke:rgb(0.392157%,0%,0.784314%);stroke-opacity:1;stroke-miterlimit:10;" d="M 33.039863 24.147537 C 33.860979 23.603069 34.685039 23.058601 35.509099 22.514133 C 35.07941 23.435314 34.652665 24.353552 34.22592 25.27179 C 33.978702 24.462446 33.634363 24.965711 33.292967 25.427773 C 32.589573 26.260662 31.886179 27.093551 31.179842 27.923496 C 30.552968 27.549727 31.382914 27.155355 31.594815 26.769813 C 32.257006 25.992842 32.92214 25.215872 33.584331 24.438901 C 33.40186 24.34178 33.21939 24.244659 33.039863 24.147537 Z M 33.039863 24.147537 " transform="matrix(1.32727,0,0,1.32727,-1.516893,1.734845)"/>
<path style="fill:none;stroke-width:0.0948122;stroke-linecap:butt;stroke-linejoin:miter;stroke:rgb(0.392157%,0%,0.784314%);stroke-opacity:1;stroke-miterlimit:10;" d="M 27.963066 22.505304 C 28.063131 22.358151 28.010155 22.163908 27.99544 22.004982 " transform="matrix(1.32727,0,0,1.32727,-1.516893,1.734845)"/>
<path style="fill-rule:nonzero;fill:rgb(0%,50.588235%,77.647059%);fill-opacity:1;stroke-width:0.0948122;stroke-linecap:butt;stroke-linejoin:miter;stroke:rgb(0.392157%,0%,0.784314%);stroke-opacity:1;stroke-miterlimit:10;" d="M 32.28055 22.667173 C 32.966286 21.940235 33.652021 21.216239 34.337757 20.492244 C 34.117026 21.489945 33.899239 22.484703 33.678509 23.482403 C 33.25765 22.743693 33.036919 23.329364 32.80736 23.847344 C 32.142226 25.12758 31.474149 26.407815 30.809015 27.688051 C 30.082077 27.517353 30.83256 26.919909 30.941453 26.50788 C 31.585986 25.280619 32.230518 24.050416 32.875051 22.823156 C 32.677865 22.77018 32.477736 22.717205 32.28055 22.667173 Z M 32.28055 22.667173 " transform="matrix(1.32727,0,0,1.32727,-1.516893,1.734845)"/>
<path style="fill:none;stroke-width:0.0948122;stroke-linecap:butt;stroke-linejoin:miter;stroke:rgb(0.392157%,0%,0.784314%);stroke-opacity:1;stroke-miterlimit:10;" d="M 28.101391 21.410482 C 28.11022 21.383994 28.136707 21.183866 28.139651 21.110289 " transform="matrix(1.32727,0,0,1.32727,-1.516893,1.734845)"/>
<path style="fill-rule:nonzero;fill:rgb(95.686275%,77.254902%,23.921569%);fill-opacity:1;stroke-width:0.0948122;stroke-linecap:butt;stroke-linejoin:miter;stroke:rgb(0.392157%,0%,0.784314%);stroke-opacity:1;stroke-miterlimit:4;" d="M 18.430462 22.505304 C 17.214974 22.940878 16.052461 22.422898 15.09302 21.934348 C 14.04823 21.743049 15.066532 20.771836 14.04823 20.804209 C 14.00997 20.059613 14.139465 19.98015 13.244772 19.974264 C 12.250014 19.709387 12.311819 18.961847 11.231712 18.776434 C 11.331776 17.740473 9.41878 18.34086 9.615966 17.131258 C 8.091456 17.063567 8.006107 15.653836 6.778846 15.288896 C 6.396247 14.373601 5.575131 13.690809 5.578074 12.634246 C 6.805334 12.213387 8.203292 13.422989 9.524731 13.531883 C 10.404709 13.993945 11.793838 13.658435 12.300046 14.617876 C 13.500819 16.407262 14.701592 18.196649 15.902364 19.986036 C 16.667563 20.280343 17.432761 20.57465 18.195016 20.868957 C 18.274479 21.413425 18.350999 21.960836 18.430462 22.505304 Z M 18.430462 22.505304 " transform="matrix(1.32727,0,0,1.32727,-1.516893,1.734845)"/>
<path style="fill:none;stroke-width:0.0948122;stroke-linecap:butt;stroke-linejoin:miter;stroke:rgb(0.392157%,0%,0.784314%);stroke-opacity:1;stroke-miterlimit:10;" d="M 30.140938 15.597918 C 28.227943 16.068809 30.037931 17.719872 29.225643 18.761719 " transform="matrix(1.32727,0,0,1.32727,-1.516893,1.734845)"/>
<path style="fill-rule:nonzero;fill:rgb(95.686275%,77.254902%,23.921569%);fill-opacity:1;stroke-width:0.0948122;stroke-linecap:butt;stroke-linejoin:miter;stroke:rgb(0.392157%,0%,0.784314%);stroke-opacity:1;stroke-miterlimit:4;" d="M 18.456949 18.193706 C 17.924254 18.064211 16.299679 18.576305 17.244404 17.5168 C 18.298023 15.671495 15.643374 15.23592 14.419057 14.812118 C 13.544965 14.744428 10.828511 13.172828 11.190509 14.985759 C 11.534848 15.456651 12.405997 15.256522 11.620197 15.671495 C 11.334719 16.58679 13.115277 16.248337 12.300046 16.945844 C 12.594353 17.66984 13.500819 17.266639 13.021098 17.95826 C 13.353665 18.573362 13.942279 18.290827 13.621485 18.888271 C 14.077661 19.862427 15.513879 18.979506 15.013557 20.053727 C 15.755211 20.068442 15.61983 21.198581 16.420345 20.807153 C 16.585157 21.984381 19.101482 21.984381 18.683566 20.339204 C 18.689452 19.618152 18.592331 18.900043 18.456949 18.193706 Z M 18.456949 18.193706 " transform="matrix(1.32727,0,0,1.32727,-1.516893,1.734845)"/>
<path style="fill:none;stroke-width:0.0948122;stroke-linecap:butt;stroke-linejoin:miter;stroke:rgb(0.392157%,0%,0.784314%);stroke-opacity:1;stroke-miterlimit:10;" d="M 30.132109 19.459226 L 29.896663 19.382707 " transform="matrix(1.32727,0,0,1.32727,-1.516893,1.734845)"/>
<path style="fill:none;stroke-width:0.0948122;stroke-linecap:butt;stroke-linejoin:miter;stroke:rgb(0.392157%,0%,0.784314%);stroke-opacity:1;stroke-miterlimit:10;" d="M 31.506523 18.514501 C 31.253419 18.56159 30.997372 18.593964 30.738382 18.596907 " transform="matrix(1.32727,0,0,1.32727,-1.516893,1.734845)"/>
<path style="fill:none;stroke-width:0.0948122;stroke-linecap:butt;stroke-linejoin:miter;stroke:rgb(0.392157%,0%,0.784314%);stroke-opacity:1;stroke-miterlimit:10;" d="M 32.045105 17.55506 C 31.750798 17.584491 31.456491 17.599206 31.159241 17.596263 " transform="matrix(1.32727,0,0,1.32727,-1.516893,1.734845)"/>
<path style="fill:none;stroke-width:0.0948122;stroke-linecap:butt;stroke-linejoin:miter;stroke:rgb(0.392157%,0%,0.784314%);stroke-opacity:1;stroke-miterlimit:10;" d="M 32.724954 16.554416 C 32.392387 16.61622 32.053934 16.678025 31.712538 16.69274 " transform="matrix(1.32727,0,0,1.32727,-1.516893,1.734845)"/>
<path style="fill:none;stroke-width:0.0948122;stroke-linecap:butt;stroke-linejoin:miter;stroke:rgb(0.392157%,0%,0.784314%);stroke-opacity:1;stroke-miterlimit:10;" d="M 33.272365 15.436049 C 32.80736 15.562601 32.336469 15.680324 31.856748 15.750958 " transform="matrix(1.32727,0,0,1.32727,-1.516893,1.734845)"/>
<path style="fill:none;stroke-width:0.0948122;stroke-linecap:butt;stroke-linejoin:miter;stroke:rgb(0.392157%,0%,0.784314%);stroke-opacity:1;stroke-miterlimit:10;" d="M 30.514708 16.227735 C 30.991486 16.828121 30.341067 17.637466 30.102678 18.211365 " transform="matrix(1.32727,0,0,1.32727,-1.516893,1.734845)"/>
<path style="fill-rule:nonzero;fill:rgb(95.686275%,77.254902%,23.921569%);fill-opacity:1;stroke-width:0.0948122;stroke-linecap:butt;stroke-linejoin:miter;stroke:rgb(0.392157%,0%,0.784314%);stroke-opacity:1;stroke-miterlimit:4;" d="M 18.506981 22.834928 C 17.986058 24.109277 16.423288 24.812671 16.638132 26.3931 C 15.766983 27.423175 17.768271 25.76034 17.147283 26.984657 C 17.1826 27.39963 18.209731 25.954582 17.768271 27.161241 C 18.256821 27.867578 18.874865 25.642617 19.798989 25.613186 C 20.770203 24.800899 18.857207 23.620728 18.506981 22.834928 Z M 18.506981 22.834928 " transform="matrix(1.32727,0,0,1.32727,-1.516893,1.734845)"/>
<path style="fill:none;stroke-width:0.0948122;stroke-linecap:butt;stroke-linejoin:miter;stroke:rgb(0.392157%,0%,0.784314%);stroke-opacity:1;stroke-miterlimit:10;" d="M 30.258661 18.437981 C 30.246889 19.406251 29.110864 19.106058 29.013742 19.956605 C 28.251487 19.874199 28.383925 20.751234 27.586353 20.559935 " transform="matrix(1.32727,0,0,1.32727,-1.516893,1.734845)"/>
<path style="fill-rule:nonzero;fill:rgb(95.686275%,77.254902%,23.921569%);fill-opacity:1;stroke-width:0.0948122;stroke-linecap:butt;stroke-linejoin:miter;stroke:rgb(0.392157%,0%,0.784314%);stroke-opacity:1;stroke-miterlimit:4;" d="M 28.719435 26.57557 C 29.210928 28.026504 31.636018 26.684464 31.506523 28.603346 C 31.197501 29.639306 29.346309 29.56573 29.328651 28.309039 C 28.981369 27.59093 26.515076 27.334882 27.536321 26.484335 C 28.083732 26.390157 28.225 25.860404 28.710606 26.566741 Z M 28.719435 26.57557 " transform="matrix(1.32727,0,0,1.32727,-1.516893,1.734845)"/>
<path style="fill-rule:nonzero;fill:rgb(95.686275%,77.254902%,23.921569%);fill-opacity:1;stroke-width:0.0948122;stroke-linecap:butt;stroke-linejoin:miter;stroke:rgb(0.392157%,0%,0.784314%);stroke-opacity:1;stroke-miterlimit:4;" d="M 26.824098 22.834928 C 27.345022 24.109277 28.907792 24.812671 28.690005 26.3931 C 29.561153 27.423175 27.562809 25.76034 28.183797 26.984657 C 28.145537 27.39963 27.118405 25.954582 27.559866 27.161241 C 27.074259 27.867578 26.453271 25.642617 25.53209 25.613186 C 24.510845 24.924508 26.53862 23.503005 26.824098 22.834928 Z M 26.824098 22.834928 " transform="matrix(1.32727,0,0,1.32727,-1.516893,1.734845)"/>
<path style="fill:none;stroke-width:0.0948122;stroke-linecap:butt;stroke-linejoin:miter;stroke:rgb(0.392157%,0%,0.784314%);stroke-opacity:1;stroke-miterlimit:4;" d="M 29.228587 27.39963 C 29.405171 27.429061 29.587641 27.417288 29.764225 27.39963 " transform="matrix(1.32727,0,0,1.32727,-1.516893,1.734845)"/>
<path style="fill:none;stroke-width:0.0948122;stroke-linecap:butt;stroke-linejoin:miter;stroke:rgb(0.392157%,0%,0.784314%);stroke-opacity:1;stroke-miterlimit:10;" d="M 30.797243 27.858749 C 31.28285 27.902895 31.28285 28.532712 31.288736 28.900596 " transform="matrix(1.32727,0,0,1.32727,-1.516893,1.734845)"/>
<path style="fill:none;stroke-width:0.0948122;stroke-linecap:butt;stroke-linejoin:miter;stroke:rgb(0.392157%,0%,0.784314%);stroke-opacity:1;stroke-miterlimit:10;" d="M 30.485278 28.114796 C 30.93851 28.188373 30.914966 28.791702 30.920852 29.141928 " transform="matrix(1.32727,0,0,1.32727,-1.516893,1.734845)"/>
<path style="fill:none;stroke-width:0.0948122;stroke-linecap:butt;stroke-linejoin:miter;stroke:rgb(0.392157%,0%,0.784314%);stroke-opacity:1;stroke-miterlimit:4;" d="M 25.985323 25.495463 C 26.962422 26.195914 26.880016 25.786827 26.364979 24.980426 " transform="matrix(1.32727,0,0,1.32727,-1.516893,1.734845)"/>
<path style="fill:none;stroke-width:0.0948122;stroke-linecap:butt;stroke-linejoin:miter;stroke:rgb(0.392157%,0%,0.784314%);stroke-opacity:1;stroke-miterlimit:4;" d="M 26.897675 24.668461 C 27.874774 25.368911 27.792368 24.959825 27.277331 24.153423 " transform="matrix(1.32727,0,0,1.32727,-1.516893,1.734845)"/>
<path style="fill:none;stroke-width:0.0948122;stroke-linecap:butt;stroke-linejoin:miter;stroke:rgb(0.392157%,0%,0.784314%);stroke-opacity:1;stroke-miterlimit:4;" d="M 27.053658 25.939867 C 27.877717 26.528481 27.901262 26.231231 27.383281 25.489577 " transform="matrix(1.32727,0,0,1.32727,-1.516893,1.734845)"/>
<path style="fill-rule:nonzero;fill:rgb(95.686275%,77.254902%,23.921569%);fill-opacity:1;stroke-width:0.0948122;stroke-linecap:butt;stroke-linejoin:miter;stroke:rgb(0.392157%,0%,0.784314%);stroke-opacity:1;stroke-miterlimit:10;" d="M 23.395421 31.072582 C 23.548461 32.161518 24.675657 31.68474 24.637397 31.066696 C 25.590952 30.904827 25.861714 29.674623 26.550393 29.327341 C 27.874774 28.420875 26.385581 26.981714 25.523261 26.228288 C 25.09063 26.066419 24.572649 26.710952 24.104701 26.88165 C 23.772134 27.193615 23.012822 27.296622 22.956904 27.743969 C 23.104057 28.853507 23.251211 29.963044 23.395421 31.072582 Z M 23.395421 31.072582 " transform="matrix(1.32727,0,0,1.32727,-1.516893,1.734845)"/>
<path style="fill-rule:nonzero;fill:rgb(95.686275%,77.254902%,23.921569%);fill-opacity:1;stroke-width:0.0948122;stroke-linecap:butt;stroke-linejoin:miter;stroke:rgb(0.392157%,0%,0.784314%);stroke-opacity:1;stroke-miterlimit:4;" d="M 23.121716 27.717482 C 24.089986 27.923496 24.790437 26.708008 25.452627 26.192971 C 25.0818 24.309406 23.165862 26.042875 22.956904 27.075892 C 23.012822 27.290736 23.06874 27.502637 23.121716 27.717482 Z M 23.121716 27.717482 " transform="matrix(1.32727,0,0,1.32727,-1.516893,1.734845)"/>
<path style="fill:none;stroke-width:0.0948122;stroke-linecap:butt;stroke-linejoin:miter;stroke:rgb(0.392157%,0%,0.784314%);stroke-opacity:1;stroke-miterlimit:10;" d="M 24.540276 31.028436 C 24.41078 29.883581 23.919288 28.806418 23.33656 27.826375 " transform="matrix(1.32727,0,0,1.32727,-1.516893,1.734845)"/>
<path style="fill:none;stroke-width:0.0948122;stroke-linecap:butt;stroke-linejoin:miter;stroke:rgb(0.392157%,0%,0.784314%);stroke-opacity:1;stroke-miterlimit:10;" d="M 25.255442 30.542829 C 25.190694 29.106611 23.916345 28.082422 23.619095 26.793357 L 23.439567 26.657976 " transform="matrix(1.32727,0,0,1.32727,-1.516893,1.734845)"/>
<path style="fill:none;stroke-width:0.0948122;stroke-linecap:butt;stroke-linejoin:miter;stroke:rgb(0.392157%,0%,0.784314%);stroke-opacity:1;stroke-miterlimit:10;" d="M 25.808739 29.915955 C 25.537976 28.538598 24.407837 27.502637 23.85454 26.346011 " transform="matrix(1.32727,0,0,1.32727,-1.516893,1.734845)"/>
<path style="fill:none;stroke-width:0.0948122;stroke-linecap:butt;stroke-linejoin:miter;stroke:rgb(0.392157%,0%,0.784314%);stroke-opacity:1;stroke-miterlimit:10;" d="M 26.267858 29.333227 C 25.902917 28.055935 24.813981 27.128867 24.195936 26.072305 " transform="matrix(1.32727,0,0,1.32727,-1.516893,1.734845)"/>
<path style="fill:none;stroke-width:0.0948122;stroke-linecap:butt;stroke-linejoin:miter;stroke:rgb(0.392157%,0%,0.784314%);stroke-opacity:1;stroke-miterlimit:10;" d="M 26.832927 28.847621 C 26.479759 27.546783 25.261328 26.772756 24.613852 25.704421 " transform="matrix(1.32727,0,0,1.32727,-1.516893,1.734845)"/>
<path style="fill-rule:nonzero;fill:rgb(95.686275%,77.254902%,23.921569%);fill-opacity:1;stroke-width:0.0948122;stroke-linecap:butt;stroke-linejoin:miter;stroke:rgb(0.392157%,0%,0.784314%);stroke-opacity:1;stroke-miterlimit:10;" d="M 21.932715 31.072582 C 21.779676 32.161518 20.655423 31.68474 20.693683 31.066696 C 19.740128 30.904827 19.466422 29.674623 18.780687 29.327341 C 17.456305 28.420875 18.945499 26.981714 19.804875 26.228288 C 20.24045 26.066419 20.75843 26.710952 21.226378 26.88165 C 21.556002 27.193615 22.315314 27.296622 22.371233 27.743969 C 22.227022 28.853507 22.079869 29.963044 21.932715 31.072582 Z M 21.932715 31.072582 " transform="matrix(1.32727,0,0,1.32727,-1.516893,1.734845)"/>
<path style="fill-rule:nonzero;fill:rgb(95.686275%,77.254902%,23.921569%);fill-opacity:1;stroke-width:0.0948122;stroke-linecap:butt;stroke-linejoin:miter;stroke:rgb(0.392157%,0%,0.784314%);stroke-opacity:1;stroke-miterlimit:4;" d="M 22.206421 27.717482 C 21.241094 27.923496 20.540643 26.708008 19.878452 26.192971 C 20.246336 24.309406 22.165218 26.042875 22.374176 27.075892 C 22.318257 27.290736 22.262339 27.502637 22.206421 27.717482 Z M 22.206421 27.717482 " transform="matrix(1.32727,0,0,1.32727,-1.516893,1.734845)"/>
<path style="fill:none;stroke-width:0.0948122;stroke-linecap:butt;stroke-linejoin:miter;stroke:rgb(0.392157%,0%,0.784314%);stroke-opacity:1;stroke-miterlimit:10;" d="M 20.790804 31.028436 C 20.920299 29.883581 21.408849 28.806418 21.991577 27.826375 " transform="matrix(1.32727,0,0,1.32727,-1.516893,1.734845)"/>
<path style="fill:none;stroke-width:0.0948122;stroke-linecap:butt;stroke-linejoin:miter;stroke:rgb(0.392157%,0%,0.784314%);stroke-opacity:1;stroke-miterlimit:10;" d="M 20.075638 30.542829 C 20.140385 29.106611 21.414735 28.082422 21.709042 26.793357 L 21.891512 26.657976 " transform="matrix(1.32727,0,0,1.32727,-1.516893,1.734845)"/>
<path style="fill-rule:nonzero;fill:rgb(95.686275%,77.254902%,23.921569%);fill-opacity:1;stroke-width:0.0948122;stroke-linecap:butt;stroke-linejoin:miter;stroke:rgb(0.392157%,0%,0.784314%);stroke-opacity:1;stroke-miterlimit:4;" d="M 22.66554 27.493808 C 23.474884 28.732841 23.554347 30.578146 23.251211 32.023193 C 21.823822 33.36229 21.709042 30.451594 22.009235 29.5569 C 22.168161 28.897653 22.118129 27.958813 22.66554 27.493808 Z M 22.66554 27.493808 " transform="matrix(1.32727,0,0,1.32727,-1.516893,1.734845)"/>
<path style="fill:none;stroke-width:0.0948122;stroke-linecap:butt;stroke-linejoin:miter;stroke:rgb(0.392157%,0%,0.784314%);stroke-opacity:1;stroke-miterlimit:10;" d="M 19.522341 29.915955 C 19.793103 28.538598 20.920299 27.502637 21.476539 26.346011 " transform="matrix(1.32727,0,0,1.32727,-1.516893,1.734845)"/>
<path style="fill:none;stroke-width:0.0948122;stroke-linecap:butt;stroke-linejoin:miter;stroke:rgb(0.392157%,0%,0.784314%);stroke-opacity:1;stroke-miterlimit:10;" d="M 19.063222 29.333227 C 19.425219 28.055935 20.514155 27.128867 21.135143 26.072305 " transform="matrix(1.32727,0,0,1.32727,-1.516893,1.734845)"/>
<path style="fill-rule:nonzero;fill:rgb(95.686275%,77.254902%,23.921569%);fill-opacity:1;stroke-width:0.0948122;stroke-linecap:butt;stroke-linejoin:miter;stroke:rgb(0.392157%,0%,0.784314%);stroke-opacity:1;stroke-miterlimit:4;" d="M 23.215894 27.473207 C 23.307129 27.952927 22.706743 28.609232 22.309428 28.097138 C 21.920943 27.664506 22.106356 26.516709 22.827409 26.693293 C 23.109943 26.83456 23.212951 27.1789 23.215894 27.473207 Z M 23.215894 27.473207 " transform="matrix(1.32727,0,0,1.32727,-1.516893,1.734845)"/>
<path style="fill:none;stroke-width:0.0948122;stroke-linecap:butt;stroke-linejoin:miter;stroke:rgb(0.392157%,0%,0.784314%);stroke-opacity:1;stroke-miterlimit:10;" d="M 18.498152 28.847621 C 18.851321 27.546783 20.066809 26.772756 20.714284 25.704421 " transform="matrix(1.32727,0,0,1.32727,-1.516893,1.734845)"/>
<path style="fill-rule:nonzero;fill:rgb(100%,100%,100%);fill-opacity:1;stroke-width:0.0948122;stroke-linecap:butt;stroke-linejoin:miter;stroke:rgb(0.392157%,0%,0.784314%);stroke-opacity:1;stroke-miterlimit:4;" d="M 22.66554 27.293679 C 25.264271 26.045818 27.392111 23.429428 27.342078 20.442212 C 24.225367 20.442212 21.105713 20.442212 17.986058 20.442212 C 17.938969 23.444143 20.060923 26.028159 22.66554 27.293679 Z M 22.66554 27.293679 " transform="matrix(1.32727,0,0,1.32727,-1.516893,1.734845)"/>
<path style="fill:none;stroke-width:0.0948122;stroke-linecap:butt;stroke-linejoin:miter;stroke:rgb(0.392157%,0%,0.784314%);stroke-opacity:1;stroke-miterlimit:10;" d="M 20.146272 20.442212 C 20.38466 20.442212 20.625992 20.442212 20.864381 20.442212 " transform="matrix(1.32727,0,0,1.32727,-1.516893,1.734845)"/>
<path style="fill:none;stroke-width:0.0948122;stroke-linecap:butt;stroke-linejoin:miter;stroke:rgb(0.392157%,0%,0.784314%);stroke-opacity:1;stroke-miterlimit:10;" d="M 18.70711 20.442212 C 18.945499 20.442212 19.186831 20.442212 19.425219 20.442212 " transform="matrix(1.32727,0,0,1.32727,-1.516893,1.734845)"/>
<path style="fill:none;stroke-width:0.0948122;stroke-linecap:butt;stroke-linejoin:miter;stroke:rgb(0.392157%,0%,0.784314%);stroke-opacity:1;stroke-miterlimit:10;" d="M 21.585433 20.442212 C 21.823822 20.442212 22.065153 20.442212 22.306485 20.442212 " transform="matrix(1.32727,0,0,1.32727,-1.516893,1.734845)"/>
<path style="fill-rule:nonzero;fill:rgb(65.098039%,0%,19.607843%);fill-opacity:1;stroke-width:0.0948122;stroke-linecap:butt;stroke-linejoin:miter;stroke:rgb(0.392157%,0%,0.784314%);stroke-opacity:1;stroke-miterlimit:4;" d="M 18.70711 20.442212 C 18.70711 21.460514 18.70711 22.48176 18.70711 23.500062 C 19.104425 24.394755 19.592974 24.983369 19.425219 23.732564 C 19.425219 22.637742 19.425219 21.539977 19.425219 20.442212 C 19.186831 20.442212 18.945499 20.442212 18.70711 20.442212 Z M 18.70711 20.442212 " transform="matrix(1.32727,0,0,1.32727,-1.516893,1.734845)"/>
<path style="fill-rule:nonzero;fill:rgb(65.098039%,0%,19.607843%);fill-opacity:1;stroke-width:0.0948122;stroke-linecap:butt;stroke-linejoin:miter;stroke:rgb(0.392157%,0%,0.784314%);stroke-opacity:1;stroke-miterlimit:4;" d="M 20.146272 20.442212 C 20.146272 22.122705 20.146272 23.803198 20.146272 25.480748 C 20.940901 26.602058 20.91147 25.766226 20.864381 24.965711 C 20.864381 23.458859 20.864381 21.949064 20.864381 20.442212 C 20.625992 20.442212 20.38466 20.442212 20.146272 20.442212 Z M 20.146272 20.442212 " transform="matrix(1.32727,0,0,1.32727,-1.516893,1.734845)"/>
<path style="fill-rule:nonzero;fill:rgb(65.098039%,0%,19.607843%);fill-opacity:1;stroke-width:0.0948122;stroke-linecap:butt;stroke-linejoin:miter;stroke:rgb(0.392157%,0%,0.784314%);stroke-opacity:1;stroke-miterlimit:4;" d="M 21.585433 20.442212 C 21.585433 22.520019 21.585433 24.594884 21.585433 26.672692 C 22.509557 27.635076 22.294713 26.531424 22.306485 25.857461 C 22.306485 24.053359 22.306485 22.249257 22.306485 20.442212 C 22.065153 20.442212 21.823822 20.442212 21.585433 20.442212 Z M 21.585433 20.442212 " transform="matrix(1.32727,0,0,1.32727,-1.516893,1.734845)"/>
<path style="fill:none;stroke-width:0.0948122;stroke-linecap:butt;stroke-linejoin:miter;stroke:rgb(0.392157%,0%,0.784314%);stroke-opacity:1;stroke-miterlimit:4;" d="M 18.70711 20.442212 C 18.945499 20.442212 19.186831 20.442212 19.425219 20.442212 " transform="matrix(1.32727,0,0,1.32727,-1.516893,1.734845)"/>
<path style="fill:none;stroke-width:0.0948122;stroke-linecap:butt;stroke-linejoin:miter;stroke:rgb(0.392157%,0%,0.784314%);stroke-opacity:1;stroke-miterlimit:4;" d="M 20.146272 20.442212 C 20.38466 20.442212 20.625992 20.442212 20.864381 20.442212 " transform="matrix(1.32727,0,0,1.32727,-1.516893,1.734845)"/>
<path style="fill:none;stroke-width:0.0948122;stroke-linecap:butt;stroke-linejoin:miter;stroke:rgb(0.392157%,0%,0.784314%);stroke-opacity:1;stroke-miterlimit:4;" d="M 21.585433 20.442212 C 21.823822 20.442212 22.065153 20.442212 22.306485 20.442212 " transform="matrix(1.32727,0,0,1.32727,-1.516893,1.734845)"/>
<path style="fill-rule:nonzero;fill:rgb(65.098039%,0%,19.607843%);fill-opacity:1;stroke-width:0.0948122;stroke-linecap:butt;stroke-linejoin:miter;stroke:rgb(0.392157%,0%,0.784314%);stroke-opacity:1;stroke-miterlimit:4;" d="M 26.623969 20.442212 C 26.623969 21.460514 26.623969 22.48176 26.623969 23.500062 C 26.226655 24.394755 25.735162 24.983369 25.902917 23.732564 C 25.902917 22.637742 25.902917 21.539977 25.902917 20.442212 C 26.144249 20.442212 26.382638 20.442212 26.623969 20.442212 Z M 26.623969 20.442212 " transform="matrix(1.32727,0,0,1.32727,-1.516893,1.734845)"/>
<path style="fill-rule:nonzero;fill:rgb(65.098039%,0%,19.607843%);fill-opacity:1;stroke-width:0.0948122;stroke-linecap:butt;stroke-linejoin:miter;stroke:rgb(0.392157%,0%,0.784314%);stroke-opacity:1;stroke-miterlimit:4;" d="M 25.184808 20.442212 C 25.184808 22.122705 25.184808 23.803198 25.184808 25.480748 C 24.390179 26.602058 24.416667 25.766226 24.463756 24.965711 C 24.463756 23.458859 24.463756 21.949064 24.463756 20.442212 C 24.705087 20.442212 24.943476 20.442212 25.184808 20.442212 Z M 25.184808 20.442212 " transform="matrix(1.32727,0,0,1.32727,-1.516893,1.734845)"/>
<path style="fill-rule:nonzero;fill:rgb(65.098039%,0%,19.607843%);fill-opacity:1;stroke-width:0.0948122;stroke-linecap:butt;stroke-linejoin:miter;stroke:rgb(0.392157%,0%,0.784314%);stroke-opacity:1;stroke-miterlimit:4;" d="M 23.745647 20.442212 C 23.745647 22.520019 23.745647 24.594884 23.745647 26.672692 C 22.821523 27.635076 23.033424 26.531424 23.024594 25.857461 C 23.024594 24.053359 23.024594 22.249257 23.024594 20.442212 C 23.265926 20.442212 23.504315 20.442212 23.745647 20.442212 Z M 23.745647 20.442212 " transform="matrix(1.32727,0,0,1.32727,-1.516893,1.734845)"/>
<path style="fill-rule:nonzero;fill:rgb(0%,50.588235%,77.647059%);fill-opacity:1;stroke-width:0.0948122;stroke-linecap:butt;stroke-linejoin:miter;stroke:rgb(0.392157%,0%,0.784314%);stroke-opacity:1;stroke-miterlimit:10;" d="M 30.208629 29.109554 C 29.979069 29.615762 30.017329 30.04545 30.523537 30.345643 C 30.291035 31.334515 30.055589 32.323387 29.823087 33.312258 C 29.496406 32.967919 29.284505 32.176233 28.74298 32.685384 C 28.004269 33.241624 28.436901 32.361646 28.504591 31.929015 C 28.660574 31.263881 28.8195 30.60169 28.975482 29.9395 C 29.56704 29.933613 29.770111 29.559844 29.793656 29.015376 C 29.937866 28.971229 30.096792 29.018319 30.208629 29.109554 Z M 30.208629 29.109554 " transform="matrix(1.32727,0,0,1.32727,-1.516893,1.734845)"/>
<path style="fill-rule:nonzero;fill:rgb(0%,50.588235%,77.647059%);fill-opacity:1;stroke-width:0.0948122;stroke-linecap:butt;stroke-linejoin:miter;stroke:rgb(0.392157%,0%,0.784314%);stroke-opacity:1;stroke-miterlimit:10;" d="M 30.376384 28.621004 C 30.017329 29.053635 29.967297 29.480381 30.376384 29.90124 C 29.908436 30.790047 29.437545 31.681797 28.969596 32.573548 C 28.737094 32.155632 28.734151 31.331572 28.077846 31.675911 C 27.221413 32.014364 27.874774 31.266824 28.039586 30.86951 C 28.354495 30.27501 28.66646 29.680509 28.978426 29.086009 C 29.549381 29.241992 29.840745 28.938856 29.996728 28.417932 C 30.143881 28.423818 30.296921 28.488566 30.376384 28.621004 Z M 30.376384 28.621004 " transform="matrix(1.32727,0,0,1.32727,-1.516893,1.734845)"/>
<path style="fill-rule:nonzero;fill:rgb(0%,50.588235%,77.647059%);fill-opacity:1;stroke-width:0.0948122;stroke-linecap:butt;stroke-linejoin:miter;stroke:rgb(0.392157%,0%,0.784314%);stroke-opacity:1;stroke-miterlimit:10;" d="M 30.435245 28.812304 C 30.155654 29.247878 29.661218 29.64225 29.511121 30.101368 C 29.887834 30.63995 29.475804 31.016663 29.104978 31.405149 C 28.657631 31.929015 28.210284 32.452882 27.759994 32.976748 C 27.624613 32.517629 27.798254 31.714171 27.083088 31.887812 C 26.17368 32.02025 26.977138 31.437522 27.227299 31.087297 C 27.656987 30.584032 28.086675 30.080767 28.516364 29.580445 C 29.07849 29.913012 29.408114 29.56573 29.687705 29.083066 C 29.946696 28.877051 30.223344 28.000016 30.435245 28.812304 Z M 30.435245 28.812304 " transform="matrix(1.32727,0,0,1.32727,-1.516893,1.734845)"/>
<path style="fill:none;stroke-width:0.0948122;stroke-linecap:butt;stroke-linejoin:miter;stroke:rgb(0.392157%,0%,0.784314%);stroke-opacity:1;stroke-miterlimit:4;" d="M 5.963616 13.531883 C 7.614678 14.297081 9.433496 14.653193 11.208167 15.006361 " transform="matrix(1.32727,0,0,1.32727,-1.516893,1.734845)"/>
<path style="fill:none;stroke-width:0.0948122;stroke-linecap:butt;stroke-linejoin:miter;stroke:rgb(0.392157%,0%,0.784314%);stroke-opacity:1;stroke-miterlimit:4;" d="M 6.531628 14.544299 C 8.188577 15.05345 9.857298 15.594975 11.58488 15.809819 " transform="matrix(1.32727,0,0,1.32727,-1.516893,1.734845)"/>
<path style="fill:none;stroke-width:0.0948122;stroke-linecap:butt;stroke-linejoin:miter;stroke:rgb(0.392157%,0%,0.784314%);stroke-opacity:1;stroke-miterlimit:4;" d="M 7.888384 15.809819 C 9.330488 16.242451 10.796137 16.589733 12.279445 16.84578 " transform="matrix(1.32727,0,0,1.32727,-1.516893,1.734845)"/>
<path style="fill:none;stroke-width:0.0948122;stroke-linecap:butt;stroke-linejoin:miter;stroke:rgb(0.392157%,0%,0.784314%);stroke-opacity:1;stroke-miterlimit:4;" d="M 9.615966 17.131258 C 10.73139 17.387305 11.8527 17.649238 12.991668 17.772847 " transform="matrix(1.32727,0,0,1.32727,-1.516893,1.734845)"/>
<path style="fill:none;stroke-width:0.0948122;stroke-linecap:butt;stroke-linejoin:miter;stroke:rgb(0.392157%,0%,0.784314%);stroke-opacity:1;stroke-miterlimit:10;" d="M 11.149306 18.211365 C 11.952764 18.37029 12.756222 18.549818 13.571453 18.661654 " transform="matrix(1.32727,0,0,1.32727,-1.516893,1.734845)"/>
<path style="fill:none;stroke-width:0.0948122;stroke-linecap:butt;stroke-linejoin:miter;stroke:rgb(0.392157%,0%,0.784314%);stroke-opacity:1;stroke-miterlimit:10;" d="M 12.379509 19.206122 C 13.032871 19.297357 13.689175 19.400365 14.351366 19.409194 " transform="matrix(1.32727,0,0,1.32727,-1.516893,1.734845)"/>
<path style="fill:none;stroke-width:0.0948122;stroke-linecap:butt;stroke-linejoin:miter;stroke:rgb(0.392157%,0%,0.784314%);stroke-opacity:1;stroke-miterlimit:10;" d="M 14.130636 20.062556 C 14.413171 20.04784 14.695705 20.033125 14.975297 19.991922 " transform="matrix(1.32727,0,0,1.32727,-1.516893,1.734845)"/>
<path style="fill:none;stroke-width:0.0948122;stroke-linecap:butt;stroke-linejoin:miter;stroke:rgb(0.392157%,0%,0.784314%);stroke-opacity:1;stroke-miterlimit:10;" d="M 14.660389 20.980794 C 14.925265 20.901331 15.193084 20.810096 15.431473 20.665885 " transform="matrix(1.32727,0,0,1.32727,-1.516893,1.734845)"/>
<path style="fill:none;stroke-width:0.0948122;stroke-linecap:butt;stroke-linejoin:miter;stroke:rgb(0.392157%,0%,0.784314%);stroke-opacity:1;stroke-miterlimit:10;" d="M 15.375555 21.928462 C 15.613943 21.822512 15.817015 21.631212 15.928852 21.392824 " transform="matrix(1.32727,0,0,1.32727,-1.516893,1.734845)"/>
<path style="fill:none;stroke-width:0.0948122;stroke-linecap:butt;stroke-linejoin:miter;stroke:rgb(0.392157%,0%,0.784314%);stroke-opacity:1;stroke-miterlimit:10;" d="M 16.284963 22.278688 C 16.43506 22.131534 16.573384 21.949064 16.593986 21.731277 " transform="matrix(1.32727,0,0,1.32727,-1.516893,1.734845)"/>
<path style="fill:none;stroke-width:0.0948122;stroke-linecap:butt;stroke-linejoin:miter;stroke:rgb(0.392157%,0%,0.784314%);stroke-opacity:1;stroke-miterlimit:10;" d="M 17.368013 22.505304 C 17.265006 22.358151 17.317981 22.163908 17.332696 22.004982 " transform="matrix(1.32727,0,0,1.32727,-1.516893,1.734845)"/>
<path style="fill:none;stroke-width:0.0948122;stroke-linecap:butt;stroke-linejoin:miter;stroke:rgb(0.392157%,0%,0.784314%);stroke-opacity:1;stroke-miterlimit:10;" d="M 17.226746 21.410482 C 17.217917 21.383994 17.194372 21.183866 17.188486 21.110289 " transform="matrix(1.32727,0,0,1.32727,-1.516893,1.734845)"/>
<path style="fill:none;stroke-width:0.0948122;stroke-linecap:butt;stroke-linejoin:miter;stroke:rgb(0.392157%,0%,0.784314%);stroke-opacity:1;stroke-miterlimit:10;" d="M 15.187198 15.597918 C 17.103137 16.068809 15.290206 17.719872 16.102493 18.761719 " transform="matrix(1.32727,0,0,1.32727,-1.516893,1.734845)"/>
<path style="fill:none;stroke-width:0.0948122;stroke-linecap:butt;stroke-linejoin:miter;stroke:rgb(0.392157%,0%,0.784314%);stroke-opacity:1;stroke-miterlimit:10;" d="M 15.19897 19.459226 L 15.431473 19.382707 " transform="matrix(1.32727,0,0,1.32727,-1.516893,1.734845)"/>
<path style="fill:none;stroke-width:0.0948122;stroke-linecap:butt;stroke-linejoin:miter;stroke:rgb(0.392157%,0%,0.784314%);stroke-opacity:1;stroke-miterlimit:10;" d="M 13.821614 18.514501 C 14.074718 18.56159 14.333708 18.593964 14.592698 18.596907 " transform="matrix(1.32727,0,0,1.32727,-1.516893,1.734845)"/>
<path style="fill:none;stroke-width:0.0948122;stroke-linecap:butt;stroke-linejoin:miter;stroke:rgb(0.392157%,0%,0.784314%);stroke-opacity:1;stroke-miterlimit:10;" d="M 13.283032 17.55506 C 13.577339 17.584491 13.874589 17.599206 14.168896 17.596263 " transform="matrix(1.32727,0,0,1.32727,-1.516893,1.734845)"/>
<path style="fill-rule:nonzero;fill:rgb(21.176471%,58.039216%,26.27451%);fill-opacity:1;stroke-width:0.0948122;stroke-linecap:butt;stroke-linejoin:miter;stroke:rgb(0.392157%,0%,0.784314%);stroke-opacity:1;stroke-miterlimit:10;" d="M 14.981183 28.977116 C 15.357896 27.99413 15.87882 29.165472 16.202557 29.56573 C 16.367369 29.971873 17.465135 30.781218 16.449775 30.728242 C 15.699292 30.98429 15.422644 29.436235 14.981183 28.977116 Z M 14.981183 28.977116 " transform="matrix(1.32727,0,0,1.32727,-1.516893,1.734845)"/>
<path style="fill:none;stroke-width:0.0948122;stroke-linecap:butt;stroke-linejoin:miter;stroke:rgb(0.392157%,0%,0.784314%);stroke-opacity:1;stroke-miterlimit:10;" d="M 12.603182 16.554416 C 12.938693 16.61622 13.274203 16.678025 13.615599 16.69274 " transform="matrix(1.32727,0,0,1.32727,-1.516893,1.734845)"/>
<path style="fill:none;stroke-width:0.0948122;stroke-linecap:butt;stroke-linejoin:miter;stroke:rgb(0.392157%,0%,0.784314%);stroke-opacity:1;stroke-miterlimit:10;" d="M 12.055771 15.436049 C 12.52372 15.562601 12.994611 15.680324 13.474331 15.750958 " transform="matrix(1.32727,0,0,1.32727,-1.516893,1.734845)"/>
<path style="fill:none;stroke-width:0.0948122;stroke-linecap:butt;stroke-linejoin:miter;stroke:rgb(0.392157%,0%,0.784314%);stroke-opacity:1;stroke-miterlimit:10;" d="M 14.816371 16.227735 C 14.336651 16.828121 14.990012 17.637466 15.225458 18.211365 " transform="matrix(1.32727,0,0,1.32727,-1.516893,1.734845)"/>
<path style="fill:none;stroke-width:0.0948122;stroke-linecap:butt;stroke-linejoin:miter;stroke:rgb(0.392157%,0%,0.784314%);stroke-opacity:1;stroke-miterlimit:10;" d="M 15.069475 18.437981 C 15.081248 19.406251 16.217273 19.106058 16.314394 19.956605 C 17.079592 19.874199 16.944211 20.751234 17.741783 20.559935 " transform="matrix(1.32727,0,0,1.32727,-1.516893,1.734845)"/>
<path style="fill:none;stroke-width:0.0948122;stroke-linecap:butt;stroke-linejoin:miter;stroke:rgb(0.392157%,0%,0.784314%);stroke-opacity:1;stroke-miterlimit:4;" d="M 16.09955 27.39963 C 15.922966 27.429061 15.740495 27.417288 15.563911 27.39963 " transform="matrix(1.32727,0,0,1.32727,-1.516893,1.734845)"/>
<path style="fill:none;stroke-width:0.0948122;stroke-linecap:butt;stroke-linejoin:miter;stroke:rgb(0.392157%,0%,0.784314%);stroke-opacity:1;stroke-miterlimit:10;" d="M 14.530894 27.858749 C 14.045287 27.902895 14.045287 28.532712 14.039401 28.900596 " transform="matrix(1.32727,0,0,1.32727,-1.516893,1.734845)"/>
<path style="fill:none;stroke-width:0.0948122;stroke-linecap:butt;stroke-linejoin:miter;stroke:rgb(0.392157%,0%,0.784314%);stroke-opacity:1;stroke-miterlimit:10;" d="M 14.842859 28.114796 C 14.389626 28.188373 14.413171 28.791702 14.407285 29.141928 " transform="matrix(1.32727,0,0,1.32727,-1.516893,1.734845)"/>
<path style="fill:none;stroke-width:0.0948122;stroke-linecap:butt;stroke-linejoin:miter;stroke:rgb(0.392157%,0%,0.784314%);stroke-opacity:1;stroke-miterlimit:4;" d="M 19.342813 25.495463 C 18.368657 26.195914 18.451063 25.786827 18.963157 24.980426 " transform="matrix(1.32727,0,0,1.32727,-1.516893,1.734845)"/>
<path style="fill:none;stroke-width:0.0948122;stroke-linecap:butt;stroke-linejoin:miter;stroke:rgb(0.392157%,0%,0.784314%);stroke-opacity:1;stroke-miterlimit:4;" d="M 18.430462 24.668461 C 17.453362 25.368911 17.535768 24.959825 18.050806 24.153423 " transform="matrix(1.32727,0,0,1.32727,-1.516893,1.734845)"/>
<path style="fill:none;stroke-width:0.0948122;stroke-linecap:butt;stroke-linejoin:miter;stroke:rgb(0.392157%,0%,0.784314%);stroke-opacity:1;stroke-miterlimit:4;" d="M 18.277422 25.939867 C 17.450419 26.528481 17.429818 26.231231 17.944855 25.489577 " transform="matrix(1.32727,0,0,1.32727,-1.516893,1.734845)"/>
<path style="fill-rule:nonzero;fill:rgb(8.627451%,14.901961%,40.392157%);fill-opacity:1;stroke-width:0.0948122;stroke-linecap:butt;stroke-linejoin:miter;stroke:rgb(0.392157%,0%,0.784314%);stroke-opacity:1;stroke-miterlimit:10;" d="M 27.342078 16.966446 C 25.882316 17.649238 24.089986 17.658067 22.66554 16.869324 C 21.241094 17.658067 19.448764 17.649238 17.986058 16.966446 C 17.986058 18.126015 17.986058 19.285585 17.986058 20.442212 C 21.105713 20.442212 24.225367 20.442212 27.342078 20.442212 C 27.342078 19.285585 27.342078 18.126015 27.342078 16.966446 Z M 27.342078 16.966446 " transform="matrix(1.32727,0,0,1.32727,-1.516893,1.734845)"/>
<path style="fill-rule:nonzero;fill:rgb(0%,50.588235%,77.647059%);fill-opacity:1;stroke-width:0.0948122;stroke-linecap:butt;stroke-linejoin:miter;stroke:rgb(0.392157%,0%,0.784314%);stroke-opacity:1;stroke-miterlimit:10;" d="M 6.334443 25.98107 C 7.155559 25.616129 6.334443 24.680233 6.263809 24.062188 C 5.810576 22.717205 5.407376 21.351621 4.915883 20.01841 C 4.047677 19.553405 5.498611 19.835939 5.890039 19.759419 C 6.946601 19.535746 5.642821 20.330375 6.29324 20.998452 C 6.631693 22.057957 6.970146 23.11452 7.308599 24.171082 C 7.7118 22.831985 8.206235 21.513489 8.547632 20.159677 C 7.691198 19.497486 8.9008 19.847712 9.421724 19.759419 C 10.572464 19.538689 9.221595 20.303887 9.295171 20.998452 C 8.815451 22.520019 8.26804 24.026871 7.832466 25.560211 C 8.671241 26.266548 7.432208 25.881006 6.884797 25.98107 C 6.699383 25.98107 6.516913 25.98107 6.334443 25.98107 Z M 6.334443 25.98107 " transform="matrix(1.32727,0,0,1.32727,-1.516893,1.734845)"/>
<path style="fill-rule:nonzero;fill:rgb(0%,50.588235%,77.647059%);fill-opacity:1;stroke-width:0.0948122;stroke-linecap:butt;stroke-linejoin:miter;stroke:rgb(0.392157%,0%,0.784314%);stroke-opacity:1;stroke-miterlimit:10;" d="M 38.781793 25.50135 C 38.752362 23.676646 38.843597 21.84017 38.737647 20.024296 C 37.943018 19.547518 39.367464 19.838882 39.74712 19.759419 C 40.48583 19.582835 39.379236 20.495187 39.741234 21.069086 C 39.773607 22.617141 39.679429 24.179911 39.788323 25.719137 C 40.577066 26.190028 39.15262 25.901607 38.775907 25.98107 C 37.875327 26.063476 38.902459 25.939867 38.781793 25.50135 Z M 38.781793 25.50135 " transform="matrix(1.32727,0,0,1.32727,-1.516893,1.734845)"/>
</g>
</svg>
