<?xml version="1.0" encoding="UTF-8" standalone="no"?>
<svg
   xmlns:dc="http://purl.org/dc/elements/1.1/"
   xmlns:cc="http://creativecommons.org/ns#"
   xmlns:rdf="http://www.w3.org/1999/02/22-rdf-syntax-ns#"
   xmlns:svg="http://www.w3.org/2000/svg"
   xmlns="http://www.w3.org/2000/svg"
   xmlns:sodipodi="http://sodipodi.sourceforge.net/DTD/sodipodi-0.dtd"
   xmlns:inkscape="http://www.inkscape.org/namespaces/inkscape"
   width="246pt"
   height="195pt"
   viewBox="0 0 246 195"
   version="1.1"
   id="svg5"
   sodipodi:docname="brain_coral.r.c.svg"
   inkscape:version="1.0.2 (e86c870879, 2021-01-15)">
  <metadata
     id="metadata11">
    <rdf:RDF>
      <cc:Work
         rdf:about="">
        <dc:format>image/svg+xml</dc:format>
        <dc:type
           rdf:resource="http://purl.org/dc/dcmitype/StillImage" />
        <dc:title></dc:title>
      </cc:Work>
    </rdf:RDF>
  </metadata>
  <defs
     id="defs9" />
  <sodipodi:namedview
     pagecolor="#ffffff"
     bordercolor="#666666"
     borderopacity="1"
     objecttolerance="10"
     gridtolerance="10"
     guidetolerance="10"
     inkscape:pageopacity="0"
     inkscape:pageshadow="2"
     inkscape:window-width="805"
     inkscape:window-height="490"
     id="namedview7"
     showgrid="false"
     inkscape:zoom="2.4846154"
     inkscape:cx="164"
     inkscape:cy="130"
     inkscape:window-x="34"
     inkscape:window-y="29"
     inkscape:window-maximized="0"
     inkscape:current-layer="svg5" />
  <g
     id="surface5"
     transform="matrix(-1,0,0,1,245.84792,0)">
    <path
       style="fill:#b3b3b3;fill-opacity:1;fill-rule:nonzero;stroke:none"
       d="m 0.949219,82 c 1.429687,5.054688 2.402343,10.117188 3.3125,15.191406 0.910156,5.070314 1.753906,10.148434 2.933593,15.234374 1.175782,5.08594 2.679688,10.1836 4.910157,15.28516 2.226562,5.09765 5.175781,10.20703 9.242187,15.32422 1.085938,-6.53125 1.953125,-11.17969 2.75,-14.66016 0.796875,-3.48047 1.519532,-5.78906 2.324219,-7.64844 0.804687,-1.85547 1.6875,-3.25781 2.800781,-4.92578 1.117188,-1.66406 2.460938,-3.59375 4.183594,-6.5 2.363281,-3.97656 5.265625,-8.93359 8.585938,-11.164061 3.316406,-2.230469 7.050781,-1.734375 11.078124,-2.800781 4.027344,-1.070313 8.34375,-3.703126 12.828126,-4.199219 4.484374,-0.492188 9.132812,1.152343 13.828124,0.644531 3.25,-0.351562 6.246094,-0.9375 9.109376,-1.625 2.867187,-0.6875 5.601562,-3.472656 8.328124,-4.214844 2.730469,-0.742187 5.449218,0.554688 8.281248,0.03516 2.83594,-0.519531 5.78516,-2.863281 8.97266,-2.882812 3.53125,-0.02344 7.26562,2.292969 10.92187,2.867188 3.65625,0.578124 7.23828,-0.589844 10.45313,0.417968 3.21484,1.011719 6.07031,4.195313 8.28125,5.476563 2.20703,1.28125 3.76953,2.65625 4.40234,4.046875 -5.97656,-3.105469 -11.60937,-7.140625 -17.05469,-8.347656 -2.5,-0.550782 -4.96093,1.070312 -7.39843,0.839843 -2.8711,-0.269531 -5.70703,-2.328125 -8.53516,-2.214843 -2.79297,0.109374 -5.57812,2.386718 -8.375,2.792968 -2.4414,0.355469 -4.89453,-1.191406 -7.374999,-0.664062 -5.320312,1.132812 -10.769531,4.605468 -16.496093,6.175781 -2.980469,0.820313 -6.335938,1.367187 -9.851563,1.839844 -3.515625,0.476562 -7.195313,-1.121094 -10.828125,-0.59375 -3.628906,0.527343 -7.214844,3.183593 -10.539062,4.164062 -3.324219,0.976559 -6.386719,0.281249 -8.984376,2.109379 -4.4375,3.125 -8.09375,10.29687 -10.910156,16.37109 -2.816406,6.07031 -4.796875,13.04297 -5.890625,19.77344 -1.09375,6.72656 -1.300781,13.21093 -0.570312,18.30468 0.730469,5.08985 2.394531,8.79297 5.046875,9.96094 5.210937,3.91406 9.808594,6.42188 14.117187,8.20703 4.308594,1.78907 8.320313,2.85547 12.359375,3.89063 4.039063,1.03125 8.097656,2.02734 12.496094,3.67187 4.398438,1.64844 9.136719,3.94141 14.527344,7.57032 3.441406,2.3164 9.226562,3.76953 16.191406,4.54296 6.96484,0.77344 15.10938,0.875 23.26563,0.48829 8.16015,-0.39063 16.33593,-1.26172 23.36328,-2.42969 7.02734,-1.16797 12.90625,-2.63281 16.47656,-4.20313 4.36328,-1.91797 9.59765,-3.32812 15.16797,-4.52343 5.5664,-1.19532 11.46875,-2.1836 17.16015,-3.26172 5.69532,-1.08203 11.17969,-2.25391 15.91797,-3.82422 4.73438,-1.56641 6.72266,-5.53125 9.42578,-8.19922 2.10157,-2.07031 2.97657,-4.78906 3.20313,-7.88281 0.22656,-3.09375 1.80078,-6.5625 1.29297,-10.13672 -0.50782,-3.57422 -3.09375,-7.25 -3.19141,-10.76563 -0.0977,-3.51172 2.29297,-2.85937 3.74609,-5.77343 1.04297,-2.09375 4.79297,-4.11329 6.82813,-6.14453 2.03125,-2.03125 2.35547,-6.07032 4.54687,-8.20313 2.1875,-2.13672 2.25,-6.36328 3.76172,-8.76562 1.51172,-2.39844 4.47657,-2.97657 4.47657,-5.81641 0,-1.99219 -2.27344,-6.132814 -2.77735,-8.390626 -0.76562,-3.4375 -0.0664,-5.140625 -1.73437,-9 -1.59766,-3.699219 -5.53907,-5.535156 -7.67578,-9.410156 -1.5586,-2.820313 -1.21875,-7.660157 -2.92579,-10.476563 -1.78906,-2.949219 -5.42187,-3.527344 -7.46875,-6.730469 -1.18359,-1.855468 -1.88671,-4.636718 -2.6875,-7.289062 -0.58593,-1.929688 -5.22265,-3.792969 -6.13671,-5.1875 -2.17188,-3.316406 -0.82813,-5.804688 -3.14063,-8.078125 -1.82812,-1.796875 -3.44531,-3.453125 -4.44141,-5.277344 -2.01171,-3.683594 -3.125,-8.9375 -6.92187,-11.8125 -3.79688,-2.875 -10.28125,-3.371094 -15.04297,-5.535156 -4.76562,-2.164063 -7.80469,-5.996094 -12.71484,-7.550781 -4.90625,-1.550782 -11.6836,-0.820313 -15.92188,-1.859376 -6.10937,-1.5 -9.86328,-4.515624 -15.46484,-5.195312 C 135.1875,2.382812 129.74219,4.039062 124.24609,3.882812 118.75,3.722656 113.21094,1.753906 107.42188,1.824219 101.63281,1.890625 95.597656,0 89.113281,0 80.195312,0 75.394531,6.664062 69.96875,7.902344 64.546875,9.144531 58.5,6.960938 55.085938,9.269531 c -3.410157,2.308594 -6.191407,9.109375 -9.078126,12.316407 -2.890624,3.207031 -5.886718,0.816406 -9.738281,4.75 -1.359375,1.386718 -1.101562,7.078124 -3.035156,8.941406 C 31.304688,37.140625 27.191406,37.175781 25.085938,39.25 22.980469,41.320312 22.886719,45.433594 21,47.453125 c -1.882812,2.019531 -5.558594,1.945313 -6.824219,3.648437 -1.585937,2.125 -1.472656,6.171876 -3.339843,8.28125 -1.871094,2.113282 -5.726563,2.289063 -7.253907,4.675782 -1.523437,2.382812 -2.714843,4.976562 -3.257812,7.917968 -0.546875,2.945313 -0.441407,6.238282 0.625,10.023438 z m 0,0"
       id="path2" />
  </g>
</svg>
