<?xml version="1.0" encoding="UTF-8"?>
<svg xmlns="http://www.w3.org/2000/svg" xmlns:xlink="http://www.w3.org/1999/xlink" width="308pt" height="244pt" viewBox="0 0 308 244" version="1.1">
<g id="surface46">
<path style=" stroke:none;fill-rule:nonzero;fill:rgb(70.19608%,70.19608%,70.19608%);fill-opacity:1;" d="M 1.28125 102.605469 C 3.070312 108.929688 4.285156 115.265625 5.425781 121.613281 C 6.5625 127.957031 7.621094 134.3125 9.09375 140.675781 C 10.566406 147.039062 12.449219 153.417969 15.238281 159.800781 C 18.027344 166.179688 21.714844 172.574219 26.804688 178.976562 C 28.164062 170.804688 29.25 164.988281 30.246094 160.632812 C 31.242188 156.277344 32.148438 153.390625 33.152344 151.0625 C 34.160156 148.742188 35.265625 146.988281 36.65625 144.898438 C 38.054688 142.816406 39.738281 140.402344 41.894531 136.765625 C 44.851562 131.789062 48.480469 125.585938 52.636719 122.796875 C 56.785156 120.003906 61.457031 120.625 66.5 119.292969 C 71.539062 117.953125 76.9375 114.660156 82.550781 114.039062 C 88.160156 113.421875 93.976562 115.480469 99.851562 114.84375 C 103.917969 114.40625 107.667969 113.671875 111.25 112.8125 C 114.839844 111.949219 118.261719 108.464844 121.671875 107.535156 C 125.089844 106.609375 128.492188 108.230469 132.035156 107.582031 C 135.582031 106.929688 139.273438 104 143.261719 103.972656 C 147.679688 103.945312 152.351562 106.84375 156.929688 107.5625 C 161.503906 108.285156 165.984375 106.824219 170.007812 108.085938 C 174.03125 109.351562 177.601562 113.332031 180.371094 114.9375 C 183.132812 116.539062 185.085938 118.261719 185.878906 120 C 178.398438 116.113281 171.351562 111.066406 164.539062 109.554688 C 161.410156 108.867188 158.332031 110.894531 155.28125 110.605469 C 151.6875 110.269531 148.140625 107.691406 144.601562 107.835938 C 141.105469 107.972656 137.621094 110.820312 134.121094 111.328125 C 131.066406 111.773438 127.996094 109.839844 124.894531 110.5 C 118.234375 111.917969 111.417969 116.261719 104.25 118.226562 C 100.523438 119.253906 96.324219 119.9375 91.925781 120.527344 C 87.527344 121.125 82.921875 119.125 78.375 119.785156 C 73.835938 120.445312 69.347656 123.769531 65.1875 124.996094 C 61.027344 126.21875 57.195312 125.347656 53.945312 127.636719 C 48.394531 131.546875 43.820312 140.519531 40.292969 148.121094 C 36.769531 155.714844 34.292969 164.441406 32.921875 172.863281 C 31.554688 181.28125 31.296875 189.394531 32.210938 195.765625 C 33.125 202.136719 35.207031 206.769531 38.523438 208.230469 C 45.046875 213.128906 50.796875 216.265625 56.191406 218.5 C 61.582031 220.738281 66.601562 222.074219 71.65625 223.367188 C 76.707031 224.660156 81.789062 225.90625 87.292969 227.964844 C 92.792969 230.027344 98.722656 232.894531 105.46875 237.4375 C 109.773438 240.335938 117.015625 242.152344 125.730469 243.121094 C 134.445312 244.089844 144.636719 244.214844 154.839844 243.730469 C 165.050781 243.242188 175.28125 242.152344 184.074219 240.691406 C 192.867188 239.230469 200.222656 237.398438 204.691406 235.433594 C 210.152344 233.03125 216.699219 231.265625 223.671875 229.773438 C 230.636719 228.277344 238.023438 227.039062 245.144531 225.691406 C 252.269531 224.335938 259.132812 222.871094 265.0625 220.90625 C 270.984375 218.945312 273.472656 213.984375 276.855469 210.644531 C 279.484375 208.054688 280.578125 204.652344 280.863281 200.78125 C 281.148438 196.910156 283.117188 192.570312 282.480469 188.097656 C 281.847656 183.625 278.609375 179.027344 278.488281 174.628906 C 278.367188 170.234375 281.355469 171.050781 283.175781 167.402344 C 284.480469 164.78125 289.171875 162.257812 291.71875 159.714844 C 294.261719 157.171875 294.667969 152.117188 297.410156 149.449219 C 300.144531 146.777344 300.222656 141.488281 302.117188 138.480469 C 304.007812 135.480469 307.71875 134.757812 307.71875 131.203125 C 307.71875 128.710938 304.871094 123.53125 304.242188 120.703125 C 303.285156 116.402344 304.160156 114.273438 302.070312 109.441406 C 300.074219 104.8125 295.140625 102.515625 292.46875 97.667969 C 290.515625 94.140625 290.941406 88.082031 288.804688 84.558594 C 286.566406 80.867188 282.023438 80.144531 279.460938 76.136719 C 277.980469 73.816406 277.101562 70.335938 276.097656 67.015625 C 275.363281 64.601562 269.5625 62.269531 268.417969 60.527344 C 265.703125 56.375 267.382812 53.261719 264.488281 50.417969 C 262.203125 48.167969 260.179688 46.097656 258.933594 43.8125 C 256.414062 39.207031 255.019531 32.632812 250.269531 29.035156 C 245.519531 25.4375 237.40625 24.816406 231.449219 22.109375 C 225.484375 19.398438 221.683594 14.605469 215.539062 12.660156 C 209.398438 10.71875 200.917969 11.632812 195.613281 10.332031 C 187.96875 8.457031 183.273438 4.683594 176.265625 3.832031 C 169.25 2.980469 162.4375 5.054688 155.558594 4.859375 C 148.683594 4.65625 141.75 2.195312 134.507812 2.28125 C 127.261719 2.367188 119.710938 0 111.597656 0 C 100.4375 0 94.433594 8.339844 87.644531 9.886719 C 80.859375 11.441406 73.292969 8.710938 69.019531 11.597656 C 64.753906 14.488281 61.273438 22.996094 57.660156 27.011719 C 54.042969 31.023438 50.296875 28.03125 45.476562 32.953125 C 43.773438 34.6875 44.097656 41.808594 41.679688 44.140625 C 39.261719 46.472656 34.117188 46.515625 31.480469 49.113281 C 28.847656 51.703125 28.730469 56.851562 26.371094 59.378906 C 24.011719 61.902344 19.414062 61.8125 17.832031 63.941406 C 15.847656 66.601562 15.988281 71.664062 13.652344 74.304688 C 11.308594 76.949219 6.484375 77.167969 4.574219 80.15625 C 2.667969 83.136719 1.175781 86.382812 0.496094 90.0625 C -0.1875 93.75 -0.0546875 97.867188 1.28125 102.605469 Z M 1.28125 102.605469 "/>
</g>
</svg>
