<?xml version="1.0" encoding="UTF-8"?>
<svg xmlns="http://www.w3.org/2000/svg" xmlns:xlink="http://www.w3.org/1999/xlink" width="308pt" height="244pt" viewBox="0 0 308 244" version="1.1">
<g id="surface51">
<path style=" stroke:none;fill-rule:nonzero;fill:rgb(70.19608%,70.19608%,70.19608%);fill-opacity:1;" d="M 306.53125 102.605469 C 304.742188 108.929688 303.523438 115.265625 302.386719 121.613281 C 301.246094 127.957031 300.191406 134.3125 298.714844 140.675781 C 297.242188 147.039062 295.359375 153.417969 292.570312 159.800781 C 289.785156 166.179688 286.09375 172.574219 281.003906 178.976562 C 279.648438 170.804688 278.5625 164.988281 277.5625 160.632812 C 276.566406 156.277344 275.664062 153.390625 274.65625 151.0625 C 273.648438 148.742188 272.542969 146.988281 271.152344 144.898438 C 269.753906 142.816406 268.074219 140.402344 265.917969 136.765625 C 262.960938 131.789062 259.328125 125.585938 255.171875 122.796875 C 251.023438 120.003906 246.351562 120.625 241.3125 119.292969 C 236.273438 117.953125 230.871094 114.660156 225.261719 114.039062 C 219.648438 113.421875 213.832031 115.480469 207.957031 114.84375 C 203.890625 114.40625 200.140625 113.671875 196.558594 112.8125 C 192.972656 111.949219 189.550781 108.464844 186.136719 107.535156 C 182.722656 106.609375 179.320312 108.230469 175.777344 107.582031 C 172.226562 106.929688 168.535156 104 164.546875 103.972656 C 160.128906 103.945312 155.457031 106.84375 150.882812 107.5625 C 146.308594 108.285156 141.824219 106.824219 137.800781 108.085938 C 133.78125 109.351562 130.207031 113.332031 127.441406 114.9375 C 124.679688 116.539062 122.722656 118.261719 121.929688 120 C 129.410156 116.113281 136.457031 111.066406 143.273438 109.554688 C 146.398438 108.867188 149.480469 110.894531 152.527344 110.605469 C 156.121094 110.269531 159.671875 107.691406 163.207031 107.835938 C 166.703125 107.972656 170.1875 110.820312 173.6875 111.328125 C 176.742188 111.773438 179.8125 109.839844 182.917969 110.5 C 189.574219 111.917969 196.390625 116.261719 203.558594 118.226562 C 207.289062 119.253906 211.484375 119.9375 215.886719 120.527344 C 220.285156 121.125 224.886719 119.125 229.433594 119.785156 C 233.976562 120.445312 238.460938 123.769531 242.621094 124.996094 C 246.78125 126.21875 250.613281 125.347656 253.863281 127.636719 C 259.414062 131.546875 263.992188 140.519531 267.515625 148.121094 C 271.039062 155.714844 273.515625 164.441406 274.886719 172.863281 C 276.253906 181.28125 276.511719 189.394531 275.597656 195.765625 C 274.683594 202.136719 272.601562 206.769531 269.285156 208.230469 C 262.765625 213.128906 257.011719 216.265625 251.621094 218.5 C 246.230469 220.738281 241.207031 222.074219 236.15625 223.367188 C 231.101562 224.660156 226.023438 225.90625 220.519531 227.964844 C 215.015625 230.027344 209.085938 232.894531 202.339844 237.4375 C 198.035156 240.335938 190.796875 242.152344 182.082031 243.121094 C 173.367188 244.089844 163.175781 244.214844 152.96875 243.730469 C 142.757812 243.242188 132.527344 242.152344 123.734375 240.691406 C 114.941406 239.230469 107.585938 237.398438 103.117188 235.433594 C 97.660156 233.03125 91.109375 231.265625 84.140625 229.773438 C 77.171875 228.277344 69.789062 227.039062 62.667969 225.691406 C 55.539062 224.335938 48.675781 222.871094 42.75 220.90625 C 36.824219 218.945312 34.335938 213.984375 30.953125 210.644531 C 28.324219 208.054688 27.230469 204.652344 26.945312 200.78125 C 26.664062 196.910156 24.691406 192.570312 25.328125 188.097656 C 25.964844 183.625 29.199219 179.027344 29.320312 174.628906 C 29.445312 170.234375 26.453125 171.050781 24.632812 167.402344 C 23.328125 164.78125 18.636719 162.257812 16.089844 159.714844 C 13.546875 157.171875 13.144531 152.117188 10.402344 149.449219 C 7.664062 146.777344 7.585938 141.488281 5.695312 138.480469 C 3.800781 135.480469 0.09375 134.757812 0.09375 131.203125 C 0.09375 128.710938 2.9375 123.53125 3.566406 120.703125 C 4.527344 116.402344 3.652344 114.273438 5.738281 109.441406 C 7.738281 104.8125 12.667969 102.515625 15.34375 97.667969 C 17.292969 94.140625 16.867188 88.082031 19.003906 84.558594 C 21.242188 80.867188 25.789062 80.144531 28.347656 76.136719 C 29.832031 73.816406 30.710938 70.335938 31.710938 67.015625 C 32.445312 64.601562 38.246094 62.269531 39.390625 60.527344 C 42.109375 56.375 40.425781 53.261719 43.320312 50.417969 C 45.609375 48.167969 47.632812 46.097656 48.878906 43.8125 C 51.394531 39.207031 52.789062 32.632812 57.539062 29.035156 C 62.289062 25.4375 70.402344 24.816406 76.363281 22.109375 C 82.324219 19.398438 86.128906 14.605469 92.273438 12.660156 C 98.410156 10.71875 106.890625 11.632812 112.195312 10.332031 C 119.839844 8.457031 124.535156 4.683594 131.546875 3.832031 C 138.558594 2.980469 145.375 5.054688 152.25 4.859375 C 159.128906 4.65625 166.058594 2.195312 173.300781 2.28125 C 180.546875 2.367188 188.097656 0 196.210938 0 C 207.371094 0 213.378906 8.339844 220.167969 9.886719 C 226.949219 11.441406 234.515625 8.710938 238.789062 11.597656 C 243.054688 14.488281 246.535156 22.996094 250.148438 27.011719 C 253.765625 31.023438 257.515625 28.03125 262.332031 32.953125 C 264.035156 34.6875 263.710938 41.808594 266.132812 44.140625 C 268.546875 46.472656 273.691406 46.515625 276.328125 49.113281 C 278.960938 51.703125 279.078125 56.851562 281.441406 59.378906 C 283.796875 61.902344 288.394531 61.8125 289.980469 63.941406 C 291.964844 66.601562 291.820312 71.664062 294.160156 74.304688 C 296.5 76.949219 301.324219 77.167969 303.234375 80.15625 C 305.140625 83.136719 306.632812 86.382812 307.3125 90.0625 C 307.996094 93.75 307.863281 97.867188 306.53125 102.605469 Z M 306.53125 102.605469 "/>
</g>
</svg>
