<?xml version="1.0" encoding="UTF-8"?>
<!-- Created by grConvert v0.1-0 -->
<svg xmlns="http://www.w3.org/2000/svg" xmlns:xlink="http://www.w3.org/1999/xlink" width="246pt" height="195pt" viewBox="0 0 246 195" version="1.1">
<g id="surface5">
<path style=" stroke:none;fill-rule:nonzero;fill:rgb(70.196078%,70.196078%,70.196078%);fill-opacity:1;" d="M 0.949219 82 C 2.378906 87.054688 3.351562 92.117188 4.261719 97.191406 C 5.171875 102.261719 6.015625 107.339844 7.195312 112.425781 C 8.371094 117.511719 9.875 122.609375 12.105469 127.710938 C 14.332031 132.808594 17.28125 137.917969 21.347656 143.035156 C 22.433594 136.503906 23.300781 131.855469 24.097656 128.375 C 24.894531 124.894531 25.617188 122.585938 26.421875 120.726562 C 27.226562 118.871094 28.109375 117.46875 29.222656 115.800781 C 30.339844 114.136719 31.683594 112.207031 33.40625 109.300781 C 35.769531 105.324219 38.671875 100.367188 41.992188 98.136719 C 45.308594 95.90625 49.042969 96.402344 53.070312 95.335938 C 57.097656 94.265625 61.414062 91.632812 65.898438 91.136719 C 70.382812 90.644531 75.03125 92.289062 79.726562 91.78125 C 82.976562 91.429688 85.972656 90.84375 88.835938 90.15625 C 91.703125 89.46875 94.4375 86.683594 97.164062 85.941406 C 99.894531 85.199219 102.613281 86.496094 105.445312 85.976562 C 108.28125 85.457031 111.230469 83.113281 114.417969 83.09375 C 117.949219 83.070312 121.683594 85.386719 125.339844 85.960938 C 128.996094 86.539062 132.578125 85.371094 135.792969 86.378906 C 139.007812 87.390625 141.863281 90.574219 144.074219 91.855469 C 146.28125 93.136719 147.84375 94.511719 148.476562 95.902344 C 142.5 92.796875 136.867188 88.761719 131.421875 87.554688 C 128.921875 87.003906 126.460938 88.625 124.023438 88.394531 C 121.152344 88.125 118.316406 86.066406 115.488281 86.179688 C 112.695312 86.289062 109.910156 88.566406 107.113281 88.972656 C 104.671875 89.328125 102.21875 87.78125 99.738281 88.308594 C 94.417969 89.441406 88.96875 92.914062 83.242188 94.484375 C 80.261719 95.304688 76.90625 95.851562 73.390625 96.324219 C 69.875 96.800781 66.195312 95.203125 62.5625 95.730469 C 58.933594 96.257812 55.347656 98.914062 52.023438 99.894531 C 48.699219 100.871094 45.636719 100.175781 43.039062 102.003906 C 38.601562 105.128906 34.945312 112.300781 32.128906 118.375 C 29.3125 124.445312 27.332031 131.417969 26.238281 138.148438 C 25.144531 144.875 24.9375 151.359375 25.667969 156.453125 C 26.398438 161.542969 28.0625 165.246094 30.714844 166.414062 C 35.925781 170.328125 40.523438 172.835938 44.832031 174.621094 C 49.140625 176.410156 53.152344 177.476562 57.191406 178.511719 C 61.230469 179.542969 65.289062 180.539062 69.6875 182.183594 C 74.085938 183.832031 78.824219 186.125 84.214844 189.753906 C 87.65625 192.070312 93.441406 193.523438 100.40625 194.296875 C 107.371094 195.070312 115.515625 195.171875 123.671875 194.785156 C 131.832031 194.394531 140.007812 193.523438 147.035156 192.355469 C 154.0625 191.1875 159.941406 189.722656 163.511719 188.152344 C 167.875 186.234375 173.109375 184.824219 178.679688 183.628906 C 184.246094 182.433594 190.148438 181.445312 195.839844 180.367188 C 201.535156 179.285156 207.019531 178.113281 211.757812 176.542969 C 216.492188 174.976562 218.480469 171.011719 221.183594 168.34375 C 223.285156 166.273438 224.160156 163.554688 224.386719 160.460938 C 224.613281 157.367188 226.1875 153.898438 225.679688 150.324219 C 225.171875 146.75 222.585938 143.074219 222.488281 139.558594 C 222.390625 136.046875 224.78125 136.699219 226.234375 133.785156 C 227.277344 131.691406 231.027344 129.671875 233.0625 127.640625 C 235.09375 125.609375 235.417969 121.570312 237.609375 119.4375 C 239.796875 117.300781 239.859375 113.074219 241.371094 110.671875 C 242.882812 108.273438 245.847656 107.695312 245.847656 104.855469 C 245.847656 102.863281 243.574219 98.722656 243.070312 96.464844 C 242.304688 93.027344 243.003906 91.324219 241.335938 87.464844 C 239.738281 83.765625 235.796875 81.929688 233.660156 78.054688 C 232.101562 75.234375 232.441406 70.394531 230.734375 67.578125 C 228.945312 64.628906 225.3125 64.050781 223.265625 60.847656 C 222.082031 58.992188 221.378906 56.210938 220.578125 53.558594 C 219.992188 51.628906 215.355469 49.765625 214.441406 48.371094 C 212.269531 45.054688 213.613281 42.566406 211.300781 40.292969 C 209.472656 38.496094 207.855469 36.839844 206.859375 35.015625 C 204.847656 31.332031 203.734375 26.078125 199.9375 23.203125 C 196.140625 20.328125 189.65625 19.832031 184.894531 17.667969 C 180.128906 15.503906 177.089844 11.671875 172.179688 10.117188 C 167.273438 8.566406 160.496094 9.296875 156.257812 8.257812 C 150.148438 6.757812 146.394531 3.742188 140.792969 3.0625 C 135.1875 2.382812 129.742188 4.039062 124.246094 3.882812 C 118.75 3.722656 113.210938 1.753906 107.421875 1.824219 C 101.632812 1.890625 95.597656 0 89.113281 0 C 80.195312 0 75.394531 6.664062 69.96875 7.902344 C 64.546875 9.144531 58.5 6.960938 55.085938 9.269531 C 51.675781 11.578125 48.894531 18.378906 46.007812 21.585938 C 43.117188 24.792969 40.121094 22.402344 36.269531 26.335938 C 34.910156 27.722656 35.167969 33.414062 33.234375 35.277344 C 31.304688 37.140625 27.191406 37.175781 25.085938 39.25 C 22.980469 41.320312 22.886719 45.433594 21 47.453125 C 19.117188 49.472656 15.441406 49.398438 14.175781 51.101562 C 12.589844 53.226562 12.703125 57.273438 10.835938 59.382812 C 8.964844 61.496094 5.109375 61.671875 3.582031 64.058594 C 2.058594 66.441406 0.867188 69.035156 0.324219 71.976562 C -0.222656 74.921875 -0.117188 78.214844 0.949219 82 Z M 0.949219 82 "/>
</g>
</svg>
