<?xml version="1.0" encoding="UTF-8"?>
<!-- Created by grConvert v0.1-0 -->
<svg xmlns="http://www.w3.org/2000/svg" xmlns:xlink="http://www.w3.org/1999/xlink" width="529pt" height="483pt" viewBox="0 0 529 483" version="1.1">
<g id="surface1">
<path style=" stroke:none;fill-rule:nonzero;fill:rgb(70.196078%,70.196078%,70.196078%);fill-opacity:1;" d="M 324.351562 138.5 C 326.136719 117.472656 337.648438 96.375 337.886719 76 C 338.136719 53.835938 332.5 34.3125 325.386719 13.5 C 323.300781 7.398438 321.050781 -0.9375 312.898438 0.0859375 C 310.335938 0.398438 308.210938 1.535156 306.863281 3.785156 C 303.699219 9 307.789062 17.011719 309.550781 22.25 C 312.8125 31.9375 318.6875 52.472656 319.136719 62.25 C 309.273438 60.921875 301.5625 58.710938 292.886719 53.648438 C 288.289062 50.972656 282.011719 44.761719 277.886719 43.910156 C 270.675781 42.421875 262.710938 50.222656 270.738281 59.636719 C 278.085938 68.285156 290.863281 74.023438 301.636719 77.0625 C 305.363281 78.097656 317.1875 79.460938 318.75 82.636719 C 320.175781 85.546875 318 91.785156 317.050781 94.75 C 317.050781 94.75 308.414062 123.5 308.414062 123.5 C 305.414062 137.125 305.050781 142.234375 306.863281 156 C 307.476562 160.625 311.238281 169.699219 309.949219 173.5 C 308.613281 177.5 296.863281 188.046875 293.261719 192.25 C 284.023438 203.046875 279.3125 212.546875 275.386719 226 C 275.386719 226 217.886719 187.25 217.886719 187.25 C 225.25 173.25 230.363281 155.660156 230.386719 139.75 C 230.398438 135.5625 229.664062 128.5625 232.386719 125.261719 C 234.976562 122.125 256.9375 112.710938 259.5625 103.5 C 260.976562 98.5625 256.574219 94.222656 251.636719 95.5625 C 248.976562 96.285156 245.199219 99.597656 242.886719 101.324219 C 238.074219 104.886719 234.773438 107.5625 229.136719 109.75 C 228.273438 103.386719 226.199219 91.109375 222.074219 86.285156 C 217.074219 80.421875 209.925781 82.5625 207.5625 88.546875 C 205.835938 92.921875 208.4375 103.410156 209.039062 108.5 C 209.039062 108.5 209.039062 119.75 209.039062 119.75 C 209.125 131.125 206.476562 145.234375 202.789062 156 C 202.789062 156 197.886719 169.75 197.886719 169.75 C 190.886719 166.4375 185.800781 160.160156 180.386719 154.75 C 166.875 141.210938 155.335938 125.910156 145.148438 109.75 C 142.085938 104.898438 135.375 89.035156 132.550781 86.699219 C 126.488281 81.710938 116.476562 85.4375 118.5625 96 C 120.824219 107.410156 133.25 130.222656 140.386719 139.75 C 123.699219 138.347656 110.324219 129.3125 106.636719 128.335938 C 102.664062 127.285156 98.726562 129.347656 97.835938 133.523438 C 96.4375 140.160156 106.800781 144.546875 111.636719 146.398438 C 121.601562 150.199219 125.0625 151.199219 135.386719 153.648438 C 146.710938 156.324219 149.886719 154.199219 157.886719 163.472656 C 186.113281 196.222656 198.824219 205.085938 231.636719 231.761719 C 231.636719 231.761719 259.136719 254.410156 259.136719 254.410156 C 262.1875 257.011719 268.488281 261.761719 270.414062 264.960938 C 272.925781 269.136719 273.039062 279.421875 273.800781 284.75 C 275.199219 294.535156 277.539062 305.285156 280.414062 314.75 C 281.4375 318.097656 284.636719 326.949219 283.511719 330.085938 C 282.414062 333.109375 273.074219 341.984375 270.398438 344.75 C 267.011719 348.25 261.824219 356.234375 256.636719 355.335938 C 253.738281 354.847656 241.148438 346.984375 237.886719 344.984375 C 237.886719 344.984375 209.136719 326.984375 209.136719 326.984375 C 201.8125 321.875 195.050781 315.523438 186.636719 312.25 C 186.636719 312.25 196.9375 293.5 196.9375 293.5 C 198.199219 290.9375 200.761719 284.699219 202.511719 282.949219 C 204.925781 280.523438 209.636719 279.859375 212.886719 278.8125 C 218.824219 276.910156 226.886719 273.347656 231.449219 269.097656 C 238.113281 262.910156 234.363281 255.773438 229.113281 255.625 C 226.25 255.546875 212.0625 264.023438 207.886719 266 C 208.738281 259.546875 211.8125 246.835938 209.460938 241.046875 C 207.351562 235.859375 201.601562 233.398438 196.773438 236.75 C 191.9375 240.109375 190.398438 250.125 187.5625 256 C 178.488281 274.8125 167.8125 284.324219 164.136719 292.25 C 156.675781 287.898438 150.539062 281.972656 144.148438 276.210938 C 130.261719 263.648438 116.738281 249.875 109.523438 232.25 C 101.460938 212.523438 96.5625 182.109375 86.800781 164.75 C 82.414062 156.949219 72.0625 141.773438 65.375 136.3125 C 60.960938 132.761719 55.175781 131.035156 51.136719 136.3125 C 47.636719 140.824219 50.011719 145.886719 53.175781 149.75 C 60.5625 158.785156 64.449219 160.410156 71 172.25 C 74.699219 178.9375 76.476562 186.398438 79.136719 193.5 C 64.300781 198.3125 50.789062 199.449219 36.636719 191.847656 C 26.164062 186.222656 22.164062 178.109375 15.386719 177.960938 C 9.988281 177.835938 5.175781 183.1875 7.710938 189.75 C 10.238281 196.273438 17.914062 202.085938 24.136719 204.75 C 24.136719 204.75 24.136719 208.5 24.136719 208.5 C 24.136719 208.5 7.886719 214.398438 7.886719 214.398438 C 5.550781 214.949219 1.800781 215.3125 0.601562 217.785156 C -2.988281 225.160156 10.523438 224.722656 14.136719 223.796875 C 25.835938 220.796875 35.363281 212.585938 40.386719 211.5625 C 44.460938 210.734375 50.914062 212.835938 55.386719 213.285156 C 64.648438 214.210938 73.925781 213.375 82.886719 211 C 85.511719 224.035156 88.601562 237.234375 93.113281 249.75 C 94.363281 253.210938 99.636719 261.699219 98.738281 264.335938 C 97.898438 266.796875 93.851562 268.847656 91.636719 269.960938 C 75.898438 277.171875 72.414062 270.335938 64.136719 269.960938 C 58.710938 269.859375 53.648438 274.011719 54.601562 279.75 C 55.511719 285.222656 61.835938 288.824219 66.636719 290.410156 C 78.625 294.375 89.863281 293.273438 101.636719 289.296875 C 105.773438 287.910156 112.5 283.671875 116.425781 285.761719 C 118.273438 286.734375 123.539062 292.835938 125.398438 294.75 C 125.398438 294.75 145.386719 314.636719 145.386719 314.636719 C 145.386719 314.636719 168.613281 335.210938 168.613281 335.210938 C 168.613281 335.210938 210.386719 372 210.386719 372 C 217.5 377.75 230.675781 389.636719 237.886719 393.5 C 233.414062 400.0625 233.488281 402.5625 230.898438 409.75 C 227.085938 420.359375 220.863281 445.0625 220.4375 456 C 219.460938 481.125 244.988281 490.273438 260.164062 477.886719 C 271.085938 468.949219 269 458.4375 269.136719 446 C 269.210938 439.734375 270.3125 434.625 271.324219 428.5 C 276.363281 398.386719 289.386719 371.535156 310.960938 349.648438 C 315.199219 345.347656 324.324219 337.3125 329.136719 333.648438 C 332.199219 331.324219 335.039062 328.511719 339.136719 329.109375 C 341.585938 329.472656 362.050781 336.574219 363.4375 337.949219 C 363.4375 337.949219 375.773438 363.5 375.773438 363.5 C 378.324219 368.097656 383.648438 376.910156 390.101562 373.261719 C 393.960938 371.0625 393.613281 367.074219 392.210938 363.5 C 388.914062 355.046875 382.574219 350.148438 380.386719 338.5 C 386.050781 338.5 403.710938 339.5 407.789062 337.625 C 414.226562 334.609375 414.210938 325.960938 407.789062 322.460938 C 404.5625 320.6875 398.125 321 394.136719 320.472656 C 382.5 318.921875 372 318.648438 361.636719 312.25 C 361.636719 312.25 396.636719 292.398438 396.636719 292.398438 C 406.613281 288.511719 420.976562 288.375 431.636719 288.5 C 442.800781 288.636719 453.300781 292.0625 464.136719 294.097656 C 470.6875 295.335938 477.925781 292.773438 476.226562 284.75 C 474.4375 276.359375 462.386719 275.085938 455.386719 273.335938 C 434.613281 268.160156 411.300781 265.449219 390.386719 271 C 390.75 263.1875 394.050781 246.699219 400.550781 241.898438 C 404.949219 238.660156 417.25 236.671875 422.886719 235.6875 C 425.761719 235.1875 433.550781 233.234375 435.914062 233.671875 C 435.914062 233.671875 450.386719 240.910156 450.386719 240.910156 C 458.9375 244.222656 468.800781 244.761719 477.886719 244.75 C 489.273438 244.734375 511.5625 241.136719 521.613281 236.109375 C 532.9375 230.449219 528.523438 220.484375 521.613281 218.910156 C 517.125 217.886719 503.5625 223.222656 497.886719 224.585938 C 484.425781 227.8125 475.199219 227.785156 461.636719 226 C 461.636719 226 472.824219 217.023438 472.824219 217.023438 C 484.710938 205.761719 475 197.597656 467.886719 199.085938 C 463.550781 200 460.726562 203.773438 455.386719 206.347656 C 450.113281 208.898438 440.074219 211.074219 434.136719 212.398438 C 434.136719 212.398438 404.136719 217.136719 404.136719 217.136719 C 396.9375 218.035156 393.988281 216.734375 386.636719 220.585938 C 373.050781 227.722656 368.199219 248.085938 365.5 262.25 C 364.835938 265.796875 363.289062 276.773438 361.625 279.261719 C 359.3125 282.722656 350.648438 285.625 346.636719 287.574219 C 346.636719 287.574219 314.136719 304.75 314.136719 304.75 C 309.210938 286.484375 301.664062 273.535156 301.636719 253.5 C 301.625 244.796875 301.023438 238.273438 303.425781 229.75 C 309.476562 208.285156 329.835938 190.636719 346.636719 177 C 351.425781 173.125 367.976562 159.324219 372.9375 158.222656 C 376.5 156.984375 386.6875 158.484375 391.636719 158.222656 C 412.125 158.535156 429.039062 159.574219 449.136719 153.859375 C 454.949219 152.210938 464.738281 150.335938 466.226562 143.472656 C 467.550781 137.324219 462.664062 132.6875 456.636719 133.125 C 456.636719 133.125 431.636719 139.472656 431.636719 139.472656 C 415.851562 141.75 398.710938 141.835938 382.886719 139.472656 C 385.238281 129.324219 392.050781 110.335938 397.023438 101 C 399.738281 95.910156 403.949219 89.449219 398.5 84.375 C 390.5 76.9375 383.773438 87.234375 380.523438 93.5 C 380.523438 93.5 360.699219 138.273438 360.699219 138.273438 C 357.539062 142.273438 333.886719 157 327.886719 161 C 326.273438 153.8125 323.726562 145.9375 324.351562 138.5 Z M 309.136719 4.75 C 309.136719 4.75 307.886719 6 307.886719 6 C 307.886719 6 307.886719 4.75 307.886719 4.75 C 307.886719 4.75 309.136719 4.75 309.136719 4.75 Z M 245.386719 103.5 C 245.386719 103.5 244.136719 104.75 244.136719 104.75 C 244.136719 104.75 244.136719 103.5 244.136719 103.5 C 244.136719 103.5 245.386719 103.5 245.386719 103.5 Z M 101.636719 133.5 C 101.636719 133.5 100.386719 134.75 100.386719 134.75 C 100.386719 134.75 100.386719 133.5 100.386719 133.5 C 100.386719 133.5 101.636719 133.5 101.636719 133.5 Z M 59.136719 147.25 C 59.136719 147.25 57.886719 148.5 57.886719 148.5 C 57.886719 148.5 57.886719 147.25 57.886719 147.25 C 57.886719 147.25 59.136719 147.25 59.136719 147.25 Z M 307.886719 183.5 C 307.886719 183.5 306.636719 184.75 306.636719 184.75 C 306.636719 184.75 306.636719 183.5 306.636719 183.5 C 306.636719 183.5 307.886719 183.5 307.886719 183.5 Z M 179.136719 183.5 C 179.136719 183.5 177.886719 184.75 177.886719 184.75 C 177.886719 184.75 177.886719 183.5 177.886719 183.5 C 177.886719 183.5 179.136719 183.5 179.136719 183.5 Z M 182.886719 187.25 C 182.886719 187.25 181.636719 188.5 181.636719 188.5 C 181.636719 188.5 181.636719 187.25 181.636719 187.25 C 181.636719 187.25 182.886719 187.25 182.886719 187.25 Z M 36.636719 208.5 C 36.636719 208.5 35.386719 209.75 35.386719 209.75 C 35.386719 209.75 35.386719 208.5 35.386719 208.5 C 35.386719 208.5 36.636719 208.5 36.636719 208.5 Z M 462.886719 217.25 C 462.886719 217.25 461.636719 218.5 461.636719 218.5 C 461.636719 218.5 461.636719 217.25 461.636719 217.25 C 461.636719 217.25 462.886719 217.25 462.886719 217.25 Z M 139.136719 273.5 C 139.136719 273.5 137.886719 274.75 137.886719 274.75 C 137.886719 274.75 137.886719 273.5 137.886719 273.5 C 137.886719 273.5 139.136719 273.5 139.136719 273.5 Z M 167.886719 293.5 C 167.886719 293.5 166.636719 294.75 166.636719 294.75 C 166.636719 294.75 166.636719 293.5 166.636719 293.5 C 166.636719 293.5 167.886719 293.5 167.886719 293.5 Z M 285.386719 333.5 C 285.386719 333.5 284.136719 334.75 284.136719 334.75 C 284.136719 334.75 284.136719 333.5 284.136719 333.5 C 284.136719 333.5 285.386719 333.5 285.386719 333.5 Z M 284.136719 334.75 C 284.136719 334.75 282.886719 336 282.886719 336 C 282.886719 336 282.886719 334.75 282.886719 334.75 C 282.886719 334.75 284.136719 334.75 284.136719 334.75 Z M 385.386719 371 C 385.386719 371 384.136719 372.25 384.136719 372.25 C 384.136719 372.25 384.136719 371 384.136719 371 C 384.136719 371 385.386719 371 385.386719 371 Z M 227.886719 378.5 C 227.886719 378.5 226.636719 379.75 226.636719 379.75 C 226.636719 379.75 226.636719 378.5 226.636719 378.5 C 226.636719 378.5 227.886719 378.5 227.886719 378.5 Z M 227.886719 378.5 "/>
</g>
</svg>
