<?xml version="1.0" encoding="UTF-8" standalone="no"?>
<svg
   xmlns:dc="http://purl.org/dc/elements/1.1/"
   xmlns:cc="http://creativecommons.org/ns#"
   xmlns:rdf="http://www.w3.org/1999/02/22-rdf-syntax-ns#"
   xmlns:svg="http://www.w3.org/2000/svg"
   xmlns="http://www.w3.org/2000/svg"
   xmlns:sodipodi="http://sodipodi.sourceforge.net/DTD/sodipodi-0.dtd"
   xmlns:inkscape="http://www.inkscape.org/namespaces/inkscape"
   width="529pt"
   height="483pt"
   viewBox="0 0 529 483"
   version="1.1"
   id="svg5"
   sodipodi:docname="branch_coral.l.r.svg"
   inkscape:version="1.0.2 (e86c870879, 2021-01-15)">
  <metadata
     id="metadata11">
    <rdf:RDF>
      <cc:Work
         rdf:about="">
        <dc:format>image/svg+xml</dc:format>
        <dc:type
           rdf:resource="http://purl.org/dc/dcmitype/StillImage" />
        <dc:title></dc:title>
      </cc:Work>
    </rdf:RDF>
  </metadata>
  <defs
     id="defs9" />
  <sodipodi:namedview
     pagecolor="#ffffff"
     bordercolor="#666666"
     borderopacity="1"
     objecttolerance="10"
     gridtolerance="10"
     guidetolerance="10"
     inkscape:pageopacity="0"
     inkscape:pageshadow="2"
     inkscape:window-width="817"
     inkscape:window-height="490"
     id="namedview7"
     showgrid="false"
     inkscape:zoom="1.0031056"
     inkscape:cx="352.66667"
     inkscape:cy="322"
     inkscape:window-x="34"
     inkscape:window-y="29"
     inkscape:window-maximized="0"
     inkscape:current-layer="svg5" />
  <g
     id="surface1"
     transform="matrix(-1,0,0,1,528.54909,0)">
    <path
       style="fill:#b3b3b3;fill-opacity:1;fill-rule:nonzero;stroke:none"
       d="m 324.35156,138.5 c 1.78516,-21.02734 13.29688,-42.125 13.53516,-62.5 0.25,-22.164062 -5.38672,-41.6875 -12.5,-62.5 C 323.30078,7.398438 321.05078,-0.9375 312.89844,0.0859375 310.33594,0.398438 308.21094,1.535156 306.86328,3.785156 303.69922,9 307.78906,17.011719 309.55078,22.25 c 3.26172,9.6875 9.13672,30.222656 9.58594,40 -9.86328,-1.328125 -17.57422,-3.539062 -26.25,-8.601562 -4.59766,-2.675782 -10.875,-8.886719 -15,-9.738282 -7.21094,-1.488281 -15.17578,6.3125 -7.14844,15.726563 7.34766,8.648437 20.125,14.386719 30.89844,17.425781 3.72656,1.035156 15.55078,2.398438 17.11328,5.574219 1.42578,2.910156 -0.75,9.148437 -1.69922,12.113281 0,0 -8.63672,28.75 -8.63672,28.75 -3,13.625 -3.36328,18.73437 -1.55078,32.5 0.61328,4.625 4.375,13.69922 3.08594,17.5 -1.33594,4 -13.08594,14.54687 -16.6875,18.75 -9.23828,10.79687 -13.94922,20.29687 -17.875,33.75 0,0 -57.5,-38.75 -57.5,-38.75 7.36328,-14 12.47656,-31.58984 12.5,-47.5 0.0117,-4.1875 -0.72266,-11.1875 2,-14.48828 2.58984,-3.13672 24.55078,-12.55078 27.17578,-21.76172 1.41406,-4.9375 -2.98828,-9.277344 -7.92578,-7.9375 -2.66016,0.722656 -6.4375,4.035156 -8.75,5.76172 -4.8125,3.5625 -8.11328,6.23828 -13.75,8.42578 -0.86328,-6.36328 -2.9375,-18.640625 -7.0625,-23.464844 -5,-5.863281 -12.14844,-3.722656 -14.51172,2.261719 -1.72656,4.375 0.875,14.863285 1.47656,19.953125 0,0 0,11.25 0,11.25 0.0859,11.375 -2.5625,25.48437 -6.25,36.25 0,0 -4.90234,13.75 -4.90234,13.75 -7,-3.3125 -12.08594,-9.58984 -17.5,-15 -13.51172,-13.53906 -25.05078,-28.83984 -35.23828,-45 C 142.08594,104.89844 135.375,89.035156 132.55078,86.699219 126.48828,81.710938 116.47656,85.4375 118.5625,96 c 2.26172,11.41016 14.6875,34.22266 21.82422,43.75 -16.6875,-1.40234 -30.0625,-10.4375 -33.75,-11.41406 -3.97266,-1.05078 -7.910158,1.01172 -8.800782,5.1875 -1.398438,6.63672 8.964842,11.02343 13.800782,12.875 9.96484,3.80078 13.42578,4.80078 23.75,7.25 11.32422,2.67578 14.5,0.55078 22.5,9.82422 28.22656,32.75 40.9375,41.61328 73.75,68.28906 0,0 27.5,22.64844 27.5,22.64844 3.05078,2.60156 9.35156,7.35156 11.27734,10.55078 2.51172,4.17578 2.625,14.46093 3.38672,19.78906 1.39844,9.78516 3.73828,20.53516 6.61328,30 1.02344,3.34766 4.22266,12.19922 3.09766,15.33594 -1.09766,3.02343 -10.4375,11.89843 -13.11328,14.66406 -3.38672,3.5 -8.57422,11.48437 -13.76172,10.58594 -2.89844,-0.48828 -15.48828,-8.35157 -18.75,-10.35157 0,0 -28.75,-18 -28.75,-18 -7.32422,-5.10937 -14.08594,-11.46093 -22.5,-14.73437 0,0 10.30078,-18.75 10.30078,-18.75 1.26172,-2.5625 3.82422,-8.80078 5.57422,-10.55078 2.41406,-2.42578 7.125,-3.08985 10.375,-4.13672 5.9375,-1.90234 14,-5.46484 18.5625,-9.71484 6.66406,-6.1875 2.91406,-13.32422 -2.33594,-13.47266 -2.86328,-0.0781 -17.05078,8.39844 -21.22656,10.375 0.85156,-6.45313 3.92578,-19.16406 1.57422,-24.95313 -2.10938,-5.1875 -7.85938,-7.64843 -12.6875,-4.29687 -4.83594,3.35937 -6.375,13.375 -9.21094,19.25 -9.07422,18.8125 -19.75,28.32422 -23.42578,36.25 -7.46094,-4.35156 -13.59766,-10.27734 -19.98828,-16.03906 C 130.26172,263.64844 116.73828,249.875 109.52344,232.25 101.46094,212.52344 96.5625,182.10937 86.800781,164.75 82.414062,156.94922 72.0625,141.77344 65.375,136.3125 c -4.414062,-3.55078 -10.199219,-5.27734 -14.238281,0 -3.5,4.51172 -1.125,9.57422 2.039062,13.4375 7.386719,9.03516 11.273438,10.66016 17.824219,22.5 3.699219,6.6875 5.476562,14.14844 8.136719,21.25 -14.835938,4.8125 -28.347657,5.94922 -42.5,-1.65234 -10.472657,-5.625 -14.472657,-13.73829 -21.25,-13.88672 -5.398438,-0.125 -10.210938,5.22656 -7.675781,11.78906 2.527343,6.52344 10.203124,12.33594 16.425781,15 0,0 0,3.75 0,3.75 0,0 -16.25,5.89844 -16.25,5.89844 -2.335938,0.55078 -6.085938,0.91406 -7.285157,3.38672 -3.589843,7.375 9.921876,6.9375 13.535157,6.01171 11.699219,-3 21.226562,-11.21093 26.25,-12.23437 4.074219,-0.82813 10.527343,1.27344 15,1.72266 9.261719,0.92578 18.539062,0.0898 27.5,-2.28516 2.625,13.03516 5.714843,26.23437 10.226562,38.75 1.25,3.46094 6.523438,11.94922 5.625,14.58594 -0.839843,2.46093 -4.886719,4.51172 -7.101562,5.625 -15.738281,7.21093 -19.222657,0.375 -27.5,0 -5.425781,-0.10157 -10.488281,4.05078 -9.535157,9.78906 0.910157,5.47266 7.234376,9.07422 12.035157,10.66016 11.988281,3.96484 23.226562,2.86328 35.000001,-1.11329 4.13672,-1.38671 10.86328,-5.625 14.78906,-3.53515 1.84766,0.97265 7.11328,7.07422 8.97266,8.98828 0,0 19.98828,19.88672 19.98828,19.88672 0,0 23.22656,20.57422 23.22656,20.57422 0,0 41.77344,36.78906 41.77344,36.78906 7.11328,5.75 20.28906,17.63672 27.5,21.5 -4.47266,6.5625 -4.39844,9.0625 -6.98828,16.25 -3.8125,10.60937 -10.03516,35.3125 -10.46094,46.25 -0.97656,25.125 24.55078,34.27344 39.72656,21.88672 C 271.08594,468.94922 269,458.4375 269.13672,446 c 0.0742,-6.26563 1.17578,-11.375 2.1875,-17.5 5.03906,-30.11328 18.0625,-56.96484 39.63672,-78.85156 4.23828,-4.30078 13.36328,-12.33594 18.17578,-16 3.0625,-2.32422 5.90234,-5.13672 10,-4.53907 2.44922,0.36329 22.91406,7.46485 24.30078,8.83985 0,0 12.33594,25.55078 12.33594,25.55078 2.55078,4.59766 7.875,13.41016 14.32812,9.76172 3.85938,-2.19922 3.51172,-6.1875 2.10938,-9.76172 -3.29688,-8.45313 -9.63672,-13.35156 -11.82422,-25 5.66406,0 23.32422,1 27.40234,-0.875 6.4375,-3.01563 6.42188,-11.66406 0,-15.16406 C 404.5625,320.6875 398.125,321 394.13672,320.47266 382.5,318.92187 372,318.64844 361.63672,312.25 c 0,0 35,-19.85156 35,-19.85156 9.97656,-3.88672 24.33984,-4.02344 35,-3.89844 11.16406,0.13672 21.66406,3.5625 32.5,5.59766 6.55078,1.23828 13.78906,-1.32422 12.08984,-9.34766 -1.78906,-8.39063 -13.83984,-9.66406 -20.83984,-11.41406 -20.77344,-5.17578 -44.08594,-7.88672 -65,-2.33594 0.36328,-7.8125 3.66406,-24.30078 10.16406,-29.10156 4.39844,-3.23828 16.69922,-5.22657 22.33594,-6.21094 2.875,-0.5 10.66406,-2.45313 13.02734,-2.01563 0,0 14.47266,7.23829 14.47266,7.23829 8.55078,3.3125 18.41406,3.85156 27.5,3.83984 11.38672,-0.0156 33.67578,-3.61328 43.72656,-8.64063 11.32422,-5.66015 6.91016,-15.625 0,-17.19921 -4.48828,-1.02344 -18.05078,4.3125 -23.72656,5.67578 -13.46094,3.22656 -22.6875,3.19922 -36.25,1.41406 0,0 11.1875,-8.97656 11.1875,-8.97656 11.88672,-11.26172 2.17578,-19.42578 -4.9375,-17.9375 -4.33594,0.91406 -7.16016,4.6875 -12.5,7.26172 -5.27344,2.55078 -15.3125,4.72656 -21.25,6.05078 0,0 -30,4.73828 -30,4.73828 -7.19922,0.89844 -10.14844,-0.40235 -17.5,3.44922 -13.58594,7.13672 -18.4375,27.5 -21.13672,41.66406 -0.66406,3.54687 -2.21094,14.52344 -3.875,17.01172 -2.3125,3.46094 -10.97656,6.36328 -14.98828,8.3125 0,0 -32.5,17.17578 -32.5,17.17578 -4.92578,-18.26563 -12.47266,-31.21484 -12.5,-51.25 -0.0117,-8.70313 -0.61328,-15.22656 1.78906,-23.75 6.05078,-21.46484 26.41016,-39.11328 43.21094,-52.75 4.78906,-3.875 21.33984,-17.67578 26.30078,-18.77734 3.5625,-1.23829 13.75,0.26171 18.69922,0 20.48828,0.3125 37.40234,1.35156 57.5,-4.36329 5.8125,-1.64843 15.60156,-3.52343 17.08984,-10.38671 1.32422,-6.14844 -3.5625,-10.78516 -9.58984,-10.34766 0,0 -25,6.34766 -25,6.34766 -15.78516,2.27734 -32.92578,2.36328 -48.75,0 2.35156,-10.14844 9.16406,-29.13672 14.13672,-38.47266 2.71484,-5.089844 6.92578,-11.550781 1.47656,-16.625 -8,-7.4375 -14.72656,2.859375 -17.97656,9.125 0,0 -19.82422,44.77344 -19.82422,44.77344 -3.16016,4 -26.8125,18.72656 -32.8125,22.72656 -1.61328,-7.1875 -4.16016,-15.0625 -3.53516,-22.5 z M 309.13672,4.75 c 0,0 -1.25,1.25 -1.25,1.25 0,0 0,-1.25 0,-1.25 0,0 1.25,0 1.25,0 z m -63.75,98.75 c 0,0 -1.25,1.25 -1.25,1.25 0,0 0,-1.25 0,-1.25 0,0 1.25,0 1.25,0 z m -143.75,30 c 0,0 -1.25,1.25 -1.25,1.25 0,0 0,-1.25 0,-1.25 0,0 1.25,0 1.25,0 z m -42.500001,13.75 c 0,0 -1.25,1.25 -1.25,1.25 0,0 0,-1.25 0,-1.25 0,0 1.25,0 1.25,0 z M 307.88672,183.5 c 0,0 -1.25,1.25 -1.25,1.25 0,0 0,-1.25 0,-1.25 0,0 1.25,0 1.25,0 z m -128.75,0 c 0,0 -1.25,1.25 -1.25,1.25 0,0 0,-1.25 0,-1.25 0,0 1.25,0 1.25,0 z m 3.75,3.75 c 0,0 -1.25,1.25 -1.25,1.25 0,0 0,-1.25 0,-1.25 0,0 1.25,0 1.25,0 z M 36.636719,208.5 c 0,0 -1.25,1.25 -1.25,1.25 0,0 0,-1.25 0,-1.25 0,0 1.25,0 1.25,0 z m 426.250001,8.75 c 0,0 -1.25,1.25 -1.25,1.25 0,0 0,-1.25 0,-1.25 0,0 1.25,0 1.25,0 z m -323.75,56.25 c 0,0 -1.25,1.25 -1.25,1.25 0,0 0,-1.25 0,-1.25 0,0 1.25,0 1.25,0 z m 28.75,20 c 0,0 -1.25,1.25 -1.25,1.25 0,0 0,-1.25 0,-1.25 0,0 1.25,0 1.25,0 z m 117.5,40 c 0,0 -1.25,1.25 -1.25,1.25 0,0 0,-1.25 0,-1.25 0,0 1.25,0 1.25,0 z m -1.25,1.25 c 0,0 -1.25,1.25 -1.25,1.25 0,0 0,-1.25 0,-1.25 0,0 1.25,0 1.25,0 z m 101.25,36.25 c 0,0 -1.25,1.25 -1.25,1.25 0,0 0,-1.25 0,-1.25 0,0 1.25,0 1.25,0 z m -157.5,7.5 c 0,0 -1.25,1.25 -1.25,1.25 0,0 0,-1.25 0,-1.25 0,0 1.25,0 1.25,0 z m 0,0"
       id="path2" />
  </g>
</svg>
