<?xml version="1.0" encoding="UTF-8"?>
<svg xmlns="http://www.w3.org/2000/svg" xmlns:xlink="http://www.w3.org/1999/xlink" width="661pt" height="604pt" viewBox="0 0 661 604" version="1.1">
<g id="surface31">
<path style=" stroke:none;fill-rule:nonzero;fill:rgb(70.19608%,70.19608%,70.19608%);fill-opacity:1;" d="M 255.148438 173.296875 C 252.917969 147.023438 238.535156 120.664062 238.238281 95.203125 C 237.925781 67.507812 244.96875 43.113281 253.855469 17.109375 C 256.464844 9.484375 259.273438 -0.933594 269.460938 0.347656 C 272.664062 0.738281 275.320312 2.15625 277.003906 4.96875 C 280.957031 11.484375 275.84375 21.496094 273.644531 28.042969 C 269.570312 40.144531 262.226562 65.804688 261.667969 78.023438 C 273.992188 76.363281 283.625 73.601562 294.464844 67.273438 C 300.210938 63.929688 308.054688 56.171875 313.210938 55.105469 C 322.21875 53.246094 332.171875 62.992188 322.140625 74.757812 C 312.960938 85.5625 296.996094 92.734375 283.535156 96.53125 C 278.875 97.824219 264.101562 99.527344 262.148438 103.496094 C 260.367188 107.132812 263.085938 114.925781 264.273438 118.632812 C 264.273438 118.632812 275.066406 154.554688 275.066406 154.554688 C 278.8125 171.582031 279.265625 177.964844 277.003906 195.164062 C 276.234375 200.945312 271.535156 212.28125 273.148438 217.03125 C 274.816406 222.03125 289.496094 235.207031 293.996094 240.460938 C 305.542969 253.953125 311.429688 265.824219 316.332031 282.632812 C 316.332031 282.632812 388.179688 234.214844 388.179688 234.214844 C 378.980469 216.71875 372.589844 194.742188 372.5625 174.859375 C 372.546875 169.628906 373.464844 160.882812 370.0625 156.757812 C 366.828125 152.835938 339.386719 141.074219 336.105469 129.566406 C 334.339844 123.394531 339.839844 117.972656 346.007812 119.648438 C 349.332031 120.550781 354.054688 124.6875 356.941406 126.847656 C 362.957031 131.296875 367.082031 134.640625 374.125 137.375 C 375.203125 129.421875 377.792969 114.082031 382.949219 108.054688 C 389.195312 100.726562 398.128906 103.402344 401.082031 110.882812 C 403.238281 116.347656 399.988281 129.453125 399.238281 135.8125 C 399.238281 135.8125 399.238281 149.871094 399.238281 149.871094 C 399.128906 164.082031 402.4375 181.714844 407.046875 195.164062 C 407.046875 195.164062 413.171875 212.347656 413.171875 212.347656 C 421.917969 208.207031 428.273438 200.363281 435.039062 193.601562 C 451.921875 176.6875 466.339844 157.566406 479.070312 137.375 C 482.894531 131.3125 491.28125 111.492188 494.8125 108.570312 C 502.386719 102.339844 514.894531 106.996094 512.289062 120.195312 C 509.464844 134.449219 493.9375 162.957031 485.019531 174.859375 C 505.871094 173.109375 522.582031 161.820312 527.191406 160.597656 C 532.15625 159.285156 537.074219 161.863281 538.1875 167.082031 C 539.933594 175.375 526.984375 180.855469 520.945312 183.167969 C 508.492188 187.917969 504.167969 189.167969 491.265625 192.226562 C 477.117188 195.570312 473.148438 192.914062 463.152344 204.503906 C 427.882812 245.425781 412 256.5 371 289.832031 C 371 289.832031 336.636719 318.132812 336.636719 318.132812 C 332.824219 321.382812 324.953125 327.316406 322.546875 331.316406 C 319.410156 336.53125 319.265625 349.382812 318.316406 356.042969 C 316.566406 368.269531 313.644531 381.703125 310.050781 393.527344 C 308.773438 397.710938 304.773438 408.769531 306.179688 412.691406 C 307.550781 416.46875 319.222656 427.558594 322.566406 431.015625 C 326.796875 435.386719 333.28125 445.363281 339.761719 444.242188 C 343.382812 443.632812 359.113281 433.804688 363.191406 431.304688 C 363.191406 431.304688 399.113281 408.816406 399.113281 408.816406 C 408.265625 402.429688 416.714844 394.496094 427.230469 390.402344 C 427.230469 390.402344 414.359375 366.976562 414.359375 366.976562 C 412.78125 363.773438 409.578125 355.980469 407.394531 353.792969 C 404.375 350.761719 398.488281 349.929688 394.429688 348.621094 C 387.007812 346.246094 376.933594 341.792969 371.234375 336.484375 C 362.90625 328.753906 367.59375 319.835938 374.152344 319.648438 C 377.730469 319.550781 395.457031 330.144531 400.675781 332.613281 C 399.613281 324.550781 395.769531 308.667969 398.710938 301.433594 C 401.34375 294.953125 408.53125 291.875 414.5625 296.066406 C 420.605469 300.261719 422.527344 312.777344 426.070312 320.117188 C 437.410156 343.625 450.75 355.511719 455.34375 365.414062 C 464.664062 359.976562 472.332031 352.570312 480.320312 345.371094 C 497.671875 329.675781 514.570312 312.464844 523.585938 290.441406 C 533.660156 265.792969 539.777344 227.789062 551.976562 206.097656 C 557.457031 196.351562 570.390625 177.390625 578.75 170.566406 C 584.265625 166.128906 591.492188 163.972656 596.539062 170.566406 C 600.914062 176.203125 597.945312 182.527344 593.992188 187.355469 C 584.761719 198.644531 579.90625 200.675781 571.71875 215.46875 C 567.097656 223.828125 564.878906 233.148438 561.554688 242.023438 C 580.089844 248.035156 596.972656 249.457031 614.65625 239.957031 C 627.742188 232.929688 632.742188 222.792969 641.210938 222.605469 C 647.957031 222.449219 653.96875 229.136719 650.800781 237.335938 C 647.644531 245.488281 638.050781 252.75 630.277344 256.078125 C 630.277344 256.078125 630.277344 260.765625 630.277344 260.765625 C 630.277344 260.765625 650.582031 268.136719 650.582031 268.136719 C 653.5 268.824219 658.1875 269.277344 659.683594 272.367188 C 664.171875 281.582031 647.289062 281.035156 642.773438 279.878906 C 628.152344 276.132812 616.25 265.871094 609.972656 264.59375 C 604.882812 263.558594 596.816406 266.183594 591.230469 266.746094 C 579.65625 267.902344 568.0625 266.855469 556.867188 263.890625 C 553.585938 280.175781 549.726562 296.671875 544.089844 312.308594 C 542.527344 316.632812 535.9375 327.238281 537.058594 330.535156 C 538.109375 333.609375 543.167969 336.171875 545.933594 337.5625 C 565.597656 346.574219 569.953125 338.03125 580.296875 337.5625 C 587.074219 337.4375 593.402344 342.625 592.210938 349.792969 C 591.074219 356.632812 583.171875 361.132812 577.171875 363.113281 C 562.191406 368.070312 548.148438 366.691406 533.4375 361.722656 C 528.269531 359.992188 519.863281 354.695312 514.960938 357.304688 C 512.652344 358.523438 506.070312 366.144531 503.746094 368.539062 C 503.746094 368.539062 478.773438 393.386719 478.773438 393.386719 C 478.773438 393.386719 449.75 419.09375 449.75 419.09375 C 449.75 419.09375 397.550781 465.0625 397.550781 465.0625 C 388.664062 472.25 372.199219 487.101562 363.191406 491.929688 C 368.777344 500.128906 368.6875 503.253906 371.921875 512.234375 C 376.6875 525.488281 384.460938 556.355469 384.992188 570.023438 C 386.214844 601.417969 354.316406 612.847656 335.355469 597.371094 C 321.707031 586.203125 324.3125 573.070312 324.144531 557.527344 C 324.050781 549.699219 322.671875 543.316406 321.410156 535.660156 C 315.113281 498.035156 298.839844 464.484375 271.882812 437.132812 C 266.585938 431.761719 255.183594 421.71875 249.171875 417.140625 C 245.34375 414.238281 241.796875 410.722656 236.675781 411.46875 C 233.617188 411.925781 208.042969 420.796875 206.3125 422.515625 C 206.3125 422.515625 190.898438 454.441406 190.898438 454.441406 C 187.710938 460.1875 181.058594 471.199219 172.992188 466.640625 C 168.171875 463.890625 168.605469 458.910156 170.359375 454.441406 C 174.476562 443.878906 182.398438 437.757812 185.132812 423.203125 C 178.054688 423.203125 155.988281 424.453125 150.894531 422.109375 C 142.847656 418.34375 142.867188 407.535156 150.894531 403.164062 C 154.925781 400.945312 162.96875 401.335938 167.953125 400.679688 C 182.492188 398.742188 195.613281 398.398438 208.5625 390.402344 C 208.5625 390.402344 164.828125 365.597656 164.828125 365.597656 C 152.363281 360.742188 134.414062 360.570312 121.09375 360.726562 C 107.144531 360.898438 94.023438 365.179688 80.484375 367.722656 C 72.300781 369.269531 63.253906 366.066406 65.378906 356.042969 C 67.613281 345.558594 82.671875 343.964844 91.417969 341.78125 C 117.375 335.3125 146.503906 331.925781 172.636719 338.859375 C 172.183594 329.097656 168.058594 308.496094 159.9375 302.496094 C 154.441406 298.453125 139.070312 295.96875 132.027344 294.738281 C 128.4375 294.113281 118.703125 291.671875 115.75 292.21875 C 115.75 292.21875 97.664062 301.261719 97.664062 301.261719 C 86.980469 305.402344 74.65625 306.074219 63.304688 306.0625 C 49.074219 306.042969 21.226562 301.546875 8.667969 295.265625 C -5.484375 288.191406 0.03125 275.742188 8.667969 273.773438 C 14.273438 272.496094 31.222656 279.160156 38.3125 280.867188 C 55.132812 284.898438 66.660156 284.863281 83.609375 282.632812 C 83.609375 282.632812 69.628906 271.414062 69.628906 271.414062 C 54.777344 257.34375 66.910156 247.144531 75.800781 249.003906 C 81.21875 250.144531 84.746094 254.859375 91.417969 258.078125 C 98.007812 261.261719 110.550781 263.980469 117.972656 265.636719 C 117.972656 265.636719 155.457031 271.558594 155.457031 271.558594 C 164.453125 272.679688 168.136719 271.054688 177.324219 275.867188 C 194.300781 284.785156 200.363281 310.230469 203.734375 327.925781 C 204.5625 332.359375 206.496094 346.074219 208.578125 349.183594 C 211.464844 353.507812 222.292969 357.136719 227.304688 359.570312 C 227.304688 359.570312 267.914062 381.03125 267.914062 381.03125 C 274.070312 358.210938 283.5 342.027344 283.535156 316.996094 C 283.546875 306.121094 284.300781 297.96875 281.296875 287.316406 C 273.738281 260.496094 248.296875 238.445312 227.304688 221.40625 C 221.320312 216.5625 200.640625 199.320312 194.441406 197.941406 C 189.988281 196.394531 177.261719 198.269531 171.074219 197.941406 C 145.476562 198.332031 124.339844 199.632812 99.226562 192.492188 C 91.964844 190.429688 79.734375 188.089844 77.875 179.511719 C 76.21875 171.828125 82.324219 166.035156 89.855469 166.582031 C 89.855469 166.582031 121.09375 174.515625 121.09375 174.515625 C 140.820312 177.359375 162.234375 177.46875 182.007812 174.515625 C 179.070312 161.832031 170.558594 138.105469 164.34375 126.441406 C 160.953125 120.082031 155.691406 112.007812 162.5 105.667969 C 172.496094 96.375 180.902344 109.242188 184.960938 117.070312 C 184.960938 117.070312 209.734375 173.015625 209.734375 173.015625 C 213.683594 178.015625 243.234375 196.414062 250.734375 201.414062 C 252.75 192.433594 255.929688 182.59375 255.148438 173.296875 Z M 274.160156 6.175781 C 274.160156 6.175781 275.722656 7.734375 275.722656 7.734375 C 275.722656 7.734375 275.722656 6.175781 275.722656 6.175781 C 275.722656 6.175781 274.160156 6.175781 274.160156 6.175781 Z M 353.820312 129.566406 C 353.820312 129.566406 355.382812 131.128906 355.382812 131.128906 C 355.382812 131.128906 355.382812 129.566406 355.382812 129.566406 C 355.382812 129.566406 353.820312 129.566406 353.820312 129.566406 Z M 533.4375 167.050781 C 533.4375 167.050781 535 168.613281 535 168.613281 C 535 168.613281 535 167.050781 535 167.050781 C 535 167.050781 533.4375 167.050781 533.4375 167.050781 Z M 586.542969 184.230469 C 586.542969 184.230469 588.105469 185.792969 588.105469 185.792969 C 588.105469 185.792969 588.105469 184.230469 588.105469 184.230469 C 588.105469 184.230469 586.542969 184.230469 586.542969 184.230469 Z M 275.722656 229.527344 C 275.722656 229.527344 277.285156 231.089844 277.285156 231.089844 C 277.285156 231.089844 277.285156 229.527344 277.285156 229.527344 C 277.285156 229.527344 275.722656 229.527344 275.722656 229.527344 Z M 436.601562 229.527344 C 436.601562 229.527344 438.164062 231.089844 438.164062 231.089844 C 438.164062 231.089844 438.164062 229.527344 438.164062 229.527344 C 438.164062 229.527344 436.601562 229.527344 436.601562 229.527344 Z M 431.914062 234.214844 C 431.914062 234.214844 433.476562 235.773438 433.476562 235.773438 C 433.476562 235.773438 433.476562 234.214844 433.476562 234.214844 C 433.476562 234.214844 431.914062 234.214844 431.914062 234.214844 Z M 614.65625 260.765625 C 614.65625 260.765625 616.21875 262.328125 616.21875 262.328125 C 616.21875 262.328125 616.21875 260.765625 616.21875 260.765625 C 616.21875 260.765625 614.65625 260.765625 614.65625 260.765625 Z M 82.046875 271.699219 C 82.046875 271.699219 83.609375 273.261719 83.609375 273.261719 C 83.609375 273.261719 83.609375 271.699219 83.609375 271.699219 C 83.609375 271.699219 82.046875 271.699219 82.046875 271.699219 Z M 486.582031 341.984375 C 486.582031 341.984375 488.144531 343.546875 488.144531 343.546875 C 488.144531 343.546875 488.144531 341.984375 488.144531 341.984375 C 488.144531 341.984375 486.582031 341.984375 486.582031 341.984375 Z M 450.65625 366.976562 C 450.65625 366.976562 452.21875 368.539062 452.21875 368.539062 C 452.21875 368.539062 452.21875 366.976562 452.21875 366.976562 C 452.21875 366.976562 450.65625 366.976562 450.65625 366.976562 Z M 303.839844 416.957031 C 303.839844 416.957031 305.398438 418.519531 305.398438 418.519531 C 305.398438 418.519531 305.398438 416.957031 305.398438 416.957031 C 305.398438 416.957031 303.839844 416.957031 303.839844 416.957031 Z M 305.398438 418.519531 C 305.398438 418.519531 306.960938 420.082031 306.960938 420.082031 C 306.960938 420.082031 306.960938 418.519531 306.960938 418.519531 C 306.960938 418.519531 305.398438 418.519531 305.398438 418.519531 Z M 178.886719 463.8125 C 178.886719 463.8125 180.445312 465.375 180.445312 465.375 C 180.445312 465.375 180.445312 463.8125 180.445312 463.8125 C 180.445312 463.8125 178.886719 463.8125 178.886719 463.8125 Z M 375.6875 473.183594 C 375.6875 473.183594 377.246094 474.746094 377.246094 474.746094 C 377.246094 474.746094 377.246094 473.183594 377.246094 473.183594 C 377.246094 473.183594 375.6875 473.183594 375.6875 473.183594 Z M 375.6875 473.183594 "/>
</g>
</svg>
