<?xml version="1.0" encoding="UTF-8"?>
<svg xmlns="http://www.w3.org/2000/svg" xmlns:xlink="http://www.w3.org/1999/xlink" width="661pt" height="604pt" viewBox="0 0 661 604" version="1.1">
<g id="surface26">
<path style=" stroke:none;fill-rule:nonzero;fill:rgb(70.19608%,70.19608%,70.19608%);fill-opacity:1;" d="M 405.285156 173.296875 C 407.515625 147.023438 421.902344 120.664062 422.199219 95.203125 C 422.511719 67.507812 415.46875 43.113281 406.578125 17.109375 C 403.972656 9.484375 401.160156 -0.933594 390.976562 0.347656 C 387.773438 0.738281 385.117188 2.15625 383.433594 4.96875 C 379.480469 11.484375 384.589844 21.496094 386.792969 28.042969 C 390.867188 40.144531 398.207031 65.804688 398.769531 78.023438 C 386.445312 76.363281 376.8125 73.601562 365.96875 67.273438 C 360.226562 63.929688 352.382812 56.171875 347.226562 55.105469 C 338.21875 53.246094 328.265625 62.992188 338.292969 74.757812 C 347.476562 85.5625 363.441406 92.734375 376.902344 96.53125 C 381.558594 97.824219 396.335938 99.527344 398.285156 103.496094 C 400.070312 107.132812 397.351562 114.925781 396.164062 118.632812 C 396.164062 118.632812 385.371094 154.554688 385.371094 154.554688 C 381.625 171.582031 381.167969 177.964844 383.433594 195.164062 C 384.199219 200.945312 388.902344 212.28125 387.289062 217.03125 C 385.621094 222.03125 370.9375 235.207031 366.4375 240.460938 C 354.894531 253.953125 349.007812 265.824219 344.101562 282.632812 C 344.101562 282.632812 272.253906 234.214844 272.253906 234.214844 C 281.457031 216.71875 287.84375 194.742188 287.875 174.859375 C 287.890625 169.628906 286.972656 160.882812 290.375 156.757812 C 293.609375 152.835938 321.050781 141.074219 324.332031 129.566406 C 326.097656 123.394531 320.597656 117.972656 314.425781 119.648438 C 311.101562 120.550781 306.382812 124.6875 303.492188 126.847656 C 297.480469 131.296875 293.355469 134.640625 286.3125 137.375 C 285.234375 129.421875 282.640625 114.082031 277.488281 108.054688 C 271.238281 100.726562 262.308594 103.402344 259.355469 110.882812 C 257.199219 116.347656 260.449219 129.453125 261.199219 135.8125 C 261.199219 135.8125 261.199219 149.871094 261.199219 149.871094 C 261.308594 164.082031 258 181.714844 253.390625 195.164062 C 253.390625 195.164062 247.265625 212.347656 247.265625 212.347656 C 238.519531 208.207031 232.164062 200.363281 225.398438 193.601562 C 208.515625 176.6875 194.097656 157.566406 181.367188 137.375 C 177.539062 131.3125 169.15625 111.492188 165.625 108.570312 C 158.050781 102.339844 145.539062 106.996094 148.148438 120.195312 C 150.972656 134.449219 166.5 162.957031 175.417969 174.859375 C 154.566406 173.109375 137.851562 161.820312 133.246094 160.597656 C 128.28125 159.285156 123.363281 161.863281 122.25 167.082031 C 120.5 175.375 133.449219 180.855469 139.492188 183.167969 C 151.945312 187.917969 156.269531 189.167969 169.167969 192.226562 C 183.320312 195.570312 187.289062 192.914062 197.285156 204.503906 C 232.554688 245.425781 248.4375 256.5 289.4375 289.832031 C 289.4375 289.832031 323.796875 318.132812 323.796875 318.132812 C 327.609375 321.382812 335.484375 327.316406 337.890625 331.316406 C 341.027344 336.53125 341.167969 349.382812 342.121094 356.042969 C 343.867188 368.269531 346.792969 381.703125 350.386719 393.527344 C 351.664062 397.710938 355.660156 408.769531 354.253906 412.691406 C 352.882812 416.46875 341.214844 427.558594 337.871094 431.015625 C 333.636719 435.386719 327.15625 445.363281 320.675781 444.242188 C 317.054688 443.632812 301.320312 433.804688 297.246094 431.304688 C 297.246094 431.304688 261.320312 408.816406 261.320312 408.816406 C 252.171875 402.429688 243.722656 394.496094 233.207031 390.402344 C 233.207031 390.402344 246.078125 366.976562 246.078125 366.976562 C 247.65625 363.773438 250.855469 355.980469 253.042969 353.792969 C 256.058594 350.761719 261.945312 349.929688 266.007812 348.621094 C 273.425781 346.246094 283.5 341.792969 289.203125 336.484375 C 297.527344 328.753906 292.84375 319.835938 286.285156 319.648438 C 282.707031 319.550781 264.976562 330.144531 259.761719 332.613281 C 260.824219 324.550781 264.664062 308.667969 261.726562 301.433594 C 259.089844 294.953125 251.90625 291.875 245.875 296.066406 C 239.832031 300.261719 237.90625 312.777344 234.363281 320.117188 C 223.027344 343.625 209.6875 355.511719 205.09375 365.414062 C 195.769531 359.976562 188.101562 352.570312 180.117188 345.371094 C 162.765625 329.675781 145.867188 312.464844 136.851562 290.441406 C 126.777344 265.792969 120.65625 227.789062 108.460938 206.097656 C 102.980469 196.351562 90.042969 177.390625 81.6875 170.566406 C 76.171875 166.128906 68.945312 163.972656 63.898438 170.566406 C 59.523438 176.203125 62.492188 182.527344 66.445312 187.355469 C 75.675781 198.644531 80.53125 200.675781 88.714844 215.46875 C 93.339844 223.828125 95.558594 233.148438 98.882812 242.023438 C 80.34375 248.035156 63.460938 249.457031 45.777344 239.957031 C 32.691406 232.929688 27.695312 222.792969 19.226562 222.605469 C 12.480469 222.449219 6.46875 229.136719 9.636719 237.335938 C 12.792969 245.488281 22.382812 252.75 30.160156 256.078125 C 30.160156 256.078125 30.160156 260.765625 30.160156 260.765625 C 30.160156 260.765625 9.855469 268.136719 9.855469 268.136719 C 6.9375 268.824219 2.25 269.277344 0.75 272.367188 C -3.734375 281.582031 13.148438 281.035156 17.664062 279.878906 C 32.28125 276.132812 44.1875 265.871094 50.464844 264.59375 C 55.554688 263.558594 63.617188 266.183594 69.207031 266.746094 C 80.78125 267.902344 92.371094 266.855469 103.570312 263.890625 C 106.847656 280.175781 110.710938 296.671875 116.347656 312.308594 C 117.910156 316.632812 124.5 327.238281 123.375 330.535156 C 122.328125 333.609375 117.269531 336.171875 114.503906 337.5625 C 94.835938 346.574219 90.484375 338.03125 80.140625 337.5625 C 73.359375 337.4375 67.035156 342.625 68.226562 349.792969 C 69.363281 356.632812 77.265625 361.132812 83.265625 363.113281 C 98.242188 368.070312 112.285156 366.691406 126.996094 361.722656 C 132.167969 359.992188 140.570312 354.695312 145.476562 357.304688 C 147.785156 358.523438 154.367188 366.144531 156.6875 368.539062 C 156.6875 368.539062 181.664062 393.386719 181.664062 393.386719 C 181.664062 393.386719 210.6875 419.09375 210.6875 419.09375 C 210.6875 419.09375 262.882812 465.0625 262.882812 465.0625 C 271.773438 472.25 288.234375 487.101562 297.246094 491.929688 C 291.65625 500.128906 291.75 503.253906 288.515625 512.234375 C 283.75 525.488281 275.976562 556.355469 275.441406 570.023438 C 274.222656 601.417969 306.121094 612.847656 325.082031 597.371094 C 338.730469 586.203125 336.121094 573.070312 336.292969 557.527344 C 336.386719 549.699219 337.761719 543.316406 339.027344 535.660156 C 345.324219 498.035156 361.597656 464.484375 388.554688 437.132812 C 393.851562 431.761719 405.253906 421.71875 411.265625 417.140625 C 415.09375 414.238281 418.640625 410.722656 423.761719 411.46875 C 426.820312 411.925781 452.390625 420.796875 454.125 422.515625 C 454.125 422.515625 469.539062 454.441406 469.539062 454.441406 C 472.726562 460.1875 479.378906 471.199219 487.441406 466.640625 C 492.265625 463.890625 491.832031 458.910156 490.078125 454.441406 C 485.957031 443.878906 478.035156 437.757812 475.304688 423.203125 C 482.382812 423.203125 504.449219 424.453125 509.542969 422.109375 C 517.585938 418.34375 517.566406 407.535156 509.542969 403.164062 C 505.511719 400.945312 497.46875 401.335938 492.484375 400.679688 C 477.945312 398.742188 464.824219 398.398438 451.875 390.402344 C 451.875 390.402344 495.609375 365.597656 495.609375 365.597656 C 508.074219 360.742188 526.023438 360.570312 539.34375 360.726562 C 553.292969 360.898438 566.410156 365.179688 579.953125 367.722656 C 588.136719 369.269531 597.179688 366.066406 595.058594 356.042969 C 592.824219 345.558594 577.765625 343.964844 569.019531 341.78125 C 543.0625 335.3125 513.929688 331.925781 487.800781 338.859375 C 488.253906 329.097656 492.378906 308.496094 500.5 302.496094 C 505.996094 298.453125 521.367188 295.96875 528.410156 294.738281 C 532 294.113281 541.734375 291.671875 544.6875 292.21875 C 544.6875 292.21875 562.769531 301.261719 562.769531 301.261719 C 573.453125 305.402344 585.78125 306.074219 597.132812 306.0625 C 611.359375 306.042969 639.210938 301.546875 651.769531 295.265625 C 665.921875 288.191406 660.40625 275.742188 651.769531 273.773438 C 646.160156 272.496094 629.214844 279.160156 622.125 280.867188 C 605.304688 284.898438 593.773438 284.863281 576.828125 282.632812 C 576.828125 282.632812 590.808594 271.414062 590.808594 271.414062 C 605.660156 257.34375 593.527344 247.144531 584.636719 249.003906 C 579.21875 250.144531 575.691406 254.859375 569.019531 258.078125 C 562.429688 261.261719 549.886719 263.980469 542.464844 265.636719 C 542.464844 265.636719 504.980469 271.558594 504.980469 271.558594 C 495.984375 272.679688 492.300781 271.054688 483.113281 275.867188 C 466.136719 284.785156 460.074219 310.230469 456.703125 327.925781 C 455.871094 332.359375 453.941406 346.074219 451.859375 349.183594 C 448.972656 353.507812 438.144531 357.136719 433.132812 359.570312 C 433.132812 359.570312 392.523438 381.03125 392.523438 381.03125 C 386.367188 358.210938 376.9375 342.027344 376.902344 316.996094 C 376.890625 306.121094 376.136719 297.96875 379.140625 287.316406 C 386.699219 260.496094 412.140625 238.445312 433.132812 221.40625 C 439.117188 216.5625 459.796875 199.320312 465.996094 197.941406 C 470.445312 196.394531 483.175781 198.269531 489.359375 197.941406 C 514.960938 198.332031 536.097656 199.632812 561.207031 192.492188 C 568.472656 190.429688 580.703125 188.089844 582.5625 179.511719 C 584.21875 171.828125 578.113281 166.035156 570.582031 166.582031 C 570.582031 166.582031 539.34375 174.515625 539.34375 174.515625 C 519.617188 177.359375 498.199219 177.46875 478.425781 174.515625 C 481.367188 161.832031 489.878906 138.105469 496.089844 126.441406 C 499.484375 120.082031 504.746094 112.007812 497.9375 105.667969 C 487.941406 96.375 479.535156 109.242188 475.472656 117.070312 C 475.472656 117.070312 450.703125 173.015625 450.703125 173.015625 C 446.753906 178.015625 417.199219 196.414062 409.703125 201.414062 C 407.6875 192.433594 404.503906 182.59375 405.285156 173.296875 Z M 386.273438 6.175781 C 386.273438 6.175781 384.714844 7.734375 384.714844 7.734375 C 384.714844 7.734375 384.714844 6.175781 384.714844 6.175781 C 384.714844 6.175781 386.273438 6.175781 386.273438 6.175781 Z M 306.617188 129.566406 C 306.617188 129.566406 305.054688 131.128906 305.054688 131.128906 C 305.054688 131.128906 305.054688 129.566406 305.054688 129.566406 C 305.054688 129.566406 306.617188 129.566406 306.617188 129.566406 Z M 126.996094 167.050781 C 126.996094 167.050781 125.4375 168.613281 125.4375 168.613281 C 125.4375 168.613281 125.4375 167.050781 125.4375 167.050781 C 125.4375 167.050781 126.996094 167.050781 126.996094 167.050781 Z M 73.894531 184.230469 C 73.894531 184.230469 72.332031 185.792969 72.332031 185.792969 C 72.332031 185.792969 72.332031 184.230469 72.332031 184.230469 C 72.332031 184.230469 73.894531 184.230469 73.894531 184.230469 Z M 384.714844 229.527344 C 384.714844 229.527344 383.152344 231.089844 383.152344 231.089844 C 383.152344 231.089844 383.152344 229.527344 383.152344 229.527344 C 383.152344 229.527344 384.714844 229.527344 384.714844 229.527344 Z M 223.835938 229.527344 C 223.835938 229.527344 222.273438 231.089844 222.273438 231.089844 C 222.273438 231.089844 222.273438 229.527344 222.273438 229.527344 C 222.273438 229.527344 223.835938 229.527344 223.835938 229.527344 Z M 228.523438 234.214844 C 228.523438 234.214844 226.960938 235.773438 226.960938 235.773438 C 226.960938 235.773438 226.960938 234.214844 226.960938 234.214844 C 226.960938 234.214844 228.523438 234.214844 228.523438 234.214844 Z M 45.777344 260.765625 C 45.777344 260.765625 44.214844 262.328125 44.214844 262.328125 C 44.214844 262.328125 44.214844 260.765625 44.214844 260.765625 C 44.214844 260.765625 45.777344 260.765625 45.777344 260.765625 Z M 578.390625 271.699219 C 578.390625 271.699219 576.828125 273.261719 576.828125 273.261719 C 576.828125 273.261719 576.828125 271.699219 576.828125 271.699219 C 576.828125 271.699219 578.390625 271.699219 578.390625 271.699219 Z M 173.855469 341.984375 C 173.855469 341.984375 172.292969 343.546875 172.292969 343.546875 C 172.292969 343.546875 172.292969 341.984375 172.292969 341.984375 C 172.292969 341.984375 173.855469 341.984375 173.855469 341.984375 Z M 209.777344 366.976562 C 209.777344 366.976562 208.21875 368.539062 208.21875 368.539062 C 208.21875 368.539062 208.21875 366.976562 208.21875 366.976562 C 208.21875 366.976562 209.777344 366.976562 209.777344 366.976562 Z M 356.597656 416.957031 C 356.597656 416.957031 355.035156 418.519531 355.035156 418.519531 C 355.035156 418.519531 355.035156 416.957031 355.035156 416.957031 C 355.035156 416.957031 356.597656 416.957031 356.597656 416.957031 Z M 355.035156 418.519531 C 355.035156 418.519531 353.476562 420.082031 353.476562 420.082031 C 353.476562 420.082031 353.476562 418.519531 353.476562 418.519531 C 353.476562 418.519531 355.035156 418.519531 355.035156 418.519531 Z M 481.550781 463.8125 C 481.550781 463.8125 479.988281 465.375 479.988281 465.375 C 479.988281 465.375 479.988281 463.8125 479.988281 463.8125 C 479.988281 463.8125 481.550781 463.8125 481.550781 463.8125 Z M 284.75 473.183594 C 284.75 473.183594 283.1875 474.746094 283.1875 474.746094 C 283.1875 474.746094 283.1875 473.183594 283.1875 473.183594 C 283.1875 473.183594 284.75 473.183594 284.75 473.183594 Z M 284.75 473.183594 "/>
</g>
</svg>
