<?xml version="1.0" encoding="UTF-8" standalone="no"?>
<svg
   xmlns:dc="http://purl.org/dc/elements/1.1/"
   xmlns:cc="http://creativecommons.org/ns#"
   xmlns:rdf="http://www.w3.org/1999/02/22-rdf-syntax-ns#"
   xmlns:svg="http://www.w3.org/2000/svg"
   xmlns="http://www.w3.org/2000/svg"
   xmlns:sodipodi="http://sodipodi.sourceforge.net/DTD/sodipodi-0.dtd"
   xmlns:inkscape="http://www.inkscape.org/namespaces/inkscape"
   width="70.81649mm"
   height="36.834728mm"
   viewBox="0 0 250.92457 130.51675"
   id="svg2"
   version="1.1"
   inkscape:version="1.0.2 (e86c870879, 2021-01-15)"
   sodipodi:docname="table_coral.r.svg">
  <defs
     id="defs4" />
  <sodipodi:namedview
     id="base"
     pagecolor="#ffffff"
     bordercolor="#666666"
     borderopacity="1.0"
     inkscape:pageopacity="0.0"
     inkscape:pageshadow="2"
     inkscape:zoom="1.2835424"
     inkscape:cx="-2.448195"
     inkscape:cy="104.05071"
     inkscape:document-units="px"
     inkscape:current-layer="layer1"
     showgrid="false"
     fit-margin-top="0"
     fit-margin-left="0"
     fit-margin-right="0"
     fit-margin-bottom="0"
     inkscape:window-width="1920"
     inkscape:window-height="1023"
     inkscape:window-x="0"
     inkscape:window-y="0"
     inkscape:window-maximized="1"
     inkscape:document-rotation="0" />
  <metadata
     id="metadata7">
    <rdf:RDF>
      <cc:Work
         rdf:about="">
        <dc:format>image/svg+xml</dc:format>
        <dc:type
           rdf:resource="http://purl.org/dc/dcmitype/StillImage" />
        <dc:title></dc:title>
      </cc:Work>
    </rdf:RDF>
  </metadata>
  <g
     inkscape:label="Layer 1"
     inkscape:groupmode="layer"
     id="layer1"
     transform="translate(-341.91098,-690.01698)">
    <path
       style="opacity:1;fill:#b3b3b3;fill-opacity:1;stroke:none;stroke-width:1;stroke-linecap:square;stroke-linejoin:miter;stroke-miterlimit:4;stroke-dasharray:none;stroke-dashoffset:0;stroke-opacity:1"
       d="m 473.93941,690.01715 c -7.26225,0.0135 -36.79502,0.8124 -43.75391,1.99609 -19.8332,3.3736 -11.00508,7.87429 -1.96875,8.23828 17.71457,0.71355 25.83984,9.6773 35.04688,12.25781 18.82066,5.27498 46.57003,-7.10753 68.02734,-5.0625 17.91628,1.70753 31.26758,-1.60156 31.26758,-1.60156 0,0 -20.74445,5.28678 -38.29101,3.39453 -5.29474,-0.57099 -18.72354,2.13423 -32.00586,4.3086 -9.58078,1.56842 -22.11513,2.03696 -26.50977,1.07422 -1.55407,0.0527 4.77992,3.63032 5.83203,4.62109 6.52319,6.14288 9.11566,13.90127 12.0957,19.61133 3.13113,-0.37555 6.27791,-0.6019 9.45313,-0.58008 l 2.09375,-0.0137 c 11.325,0.36805 16.79,-0.63897 27.99805,1.5039 9.1742,-19.05211 66.014,-41.05858 68.87695,-43.8457 9.26179,-9.01651 -71.65682,4.07956 -100.03711,-3.79883 -5.43307,-1.50822 -11.67268,-2.11553 -18.125,-2.10351 z m -25.35547,26.57031 c -5.61188,-0.0105 -11.03828,0.51831 -15.76367,1.83008 -24.68364,6.85221 -95.06126,-4.53739 -87.00586,3.30468 1.55695,1.51572 19.42532,10.24897 34.55273,20.63086 21.29556,0.97203 42.57529,2.68379 63.89454,1.88086 1.44471,0.0256 2.88729,0.003 4.32617,-0.0527 0.63483,-0.7422 1.30288,-1.47322 2.04687,-2.17383 0.91507,-0.86173 6.42392,-3.97177 5.07227,-4.01758 -3.82222,0.83734 -14.72379,0.42859 -23.05664,-0.93554 -11.55225,-1.89115 -23.23281,-4.24271 -27.83789,-3.7461 -15.26104,1.64578 -33.30469,-2.95312 -33.30469,-2.95312 0,0 11.61269,2.87771 27.19531,1.39258 18.66241,-1.77865 42.79683,8.99219 59.16602,4.40429 5.34804,-1.49892 11.06465,-4.6947 18.85351,-6.83984 -0.88931,-1.59981 -1.85112,-3.15688 -2.96289,-4.625 -1.47657,-3.16704 -4.9292,-4.55235 -7.53125,-6.56836 -5.69269,-0.91296 -11.76768,-1.5203 -17.64453,-1.53125 z m 46.6211,23.67383 c -8.31912,-0.0155 -16.36418,0.7683 -23.36915,2.71289 -36.59129,10.15778 -140.91993,-6.72673 -128.97851,4.89844 4.05322,3.94588 82.70155,40.88036 82.89844,66.12109 0.1063,13.6275 28.30919,2.20772 46.08007,-0.81445 12.467,-2.12017 12.07375,-21.73564 26.40821,-35.23438 1.35651,-1.27743 9.52128,-5.88913 7.51758,-5.95703 -5.6661,1.24128 -21.82504,0.63547 -34.17774,-1.38672 -17.12517,-2.80347 -34.44096,-6.28892 -41.26758,-5.55273 -22.62313,2.43971 -49.37109,-4.37696 -49.37109,-4.37696 0,0 17.21462,4.26602 40.31445,2.06446 27.66535,-2.63669 63.44313,13.32848 87.70899,6.52734 11.87083,-3.3271 24.92586,-12.3085 47.76562,-13.22852 15.73862,-0.63396 -25.47982,-15.70626 -61.52929,-15.77343 z"
       id="path4151"
       inkscape:connector-curvature="0" />
  </g>
</svg>
