<?xml version="1.0" encoding="UTF-8"?>
<svg xmlns="http://www.w3.org/2000/svg" xmlns:xlink="http://www.w3.org/1999/xlink" width="251pt" height="131pt" viewBox="0 0 251 131" version="1.1">
<g id="surface41">
<path style=" stroke:none;fill-rule:nonzero;fill:rgb(70.19608%,70.19608%,70.19608%);fill-opacity:1;" d="M 132.066406 0.222656 C 124.804688 0.234375 95.261719 1.035156 88.300781 2.21875 C 68.460938 5.59375 77.292969 10.09375 86.332031 10.460938 C 104.050781 11.171875 112.179688 20.140625 121.390625 22.722656 C 140.214844 27.996094 167.972656 15.613281 189.4375 17.65625 C 207.359375 19.363281 220.714844 16.054688 220.714844 16.054688 C 220.714844 16.054688 199.964844 21.34375 182.410156 19.449219 C 177.113281 18.878906 163.683594 21.585938 150.394531 23.761719 C 140.8125 25.328125 128.273438 25.796875 123.878906 24.835938 C 122.324219 24.886719 128.660156 28.464844 129.710938 29.457031 C 136.238281 35.601562 138.832031 43.363281 141.8125 49.074219 C 144.941406 48.699219 148.089844 48.472656 151.265625 48.496094 L 153.363281 48.480469 C 164.691406 48.847656 170.15625 47.839844 181.367188 49.984375 C 190.546875 30.925781 247.402344 8.914062 250.265625 6.125 C 259.53125 -2.894531 178.585938 10.207031 150.199219 2.328125 C 144.765625 0.816406 138.523438 0.210938 132.066406 0.222656 Z M 106.703125 26.800781 C 101.089844 26.789062 95.664062 27.320312 90.9375 28.632812 C 66.246094 35.484375 -4.152344 24.09375 3.90625 31.9375 C 5.460938 33.453125 23.335938 42.1875 38.46875 52.574219 C 59.769531 53.546875 81.054688 55.257812 102.382812 54.457031 C 103.828125 54.480469 105.269531 54.457031 106.707031 54.402344 C 107.34375 53.660156 108.011719 52.929688 108.757812 52.226562 C 109.671875 51.367188 115.183594 48.253906 113.832031 48.210938 C 110.007812 49.046875 99.101562 48.636719 90.765625 47.273438 C 79.210938 45.382812 67.527344 43.03125 62.921875 43.527344 C 47.65625 45.171875 29.605469 40.570312 29.605469 40.570312 C 29.605469 40.570312 41.222656 43.449219 56.808594 41.964844 C 75.476562 40.1875 99.617188 50.960938 115.992188 46.371094 C 121.34375 44.871094 127.0625 41.675781 134.851562 39.527344 C 133.960938 37.929688 133 36.371094 131.886719 34.902344 C 130.410156 31.734375 126.957031 30.347656 124.355469 28.332031 C 118.660156 27.417969 112.582031 26.8125 106.703125 26.800781 Z M 153.339844 50.480469 C 145.019531 50.464844 136.972656 51.25 129.964844 53.195312 C 93.363281 63.355469 -11 46.464844 0.945312 58.09375 C 5 62.042969 83.671875 98.988281 83.871094 124.234375 C 83.976562 137.867188 112.1875 126.445312 129.964844 123.421875 C 142.433594 121.300781 142.042969 101.679688 156.378906 88.175781 C 157.738281 86.898438 165.902344 82.285156 163.898438 82.21875 C 158.230469 83.460938 142.066406 82.851562 129.710938 80.832031 C 112.582031 78.027344 95.261719 74.539062 88.433594 75.277344 C 65.800781 77.714844 39.046875 70.898438 39.046875 70.898438 C 39.046875 70.898438 56.265625 75.164062 79.371094 72.960938 C 107.046875 70.324219 142.835938 86.296875 167.109375 79.492188 C 178.980469 76.164062 192.042969 67.179688 214.886719 66.257812 C 230.632812 65.625 189.402344 50.546875 153.339844 50.480469 Z M 153.339844 50.480469 "/>
</g>
</svg>
