<?xml version="1.0" encoding="UTF-8" standalone="no"?>
<!-- Created with Inkscape (http://www.inkscape.org/) -->

<svg
   xmlns:dc="http://purl.org/dc/elements/1.1/"
   xmlns:cc="http://creativecommons.org/ns#"
   xmlns:rdf="http://www.w3.org/1999/02/22-rdf-syntax-ns#"
   xmlns:svg="http://www.w3.org/2000/svg"
   xmlns="http://www.w3.org/2000/svg"
   xmlns:sodipodi="http://sodipodi.sourceforge.net/DTD/sodipodi-0.dtd"
   xmlns:inkscape="http://www.inkscape.org/namespaces/inkscape"
   width="70.81649mm"
   height="36.834728mm"
   viewBox="0 0 250.92457 130.51675"
   id="svg2"
   version="1.1"
   inkscape:version="0.91 r13725"
   sodipodi:docname="plate_coral.l.svg">
  <defs
     id="defs4" />
  <sodipodi:namedview
     id="base"
     pagecolor="#ffffff"
     bordercolor="#666666"
     borderopacity="1.0"
     inkscape:pageopacity="0.0"
     inkscape:pageshadow="2"
     inkscape:zoom="1.2835424"
     inkscape:cx="-2.448195"
     inkscape:cy="104.05071"
     inkscape:document-units="px"
     inkscape:current-layer="layer1"
     showgrid="false"
     fit-margin-top="0"
     fit-margin-left="0"
     fit-margin-right="0"
     fit-margin-bottom="0"
     inkscape:window-width="1366"
     inkscape:window-height="744"
     inkscape:window-x="0"
     inkscape:window-y="24"
     inkscape:window-maximized="1" />
  <metadata
     id="metadata7">
    <rdf:RDF>
      <cc:Work
         rdf:about="">
        <dc:format>image/svg+xml</dc:format>
        <dc:type
           rdf:resource="http://purl.org/dc/dcmitype/StillImage" />
        <dc:title></dc:title>
      </cc:Work>
    </rdf:RDF>
  </metadata>
  <g
     inkscape:label="Layer 1"
     inkscape:groupmode="layer"
     id="layer1"
     transform="translate(-341.91098,-690.01698)">
    <path
       style="opacity:1;fill:#b3b3b3;fill-opacity:1;stroke:none;stroke-width:1;stroke-linecap:square;stroke-linejoin:miter;stroke-miterlimit:4;stroke-dasharray:none;stroke-dashoffset:0;stroke-opacity:1"
       d="M 460.80711,690.01715 C 468.06936,690.03068 497.60213,690.82955 504.56102,692.01324 524.39422,695.38684 515.5661,699.88753 506.52977,700.25152 488.8152,700.96507 480.68993,709.92882 471.48289,712.50933 452.66223,717.78431 424.91286,705.4018 403.45555,707.44683 385.53927,709.15436 372.18797,705.84527 372.18797,705.84527 372.18797,705.84527 392.93242,711.13205 410.47898,709.2398 415.77372,708.66881 429.20252,711.37403 442.48484,713.5484 452.06562,715.11682 464.59997,715.58536 468.99461,714.62262 470.54868,714.67529 464.21469,718.25294 463.16258,719.24371 456.63939,725.38659 454.04692,733.14498 451.06688,738.85504 447.93575,738.47949 444.78897,738.25314 441.61375,738.27496 L 439.52,738.26129 C 428.195,738.62934 422.73,737.62232 411.52195,739.76519 402.34775,720.71308 345.50795,698.70661 342.645,695.91949 333.38321,686.90298 414.30182,699.99905 442.68211,692.12066 448.11518,690.61244 454.35479,690.00513 460.80711,690.01715 Z M 486.16258,716.58746 C 491.77446,716.577 497.20086,717.10577 501.92625,718.41754 526.60989,725.26975 596.98751,713.88015 588.93211,721.72222 587.37516,723.23794 569.50679,731.97119 554.37938,742.35308 533.08382,743.32511 511.80409,745.03687 490.48484,744.23394 489.04013,744.2595 487.59755,744.2365 486.15867,744.18121 485.52384,743.43901 484.85579,742.70799 484.1118,742.00738 483.19673,741.14565 477.68788,738.03561 479.03953,737.9898 482.86175,738.82714 493.76332,738.41839 502.09617,737.05426 513.64842,735.16311 525.32898,732.81155 529.93406,733.30816 545.1951,734.95394 563.23875,730.35504 563.23875,730.35504 563.23875,730.35504 551.62606,733.23275 536.04344,731.74762 517.38103,729.96897 493.24661,740.73981 476.87742,736.15191 471.52938,734.65299 465.81277,731.45721 458.02391,729.31207 458.91322,727.71226 459.87503,726.15519 460.9868,724.68707 462.46337,721.52003 465.916,720.13472 468.51805,718.11871 474.21074,717.20575 480.28573,716.59841 486.16258,716.58746 Z M 439.54148,740.26129 C 447.8606,740.24579 455.90566,741.02959 462.91063,742.97418 499.50192,753.13196 603.83056,736.24745 591.88914,747.87262 587.83592,751.8185 509.18759,788.75298 508.9907,813.99371 508.8844,827.62121 480.68151,816.20143 462.91063,813.17926 450.44363,811.05909 450.83688,791.44362 436.50242,777.94488 435.14591,776.66745 426.98114,772.05575 428.98484,771.98785 434.65094,773.22913 450.80988,772.62332 463.16258,770.60113 480.28775,767.79766 497.60354,764.31221 504.43016,765.0484 527.05329,767.48811 553.80125,760.67144 553.80125,760.67144 553.80125,760.67144 536.58663,764.93746 513.4868,762.7359 485.82145,760.09921 450.04367,776.06438 425.77781,769.26324 413.90698,765.93614 400.85195,756.95474 378.01219,756.03472 362.27357,755.40076 403.49201,740.32846 439.54148,740.26129 Z"
       id="path4151"
       inkscape:connector-curvature="0" />
  </g>
</svg>
