<?xml version="1.0" encoding="UTF-8"?>
<svg xmlns="http://www.w3.org/2000/svg" xmlns:xlink="http://www.w3.org/1999/xlink" width="251pt" height="131pt" viewBox="0 0 251 131" version="1.1">
<g id="surface36">
<path style=" stroke:none;fill-rule:nonzero;fill:rgb(70.19608%,70.19608%,70.19608%);fill-opacity:1;" d="M 118.933594 0.222656 C 126.195312 0.234375 155.738281 1.035156 162.699219 2.21875 C 182.539062 5.59375 173.707031 10.09375 164.667969 10.460938 C 146.949219 11.171875 138.820312 20.140625 129.609375 22.722656 C 110.785156 27.996094 83.027344 15.613281 61.5625 17.65625 C 43.640625 19.363281 30.285156 16.054688 30.285156 16.054688 C 30.285156 16.054688 51.035156 21.34375 68.589844 19.449219 C 73.886719 18.878906 87.316406 21.585938 100.605469 23.761719 C 110.1875 25.328125 122.726562 25.796875 127.121094 24.835938 C 128.675781 24.886719 122.339844 28.464844 121.289062 29.457031 C 114.761719 35.601562 112.167969 43.363281 109.1875 49.074219 C 106.054688 48.699219 102.910156 48.472656 99.734375 48.496094 L 97.636719 48.480469 C 86.308594 48.847656 80.84375 47.839844 69.632812 49.984375 C 60.453125 30.925781 3.597656 8.914062 0.734375 6.125 C -8.53125 -2.894531 72.414062 10.207031 100.800781 2.328125 C 106.234375 0.816406 112.476562 0.210938 118.933594 0.222656 Z M 144.296875 26.800781 C 149.910156 26.789062 155.335938 27.320312 160.0625 28.632812 C 184.753906 35.484375 255.152344 24.09375 247.09375 31.9375 C 245.539062 33.453125 227.664062 42.1875 212.53125 52.574219 C 191.230469 53.546875 169.945312 55.257812 148.617188 54.457031 C 147.171875 54.480469 145.730469 54.457031 144.292969 54.402344 C 143.65625 53.660156 142.988281 52.929688 142.242188 52.226562 C 141.328125 51.367188 135.816406 48.253906 137.167969 48.210938 C 140.992188 49.046875 151.898438 48.636719 160.234375 47.273438 C 171.789062 45.382812 183.472656 43.03125 188.078125 43.527344 C 203.34375 45.171875 221.394531 40.570312 221.394531 40.570312 C 221.394531 40.570312 209.777344 43.449219 194.191406 41.964844 C 175.523438 40.1875 151.382812 50.960938 135.007812 46.371094 C 129.65625 44.871094 123.9375 41.675781 116.148438 39.527344 C 117.039062 37.929688 118 36.371094 119.113281 34.902344 C 120.589844 31.734375 124.042969 30.347656 126.644531 28.332031 C 132.339844 27.417969 138.417969 26.8125 144.296875 26.800781 Z M 97.660156 50.480469 C 105.980469 50.464844 114.027344 51.25 121.035156 53.195312 C 157.636719 63.355469 262 46.464844 250.054688 58.09375 C 246 62.042969 167.328125 98.988281 167.128906 124.234375 C 167.023438 137.867188 138.8125 126.445312 121.035156 123.421875 C 108.566406 121.300781 108.957031 101.679688 94.621094 88.175781 C 93.261719 86.898438 85.097656 82.285156 87.101562 82.21875 C 92.769531 83.460938 108.929688 82.851562 121.289062 80.832031 C 138.417969 78.027344 155.738281 74.539062 162.566406 75.277344 C 185.199219 77.714844 211.953125 70.898438 211.953125 70.898438 C 211.953125 70.898438 194.734375 75.164062 171.628906 72.960938 C 143.953125 70.324219 108.164062 86.296875 83.890625 79.492188 C 72.019531 76.164062 58.957031 67.179688 36.113281 66.257812 C 20.367188 65.625 61.597656 50.546875 97.660156 50.480469 Z M 97.660156 50.480469 "/>
</g>
</svg>
